<?xml version="1.0" encoding="UTF-8" standalone="no"?>
<!DOCTYPE svg PUBLIC "-//W3C//DTD SVG 1.1//EN"
 "http://www.w3.org/Graphics/SVG/1.1/DTD/svg11.dtd">
<!-- Generated by graphviz version 2.36.0 (20140111.2315)
 -->
<!-- Title: simulationObjects.SugarPatch Pages: 1 -->
<!--zoomable 518 -->
<svg id="main" version="1.1" xmlns="http://www.w3.org/2000/svg" xmlns:xlink="http://www.w3.org/1999/xlink" xml:space="preserve" onload="init(evt)">
<style type="text/css"><![CDATA[
.edge:hover path { stroke: red; }
.edge:hover polygon { stroke: red; fill: red; }
]]></style>
<script type="text/javascript"><![CDATA[
var edges = document.getElementsByTagName('g');
if (edges && edges.length) {
  for (var i=0;i<edges.length;i++) {
    if (edges[i].id.substr(0,4)=='edge') {
      edges[i].setAttribute('class','edge');
    }
  }
}
]]></script>
        <defs>
                <circle id="rim" cx="0" cy="0" r="7"/>
                <circle id="rim2" cx="0" cy="0" r="3.5"/>
                <g id="zoomPlus">
                        <use xlink:href="#rim" fill="#404040">
                                <set attributeName="fill" to="#808080" begin="zoomplus.mouseover" end="zoomplus.mouseout"/>
                        </use>
                        <path d="M-4,0h8M0,-4v8" fill="none" stroke="white" stroke-width="1.5" pointer-events="none"/>
                </g>
                <g id="zoomMin">
                        <use xlink:href="#rim" fill="#404040">
                                <set attributeName="fill" to="#808080" begin="zoomminus.mouseover" end="zoomminus.mouseout"/>
                        </use>
                        <path d="M-4,0h8" fill="none" stroke="white" stroke-width="1.5" pointer-events="none"/>
                </g>
                <g id="dirArrow">
                        <path fill="none" stroke="white" stroke-width="1.5" d="M0,-3.0v7 M-2.5,-0.5L0,-3.0L2.5,-0.5"/>
                </g>
               <g id="resetDef">
                       <use xlink:href="#rim2" fill="#404040">
                               <set attributeName="fill" to="#808080" begin="reset.mouseover" end="reset.mouseout"/>
                       </use>
               </g>
        </defs>

<script type="text/javascript">
var viewWidth = 1354;
var viewHeight = 518;
var sectionId = 'dynsection-1';
</script>
<script xlink:href="../../svgpan.js"/>
<svg id="graph" class="graph">
<g id="viewport">
<title>simulationObjects.SugarPatch</title>
<polygon fill="white" stroke="none" points="-4,4 -4,-514 1350,-514 1350,4 -4,4"/>
<!-- Node1 -->
<g id="node1" class="node"><title>Node1</title>
<polygon fill="#bfbfbf" stroke="black" points="950,-238.5 950,-257.5 1110,-257.5 1110,-238.5 950,-238.5"/>
<text text-anchor="middle" x="1030" y="-245.5" font-family="Helvetica,sans-Serif" font-size="10.00">simulationObjects.SugarPatch</text>
</g>
<!-- Node2 -->
<g id="node2" class="node"><title>Node2</title>
<g id="a_node2"><a xlink:href="../../d5/da5/classsimulation_objects_1_1_patch.html" target="_top" xlink:title="simulationObjects.Patch">
<polygon fill="white" stroke="black" points="715.5,-238.5 715.5,-257.5 846.5,-257.5 846.5,-238.5 715.5,-238.5"/>
<text text-anchor="middle" x="781" y="-245.5" font-family="Helvetica,sans-Serif" font-size="10.00">simulationObjects.Patch</text>
</a>
</g>
</g>
<!-- Node2&#45;&gt;Node1 -->
<g id="edge1" class="edge"><title>Node2&#45;&gt;Node1</title>
<path fill="none" stroke="midnightblue" d="M856.779,-248C886.188,-248 919.987,-248 949.811,-248"/>
<polygon fill="midnightblue" stroke="midnightblue" points="856.574,-244.5 846.574,-248 856.574,-251.5 856.574,-244.5"/>
</g>
<!-- Node8 -->
<g id="node8" class="node"><title>Node8</title>
<g id="a_node8"><a xlink:href="../../d2/d6e/classsimulation_objects_1_1_cell.html" target="_top" xlink:title="simulationObjects.Cell">
<polygon fill="white" stroke="black" points="969,-77.5 969,-96.5 1091,-96.5 1091,-77.5 969,-77.5"/>
<text text-anchor="middle" x="1030" y="-84.5" font-family="Helvetica,sans-Serif" font-size="10.00">simulationObjects.Cell</text>
</a>
</g>
</g>
<!-- Node2&#45;&gt;Node8 -->
<g id="edge9" class="edge"><title>Node2&#45;&gt;Node8</title>
<path fill="none" stroke="#9a32cd" stroke-dasharray="5,2" d="M822.446,-235.105C853.876,-224.022 897.738,-206.168 932,-183 970.077,-157.253 1006.15,-115.398 1021.39,-96.6346"/>
<polygon fill="#9a32cd" stroke="#9a32cd" points="821.02,-231.894 812.707,-238.463 823.302,-238.512 821.02,-231.894"/>
<text text-anchor="middle" x="905" y="-215" font-family="Helvetica,sans-Serif" font-size="10.00"> myPatch</text>
</g>
<!-- Node10 -->
<g id="node10" class="node"><title>Node10</title>
<g id="a_node10"><a xlink:href="../../d7/d97/classcontroller_1_1_grid.html" target="_top" xlink:title="controller.Grid">
<polygon fill="white" stroke="black" points="988.5,-394.5 988.5,-413.5 1071.5,-413.5 1071.5,-394.5 988.5,-394.5"/>
<text text-anchor="middle" x="1030" y="-401.5" font-family="Helvetica,sans-Serif" font-size="10.00">controller.Grid</text>
</a>
</g>
</g>
<!-- Node2&#45;&gt;Node10 -->
<g id="edge15" class="edge"><title>Node2&#45;&gt;Node10</title>
<path fill="none" stroke="#9a32cd" stroke-dasharray="5,2" d="M799.845,-264.382C818.502,-281.047 849.044,-307.047 878,-326 921.698,-354.602 977.154,-380.94 1007.22,-394.472"/>
<polygon fill="#9a32cd" stroke="#9a32cd" points="802.155,-261.753 792.386,-257.651 797.465,-266.949 802.155,-261.753"/>
<text text-anchor="middle" x="905" y="-360" font-family="Helvetica,sans-Serif" font-size="10.00"> gridArray</text>
</g>
<!-- Node3 -->
<g id="node3" class="node"><title>Node3</title>
<polygon fill="white" stroke="#bfbfbf" points="497,-200.5 497,-219.5 543,-219.5 543,-200.5 497,-200.5"/>
<text text-anchor="middle" x="520" y="-207.5" font-family="Helvetica,sans-Serif" font-size="10.00">Group</text>
</g>
<!-- Node3&#45;&gt;Node2 -->
<g id="edge2" class="edge"><title>Node3&#45;&gt;Node2</title>
<path fill="none" stroke="midnightblue" d="M553.153,-214.717C593.515,-220.639 663.711,-230.938 715.356,-238.516"/>
<polygon fill="midnightblue" stroke="midnightblue" points="553.484,-211.229 543.082,-213.24 552.468,-218.155 553.484,-211.229"/>
</g>
<!-- Node4 -->
<g id="node4" class="node"><title>Node4</title>
<g id="a_node4"><a xlink:href="../../de/d7a/classcontroller_1_1_grid_info.html" target="_top" xlink:title="controller.GridInfo">
<polygon fill="white" stroke="black" points="252.5,-161.5 252.5,-180.5 353.5,-180.5 353.5,-161.5 252.5,-161.5"/>
<text text-anchor="middle" x="303" y="-168.5" font-family="Helvetica,sans-Serif" font-size="10.00">controller.GridInfo</text>
</a>
</g>
</g>
<!-- Node4&#45;&gt;Node2 -->
<g id="edge3" class="edge"><title>Node4&#45;&gt;Node2</title>
<path fill="none" stroke="#9a32cd" stroke-dasharray="5,2" d="M363.739,-167.177C423.595,-164.663 518.069,-164.289 598,-180 659.892,-192.165 728.476,-222.842 760.951,-238.494"/>
<polygon fill="#9a32cd" stroke="#9a32cd" points="363.539,-163.682 353.708,-167.632 363.856,-170.675 363.539,-163.682"/>
<text text-anchor="middle" x="520" y="-183" font-family="Helvetica,sans-Serif" font-size="10.00"> infoSheet</text>
</g>
<!-- Node4&#45;&gt;Node8 -->
<g id="edge10" class="edge"><title>Node4&#45;&gt;Node8</title>
<path fill="none" stroke="#9a32cd" stroke-dasharray="5,2" d="M327.575,-156.217C354.203,-140.417 399.391,-116.259 442,-106 629.852,-60.7707 861.24,-72.091 968.777,-81.0242"/>
<polygon fill="#9a32cd" stroke="#9a32cd" points="325.713,-153.252 318.965,-161.42 329.334,-159.243 325.713,-153.252"/>
<text text-anchor="middle" x="650" y="-82" font-family="Helvetica,sans-Serif" font-size="10.00"> infoSheet</text>
</g>
<!-- Node4&#45;&gt;Node10 -->
<g id="edge14" class="edge"><title>Node4&#45;&gt;Node10</title>
<path fill="none" stroke="#9a32cd" stroke-dasharray="5,2" d="M307.984,-190.376C319.076,-238.427 355.382,-362.205 442,-404 538.373,-450.502 871.634,-420.712 988.288,-408.504"/>
<polygon fill="#9a32cd" stroke="#9a32cd" points="311.401,-189.618 305.839,-180.6 304.564,-191.118 311.401,-189.618"/>
<text text-anchor="middle" x="650" y="-432" font-family="Helvetica,sans-Serif" font-size="10.00"> infoSheet</text>
</g>
<!-- Node18 -->
<g id="node18" class="node"><title>Node18</title>
<g id="a_node18"><a xlink:href="../../d0/d1a/classsimulation_objects_1_1_patch_body.html" target="_top" xlink:title="simulationObjects.PatchBody">
<polygon fill="white" stroke="black" points="442.5,-326.5 442.5,-345.5 597.5,-345.5 597.5,-326.5 442.5,-326.5"/>
<text text-anchor="middle" x="520" y="-333.5" font-family="Helvetica,sans-Serif" font-size="10.00">simulationObjects.PatchBody</text>
</a>
</g>
</g>
<!-- Node4&#45;&gt;Node18 -->
<g id="edge25" class="edge"><title>Node4&#45;&gt;Node18</title>
<path fill="none" stroke="#9a32cd" stroke-dasharray="5,2" d="M315.949,-188.994C337.411,-219.857 385.55,-282.764 442,-316 449.379,-320.345 457.7,-323.758 466.075,-326.436"/>
<polygon fill="#9a32cd" stroke="#9a32cd" points="318.692,-186.803 310.166,-180.513 312.908,-190.747 318.692,-186.803"/>
<text text-anchor="middle" x="398" y="-308" font-family="Helvetica,sans-Serif" font-size="10.00"> infoSheet</text>
</g>
<!-- Node5 -->
<g id="node5" class="node"><title>Node5</title>
<polygon fill="white" stroke="#bfbfbf" points="0.5,-180.5 0.5,-199.5 143.5,-199.5 143.5,-180.5 0.5,-180.5"/>
<text text-anchor="middle" x="72" y="-187.5" font-family="Helvetica,sans-Serif" font-size="10.00">HashMap&lt; String, Color &gt;</text>
</g>
<!-- Node5&#45;&gt;Node4 -->
<g id="edge4" class="edge"><title>Node5&#45;&gt;Node4</title>
<path fill="none" stroke="#9a32cd" stroke-dasharray="5,2" d="M153.64,-183.309C186.538,-180.58 223.532,-177.51 252.35,-175.119"/>
<polygon fill="#9a32cd" stroke="#9a32cd" points="153.252,-179.829 143.576,-184.144 153.831,-186.805 153.252,-179.829"/>
<text text-anchor="middle" x="198" y="-186" font-family="Helvetica,sans-Serif" font-size="10.00"> stateColors</text>
</g>
<!-- Node6 -->
<g id="node6" class="node"><title>Node6</title>
<polygon fill="white" stroke="#bfbfbf" points="30,-142.5 30,-161.5 114,-161.5 114,-142.5 30,-142.5"/>
<text text-anchor="middle" x="72" y="-149.5" font-family="Helvetica,sans-Serif" font-size="10.00">List&lt; String &gt;</text>
</g>
<!-- Node6&#45;&gt;Node4 -->
<g id="edge5" class="edge"><title>Node6&#45;&gt;Node4</title>
<path fill="none" stroke="#9a32cd" stroke-dasharray="5,2" d="M124.408,-154.87C156.045,-156.796 197.408,-159.6 234,-163 239.918,-163.55 246.118,-164.19 252.265,-164.865"/>
<polygon fill="#9a32cd" stroke="#9a32cd" points="124.263,-151.355 114.072,-154.251 123.845,-158.343 124.263,-151.355"/>
<text text-anchor="middle" x="198" y="-166" font-family="Helvetica,sans-Serif" font-size="10.00"> myStateTypes</text>
</g>
<!-- Node7 -->
<g id="node7" class="node"><title>Node7</title>
<polygon fill="white" stroke="#bfbfbf" points="27.5,-71.5 27.5,-90.5 116.5,-90.5 116.5,-71.5 27.5,-71.5"/>
<text text-anchor="middle" x="72" y="-78.5" font-family="Helvetica,sans-Serif" font-size="10.00">List&lt; Integer &gt;</text>
</g>
<!-- Node7&#45;&gt;Node4 -->
<g id="edge6" class="edge"><title>Node7&#45;&gt;Node4</title>
<path fill="none" stroke="#9a32cd" stroke-dasharray="5,2" d="M108.001,-94.2126C140.675,-106.61 190.753,-125.772 234,-143 249.063,-149.001 265.916,-155.939 279.076,-161.407"/>
<polygon fill="#9a32cd" stroke="#9a32cd" points="109.037,-90.8626 98.4458,-90.592 106.557,-97.4084 109.037,-90.8626"/>
<text text-anchor="middle" x="198" y="-146" font-family="Helvetica,sans-Serif" font-size="10.00"> paramList</text>
</g>
<!-- Node7&#45;&gt;Node8 -->
<g id="edge11" class="edge"><title>Node7&#45;&gt;Node8</title>
<path fill="none" stroke="#9a32cd" stroke-dasharray="5,2" d="M124.175,-69.3466C170.386,-59.8488 240.383,-48 302,-48 302,-48 302,-48 782,-48 857.322,-48 944,-65.9136 992.045,-77.4595"/>
<polygon fill="#9a32cd" stroke="#9a32cd" points="123.182,-65.9786 114.113,-71.455 124.618,-72.8298 123.182,-65.9786"/>
<text text-anchor="middle" x="520" y="-51" font-family="Helvetica,sans-Serif" font-size="10.00"> myParamList</text>
</g>
<!-- Node8&#45;&gt;Node2 -->
<g id="edge7" class="edge"><title>Node8&#45;&gt;Node2</title>
<path fill="none" stroke="#9a32cd" stroke-dasharray="5,2" d="M1000.91,-101.117C969.99,-117.042 919.198,-144.346 878,-172 845.701,-193.681 810.523,-223.201 793.087,-238.274"/>
<polygon fill="#9a32cd" stroke="#9a32cd" points="1002.53,-104.221 1009.84,-96.5518 999.341,-97.9889 1002.53,-104.221"/>
<text text-anchor="middle" x="905" y="-175" font-family="Helvetica,sans-Serif" font-size="10.00"> myCell</text>
</g>
<!-- Node9 -->
<g id="node9" class="node"><title>Node9</title>
<polygon fill="white" stroke="#bfbfbf" points="749.5,-0.5 749.5,-19.5 812.5,-19.5 812.5,-0.5 749.5,-0.5"/>
<text text-anchor="middle" x="781" y="-7.5" font-family="Helvetica,sans-Serif" font-size="10.00">Rectangle</text>
</g>
<!-- Node9&#45;&gt;Node8 -->
<g id="edge8" class="edge"><title>Node9&#45;&gt;Node8</title>
<path fill="none" stroke="midnightblue" d="M822.937,-12.7626C853.617,-15.7323 896.283,-21.7914 932,-34 963.596,-44.7999 997.053,-65.4034 1015.24,-77.4944"/>
<polygon fill="midnightblue" stroke="midnightblue" points="822.889,-9.24426 812.616,-11.836 822.263,-16.2162 822.889,-9.24426"/>
</g>
<!-- Node10&#45;&gt;Node2 -->
<g id="edge12" class="edge"><title>Node10&#45;&gt;Node2</title>
<path fill="none" stroke="#9a32cd" stroke-dasharray="5,2" d="M1013.59,-386.851C995.506,-367.493 963.923,-335.972 932,-315 892.668,-289.161 841.724,-268.797 810.476,-257.584"/>
<polygon fill="#9a32cd" stroke="#9a32cd" points="1011.13,-389.345 1020.47,-394.336 1016.28,-384.606 1011.13,-389.345"/>
<text text-anchor="middle" x="905" y="-318" font-family="Helvetica,sans-Serif" font-size="10.00"> grid</text>
</g>
<!-- Node13 -->
<g id="node13" class="node"><title>Node13</title>
<g id="a_node13"><a xlink:href="../../dd/d38/classcontroller_1_1_grid_edge_rules.html" target="_top" xlink:title="controller.GridEdgeRules">
<polygon fill="white" stroke="black" points="1214,-394.5 1214,-413.5 1346,-413.5 1346,-394.5 1214,-394.5"/>
<text text-anchor="middle" x="1280" y="-401.5" font-family="Helvetica,sans-Serif" font-size="10.00">controller.GridEdgeRules</text>
</a>
</g>
</g>
<!-- Node10&#45;&gt;Node13 -->
<g id="edge18" class="edge"><title>Node10&#45;&gt;Node13</title>
<path fill="none" stroke="#9a32cd" stroke-dasharray="5,2" d="M1082.01,-404C1120.09,-404 1172.42,-404 1213.57,-404"/>
<polygon fill="#9a32cd" stroke="#9a32cd" points="1081.67,-400.5 1071.67,-404 1081.67,-407.5 1081.67,-400.5"/>
<text text-anchor="middle" x="1162" y="-407" font-family="Helvetica,sans-Serif" font-size="10.00"> grid</text>
</g>
<!-- Node11 -->
<g id="node11" class="node"><title>Node11</title>
<polygon fill="white" stroke="#bfbfbf" points="761,-490.5 761,-509.5 801,-509.5 801,-490.5 761,-490.5"/>
<text text-anchor="middle" x="781" y="-497.5" font-family="Helvetica,sans-Serif" font-size="10.00">Pane</text>
</g>
<!-- Node11&#45;&gt;Node10 -->
<g id="edge13" class="edge"><title>Node11&#45;&gt;Node10</title>
<path fill="none" stroke="midnightblue" d="M811.162,-495.827C842.03,-490.768 891.752,-480.768 932,-464 964.536,-450.445 998.722,-426.732 1016.53,-413.541"/>
<polygon fill="midnightblue" stroke="midnightblue" points="810.411,-492.402 801.076,-497.414 811.499,-499.317 810.411,-492.402"/>
</g>
<!-- Node12 -->
<g id="node12" class="node"><title>Node12</title>
<polygon fill="white" stroke="#bfbfbf" points="702,-452.5 702,-471.5 860,-471.5 860,-452.5 702,-452.5"/>
<text text-anchor="middle" x="781" y="-459.5" font-family="Helvetica,sans-Serif" font-size="10.00">HashMap&lt; Integer, Integer &gt;</text>
</g>
<!-- Node12&#45;&gt;Node10 -->
<g id="edge16" class="edge"><title>Node12&#45;&gt;Node10</title>
<path fill="none" stroke="#9a32cd" stroke-dasharray="5,2" d="M868.608,-450.841C889.511,-447.407 911.676,-443.144 932,-438 957.603,-431.52 986.023,-421.169 1005.45,-413.588"/>
<polygon fill="#9a32cd" stroke="#9a32cd" points="867.785,-447.428 858.462,-452.46 868.888,-454.341 867.785,-447.428"/>
<text text-anchor="middle" x="905" y="-452" font-family="Helvetica,sans-Serif" font-size="10.00"> cellCounts</text>
</g>
<!-- Node13&#45;&gt;Node10 -->
<g id="edge17" class="edge"><title>Node13&#45;&gt;Node10</title>
<path fill="none" stroke="#9a32cd" stroke-dasharray="5,2" d="M1227.97,-392.58C1217.45,-390.673 1206.41,-388.994 1196,-388 1165.91,-385.127 1158.12,-385.532 1128,-388 1109.46,-389.519 1089.12,-392.645 1071.88,-395.734"/>
<polygon fill="#9a32cd" stroke="#9a32cd" points="1227.37,-396.03 1237.85,-394.463 1228.68,-389.154 1227.37,-396.03"/>
<text text-anchor="middle" x="1162" y="-391" font-family="Helvetica,sans-Serif" font-size="10.00"> myEdgeRules</text>
</g>
<!-- Node14 -->
<g id="node14" class="node"><title>Node14</title>
<polygon fill="white" stroke="#bfbfbf" points="453.5,-365 453.5,-395 586.5,-395 586.5,-365 453.5,-365"/>
<text text-anchor="start" x="461.5" y="-383" font-family="Helvetica,sans-Serif" font-size="10.00">List&lt; simulationObjects.</text>
<text text-anchor="middle" x="520" y="-372" font-family="Helvetica,sans-Serif" font-size="10.00">Patch &gt;</text>
</g>
<!-- Node14&#45;&gt;Node2 -->
<g id="edge27" class="edge"><title>Node14&#45;&gt;Node2</title>
<path fill="none" stroke="#9a32cd" stroke-dasharray="5,2" d="M576.988,-361.828C584.062,-359.53 591.2,-357.211 598,-355 636.227,-342.571 648.756,-346.33 684,-327 719.579,-307.487 754.675,-274.028 770.809,-257.63"/>
<polygon fill="#9a32cd" stroke="#9a32cd" points="575.85,-358.518 567.42,-364.935 578.012,-365.175 575.85,-358.518"/>
<text text-anchor="middle" x="650" y="-353" font-family="Helvetica,sans-Serif" font-size="10.00"> myNeighbors</text>
</g>
<!-- Node14&#45;&gt;Node10 -->
<g id="edge19" class="edge"><title>Node14&#45;&gt;Node10</title>
<path fill="none" stroke="#9a32cd" stroke-dasharray="5,2" d="M596.903,-383.586C705.955,-388.738 903.173,-398.055 988.19,-402.072"/>
<polygon fill="#9a32cd" stroke="#9a32cd" points="596.786,-380.077 586.632,-383.101 596.455,-387.069 596.786,-380.077"/>
<text text-anchor="middle" x="781" y="-399" font-family="Helvetica,sans-Serif" font-size="10.00"> emptyPatches</text>
</g>
<!-- Node15 -->
<g id="node15" class="node"><title>Node15</title>
<polygon fill="white" stroke="#bfbfbf" points="486,-115.5 486,-134.5 554,-134.5 554,-115.5 486,-115.5"/>
<text text-anchor="middle" x="520" y="-122.5" font-family="Helvetica,sans-Serif" font-size="10.00">ImageView</text>
</g>
<!-- Node15&#45;&gt;Node2 -->
<g id="edge20" class="edge"><title>Node15&#45;&gt;Node2</title>
<path fill="none" stroke="#9a32cd" stroke-dasharray="5,2" d="M564.3,-122.81C598.564,-122.85 646.689,-126.958 684,-146 727.103,-167.999 761.204,-217.431 774.252,-238.353"/>
<polygon fill="#9a32cd" stroke="#9a32cd" points="564.101,-119.311 554.138,-122.916 564.174,-126.311 564.101,-119.311"/>
<text text-anchor="middle" x="650" y="-149" font-family="Helvetica,sans-Serif" font-size="10.00"> myView</text>
</g>
<!-- Node16 -->
<g id="node16" class="node"><title>Node16</title>
<g id="a_node16"><a xlink:href="../../df/d37/enumsimulation_objects_1_1_patch_1_1_state.html" target="_top" xlink:title="simulationObjects.Patch.\lState">
<polygon fill="white" stroke="black" points="453,-277 453,-307 587,-307 587,-277 453,-277"/>
<text text-anchor="start" x="461" y="-295" font-family="Helvetica,sans-Serif" font-size="10.00">simulationObjects.Patch.</text>
<text text-anchor="middle" x="520" y="-284" font-family="Helvetica,sans-Serif" font-size="10.00">State</text>
</a>
</g>
</g>
<!-- Node16&#45;&gt;Node2 -->
<g id="edge21" class="edge"><title>Node16&#45;&gt;Node2</title>
<path fill="none" stroke="#9a32cd" stroke-dasharray="5,2" d="M597.139,-279.065C637.682,-272.178 686.68,-263.854 723.748,-257.556"/>
<polygon fill="#9a32cd" stroke="#9a32cd" points="596.299,-275.658 587.027,-280.783 597.472,-282.559 596.299,-275.658"/>
<text text-anchor="middle" x="650" y="-279" font-family="Helvetica,sans-Serif" font-size="10.00"> myState</text>
</g>
<!-- Node17 -->
<g id="node17" class="node"><title>Node17</title>
<polygon fill="white" stroke="#bfbfbf" points="496.5,-238.5 496.5,-257.5 543.5,-257.5 543.5,-238.5 496.5,-238.5"/>
<text text-anchor="middle" x="520" y="-245.5" font-family="Helvetica,sans-Serif" font-size="10.00">Image</text>
</g>
<!-- Node17&#45;&gt;Node2 -->
<g id="edge22" class="edge"><title>Node17&#45;&gt;Node2</title>
<path fill="none" stroke="#9a32cd" stroke-dasharray="5,2" d="M553.633,-248C594.067,-248 663.908,-248 715.348,-248"/>
<polygon fill="#9a32cd" stroke="#9a32cd" points="553.532,-244.5 543.531,-248 553.531,-251.5 553.532,-244.5"/>
<text text-anchor="middle" x="650" y="-251" font-family="Helvetica,sans-Serif" font-size="10.00"> image</text>
</g>
<!-- Node18&#45;&gt;Node2 -->
<g id="edge23" class="edge"><title>Node18&#45;&gt;Node2</title>
<path fill="none" stroke="#9a32cd" stroke-dasharray="5,2" d="M568.601,-323.865C578.341,-321.317 588.512,-318.611 598,-316 636.378,-305.44 646.636,-304.724 684,-291 711.256,-280.988 741.688,-266.826 760.836,-257.53"/>
<polygon fill="#9a32cd" stroke="#9a32cd" points="567.453,-320.547 558.655,-326.45 569.214,-327.321 567.453,-320.547"/>
<text text-anchor="middle" x="650" y="-315" font-family="Helvetica,sans-Serif" font-size="10.00"> myBody</text>
</g>
<!-- Node19 -->
<g id="node19" class="node"><title>Node19</title>
<polygon fill="white" stroke="#bfbfbf" points="276,-485.5 276,-504.5 330,-504.5 330,-485.5 276,-485.5"/>
<text text-anchor="middle" x="303" y="-492.5" font-family="Helvetica,sans-Serif" font-size="10.00">Polygon</text>
</g>
<!-- Node19&#45;&gt;Node18 -->
<g id="edge24" class="edge"><title>Node19&#45;&gt;Node18</title>
<path fill="none" stroke="midnightblue" d="M339.583,-483.4C344.571,-481.228 349.519,-478.759 354,-476 389.896,-453.898 401.323,-447.535 424,-412 438.292,-389.605 422.624,-373.175 442,-355 446.117,-351.138 450.891,-348.025 456.005,-345.522"/>
<polygon fill="midnightblue" stroke="midnightblue" points="338.041,-480.247 330.054,-487.208 340.639,-486.747 338.041,-480.247"/>
</g>
<!-- Node20 -->
<g id="node20" class="node"><title>Node20</title>
<polygon fill="white" stroke="#bfbfbf" points="282.5,-447.5 282.5,-466.5 323.5,-466.5 323.5,-447.5 282.5,-447.5"/>
<text text-anchor="middle" x="303" y="-454.5" font-family="Helvetica,sans-Serif" font-size="10.00">Point</text>
</g>
<!-- Node20&#45;&gt;Node18 -->
<g id="edge26" class="edge"><title>Node20&#45;&gt;Node18</title>
<path fill="none" stroke="#9a32cd" stroke-dasharray="5,2" d="M321.682,-440.258C346.578,-417.596 394.275,-377.422 442,-355 450.1,-351.194 459.051,-348.096 467.899,-345.592"/>
<polygon fill="#9a32cd" stroke="#9a32cd" points="319.116,-437.864 314.147,-447.221 323.867,-443.005 319.116,-437.864"/>
<text text-anchor="middle" x="398" y="-400" font-family="Helvetica,sans-Serif" font-size="10.00"> myCenter</text>
</g>
</g>
</svg>
        <g id="navigator" transform="translate(0 0)" fill="#404254">
                <rect fill="#f2f5e9" fill-opacity="0.5" stroke="#606060" stroke-width=".5" x="0" y="0" width="60" height="60"/>
                <use id="zoomplus" xlink:href="#zoomPlus" x="17" y="9" onmousedown="handleZoom(evt,'in')"/>
                <use id="zoomminus" xlink:href="#zoomMin" x="42" y="9" onmousedown="handleZoom(evt,'out')"/>
                <use id="reset" xlink:href="#resetDef" x="30" y="36" onmousedown="handleReset()"/>
                <g id="arrowUp" xlink:href="#dirArrow" transform="translate(30 24)" onmousedown="handlePan(0,-1)">
                  <use xlink:href="#rim" fill="#404040">
                        <set attributeName="fill" to="#808080" begin="arrowUp.mouseover" end="arrowUp.mouseout"/>
                  </use>
                  <path fill="none" stroke="white" stroke-width="1.5" d="M0,-3.0v7 M-2.5,-0.5L0,-3.0L2.5,-0.5"/>
                </g>
                <g id="arrowRight" xlink:href="#dirArrow" transform="rotate(90) translate(36 -43)" onmousedown="handlePan(1,0)">
                  <use xlink:href="#rim" fill="#404040">
                        <set attributeName="fill" to="#808080" begin="arrowRight.mouseover" end="arrowRight.mouseout"/>
                  </use>
                  <path fill="none" stroke="white" stroke-width="1.5" d="M0,-3.0v7 M-2.5,-0.5L0,-3.0L2.5,-0.5"/>
                </g>
                <g id="arrowDown" xlink:href="#dirArrow" transform="rotate(180) translate(-30 -48)" onmousedown="handlePan(0,1)">
                  <use xlink:href="#rim" fill="#404040">
                        <set attributeName="fill" to="#808080" begin="arrowDown.mouseover" end="arrowDown.mouseout"/>
                  </use>
                  <path fill="none" stroke="white" stroke-width="1.5" d="M0,-3.0v7 M-2.5,-0.5L0,-3.0L2.5,-0.5"/>
                </g>
                <g id="arrowLeft" xlink:href="#dirArrow" transform="rotate(270) translate(-36 17)" onmousedown="handlePan(-1,0)">
                  <use xlink:href="#rim" fill="#404040">
                        <set attributeName="fill" to="#808080" begin="arrowLeft.mouseover" end="arrowLeft.mouseout"/>
                  </use>
                  <path fill="none" stroke="white" stroke-width="1.5" d="M0,-3.0v7 M-2.5,-0.5L0,-3.0L2.5,-0.5"/>
                </g>
        </g>
        <svg viewBox="0 0 15 15" width="100%" height="30px" preserveAspectRatio="xMaxYMin meet">
         <g id="arrow_out" transform="scale(0.3 0.3)">
          <a xlink:href="classsimulation_objects_1_1_sugar_patch__coll__graph_org.svg" target="_base">
           <rect id="button" ry="5" rx="5" y="6" x="6" height="38" width="38"
                fill="#f2f5e9" fill-opacity="0.5" stroke="#606060" stroke-width="1.0"/>
           <path id="arrow"
             d="M 11.500037,31.436501 C 11.940474,20.09759 22.043105,11.32322 32.158766,21.979434 L 37.068811,17.246167 C 37.068811,17.246167 37.088388,32 37.088388,32 L 22.160133,31.978069 C 22.160133,31.978069 26.997745,27.140456 26.997745,27.140456 C 18.528582,18.264221 13.291696,25.230495 11.500037,31.436501 z"
             style="fill:#404040;"/>
          </a>
         </g>
        </svg>
</svg>
