<?xml version="1.0" encoding="UTF-8" standalone="no"?>
<!DOCTYPE svg PUBLIC "-//W3C//DTD SVG 1.1//EN"
 "http://www.w3.org/Graphics/SVG/1.1/DTD/svg11.dtd">
<!-- Generated by graphviz version 2.36.0 (20140111.2315)
 -->
<!-- Title: controller.SimulationChart.plotData Pages: 1 -->
<svg width="1196pt" height="102pt"
 viewBox="0.00 0.00 1196.00 102.00" xmlns="http://www.w3.org/2000/svg" xmlns:xlink="http://www.w3.org/1999/xlink">
<g id="graph0" class="graph" transform="scale(1 1) rotate(0) translate(4 98)">
<title>controller.SimulationChart.plotData</title>
<polygon fill="white" stroke="none" points="-4,4 -4,-98 1192,-98 1192,4 -4,4"/>
<!-- Node1 -->
<g id="node1" class="node"><title>Node1</title>
<polygon fill="#bfbfbf" stroke="black" points="0.5,-25.5 0.5,-44.5 185.5,-44.5 185.5,-25.5 0.5,-25.5"/>
<text text-anchor="middle" x="93" y="-32.5" font-family="Helvetica,sans-Serif" font-size="10.00">controller.SimulationChart.plotData</text>
</g>
<!-- Node2 -->
<g id="node2" class="node"><title>Node2</title>
<g id="a_node2"><a xlink:href="../../de/d4d/classcontroller_1_1_simulation_chart.html#a64bd87c0d5164cbd5e84dddeba124a6c" target="_top" xlink:title="controller.SimulationChart.update\lDisplay">
<polygon fill="white" stroke="black" points="222,-20 222,-50 400,-50 400,-20 222,-20"/>
<text text-anchor="start" x="230" y="-38" font-family="Helvetica,sans-Serif" font-size="10.00">controller.SimulationChart.update</text>
<text text-anchor="middle" x="311" y="-27" font-family="Helvetica,sans-Serif" font-size="10.00">Display</text>
</a>
</g>
</g>
<!-- Node1&#45;&gt;Node2 -->
<g id="edge1" class="edge"><title>Node1&#45;&gt;Node2</title>
<path fill="none" stroke="midnightblue" d="M195.745,-35C204.416,-35 213.142,-35 221.697,-35"/>
<polygon fill="midnightblue" stroke="midnightblue" points="195.603,-31.5001 185.603,-35 195.603,-38.5001 195.603,-31.5001"/>
</g>
<!-- Node3 -->
<g id="node3" class="node"><title>Node3</title>
<g id="a_node3"><a xlink:href="../../db/d32/classcontroller_1_1_main_controller.html#a73545baf8abf0781ade4a83269de344e" target="_top" xlink:title="controller.MainController.step\lSimulation">
<polygon fill="white" stroke="black" points="436,-20 436,-50 592,-50 592,-20 436,-20"/>
<text text-anchor="start" x="444" y="-38" font-family="Helvetica,sans-Serif" font-size="10.00">controller.MainController.step</text>
<text text-anchor="middle" x="514" y="-27" font-family="Helvetica,sans-Serif" font-size="10.00">Simulation</text>
</a>
</g>
</g>
<!-- Node2&#45;&gt;Node3 -->
<g id="edge2" class="edge"><title>Node2&#45;&gt;Node3</title>
<path fill="none" stroke="midnightblue" d="M410.259,-35C418.882,-35 427.527,-35 435.94,-35"/>
<polygon fill="midnightblue" stroke="midnightblue" points="410.162,-31.5001 400.162,-35 410.161,-38.5001 410.162,-31.5001"/>
</g>
<!-- Node4 -->
<g id="node4" class="node"><title>Node4</title>
<g id="a_node4"><a xlink:href="../../db/ddb/classcontroller_1_1_user_interface.html#a9cf1e21253003993661082c9d42926b2" target="_top" xlink:title="controller.UserInterface.make\lBottomPanel">
<polygon fill="white" stroke="black" points="628,-20 628,-50 786,-50 786,-20 628,-20"/>
<text text-anchor="start" x="636" y="-38" font-family="Helvetica,sans-Serif" font-size="10.00">controller.UserInterface.make</text>
<text text-anchor="middle" x="707" y="-27" font-family="Helvetica,sans-Serif" font-size="10.00">BottomPanel</text>
</a>
</g>
</g>
<!-- Node3&#45;&gt;Node4 -->
<g id="edge3" class="edge"><title>Node3&#45;&gt;Node4</title>
<path fill="none" stroke="midnightblue" d="M602.171,-35C610.768,-35 619.456,-35 627.954,-35"/>
<polygon fill="midnightblue" stroke="midnightblue" points="602.136,-31.5001 592.136,-35 602.136,-38.5001 602.136,-31.5001"/>
</g>
<!-- Node5 -->
<g id="node5" class="node"><title>Node5</title>
<g id="a_node5"><a xlink:href="../../db/ddb/classcontroller_1_1_user_interface.html#a6dd740b89d748c372a5ef9959e1bd7c4" target="_top" xlink:title="controller.UserInterface.\lUserInterface">
<polygon fill="white" stroke="black" points="834.5,-64 834.5,-94 965.5,-94 965.5,-64 834.5,-64"/>
<text text-anchor="start" x="842.5" y="-82" font-family="Helvetica,sans-Serif" font-size="10.00">controller.UserInterface.</text>
<text text-anchor="middle" x="900" y="-71" font-family="Helvetica,sans-Serif" font-size="10.00">UserInterface</text>
</a>
</g>
</g>
<!-- Node4&#45;&gt;Node5 -->
<g id="edge4" class="edge"><title>Node4&#45;&gt;Node5</title>
<path fill="none" stroke="midnightblue" d="M783.07,-52.2936C800.044,-56.204 817.922,-60.3224 834.42,-64.123"/>
<polygon fill="midnightblue" stroke="midnightblue" points="783.728,-48.8535 773.197,-50.0192 782.156,-55.6749 783.728,-48.8535"/>
</g>
<!-- Node6 -->
<g id="node6" class="node"><title>Node6</title>
<g id="a_node6"><a xlink:href="../../db/ddb/classcontroller_1_1_user_interface.html#aad62b84bbc23f683c844ace519feb9d2" target="_top" xlink:title="controller.UserInterface.reset">
<polygon fill="white" stroke="black" points="822,-25.5 822,-44.5 978,-44.5 978,-25.5 822,-25.5"/>
<text text-anchor="middle" x="900" y="-32.5" font-family="Helvetica,sans-Serif" font-size="10.00">controller.UserInterface.reset</text>
</a>
</g>
</g>
<!-- Node4&#45;&gt;Node6 -->
<g id="edge5" class="edge"><title>Node4&#45;&gt;Node6</title>
<path fill="none" stroke="midnightblue" d="M796.495,-35C804.949,-35 813.476,-35 821.81,-35"/>
<polygon fill="midnightblue" stroke="midnightblue" points="796.238,-31.5001 786.238,-35 796.238,-38.5001 796.238,-31.5001"/>
</g>
<!-- Node7 -->
<g id="node7" class="node"><title>Node7</title>
<g id="a_node7"><a xlink:href="../../db/d32/classcontroller_1_1_main_controller.html#a7cfedb8e16c6b9d6394054d03193da82" target="_top" xlink:title="controller.MainController.initialize\lSimulationWithData">
<polygon fill="white" stroke="black" points="1014.5,-1 1014.5,-31 1187.5,-31 1187.5,-1 1014.5,-1"/>
<text text-anchor="start" x="1022.5" y="-19" font-family="Helvetica,sans-Serif" font-size="10.00">controller.MainController.initialize</text>
<text text-anchor="middle" x="1101" y="-8" font-family="Helvetica,sans-Serif" font-size="10.00">SimulationWithData</text>
</a>
</g>
</g>
<!-- Node6&#45;&gt;Node7 -->
<g id="edge6" class="edge"><title>Node6&#45;&gt;Node7</title>
<path fill="none" stroke="midnightblue" d="M988.268,-26.6679C996.886,-25.845 1005.63,-25.0103 1014.23,-24.1889"/>
<polygon fill="midnightblue" stroke="midnightblue" points="987.845,-23.1922 978.223,-27.6269 988.511,-30.1605 987.845,-23.1922"/>
</g>
<!-- Node7&#45;&gt;Node4 -->
<g id="edge7" class="edge"><title>Node7&#45;&gt;Node4</title>
<path fill="none" stroke="midnightblue" d="M1004.18,-12.1096C950.52,-10.9063 882.438,-10.998 822,-16 810.402,-16.9599 798.208,-18.4601 786.283,-20.2065"/>
<polygon fill="midnightblue" stroke="midnightblue" points="1004.29,-15.6132 1014.37,-12.3574 1004.46,-8.61523 1004.29,-15.6132"/>
</g>
</g>
</svg>
