<?xml version="1.0" encoding="UTF-8" standalone="no"?>
<!DOCTYPE svg PUBLIC "-//W3C//DTD SVG 1.1//EN"
 "http://www.w3.org/Graphics/SVG/1.1/DTD/svg11.dtd">
<!-- Generated by graphviz version 2.36.0 (20140111.2315)
 -->
<!-- Title: controller.SimulationChart.checkBoundaryAndReset Pages: 1 -->
<svg width="1182pt" height="102pt"
 viewBox="0.00 0.00 1182.00 102.00" xmlns="http://www.w3.org/2000/svg" xmlns:xlink="http://www.w3.org/1999/xlink">
<g id="graph0" class="graph" transform="scale(1 1) rotate(0) translate(4 98)">
<title>controller.SimulationChart.checkBoundaryAndReset</title>
<polygon fill="white" stroke="none" points="-4,4 -4,-98 1178,-98 1178,4 -4,4"/>
<!-- Node1 -->
<g id="node1" class="node"><title>Node1</title>
<polygon fill="#bfbfbf" stroke="black" points="0,-20 0,-50 172,-50 172,-20 0,-20"/>
<text text-anchor="start" x="8" y="-38" font-family="Helvetica,sans-Serif" font-size="10.00">controller.SimulationChart.check</text>
<text text-anchor="middle" x="86" y="-27" font-family="Helvetica,sans-Serif" font-size="10.00">BoundaryAndReset</text>
</g>
<!-- Node2 -->
<g id="node2" class="node"><title>Node2</title>
<g id="a_node2"><a xlink:href="../../de/d4d/classcontroller_1_1_simulation_chart.html#a64bd87c0d5164cbd5e84dddeba124a6c" target="_top" xlink:title="controller.SimulationChart.update\lDisplay">
<polygon fill="white" stroke="black" points="208,-20 208,-50 386,-50 386,-20 208,-20"/>
<text text-anchor="start" x="216" y="-38" font-family="Helvetica,sans-Serif" font-size="10.00">controller.SimulationChart.update</text>
<text text-anchor="middle" x="297" y="-27" font-family="Helvetica,sans-Serif" font-size="10.00">Display</text>
</a>
</g>
</g>
<!-- Node1&#45;&gt;Node2 -->
<g id="edge1" class="edge"><title>Node1&#45;&gt;Node2</title>
<path fill="none" stroke="midnightblue" d="M182.271,-35C190.73,-35 199.271,-35 207.668,-35"/>
<polygon fill="midnightblue" stroke="midnightblue" points="182.008,-31.5001 172.008,-35 182.008,-38.5001 182.008,-31.5001"/>
</g>
<!-- Node3 -->
<g id="node3" class="node"><title>Node3</title>
<g id="a_node3"><a xlink:href="../../db/d32/classcontroller_1_1_main_controller.html#a73545baf8abf0781ade4a83269de344e" target="_top" xlink:title="controller.MainController.step\lSimulation">
<polygon fill="white" stroke="black" points="422,-20 422,-50 578,-50 578,-20 422,-20"/>
<text text-anchor="start" x="430" y="-38" font-family="Helvetica,sans-Serif" font-size="10.00">controller.MainController.step</text>
<text text-anchor="middle" x="500" y="-27" font-family="Helvetica,sans-Serif" font-size="10.00">Simulation</text>
</a>
</g>
</g>
<!-- Node2&#45;&gt;Node3 -->
<g id="edge2" class="edge"><title>Node2&#45;&gt;Node3</title>
<path fill="none" stroke="midnightblue" d="M396.259,-35C404.882,-35 413.527,-35 421.94,-35"/>
<polygon fill="midnightblue" stroke="midnightblue" points="396.162,-31.5001 386.162,-35 396.161,-38.5001 396.162,-31.5001"/>
</g>
<!-- Node4 -->
<g id="node4" class="node"><title>Node4</title>
<g id="a_node4"><a xlink:href="../../db/ddb/classcontroller_1_1_user_interface.html#a9cf1e21253003993661082c9d42926b2" target="_top" xlink:title="controller.UserInterface.make\lBottomPanel">
<polygon fill="white" stroke="black" points="614,-20 614,-50 772,-50 772,-20 614,-20"/>
<text text-anchor="start" x="622" y="-38" font-family="Helvetica,sans-Serif" font-size="10.00">controller.UserInterface.make</text>
<text text-anchor="middle" x="693" y="-27" font-family="Helvetica,sans-Serif" font-size="10.00">BottomPanel</text>
</a>
</g>
</g>
<!-- Node3&#45;&gt;Node4 -->
<g id="edge3" class="edge"><title>Node3&#45;&gt;Node4</title>
<path fill="none" stroke="midnightblue" d="M588.171,-35C596.768,-35 605.456,-35 613.954,-35"/>
<polygon fill="midnightblue" stroke="midnightblue" points="588.136,-31.5001 578.136,-35 588.136,-38.5001 588.136,-31.5001"/>
</g>
<!-- Node5 -->
<g id="node5" class="node"><title>Node5</title>
<g id="a_node5"><a xlink:href="../../db/ddb/classcontroller_1_1_user_interface.html#a6dd740b89d748c372a5ef9959e1bd7c4" target="_top" xlink:title="controller.UserInterface.\lUserInterface">
<polygon fill="white" stroke="black" points="820.5,-64 820.5,-94 951.5,-94 951.5,-64 820.5,-64"/>
<text text-anchor="start" x="828.5" y="-82" font-family="Helvetica,sans-Serif" font-size="10.00">controller.UserInterface.</text>
<text text-anchor="middle" x="886" y="-71" font-family="Helvetica,sans-Serif" font-size="10.00">UserInterface</text>
</a>
</g>
</g>
<!-- Node4&#45;&gt;Node5 -->
<g id="edge4" class="edge"><title>Node4&#45;&gt;Node5</title>
<path fill="none" stroke="midnightblue" d="M769.07,-52.2936C786.044,-56.204 803.922,-60.3224 820.42,-64.123"/>
<polygon fill="midnightblue" stroke="midnightblue" points="769.728,-48.8535 759.197,-50.0192 768.156,-55.6749 769.728,-48.8535"/>
</g>
<!-- Node6 -->
<g id="node6" class="node"><title>Node6</title>
<g id="a_node6"><a xlink:href="../../db/ddb/classcontroller_1_1_user_interface.html#aad62b84bbc23f683c844ace519feb9d2" target="_top" xlink:title="controller.UserInterface.reset">
<polygon fill="white" stroke="black" points="808,-25.5 808,-44.5 964,-44.5 964,-25.5 808,-25.5"/>
<text text-anchor="middle" x="886" y="-32.5" font-family="Helvetica,sans-Serif" font-size="10.00">controller.UserInterface.reset</text>
</a>
</g>
</g>
<!-- Node4&#45;&gt;Node6 -->
<g id="edge5" class="edge"><title>Node4&#45;&gt;Node6</title>
<path fill="none" stroke="midnightblue" d="M782.495,-35C790.949,-35 799.476,-35 807.81,-35"/>
<polygon fill="midnightblue" stroke="midnightblue" points="782.238,-31.5001 772.238,-35 782.238,-38.5001 782.238,-31.5001"/>
</g>
<!-- Node7 -->
<g id="node7" class="node"><title>Node7</title>
<g id="a_node7"><a xlink:href="../../db/d32/classcontroller_1_1_main_controller.html#a7cfedb8e16c6b9d6394054d03193da82" target="_top" xlink:title="controller.MainController.initialize\lSimulationWithData">
<polygon fill="white" stroke="black" points="1000.5,-1 1000.5,-31 1173.5,-31 1173.5,-1 1000.5,-1"/>
<text text-anchor="start" x="1008.5" y="-19" font-family="Helvetica,sans-Serif" font-size="10.00">controller.MainController.initialize</text>
<text text-anchor="middle" x="1087" y="-8" font-family="Helvetica,sans-Serif" font-size="10.00">SimulationWithData</text>
</a>
</g>
</g>
<!-- Node6&#45;&gt;Node7 -->
<g id="edge6" class="edge"><title>Node6&#45;&gt;Node7</title>
<path fill="none" stroke="midnightblue" d="M974.268,-26.6679C982.886,-25.845 991.629,-25.0103 1000.23,-24.1889"/>
<polygon fill="midnightblue" stroke="midnightblue" points="973.845,-23.1922 964.223,-27.6269 974.511,-30.1605 973.845,-23.1922"/>
</g>
<!-- Node7&#45;&gt;Node4 -->
<g id="edge7" class="edge"><title>Node7&#45;&gt;Node4</title>
<path fill="none" stroke="midnightblue" d="M990.182,-12.1096C936.52,-10.9063 868.438,-10.998 808,-16 796.402,-16.9599 784.208,-18.4601 772.283,-20.2065"/>
<polygon fill="midnightblue" stroke="midnightblue" points="990.29,-15.6132 1000.37,-12.3574 990.46,-8.61523 990.29,-15.6132"/>
</g>
</g>
</svg>
