<?xml version="1.0" encoding="UTF-8" standalone="no"?>
<!DOCTYPE svg PUBLIC "-//W3C//DTD SVG 1.1//EN"
 "http://www.w3.org/Graphics/SVG/1.1/DTD/svg11.dtd">
<!-- Generated by graphviz version 2.36.0 (20140111.2315)
 -->
<!-- Title: controller.SimulationChart.SimulationChart Pages: 1 -->
<svg width="544pt" height="115pt"
 viewBox="0.00 0.00 544.00 115.00" xmlns="http://www.w3.org/2000/svg" xmlns:xlink="http://www.w3.org/1999/xlink">
<g id="graph0" class="graph" transform="scale(1 1) rotate(0) translate(4 111)">
<title>controller.SimulationChart.SimulationChart</title>
<polygon fill="white" stroke="none" points="-4,4 -4,-111 540,-111 540,4 -4,4"/>
<!-- Node1 -->
<g id="node1" class="node"><title>Node1</title>
<polygon fill="#bfbfbf" stroke="black" points="0,-44 0,-74 144,-74 144,-44 0,-44"/>
<text text-anchor="start" x="8" y="-62" font-family="Helvetica,sans-Serif" font-size="10.00">controller.SimulationChart.</text>
<text text-anchor="middle" x="72" y="-51" font-family="Helvetica,sans-Serif" font-size="10.00">SimulationChart</text>
</g>
<!-- Node2 -->
<g id="node2" class="node"><title>Node2</title>
<g id="a_node2"><a xlink:href="../../d7/d97/classcontroller_1_1_grid.html#a61d4b46bec1a6a3c7f277736e6293252" target="_top" xlink:title="controller.Grid.getGridHeight">
<polygon fill="white" stroke="black" points="193.5,-87.5 193.5,-106.5 346.5,-106.5 346.5,-87.5 193.5,-87.5"/>
<text text-anchor="middle" x="270" y="-94.5" font-family="Helvetica,sans-Serif" font-size="10.00">controller.Grid.getGridHeight</text>
</a>
</g>
</g>
<!-- Node1&#45;&gt;Node2 -->
<g id="edge1" class="edge"><title>Node1&#45;&gt;Node2</title>
<path fill="none" stroke="midnightblue" d="M144.038,-72.7726C165.692,-76.9708 189.25,-81.5383 210.016,-85.5643"/>
<polygon fill="midnightblue" stroke="midnightblue" points="209.481,-89.0258 219.965,-87.4931 210.814,-82.1537 209.481,-89.0258"/>
</g>
<!-- Node3 -->
<g id="node3" class="node"><title>Node3</title>
<g id="a_node3"><a xlink:href="../../d7/d97/classcontroller_1_1_grid.html#a07b690d056f74953ade8dc5e762341d7" target="_top" xlink:title="controller.Grid.getGridWidth">
<polygon fill="white" stroke="black" points="196,-49.5 196,-68.5 344,-68.5 344,-49.5 196,-49.5"/>
<text text-anchor="middle" x="270" y="-56.5" font-family="Helvetica,sans-Serif" font-size="10.00">controller.Grid.getGridWidth</text>
</a>
</g>
</g>
<!-- Node1&#45;&gt;Node3 -->
<g id="edge2" class="edge"><title>Node1&#45;&gt;Node3</title>
<path fill="none" stroke="midnightblue" d="M144.038,-59C157.614,-59 171.939,-59 185.854,-59"/>
<polygon fill="midnightblue" stroke="midnightblue" points="185.898,-62.5001 195.898,-59 185.898,-55.5001 185.898,-62.5001"/>
</g>
<!-- Node4 -->
<g id="node4" class="node"><title>Node4</title>
<g id="a_node4"><a xlink:href="../../de/d4d/classcontroller_1_1_simulation_chart.html#a2a0445aa6e86c2a38019a594d925a2f6" target="_top" xlink:title="controller.SimulationChart.intialize\lChart">
<polygon fill="white" stroke="black" points="180,-0 180,-30 360,-30 360,-0 180,-0"/>
<text text-anchor="start" x="188" y="-18" font-family="Helvetica,sans-Serif" font-size="10.00">controller.SimulationChart.intialize</text>
<text text-anchor="middle" x="270" y="-7" font-family="Helvetica,sans-Serif" font-size="10.00">Chart</text>
</a>
</g>
</g>
<!-- Node1&#45;&gt;Node4 -->
<g id="edge3" class="edge"><title>Node1&#45;&gt;Node4</title>
<path fill="none" stroke="midnightblue" d="M139.904,-43.9808C156.683,-40.214 174.819,-36.1426 192.045,-32.2756"/>
<polygon fill="midnightblue" stroke="midnightblue" points="193.075,-35.6317 202.065,-30.0262 191.541,-28.8017 193.075,-35.6317"/>
</g>
<!-- Node5 -->
<g id="node5" class="node"><title>Node5</title>
<g id="a_node5"><a xlink:href="../../de/d7a/classcontroller_1_1_grid_info.html#a950f874bbf7935273015e19158a6caf8" target="_top" xlink:title="controller.GridInfo.getMax\lCellState">
<polygon fill="white" stroke="black" points="396.5,-0 396.5,-30 535.5,-30 535.5,-0 396.5,-0"/>
<text text-anchor="start" x="404.5" y="-18" font-family="Helvetica,sans-Serif" font-size="10.00">controller.GridInfo.getMax</text>
<text text-anchor="middle" x="466" y="-7" font-family="Helvetica,sans-Serif" font-size="10.00">CellState</text>
</a>
</g>
</g>
<!-- Node4&#45;&gt;Node5 -->
<g id="edge4" class="edge"><title>Node4&#45;&gt;Node5</title>
<path fill="none" stroke="midnightblue" d="M360.051,-15C368.785,-15 377.606,-15 386.228,-15"/>
<polygon fill="midnightblue" stroke="midnightblue" points="386.24,-18.5001 396.24,-15 386.24,-11.5001 386.24,-18.5001"/>
</g>
</g>
</svg>
