<?xml version="1.0" encoding="UTF-8" standalone="no"?>
<!DOCTYPE svg PUBLIC "-//W3C//DTD SVG 1.1//EN"
 "http://www.w3.org/Graphics/SVG/1.1/DTD/svg11.dtd">
<!-- Generated by graphviz version 2.36.0 (20140111.2315)
 -->
<!-- Title: controller.SimulationChart.updateDisplay Pages: 1 -->
<svg width="974pt" height="102pt"
 viewBox="0.00 0.00 974.00 102.00" xmlns="http://www.w3.org/2000/svg" xmlns:xlink="http://www.w3.org/1999/xlink">
<g id="graph0" class="graph" transform="scale(1 1) rotate(0) translate(4 98)">
<title>controller.SimulationChart.updateDisplay</title>
<polygon fill="white" stroke="none" points="-4,4 -4,-98 970,-98 970,4 -4,4"/>
<!-- Node1 -->
<g id="node1" class="node"><title>Node1</title>
<polygon fill="#bfbfbf" stroke="black" points="0,-20 0,-50 178,-50 178,-20 0,-20"/>
<text text-anchor="start" x="8" y="-38" font-family="Helvetica,sans-Serif" font-size="10.00">controller.SimulationChart.update</text>
<text text-anchor="middle" x="89" y="-27" font-family="Helvetica,sans-Serif" font-size="10.00">Display</text>
</g>
<!-- Node2 -->
<g id="node2" class="node"><title>Node2</title>
<g id="a_node2"><a xlink:href="../../db/d32/classcontroller_1_1_main_controller.html#a73545baf8abf0781ade4a83269de344e" target="_top" xlink:title="controller.MainController.step\lSimulation">
<polygon fill="white" stroke="black" points="214,-20 214,-50 370,-50 370,-20 214,-20"/>
<text text-anchor="start" x="222" y="-38" font-family="Helvetica,sans-Serif" font-size="10.00">controller.MainController.step</text>
<text text-anchor="middle" x="292" y="-27" font-family="Helvetica,sans-Serif" font-size="10.00">Simulation</text>
</a>
</g>
</g>
<!-- Node1&#45;&gt;Node2 -->
<g id="edge1" class="edge"><title>Node1&#45;&gt;Node2</title>
<path fill="none" stroke="midnightblue" d="M188.259,-35C196.882,-35 205.527,-35 213.94,-35"/>
<polygon fill="midnightblue" stroke="midnightblue" points="188.162,-31.5001 178.162,-35 188.161,-38.5001 188.162,-31.5001"/>
</g>
<!-- Node3 -->
<g id="node3" class="node"><title>Node3</title>
<g id="a_node3"><a xlink:href="../../db/ddb/classcontroller_1_1_user_interface.html#a9cf1e21253003993661082c9d42926b2" target="_top" xlink:title="controller.UserInterface.make\lBottomPanel">
<polygon fill="white" stroke="black" points="406,-20 406,-50 564,-50 564,-20 406,-20"/>
<text text-anchor="start" x="414" y="-38" font-family="Helvetica,sans-Serif" font-size="10.00">controller.UserInterface.make</text>
<text text-anchor="middle" x="485" y="-27" font-family="Helvetica,sans-Serif" font-size="10.00">BottomPanel</text>
</a>
</g>
</g>
<!-- Node2&#45;&gt;Node3 -->
<g id="edge2" class="edge"><title>Node2&#45;&gt;Node3</title>
<path fill="none" stroke="midnightblue" d="M380.171,-35C388.768,-35 397.456,-35 405.954,-35"/>
<polygon fill="midnightblue" stroke="midnightblue" points="380.136,-31.5001 370.136,-35 380.136,-38.5001 380.136,-31.5001"/>
</g>
<!-- Node4 -->
<g id="node4" class="node"><title>Node4</title>
<g id="a_node4"><a xlink:href="../../db/ddb/classcontroller_1_1_user_interface.html#a6dd740b89d748c372a5ef9959e1bd7c4" target="_top" xlink:title="controller.UserInterface.\lUserInterface">
<polygon fill="white" stroke="black" points="612.5,-64 612.5,-94 743.5,-94 743.5,-64 612.5,-64"/>
<text text-anchor="start" x="620.5" y="-82" font-family="Helvetica,sans-Serif" font-size="10.00">controller.UserInterface.</text>
<text text-anchor="middle" x="678" y="-71" font-family="Helvetica,sans-Serif" font-size="10.00">UserInterface</text>
</a>
</g>
</g>
<!-- Node3&#45;&gt;Node4 -->
<g id="edge3" class="edge"><title>Node3&#45;&gt;Node4</title>
<path fill="none" stroke="midnightblue" d="M561.07,-52.2936C578.044,-56.204 595.922,-60.3224 612.42,-64.123"/>
<polygon fill="midnightblue" stroke="midnightblue" points="561.728,-48.8535 551.197,-50.0192 560.156,-55.6749 561.728,-48.8535"/>
</g>
<!-- Node5 -->
<g id="node5" class="node"><title>Node5</title>
<g id="a_node5"><a xlink:href="../../db/ddb/classcontroller_1_1_user_interface.html#aad62b84bbc23f683c844ace519feb9d2" target="_top" xlink:title="controller.UserInterface.reset">
<polygon fill="white" stroke="black" points="600,-25.5 600,-44.5 756,-44.5 756,-25.5 600,-25.5"/>
<text text-anchor="middle" x="678" y="-32.5" font-family="Helvetica,sans-Serif" font-size="10.00">controller.UserInterface.reset</text>
</a>
</g>
</g>
<!-- Node3&#45;&gt;Node5 -->
<g id="edge4" class="edge"><title>Node3&#45;&gt;Node5</title>
<path fill="none" stroke="midnightblue" d="M574.495,-35C582.949,-35 591.476,-35 599.81,-35"/>
<polygon fill="midnightblue" stroke="midnightblue" points="574.238,-31.5001 564.238,-35 574.238,-38.5001 574.238,-31.5001"/>
</g>
<!-- Node6 -->
<g id="node6" class="node"><title>Node6</title>
<g id="a_node6"><a xlink:href="../../db/d32/classcontroller_1_1_main_controller.html#a7cfedb8e16c6b9d6394054d03193da82" target="_top" xlink:title="controller.MainController.initialize\lSimulationWithData">
<polygon fill="white" stroke="black" points="792.5,-1 792.5,-31 965.5,-31 965.5,-1 792.5,-1"/>
<text text-anchor="start" x="800.5" y="-19" font-family="Helvetica,sans-Serif" font-size="10.00">controller.MainController.initialize</text>
<text text-anchor="middle" x="879" y="-8" font-family="Helvetica,sans-Serif" font-size="10.00">SimulationWithData</text>
</a>
</g>
</g>
<!-- Node5&#45;&gt;Node6 -->
<g id="edge5" class="edge"><title>Node5&#45;&gt;Node6</title>
<path fill="none" stroke="midnightblue" d="M766.268,-26.6679C774.886,-25.845 783.629,-25.0103 792.232,-24.1889"/>
<polygon fill="midnightblue" stroke="midnightblue" points="765.845,-23.1922 756.223,-27.6269 766.511,-30.1605 765.845,-23.1922"/>
</g>
<!-- Node6&#45;&gt;Node3 -->
<g id="edge6" class="edge"><title>Node6&#45;&gt;Node3</title>
<path fill="none" stroke="midnightblue" d="M782.182,-12.1096C728.52,-10.9063 660.438,-10.998 600,-16 588.402,-16.9599 576.208,-18.4601 564.283,-20.2065"/>
<polygon fill="midnightblue" stroke="midnightblue" points="782.29,-15.6132 792.372,-12.3574 782.46,-8.61523 782.29,-15.6132"/>
</g>
</g>
</svg>
