<?xml version="1.0" encoding="UTF-8" standalone="no"?>
<!DOCTYPE svg PUBLIC "-//W3C//DTD SVG 1.1//EN"
 "http://www.w3.org/Graphics/SVG/1.1/DTD/svg11.dtd">
<!-- Generated by graphviz version 2.36.0 (20140111.2315)
 -->
<!-- Title: controller.SimulationChart.updateDisplay Pages: 1 -->
<svg width="598pt" height="77pt"
 viewBox="0.00 0.00 598.00 77.00" xmlns="http://www.w3.org/2000/svg" xmlns:xlink="http://www.w3.org/1999/xlink">
<g id="graph0" class="graph" transform="scale(1 1) rotate(0) translate(4 73)">
<title>controller.SimulationChart.updateDisplay</title>
<polygon fill="white" stroke="none" points="-4,4 -4,-73 594,-73 594,4 -4,4"/>
<!-- Node1 -->
<g id="node1" class="node"><title>Node1</title>
<polygon fill="#bfbfbf" stroke="black" points="0,-17 0,-47 178,-47 178,-17 0,-17"/>
<text text-anchor="start" x="8" y="-35" font-family="Helvetica,sans-Serif" font-size="10.00">controller.SimulationChart.update</text>
<text text-anchor="middle" x="89" y="-24" font-family="Helvetica,sans-Serif" font-size="10.00">Display</text>
</g>
<!-- Node2 -->
<g id="node2" class="node"><title>Node2</title>
<g id="a_node2"><a xlink:href="../../de/d4d/classcontroller_1_1_simulation_chart.html#a57c1893e8c3ae7efa036d649da8c3fe9" target="_top" xlink:title="controller.SimulationChart.check\lBoundaryAndReset">
<polygon fill="white" stroke="black" points="221,-39 221,-69 393,-69 393,-39 221,-39"/>
<text text-anchor="start" x="229" y="-57" font-family="Helvetica,sans-Serif" font-size="10.00">controller.SimulationChart.check</text>
<text text-anchor="middle" x="307" y="-46" font-family="Helvetica,sans-Serif" font-size="10.00">BoundaryAndReset</text>
</a>
</g>
</g>
<!-- Node1&#45;&gt;Node2 -->
<g id="edge1" class="edge"><title>Node1&#45;&gt;Node2</title>
<path fill="none" stroke="midnightblue" d="M178.167,-40.98C188.974,-42.0807 200.055,-43.2093 210.957,-44.3197"/>
<polygon fill="midnightblue" stroke="midnightblue" points="210.603,-47.8017 220.907,-45.3331 211.313,-40.8377 210.603,-47.8017"/>
</g>
<!-- Node3 -->
<g id="node3" class="node"><title>Node3</title>
<g id="a_node3"><a xlink:href="../../de/d4d/classcontroller_1_1_simulation_chart.html#aca1714f6b0633c14a2d35c60e50f08b6" target="_top" xlink:title="controller.SimulationChart.plotData">
<polygon fill="white" stroke="black" points="214.5,-0.5 214.5,-19.5 399.5,-19.5 399.5,-0.5 214.5,-0.5"/>
<text text-anchor="middle" x="307" y="-7.5" font-family="Helvetica,sans-Serif" font-size="10.00">controller.SimulationChart.plotData</text>
</a>
</g>
</g>
<!-- Node1&#45;&gt;Node3 -->
<g id="edge2" class="edge"><title>Node1&#45;&gt;Node3</title>
<path fill="none" stroke="midnightblue" d="M178.167,-23.02C186.719,-22.149 195.443,-21.2604 204.114,-20.3772"/>
<polygon fill="midnightblue" stroke="midnightblue" points="204.662,-23.8397 214.256,-19.3443 203.953,-16.8757 204.662,-23.8397"/>
</g>
<!-- Node4 -->
<g id="node4" class="node"><title>Node4</title>
<g id="a_node4"><a xlink:href="../../d7/d97/classcontroller_1_1_grid.html#aeb4ca12da867e81ef87591e54766bb6b" target="_top" xlink:title="controller.Grid.getCellCounts">
<polygon fill="white" stroke="black" points="436.5,-0.5 436.5,-19.5 589.5,-19.5 589.5,-0.5 436.5,-0.5"/>
<text text-anchor="middle" x="513" y="-7.5" font-family="Helvetica,sans-Serif" font-size="10.00">controller.Grid.getCellCounts</text>
</a>
</g>
</g>
<!-- Node3&#45;&gt;Node4 -->
<g id="edge3" class="edge"><title>Node3&#45;&gt;Node4</title>
<path fill="none" stroke="midnightblue" d="M399.557,-10C408.388,-10 417.325,-10 426.099,-10"/>
<polygon fill="midnightblue" stroke="midnightblue" points="426.307,-13.5001 436.307,-10 426.307,-6.5001 426.307,-13.5001"/>
</g>
</g>
</svg>
