<?xml version="1.0" encoding="UTF-8" standalone="no"?>
<!DOCTYPE svg PUBLIC "-//W3C//DTD SVG 1.1//EN"
 "http://www.w3.org/Graphics/SVG/1.1/DTD/svg11.dtd">
<!-- Generated by graphviz version 2.36.0 (20140111.2315)
 -->
<!-- Title: controller.SimulationChart.intializeChart Pages: 1 -->
<svg width="364pt" height="38pt"
 viewBox="0.00 0.00 364.00 38.00" xmlns="http://www.w3.org/2000/svg" xmlns:xlink="http://www.w3.org/1999/xlink">
<g id="graph0" class="graph" transform="scale(1 1) rotate(0) translate(4 34)">
<title>controller.SimulationChart.intializeChart</title>
<polygon fill="white" stroke="none" points="-4,4 -4,-34 360,-34 360,4 -4,4"/>
<!-- Node1 -->
<g id="node1" class="node"><title>Node1</title>
<polygon fill="#bfbfbf" stroke="black" points="0,-0 0,-30 180,-30 180,-0 0,-0"/>
<text text-anchor="start" x="8" y="-18" font-family="Helvetica,sans-Serif" font-size="10.00">controller.SimulationChart.intialize</text>
<text text-anchor="middle" x="90" y="-7" font-family="Helvetica,sans-Serif" font-size="10.00">Chart</text>
</g>
<!-- Node2 -->
<g id="node2" class="node"><title>Node2</title>
<g id="a_node2"><a xlink:href="../../de/d7a/classcontroller_1_1_grid_info.html#a950f874bbf7935273015e19158a6caf8" target="_top" xlink:title="controller.GridInfo.getMax\lCellState">
<polygon fill="white" stroke="black" points="216.5,-0 216.5,-30 355.5,-30 355.5,-0 216.5,-0"/>
<text text-anchor="start" x="224.5" y="-18" font-family="Helvetica,sans-Serif" font-size="10.00">controller.GridInfo.getMax</text>
<text text-anchor="middle" x="286" y="-7" font-family="Helvetica,sans-Serif" font-size="10.00">CellState</text>
</a>
</g>
</g>
<!-- Node1&#45;&gt;Node2 -->
<g id="edge1" class="edge"><title>Node1&#45;&gt;Node2</title>
<path fill="none" stroke="midnightblue" d="M180.051,-15C188.785,-15 197.606,-15 206.228,-15"/>
<polygon fill="midnightblue" stroke="midnightblue" points="206.24,-18.5001 216.24,-15 206.24,-11.5001 206.24,-18.5001"/>
</g>
</g>
</svg>
