<?xml version="1.0" encoding="UTF-8" standalone="no"?>
<!DOCTYPE svg PUBLIC "-//W3C//DTD SVG 1.1//EN"
 "http://www.w3.org/Graphics/SVG/1.1/DTD/svg11.dtd">
<!-- Generated by graphviz version 2.36.0 (20140111.2315)
 -->
<!-- Title: simulationObjects.PatchBodyTriangle.PatchBodyTriangle Pages: 1 -->
<!--zoomable 209 -->
<svg id="main" version="1.1" xmlns="http://www.w3.org/2000/svg" xmlns:xlink="http://www.w3.org/1999/xlink" xml:space="preserve" onload="init(evt)">
<style type="text/css"><![CDATA[
.edge:hover path { stroke: red; }
.edge:hover polygon { stroke: red; fill: red; }
]]></style>
<script type="text/javascript"><![CDATA[
var edges = document.getElementsByTagName('g');
if (edges && edges.length) {
  for (var i=0;i<edges.length;i++) {
    if (edges[i].id.substr(0,4)=='edge') {
      edges[i].setAttribute('class','edge');
    }
  }
}
]]></script>
        <defs>
                <circle id="rim" cx="0" cy="0" r="7"/>
                <circle id="rim2" cx="0" cy="0" r="3.5"/>
                <g id="zoomPlus">
                        <use xlink:href="#rim" fill="#404040">
                                <set attributeName="fill" to="#808080" begin="zoomplus.mouseover" end="zoomplus.mouseout"/>
                        </use>
                        <path d="M-4,0h8M0,-4v8" fill="none" stroke="white" stroke-width="1.5" pointer-events="none"/>
                </g>
                <g id="zoomMin">
                        <use xlink:href="#rim" fill="#404040">
                                <set attributeName="fill" to="#808080" begin="zoomminus.mouseover" end="zoomminus.mouseout"/>
                        </use>
                        <path d="M-4,0h8" fill="none" stroke="white" stroke-width="1.5" pointer-events="none"/>
                </g>
                <g id="dirArrow">
                        <path fill="none" stroke="white" stroke-width="1.5" d="M0,-3.0v7 M-2.5,-0.5L0,-3.0L2.5,-0.5"/>
                </g>
               <g id="resetDef">
                       <use xlink:href="#rim2" fill="#404040">
                               <set attributeName="fill" to="#808080" begin="reset.mouseover" end="reset.mouseout"/>
                       </use>
               </g>
        </defs>

<script type="text/javascript">
var viewWidth = 596;
var viewHeight = 209;
var sectionId = 'dynsection-2';
</script>
<script xlink:href="../../svgpan.js"/>
<svg id="graph" class="graph">
<g id="viewport">
<title>simulationObjects.PatchBodyTriangle.PatchBodyTriangle</title>
<polygon fill="white" stroke="none" points="-4,4 -4,-205 592,-205 592,4 -4,4"/>
<!-- Node1 -->
<g id="node1" class="node"><title>Node1</title>
<polygon fill="#bfbfbf" stroke="black" points="0.5,-49 0.5,-79 155.5,-79 155.5,-49 0.5,-49"/>
<text text-anchor="start" x="8.5" y="-67" font-family="Helvetica,sans-Serif" font-size="10.00">simulationObjects.PatchBody</text>
<text text-anchor="middle" x="78" y="-56" font-family="Helvetica,sans-Serif" font-size="10.00">Triangle.PatchBodyTriangle</text>
</g>
<!-- Node2 -->
<g id="node2" class="node"><title>Node2</title>
<g id="a_node2"><a xlink:href="../../dc/df0/classsimulation_objects_1_1_patch_body_triangle.html#af06af0312cd13639f8685d1552d73dd1" target="_top" xlink:title="simulationObjects.PatchBody\lTriangle.buildBody">
<polygon fill="white" stroke="black" points="200.5,-98 200.5,-128 355.5,-128 355.5,-98 200.5,-98"/>
<text text-anchor="start" x="208.5" y="-116" font-family="Helvetica,sans-Serif" font-size="10.00">simulationObjects.PatchBody</text>
<text text-anchor="middle" x="278" y="-105" font-family="Helvetica,sans-Serif" font-size="10.00">Triangle.buildBody</text>
</a>
</g>
</g>
<!-- Node1&#45;&gt;Node2 -->
<g id="edge1" class="edge"><title>Node1&#45;&gt;Node2</title>
<path fill="none" stroke="midnightblue" d="M139.752,-79.0346C160.848,-84.2554 184.682,-90.1537 206.498,-95.5526"/>
<polygon fill="midnightblue" stroke="midnightblue" points="205.815,-98.989 216.363,-97.9938 207.496,-92.194 205.815,-98.989"/>
</g>
<!-- Node7 -->
<g id="node7" class="node"><title>Node7</title>
<g id="a_node7"><a xlink:href="../../d0/d1a/classsimulation_objects_1_1_patch_body.html#a5cc298524a3d85e5d6e9607d1b04f708" target="_top" xlink:title="simulationObjects.PatchBody.set\lPatchHeight">
<polygon fill="white" stroke="black" points="192,-49 192,-79 364,-79 364,-49 192,-49"/>
<text text-anchor="start" x="200" y="-67" font-family="Helvetica,sans-Serif" font-size="10.00">simulationObjects.PatchBody.set</text>
<text text-anchor="middle" x="278" y="-56" font-family="Helvetica,sans-Serif" font-size="10.00">PatchHeight</text>
</a>
</g>
</g>
<!-- Node1&#45;&gt;Node7 -->
<g id="edge6" class="edge"><title>Node1&#45;&gt;Node7</title>
<path fill="none" stroke="midnightblue" d="M155.552,-64C164.078,-64 172.838,-64 181.561,-64"/>
<polygon fill="midnightblue" stroke="midnightblue" points="181.768,-67.5001 191.768,-64 181.768,-60.5001 181.768,-67.5001"/>
</g>
<!-- Node8 -->
<g id="node8" class="node"><title>Node8</title>
<g id="a_node8"><a xlink:href="../../d0/d1a/classsimulation_objects_1_1_patch_body.html#a3fbd0cb76950803bc4c07f3580569be4" target="_top" xlink:title="simulationObjects.PatchBody.set\lPatchWidth">
<polygon fill="white" stroke="black" points="192,-0 192,-30 364,-30 364,-0 192,-0"/>
<text text-anchor="start" x="200" y="-18" font-family="Helvetica,sans-Serif" font-size="10.00">simulationObjects.PatchBody.set</text>
<text text-anchor="middle" x="278" y="-7" font-family="Helvetica,sans-Serif" font-size="10.00">PatchWidth</text>
</a>
</g>
</g>
<!-- Node1&#45;&gt;Node8 -->
<g id="edge7" class="edge"><title>Node1&#45;&gt;Node8</title>
<path fill="none" stroke="midnightblue" d="M139.752,-48.9654C160.848,-43.7446 184.682,-37.8463 206.498,-32.4474"/>
<polygon fill="midnightblue" stroke="midnightblue" points="207.496,-35.806 216.363,-30.0062 205.815,-29.011 207.496,-35.806"/>
</g>
<!-- Node3 -->
<g id="node3" class="node"><title>Node3</title>
<g id="a_node3"><a xlink:href="../../d0/d1a/classsimulation_objects_1_1_patch_body.html#a466dadbe30fb2f8360163881e0db9295" target="_top" xlink:title="simulationObjects.PatchBody.get\lPatchWidth">
<polygon fill="white" stroke="black" points="407.5,-171 407.5,-201 580.5,-201 580.5,-171 407.5,-171"/>
<text text-anchor="start" x="415.5" y="-189" font-family="Helvetica,sans-Serif" font-size="10.00">simulationObjects.PatchBody.get</text>
<text text-anchor="middle" x="494" y="-178" font-family="Helvetica,sans-Serif" font-size="10.00">PatchWidth</text>
</a>
</g>
</g>
<!-- Node2&#45;&gt;Node3 -->
<g id="edge2" class="edge"><title>Node2&#45;&gt;Node3</title>
<path fill="none" stroke="midnightblue" d="M313.817,-128.047C337.787,-138.1 370.504,-151.221 400,-161 407.364,-163.442 415.115,-165.819 422.87,-168.077"/>
<polygon fill="midnightblue" stroke="midnightblue" points="422.089,-171.493 432.666,-170.867 424.007,-164.761 422.089,-171.493"/>
</g>
<!-- Node4 -->
<g id="node4" class="node"><title>Node4</title>
<g id="a_node4"><a xlink:href="../../d0/d1a/classsimulation_objects_1_1_patch_body.html#a268e88a7cb1f5feb98f49e230475c2ba" target="_top" xlink:title="simulationObjects.PatchBody.get\lPatchHeight">
<polygon fill="white" stroke="black" points="407.5,-122 407.5,-152 580.5,-152 580.5,-122 407.5,-122"/>
<text text-anchor="start" x="415.5" y="-140" font-family="Helvetica,sans-Serif" font-size="10.00">simulationObjects.PatchBody.get</text>
<text text-anchor="middle" x="494" y="-129" font-family="Helvetica,sans-Serif" font-size="10.00">PatchHeight</text>
</a>
</g>
</g>
<!-- Node2&#45;&gt;Node4 -->
<g id="edge3" class="edge"><title>Node2&#45;&gt;Node4</title>
<path fill="none" stroke="midnightblue" d="M355.654,-121.597C369.166,-123.112 383.38,-124.706 397.335,-126.271"/>
<polygon fill="midnightblue" stroke="midnightblue" points="397.109,-129.768 407.436,-127.404 397.889,-122.811 397.109,-129.768"/>
</g>
<!-- Node5 -->
<g id="node5" class="node"><title>Node5</title>
<g id="a_node5"><a xlink:href="../../d0/d1a/classsimulation_objects_1_1_patch_body.html#a9760016e89cb49e2037203dd2a7eed58" target="_top" xlink:title="simulationObjects.PatchBody.create\lPolyFromPoints">
<polygon fill="white" stroke="black" points="400,-73 400,-103 588,-103 588,-73 400,-73"/>
<text text-anchor="start" x="408" y="-91" font-family="Helvetica,sans-Serif" font-size="10.00">simulationObjects.PatchBody.create</text>
<text text-anchor="middle" x="494" y="-80" font-family="Helvetica,sans-Serif" font-size="10.00">PolyFromPoints</text>
</a>
</g>
</g>
<!-- Node2&#45;&gt;Node5 -->
<g id="edge4" class="edge"><title>Node2&#45;&gt;Node5</title>
<path fill="none" stroke="midnightblue" d="M355.654,-104.045C366.693,-102.756 378.201,-101.411 389.653,-100.073"/>
<polygon fill="midnightblue" stroke="midnightblue" points="390.163,-103.538 399.69,-98.9007 389.351,-96.5848 390.163,-103.538"/>
</g>
<!-- Node6 -->
<g id="node6" class="node"><title>Node6</title>
<g id="a_node6"><a xlink:href="../../d0/d1a/classsimulation_objects_1_1_patch_body.html#a699dd283d067ce6da4bc19a2ae81a365" target="_top" xlink:title="simulationObjects.PatchBody.set\lCenter">
<polygon fill="white" stroke="black" points="408,-24 408,-54 580,-54 580,-24 408,-24"/>
<text text-anchor="start" x="416" y="-42" font-family="Helvetica,sans-Serif" font-size="10.00">simulationObjects.PatchBody.set</text>
<text text-anchor="middle" x="494" y="-31" font-family="Helvetica,sans-Serif" font-size="10.00">Center</text>
</a>
</g>
</g>
<!-- Node2&#45;&gt;Node6 -->
<g id="edge5" class="edge"><title>Node2&#45;&gt;Node6</title>
<path fill="none" stroke="midnightblue" d="M338.834,-97.8934C347.436,-95.0087 356.056,-91.7109 364,-88 381.422,-79.8611 382.484,-71.9341 400,-64 405.366,-61.5694 411.017,-59.3344 416.772,-57.287"/>
<polygon fill="midnightblue" stroke="midnightblue" points="418.156,-60.5145 426.525,-54.0173 415.931,-53.8776 418.156,-60.5145"/>
</g>
</g>
</svg>
        <g id="navigator" transform="translate(0 0)" fill="#404254">
                <rect fill="#f2f5e9" fill-opacity="0.5" stroke="#606060" stroke-width=".5" x="0" y="0" width="60" height="60"/>
                <use id="zoomplus" xlink:href="#zoomPlus" x="17" y="9" onmousedown="handleZoom(evt,'in')"/>
                <use id="zoomminus" xlink:href="#zoomMin" x="42" y="9" onmousedown="handleZoom(evt,'out')"/>
                <use id="reset" xlink:href="#resetDef" x="30" y="36" onmousedown="handleReset()"/>
                <g id="arrowUp" xlink:href="#dirArrow" transform="translate(30 24)" onmousedown="handlePan(0,-1)">
                  <use xlink:href="#rim" fill="#404040">
                        <set attributeName="fill" to="#808080" begin="arrowUp.mouseover" end="arrowUp.mouseout"/>
                  </use>
                  <path fill="none" stroke="white" stroke-width="1.5" d="M0,-3.0v7 M-2.5,-0.5L0,-3.0L2.5,-0.5"/>
                </g>
                <g id="arrowRight" xlink:href="#dirArrow" transform="rotate(90) translate(36 -43)" onmousedown="handlePan(1,0)">
                  <use xlink:href="#rim" fill="#404040">
                        <set attributeName="fill" to="#808080" begin="arrowRight.mouseover" end="arrowRight.mouseout"/>
                  </use>
                  <path fill="none" stroke="white" stroke-width="1.5" d="M0,-3.0v7 M-2.5,-0.5L0,-3.0L2.5,-0.5"/>
                </g>
                <g id="arrowDown" xlink:href="#dirArrow" transform="rotate(180) translate(-30 -48)" onmousedown="handlePan(0,1)">
                  <use xlink:href="#rim" fill="#404040">
                        <set attributeName="fill" to="#808080" begin="arrowDown.mouseover" end="arrowDown.mouseout"/>
                  </use>
                  <path fill="none" stroke="white" stroke-width="1.5" d="M0,-3.0v7 M-2.5,-0.5L0,-3.0L2.5,-0.5"/>
                </g>
                <g id="arrowLeft" xlink:href="#dirArrow" transform="rotate(270) translate(-36 17)" onmousedown="handlePan(-1,0)">
                  <use xlink:href="#rim" fill="#404040">
                        <set attributeName="fill" to="#808080" begin="arrowLeft.mouseover" end="arrowLeft.mouseout"/>
                  </use>
                  <path fill="none" stroke="white" stroke-width="1.5" d="M0,-3.0v7 M-2.5,-0.5L0,-3.0L2.5,-0.5"/>
                </g>
        </g>
        <svg viewBox="0 0 15 15" width="100%" height="30px" preserveAspectRatio="xMaxYMin meet">
         <g id="arrow_out" transform="scale(0.3 0.3)">
          <a xlink:href="classsimulation_objects_1_1_patch_body_triangle_a3a12b11e10051311aa061e65b0df98da_cgraph_org.svg" target="_base">
           <rect id="button" ry="5" rx="5" y="6" x="6" height="38" width="38"
                fill="#f2f5e9" fill-opacity="0.5" stroke="#606060" stroke-width="1.0"/>
           <path id="arrow"
             d="M 11.500037,31.436501 C 11.940474,20.09759 22.043105,11.32322 32.158766,21.979434 L 37.068811,17.246167 C 37.068811,17.246167 37.088388,32 37.088388,32 L 22.160133,31.978069 C 22.160133,31.978069 26.997745,27.140456 26.997745,27.140456 C 18.528582,18.264221 13.291696,25.230495 11.500037,31.436501 z"
             style="fill:#404040;"/>
          </a>
         </g>
        </svg>
</svg>
