<?xml version="1.0" encoding="UTF-8" standalone="no"?>
<!DOCTYPE svg PUBLIC "-//W3C//DTD SVG 1.1//EN"
 "http://www.w3.org/Graphics/SVG/1.1/DTD/svg11.dtd">
<!-- Generated by graphviz version 2.36.0 (20140111.2315)
 -->
<!-- Title: controller.GridEdgeRules.isOutOfBounds Pages: 1 -->
<svg width="366pt" height="87pt"
 viewBox="0.00 0.00 366.00 87.00" xmlns="http://www.w3.org/2000/svg" xmlns:xlink="http://www.w3.org/1999/xlink">
<g id="graph0" class="graph" transform="scale(1 1) rotate(0) translate(4 83)">
<title>controller.GridEdgeRules.isOutOfBounds</title>
<polygon fill="white" stroke="none" points="-4,4 -4,-83 362,-83 362,4 -4,4"/>
<!-- Node1 -->
<g id="node1" class="node"><title>Node1</title>
<polygon fill="#bfbfbf" stroke="black" points="0.5,-24 0.5,-54 143.5,-54 143.5,-24 0.5,-24"/>
<text text-anchor="start" x="8.5" y="-42" font-family="Helvetica,sans-Serif" font-size="10.00">controller.GridEdgeRules.is</text>
<text text-anchor="middle" x="72" y="-31" font-family="Helvetica,sans-Serif" font-size="10.00">OutOfBounds</text>
</g>
<!-- Node2 -->
<g id="node2" class="node"><title>Node2</title>
<g id="a_node2"><a xlink:href="../../d4/d5d/classcontroller_1_1_default_edge_rules.html#ad9e490a75cf28313fb5c0e291fa49058" target="_top" xlink:title="controller.DefaultEdgeRules.apply\lRulesAndGetNeighbors">
<polygon fill="white" stroke="black" points="181,-49 181,-79 357,-79 357,-49 181,-49"/>
<text text-anchor="start" x="189" y="-67" font-family="Helvetica,sans-Serif" font-size="10.00">controller.DefaultEdgeRules.apply</text>
<text text-anchor="middle" x="269" y="-56" font-family="Helvetica,sans-Serif" font-size="10.00">RulesAndGetNeighbors</text>
</a>
</g>
</g>
<!-- Node1&#45;&gt;Node2 -->
<g id="edge1" class="edge"><title>Node1&#45;&gt;Node2</title>
<path fill="none" stroke="midnightblue" d="M153.717,-49.3483C162.7,-50.4999 171.878,-51.6767 180.936,-52.8379"/>
<polygon fill="midnightblue" stroke="midnightblue" points="154.039,-45.8611 143.675,-48.0609 153.149,-52.8042 154.039,-45.8611"/>
</g>
<!-- Node3 -->
<g id="node3" class="node"><title>Node3</title>
<g id="a_node3"><a xlink:href="../../d2/d45/classcontroller_1_1_toroidal_edge_rules.html#ab87a6582c7cb8251d87c040d37d684af" target="_top" xlink:title="controller.ToroidalEdgeRules.apply\lRulesAndGetNeighbors">
<polygon fill="white" stroke="black" points="180.5,-0 180.5,-30 357.5,-30 357.5,-0 180.5,-0"/>
<text text-anchor="start" x="188.5" y="-18" font-family="Helvetica,sans-Serif" font-size="10.00">controller.ToroidalEdgeRules.apply</text>
<text text-anchor="middle" x="269" y="-7" font-family="Helvetica,sans-Serif" font-size="10.00">RulesAndGetNeighbors</text>
</a>
</g>
</g>
<!-- Node1&#45;&gt;Node3 -->
<g id="edge2" class="edge"><title>Node1&#45;&gt;Node3</title>
<path fill="none" stroke="midnightblue" d="M153.819,-29.0531C162.546,-27.9789 171.457,-26.8822 180.262,-25.7986"/>
<polygon fill="midnightblue" stroke="midnightblue" points="153.173,-25.6061 143.675,-30.3015 154.028,-32.5537 153.173,-25.6061"/>
</g>
</g>
</svg>
