<?xml version="1.0" encoding="UTF-8" standalone="no"?>
<!DOCTYPE svg PUBLIC "-//W3C//DTD SVG 1.1//EN"
 "http://www.w3.org/Graphics/SVG/1.1/DTD/svg11.dtd">
<!-- Generated by graphviz version 2.36.0 (20140111.2315)
 -->
<!-- Title: controller.GridEdgeRules.applyRulesAndGetNeighbors Pages: 1 -->
<svg width="574pt" height="87pt"
 viewBox="0.00 0.00 574.00 87.00" xmlns="http://www.w3.org/2000/svg" xmlns:xlink="http://www.w3.org/1999/xlink">
<g id="graph0" class="graph" transform="scale(1 1) rotate(0) translate(4 83)">
<title>controller.GridEdgeRules.applyRulesAndGetNeighbors</title>
<polygon fill="white" stroke="none" points="-4,4 -4,-83 570,-83 570,4 -4,4"/>
<!-- Node1 -->
<g id="node1" class="node"><title>Node1</title>
<polygon fill="#bfbfbf" stroke="black" points="0.5,-24 0.5,-54 161.5,-54 161.5,-24 0.5,-24"/>
<text text-anchor="start" x="8.5" y="-42" font-family="Helvetica,sans-Serif" font-size="10.00">controller.GridEdgeRules.apply</text>
<text text-anchor="middle" x="81" y="-31" font-family="Helvetica,sans-Serif" font-size="10.00">RulesAndGetNeighbors</text>
</g>
<!-- Node2 -->
<g id="node2" class="node"><title>Node2</title>
<g id="a_node2"><a xlink:href="../../d7/d97/classcontroller_1_1_grid.html#a462b2d06aaf343128c4f4534c4304305" target="_top" xlink:title="controller.Grid.getNeighbors\lAround">
<polygon fill="white" stroke="black" points="198.5,-24 198.5,-54 349.5,-54 349.5,-24 198.5,-24"/>
<text text-anchor="start" x="206.5" y="-42" font-family="Helvetica,sans-Serif" font-size="10.00">controller.Grid.getNeighbors</text>
<text text-anchor="middle" x="274" y="-31" font-family="Helvetica,sans-Serif" font-size="10.00">Around</text>
</a>
</g>
</g>
<!-- Node1&#45;&gt;Node2 -->
<g id="edge1" class="edge"><title>Node1&#45;&gt;Node2</title>
<path fill="none" stroke="midnightblue" d="M171.673,-39C180.619,-39 189.634,-39 198.402,-39"/>
<polygon fill="midnightblue" stroke="midnightblue" points="171.618,-35.5001 161.618,-39 171.618,-42.5001 171.618,-35.5001"/>
</g>
<!-- Node3 -->
<g id="node3" class="node"><title>Node3</title>
<g id="a_node3"><a xlink:href="../../d6/dae/classsimulation_objects_1_1_sugar_patch.html#afac1274ddfe0c5436bf2d27fbc654d03" target="_top" xlink:title="simulationObjects.SugarPatch.get\lNeighbors">
<polygon fill="white" stroke="black" points="386.5,-49 386.5,-79 565.5,-79 565.5,-49 386.5,-49"/>
<text text-anchor="start" x="394.5" y="-67" font-family="Helvetica,sans-Serif" font-size="10.00">simulationObjects.SugarPatch.get</text>
<text text-anchor="middle" x="476" y="-56" font-family="Helvetica,sans-Serif" font-size="10.00">Neighbors</text>
</a>
</g>
</g>
<!-- Node2&#45;&gt;Node3 -->
<g id="edge2" class="edge"><title>Node2&#45;&gt;Node3</title>
<path fill="none" stroke="midnightblue" d="M359.878,-49.6098C368.575,-50.6968 377.428,-51.8035 386.165,-52.8957"/>
<polygon fill="midnightblue" stroke="midnightblue" points="360.114,-46.1121 349.757,-48.3446 359.246,-53.058 360.114,-46.1121"/>
</g>
<!-- Node4 -->
<g id="node4" class="node"><title>Node4</title>
<g id="a_node4"><a xlink:href="../../d5/da5/classsimulation_objects_1_1_patch.html#a5e2fdb2771964ec01e6f2ef50b1dd54e" target="_top" xlink:title="simulationObjects.Patch.get\lNeighbors">
<polygon fill="white" stroke="black" points="401,-0 401,-30 551,-30 551,-0 401,-0"/>
<text text-anchor="start" x="409" y="-18" font-family="Helvetica,sans-Serif" font-size="10.00">simulationObjects.Patch.get</text>
<text text-anchor="middle" x="476" y="-7" font-family="Helvetica,sans-Serif" font-size="10.00">Neighbors</text>
</a>
</g>
</g>
<!-- Node2&#45;&gt;Node4 -->
<g id="edge3" class="edge"><title>Node2&#45;&gt;Node4</title>
<path fill="none" stroke="midnightblue" d="M360.074,-28.7911C373.685,-27.1578 387.673,-25.4793 400.999,-23.8802"/>
<polygon fill="midnightblue" stroke="midnightblue" points="359.269,-25.3626 349.757,-30.0292 360.103,-32.3127 359.269,-25.3626"/>
</g>
</g>
</svg>
