<?xml version="1.0" encoding="UTF-8" standalone="no"?>
<!DOCTYPE svg PUBLIC "-//W3C//DTD SVG 1.1//EN"
 "http://www.w3.org/Graphics/SVG/1.1/DTD/svg11.dtd">
<!-- Generated by graphviz version 2.36.0 (20140111.2315)
 -->
<!-- Title: controller.DefaultEdgeRules.applyRulesAndGetNeighbors Pages: 1 -->
<svg width="364pt" height="87pt"
 viewBox="0.00 0.00 364.00 87.00" xmlns="http://www.w3.org/2000/svg" xmlns:xlink="http://www.w3.org/1999/xlink">
<g id="graph0" class="graph" transform="scale(1 1) rotate(0) translate(4 83)">
<title>controller.DefaultEdgeRules.applyRulesAndGetNeighbors</title>
<polygon fill="white" stroke="none" points="-4,4 -4,-83 360,-83 360,4 -4,4"/>
<!-- Node1 -->
<g id="node1" class="node"><title>Node1</title>
<polygon fill="#bfbfbf" stroke="black" points="0,-24 0,-54 176,-54 176,-24 0,-24"/>
<text text-anchor="start" x="8" y="-42" font-family="Helvetica,sans-Serif" font-size="10.00">controller.DefaultEdgeRules.apply</text>
<text text-anchor="middle" x="88" y="-31" font-family="Helvetica,sans-Serif" font-size="10.00">RulesAndGetNeighbors</text>
</g>
<!-- Node2 -->
<g id="node2" class="node"><title>Node2</title>
<g id="a_node2"><a xlink:href="../../d7/d97/classcontroller_1_1_grid.html#a0d00df96b88fcfcf610dd8346860f8ad" target="_top" xlink:title="controller.Grid.getPatch\lAtPoint">
<polygon fill="white" stroke="black" points="220,-49 220,-79 348,-79 348,-49 220,-49"/>
<text text-anchor="start" x="228" y="-67" font-family="Helvetica,sans-Serif" font-size="10.00">controller.Grid.getPatch</text>
<text text-anchor="middle" x="284" y="-56" font-family="Helvetica,sans-Serif" font-size="10.00">AtPoint</text>
</a>
</g>
</g>
<!-- Node1&#45;&gt;Node2 -->
<g id="edge1" class="edge"><title>Node1&#45;&gt;Node2</title>
<path fill="none" stroke="midnightblue" d="M176.069,-50.2203C187.329,-51.6712 198.769,-53.1455 209.774,-54.5636"/>
<polygon fill="midnightblue" stroke="midnightblue" points="209.375,-58.0411 219.74,-55.848 210.27,-51.0985 209.375,-58.0411"/>
</g>
<!-- Node3 -->
<g id="node3" class="node"><title>Node3</title>
<g id="a_node3"><a xlink:href="../../dd/d38/classcontroller_1_1_grid_edge_rules.html#a1744f73c070f46f05d047ac0d52742b5" target="_top" xlink:title="controller.GridEdgeRules.is\lOutOfBounds">
<polygon fill="white" stroke="black" points="212.5,-0 212.5,-30 355.5,-30 355.5,-0 212.5,-0"/>
<text text-anchor="start" x="220.5" y="-18" font-family="Helvetica,sans-Serif" font-size="10.00">controller.GridEdgeRules.is</text>
<text text-anchor="middle" x="284" y="-7" font-family="Helvetica,sans-Serif" font-size="10.00">OutOfBounds</text>
</a>
</g>
</g>
<!-- Node1&#45;&gt;Node3 -->
<g id="edge2" class="edge"><title>Node1&#45;&gt;Node3</title>
<path fill="none" stroke="midnightblue" d="M176.069,-28.2286C184.829,-27.1448 193.699,-26.0476 202.388,-24.9726"/>
<polygon fill="midnightblue" stroke="midnightblue" points="202.993,-28.4246 212.487,-23.7232 202.133,-21.4775 202.993,-28.4246"/>
</g>
</g>
</svg>
