<?xml version="1.0" encoding="UTF-8" standalone="no"?>
<!DOCTYPE svg PUBLIC "-//W3C//DTD SVG 1.1//EN"
 "http://www.w3.org/Graphics/SVG/1.1/DTD/svg11.dtd">
<!-- Generated by graphviz version 2.36.0 (20140111.2315)
 -->
<!-- Title: controller.ColorPicker Pages: 1 -->
<svg width="1122pt" height="575pt"
 viewBox="0.00 0.00 1122.00 575.00" xmlns="http://www.w3.org/2000/svg" xmlns:xlink="http://www.w3.org/1999/xlink">
<g id="graph0" class="graph" transform="scale(1 1) rotate(0) translate(4 571)">
<title>controller.ColorPicker</title>
<polygon fill="white" stroke="none" points="-4,4 -4,-571 1118,-571 1118,4 -4,4"/>
<!-- Node1 -->
<g id="node1" class="node"><title>Node1</title>
<polygon fill="#bfbfbf" stroke="black" points="785.5,-496.5 785.5,-515.5 902.5,-515.5 902.5,-496.5 785.5,-496.5"/>
<text text-anchor="middle" x="844" y="-503.5" font-family="Helvetica,sans-Serif" font-size="10.00">controller.ColorPicker</text>
</g>
<!-- Node2 -->
<g id="node2" class="node"><title>Node2</title>
<polygon fill="white" stroke="#bfbfbf" points="537,-536 537,-566 655,-566 655,-536 537,-536"/>
<text text-anchor="start" x="545" y="-554" font-family="Helvetica,sans-Serif" font-size="10.00">javafx::scene::control</text>
<text text-anchor="middle" x="596" y="-543" font-family="Helvetica,sans-Serif" font-size="10.00">::ColorPicker</text>
</g>
<!-- Node2&#45;&gt;Node1 -->
<g id="edge1" class="edge"><title>Node2&#45;&gt;Node1</title>
<path fill="none" stroke="midnightblue" d="M665.19,-538.526C704.964,-531.25 754.351,-522.216 790.975,-515.517"/>
<polygon fill="midnightblue" stroke="midnightblue" points="664.506,-535.093 655.299,-540.336 665.765,-541.979 664.506,-535.093"/>
</g>
<!-- Node3 -->
<g id="node3" class="node"><title>Node3</title>
<g id="a_node3"><a xlink:href="../../de/d7a/classcontroller_1_1_grid_info.html" target="_top" xlink:title="controller.GridInfo">
<polygon fill="white" stroke="black" points="280.5,-336.5 280.5,-355.5 381.5,-355.5 381.5,-336.5 280.5,-336.5"/>
<text text-anchor="middle" x="331" y="-343.5" font-family="Helvetica,sans-Serif" font-size="10.00">controller.GridInfo</text>
</a>
</g>
</g>
<!-- Node3&#45;&gt;Node1 -->
<g id="edge2" class="edge"><title>Node3&#45;&gt;Node1</title>
<path fill="none" stroke="#9a32cd" stroke-dasharray="5,2" d="M339.994,-365.096C353.378,-394.357 383.327,-449.472 428,-474 487.938,-506.91 686.055,-508.65 785.295,-507.32"/>
<polygon fill="#9a32cd" stroke="#9a32cd" points="343.044,-363.336 335.816,-355.589 336.635,-366.152 343.044,-363.336"/>
<text text-anchor="middle" x="596" y="-510" font-family="Helvetica,sans-Serif" font-size="10.00"> infoSheet</text>
</g>
<!-- Node7 -->
<g id="node7" class="node"><title>Node7</title>
<g id="a_node7"><a xlink:href="../../d7/d97/classcontroller_1_1_grid.html" target="_top" xlink:title="controller.Grid">
<polygon fill="white" stroke="black" points="554.5,-289.5 554.5,-308.5 637.5,-308.5 637.5,-289.5 554.5,-289.5"/>
<text text-anchor="middle" x="596" y="-296.5" font-family="Helvetica,sans-Serif" font-size="10.00">controller.Grid</text>
</a>
</g>
</g>
<!-- Node3&#45;&gt;Node7 -->
<g id="edge8" class="edge"><title>Node3&#45;&gt;Node7</title>
<path fill="none" stroke="#9a32cd" stroke-dasharray="5,2" d="M391.764,-335.32C441.512,-326.429 511,-314.011 554.474,-306.242"/>
<polygon fill="#9a32cd" stroke="#9a32cd" points="391.006,-331.9 381.777,-337.104 392.237,-338.791 391.006,-331.9"/>
<text text-anchor="middle" x="464" y="-332" font-family="Helvetica,sans-Serif" font-size="10.00"> infoSheet</text>
</g>
<!-- Node9 -->
<g id="node9" class="node"><title>Node9</title>
<g id="a_node9"><a xlink:href="../../d5/da5/classsimulation_objects_1_1_patch.html" target="_top" xlink:title="simulationObjects.Patch">
<polygon fill="white" stroke="black" points="778.5,-196.5 778.5,-215.5 909.5,-215.5 909.5,-196.5 778.5,-196.5"/>
<text text-anchor="middle" x="844" y="-203.5" font-family="Helvetica,sans-Serif" font-size="10.00">simulationObjects.Patch</text>
</a>
</g>
</g>
<!-- Node3&#45;&gt;Node9 -->
<g id="edge11" class="edge"><title>Node3&#45;&gt;Node9</title>
<path fill="none" stroke="#9a32cd" stroke-dasharray="5,2" d="M391.978,-347.008C494.57,-347.746 698.623,-344.625 760,-310 800.039,-287.413 827.984,-237.098 838.443,-215.812"/>
<polygon fill="#9a32cd" stroke="#9a32cd" points="391.807,-343.506 381.777,-346.919 391.746,-350.506 391.807,-343.506"/>
<text text-anchor="middle" x="596" y="-349" font-family="Helvetica,sans-Serif" font-size="10.00"> infoSheet</text>
</g>
<!-- Node11 -->
<g id="node11" class="node"><title>Node11</title>
<g id="a_node11"><a xlink:href="../../d2/d6e/classsimulation_objects_1_1_cell.html" target="_top" xlink:title="simulationObjects.Cell">
<polygon fill="white" stroke="black" points="992,-176.5 992,-195.5 1114,-195.5 1114,-176.5 992,-176.5"/>
<text text-anchor="middle" x="1053" y="-183.5" font-family="Helvetica,sans-Serif" font-size="10.00">simulationObjects.Cell</text>
</a>
</g>
</g>
<!-- Node3&#45;&gt;Node11 -->
<g id="edge15" class="edge"><title>Node3&#45;&gt;Node11</title>
<path fill="none" stroke="#9a32cd" stroke-dasharray="5,2" d="M361.726,-359.873C430.983,-390.542 608.704,-459.732 760,-438 828.77,-428.122 853.803,-434.85 910,-394 986.393,-338.469 1034.96,-228.569 1048.28,-195.58"/>
<polygon fill="#9a32cd" stroke="#9a32cd" points="362.867,-356.548 352.311,-355.642 359.998,-362.933 362.867,-356.548"/>
<text text-anchor="middle" x="726" y="-446" font-family="Helvetica,sans-Serif" font-size="10.00"> infoSheet</text>
</g>
<!-- Node16 -->
<g id="node16" class="node"><title>Node16</title>
<g id="a_node16"><a xlink:href="../../d0/d1a/classsimulation_objects_1_1_patch_body.html" target="_top" xlink:title="simulationObjects.PatchBody">
<polygon fill="white" stroke="black" points="518.5,-29.5 518.5,-48.5 673.5,-48.5 673.5,-29.5 518.5,-29.5"/>
<text text-anchor="middle" x="596" y="-36.5" font-family="Helvetica,sans-Serif" font-size="10.00">simulationObjects.PatchBody</text>
</a>
</g>
</g>
<!-- Node3&#45;&gt;Node16 -->
<g id="edge23" class="edge"><title>Node3&#45;&gt;Node16</title>
<path fill="none" stroke="#9a32cd" stroke-dasharray="5,2" d="M360.864,-331.895C379.763,-322.879 405.11,-311.195 428,-302 459.433,-289.373 479.25,-303.775 500,-277 529.912,-238.403 486.34,-95.1761 518,-58 521.214,-54.2262 525.047,-51.1381 529.26,-48.6174"/>
<polygon fill="#9a32cd" stroke="#9a32cd" points="359.114,-328.853 351.617,-336.34 362.146,-335.163 359.114,-328.853"/>
<text text-anchor="middle" x="464" y="-305" font-family="Helvetica,sans-Serif" font-size="10.00"> infoSheet</text>
</g>
<!-- Node4 -->
<g id="node4" class="node"><title>Node4</title>
<polygon fill="white" stroke="#bfbfbf" points="0.5,-355.5 0.5,-374.5 143.5,-374.5 143.5,-355.5 0.5,-355.5"/>
<text text-anchor="middle" x="72" y="-362.5" font-family="Helvetica,sans-Serif" font-size="10.00">HashMap&lt; String, Color &gt;</text>
</g>
<!-- Node4&#45;&gt;Node3 -->
<g id="edge3" class="edge"><title>Node4&#45;&gt;Node3</title>
<path fill="none" stroke="#9a32cd" stroke-dasharray="5,2" d="M153.664,-359.037C195.174,-355.968 244.454,-352.324 280.35,-349.671"/>
<polygon fill="#9a32cd" stroke="#9a32cd" points="153.281,-355.555 143.566,-359.783 153.797,-362.536 153.281,-355.555"/>
<text text-anchor="middle" x="198" y="-362" font-family="Helvetica,sans-Serif" font-size="10.00"> stateColors</text>
</g>
<!-- Node5 -->
<g id="node5" class="node"><title>Node5</title>
<polygon fill="white" stroke="#bfbfbf" points="30,-317.5 30,-336.5 114,-336.5 114,-317.5 30,-317.5"/>
<text text-anchor="middle" x="72" y="-324.5" font-family="Helvetica,sans-Serif" font-size="10.00">List&lt; String &gt;</text>
</g>
<!-- Node5&#45;&gt;Node3 -->
<g id="edge4" class="edge"><title>Node5&#45;&gt;Node3</title>
<path fill="none" stroke="#9a32cd" stroke-dasharray="5,2" d="M124.219,-330.787C169.597,-334.141 235.432,-339.009 280.335,-342.328"/>
<polygon fill="#9a32cd" stroke="#9a32cd" points="124.237,-327.279 114.007,-330.032 123.721,-334.259 124.237,-327.279"/>
<text text-anchor="middle" x="198" y="-342" font-family="Helvetica,sans-Serif" font-size="10.00"> myStateTypes</text>
</g>
<!-- Node6 -->
<g id="node6" class="node"><title>Node6</title>
<polygon fill="white" stroke="#bfbfbf" points="27.5,-118.5 27.5,-137.5 116.5,-137.5 116.5,-118.5 27.5,-118.5"/>
<text text-anchor="middle" x="72" y="-125.5" font-family="Helvetica,sans-Serif" font-size="10.00">List&lt; Integer &gt;</text>
</g>
<!-- Node6&#45;&gt;Node3 -->
<g id="edge5" class="edge"><title>Node6&#45;&gt;Node3</title>
<path fill="none" stroke="#9a32cd" stroke-dasharray="5,2" d="M90.832,-144.687C122.566,-174.19 191.226,-237.152 252,-287 274.187,-305.198 301.073,-325.081 316.785,-336.494"/>
<polygon fill="#9a32cd" stroke="#9a32cd" points="92.9429,-141.87 83.2411,-137.612 88.1704,-146.991 92.9429,-141.87"/>
<text text-anchor="middle" x="198" y="-274" font-family="Helvetica,sans-Serif" font-size="10.00"> paramList</text>
</g>
<!-- Node6&#45;&gt;Node11 -->
<g id="edge16" class="edge"><title>Node6&#45;&gt;Node11</title>
<path fill="none" stroke="#9a32cd" stroke-dasharray="5,2" d="M90.8832,-111.714C130.678,-77.2334 230.879,-0 330,-0 330,-0 330,-0 845,-0 951.533,-0 1028.12,-137.991 1047.31,-176.262"/>
<polygon fill="#9a32cd" stroke="#9a32cd" points="88.5122,-109.138 83.3304,-118.379 93.1441,-114.386 88.5122,-109.138"/>
<text text-anchor="middle" x="596" y="-3" font-family="Helvetica,sans-Serif" font-size="10.00"> myParamList</text>
</g>
<!-- Node7&#45;&gt;Node1 -->
<g id="edge6" class="edge"><title>Node7&#45;&gt;Node1</title>
<path fill="none" stroke="#9a32cd" stroke-dasharray="5,2" d="M647.329,-311.404C657.289,-315.862 666.858,-321.883 674,-330 694.936,-353.793 671.157,-375.125 692,-399 713.494,-423.622 732.584,-409.207 760,-427 791.205,-447.252 821.109,-480.07 834.962,-496.29"/>
<polygon fill="#9a32cd" stroke="#9a32cd" points="648.312,-308.029 637.726,-307.592 645.729,-314.535 648.312,-308.029"/>
<text text-anchor="middle" x="726" y="-430" font-family="Helvetica,sans-Serif" font-size="10.00"> grid</text>
</g>
<!-- Node7&#45;&gt;Node9 -->
<g id="edge17" class="edge"><title>Node7&#45;&gt;Node9</title>
<path fill="none" stroke="#9a32cd" stroke-dasharray="5,2" d="M631.816,-285.919C649.753,-279.244 672.004,-271.064 692,-264 722.082,-253.373 730.17,-252.317 760,-241 781.055,-233.012 804.685,-222.936 821.331,-215.649"/>
<polygon fill="#9a32cd" stroke="#9a32cd" points="630.482,-282.681 622.336,-289.456 632.928,-289.239 630.482,-282.681"/>
<text text-anchor="middle" x="726" y="-267" font-family="Helvetica,sans-Serif" font-size="10.00"> grid</text>
</g>
<!-- Node21 -->
<g id="node21" class="node"><title>Node21</title>
<g id="a_node21"><a xlink:href="../../dd/d38/classcontroller_1_1_grid_edge_rules.html" target="_top" xlink:title="controller.GridEdgeRules">
<polygon fill="white" stroke="black" points="778,-365.5 778,-384.5 910,-384.5 910,-365.5 778,-365.5"/>
<text text-anchor="middle" x="844" y="-372.5" font-family="Helvetica,sans-Serif" font-size="10.00">controller.GridEdgeRules</text>
</a>
</g>
</g>
<!-- Node7&#45;&gt;Node21 -->
<g id="edge28" class="edge"><title>Node7&#45;&gt;Node21</title>
<path fill="none" stroke="#9a32cd" stroke-dasharray="5,2" d="M645.069,-312.323C655.418,-316.76 665.721,-322.541 674,-330 686.703,-341.444 677.682,-354.654 692,-364 716.982,-380.307 749.494,-384.317 777.948,-383.728"/>
<polygon fill="#9a32cd" stroke="#9a32cd" points="646.196,-309.006 635.608,-308.617 643.643,-315.524 646.196,-309.006"/>
<text text-anchor="middle" x="726" y="-387" font-family="Helvetica,sans-Serif" font-size="10.00"> grid</text>
</g>
<!-- Node8 -->
<g id="node8" class="node"><title>Node8</title>
<polygon fill="white" stroke="#bfbfbf" points="311,-220.5 311,-239.5 351,-239.5 351,-220.5 311,-220.5"/>
<text text-anchor="middle" x="331" y="-227.5" font-family="Helvetica,sans-Serif" font-size="10.00">Pane</text>
</g>
<!-- Node8&#45;&gt;Node7 -->
<g id="edge7" class="edge"><title>Node8&#45;&gt;Node7</title>
<path fill="none" stroke="midnightblue" d="M361.352,-230.946C395.685,-232.897 453.717,-238.852 500,-257 508.951,-260.51 509.471,-264.562 518,-269 533.4,-277.013 551.444,-284.153 566.193,-289.455"/>
<polygon fill="midnightblue" stroke="midnightblue" points="361.242,-227.436 351.082,-230.443 360.899,-234.428 361.242,-227.436"/>
</g>
<!-- Node9&#45;&gt;Node7 -->
<g id="edge9" class="edge"><title>Node9&#45;&gt;Node7</title>
<path fill="none" stroke="#9a32cd" stroke-dasharray="5,2" d="M828.204,-223.473C812.949,-240.201 787.561,-264.662 760,-277 720.906,-294.501 671.663,-299.046 637.587,-299.809"/>
<polygon fill="#9a32cd" stroke="#9a32cd" points="831.218,-225.348 835.215,-215.536 825.972,-220.714 831.218,-225.348"/>
<text text-anchor="middle" x="726" y="-298" font-family="Helvetica,sans-Serif" font-size="10.00"> gridArray</text>
</g>
<!-- Node9&#45;&gt;Node11 -->
<g id="edge14" class="edge"><title>Node9&#45;&gt;Node11</title>
<path fill="none" stroke="#9a32cd" stroke-dasharray="5,2" d="M884.967,-193.758C898.495,-190.187 913.778,-186.771 928,-185 948.723,-182.419 971.544,-181.938 991.899,-182.335"/>
<polygon fill="#9a32cd" stroke="#9a32cd" points="883.726,-190.469 875.011,-196.494 885.581,-197.219 883.726,-190.469"/>
<text text-anchor="middle" x="951" y="-188" font-family="Helvetica,sans-Serif" font-size="10.00"> myPatch</text>
</g>
<!-- Node10 -->
<g id="node10" class="node"><title>Node10</title>
<polygon fill="white" stroke="#bfbfbf" points="573,-240.5 573,-259.5 619,-259.5 619,-240.5 573,-240.5"/>
<text text-anchor="middle" x="596" y="-247.5" font-family="Helvetica,sans-Serif" font-size="10.00">Group</text>
</g>
<!-- Node10&#45;&gt;Node9 -->
<g id="edge10" class="edge"><title>Node10&#45;&gt;Node9</title>
<path fill="none" stroke="midnightblue" d="M629.194,-244.242C669.96,-236.95 740.768,-224.285 789.663,-215.54"/>
<polygon fill="midnightblue" stroke="midnightblue" points="628.492,-240.812 619.265,-246.018 629.725,-247.702 628.492,-240.812"/>
</g>
<!-- Node11&#45;&gt;Node9 -->
<g id="edge12" class="edge"><title>Node11&#45;&gt;Node9</title>
<path fill="none" stroke="#9a32cd" stroke-dasharray="5,2" d="M983.773,-196.862C980.472,-197.273 977.201,-197.655 974,-198 953.14,-200.247 930.31,-201.919 909.731,-203.138"/>
<polygon fill="#9a32cd" stroke="#9a32cd" points="984.264,-200.328 993.724,-195.556 983.354,-193.387 984.264,-200.328"/>
<text text-anchor="middle" x="951" y="-205" font-family="Helvetica,sans-Serif" font-size="10.00"> myCell</text>
</g>
<!-- Node12 -->
<g id="node12" class="node"><title>Node12</title>
<polygon fill="white" stroke="#bfbfbf" points="812.5,-143.5 812.5,-162.5 875.5,-162.5 875.5,-143.5 812.5,-143.5"/>
<text text-anchor="middle" x="844" y="-150.5" font-family="Helvetica,sans-Serif" font-size="10.00">Rectangle</text>
</g>
<!-- Node12&#45;&gt;Node11 -->
<g id="edge13" class="edge"><title>Node12&#45;&gt;Node11</title>
<path fill="none" stroke="midnightblue" d="M885.768,-159.499C916.127,-164.339 958.048,-171.022 992.196,-176.466"/>
<polygon fill="midnightblue" stroke="midnightblue" points="885.97,-155.987 875.544,-157.869 884.868,-162.9 885.97,-155.987"/>
</g>
<!-- Node13 -->
<g id="node13" class="node"><title>Node13</title>
<polygon fill="white" stroke="#bfbfbf" points="562,-202.5 562,-221.5 630,-221.5 630,-202.5 562,-202.5"/>
<text text-anchor="middle" x="596" y="-209.5" font-family="Helvetica,sans-Serif" font-size="10.00">ImageView</text>
</g>
<!-- Node13&#45;&gt;Node9 -->
<g id="edge18" class="edge"><title>Node13&#45;&gt;Node9</title>
<path fill="none" stroke="#9a32cd" stroke-dasharray="5,2" d="M640.627,-209.283C656.761,-208.389 675.208,-207.497 692,-207 720.301,-206.162 751.597,-205.853 778.325,-205.776"/>
<polygon fill="#9a32cd" stroke="#9a32cd" points="640.183,-205.802 630.398,-209.866 640.581,-212.791 640.183,-205.802"/>
<text text-anchor="middle" x="726" y="-210" font-family="Helvetica,sans-Serif" font-size="10.00"> myView</text>
</g>
<!-- Node14 -->
<g id="node14" class="node"><title>Node14</title>
<g id="a_node14"><a xlink:href="../../df/d37/enumsimulation_objects_1_1_patch_1_1_state.html" target="_top" xlink:title="simulationObjects.Patch.\lState">
<polygon fill="white" stroke="black" points="529,-106 529,-136 663,-136 663,-106 529,-106"/>
<text text-anchor="start" x="537" y="-124" font-family="Helvetica,sans-Serif" font-size="10.00">simulationObjects.Patch.</text>
<text text-anchor="middle" x="596" y="-113" font-family="Helvetica,sans-Serif" font-size="10.00">State</text>
</a>
</g>
</g>
<!-- Node14&#45;&gt;Node9 -->
<g id="edge19" class="edge"><title>Node14&#45;&gt;Node9</title>
<path fill="none" stroke="#9a32cd" stroke-dasharray="5,2" d="M673.272,-121.773C702.144,-125.001 734.23,-132.351 760,-148 771.397,-154.92 767.842,-163.363 778,-172 790.031,-182.229 805.657,-190.526 818.573,-196.362"/>
<polygon fill="#9a32cd" stroke="#9a32cd" points="673.501,-118.279 663.209,-120.796 672.824,-125.246 673.501,-118.279"/>
<text text-anchor="middle" x="726" y="-151" font-family="Helvetica,sans-Serif" font-size="10.00"> myState</text>
</g>
<!-- Node15 -->
<g id="node15" class="node"><title>Node15</title>
<polygon fill="white" stroke="#bfbfbf" points="572.5,-67.5 572.5,-86.5 619.5,-86.5 619.5,-67.5 572.5,-67.5"/>
<text text-anchor="middle" x="596" y="-74.5" font-family="Helvetica,sans-Serif" font-size="10.00">Image</text>
</g>
<!-- Node15&#45;&gt;Node9 -->
<g id="edge20" class="edge"><title>Node15&#45;&gt;Node9</title>
<path fill="none" stroke="#9a32cd" stroke-dasharray="5,2" d="M629.83,-74.3434C666.277,-73.2735 724.617,-77.4318 760,-110 781.112,-129.432 759.831,-149.792 778,-172 787.113,-183.138 800.845,-191.068 813.343,-196.452"/>
<polygon fill="#9a32cd" stroke="#9a32cd" points="629.556,-70.852 619.72,-74.7907 629.865,-77.8452 629.556,-70.852"/>
<text text-anchor="middle" x="726" y="-113" font-family="Helvetica,sans-Serif" font-size="10.00"> image</text>
</g>
<!-- Node16&#45;&gt;Node9 -->
<g id="edge21" class="edge"><title>Node16&#45;&gt;Node9</title>
<path fill="none" stroke="#9a32cd" stroke-dasharray="5,2" d="M683.836,-33.2925C711.484,-36.0118 740.039,-44.296 760,-64 794.632,-98.1856 749.449,-132.594 778,-172 786.145,-183.241 799.137,-191.074 811.373,-196.362"/>
<polygon fill="#9a32cd" stroke="#9a32cd" points="683.943,-29.7908 673.709,-32.5316 683.418,-36.7711 683.943,-29.7908"/>
<text text-anchor="middle" x="726" y="-67" font-family="Helvetica,sans-Serif" font-size="10.00"> myBody</text>
</g>
<!-- Node17 -->
<g id="node17" class="node"><title>Node17</title>
<polygon fill="white" stroke="#bfbfbf" points="304,-67.5 304,-86.5 358,-86.5 358,-67.5 304,-67.5"/>
<text text-anchor="middle" x="331" y="-74.5" font-family="Helvetica,sans-Serif" font-size="10.00">Polygon</text>
</g>
<!-- Node17&#45;&gt;Node16 -->
<g id="edge22" class="edge"><title>Node17&#45;&gt;Node16</title>
<path fill="none" stroke="midnightblue" d="M368.161,-72.2677C402.204,-67.7608 454.603,-60.6908 500,-54 511.646,-52.2836 524.082,-50.3749 535.99,-48.5101"/>
<polygon fill="midnightblue" stroke="midnightblue" points="367.669,-68.8021 358.213,-73.5808 368.585,-75.7419 367.669,-68.8021"/>
</g>
<!-- Node18 -->
<g id="node18" class="node"><title>Node18</title>
<polygon fill="white" stroke="#bfbfbf" points="310.5,-29.5 310.5,-48.5 351.5,-48.5 351.5,-29.5 310.5,-29.5"/>
<text text-anchor="middle" x="331" y="-36.5" font-family="Helvetica,sans-Serif" font-size="10.00">Point</text>
</g>
<!-- Node18&#45;&gt;Node16 -->
<g id="edge24" class="edge"><title>Node18&#45;&gt;Node16</title>
<path fill="none" stroke="#9a32cd" stroke-dasharray="5,2" d="M362.1,-39C399.942,-39 466.266,-39 518.484,-39"/>
<polygon fill="#9a32cd" stroke="#9a32cd" points="361.768,-35.5001 351.768,-39 361.768,-42.5001 361.768,-35.5001"/>
<text text-anchor="middle" x="464" y="-42" font-family="Helvetica,sans-Serif" font-size="10.00"> myCenter</text>
</g>
<!-- Node19 -->
<g id="node19" class="node"><title>Node19</title>
<polygon fill="white" stroke="#bfbfbf" points="264.5,-164 264.5,-194 397.5,-194 397.5,-164 264.5,-164"/>
<text text-anchor="start" x="272.5" y="-182" font-family="Helvetica,sans-Serif" font-size="10.00">List&lt; simulationObjects.</text>
<text text-anchor="middle" x="331" y="-171" font-family="Helvetica,sans-Serif" font-size="10.00">Patch &gt;</text>
</g>
<!-- Node19&#45;&gt;Node7 -->
<g id="edge29" class="edge"><title>Node19&#45;&gt;Node7</title>
<path fill="none" stroke="#9a32cd" stroke-dasharray="5,2" d="M407.755,-184.402C439.461,-190.151 474.734,-201.571 500,-224 516.109,-238.301 502.7,-253.837 518,-269 527.885,-278.796 541.333,-285.476 554.226,-289.994"/>
<polygon fill="#9a32cd" stroke="#9a32cd" points="408.039,-180.902 397.603,-182.728 406.9,-187.809 408.039,-180.902"/>
<text text-anchor="middle" x="464" y="-227" font-family="Helvetica,sans-Serif" font-size="10.00"> emptyPatches</text>
</g>
<!-- Node19&#45;&gt;Node9 -->
<g id="edge25" class="edge"><title>Node19&#45;&gt;Node9</title>
<path fill="none" stroke="#9a32cd" stroke-dasharray="5,2" d="M408.066,-176.792C477.452,-175.461 582.762,-175.152 674,-182 712.565,-184.895 755.728,-191.075 788.78,-196.439"/>
<polygon fill="#9a32cd" stroke="#9a32cd" points="407.598,-173.301 397.671,-177.004 407.741,-180.299 407.598,-173.301"/>
<text text-anchor="middle" x="596" y="-185" font-family="Helvetica,sans-Serif" font-size="10.00"> myNeighbors</text>
</g>
<!-- Node20 -->
<g id="node20" class="node"><title>Node20</title>
<polygon fill="white" stroke="#bfbfbf" points="252,-258.5 252,-277.5 410,-277.5 410,-258.5 252,-258.5"/>
<text text-anchor="middle" x="331" y="-265.5" font-family="Helvetica,sans-Serif" font-size="10.00">HashMap&lt; Integer, Integer &gt;</text>
</g>
<!-- Node20&#45;&gt;Node7 -->
<g id="edge26" class="edge"><title>Node20&#45;&gt;Node7</title>
<path fill="none" stroke="#9a32cd" stroke-dasharray="5,2" d="M420.38,-261.045C446.193,-260.602 474.355,-261.673 500,-266 526.341,-270.445 555.13,-281.364 574.031,-289.431"/>
<polygon fill="#9a32cd" stroke="#9a32cd" points="420.146,-257.55 410.236,-261.297 420.32,-264.548 420.146,-257.55"/>
<text text-anchor="middle" x="464" y="-269" font-family="Helvetica,sans-Serif" font-size="10.00"> cellCounts</text>
</g>
<!-- Node21&#45;&gt;Node7 -->
<g id="edge27" class="edge"><title>Node21&#45;&gt;Node7</title>
<path fill="none" stroke="#9a32cd" stroke-dasharray="5,2" d="M802.472,-362.479C753.572,-347.372 672.425,-322.302 628.156,-308.625"/>
<polygon fill="#9a32cd" stroke="#9a32cd" points="801.509,-365.845 812.097,-365.453 803.576,-359.157 801.509,-365.845"/>
<text text-anchor="middle" x="726" y="-352" font-family="Helvetica,sans-Serif" font-size="10.00"> myEdgeRules</text>
</g>
</g>
</svg>
