<?xml version="1.0" encoding="UTF-8" standalone="no"?>
<!DOCTYPE svg PUBLIC "-//W3C//DTD SVG 1.1//EN"
 "http://www.w3.org/Graphics/SVG/1.1/DTD/svg11.dtd">
<!-- Generated by graphviz version 2.36.0 (20140111.2315)
 -->
<!-- Title: simulationObjects.PatchBodyRectangle Pages: 1 -->
<svg width="360pt" height="234pt"
 viewBox="0.00 0.00 360.00 234.00" xmlns="http://www.w3.org/2000/svg" xmlns:xlink="http://www.w3.org/1999/xlink">
<g id="graph0" class="graph" transform="scale(1 1) rotate(0) translate(4 230)">
<title>simulationObjects.PatchBodyRectangle</title>
<polygon fill="white" stroke="none" points="-4,4 -4,-230 356,-230 356,4 -4,4"/>
<!-- Node1 -->
<g id="node1" class="node"><title>Node1</title>
<polygon fill="#bfbfbf" stroke="black" points="125.5,-1 125.5,-31 280.5,-31 280.5,-1 125.5,-1"/>
<text text-anchor="start" x="133.5" y="-19" font-family="Helvetica,sans-Serif" font-size="10.00">simulationObjects.PatchBody</text>
<text text-anchor="middle" x="203" y="-8" font-family="Helvetica,sans-Serif" font-size="10.00">Rectangle</text>
</g>
<!-- Node2 -->
<g id="node2" class="node"><title>Node2</title>
<g id="a_node2"><a xlink:href="../../d0/d1a/classsimulation_objects_1_1_patch_body.html" target="_top" xlink:title="simulationObjects.PatchBody">
<polygon fill="white" stroke="black" points="125.5,-70.5 125.5,-89.5 280.5,-89.5 280.5,-70.5 125.5,-70.5"/>
<text text-anchor="middle" x="203" y="-77.5" font-family="Helvetica,sans-Serif" font-size="10.00">simulationObjects.PatchBody</text>
</a>
</g>
</g>
<!-- Node2&#45;&gt;Node1 -->
<g id="edge1" class="edge"><title>Node2&#45;&gt;Node1</title>
<path fill="none" stroke="midnightblue" d="M203,-60.1826C203,-50.8859 203,-39.8507 203,-31.263"/>
<polygon fill="midnightblue" stroke="midnightblue" points="199.5,-60.3791 203,-70.3792 206.5,-60.3792 199.5,-60.3791"/>
</g>
<!-- Node3 -->
<g id="node3" class="node"><title>Node3</title>
<polygon fill="white" stroke="#bfbfbf" points="80,-138.5 80,-157.5 134,-157.5 134,-138.5 80,-138.5"/>
<text text-anchor="middle" x="107" y="-145.5" font-family="Helvetica,sans-Serif" font-size="10.00">Polygon</text>
</g>
<!-- Node3&#45;&gt;Node2 -->
<g id="edge2" class="edge"><title>Node3&#45;&gt;Node2</title>
<path fill="none" stroke="midnightblue" d="M127.897,-132.634C146.979,-119.515 174.562,-100.551 190.447,-89.6305"/>
<polygon fill="midnightblue" stroke="midnightblue" points="125.808,-129.822 119.55,-138.372 129.774,-135.59 125.808,-129.822"/>
</g>
<!-- Node4 -->
<g id="node4" class="node"><title>Node4</title>
<g id="a_node4"><a xlink:href="../../de/d7a/classcontroller_1_1_grid_info.html" target="_top" xlink:title="controller.GridInfo">
<polygon fill="white" stroke="black" points="152.5,-138.5 152.5,-157.5 253.5,-157.5 253.5,-138.5 152.5,-138.5"/>
<text text-anchor="middle" x="203" y="-145.5" font-family="Helvetica,sans-Serif" font-size="10.00">controller.GridInfo</text>
</a>
</g>
</g>
<!-- Node4&#45;&gt;Node2 -->
<g id="edge3" class="edge"><title>Node4&#45;&gt;Node2</title>
<path fill="none" stroke="#9a32cd" stroke-dasharray="5,2" d="M203,-128.041C203,-115.472 203,-99.5631 203,-89.8411"/>
<polygon fill="#9a32cd" stroke="#9a32cd" points="199.5,-128.372 203,-138.372 206.5,-128.372 199.5,-128.372"/>
<text text-anchor="middle" x="227.5" y="-111.5" font-family="Helvetica,sans-Serif" font-size="10.00"> infoSheet</text>
</g>
<!-- Node5 -->
<g id="node5" class="node"><title>Node5</title>
<polygon fill="white" stroke="#bfbfbf" points="-0.5,-206.5 -0.5,-225.5 142.5,-225.5 142.5,-206.5 -0.5,-206.5"/>
<text text-anchor="middle" x="71" y="-213.5" font-family="Helvetica,sans-Serif" font-size="10.00">HashMap&lt; String, Color &gt;</text>
</g>
<!-- Node5&#45;&gt;Node4 -->
<g id="edge4" class="edge"><title>Node5&#45;&gt;Node4</title>
<path fill="none" stroke="#9a32cd" stroke-dasharray="5,2" d="M94.5591,-201.119C107.995,-193.394 125.248,-183.795 141,-176 154.469,-169.335 169.969,-162.585 182.102,-157.501"/>
<polygon fill="#9a32cd" stroke="#9a32cd" points="92.4195,-198.314 85.5263,-206.36 95.9324,-204.369 92.4195,-198.314"/>
<text text-anchor="middle" x="170" y="-179.5" font-family="Helvetica,sans-Serif" font-size="10.00"> stateColors</text>
</g>
<!-- Node6 -->
<g id="node6" class="node"><title>Node6</title>
<polygon fill="white" stroke="#bfbfbf" points="161,-206.5 161,-225.5 245,-225.5 245,-206.5 161,-206.5"/>
<text text-anchor="middle" x="203" y="-213.5" font-family="Helvetica,sans-Serif" font-size="10.00">List&lt; String &gt;</text>
</g>
<!-- Node6&#45;&gt;Node4 -->
<g id="edge5" class="edge"><title>Node6&#45;&gt;Node4</title>
<path fill="none" stroke="#9a32cd" stroke-dasharray="5,2" d="M203,-196.041C203,-183.472 203,-167.563 203,-157.841"/>
<polygon fill="#9a32cd" stroke="#9a32cd" points="199.5,-196.372 203,-206.372 206.5,-196.372 199.5,-196.372"/>
<text text-anchor="middle" x="238.5" y="-179.5" font-family="Helvetica,sans-Serif" font-size="10.00"> myStateTypes</text>
</g>
<!-- Node7 -->
<g id="node7" class="node"><title>Node7</title>
<polygon fill="white" stroke="#bfbfbf" points="262.5,-206.5 262.5,-225.5 351.5,-225.5 351.5,-206.5 262.5,-206.5"/>
<text text-anchor="middle" x="307" y="-213.5" font-family="Helvetica,sans-Serif" font-size="10.00">List&lt; Integer &gt;</text>
</g>
<!-- Node7&#45;&gt;Node4 -->
<g id="edge6" class="edge"><title>Node7&#45;&gt;Node4</title>
<path fill="none" stroke="#9a32cd" stroke-dasharray="5,2" d="M297.248,-197.586C292.309,-190.08 285.718,-181.728 278,-176 266.776,-167.67 252.735,-161.71 239.846,-157.547"/>
<polygon fill="#9a32cd" stroke="#9a32cd" points="294.403,-199.646 302.581,-206.382 300.389,-196.016 294.403,-199.646"/>
<text text-anchor="middle" x="316" y="-179.5" font-family="Helvetica,sans-Serif" font-size="10.00"> paramList</text>
</g>
<!-- Node8 -->
<g id="node8" class="node"><title>Node8</title>
<polygon fill="white" stroke="#bfbfbf" points="271.5,-138.5 271.5,-157.5 312.5,-157.5 312.5,-138.5 271.5,-138.5"/>
<text text-anchor="middle" x="292" y="-145.5" font-family="Helvetica,sans-Serif" font-size="10.00">Point</text>
</g>
<!-- Node8&#45;&gt;Node2 -->
<g id="edge7" class="edge"><title>Node8&#45;&gt;Node2</title>
<path fill="none" stroke="#9a32cd" stroke-dasharray="5,2" d="M278.955,-130.363C272.569,-122.918 264.447,-114.398 256,-108 246.204,-100.58 234.063,-94.2241 223.874,-89.5464"/>
<polygon fill="#9a32cd" stroke="#9a32cd" points="276.516,-132.908 285.567,-138.416 281.926,-128.466 276.516,-132.908"/>
<text text-anchor="middle" x="295.5" y="-111.5" font-family="Helvetica,sans-Serif" font-size="10.00"> myCenter</text>
</g>
</g>
</svg>
