<?xml version="1.0" encoding="UTF-8" standalone="no"?>
<!DOCTYPE svg PUBLIC "-//W3C//DTD SVG 1.1//EN"
 "http://www.w3.org/Graphics/SVG/1.1/DTD/svg11.dtd">
<!-- Generated by graphviz version 2.36.0 (20140111.2315)
 -->
<!-- Title: simulationObjects.Patch.addCell Pages: 1 -->
<svg width="1896pt" height="340pt"
 viewBox="0.00 0.00 1896.00 340.00" xmlns="http://www.w3.org/2000/svg" xmlns:xlink="http://www.w3.org/1999/xlink">
<g id="graph0" class="graph" transform="scale(1 1) rotate(0) translate(4 336)">
<title>simulationObjects.Patch.addCell</title>
<polygon fill="white" stroke="none" points="-4,4 -4,-336 1892,-336 1892,4 -4,4"/>
<!-- Node1 -->
<g id="node1" class="node"><title>Node1</title>
<polygon fill="#bfbfbf" stroke="black" points="0,-148.5 0,-167.5 170,-167.5 170,-148.5 0,-148.5"/>
<text text-anchor="middle" x="85" y="-155.5" font-family="Helvetica,sans-Serif" font-size="10.00">simulationObjects.Patch.addCell</text>
</g>
<!-- Node2 -->
<g id="node2" class="node"><title>Node2</title>
<g id="a_node2"><a xlink:href="../../d5/da5/classsimulation_objects_1_1_patch.html#a801de23da5dcdf2e6914b939deefe67e" target="_top" xlink:title="simulationObjects.Patch.create\lNewCell">
<polygon fill="white" stroke="black" points="226.5,-302 226.5,-332 391.5,-332 391.5,-302 226.5,-302"/>
<text text-anchor="start" x="234.5" y="-320" font-family="Helvetica,sans-Serif" font-size="10.00">simulationObjects.Patch.create</text>
<text text-anchor="middle" x="309" y="-309" font-family="Helvetica,sans-Serif" font-size="10.00">NewCell</text>
</a>
</g>
</g>
<!-- Node1&#45;&gt;Node2 -->
<g id="edge1" class="edge"><title>Node1&#45;&gt;Node2</title>
<path fill="none" stroke="midnightblue" d="M98.0048,-176.176C117.402,-204.128 158.318,-257.517 206,-287 215.891,-293.116 227.091,-298.038 238.357,-301.984"/>
<polygon fill="midnightblue" stroke="midnightblue" points="100.789,-174.046 92.2728,-167.743 94.9997,-177.981 100.789,-174.046"/>
</g>
<!-- Node6 -->
<g id="node6" class="node"><title>Node6</title>
<g id="a_node6"><a xlink:href="../../db/d32/classcontroller_1_1_main_controller.html#aecc10abc6b55d8b0b4bd152be5c5d3f0" target="_top" xlink:title="controller.MainController.initialize\lSimulationObjects">
<polygon fill="white" stroke="black" points="1118.5,-278 1118.5,-308 1291.5,-308 1291.5,-278 1118.5,-278"/>
<text text-anchor="start" x="1126.5" y="-296" font-family="Helvetica,sans-Serif" font-size="10.00">controller.MainController.initialize</text>
<text text-anchor="middle" x="1205" y="-285" font-family="Helvetica,sans-Serif" font-size="10.00">SimulationObjects</text>
</a>
</g>
</g>
<!-- Node1&#45;&gt;Node6 -->
<g id="edge11" class="edge"><title>Node1&#45;&gt;Node6</title>
<path fill="none" stroke="midnightblue" d="M100.909,-175.016C121.817,-197.523 162.223,-236.29 206,-253 345.348,-306.19 391.846,-273 541,-273 541,-273 541,-273 767,-273 889.086,-273 1030.16,-280.886 1118.23,-286.754"/>
<polygon fill="midnightblue" stroke="midnightblue" points="103.43,-172.585 94.1188,-167.53 98.2454,-177.289 103.43,-172.585"/>
</g>
<!-- Node11 -->
<g id="node11" class="node"><title>Node11</title>
<g id="a_node11"><a xlink:href="../../db/dee/classsimulation_objects_1_1_predator_cell.html#a681bdcb9944d91e15325e477aad1b449" target="_top" xlink:title="simulationObjects.Predator\lCell.leaveEgg">
<polygon fill="white" stroke="black" points="236,-214 236,-244 382,-244 382,-214 236,-214"/>
<text text-anchor="start" x="244" y="-232" font-family="Helvetica,sans-Serif" font-size="10.00">simulationObjects.Predator</text>
<text text-anchor="middle" x="309" y="-221" font-family="Helvetica,sans-Serif" font-size="10.00">Cell.leaveEgg</text>
</a>
</g>
</g>
<!-- Node1&#45;&gt;Node11 -->
<g id="edge12" class="edge"><title>Node1&#45;&gt;Node11</title>
<path fill="none" stroke="midnightblue" d="M117.571,-171.353C141.551,-181.188 175.494,-194.456 206,-204 217.398,-207.566 229.64,-210.943 241.549,-213.996"/>
<polygon fill="midnightblue" stroke="midnightblue" points="118.841,-168.091 108.262,-167.502 116.165,-174.559 118.841,-168.091"/>
</g>
<!-- Node14 -->
<g id="node14" class="node"><title>Node14</title>
<g id="a_node14"><a xlink:href="../../db/d71/classsimulation_objects_1_1_sugar_cell.html#a2bafc48f035b3134c87ad371e3e2364e" target="_top" xlink:title="simulationObjects.SugarCell.makeMove">
<polygon fill="white" stroke="black" points="206,-126.5 206,-145.5 412,-145.5 412,-126.5 206,-126.5"/>
<text text-anchor="middle" x="309" y="-133.5" font-family="Helvetica,sans-Serif" font-size="10.00">simulationObjects.SugarCell.makeMove</text>
</a>
</g>
</g>
<!-- Node1&#45;&gt;Node14 -->
<g id="edge15" class="edge"><title>Node1&#45;&gt;Node14</title>
<path fill="none" stroke="midnightblue" d="M180.225,-148.662C190.714,-147.623 201.406,-146.563 211.917,-145.522"/>
<polygon fill="midnightblue" stroke="midnightblue" points="179.851,-145.182 170.245,-149.651 180.542,-152.148 179.851,-145.182"/>
</g>
<!-- Node17 -->
<g id="node17" class="node"><title>Node17</title>
<g id="a_node17"><a xlink:href="../../db/dee/classsimulation_objects_1_1_predator_cell.html#a7d74aa75e5e49981396b561c6badf01c" target="_top" xlink:title="simulationObjects.Predator\lCell.makeMove">
<polygon fill="white" stroke="black" points="236,-165 236,-195 382,-195 382,-165 236,-165"/>
<text text-anchor="start" x="244" y="-183" font-family="Helvetica,sans-Serif" font-size="10.00">simulationObjects.Predator</text>
<text text-anchor="middle" x="309" y="-172" font-family="Helvetica,sans-Serif" font-size="10.00">Cell.makeMove</text>
</a>
</g>
</g>
<!-- Node1&#45;&gt;Node17 -->
<g id="edge18" class="edge"><title>Node1&#45;&gt;Node17</title>
<path fill="none" stroke="midnightblue" d="M180.199,-167.335C198.8,-169.178 218.045,-171.086 235.779,-172.843"/>
<polygon fill="midnightblue" stroke="midnightblue" points="180.542,-163.852 170.245,-166.349 179.851,-170.818 180.542,-163.852"/>
</g>
<!-- Node18 -->
<g id="node18" class="node"><title>Node18</title>
<g id="a_node18"><a xlink:href="../../da/db6/classsimulation_objects_1_1_life_patch.html#a79181e099fd4d7c9e86b94f20f103395" target="_top" xlink:title="simulationObjects.LifePatch.toggle\lCellState">
<polygon fill="white" stroke="black" points="218.5,-77 218.5,-107 399.5,-107 399.5,-77 218.5,-77"/>
<text text-anchor="start" x="226.5" y="-95" font-family="Helvetica,sans-Serif" font-size="10.00">simulationObjects.LifePatch.toggle</text>
<text text-anchor="middle" x="309" y="-84" font-family="Helvetica,sans-Serif" font-size="10.00">CellState</text>
</a>
</g>
</g>
<!-- Node1&#45;&gt;Node18 -->
<g id="edge20" class="edge"><title>Node1&#45;&gt;Node18</title>
<path fill="none" stroke="midnightblue" d="M121.637,-144.894C145.37,-136.397 177.344,-125.389 206,-117 217.899,-113.517 230.673,-110.12 243.018,-107.009"/>
<polygon fill="midnightblue" stroke="midnightblue" points="120.224,-141.683 112.004,-148.367 122.599,-148.268 120.224,-141.683"/>
</g>
<!-- Node19 -->
<g id="node19" class="node"><title>Node19</title>
<g id="a_node19"><a xlink:href="../../da/db6/classsimulation_objects_1_1_life_patch.html#a13f9f221b6ac960be22ba52095e60738" target="_top" xlink:title="simulationObjects.LifePatch.update">
<polygon fill="white" stroke="black" points="216.5,-38.5 216.5,-57.5 401.5,-57.5 401.5,-38.5 216.5,-38.5"/>
<text text-anchor="middle" x="309" y="-45.5" font-family="Helvetica,sans-Serif" font-size="10.00">simulationObjects.LifePatch.update</text>
</a>
</g>
</g>
<!-- Node1&#45;&gt;Node19 -->
<g id="edge21" class="edge"><title>Node1&#45;&gt;Node19</title>
<path fill="none" stroke="midnightblue" d="M103.053,-141.178C124.962,-120.584 165.069,-86.2079 206,-68 215.81,-63.6359 226.57,-60.2201 237.309,-57.5474"/>
<polygon fill="midnightblue" stroke="midnightblue" points="100.384,-138.888 95.584,-148.333 105.226,-143.943 100.384,-138.888"/>
</g>
<!-- Node20 -->
<g id="node20" class="node"><title>Node20</title>
<g id="a_node20"><a xlink:href="../../db/d5f/classsimulation_objects_1_1_seg_cell.html#a9d7bc36bf15d97456e59afed1a19e460" target="_top" xlink:title="simulationObjects.SegCell.update">
<polygon fill="white" stroke="black" points="220,-0.5 220,-19.5 398,-19.5 398,-0.5 220,-0.5"/>
<text text-anchor="middle" x="309" y="-7.5" font-family="Helvetica,sans-Serif" font-size="10.00">simulationObjects.SegCell.update</text>
</a>
</g>
</g>
<!-- Node1&#45;&gt;Node20 -->
<g id="edge22" class="edge"><title>Node1&#45;&gt;Node20</title>
<path fill="none" stroke="midnightblue" d="M97.3796,-139.648C116.19,-111.005 156.637,-56.1496 206,-29 213.024,-25.137 220.687,-22.043 228.557,-19.5672"/>
<polygon fill="midnightblue" stroke="midnightblue" points="94.2974,-137.971 91.8484,-148.279 100.191,-141.748 94.2974,-137.971"/>
</g>
<!-- Node3 -->
<g id="node3" class="node"><title>Node3</title>
<g id="a_node3"><a xlink:href="../../d5/da5/classsimulation_objects_1_1_patch.html#a982ffbab2f32d5955c2c59b5a89fc4a1" target="_top" xlink:title="simulationObjects.Patch.toggle\lCellState">
<polygon fill="white" stroke="black" points="460,-302 460,-332 624,-332 624,-302 460,-302"/>
<text text-anchor="start" x="468" y="-320" font-family="Helvetica,sans-Serif" font-size="10.00">simulationObjects.Patch.toggle</text>
<text text-anchor="middle" x="542" y="-309" font-family="Helvetica,sans-Serif" font-size="10.00">CellState</text>
</a>
</g>
</g>
<!-- Node2&#45;&gt;Node3 -->
<g id="edge2" class="edge"><title>Node2&#45;&gt;Node3</title>
<path fill="none" stroke="midnightblue" d="M401.963,-317C421.06,-317 441.052,-317 459.732,-317"/>
<polygon fill="midnightblue" stroke="midnightblue" points="401.767,-313.5 391.767,-317 401.767,-320.5 401.767,-313.5"/>
</g>
<!-- Node4 -->
<g id="node4" class="node"><title>Node4</title>
<g id="a_node4"><a xlink:href="../../db/d32/classcontroller_1_1_main_controller.html#a20c66a59cfde2b9f8ac2b8bf67e3996d" target="_top" xlink:title="controller.MainController.toggle\lCellStateForMouseEvent">
<polygon fill="white" stroke="black" points="683.5,-302 683.5,-332 848.5,-332 848.5,-302 683.5,-302"/>
<text text-anchor="start" x="691.5" y="-320" font-family="Helvetica,sans-Serif" font-size="10.00">controller.MainController.toggle</text>
<text text-anchor="middle" x="766" y="-309" font-family="Helvetica,sans-Serif" font-size="10.00">CellStateForMouseEvent</text>
</a>
</g>
</g>
<!-- Node3&#45;&gt;Node4 -->
<g id="edge3" class="edge"><title>Node3&#45;&gt;Node4</title>
<path fill="none" stroke="midnightblue" d="M634.155,-317C650.465,-317 667.366,-317 683.387,-317"/>
<polygon fill="midnightblue" stroke="midnightblue" points="634.089,-313.5 624.089,-317 634.089,-320.5 634.089,-313.5"/>
</g>
<!-- Node5 -->
<g id="node5" class="node"><title>Node5</title>
<g id="a_node5"><a xlink:href="../../db/d32/classcontroller_1_1_main_controller.html#ad28f21e1510291d95a69a9f488a20d89" target="_top" xlink:title="controller.MainController.createGrid">
<polygon fill="white" stroke="black" points="896.5,-304.5 896.5,-323.5 1081.5,-323.5 1081.5,-304.5 896.5,-304.5"/>
<text text-anchor="middle" x="989" y="-311.5" font-family="Helvetica,sans-Serif" font-size="10.00">controller.MainController.createGrid</text>
</a>
</g>
</g>
<!-- Node4&#45;&gt;Node5 -->
<g id="edge4" class="edge"><title>Node4&#45;&gt;Node5</title>
<path fill="none" stroke="midnightblue" d="M858.934,-315.752C871.266,-315.585 883.915,-315.413 896.243,-315.246"/>
<polygon fill="midnightblue" stroke="midnightblue" points="858.616,-312.256 848.664,-315.891 858.711,-319.255 858.616,-312.256"/>
</g>
<!-- Node5&#45;&gt;Node6 -->
<g id="edge5" class="edge"><title>Node5&#45;&gt;Node6</title>
<path fill="none" stroke="midnightblue" d="M1091.69,-304.021C1100.58,-303.148 1109.52,-302.271 1118.27,-301.413"/>
<polygon fill="midnightblue" stroke="midnightblue" points="1091.3,-300.543 1081.69,-305.003 1091.98,-307.509 1091.3,-300.543"/>
</g>
<!-- Node7 -->
<g id="node7" class="node"><title>Node7</title>
<g id="a_node7"><a xlink:href="../../db/d32/classcontroller_1_1_main_controller.html#a7cfedb8e16c6b9d6394054d03193da82" target="_top" xlink:title="controller.MainController.initialize\lSimulationWithData">
<polygon fill="white" stroke="black" points="1328.5,-278 1328.5,-308 1501.5,-308 1501.5,-278 1328.5,-278"/>
<text text-anchor="start" x="1336.5" y="-296" font-family="Helvetica,sans-Serif" font-size="10.00">controller.MainController.initialize</text>
<text text-anchor="middle" x="1415" y="-285" font-family="Helvetica,sans-Serif" font-size="10.00">SimulationWithData</text>
</a>
</g>
</g>
<!-- Node6&#45;&gt;Node7 -->
<g id="edge6" class="edge"><title>Node6&#45;&gt;Node7</title>
<path fill="none" stroke="midnightblue" d="M1301.59,-293C1310.56,-293 1319.62,-293 1328.49,-293"/>
<polygon fill="midnightblue" stroke="midnightblue" points="1301.5,-289.5 1291.5,-293 1301.5,-296.5 1301.5,-289.5"/>
</g>
<!-- Node8 -->
<g id="node8" class="node"><title>Node8</title>
<g id="a_node8"><a xlink:href="../../db/ddb/classcontroller_1_1_user_interface.html#a9cf1e21253003993661082c9d42926b2" target="_top" xlink:title="controller.UserInterface.make\lBottomPanel">
<polygon fill="white" stroke="black" points="1538,-256 1538,-286 1696,-286 1696,-256 1538,-256"/>
<text text-anchor="start" x="1546" y="-274" font-family="Helvetica,sans-Serif" font-size="10.00">controller.UserInterface.make</text>
<text text-anchor="middle" x="1617" y="-263" font-family="Helvetica,sans-Serif" font-size="10.00">BottomPanel</text>
</a>
</g>
</g>
<!-- Node7&#45;&gt;Node8 -->
<g id="edge7" class="edge"><title>Node7&#45;&gt;Node8</title>
<path fill="none" stroke="midnightblue" d="M1511.85,-282.457C1520.53,-281.502 1529.26,-280.542 1537.76,-279.606"/>
<polygon fill="midnightblue" stroke="midnightblue" points="1511.25,-279.002 1501.69,-283.574 1512.01,-285.96 1511.25,-279.002"/>
</g>
<!-- Node9 -->
<g id="node9" class="node"><title>Node9</title>
<g id="a_node9"><a xlink:href="../../db/ddb/classcontroller_1_1_user_interface.html#aad62b84bbc23f683c844ace519feb9d2" target="_top" xlink:title="controller.UserInterface.reset">
<polygon fill="white" stroke="black" points="1732,-305.5 1732,-324.5 1888,-324.5 1888,-305.5 1732,-305.5"/>
<text text-anchor="middle" x="1810" y="-312.5" font-family="Helvetica,sans-Serif" font-size="10.00">controller.UserInterface.reset</text>
</a>
</g>
</g>
<!-- Node8&#45;&gt;Node9 -->
<g id="edge8" class="edge"><title>Node8&#45;&gt;Node9</title>
<path fill="none" stroke="midnightblue" d="M1693.18,-288.319C1718.56,-294.165 1745.94,-300.473 1767.71,-305.488"/>
<polygon fill="midnightblue" stroke="midnightblue" points="1693.73,-284.854 1683.2,-286.019 1692.16,-291.675 1693.73,-284.854"/>
</g>
<!-- Node10 -->
<g id="node10" class="node"><title>Node10</title>
<g id="a_node10"><a xlink:href="../../db/ddb/classcontroller_1_1_user_interface.html#a6dd740b89d748c372a5ef9959e1bd7c4" target="_top" xlink:title="controller.UserInterface.\lUserInterface">
<polygon fill="white" stroke="black" points="1744.5,-256 1744.5,-286 1875.5,-286 1875.5,-256 1744.5,-256"/>
<text text-anchor="start" x="1752.5" y="-274" font-family="Helvetica,sans-Serif" font-size="10.00">controller.UserInterface.</text>
<text text-anchor="middle" x="1810" y="-263" font-family="Helvetica,sans-Serif" font-size="10.00">UserInterface</text>
</a>
</g>
</g>
<!-- Node8&#45;&gt;Node10 -->
<g id="edge10" class="edge"><title>Node8&#45;&gt;Node10</title>
<path fill="none" stroke="midnightblue" d="M1706.41,-271C1719.17,-271 1732.1,-271 1744.27,-271"/>
<polygon fill="midnightblue" stroke="midnightblue" points="1706.24,-267.5 1696.24,-271 1706.24,-274.5 1706.24,-267.5"/>
</g>
<!-- Node9&#45;&gt;Node7 -->
<g id="edge9" class="edge"><title>Node9&#45;&gt;Node7</title>
<path fill="none" stroke="midnightblue" d="M1721.44,-310.099C1655.94,-306.432 1566.83,-301.443 1501.76,-297.801"/>
<polygon fill="midnightblue" stroke="midnightblue" points="1721.57,-313.611 1731.75,-310.675 1721.96,-306.622 1721.57,-313.611"/>
</g>
<!-- Node12 -->
<g id="node12" class="node"><title>Node12</title>
<g id="a_node12"><a xlink:href="../../db/dee/classsimulation_objects_1_1_predator_cell.html#a0f04c13ccdd5e4845f2e5975ec63952f" target="_top" xlink:title="simulationObjects.Predator\lCell.updateStatesandMakeMoves">
<polygon fill="white" stroke="black" points="454,-192 454,-222 630,-222 630,-192 454,-192"/>
<text text-anchor="start" x="462" y="-210" font-family="Helvetica,sans-Serif" font-size="10.00">simulationObjects.Predator</text>
<text text-anchor="middle" x="542" y="-199" font-family="Helvetica,sans-Serif" font-size="10.00">Cell.updateStatesandMakeMoves</text>
</a>
</g>
</g>
<!-- Node11&#45;&gt;Node12 -->
<g id="edge13" class="edge"><title>Node11&#45;&gt;Node12</title>
<path fill="none" stroke="midnightblue" d="M392.105,-221.18C412.037,-219.282 433.42,-217.246 453.587,-215.325"/>
<polygon fill="midnightblue" stroke="midnightblue" points="391.763,-217.697 382.14,-222.13 392.426,-224.666 391.763,-217.697"/>
</g>
<!-- Node13 -->
<g id="node13" class="node"><title>Node13</title>
<g id="a_node13"><a xlink:href="../../db/dee/classsimulation_objects_1_1_predator_cell.html#a954732c3db3474e874b5023303baa2ed" target="_top" xlink:title="simulationObjects.Predator\lCell.update">
<polygon fill="white" stroke="black" points="693,-192 693,-222 839,-222 839,-192 693,-192"/>
<text text-anchor="start" x="701" y="-210" font-family="Helvetica,sans-Serif" font-size="10.00">simulationObjects.Predator</text>
<text text-anchor="middle" x="766" y="-199" font-family="Helvetica,sans-Serif" font-size="10.00">Cell.update</text>
</a>
</g>
</g>
<!-- Node12&#45;&gt;Node13 -->
<g id="edge14" class="edge"><title>Node12&#45;&gt;Node13</title>
<path fill="none" stroke="midnightblue" d="M640.408,-207C658.024,-207 676.103,-207 692.835,-207"/>
<polygon fill="midnightblue" stroke="midnightblue" points="640.103,-203.5 630.103,-207 640.103,-210.5 640.103,-203.5"/>
</g>
<!-- Node15 -->
<g id="node15" class="node"><title>Node15</title>
<g id="a_node15"><a xlink:href="../../db/d71/classsimulation_objects_1_1_sugar_cell.html#afca541b3cc884269b4f778da83fb149d" target="_top" xlink:title="simulationObjects.SugarCell.update\lStatesandMakeMoves">
<polygon fill="white" stroke="black" points="448,-121 448,-151 636,-151 636,-121 448,-121"/>
<text text-anchor="start" x="456" y="-139" font-family="Helvetica,sans-Serif" font-size="10.00">simulationObjects.SugarCell.update</text>
<text text-anchor="middle" x="542" y="-128" font-family="Helvetica,sans-Serif" font-size="10.00">StatesandMakeMoves</text>
</a>
</g>
</g>
<!-- Node14&#45;&gt;Node15 -->
<g id="edge16" class="edge"><title>Node14&#45;&gt;Node15</title>
<path fill="none" stroke="midnightblue" d="M422.341,-136C430.888,-136 439.458,-136 447.864,-136"/>
<polygon fill="midnightblue" stroke="midnightblue" points="422.329,-132.5 412.329,-136 422.329,-139.5 422.329,-132.5"/>
</g>
<!-- Node16 -->
<g id="node16" class="node"><title>Node16</title>
<g id="a_node16"><a xlink:href="../../db/d71/classsimulation_objects_1_1_sugar_cell.html#a4f3c5edbe0c43ea62d21a9658fbc11c7" target="_top" xlink:title="simulationObjects.SugarCell.update">
<polygon fill="white" stroke="black" points="672,-126.5 672,-145.5 860,-145.5 860,-126.5 672,-126.5"/>
<text text-anchor="middle" x="766" y="-133.5" font-family="Helvetica,sans-Serif" font-size="10.00">simulationObjects.SugarCell.update</text>
</a>
</g>
</g>
<!-- Node15&#45;&gt;Node16 -->
<g id="edge17" class="edge"><title>Node15&#45;&gt;Node16</title>
<path fill="none" stroke="midnightblue" d="M646.425,-136C654.857,-136 663.347,-136 671.7,-136"/>
<polygon fill="midnightblue" stroke="midnightblue" points="646.183,-132.5 636.183,-136 646.183,-139.5 646.183,-132.5"/>
</g>
<!-- Node17&#45;&gt;Node12 -->
<g id="edge19" class="edge"><title>Node17&#45;&gt;Node12</title>
<path fill="none" stroke="midnightblue" d="M392.105,-189.597C412.037,-191.926 433.42,-194.426 453.587,-196.783"/>
<polygon fill="midnightblue" stroke="midnightblue" points="392.478,-186.117 382.14,-188.432 391.666,-193.069 392.478,-186.117"/>
</g>
</g>
</svg>
