<?xml version="1.0" encoding="UTF-8" standalone="no"?>
<!DOCTYPE svg PUBLIC "-//W3C//DTD SVG 1.1//EN"
 "http://www.w3.org/Graphics/SVG/1.1/DTD/svg11.dtd">
<!-- Generated by graphviz version 2.36.0 (20140111.2315)
 -->
<!-- Title: simulationObjects.Patch.initialize Pages: 1 -->
<svg width="1182pt" height="105pt"
 viewBox="0.00 0.00 1182.00 105.00" xmlns="http://www.w3.org/2000/svg" xmlns:xlink="http://www.w3.org/1999/xlink">
<g id="graph0" class="graph" transform="scale(1 1) rotate(0) translate(4 101)">
<title>simulationObjects.Patch.initialize</title>
<polygon fill="white" stroke="none" points="-4,4 -4,-101 1178,-101 1178,4 -4,4"/>
<!-- Node1 -->
<g id="node1" class="node"><title>Node1</title>
<polygon fill="#bfbfbf" stroke="black" points="0.5,-30.5 0.5,-49.5 173.5,-49.5 173.5,-30.5 0.5,-30.5"/>
<text text-anchor="middle" x="87" y="-37.5" font-family="Helvetica,sans-Serif" font-size="10.00">simulationObjects.Patch.initialize</text>
</g>
<!-- Node2 -->
<g id="node2" class="node"><title>Node2</title>
<g id="a_node2"><a xlink:href="../../d6/d7e/classcontroller_1_1_patch_factory.html#a9c96555534f716de7c2f7f984a7531e9" target="_top" xlink:title="controller.PatchFactory.create\lPatch">
<polygon fill="white" stroke="black" points="210.5,-50 210.5,-80 367.5,-80 367.5,-50 210.5,-50"/>
<text text-anchor="start" x="218.5" y="-68" font-family="Helvetica,sans-Serif" font-size="10.00">controller.PatchFactory.create</text>
<text text-anchor="middle" x="289" y="-57" font-family="Helvetica,sans-Serif" font-size="10.00">Patch</text>
</a>
</g>
</g>
<!-- Node1&#45;&gt;Node2 -->
<g id="edge1" class="edge"><title>Node1&#45;&gt;Node2</title>
<path fill="none" stroke="midnightblue" d="M174.202,-50.7752C186.225,-52.2781 198.519,-53.8149 210.372,-55.2965"/>
<polygon fill="midnightblue" stroke="midnightblue" points="174.539,-47.2902 164.182,-49.5227 173.671,-54.2362 174.539,-47.2902"/>
</g>
<!-- Node8 -->
<g id="node8" class="node"><title>Node8</title>
<g id="a_node8"><a xlink:href="../../d5/da5/classsimulation_objects_1_1_patch.html#a74693f755145ad350f1427a550cb8367" target="_top" xlink:title="simulationObjects.Patch.\lPatch">
<polygon fill="white" stroke="black" points="222,-1 222,-31 356,-31 356,-1 222,-1"/>
<text text-anchor="start" x="230" y="-19" font-family="Helvetica,sans-Serif" font-size="10.00">simulationObjects.Patch.</text>
<text text-anchor="middle" x="289" y="-8" font-family="Helvetica,sans-Serif" font-size="10.00">Patch</text>
</a>
</g>
</g>
<!-- Node1&#45;&gt;Node8 -->
<g id="edge8" class="edge"><title>Node1&#45;&gt;Node8</title>
<path fill="none" stroke="midnightblue" d="M177.599,-29.2481C192.525,-27.457 207.763,-25.6285 221.964,-23.9244"/>
<polygon fill="midnightblue" stroke="midnightblue" points="176.844,-25.8135 167.333,-30.4801 177.678,-32.7636 176.844,-25.8135"/>
</g>
<!-- Node3 -->
<g id="node3" class="node"><title>Node3</title>
<g id="a_node3"><a xlink:href="../../db/d32/classcontroller_1_1_main_controller.html#aecc10abc6b55d8b0b4bd152be5c5d3f0" target="_top" xlink:title="controller.MainController.initialize\lSimulationObjects">
<polygon fill="white" stroke="black" points="404.5,-50 404.5,-80 577.5,-80 577.5,-50 404.5,-50"/>
<text text-anchor="start" x="412.5" y="-68" font-family="Helvetica,sans-Serif" font-size="10.00">controller.MainController.initialize</text>
<text text-anchor="middle" x="491" y="-57" font-family="Helvetica,sans-Serif" font-size="10.00">SimulationObjects</text>
</a>
</g>
</g>
<!-- Node2&#45;&gt;Node3 -->
<g id="edge2" class="edge"><title>Node2&#45;&gt;Node3</title>
<path fill="none" stroke="midnightblue" d="M377.895,-65C386.719,-65 395.67,-65 404.469,-65"/>
<polygon fill="midnightblue" stroke="midnightblue" points="377.612,-61.5001 367.611,-65 377.611,-68.5001 377.612,-61.5001"/>
</g>
<!-- Node4 -->
<g id="node4" class="node"><title>Node4</title>
<g id="a_node4"><a xlink:href="../../db/d32/classcontroller_1_1_main_controller.html#a7cfedb8e16c6b9d6394054d03193da82" target="_top" xlink:title="controller.MainController.initialize\lSimulationWithData">
<polygon fill="white" stroke="black" points="614.5,-50 614.5,-80 787.5,-80 787.5,-50 614.5,-50"/>
<text text-anchor="start" x="622.5" y="-68" font-family="Helvetica,sans-Serif" font-size="10.00">controller.MainController.initialize</text>
<text text-anchor="middle" x="701" y="-57" font-family="Helvetica,sans-Serif" font-size="10.00">SimulationWithData</text>
</a>
</g>
</g>
<!-- Node3&#45;&gt;Node4 -->
<g id="edge3" class="edge"><title>Node3&#45;&gt;Node4</title>
<path fill="none" stroke="midnightblue" d="M587.585,-65C596.561,-65 605.62,-65 614.494,-65"/>
<polygon fill="midnightblue" stroke="midnightblue" points="587.502,-61.5001 577.502,-65 587.502,-68.5001 587.502,-61.5001"/>
</g>
<!-- Node5 -->
<g id="node5" class="node"><title>Node5</title>
<g id="a_node5"><a xlink:href="../../db/ddb/classcontroller_1_1_user_interface.html#a9cf1e21253003993661082c9d42926b2" target="_top" xlink:title="controller.UserInterface.make\lBottomPanel">
<polygon fill="white" stroke="black" points="824,-28 824,-58 982,-58 982,-28 824,-28"/>
<text text-anchor="start" x="832" y="-46" font-family="Helvetica,sans-Serif" font-size="10.00">controller.UserInterface.make</text>
<text text-anchor="middle" x="903" y="-35" font-family="Helvetica,sans-Serif" font-size="10.00">BottomPanel</text>
</a>
</g>
</g>
<!-- Node4&#45;&gt;Node5 -->
<g id="edge4" class="edge"><title>Node4&#45;&gt;Node5</title>
<path fill="none" stroke="midnightblue" d="M797.848,-54.4568C806.532,-53.5015 815.257,-52.5417 823.762,-51.6061"/>
<polygon fill="midnightblue" stroke="midnightblue" points="797.246,-51.0018 787.688,-55.5743 798.011,-57.9598 797.246,-51.0018"/>
</g>
<!-- Node6 -->
<g id="node6" class="node"><title>Node6</title>
<g id="a_node6"><a xlink:href="../../db/ddb/classcontroller_1_1_user_interface.html#aad62b84bbc23f683c844ace519feb9d2" target="_top" xlink:title="controller.UserInterface.reset">
<polygon fill="white" stroke="black" points="1018,-77.5 1018,-96.5 1174,-96.5 1174,-77.5 1018,-77.5"/>
<text text-anchor="middle" x="1096" y="-84.5" font-family="Helvetica,sans-Serif" font-size="10.00">controller.UserInterface.reset</text>
</a>
</g>
</g>
<!-- Node5&#45;&gt;Node6 -->
<g id="edge5" class="edge"><title>Node5&#45;&gt;Node6</title>
<path fill="none" stroke="midnightblue" d="M979.179,-60.3187C1004.56,-66.1648 1031.94,-72.4732 1053.71,-77.4876"/>
<polygon fill="midnightblue" stroke="midnightblue" points="979.728,-56.8535 969.197,-58.0192 978.156,-63.6749 979.728,-56.8535"/>
</g>
<!-- Node7 -->
<g id="node7" class="node"><title>Node7</title>
<g id="a_node7"><a xlink:href="../../db/ddb/classcontroller_1_1_user_interface.html#a6dd740b89d748c372a5ef9959e1bd7c4" target="_top" xlink:title="controller.UserInterface.\lUserInterface">
<polygon fill="white" stroke="black" points="1030.5,-28 1030.5,-58 1161.5,-58 1161.5,-28 1030.5,-28"/>
<text text-anchor="start" x="1038.5" y="-46" font-family="Helvetica,sans-Serif" font-size="10.00">controller.UserInterface.</text>
<text text-anchor="middle" x="1096" y="-35" font-family="Helvetica,sans-Serif" font-size="10.00">UserInterface</text>
</a>
</g>
</g>
<!-- Node5&#45;&gt;Node7 -->
<g id="edge7" class="edge"><title>Node5&#45;&gt;Node7</title>
<path fill="none" stroke="midnightblue" d="M992.415,-43C1005.17,-43 1018.1,-43 1030.27,-43"/>
<polygon fill="midnightblue" stroke="midnightblue" points="992.238,-39.5001 982.238,-43 992.238,-46.5001 992.238,-39.5001"/>
</g>
<!-- Node6&#45;&gt;Node4 -->
<g id="edge6" class="edge"><title>Node6&#45;&gt;Node4</title>
<path fill="none" stroke="midnightblue" d="M1007.44,-82.0986C941.942,-78.4318 852.825,-73.4431 787.76,-69.8008"/>
<polygon fill="midnightblue" stroke="midnightblue" points="1007.57,-85.6109 1017.75,-82.6754 1007.96,-78.6218 1007.57,-85.6109"/>
</g>
</g>
</svg>
