<?xml version="1.0" encoding="UTF-8" standalone="no"?>
<!DOCTYPE svg PUBLIC "-//W3C//DTD SVG 1.1//EN"
 "http://www.w3.org/Graphics/SVG/1.1/DTD/svg11.dtd">
<!-- Generated by graphviz version 2.36.0 (20140111.2315)
 -->
<!-- Title: simulationObjects.Patch.getNeighbors Pages: 1 -->
<svg width="564pt" height="77pt"
 viewBox="0.00 0.00 564.00 77.00" xmlns="http://www.w3.org/2000/svg" xmlns:xlink="http://www.w3.org/1999/xlink">
<g id="graph0" class="graph" transform="scale(1 1) rotate(0) translate(4 73)">
<title>simulationObjects.Patch.getNeighbors</title>
<polygon fill="white" stroke="none" points="-4,4 -4,-73 560,-73 560,4 -4,4"/>
<!-- Node1 -->
<g id="node1" class="node"><title>Node1</title>
<polygon fill="#bfbfbf" stroke="black" points="0,-17 0,-47 150,-47 150,-17 0,-17"/>
<text text-anchor="start" x="8" y="-35" font-family="Helvetica,sans-Serif" font-size="10.00">simulationObjects.Patch.get</text>
<text text-anchor="middle" x="75" y="-24" font-family="Helvetica,sans-Serif" font-size="10.00">Neighbors</text>
</g>
<!-- Node2 -->
<g id="node2" class="node"><title>Node2</title>
<g id="a_node2"><a xlink:href="../../d7/d97/classcontroller_1_1_grid.html#a462b2d06aaf343128c4f4534c4304305" target="_top" xlink:title="controller.Grid.getNeighbors\lAround">
<polygon fill="white" stroke="black" points="186.5,-17 186.5,-47 337.5,-47 337.5,-17 186.5,-17"/>
<text text-anchor="start" x="194.5" y="-35" font-family="Helvetica,sans-Serif" font-size="10.00">controller.Grid.getNeighbors</text>
<text text-anchor="middle" x="262" y="-24" font-family="Helvetica,sans-Serif" font-size="10.00">Around</text>
</a>
</g>
</g>
<!-- Node1&#45;&gt;Node2 -->
<g id="edge1" class="edge"><title>Node1&#45;&gt;Node2</title>
<path fill="none" stroke="midnightblue" d="M150.181,-32C158.706,-32 167.448,-32 176.101,-32"/>
<polygon fill="midnightblue" stroke="midnightblue" points="176.199,-35.5001 186.199,-32 176.199,-28.5001 176.199,-35.5001"/>
</g>
<!-- Node3 -->
<g id="node3" class="node"><title>Node3</title>
<g id="a_node3"><a xlink:href="../../dd/d38/classcontroller_1_1_grid_edge_rules.html#aedf4c70e84eba8d2becdf3dd6c6745e8" target="_top" xlink:title="controller.GridEdgeRules.apply\lRulesAndGetNeighbors">
<polygon fill="white" stroke="black" points="384.5,-39 384.5,-69 545.5,-69 545.5,-39 384.5,-39"/>
<text text-anchor="start" x="392.5" y="-57" font-family="Helvetica,sans-Serif" font-size="10.00">controller.GridEdgeRules.apply</text>
<text text-anchor="middle" x="465" y="-46" font-family="Helvetica,sans-Serif" font-size="10.00">RulesAndGetNeighbors</text>
</a>
</g>
</g>
<!-- Node2&#45;&gt;Node3 -->
<g id="edge2" class="edge"><title>Node2&#45;&gt;Node3</title>
<path fill="none" stroke="midnightblue" d="M337.559,-40.1607C349.43,-41.46 361.819,-42.816 374,-44.1492"/>
<polygon fill="midnightblue" stroke="midnightblue" points="373.846,-47.6532 384.167,-45.2621 374.607,-40.6947 373.846,-47.6532"/>
</g>
<!-- Node4 -->
<g id="node4" class="node"><title>Node4</title>
<g id="a_node4"><a xlink:href="../../de/d7a/classcontroller_1_1_grid_info.html#aef08f2c5d0e8914e1bb285490a144ec5" target="_top" xlink:title="controller.GridInfo.getAdjacentType">
<polygon fill="white" stroke="black" points="374,-0.5 374,-19.5 556,-19.5 556,-0.5 374,-0.5"/>
<text text-anchor="middle" x="465" y="-7.5" font-family="Helvetica,sans-Serif" font-size="10.00">controller.GridInfo.getAdjacentType</text>
</a>
</g>
</g>
<!-- Node2&#45;&gt;Node4 -->
<g id="edge3" class="edge"><title>Node2&#45;&gt;Node4</title>
<path fill="none" stroke="midnightblue" d="M337.559,-23.8393C347.095,-22.7956 356.965,-21.7152 366.794,-20.6395"/>
<polygon fill="midnightblue" stroke="midnightblue" points="367.445,-24.0892 377.005,-19.5219 366.683,-17.1308 367.445,-24.0892"/>
</g>
</g>
</svg>
