<?xml version="1.0" encoding="UTF-8" standalone="no"?>
<!DOCTYPE svg PUBLIC "-//W3C//DTD SVG 1.1//EN"
 "http://www.w3.org/Graphics/SVG/1.1/DTD/svg11.dtd">
<!-- Generated by graphviz version 2.36.0 (20140111.2315)
 -->
<!-- Title: simulationObjects.Patch.getCell Pages: 1 -->
<svg width="1542pt" height="126pt"
 viewBox="0.00 0.00 1542.00 126.00" xmlns="http://www.w3.org/2000/svg" xmlns:xlink="http://www.w3.org/1999/xlink">
<g id="graph0" class="graph" transform="scale(1 1) rotate(0) translate(4 122)">
<title>simulationObjects.Patch.getCell</title>
<polygon fill="white" stroke="none" points="-4,4 -4,-122 1538,-122 1538,4 -4,4"/>
<!-- Node1 -->
<g id="node1" class="node"><title>Node1</title>
<polygon fill="#bfbfbf" stroke="black" points="0.5,-29.5 0.5,-48.5 167.5,-48.5 167.5,-29.5 0.5,-29.5"/>
<text text-anchor="middle" x="84" y="-36.5" font-family="Helvetica,sans-Serif" font-size="10.00">simulationObjects.Patch.getCell</text>
</g>
<!-- Node2 -->
<g id="node2" class="node"><title>Node2</title>
<g id="a_node2"><a xlink:href="../../d7/d97/classcontroller_1_1_grid.html#a5a41921f2cae7b1f0097fce7374aab38" target="_top" xlink:title="controller.Grid.countCell\lInPatch">
<polygon fill="white" stroke="black" points="214.5,-49 214.5,-79 345.5,-79 345.5,-49 214.5,-49"/>
<text text-anchor="start" x="222.5" y="-67" font-family="Helvetica,sans-Serif" font-size="10.00">controller.Grid.countCell</text>
<text text-anchor="middle" x="280" y="-56" font-family="Helvetica,sans-Serif" font-size="10.00">InPatch</text>
</a>
</g>
</g>
<!-- Node1&#45;&gt;Node2 -->
<g id="edge1" class="edge"><title>Node1&#45;&gt;Node2</title>
<path fill="none" stroke="midnightblue" d="M169.239,-49.8556C184.301,-51.7966 199.781,-53.7914 214.192,-55.6485"/>
<polygon fill="midnightblue" stroke="midnightblue" points="169.262,-46.3296 158.897,-48.5227 168.367,-53.2722 169.262,-46.3296"/>
</g>
<!-- Node10 -->
<g id="node10" class="node"><title>Node10</title>
<g id="a_node10"><a xlink:href="../../db/d5f/classsimulation_objects_1_1_seg_cell.html#afd4f85d8f558e742758c119c8c4d30a4" target="_top" xlink:title="simulationObjects.SegCell.is\lSatisfied">
<polygon fill="white" stroke="black" points="204,-0 204,-30 356,-30 356,-0 204,-0"/>
<text text-anchor="start" x="212" y="-18" font-family="Helvetica,sans-Serif" font-size="10.00">simulationObjects.SegCell.is</text>
<text text-anchor="middle" x="280" y="-7" font-family="Helvetica,sans-Serif" font-size="10.00">Satisfied</text>
</a>
</g>
</g>
<!-- Node1&#45;&gt;Node10 -->
<g id="edge10" class="edge"><title>Node1&#45;&gt;Node10</title>
<path fill="none" stroke="midnightblue" d="M172.027,-28.2338C182.603,-26.9254 193.339,-25.5973 203.724,-24.3124"/>
<polygon fill="midnightblue" stroke="midnightblue" points="171.447,-24.7787 161.953,-29.4801 172.307,-31.7258 171.447,-24.7787"/>
</g>
<!-- Node3 -->
<g id="node3" class="node"><title>Node3</title>
<g id="a_node3"><a xlink:href="../../d7/d97/classcontroller_1_1_grid.html#a2cbf0a87e05ced6bd01a6ca01542b948" target="_top" xlink:title="controller.Grid.updateAll\lPatches">
<polygon fill="white" stroke="black" points="415.5,-49 415.5,-79 546.5,-79 546.5,-49 415.5,-49"/>
<text text-anchor="start" x="423.5" y="-67" font-family="Helvetica,sans-Serif" font-size="10.00">controller.Grid.updateAll</text>
<text text-anchor="middle" x="481" y="-56" font-family="Helvetica,sans-Serif" font-size="10.00">Patches</text>
</a>
</g>
</g>
<!-- Node2&#45;&gt;Node3 -->
<g id="edge2" class="edge"><title>Node2&#45;&gt;Node3</title>
<path fill="none" stroke="midnightblue" d="M355.726,-64C375.344,-64 396.334,-64 415.374,-64"/>
<polygon fill="midnightblue" stroke="midnightblue" points="355.61,-60.5001 345.61,-64 355.61,-67.5001 355.61,-60.5001"/>
</g>
<!-- Node4 -->
<g id="node4" class="node"><title>Node4</title>
<g id="a_node4"><a xlink:href="../../d7/d97/classcontroller_1_1_grid.html#a9d953304e003d02db9447cd636efce3a" target="_top" xlink:title="controller.Grid.updateGrid">
<polygon fill="white" stroke="black" points="606,-54.5 606,-73.5 746,-73.5 746,-54.5 606,-54.5"/>
<text text-anchor="middle" x="676" y="-61.5" font-family="Helvetica,sans-Serif" font-size="10.00">controller.Grid.updateGrid</text>
</a>
</g>
</g>
<!-- Node3&#45;&gt;Node4 -->
<g id="edge3" class="edge"><title>Node3&#45;&gt;Node4</title>
<path fill="none" stroke="midnightblue" d="M556.975,-64C573.077,-64 590.022,-64 605.89,-64"/>
<polygon fill="midnightblue" stroke="midnightblue" points="556.535,-60.5001 546.535,-64 556.534,-67.5001 556.535,-60.5001"/>
</g>
<!-- Node5 -->
<g id="node5" class="node"><title>Node5</title>
<g id="a_node5"><a xlink:href="../../db/d32/classcontroller_1_1_main_controller.html#a73545baf8abf0781ade4a83269de344e" target="_top" xlink:title="controller.MainController.step\lSimulation">
<polygon fill="white" stroke="black" points="782,-49 782,-79 938,-79 938,-49 782,-49"/>
<text text-anchor="start" x="790" y="-67" font-family="Helvetica,sans-Serif" font-size="10.00">controller.MainController.step</text>
<text text-anchor="middle" x="860" y="-56" font-family="Helvetica,sans-Serif" font-size="10.00">Simulation</text>
</a>
</g>
</g>
<!-- Node4&#45;&gt;Node5 -->
<g id="edge4" class="edge"><title>Node4&#45;&gt;Node5</title>
<path fill="none" stroke="midnightblue" d="M756.29,-64C764.744,-64 773.334,-64 781.764,-64"/>
<polygon fill="midnightblue" stroke="midnightblue" points="756.066,-60.5001 746.066,-64 756.066,-67.5001 756.066,-60.5001"/>
</g>
<!-- Node6 -->
<g id="node6" class="node"><title>Node6</title>
<g id="a_node6"><a xlink:href="../../db/ddb/classcontroller_1_1_user_interface.html#a9cf1e21253003993661082c9d42926b2" target="_top" xlink:title="controller.UserInterface.make\lBottomPanel">
<polygon fill="white" stroke="black" points="974,-49 974,-79 1132,-79 1132,-49 974,-49"/>
<text text-anchor="start" x="982" y="-67" font-family="Helvetica,sans-Serif" font-size="10.00">controller.UserInterface.make</text>
<text text-anchor="middle" x="1053" y="-56" font-family="Helvetica,sans-Serif" font-size="10.00">BottomPanel</text>
</a>
</g>
</g>
<!-- Node5&#45;&gt;Node6 -->
<g id="edge5" class="edge"><title>Node5&#45;&gt;Node6</title>
<path fill="none" stroke="midnightblue" d="M948.171,-64C956.768,-64 965.456,-64 973.954,-64"/>
<polygon fill="midnightblue" stroke="midnightblue" points="948.136,-60.5001 938.136,-64 948.136,-67.5001 948.136,-60.5001"/>
</g>
<!-- Node7 -->
<g id="node7" class="node"><title>Node7</title>
<g id="a_node7"><a xlink:href="../../db/ddb/classcontroller_1_1_user_interface.html#aad62b84bbc23f683c844ace519feb9d2" target="_top" xlink:title="controller.UserInterface.reset">
<polygon fill="white" stroke="black" points="1168,-98.5 1168,-117.5 1324,-117.5 1324,-98.5 1168,-98.5"/>
<text text-anchor="middle" x="1246" y="-105.5" font-family="Helvetica,sans-Serif" font-size="10.00">controller.UserInterface.reset</text>
</a>
</g>
</g>
<!-- Node6&#45;&gt;Node7 -->
<g id="edge6" class="edge"><title>Node6&#45;&gt;Node7</title>
<path fill="none" stroke="midnightblue" d="M1129.18,-81.3187C1154.56,-87.1648 1181.94,-93.4732 1203.71,-98.4876"/>
<polygon fill="midnightblue" stroke="midnightblue" points="1129.73,-77.8535 1119.2,-79.0192 1128.16,-84.6749 1129.73,-77.8535"/>
</g>
<!-- Node9 -->
<g id="node9" class="node"><title>Node9</title>
<g id="a_node9"><a xlink:href="../../db/ddb/classcontroller_1_1_user_interface.html#a6dd740b89d748c372a5ef9959e1bd7c4" target="_top" xlink:title="controller.UserInterface.\lUserInterface">
<polygon fill="white" stroke="black" points="1180.5,-49 1180.5,-79 1311.5,-79 1311.5,-49 1180.5,-49"/>
<text text-anchor="start" x="1188.5" y="-67" font-family="Helvetica,sans-Serif" font-size="10.00">controller.UserInterface.</text>
<text text-anchor="middle" x="1246" y="-56" font-family="Helvetica,sans-Serif" font-size="10.00">UserInterface</text>
</a>
</g>
</g>
<!-- Node6&#45;&gt;Node9 -->
<g id="edge9" class="edge"><title>Node6&#45;&gt;Node9</title>
<path fill="none" stroke="midnightblue" d="M1142.41,-64C1155.17,-64 1168.1,-64 1180.27,-64"/>
<polygon fill="midnightblue" stroke="midnightblue" points="1142.24,-60.5001 1132.24,-64 1142.24,-67.5001 1142.24,-60.5001"/>
</g>
<!-- Node8 -->
<g id="node8" class="node"><title>Node8</title>
<g id="a_node8"><a xlink:href="../../db/d32/classcontroller_1_1_main_controller.html#a7cfedb8e16c6b9d6394054d03193da82" target="_top" xlink:title="controller.MainController.initialize\lSimulationWithData">
<polygon fill="white" stroke="black" points="1360.5,-49 1360.5,-79 1533.5,-79 1533.5,-49 1360.5,-49"/>
<text text-anchor="start" x="1368.5" y="-67" font-family="Helvetica,sans-Serif" font-size="10.00">controller.MainController.initialize</text>
<text text-anchor="middle" x="1447" y="-56" font-family="Helvetica,sans-Serif" font-size="10.00">SimulationWithData</text>
</a>
</g>
</g>
<!-- Node7&#45;&gt;Node8 -->
<g id="edge7" class="edge"><title>Node7&#45;&gt;Node8</title>
<path fill="none" stroke="midnightblue" d="M1300.11,-96.2576C1323.98,-90.9793 1352.44,-84.686 1377.86,-79.0654"/>
<polygon fill="midnightblue" stroke="midnightblue" points="1299.19,-92.8762 1290.18,-98.4527 1300.7,-99.7111 1299.19,-92.8762"/>
</g>
<!-- Node8&#45;&gt;Node6 -->
<g id="edge8" class="edge"><title>Node8&#45;&gt;Node6</title>
<path fill="none" stroke="midnightblue" d="M1374.78,-46.8901C1358.21,-43.6117 1340.57,-40.6799 1324,-39 1255.02,-32.0051 1236.93,-31.5307 1168,-39 1149.27,-41.03 1129.1,-44.8845 1111.01,-48.9698"/>
<polygon fill="midnightblue" stroke="midnightblue" points="1374.44,-50.393 1384.93,-48.968 1375.84,-43.535 1374.44,-50.393"/>
</g>
<!-- Node11 -->
<g id="node11" class="node"><title>Node11</title>
<g id="a_node11"><a xlink:href="../../db/d5f/classsimulation_objects_1_1_seg_cell.html#a9d7bc36bf15d97456e59afed1a19e460" target="_top" xlink:title="simulationObjects.SegCell.update">
<polygon fill="white" stroke="black" points="392,-5.5 392,-24.5 570,-24.5 570,-5.5 392,-5.5"/>
<text text-anchor="middle" x="481" y="-12.5" font-family="Helvetica,sans-Serif" font-size="10.00">simulationObjects.SegCell.update</text>
</a>
</g>
</g>
<!-- Node10&#45;&gt;Node11 -->
<g id="edge11" class="edge"><title>Node10&#45;&gt;Node11</title>
<path fill="none" stroke="midnightblue" d="M366.453,-15C374.901,-15 383.486,-15 391.96,-15"/>
<polygon fill="midnightblue" stroke="midnightblue" points="366.233,-11.5001 356.233,-15 366.233,-18.5001 366.233,-11.5001"/>
</g>
</g>
</svg>
