<?xml version="1.0" encoding="UTF-8" standalone="no"?>
<!DOCTYPE svg PUBLIC "-//W3C//DTD SVG 1.1//EN"
 "http://www.w3.org/Graphics/SVG/1.1/DTD/svg11.dtd">
<!-- Generated by graphviz version 2.36.0 (20140111.2315)
 -->
<!-- Title: simulationObjects.Patch.toggleCellState Pages: 1 -->
<svg width="1402pt" height="77pt"
 viewBox="0.00 0.00 1402.00 77.00" xmlns="http://www.w3.org/2000/svg" xmlns:xlink="http://www.w3.org/1999/xlink">
<g id="graph0" class="graph" transform="scale(1 1) rotate(0) translate(4 73)">
<title>simulationObjects.Patch.toggleCellState</title>
<polygon fill="white" stroke="none" points="-4,4 -4,-73 1398,-73 1398,4 -4,4"/>
<!-- Node1 -->
<g id="node1" class="node"><title>Node1</title>
<polygon fill="#bfbfbf" stroke="black" points="0,-22 0,-52 164,-52 164,-22 0,-22"/>
<text text-anchor="start" x="8" y="-40" font-family="Helvetica,sans-Serif" font-size="10.00">simulationObjects.Patch.toggle</text>
<text text-anchor="middle" x="82" y="-29" font-family="Helvetica,sans-Serif" font-size="10.00">CellState</text>
</g>
<!-- Node2 -->
<g id="node2" class="node"><title>Node2</title>
<g id="a_node2"><a xlink:href="../../db/d32/classcontroller_1_1_main_controller.html#a20c66a59cfde2b9f8ac2b8bf67e3996d" target="_top" xlink:title="controller.MainController.toggle\lCellStateForMouseEvent">
<polygon fill="white" stroke="black" points="200.5,-22 200.5,-52 365.5,-52 365.5,-22 200.5,-22"/>
<text text-anchor="start" x="208.5" y="-40" font-family="Helvetica,sans-Serif" font-size="10.00">controller.MainController.toggle</text>
<text text-anchor="middle" x="283" y="-29" font-family="Helvetica,sans-Serif" font-size="10.00">CellStateForMouseEvent</text>
</a>
</g>
</g>
<!-- Node1&#45;&gt;Node2 -->
<g id="edge1" class="edge"><title>Node1&#45;&gt;Node2</title>
<path fill="none" stroke="midnightblue" d="M174.364,-37C183.044,-37 191.807,-37 200.387,-37"/>
<polygon fill="midnightblue" stroke="midnightblue" points="174.228,-33.5001 164.228,-37 174.228,-40.5001 174.228,-33.5001"/>
</g>
<!-- Node3 -->
<g id="node3" class="node"><title>Node3</title>
<g id="a_node3"><a xlink:href="../../db/d32/classcontroller_1_1_main_controller.html#ad28f21e1510291d95a69a9f488a20d89" target="_top" xlink:title="controller.MainController.createGrid">
<polygon fill="white" stroke="black" points="402.5,-27.5 402.5,-46.5 587.5,-46.5 587.5,-27.5 402.5,-27.5"/>
<text text-anchor="middle" x="495" y="-34.5" font-family="Helvetica,sans-Serif" font-size="10.00">controller.MainController.createGrid</text>
</a>
</g>
</g>
<!-- Node2&#45;&gt;Node3 -->
<g id="edge2" class="edge"><title>Node2&#45;&gt;Node3</title>
<path fill="none" stroke="midnightblue" d="M375.984,-37C384.726,-37 393.591,-37 402.33,-37"/>
<polygon fill="midnightblue" stroke="midnightblue" points="375.793,-33.5001 365.793,-37 375.793,-40.5001 375.793,-33.5001"/>
</g>
<!-- Node4 -->
<g id="node4" class="node"><title>Node4</title>
<g id="a_node4"><a xlink:href="../../db/d32/classcontroller_1_1_main_controller.html#aecc10abc6b55d8b0b4bd152be5c5d3f0" target="_top" xlink:title="controller.MainController.initialize\lSimulationObjects">
<polygon fill="white" stroke="black" points="624.5,-22 624.5,-52 797.5,-52 797.5,-22 624.5,-22"/>
<text text-anchor="start" x="632.5" y="-40" font-family="Helvetica,sans-Serif" font-size="10.00">controller.MainController.initialize</text>
<text text-anchor="middle" x="711" y="-29" font-family="Helvetica,sans-Serif" font-size="10.00">SimulationObjects</text>
</a>
</g>
</g>
<!-- Node3&#45;&gt;Node4 -->
<g id="edge3" class="edge"><title>Node3&#45;&gt;Node4</title>
<path fill="none" stroke="midnightblue" d="M597.691,-37C606.582,-37 615.522,-37 624.265,-37"/>
<polygon fill="midnightblue" stroke="midnightblue" points="597.687,-33.5001 587.687,-37 597.687,-40.5001 597.687,-33.5001"/>
</g>
<!-- Node5 -->
<g id="node5" class="node"><title>Node5</title>
<g id="a_node5"><a xlink:href="../../db/d32/classcontroller_1_1_main_controller.html#a7cfedb8e16c6b9d6394054d03193da82" target="_top" xlink:title="controller.MainController.initialize\lSimulationWithData">
<polygon fill="white" stroke="black" points="834.5,-22 834.5,-52 1007.5,-52 1007.5,-22 834.5,-22"/>
<text text-anchor="start" x="842.5" y="-40" font-family="Helvetica,sans-Serif" font-size="10.00">controller.MainController.initialize</text>
<text text-anchor="middle" x="921" y="-29" font-family="Helvetica,sans-Serif" font-size="10.00">SimulationWithData</text>
</a>
</g>
</g>
<!-- Node4&#45;&gt;Node5 -->
<g id="edge4" class="edge"><title>Node4&#45;&gt;Node5</title>
<path fill="none" stroke="midnightblue" d="M807.585,-37C816.561,-37 825.62,-37 834.494,-37"/>
<polygon fill="midnightblue" stroke="midnightblue" points="807.502,-33.5001 797.502,-37 807.502,-40.5001 807.502,-33.5001"/>
</g>
<!-- Node6 -->
<g id="node6" class="node"><title>Node6</title>
<g id="a_node6"><a xlink:href="../../db/ddb/classcontroller_1_1_user_interface.html#a9cf1e21253003993661082c9d42926b2" target="_top" xlink:title="controller.UserInterface.make\lBottomPanel">
<polygon fill="white" stroke="black" points="1044,-0 1044,-30 1202,-30 1202,-0 1044,-0"/>
<text text-anchor="start" x="1052" y="-18" font-family="Helvetica,sans-Serif" font-size="10.00">controller.UserInterface.make</text>
<text text-anchor="middle" x="1123" y="-7" font-family="Helvetica,sans-Serif" font-size="10.00">BottomPanel</text>
</a>
</g>
</g>
<!-- Node5&#45;&gt;Node6 -->
<g id="edge5" class="edge"><title>Node5&#45;&gt;Node6</title>
<path fill="none" stroke="midnightblue" d="M1017.85,-26.4568C1026.53,-25.5015 1035.26,-24.5417 1043.76,-23.6061"/>
<polygon fill="midnightblue" stroke="midnightblue" points="1017.25,-23.0018 1007.69,-27.5743 1018.01,-29.9598 1017.25,-23.0018"/>
</g>
<!-- Node7 -->
<g id="node7" class="node"><title>Node7</title>
<g id="a_node7"><a xlink:href="../../db/ddb/classcontroller_1_1_user_interface.html#aad62b84bbc23f683c844ace519feb9d2" target="_top" xlink:title="controller.UserInterface.reset">
<polygon fill="white" stroke="black" points="1238,-49.5 1238,-68.5 1394,-68.5 1394,-49.5 1238,-49.5"/>
<text text-anchor="middle" x="1316" y="-56.5" font-family="Helvetica,sans-Serif" font-size="10.00">controller.UserInterface.reset</text>
</a>
</g>
</g>
<!-- Node6&#45;&gt;Node7 -->
<g id="edge6" class="edge"><title>Node6&#45;&gt;Node7</title>
<path fill="none" stroke="midnightblue" d="M1199.18,-32.3187C1224.56,-38.1648 1251.94,-44.4732 1273.71,-49.4876"/>
<polygon fill="midnightblue" stroke="midnightblue" points="1199.73,-28.8535 1189.2,-30.0192 1198.16,-35.6749 1199.73,-28.8535"/>
</g>
<!-- Node8 -->
<g id="node8" class="node"><title>Node8</title>
<g id="a_node8"><a xlink:href="../../db/ddb/classcontroller_1_1_user_interface.html#a6dd740b89d748c372a5ef9959e1bd7c4" target="_top" xlink:title="controller.UserInterface.\lUserInterface">
<polygon fill="white" stroke="black" points="1250.5,-0 1250.5,-30 1381.5,-30 1381.5,-0 1250.5,-0"/>
<text text-anchor="start" x="1258.5" y="-18" font-family="Helvetica,sans-Serif" font-size="10.00">controller.UserInterface.</text>
<text text-anchor="middle" x="1316" y="-7" font-family="Helvetica,sans-Serif" font-size="10.00">UserInterface</text>
</a>
</g>
</g>
<!-- Node6&#45;&gt;Node8 -->
<g id="edge8" class="edge"><title>Node6&#45;&gt;Node8</title>
<path fill="none" stroke="midnightblue" d="M1212.41,-15C1225.17,-15 1238.1,-15 1250.27,-15"/>
<polygon fill="midnightblue" stroke="midnightblue" points="1212.24,-11.5001 1202.24,-15 1212.24,-18.5001 1212.24,-11.5001"/>
</g>
<!-- Node7&#45;&gt;Node5 -->
<g id="edge7" class="edge"><title>Node7&#45;&gt;Node5</title>
<path fill="none" stroke="midnightblue" d="M1227.44,-54.0986C1161.94,-50.4318 1072.83,-45.4431 1007.76,-41.8008"/>
<polygon fill="midnightblue" stroke="midnightblue" points="1227.57,-57.6109 1237.75,-54.6754 1227.96,-50.6218 1227.57,-57.6109"/>
</g>
</g>
</svg>
