<?xml version="1.0" encoding="UTF-8" standalone="no"?>
<!DOCTYPE svg PUBLIC "-//W3C//DTD SVG 1.1//EN"
 "http://www.w3.org/Graphics/SVG/1.1/DTD/svg11.dtd">
<!-- Generated by graphviz version 2.36.0 (20140111.2315)
 -->
<!-- Title: simulationObjects.Patch.updateCellConstraints Pages: 1 -->
<svg width="2148pt" height="359pt"
 viewBox="0.00 0.00 2148.00 358.84" xmlns="http://www.w3.org/2000/svg" xmlns:xlink="http://www.w3.org/1999/xlink">
<g id="graph0" class="graph" transform="scale(1 1) rotate(0) translate(4 354.84)">
<title>simulationObjects.Patch.updateCellConstraints</title>
<polygon fill="white" stroke="none" points="-4,4 -4,-354.84 2144,-354.84 2144,4 -4,4"/>
<!-- Node1 -->
<g id="node1" class="node"><title>Node1</title>
<polygon fill="#bfbfbf" stroke="black" points="0,-79.8399 0,-109.84 168,-109.84 168,-79.8399 0,-79.8399"/>
<text text-anchor="start" x="8" y="-97.8399" font-family="Helvetica,sans-Serif" font-size="10.00">simulationObjects.Patch.update</text>
<text text-anchor="middle" x="84" y="-86.8399" font-family="Helvetica,sans-Serif" font-size="10.00">CellConstraints</text>
</g>
<!-- Node2 -->
<g id="node2" class="node"><title>Node2</title>
<g id="a_node2"><a xlink:href="../../d5/da5/classsimulation_objects_1_1_patch.html#ac05b7dd86c9f30b498d93d62cbbba9a4" target="_top" xlink:title="simulationObjects.Patch.addCell">
<polygon fill="white" stroke="black" points="228,-145.34 228,-164.34 398,-164.34 398,-145.34 228,-145.34"/>
<text text-anchor="middle" x="313" y="-152.34" font-family="Helvetica,sans-Serif" font-size="10.00">simulationObjects.Patch.addCell</text>
</a>
</g>
</g>
<!-- Node1&#45;&gt;Node2 -->
<g id="edge1" class="edge"><title>Node1&#45;&gt;Node2</title>
<path fill="none" stroke="midnightblue" d="M151.819,-112.501C192.416,-123.232 242.663,-136.513 275.937,-145.308"/>
<polygon fill="midnightblue" stroke="midnightblue" points="152.551,-109.075 141.989,-109.903 150.762,-115.842 152.551,-109.075"/>
</g>
<!-- Node22 -->
<g id="node22" class="node"><title>Node22</title>
<g id="a_node22"><a xlink:href="../../d6/dae/classsimulation_objects_1_1_sugar_patch.html#ad0451478701e5c49026140110dfa290f" target="_top" xlink:title="simulationObjects.SugarPatch.createBody">
<polygon fill="white" stroke="black" points="204,-85.3399 204,-104.34 422,-104.34 422,-85.3399 204,-85.3399"/>
<text text-anchor="middle" x="313" y="-92.3399" font-family="Helvetica,sans-Serif" font-size="10.00">simulationObjects.SugarPatch.createBody</text>
</a>
</g>
</g>
<!-- Node1&#45;&gt;Node22 -->
<g id="edge24" class="edge"><title>Node1&#45;&gt;Node22</title>
<path fill="none" stroke="midnightblue" d="M178.434,-94.8399C186.867,-94.8399 195.452,-94.8399 203.995,-94.8399"/>
<polygon fill="midnightblue" stroke="midnightblue" points="178.237,-91.34 168.237,-94.8399 178.237,-98.34 178.237,-91.34"/>
</g>
<!-- Node23 -->
<g id="node23" class="node"><title>Node23</title>
<g id="a_node23"><a xlink:href="../../d5/da5/classsimulation_objects_1_1_patch.html#a77ec59a5f39498ab6337a9535a6193e0" target="_top" xlink:title="simulationObjects.Patch.createBody">
<polygon fill="white" stroke="black" points="218.5,-3.33989 218.5,-22.3399 407.5,-22.3399 407.5,-3.33989 218.5,-3.33989"/>
<text text-anchor="middle" x="313" y="-10.3399" font-family="Helvetica,sans-Serif" font-size="10.00">simulationObjects.Patch.createBody</text>
</a>
</g>
</g>
<!-- Node1&#45;&gt;Node23 -->
<g id="edge25" class="edge"><title>Node1&#45;&gt;Node23</title>
<path fill="none" stroke="midnightblue" d="M136.207,-76.3422C182.576,-59.5921 249.042,-35.5826 285.523,-22.4043"/>
<polygon fill="midnightblue" stroke="midnightblue" points="134.851,-73.1105 126.635,-79.7998 137.23,-79.6941 134.851,-73.1105"/>
</g>
<!-- Node3 -->
<g id="node3" class="node"><title>Node3</title>
<g id="a_node3"><a xlink:href="../../d5/da5/classsimulation_objects_1_1_patch.html#a801de23da5dcdf2e6914b939deefe67e" target="_top" xlink:title="simulationObjects.Patch.create\lNewCell">
<polygon fill="white" stroke="black" points="478.5,-320.84 478.5,-350.84 643.5,-350.84 643.5,-320.84 478.5,-320.84"/>
<text text-anchor="start" x="486.5" y="-338.84" font-family="Helvetica,sans-Serif" font-size="10.00">simulationObjects.Patch.create</text>
<text text-anchor="middle" x="561" y="-327.84" font-family="Helvetica,sans-Serif" font-size="10.00">NewCell</text>
</a>
</g>
</g>
<!-- Node2&#45;&gt;Node3 -->
<g id="edge2" class="edge"><title>Node2&#45;&gt;Node3</title>
<path fill="none" stroke="midnightblue" d="M326.304,-172.973C348.747,-204.662 399.449,-270.136 458,-305.84 468.007,-311.942 479.326,-316.863 490.689,-320.813"/>
<polygon fill="midnightblue" stroke="midnightblue" points="329.089,-170.847 320.504,-164.638 323.343,-174.845 329.089,-170.847"/>
</g>
<!-- Node7 -->
<g id="node7" class="node"><title>Node7</title>
<g id="a_node7"><a xlink:href="../../db/d32/classcontroller_1_1_main_controller.html#aecc10abc6b55d8b0b4bd152be5c5d3f0" target="_top" xlink:title="controller.MainController.initialize\lSimulationObjects">
<polygon fill="white" stroke="black" points="1370.5,-276.84 1370.5,-306.84 1543.5,-306.84 1543.5,-276.84 1370.5,-276.84"/>
<text text-anchor="start" x="1378.5" y="-294.84" font-family="Helvetica,sans-Serif" font-size="10.00">controller.MainController.initialize</text>
<text text-anchor="middle" x="1457" y="-283.84" font-family="Helvetica,sans-Serif" font-size="10.00">SimulationObjects</text>
</a>
</g>
</g>
<!-- Node2&#45;&gt;Node7 -->
<g id="edge12" class="edge"><title>Node2&#45;&gt;Node7</title>
<path fill="none" stroke="midnightblue" d="M328.626,-172.265C352.495,-199.268 402.739,-250.344 458,-271.84 597.008,-325.912 643.846,-291.84 793,-291.84 793,-291.84 793,-291.84 1019,-291.84 1140.96,-291.84 1282.06,-291.84 1370.18,-291.84"/>
<polygon fill="midnightblue" stroke="midnightblue" points="331.02,-169.684 321.83,-164.412 325.727,-174.264 331.02,-169.684"/>
</g>
<!-- Node12 -->
<g id="node12" class="node"><title>Node12</title>
<g id="a_node12"><a xlink:href="../../db/dee/classsimulation_objects_1_1_predator_cell.html#a681bdcb9944d91e15325e477aad1b449" target="_top" xlink:title="simulationObjects.Predator\lCell.leaveEgg">
<polygon fill="white" stroke="black" points="488,-232.84 488,-262.84 634,-262.84 634,-232.84 488,-232.84"/>
<text text-anchor="start" x="496" y="-250.84" font-family="Helvetica,sans-Serif" font-size="10.00">simulationObjects.Predator</text>
<text text-anchor="middle" x="561" y="-239.84" font-family="Helvetica,sans-Serif" font-size="10.00">Cell.leaveEgg</text>
</a>
</g>
</g>
<!-- Node2&#45;&gt;Node12 -->
<g id="edge13" class="edge"><title>Node2&#45;&gt;Node12</title>
<path fill="none" stroke="midnightblue" d="M340.12,-169.136C368.465,-184.181 415.392,-207.731 458,-222.84 468.396,-226.526 479.576,-229.867 490.587,-232.819"/>
<polygon fill="midnightblue" stroke="midnightblue" points="341.72,-166.023 331.253,-164.385 338.414,-172.193 341.72,-166.023"/>
</g>
<!-- Node15 -->
<g id="node15" class="node"><title>Node15</title>
<g id="a_node15"><a xlink:href="../../db/d71/classsimulation_objects_1_1_sugar_cell.html#a2bafc48f035b3134c87ad371e3e2364e" target="_top" xlink:title="simulationObjects.SugarCell.makeMove">
<polygon fill="white" stroke="black" points="458,-145.34 458,-164.34 664,-164.34 664,-145.34 458,-145.34"/>
<text text-anchor="middle" x="561" y="-152.34" font-family="Helvetica,sans-Serif" font-size="10.00">simulationObjects.SugarCell.makeMove</text>
</a>
</g>
</g>
<!-- Node2&#45;&gt;Node15 -->
<g id="edge16" class="edge"><title>Node2&#45;&gt;Node15</title>
<path fill="none" stroke="midnightblue" d="M408.325,-154.84C424.566,-154.84 441.513,-154.84 457.946,-154.84"/>
<polygon fill="midnightblue" stroke="midnightblue" points="408.315,-151.34 398.315,-154.84 408.315,-158.34 408.315,-151.34"/>
</g>
<!-- Node18 -->
<g id="node18" class="node"><title>Node18</title>
<g id="a_node18"><a xlink:href="../../db/dee/classsimulation_objects_1_1_predator_cell.html#a7d74aa75e5e49981396b561c6badf01c" target="_top" xlink:title="simulationObjects.Predator\lCell.makeMove">
<polygon fill="white" stroke="black" points="488,-183.84 488,-213.84 634,-213.84 634,-183.84 488,-183.84"/>
<text text-anchor="start" x="496" y="-201.84" font-family="Helvetica,sans-Serif" font-size="10.00">simulationObjects.Predator</text>
<text text-anchor="middle" x="561" y="-190.84" font-family="Helvetica,sans-Serif" font-size="10.00">Cell.makeMove</text>
</a>
</g>
</g>
<!-- Node2&#45;&gt;Node18 -->
<g id="edge19" class="edge"><title>Node2&#45;&gt;Node18</title>
<path fill="none" stroke="midnightblue" d="M377.557,-166.208C411.217,-172.228 452.695,-179.647 487.592,-185.889"/>
<polygon fill="midnightblue" stroke="midnightblue" points="377.838,-162.703 367.378,-164.387 376.606,-169.593 377.838,-162.703"/>
</g>
<!-- Node19 -->
<g id="node19" class="node"><title>Node19</title>
<g id="a_node19"><a xlink:href="../../da/db6/classsimulation_objects_1_1_life_patch.html#a79181e099fd4d7c9e86b94f20f103395" target="_top" xlink:title="simulationObjects.LifePatch.toggle\lCellState">
<polygon fill="white" stroke="black" points="470.5,-95.8399 470.5,-125.84 651.5,-125.84 651.5,-95.8399 470.5,-95.8399"/>
<text text-anchor="start" x="478.5" y="-113.84" font-family="Helvetica,sans-Serif" font-size="10.00">simulationObjects.LifePatch.toggle</text>
<text text-anchor="middle" x="561" y="-102.84" font-family="Helvetica,sans-Serif" font-size="10.00">CellState</text>
</a>
</g>
</g>
<!-- Node2&#45;&gt;Node19 -->
<g id="edge21" class="edge"><title>Node2&#45;&gt;Node19</title>
<path fill="none" stroke="midnightblue" d="M377.292,-143.519C407.274,-138.157 443.505,-131.676 475.771,-125.905"/>
<polygon fill="midnightblue" stroke="midnightblue" points="376.606,-140.086 367.378,-145.293 377.838,-146.977 376.606,-140.086"/>
</g>
<!-- Node20 -->
<g id="node20" class="node"><title>Node20</title>
<g id="a_node20"><a xlink:href="../../da/db6/classsimulation_objects_1_1_life_patch.html#a13f9f221b6ac960be22ba52095e60738" target="_top" xlink:title="simulationObjects.LifePatch.update">
<polygon fill="white" stroke="black" points="468.5,-57.3399 468.5,-76.3399 653.5,-76.3399 653.5,-57.3399 468.5,-57.3399"/>
<text text-anchor="middle" x="561" y="-64.3399" font-family="Helvetica,sans-Serif" font-size="10.00">simulationObjects.LifePatch.update</text>
</a>
</g>
</g>
<!-- Node2&#45;&gt;Node20 -->
<g id="edge22" class="edge"><title>Node2&#45;&gt;Node20</title>
<path fill="none" stroke="midnightblue" d="M356.468,-142.001C376.921,-135.006 401.415,-125.407 422,-113.84 439.671,-103.91 439.513,-94.1533 458,-85.8399 466.707,-81.9244 476.181,-78.8158 485.73,-76.3478"/>
<polygon fill="midnightblue" stroke="midnightblue" points="355.169,-138.745 346.786,-145.223 357.38,-145.387 355.169,-138.745"/>
</g>
<!-- Node21 -->
<g id="node21" class="node"><title>Node21</title>
<g id="a_node21"><a xlink:href="../../db/d5f/classsimulation_objects_1_1_seg_cell.html#a9d7bc36bf15d97456e59afed1a19e460" target="_top" xlink:title="simulationObjects.SegCell.update">
<polygon fill="white" stroke="black" points="472,-19.3399 472,-38.3399 650,-38.3399 650,-19.3399 472,-19.3399"/>
<text text-anchor="middle" x="561" y="-26.3399" font-family="Helvetica,sans-Serif" font-size="10.00">simulationObjects.SegCell.update</text>
</a>
</g>
</g>
<!-- Node2&#45;&gt;Node21 -->
<g id="edge23" class="edge"><title>Node2&#45;&gt;Node21</title>
<path fill="none" stroke="midnightblue" d="M369.29,-142.169C387.591,-135.932 407.073,-126.857 422,-113.84 447.183,-91.8797 430.958,-67.4659 458,-47.8399 463.248,-44.031 469.037,-40.9176 475.112,-38.3795"/>
<polygon fill="midnightblue" stroke="midnightblue" points="368.037,-138.895 359.571,-145.264 370.161,-145.565 368.037,-138.895"/>
</g>
<!-- Node4 -->
<g id="node4" class="node"><title>Node4</title>
<g id="a_node4"><a xlink:href="../../d5/da5/classsimulation_objects_1_1_patch.html#a982ffbab2f32d5955c2c59b5a89fc4a1" target="_top" xlink:title="simulationObjects.Patch.toggle\lCellState">
<polygon fill="white" stroke="black" points="712,-320.84 712,-350.84 876,-350.84 876,-320.84 712,-320.84"/>
<text text-anchor="start" x="720" y="-338.84" font-family="Helvetica,sans-Serif" font-size="10.00">simulationObjects.Patch.toggle</text>
<text text-anchor="middle" x="794" y="-327.84" font-family="Helvetica,sans-Serif" font-size="10.00">CellState</text>
</a>
</g>
</g>
<!-- Node3&#45;&gt;Node4 -->
<g id="edge3" class="edge"><title>Node3&#45;&gt;Node4</title>
<path fill="none" stroke="midnightblue" d="M653.963,-335.84C673.06,-335.84 693.052,-335.84 711.732,-335.84"/>
<polygon fill="midnightblue" stroke="midnightblue" points="653.767,-332.34 643.767,-335.84 653.767,-339.34 653.767,-332.34"/>
</g>
<!-- Node5 -->
<g id="node5" class="node"><title>Node5</title>
<g id="a_node5"><a xlink:href="../../db/d32/classcontroller_1_1_main_controller.html#a20c66a59cfde2b9f8ac2b8bf67e3996d" target="_top" xlink:title="controller.MainController.toggle\lCellStateForMouseEvent">
<polygon fill="white" stroke="black" points="935.5,-320.84 935.5,-350.84 1100.5,-350.84 1100.5,-320.84 935.5,-320.84"/>
<text text-anchor="start" x="943.5" y="-338.84" font-family="Helvetica,sans-Serif" font-size="10.00">controller.MainController.toggle</text>
<text text-anchor="middle" x="1018" y="-327.84" font-family="Helvetica,sans-Serif" font-size="10.00">CellStateForMouseEvent</text>
</a>
</g>
</g>
<!-- Node4&#45;&gt;Node5 -->
<g id="edge4" class="edge"><title>Node4&#45;&gt;Node5</title>
<path fill="none" stroke="midnightblue" d="M886.155,-335.84C902.465,-335.84 919.366,-335.84 935.387,-335.84"/>
<polygon fill="midnightblue" stroke="midnightblue" points="886.089,-332.34 876.089,-335.84 886.089,-339.34 886.089,-332.34"/>
</g>
<!-- Node6 -->
<g id="node6" class="node"><title>Node6</title>
<g id="a_node6"><a xlink:href="../../db/d32/classcontroller_1_1_main_controller.html#ad28f21e1510291d95a69a9f488a20d89" target="_top" xlink:title="controller.MainController.createGrid">
<polygon fill="white" stroke="black" points="1148.5,-323.34 1148.5,-342.34 1333.5,-342.34 1333.5,-323.34 1148.5,-323.34"/>
<text text-anchor="middle" x="1241" y="-330.34" font-family="Helvetica,sans-Serif" font-size="10.00">controller.MainController.createGrid</text>
</a>
</g>
</g>
<!-- Node5&#45;&gt;Node6 -->
<g id="edge5" class="edge"><title>Node5&#45;&gt;Node6</title>
<path fill="none" stroke="midnightblue" d="M1110.93,-334.592C1123.27,-334.425 1135.91,-334.253 1148.24,-334.085"/>
<polygon fill="midnightblue" stroke="midnightblue" points="1110.62,-331.096 1100.66,-334.731 1110.71,-338.095 1110.62,-331.096"/>
</g>
<!-- Node6&#45;&gt;Node7 -->
<g id="edge6" class="edge"><title>Node6&#45;&gt;Node7</title>
<path fill="none" stroke="midnightblue" d="M1301.76,-321.391C1325.16,-316.907 1352.34,-311.7 1377.3,-306.918"/>
<polygon fill="midnightblue" stroke="midnightblue" points="1300.8,-318.011 1291.63,-323.331 1302.11,-324.886 1300.8,-318.011"/>
</g>
<!-- Node8 -->
<g id="node8" class="node"><title>Node8</title>
<g id="a_node8"><a xlink:href="../../db/d32/classcontroller_1_1_main_controller.html#a7cfedb8e16c6b9d6394054d03193da82" target="_top" xlink:title="controller.MainController.initialize\lSimulationWithData">
<polygon fill="white" stroke="black" points="1580.5,-276.84 1580.5,-306.84 1753.5,-306.84 1753.5,-276.84 1580.5,-276.84"/>
<text text-anchor="start" x="1588.5" y="-294.84" font-family="Helvetica,sans-Serif" font-size="10.00">controller.MainController.initialize</text>
<text text-anchor="middle" x="1667" y="-283.84" font-family="Helvetica,sans-Serif" font-size="10.00">SimulationWithData</text>
</a>
</g>
</g>
<!-- Node7&#45;&gt;Node8 -->
<g id="edge7" class="edge"><title>Node7&#45;&gt;Node8</title>
<path fill="none" stroke="midnightblue" d="M1553.59,-291.84C1562.56,-291.84 1571.62,-291.84 1580.49,-291.84"/>
<polygon fill="midnightblue" stroke="midnightblue" points="1553.5,-288.34 1543.5,-291.84 1553.5,-295.34 1553.5,-288.34"/>
</g>
<!-- Node9 -->
<g id="node9" class="node"><title>Node9</title>
<g id="a_node9"><a xlink:href="../../db/ddb/classcontroller_1_1_user_interface.html#a9cf1e21253003993661082c9d42926b2" target="_top" xlink:title="controller.UserInterface.make\lBottomPanel">
<polygon fill="white" stroke="black" points="1790,-254.84 1790,-284.84 1948,-284.84 1948,-254.84 1790,-254.84"/>
<text text-anchor="start" x="1798" y="-272.84" font-family="Helvetica,sans-Serif" font-size="10.00">controller.UserInterface.make</text>
<text text-anchor="middle" x="1869" y="-261.84" font-family="Helvetica,sans-Serif" font-size="10.00">BottomPanel</text>
</a>
</g>
</g>
<!-- Node8&#45;&gt;Node9 -->
<g id="edge8" class="edge"><title>Node8&#45;&gt;Node9</title>
<path fill="none" stroke="midnightblue" d="M1763.85,-281.297C1772.53,-280.341 1781.26,-279.382 1789.76,-278.446"/>
<polygon fill="midnightblue" stroke="midnightblue" points="1763.25,-277.842 1753.69,-282.414 1764.01,-284.8 1763.25,-277.842"/>
</g>
<!-- Node10 -->
<g id="node10" class="node"><title>Node10</title>
<g id="a_node10"><a xlink:href="../../db/ddb/classcontroller_1_1_user_interface.html#aad62b84bbc23f683c844ace519feb9d2" target="_top" xlink:title="controller.UserInterface.reset">
<polygon fill="white" stroke="black" points="1984,-304.34 1984,-323.34 2140,-323.34 2140,-304.34 1984,-304.34"/>
<text text-anchor="middle" x="2062" y="-311.34" font-family="Helvetica,sans-Serif" font-size="10.00">controller.UserInterface.reset</text>
</a>
</g>
</g>
<!-- Node9&#45;&gt;Node10 -->
<g id="edge9" class="edge"><title>Node9&#45;&gt;Node10</title>
<path fill="none" stroke="midnightblue" d="M1945.18,-287.159C1970.56,-293.005 1997.94,-299.313 2019.71,-304.327"/>
<polygon fill="midnightblue" stroke="midnightblue" points="1945.73,-283.693 1935.2,-284.859 1944.16,-290.515 1945.73,-283.693"/>
</g>
<!-- Node11 -->
<g id="node11" class="node"><title>Node11</title>
<g id="a_node11"><a xlink:href="../../db/ddb/classcontroller_1_1_user_interface.html#a6dd740b89d748c372a5ef9959e1bd7c4" target="_top" xlink:title="controller.UserInterface.\lUserInterface">
<polygon fill="white" stroke="black" points="1996.5,-254.84 1996.5,-284.84 2127.5,-284.84 2127.5,-254.84 1996.5,-254.84"/>
<text text-anchor="start" x="2004.5" y="-272.84" font-family="Helvetica,sans-Serif" font-size="10.00">controller.UserInterface.</text>
<text text-anchor="middle" x="2062" y="-261.84" font-family="Helvetica,sans-Serif" font-size="10.00">UserInterface</text>
</a>
</g>
</g>
<!-- Node9&#45;&gt;Node11 -->
<g id="edge11" class="edge"><title>Node9&#45;&gt;Node11</title>
<path fill="none" stroke="midnightblue" d="M1958.41,-269.84C1971.17,-269.84 1984.1,-269.84 1996.27,-269.84"/>
<polygon fill="midnightblue" stroke="midnightblue" points="1958.24,-266.34 1948.24,-269.84 1958.24,-273.34 1958.24,-266.34"/>
</g>
<!-- Node10&#45;&gt;Node8 -->
<g id="edge10" class="edge"><title>Node10&#45;&gt;Node8</title>
<path fill="none" stroke="midnightblue" d="M1973.44,-308.939C1907.94,-305.272 1818.83,-300.283 1753.76,-296.641"/>
<polygon fill="midnightblue" stroke="midnightblue" points="1973.57,-312.451 1983.75,-309.515 1973.96,-305.462 1973.57,-312.451"/>
</g>
<!-- Node13 -->
<g id="node13" class="node"><title>Node13</title>
<g id="a_node13"><a xlink:href="../../db/dee/classsimulation_objects_1_1_predator_cell.html#a0f04c13ccdd5e4845f2e5975ec63952f" target="_top" xlink:title="simulationObjects.Predator\lCell.updateStatesandMakeMoves">
<polygon fill="white" stroke="black" points="706,-210.84 706,-240.84 882,-240.84 882,-210.84 706,-210.84"/>
<text text-anchor="start" x="714" y="-228.84" font-family="Helvetica,sans-Serif" font-size="10.00">simulationObjects.Predator</text>
<text text-anchor="middle" x="794" y="-217.84" font-family="Helvetica,sans-Serif" font-size="10.00">Cell.updateStatesandMakeMoves</text>
</a>
</g>
</g>
<!-- Node12&#45;&gt;Node13 -->
<g id="edge14" class="edge"><title>Node12&#45;&gt;Node13</title>
<path fill="none" stroke="midnightblue" d="M644.105,-240.02C664.037,-238.122 685.42,-236.086 705.587,-234.165"/>
<polygon fill="midnightblue" stroke="midnightblue" points="643.763,-236.537 634.14,-240.969 644.426,-243.506 643.763,-236.537"/>
</g>
<!-- Node14 -->
<g id="node14" class="node"><title>Node14</title>
<g id="a_node14"><a xlink:href="../../db/dee/classsimulation_objects_1_1_predator_cell.html#a954732c3db3474e874b5023303baa2ed" target="_top" xlink:title="simulationObjects.Predator\lCell.update">
<polygon fill="white" stroke="black" points="945,-210.84 945,-240.84 1091,-240.84 1091,-210.84 945,-210.84"/>
<text text-anchor="start" x="953" y="-228.84" font-family="Helvetica,sans-Serif" font-size="10.00">simulationObjects.Predator</text>
<text text-anchor="middle" x="1018" y="-217.84" font-family="Helvetica,sans-Serif" font-size="10.00">Cell.update</text>
</a>
</g>
</g>
<!-- Node13&#45;&gt;Node14 -->
<g id="edge15" class="edge"><title>Node13&#45;&gt;Node14</title>
<path fill="none" stroke="midnightblue" d="M892.408,-225.84C910.024,-225.84 928.103,-225.84 944.835,-225.84"/>
<polygon fill="midnightblue" stroke="midnightblue" points="892.103,-222.34 882.103,-225.84 892.103,-229.34 892.103,-222.34"/>
</g>
<!-- Node16 -->
<g id="node16" class="node"><title>Node16</title>
<g id="a_node16"><a xlink:href="../../db/d71/classsimulation_objects_1_1_sugar_cell.html#afca541b3cc884269b4f778da83fb149d" target="_top" xlink:title="simulationObjects.SugarCell.update\lStatesandMakeMoves">
<polygon fill="white" stroke="black" points="700,-139.84 700,-169.84 888,-169.84 888,-139.84 700,-139.84"/>
<text text-anchor="start" x="708" y="-157.84" font-family="Helvetica,sans-Serif" font-size="10.00">simulationObjects.SugarCell.update</text>
<text text-anchor="middle" x="794" y="-146.84" font-family="Helvetica,sans-Serif" font-size="10.00">StatesandMakeMoves</text>
</a>
</g>
</g>
<!-- Node15&#45;&gt;Node16 -->
<g id="edge17" class="edge"><title>Node15&#45;&gt;Node16</title>
<path fill="none" stroke="midnightblue" d="M674.341,-154.84C682.888,-154.84 691.458,-154.84 699.864,-154.84"/>
<polygon fill="midnightblue" stroke="midnightblue" points="674.329,-151.34 664.329,-154.84 674.329,-158.34 674.329,-151.34"/>
</g>
<!-- Node17 -->
<g id="node17" class="node"><title>Node17</title>
<g id="a_node17"><a xlink:href="../../db/d71/classsimulation_objects_1_1_sugar_cell.html#a4f3c5edbe0c43ea62d21a9658fbc11c7" target="_top" xlink:title="simulationObjects.SugarCell.update">
<polygon fill="white" stroke="black" points="924,-145.34 924,-164.34 1112,-164.34 1112,-145.34 924,-145.34"/>
<text text-anchor="middle" x="1018" y="-152.34" font-family="Helvetica,sans-Serif" font-size="10.00">simulationObjects.SugarCell.update</text>
</a>
</g>
</g>
<!-- Node16&#45;&gt;Node17 -->
<g id="edge18" class="edge"><title>Node16&#45;&gt;Node17</title>
<path fill="none" stroke="midnightblue" d="M898.425,-154.84C906.857,-154.84 915.347,-154.84 923.7,-154.84"/>
<polygon fill="midnightblue" stroke="midnightblue" points="898.183,-151.34 888.183,-154.84 898.183,-158.34 898.183,-151.34"/>
</g>
<!-- Node18&#45;&gt;Node13 -->
<g id="edge20" class="edge"><title>Node18&#45;&gt;Node13</title>
<path fill="none" stroke="midnightblue" d="M644.105,-208.437C664.037,-210.766 685.42,-213.266 705.587,-215.623"/>
<polygon fill="midnightblue" stroke="midnightblue" points="644.478,-204.956 634.14,-207.272 643.666,-211.909 644.478,-204.956"/>
</g>
<!-- Node24 -->
<g id="node24" class="node"><title>Node24</title>
<g id="a_node24"><a xlink:href="../../d7/d97/classcontroller_1_1_grid.html#a52256ef1252a18eab8baeb2edef836d8" target="_top" xlink:title="controller.Grid.addPatch\lToGrid">
<polygon fill="white" stroke="black" points="728.5,-33.8399 728.5,-63.8399 859.5,-63.8399 859.5,-33.8399 728.5,-33.8399"/>
<text text-anchor="start" x="736.5" y="-51.8399" font-family="Helvetica,sans-Serif" font-size="10.00">controller.Grid.addPatch</text>
<text text-anchor="middle" x="794" y="-40.8399" font-family="Helvetica,sans-Serif" font-size="10.00">ToGrid</text>
</a>
</g>
</g>
<!-- Node23&#45;&gt;Node24 -->
<g id="edge26" class="edge"><title>Node23&#45;&gt;Node24</title>
<path fill="none" stroke="midnightblue" d="M417.902,-3.56147C487.84,0.632971 581.925,2.29553 664,-9.83989 695.015,-14.4257 728.905,-24.8962 754.163,-33.8344"/>
<polygon fill="midnightblue" stroke="midnightblue" points="417.524,-0.0782021 407.762,-4.19735 417.962,-7.06448 417.524,-0.0782021"/>
</g>
<!-- Node25 -->
<g id="node25" class="node"><title>Node25</title>
<g id="a_node25"><a xlink:href="../../d7/d97/classcontroller_1_1_grid.html#a85b3833ab13642ba27fd7b65ee6a6daa" target="_top" xlink:title="controller.Grid.addPatch\lAtPoint">
<polygon fill="white" stroke="black" points="1175.5,-164.84 1175.5,-194.84 1306.5,-194.84 1306.5,-164.84 1175.5,-164.84"/>
<text text-anchor="start" x="1183.5" y="-182.84" font-family="Helvetica,sans-Serif" font-size="10.00">controller.Grid.addPatch</text>
<text text-anchor="middle" x="1241" y="-171.84" font-family="Helvetica,sans-Serif" font-size="10.00">AtPoint</text>
</a>
</g>
</g>
<!-- Node24&#45;&gt;Node25 -->
<g id="edge27" class="edge"><title>Node24&#45;&gt;Node25</title>
<path fill="none" stroke="midnightblue" d="M864.084,-66.4534C928.546,-83.2064 1027.24,-109.67 1112,-135.84 1141.08,-144.817 1173.49,-155.972 1198.42,-164.803"/>
<polygon fill="midnightblue" stroke="midnightblue" points="864.597,-62.9709 854.039,-63.8495 862.841,-69.747 864.597,-62.9709"/>
</g>
<!-- Node25&#45;&gt;Node7 -->
<g id="edge28" class="edge"><title>Node25&#45;&gt;Node7</title>
<path fill="none" stroke="midnightblue" d="M1279.98,-199.715C1322.13,-221.78 1389.24,-256.898 1427.26,-276.796"/>
<polygon fill="midnightblue" stroke="midnightblue" points="1281.34,-196.481 1270.86,-194.945 1278.1,-202.683 1281.34,-196.481"/>
</g>
</g>
</svg>
