<?xml version="1.0" encoding="UTF-8" standalone="no"?>
<!DOCTYPE svg PUBLIC "-//W3C//DTD SVG 1.1//EN"
 "http://www.w3.org/Graphics/SVG/1.1/DTD/svg11.dtd">
<!-- Generated by graphviz version 2.36.0 (20140111.2315)
 -->
<!-- Title: simulationObjects.Patch.update Pages: 1 -->
<svg width="400pt" height="115pt"
 viewBox="0.00 0.00 400.00 115.00" xmlns="http://www.w3.org/2000/svg" xmlns:xlink="http://www.w3.org/1999/xlink">
<g id="graph0" class="graph" transform="scale(1 1) rotate(0) translate(4 111)">
<title>simulationObjects.Patch.update</title>
<polygon fill="white" stroke="none" points="-4,4 -4,-111 396,-111 396,4 -4,4"/>
<!-- Node1 -->
<g id="node1" class="node"><title>Node1</title>
<polygon fill="#bfbfbf" stroke="black" points="0,-38.5 0,-57.5 168,-57.5 168,-38.5 0,-38.5"/>
<text text-anchor="middle" x="84" y="-45.5" font-family="Helvetica,sans-Serif" font-size="10.00">simulationObjects.Patch.update</text>
</g>
<!-- Node2 -->
<g id="node2" class="node"><title>Node2</title>
<g id="a_node2"><a xlink:href="../../d2/d6e/classsimulation_objects_1_1_cell.html#a7d7b09f9e92254d6b2176e8593ce5c21" target="_top" xlink:title="simulationObjects.Cell.get\lState">
<polygon fill="white" stroke="black" points="227.5,-77 227.5,-107 368.5,-107 368.5,-77 227.5,-77"/>
<text text-anchor="start" x="235.5" y="-95" font-family="Helvetica,sans-Serif" font-size="10.00">simulationObjects.Cell.get</text>
<text text-anchor="middle" x="298" y="-84" font-family="Helvetica,sans-Serif" font-size="10.00">State</text>
</a>
</g>
</g>
<!-- Node1&#45;&gt;Node2 -->
<g id="edge1" class="edge"><title>Node1&#45;&gt;Node2</title>
<path fill="none" stroke="midnightblue" d="M131.001,-57.5473C156.165,-62.7701 188.056,-69.3889 217.144,-75.4262"/>
<polygon fill="midnightblue" stroke="midnightblue" points="216.798,-78.9289 227.301,-77.5342 218.221,-72.075 216.798,-78.9289"/>
</g>
<!-- Node3 -->
<g id="node3" class="node"><title>Node3</title>
<g id="a_node3"><a xlink:href="../../d5/da5/classsimulation_objects_1_1_patch.html#ac18f8e7cdd82ed885a6a92f066da2d38" target="_top" xlink:title="simulationObjects.Patch.removeCell">
<polygon fill="white" stroke="black" points="204,-38.5 204,-57.5 392,-57.5 392,-38.5 204,-38.5"/>
<text text-anchor="middle" x="298" y="-45.5" font-family="Helvetica,sans-Serif" font-size="10.00">simulationObjects.Patch.removeCell</text>
</a>
</g>
</g>
<!-- Node1&#45;&gt;Node3 -->
<g id="edge2" class="edge"><title>Node1&#45;&gt;Node3</title>
<path fill="none" stroke="midnightblue" d="M168.18,-48C176.601,-48 185.223,-48 193.821,-48"/>
<polygon fill="midnightblue" stroke="midnightblue" points="193.89,-51.5001 203.89,-48 193.89,-44.5001 193.89,-51.5001"/>
</g>
<!-- Node4 -->
<g id="node4" class="node"><title>Node4</title>
<g id="a_node4"><a xlink:href="../../d2/d6e/classsimulation_objects_1_1_cell.html#a0c8b76c4b9bec90ddf8016548d9e7474" target="_top" xlink:title="simulationObjects.Cell.update">
<polygon fill="white" stroke="black" points="218.5,-0.5 218.5,-19.5 377.5,-19.5 377.5,-0.5 218.5,-0.5"/>
<text text-anchor="middle" x="298" y="-7.5" font-family="Helvetica,sans-Serif" font-size="10.00">simulationObjects.Cell.update</text>
</a>
</g>
</g>
<!-- Node1&#45;&gt;Node4 -->
<g id="edge3" class="edge"><title>Node1&#45;&gt;Node4</title>
<path fill="none" stroke="midnightblue" d="M138.223,-38.46C167.205,-33.2652 203.253,-26.8037 233.673,-21.3511"/>
<polygon fill="midnightblue" stroke="midnightblue" points="234.53,-24.7534 243.755,-19.5439 233.295,-17.8632 234.53,-24.7534"/>
</g>
</g>
</svg>
