<?xml version="1.0" encoding="UTF-8" standalone="no"?>
<!DOCTYPE svg PUBLIC "-//W3C//DTD SVG 1.1//EN"
 "http://www.w3.org/Graphics/SVG/1.1/DTD/svg11.dtd">
<!-- Generated by graphviz version 2.36.0 (20140111.2315)
 -->
<!-- Title: simulationObjects.Patch.setCellClass Pages: 1 -->
<!--zoomable 77 -->
<svg id="main" version="1.1" xmlns="http://www.w3.org/2000/svg" xmlns:xlink="http://www.w3.org/1999/xlink" xml:space="preserve" onload="init(evt)">
<style type="text/css"><![CDATA[
.edge:hover path { stroke: red; }
.edge:hover polygon { stroke: red; fill: red; }
]]></style>
<script type="text/javascript"><![CDATA[
var edges = document.getElementsByTagName('g');
if (edges && edges.length) {
  for (var i=0;i<edges.length;i++) {
    if (edges[i].id.substr(0,4)=='edge') {
      edges[i].setAttribute('class','edge');
    }
  }
}
]]></script>
        <defs>
                <circle id="rim" cx="0" cy="0" r="7"/>
                <circle id="rim2" cx="0" cy="0" r="3.5"/>
                <g id="zoomPlus">
                        <use xlink:href="#rim" fill="#404040">
                                <set attributeName="fill" to="#808080" begin="zoomplus.mouseover" end="zoomplus.mouseout"/>
                        </use>
                        <path d="M-4,0h8M0,-4v8" fill="none" stroke="white" stroke-width="1.5" pointer-events="none"/>
                </g>
                <g id="zoomMin">
                        <use xlink:href="#rim" fill="#404040">
                                <set attributeName="fill" to="#808080" begin="zoomminus.mouseover" end="zoomminus.mouseout"/>
                        </use>
                        <path d="M-4,0h8" fill="none" stroke="white" stroke-width="1.5" pointer-events="none"/>
                </g>
                <g id="dirArrow">
                        <path fill="none" stroke="white" stroke-width="1.5" d="M0,-3.0v7 M-2.5,-0.5L0,-3.0L2.5,-0.5"/>
                </g>
               <g id="resetDef">
                       <use xlink:href="#rim2" fill="#404040">
                               <set attributeName="fill" to="#808080" begin="reset.mouseover" end="reset.mouseout"/>
                       </use>
               </g>
        </defs>

<script type="text/javascript">
var viewWidth = 964;
var viewHeight = 77;
var sectionId = 'dynsection-20';
</script>
<script xlink:href="../../svgpan.js"/>
<svg id="graph" class="graph">
<g id="viewport">
<title>simulationObjects.Patch.setCellClass</title>
<polygon fill="white" stroke="none" points="-4,4 -4,-73 960,-73 960,4 -4,4"/>
<!-- Node1 -->
<g id="node1" class="node"><title>Node1</title>
<polygon fill="#bfbfbf" stroke="black" points="0.5,-22 0.5,-52 149.5,-52 149.5,-22 0.5,-22"/>
<text text-anchor="start" x="8.5" y="-40" font-family="Helvetica,sans-Serif" font-size="10.00">simulationObjects.Patch.set</text>
<text text-anchor="middle" x="75" y="-29" font-family="Helvetica,sans-Serif" font-size="10.00">CellClass</text>
</g>
<!-- Node2 -->
<g id="node2" class="node"><title>Node2</title>
<g id="a_node2"><a xlink:href="../../db/d32/classcontroller_1_1_main_controller.html#aecc10abc6b55d8b0b4bd152be5c5d3f0" target="_top" xlink:title="controller.MainController.initialize\lSimulationObjects">
<polygon fill="white" stroke="black" points="186.5,-22 186.5,-52 359.5,-52 359.5,-22 186.5,-22"/>
<text text-anchor="start" x="194.5" y="-40" font-family="Helvetica,sans-Serif" font-size="10.00">controller.MainController.initialize</text>
<text text-anchor="middle" x="273" y="-29" font-family="Helvetica,sans-Serif" font-size="10.00">SimulationObjects</text>
</a>
</g>
</g>
<!-- Node1&#45;&gt;Node2 -->
<g id="edge1" class="edge"><title>Node1&#45;&gt;Node2</title>
<path fill="none" stroke="midnightblue" d="M159.728,-37C168.482,-37 177.391,-37 186.167,-37"/>
<polygon fill="midnightblue" stroke="midnightblue" points="159.541,-33.5001 149.541,-37 159.541,-40.5001 159.541,-33.5001"/>
</g>
<!-- Node3 -->
<g id="node3" class="node"><title>Node3</title>
<g id="a_node3"><a xlink:href="../../db/d32/classcontroller_1_1_main_controller.html#a7cfedb8e16c6b9d6394054d03193da82" target="_top" xlink:title="controller.MainController.initialize\lSimulationWithData">
<polygon fill="white" stroke="black" points="396.5,-22 396.5,-52 569.5,-52 569.5,-22 396.5,-22"/>
<text text-anchor="start" x="404.5" y="-40" font-family="Helvetica,sans-Serif" font-size="10.00">controller.MainController.initialize</text>
<text text-anchor="middle" x="483" y="-29" font-family="Helvetica,sans-Serif" font-size="10.00">SimulationWithData</text>
</a>
</g>
</g>
<!-- Node2&#45;&gt;Node3 -->
<g id="edge2" class="edge"><title>Node2&#45;&gt;Node3</title>
<path fill="none" stroke="midnightblue" d="M369.585,-37C378.561,-37 387.62,-37 396.494,-37"/>
<polygon fill="midnightblue" stroke="midnightblue" points="369.502,-33.5001 359.502,-37 369.502,-40.5001 369.502,-33.5001"/>
</g>
<!-- Node4 -->
<g id="node4" class="node"><title>Node4</title>
<g id="a_node4"><a xlink:href="../../db/ddb/classcontroller_1_1_user_interface.html#a9cf1e21253003993661082c9d42926b2" target="_top" xlink:title="controller.UserInterface.make\lBottomPanel">
<polygon fill="white" stroke="black" points="606,-0 606,-30 764,-30 764,-0 606,-0"/>
<text text-anchor="start" x="614" y="-18" font-family="Helvetica,sans-Serif" font-size="10.00">controller.UserInterface.make</text>
<text text-anchor="middle" x="685" y="-7" font-family="Helvetica,sans-Serif" font-size="10.00">BottomPanel</text>
</a>
</g>
</g>
<!-- Node3&#45;&gt;Node4 -->
<g id="edge3" class="edge"><title>Node3&#45;&gt;Node4</title>
<path fill="none" stroke="midnightblue" d="M579.848,-26.4568C588.532,-25.5015 597.257,-24.5417 605.762,-23.6061"/>
<polygon fill="midnightblue" stroke="midnightblue" points="579.246,-23.0018 569.688,-27.5743 580.011,-29.9598 579.246,-23.0018"/>
</g>
<!-- Node5 -->
<g id="node5" class="node"><title>Node5</title>
<g id="a_node5"><a xlink:href="../../db/ddb/classcontroller_1_1_user_interface.html#aad62b84bbc23f683c844ace519feb9d2" target="_top" xlink:title="controller.UserInterface.reset">
<polygon fill="white" stroke="black" points="800,-49.5 800,-68.5 956,-68.5 956,-49.5 800,-49.5"/>
<text text-anchor="middle" x="878" y="-56.5" font-family="Helvetica,sans-Serif" font-size="10.00">controller.UserInterface.reset</text>
</a>
</g>
</g>
<!-- Node4&#45;&gt;Node5 -->
<g id="edge4" class="edge"><title>Node4&#45;&gt;Node5</title>
<path fill="none" stroke="midnightblue" d="M761.179,-32.3187C786.556,-38.1648 813.941,-44.4732 835.707,-49.4876"/>
<polygon fill="midnightblue" stroke="midnightblue" points="761.728,-28.8535 751.197,-30.0192 760.156,-35.6749 761.728,-28.8535"/>
</g>
<!-- Node6 -->
<g id="node6" class="node"><title>Node6</title>
<g id="a_node6"><a xlink:href="../../db/ddb/classcontroller_1_1_user_interface.html#a6dd740b89d748c372a5ef9959e1bd7c4" target="_top" xlink:title="controller.UserInterface.\lUserInterface">
<polygon fill="white" stroke="black" points="812.5,-0 812.5,-30 943.5,-30 943.5,-0 812.5,-0"/>
<text text-anchor="start" x="820.5" y="-18" font-family="Helvetica,sans-Serif" font-size="10.00">controller.UserInterface.</text>
<text text-anchor="middle" x="878" y="-7" font-family="Helvetica,sans-Serif" font-size="10.00">UserInterface</text>
</a>
</g>
</g>
<!-- Node4&#45;&gt;Node6 -->
<g id="edge6" class="edge"><title>Node4&#45;&gt;Node6</title>
<path fill="none" stroke="midnightblue" d="M774.415,-15C787.171,-15 800.097,-15 812.275,-15"/>
<polygon fill="midnightblue" stroke="midnightblue" points="774.238,-11.5001 764.238,-15 774.238,-18.5001 774.238,-11.5001"/>
</g>
<!-- Node5&#45;&gt;Node3 -->
<g id="edge5" class="edge"><title>Node5&#45;&gt;Node3</title>
<path fill="none" stroke="midnightblue" d="M789.444,-54.0986C723.942,-50.4318 634.825,-45.4431 569.76,-41.8008"/>
<polygon fill="midnightblue" stroke="midnightblue" points="789.566,-57.6109 799.747,-54.6754 789.958,-50.6218 789.566,-57.6109"/>
</g>
</g>
</svg>
        <g id="navigator" transform="translate(0 0)" fill="#404254">
                <rect fill="#f2f5e9" fill-opacity="0.5" stroke="#606060" stroke-width=".5" x="0" y="0" width="60" height="60"/>
                <use id="zoomplus" xlink:href="#zoomPlus" x="17" y="9" onmousedown="handleZoom(evt,'in')"/>
                <use id="zoomminus" xlink:href="#zoomMin" x="42" y="9" onmousedown="handleZoom(evt,'out')"/>
                <use id="reset" xlink:href="#resetDef" x="30" y="36" onmousedown="handleReset()"/>
                <g id="arrowUp" xlink:href="#dirArrow" transform="translate(30 24)" onmousedown="handlePan(0,-1)">
                  <use xlink:href="#rim" fill="#404040">
                        <set attributeName="fill" to="#808080" begin="arrowUp.mouseover" end="arrowUp.mouseout"/>
                  </use>
                  <path fill="none" stroke="white" stroke-width="1.5" d="M0,-3.0v7 M-2.5,-0.5L0,-3.0L2.5,-0.5"/>
                </g>
                <g id="arrowRight" xlink:href="#dirArrow" transform="rotate(90) translate(36 -43)" onmousedown="handlePan(1,0)">
                  <use xlink:href="#rim" fill="#404040">
                        <set attributeName="fill" to="#808080" begin="arrowRight.mouseover" end="arrowRight.mouseout"/>
                  </use>
                  <path fill="none" stroke="white" stroke-width="1.5" d="M0,-3.0v7 M-2.5,-0.5L0,-3.0L2.5,-0.5"/>
                </g>
                <g id="arrowDown" xlink:href="#dirArrow" transform="rotate(180) translate(-30 -48)" onmousedown="handlePan(0,1)">
                  <use xlink:href="#rim" fill="#404040">
                        <set attributeName="fill" to="#808080" begin="arrowDown.mouseover" end="arrowDown.mouseout"/>
                  </use>
                  <path fill="none" stroke="white" stroke-width="1.5" d="M0,-3.0v7 M-2.5,-0.5L0,-3.0L2.5,-0.5"/>
                </g>
                <g id="arrowLeft" xlink:href="#dirArrow" transform="rotate(270) translate(-36 17)" onmousedown="handlePan(-1,0)">
                  <use xlink:href="#rim" fill="#404040">
                        <set attributeName="fill" to="#808080" begin="arrowLeft.mouseover" end="arrowLeft.mouseout"/>
                  </use>
                  <path fill="none" stroke="white" stroke-width="1.5" d="M0,-3.0v7 M-2.5,-0.5L0,-3.0L2.5,-0.5"/>
                </g>
        </g>
        <svg viewBox="0 0 15 15" width="100%" height="30px" preserveAspectRatio="xMaxYMin meet">
         <g id="arrow_out" transform="scale(0.3 0.3)">
          <a xlink:href="classsimulation_objects_1_1_patch_a30b3c2b2d40f1e9bf12e0cb325a9388e_icgraph_org.svg" target="_base">
           <rect id="button" ry="5" rx="5" y="6" x="6" height="38" width="38"
                fill="#f2f5e9" fill-opacity="0.5" stroke="#606060" stroke-width="1.0"/>
           <path id="arrow"
             d="M 11.500037,31.436501 C 11.940474,20.09759 22.043105,11.32322 32.158766,21.979434 L 37.068811,17.246167 C 37.068811,17.246167 37.088388,32 37.088388,32 L 22.160133,31.978069 C 22.160133,31.978069 26.997745,27.140456 26.997745,27.140456 C 18.528582,18.264221 13.291696,25.230495 11.500037,31.436501 z"
             style="fill:#404040;"/>
          </a>
         </g>
        </svg>
</svg>
