<?xml version="1.0" encoding="UTF-8" standalone="no"?>
<!DOCTYPE svg PUBLIC "-//W3C//DTD SVG 1.1//EN"
 "http://www.w3.org/Graphics/SVG/1.1/DTD/svg11.dtd">
<!-- Generated by graphviz version 2.36.0 (20140111.2315)
 -->
<!-- Title: simulationObjects.Patch.getGridX Pages: 1 -->
<svg width="1148pt" height="104pt"
 viewBox="0.00 0.00 1148.00 104.00" xmlns="http://www.w3.org/2000/svg" xmlns:xlink="http://www.w3.org/1999/xlink">
<g id="graph0" class="graph" transform="scale(1 1) rotate(0) translate(4 100)">
<title>simulationObjects.Patch.getGridX</title>
<polygon fill="white" stroke="none" points="-4,4 -4,-100 1144,-100 1144,4 -4,4"/>
<!-- Node1 -->
<g id="node1" class="node"><title>Node1</title>
<polygon fill="#bfbfbf" stroke="black" points="0,-24 0,-54 150,-54 150,-24 0,-24"/>
<text text-anchor="start" x="8" y="-42" font-family="Helvetica,sans-Serif" font-size="10.00">simulationObjects.Patch.get</text>
<text text-anchor="middle" x="75" y="-31" font-family="Helvetica,sans-Serif" font-size="10.00">GridX</text>
</g>
<!-- Node2 -->
<g id="node2" class="node"><title>Node2</title>
<g id="a_node2"><a xlink:href="../../d7/d97/classcontroller_1_1_grid.html#a85b3833ab13642ba27fd7b65ee6a6daa" target="_top" xlink:title="controller.Grid.addPatch\lAtPoint">
<polygon fill="white" stroke="black" points="193.5,-49 193.5,-79 324.5,-79 324.5,-49 193.5,-49"/>
<text text-anchor="start" x="201.5" y="-67" font-family="Helvetica,sans-Serif" font-size="10.00">controller.Grid.addPatch</text>
<text text-anchor="middle" x="259" y="-56" font-family="Helvetica,sans-Serif" font-size="10.00">AtPoint</text>
</a>
</g>
</g>
<!-- Node1&#45;&gt;Node2 -->
<g id="edge1" class="edge"><title>Node1&#45;&gt;Node2</title>
<path fill="none" stroke="midnightblue" d="M160.206,-50.5668C171.354,-52.0981 182.638,-53.6481 193.385,-55.1243"/>
<polygon fill="midnightblue" stroke="midnightblue" points="160.41,-47.0619 150.026,-49.1685 159.457,-53.9968 160.41,-47.0619"/>
</g>
<!-- Node8 -->
<g id="node8" class="node"><title>Node8</title>
<g id="a_node8"><a xlink:href="../../db/dee/classsimulation_objects_1_1_predator_cell.html#a681bdcb9944d91e15325e477aad1b449" target="_top" xlink:title="simulationObjects.Predator\lCell.leaveEgg">
<polygon fill="white" stroke="black" points="186,-0 186,-30 332,-30 332,-0 186,-0"/>
<text text-anchor="start" x="194" y="-18" font-family="Helvetica,sans-Serif" font-size="10.00">simulationObjects.Predator</text>
<text text-anchor="middle" x="259" y="-7" font-family="Helvetica,sans-Serif" font-size="10.00">Cell.leaveEgg</text>
</a>
</g>
</g>
<!-- Node1&#45;&gt;Node8 -->
<g id="edge8" class="edge"><title>Node1&#45;&gt;Node8</title>
<path fill="none" stroke="midnightblue" d="M160.066,-27.9144C168.667,-26.7802 177.35,-25.6351 185.807,-24.5199"/>
<polygon fill="midnightblue" stroke="midnightblue" points="159.483,-24.4609 150.026,-29.2383 160.398,-31.4008 159.483,-24.4609"/>
</g>
<!-- Node3 -->
<g id="node3" class="node"><title>Node3</title>
<g id="a_node3"><a xlink:href="../../db/d32/classcontroller_1_1_main_controller.html#aecc10abc6b55d8b0b4bd152be5c5d3f0" target="_top" xlink:title="controller.MainController.initialize\lSimulationObjects">
<polygon fill="white" stroke="black" points="369.5,-49 369.5,-79 542.5,-79 542.5,-49 369.5,-49"/>
<text text-anchor="start" x="377.5" y="-67" font-family="Helvetica,sans-Serif" font-size="10.00">controller.MainController.initialize</text>
<text text-anchor="middle" x="456" y="-56" font-family="Helvetica,sans-Serif" font-size="10.00">SimulationObjects</text>
</a>
</g>
</g>
<!-- Node2&#45;&gt;Node3 -->
<g id="edge2" class="edge"><title>Node2&#45;&gt;Node3</title>
<path fill="none" stroke="midnightblue" d="M334.874,-64C346.146,-64 357.845,-64 369.322,-64"/>
<polygon fill="midnightblue" stroke="midnightblue" points="334.661,-60.5001 324.661,-64 334.661,-67.5001 334.661,-60.5001"/>
</g>
<!-- Node4 -->
<g id="node4" class="node"><title>Node4</title>
<g id="a_node4"><a xlink:href="../../db/d32/classcontroller_1_1_main_controller.html#a7cfedb8e16c6b9d6394054d03193da82" target="_top" xlink:title="controller.MainController.initialize\lSimulationWithData">
<polygon fill="white" stroke="black" points="580.5,-49 580.5,-79 753.5,-79 753.5,-49 580.5,-49"/>
<text text-anchor="start" x="588.5" y="-67" font-family="Helvetica,sans-Serif" font-size="10.00">controller.MainController.initialize</text>
<text text-anchor="middle" x="667" y="-56" font-family="Helvetica,sans-Serif" font-size="10.00">SimulationWithData</text>
</a>
</g>
</g>
<!-- Node3&#45;&gt;Node4 -->
<g id="edge3" class="edge"><title>Node3&#45;&gt;Node4</title>
<path fill="none" stroke="midnightblue" d="M552.851,-64C561.967,-64 571.171,-64 580.184,-64"/>
<polygon fill="midnightblue" stroke="midnightblue" points="552.611,-60.5001 542.611,-64 552.611,-67.5001 552.611,-60.5001"/>
</g>
<!-- Node5 -->
<g id="node5" class="node"><title>Node5</title>
<g id="a_node5"><a xlink:href="../../db/ddb/classcontroller_1_1_user_interface.html#a9cf1e21253003993661082c9d42926b2" target="_top" xlink:title="controller.UserInterface.make\lBottomPanel">
<polygon fill="white" stroke="black" points="790,-27 790,-57 948,-57 948,-27 790,-27"/>
<text text-anchor="start" x="798" y="-45" font-family="Helvetica,sans-Serif" font-size="10.00">controller.UserInterface.make</text>
<text text-anchor="middle" x="869" y="-34" font-family="Helvetica,sans-Serif" font-size="10.00">BottomPanel</text>
</a>
</g>
</g>
<!-- Node4&#45;&gt;Node5 -->
<g id="edge4" class="edge"><title>Node4&#45;&gt;Node5</title>
<path fill="none" stroke="midnightblue" d="M763.848,-53.4568C772.532,-52.5015 781.257,-51.5417 789.762,-50.6061"/>
<polygon fill="midnightblue" stroke="midnightblue" points="763.246,-50.0018 753.688,-54.5743 764.011,-56.9598 763.246,-50.0018"/>
</g>
<!-- Node6 -->
<g id="node6" class="node"><title>Node6</title>
<g id="a_node6"><a xlink:href="../../db/ddb/classcontroller_1_1_user_interface.html#aad62b84bbc23f683c844ace519feb9d2" target="_top" xlink:title="controller.UserInterface.reset">
<polygon fill="white" stroke="black" points="984,-76.5 984,-95.5 1140,-95.5 1140,-76.5 984,-76.5"/>
<text text-anchor="middle" x="1062" y="-83.5" font-family="Helvetica,sans-Serif" font-size="10.00">controller.UserInterface.reset</text>
</a>
</g>
</g>
<!-- Node5&#45;&gt;Node6 -->
<g id="edge5" class="edge"><title>Node5&#45;&gt;Node6</title>
<path fill="none" stroke="midnightblue" d="M945.179,-59.3187C970.556,-65.1648 997.941,-71.4732 1019.71,-76.4876"/>
<polygon fill="midnightblue" stroke="midnightblue" points="945.728,-55.8535 935.197,-57.0192 944.156,-62.6749 945.728,-55.8535"/>
</g>
<!-- Node7 -->
<g id="node7" class="node"><title>Node7</title>
<g id="a_node7"><a xlink:href="../../db/ddb/classcontroller_1_1_user_interface.html#a6dd740b89d748c372a5ef9959e1bd7c4" target="_top" xlink:title="controller.UserInterface.\lUserInterface">
<polygon fill="white" stroke="black" points="996.5,-27 996.5,-57 1127.5,-57 1127.5,-27 996.5,-27"/>
<text text-anchor="start" x="1004.5" y="-45" font-family="Helvetica,sans-Serif" font-size="10.00">controller.UserInterface.</text>
<text text-anchor="middle" x="1062" y="-34" font-family="Helvetica,sans-Serif" font-size="10.00">UserInterface</text>
</a>
</g>
</g>
<!-- Node5&#45;&gt;Node7 -->
<g id="edge7" class="edge"><title>Node5&#45;&gt;Node7</title>
<path fill="none" stroke="midnightblue" d="M958.415,-42C971.171,-42 984.097,-42 996.275,-42"/>
<polygon fill="midnightblue" stroke="midnightblue" points="958.238,-38.5001 948.238,-42 958.238,-45.5001 958.238,-38.5001"/>
</g>
<!-- Node6&#45;&gt;Node4 -->
<g id="edge6" class="edge"><title>Node6&#45;&gt;Node4</title>
<path fill="none" stroke="midnightblue" d="M973.444,-81.0986C907.942,-77.4318 818.825,-72.4431 753.76,-68.8008"/>
<polygon fill="midnightblue" stroke="midnightblue" points="973.566,-84.6109 983.747,-81.6754 973.958,-77.6218 973.566,-84.6109"/>
</g>
<!-- Node9 -->
<g id="node9" class="node"><title>Node9</title>
<g id="a_node9"><a xlink:href="../../db/dee/classsimulation_objects_1_1_predator_cell.html#a0f04c13ccdd5e4845f2e5975ec63952f" target="_top" xlink:title="simulationObjects.Predator\lCell.updateStatesandMakeMoves">
<polygon fill="white" stroke="black" points="368,-0 368,-30 544,-30 544,-0 368,-0"/>
<text text-anchor="start" x="376" y="-18" font-family="Helvetica,sans-Serif" font-size="10.00">simulationObjects.Predator</text>
<text text-anchor="middle" x="456" y="-7" font-family="Helvetica,sans-Serif" font-size="10.00">Cell.updateStatesandMakeMoves</text>
</a>
</g>
</g>
<!-- Node8&#45;&gt;Node9 -->
<g id="edge9" class="edge"><title>Node8&#45;&gt;Node9</title>
<path fill="none" stroke="midnightblue" d="M342.236,-15C350.659,-15 359.237,-15 367.712,-15"/>
<polygon fill="midnightblue" stroke="midnightblue" points="342.057,-11.5001 332.057,-15 342.057,-18.5001 342.057,-11.5001"/>
</g>
<!-- Node10 -->
<g id="node10" class="node"><title>Node10</title>
<g id="a_node10"><a xlink:href="../../db/dee/classsimulation_objects_1_1_predator_cell.html#a954732c3db3474e874b5023303baa2ed" target="_top" xlink:title="simulationObjects.Predator\lCell.update">
<polygon fill="white" stroke="black" points="594,-0 594,-30 740,-30 740,-0 594,-0"/>
<text text-anchor="start" x="602" y="-18" font-family="Helvetica,sans-Serif" font-size="10.00">simulationObjects.Predator</text>
<text text-anchor="middle" x="667" y="-7" font-family="Helvetica,sans-Serif" font-size="10.00">Cell.update</text>
</a>
</g>
</g>
<!-- Node9&#45;&gt;Node10 -->
<g id="edge10" class="edge"><title>Node9&#45;&gt;Node10</title>
<path fill="none" stroke="midnightblue" d="M554.283,-15C567.63,-15 581.135,-15 593.921,-15"/>
<polygon fill="midnightblue" stroke="midnightblue" points="554.121,-11.5001 544.121,-15 554.121,-18.5001 554.121,-11.5001"/>
</g>
</g>
</svg>
