<?xml version="1.0" encoding="UTF-8" standalone="no"?>
<!DOCTYPE svg PUBLIC "-//W3C//DTD SVG 1.1//EN"
 "http://www.w3.org/Graphics/SVG/1.1/DTD/svg11.dtd">
<!-- Generated by graphviz version 2.36.0 (20140111.2315)
 -->
<!-- Title: simulationObjects.Patch.createBody Pages: 1 -->
<svg width="1340pt" height="77pt"
 viewBox="0.00 0.00 1340.00 77.00" xmlns="http://www.w3.org/2000/svg" xmlns:xlink="http://www.w3.org/1999/xlink">
<g id="graph0" class="graph" transform="scale(1 1) rotate(0) translate(4 73)">
<title>simulationObjects.Patch.createBody</title>
<polygon fill="white" stroke="none" points="-4,4 -4,-73 1336,-73 1336,4 -4,4"/>
<!-- Node1 -->
<g id="node1" class="node"><title>Node1</title>
<polygon fill="#bfbfbf" stroke="black" points="0.5,-27.5 0.5,-46.5 189.5,-46.5 189.5,-27.5 0.5,-27.5"/>
<text text-anchor="middle" x="95" y="-34.5" font-family="Helvetica,sans-Serif" font-size="10.00">simulationObjects.Patch.createBody</text>
</g>
<!-- Node2 -->
<g id="node2" class="node"><title>Node2</title>
<g id="a_node2"><a xlink:href="../../d7/d97/classcontroller_1_1_grid.html#a52256ef1252a18eab8baeb2edef836d8" target="_top" xlink:title="controller.Grid.addPatch\lToGrid">
<polygon fill="white" stroke="black" points="226.5,-22 226.5,-52 357.5,-52 357.5,-22 226.5,-22"/>
<text text-anchor="start" x="234.5" y="-40" font-family="Helvetica,sans-Serif" font-size="10.00">controller.Grid.addPatch</text>
<text text-anchor="middle" x="292" y="-29" font-family="Helvetica,sans-Serif" font-size="10.00">ToGrid</text>
</a>
</g>
</g>
<!-- Node1&#45;&gt;Node2 -->
<g id="edge1" class="edge"><title>Node1&#45;&gt;Node2</title>
<path fill="none" stroke="midnightblue" d="M199.768,-37C208.848,-37 217.856,-37 226.474,-37"/>
<polygon fill="midnightblue" stroke="midnightblue" points="199.502,-33.5001 189.502,-37 199.502,-40.5001 199.502,-33.5001"/>
</g>
<!-- Node3 -->
<g id="node3" class="node"><title>Node3</title>
<g id="a_node3"><a xlink:href="../../d7/d97/classcontroller_1_1_grid.html#a85b3833ab13642ba27fd7b65ee6a6daa" target="_top" xlink:title="controller.Grid.addPatch\lAtPoint">
<polygon fill="white" stroke="black" points="394.5,-22 394.5,-52 525.5,-52 525.5,-22 394.5,-22"/>
<text text-anchor="start" x="402.5" y="-40" font-family="Helvetica,sans-Serif" font-size="10.00">controller.Grid.addPatch</text>
<text text-anchor="middle" x="460" y="-29" font-family="Helvetica,sans-Serif" font-size="10.00">AtPoint</text>
</a>
</g>
</g>
<!-- Node2&#45;&gt;Node3 -->
<g id="edge2" class="edge"><title>Node2&#45;&gt;Node3</title>
<path fill="none" stroke="midnightblue" d="M367.898,-37C376.693,-37 385.609,-37 394.248,-37"/>
<polygon fill="midnightblue" stroke="midnightblue" points="367.655,-33.5001 357.655,-37 367.655,-40.5001 367.655,-33.5001"/>
</g>
<!-- Node4 -->
<g id="node4" class="node"><title>Node4</title>
<g id="a_node4"><a xlink:href="../../db/d32/classcontroller_1_1_main_controller.html#aecc10abc6b55d8b0b4bd152be5c5d3f0" target="_top" xlink:title="controller.MainController.initialize\lSimulationObjects">
<polygon fill="white" stroke="black" points="562.5,-22 562.5,-52 735.5,-52 735.5,-22 562.5,-22"/>
<text text-anchor="start" x="570.5" y="-40" font-family="Helvetica,sans-Serif" font-size="10.00">controller.MainController.initialize</text>
<text text-anchor="middle" x="649" y="-29" font-family="Helvetica,sans-Serif" font-size="10.00">SimulationObjects</text>
</a>
</g>
</g>
<!-- Node3&#45;&gt;Node4 -->
<g id="edge3" class="edge"><title>Node3&#45;&gt;Node4</title>
<path fill="none" stroke="midnightblue" d="M535.736,-37C544.461,-37 553.414,-37 562.273,-37"/>
<polygon fill="midnightblue" stroke="midnightblue" points="535.617,-33.5001 525.617,-37 535.617,-40.5001 535.617,-33.5001"/>
</g>
<!-- Node5 -->
<g id="node5" class="node"><title>Node5</title>
<g id="a_node5"><a xlink:href="../../db/d32/classcontroller_1_1_main_controller.html#a7cfedb8e16c6b9d6394054d03193da82" target="_top" xlink:title="controller.MainController.initialize\lSimulationWithData">
<polygon fill="white" stroke="black" points="772.5,-22 772.5,-52 945.5,-52 945.5,-22 772.5,-22"/>
<text text-anchor="start" x="780.5" y="-40" font-family="Helvetica,sans-Serif" font-size="10.00">controller.MainController.initialize</text>
<text text-anchor="middle" x="859" y="-29" font-family="Helvetica,sans-Serif" font-size="10.00">SimulationWithData</text>
</a>
</g>
</g>
<!-- Node4&#45;&gt;Node5 -->
<g id="edge4" class="edge"><title>Node4&#45;&gt;Node5</title>
<path fill="none" stroke="midnightblue" d="M745.585,-37C754.561,-37 763.62,-37 772.494,-37"/>
<polygon fill="midnightblue" stroke="midnightblue" points="745.502,-33.5001 735.502,-37 745.502,-40.5001 745.502,-33.5001"/>
</g>
<!-- Node6 -->
<g id="node6" class="node"><title>Node6</title>
<g id="a_node6"><a xlink:href="../../db/ddb/classcontroller_1_1_user_interface.html#a9cf1e21253003993661082c9d42926b2" target="_top" xlink:title="controller.UserInterface.make\lBottomPanel">
<polygon fill="white" stroke="black" points="982,-0 982,-30 1140,-30 1140,-0 982,-0"/>
<text text-anchor="start" x="990" y="-18" font-family="Helvetica,sans-Serif" font-size="10.00">controller.UserInterface.make</text>
<text text-anchor="middle" x="1061" y="-7" font-family="Helvetica,sans-Serif" font-size="10.00">BottomPanel</text>
</a>
</g>
</g>
<!-- Node5&#45;&gt;Node6 -->
<g id="edge5" class="edge"><title>Node5&#45;&gt;Node6</title>
<path fill="none" stroke="midnightblue" d="M955.848,-26.4568C964.532,-25.5015 973.257,-24.5417 981.762,-23.6061"/>
<polygon fill="midnightblue" stroke="midnightblue" points="955.246,-23.0018 945.688,-27.5743 956.011,-29.9598 955.246,-23.0018"/>
</g>
<!-- Node7 -->
<g id="node7" class="node"><title>Node7</title>
<g id="a_node7"><a xlink:href="../../db/ddb/classcontroller_1_1_user_interface.html#aad62b84bbc23f683c844ace519feb9d2" target="_top" xlink:title="controller.UserInterface.reset">
<polygon fill="white" stroke="black" points="1176,-49.5 1176,-68.5 1332,-68.5 1332,-49.5 1176,-49.5"/>
<text text-anchor="middle" x="1254" y="-56.5" font-family="Helvetica,sans-Serif" font-size="10.00">controller.UserInterface.reset</text>
</a>
</g>
</g>
<!-- Node6&#45;&gt;Node7 -->
<g id="edge6" class="edge"><title>Node6&#45;&gt;Node7</title>
<path fill="none" stroke="midnightblue" d="M1137.18,-32.3187C1162.56,-38.1648 1189.94,-44.4732 1211.71,-49.4876"/>
<polygon fill="midnightblue" stroke="midnightblue" points="1137.73,-28.8535 1127.2,-30.0192 1136.16,-35.6749 1137.73,-28.8535"/>
</g>
<!-- Node8 -->
<g id="node8" class="node"><title>Node8</title>
<g id="a_node8"><a xlink:href="../../db/ddb/classcontroller_1_1_user_interface.html#a6dd740b89d748c372a5ef9959e1bd7c4" target="_top" xlink:title="controller.UserInterface.\lUserInterface">
<polygon fill="white" stroke="black" points="1188.5,-0 1188.5,-30 1319.5,-30 1319.5,-0 1188.5,-0"/>
<text text-anchor="start" x="1196.5" y="-18" font-family="Helvetica,sans-Serif" font-size="10.00">controller.UserInterface.</text>
<text text-anchor="middle" x="1254" y="-7" font-family="Helvetica,sans-Serif" font-size="10.00">UserInterface</text>
</a>
</g>
</g>
<!-- Node6&#45;&gt;Node8 -->
<g id="edge8" class="edge"><title>Node6&#45;&gt;Node8</title>
<path fill="none" stroke="midnightblue" d="M1150.41,-15C1163.17,-15 1176.1,-15 1188.27,-15"/>
<polygon fill="midnightblue" stroke="midnightblue" points="1150.24,-11.5001 1140.24,-15 1150.24,-18.5001 1150.24,-11.5001"/>
</g>
<!-- Node7&#45;&gt;Node5 -->
<g id="edge7" class="edge"><title>Node7&#45;&gt;Node5</title>
<path fill="none" stroke="midnightblue" d="M1165.44,-54.0986C1099.94,-50.4318 1010.83,-45.4431 945.76,-41.8008"/>
<polygon fill="midnightblue" stroke="midnightblue" points="1165.57,-57.6109 1175.75,-54.6754 1165.96,-50.6218 1165.57,-57.6109"/>
</g>
</g>
</svg>
