<?xml version="1.0" encoding="UTF-8" standalone="no"?>
<!DOCTYPE svg PUBLIC "-//W3C//DTD SVG 1.1//EN"
 "http://www.w3.org/Graphics/SVG/1.1/DTD/svg11.dtd">
<!-- Generated by graphviz version 2.36.0 (20140111.2315)
 -->
<!-- Title: simulationObjects.Patch.createBody Pages: 1 -->
<svg width="612pt" height="164pt"
 viewBox="0.00 0.00 612.00 164.00" xmlns="http://www.w3.org/2000/svg" xmlns:xlink="http://www.w3.org/1999/xlink">
<g id="graph0" class="graph" transform="scale(1 1) rotate(0) translate(4 160)">
<title>simulationObjects.Patch.createBody</title>
<polygon fill="white" stroke="none" points="-4,4 -4,-160 608,-160 608,4 -4,4"/>
<!-- Node1 -->
<g id="node1" class="node"><title>Node1</title>
<polygon fill="#bfbfbf" stroke="black" points="0.5,-98.5 0.5,-117.5 189.5,-117.5 189.5,-98.5 0.5,-98.5"/>
<text text-anchor="middle" x="95" y="-105.5" font-family="Helvetica,sans-Serif" font-size="10.00">simulationObjects.Patch.createBody</text>
</g>
<!-- Node2 -->
<g id="node2" class="node"><title>Node2</title>
<g id="a_node2"><a xlink:href="../../d7/d97/classcontroller_1_1_grid.html#a61d4b46bec1a6a3c7f277736e6293252" target="_top" xlink:title="controller.Grid.getGridHeight">
<polygon fill="white" stroke="black" points="233.5,-136.5 233.5,-155.5 386.5,-155.5 386.5,-136.5 233.5,-136.5"/>
<text text-anchor="middle" x="310" y="-143.5" font-family="Helvetica,sans-Serif" font-size="10.00">controller.Grid.getGridHeight</text>
</a>
</g>
</g>
<!-- Node1&#45;&gt;Node2 -->
<g id="edge1" class="edge"><title>Node1&#45;&gt;Node2</title>
<path fill="none" stroke="midnightblue" d="M149.474,-117.54C178.592,-122.735 214.811,-129.196 245.374,-134.649"/>
<polygon fill="midnightblue" stroke="midnightblue" points="245.045,-138.145 255.504,-136.456 246.274,-131.254 245.045,-138.145"/>
</g>
<!-- Node3 -->
<g id="node3" class="node"><title>Node3</title>
<g id="a_node3"><a xlink:href="../../d7/d97/classcontroller_1_1_grid.html#a07b690d056f74953ade8dc5e762341d7" target="_top" xlink:title="controller.Grid.getGridWidth">
<polygon fill="white" stroke="black" points="236,-98.5 236,-117.5 384,-117.5 384,-98.5 236,-98.5"/>
<text text-anchor="middle" x="310" y="-105.5" font-family="Helvetica,sans-Serif" font-size="10.00">controller.Grid.getGridWidth</text>
</a>
</g>
</g>
<!-- Node1&#45;&gt;Node3 -->
<g id="edge2" class="edge"><title>Node1&#45;&gt;Node3</title>
<path fill="none" stroke="midnightblue" d="M189.735,-108C201.648,-108 213.777,-108 225.514,-108"/>
<polygon fill="midnightblue" stroke="midnightblue" points="225.713,-111.5 235.713,-108 225.713,-104.5 225.713,-111.5"/>
</g>
<!-- Node4 -->
<g id="node4" class="node"><title>Node4</title>
<g id="a_node4"><a xlink:href="../../d5/da5/classsimulation_objects_1_1_patch.html#a06f00537a57f3678cf147c580b92de0d" target="_top" xlink:title="simulationObjects.Patch.update\lCellConstraints">
<polygon fill="white" stroke="black" points="226,-49 226,-79 394,-79 394,-49 226,-49"/>
<text text-anchor="start" x="234" y="-67" font-family="Helvetica,sans-Serif" font-size="10.00">simulationObjects.Patch.update</text>
<text text-anchor="middle" x="310" y="-56" font-family="Helvetica,sans-Serif" font-size="10.00">CellConstraints</text>
</a>
</g>
</g>
<!-- Node1&#45;&gt;Node4 -->
<g id="edge3" class="edge"><title>Node1&#45;&gt;Node4</title>
<path fill="none" stroke="midnightblue" d="M142.218,-98.4527C166.734,-93.3882 197.606,-87.011 226.103,-81.1242"/>
<polygon fill="midnightblue" stroke="midnightblue" points="226.985,-84.5161 236.07,-79.0654 225.569,-77.6608 226.985,-84.5161"/>
</g>
<!-- Node5 -->
<g id="node5" class="node"><title>Node5</title>
<g id="a_node5"><a xlink:href="../../d0/d1a/classsimulation_objects_1_1_patch_body.html#a466dadbe30fb2f8360163881e0db9295" target="_top" xlink:title="simulationObjects.PatchBody.get\lPatchWidth">
<polygon fill="white" stroke="black" points="430.5,-98 430.5,-128 603.5,-128 603.5,-98 430.5,-98"/>
<text text-anchor="start" x="438.5" y="-116" font-family="Helvetica,sans-Serif" font-size="10.00">simulationObjects.PatchBody.get</text>
<text text-anchor="middle" x="517" y="-105" font-family="Helvetica,sans-Serif" font-size="10.00">PatchWidth</text>
</a>
</g>
</g>
<!-- Node4&#45;&gt;Node5 -->
<g id="edge4" class="edge"><title>Node4&#45;&gt;Node5</title>
<path fill="none" stroke="midnightblue" d="M373.9,-79.0346C395.84,-84.2789 420.641,-90.2069 443.311,-95.6255"/>
<polygon fill="midnightblue" stroke="midnightblue" points="442.679,-99.0731 453.219,-97.9938 444.307,-92.2649 442.679,-99.0731"/>
</g>
<!-- Node6 -->
<g id="node6" class="node"><title>Node6</title>
<g id="a_node6"><a xlink:href="../../d0/d1a/classsimulation_objects_1_1_patch_body.html#a7be1762ade4eaee79c26ac524eb97f33" target="_top" xlink:title="simulationObjects.PatchBody.get\lCenter">
<polygon fill="white" stroke="black" points="430.5,-49 430.5,-79 603.5,-79 603.5,-49 430.5,-49"/>
<text text-anchor="start" x="438.5" y="-67" font-family="Helvetica,sans-Serif" font-size="10.00">simulationObjects.PatchBody.get</text>
<text text-anchor="middle" x="517" y="-56" font-family="Helvetica,sans-Serif" font-size="10.00">Center</text>
</a>
</g>
</g>
<!-- Node4&#45;&gt;Node6 -->
<g id="edge5" class="edge"><title>Node4&#45;&gt;Node6</title>
<path fill="none" stroke="midnightblue" d="M394.086,-64C402.701,-64 411.507,-64 420.246,-64"/>
<polygon fill="midnightblue" stroke="midnightblue" points="420.46,-67.5001 430.46,-64 420.46,-60.5001 420.46,-67.5001"/>
</g>
<!-- Node7 -->
<g id="node7" class="node"><title>Node7</title>
<g id="a_node7"><a xlink:href="../../d0/d1a/classsimulation_objects_1_1_patch_body.html#a268e88a7cb1f5feb98f49e230475c2ba" target="_top" xlink:title="simulationObjects.PatchBody.get\lPatchHeight">
<polygon fill="white" stroke="black" points="430.5,-0 430.5,-30 603.5,-30 603.5,-0 430.5,-0"/>
<text text-anchor="start" x="438.5" y="-18" font-family="Helvetica,sans-Serif" font-size="10.00">simulationObjects.PatchBody.get</text>
<text text-anchor="middle" x="517" y="-7" font-family="Helvetica,sans-Serif" font-size="10.00">PatchHeight</text>
</a>
</g>
</g>
<!-- Node4&#45;&gt;Node7 -->
<g id="edge6" class="edge"><title>Node4&#45;&gt;Node7</title>
<path fill="none" stroke="midnightblue" d="M373.9,-48.9654C395.84,-43.7211 420.641,-37.7931 443.311,-32.3745"/>
<polygon fill="midnightblue" stroke="midnightblue" points="444.307,-35.7351 453.219,-30.0062 442.679,-28.9269 444.307,-35.7351"/>
</g>
</g>
</svg>
