<?xml version="1.0" encoding="UTF-8" standalone="no"?>
<!DOCTYPE svg PUBLIC "-//W3C//DTD SVG 1.1//EN"
 "http://www.w3.org/Graphics/SVG/1.1/DTD/svg11.dtd">
<!-- Generated by graphviz version 2.36.0 (20140111.2315)
 -->
<!-- Title: simulationObjects.Patch.isEmpty Pages: 1 -->
<svg width="1562pt" height="175pt"
 viewBox="0.00 0.00 1562.00 175.00" xmlns="http://www.w3.org/2000/svg" xmlns:xlink="http://www.w3.org/1999/xlink">
<g id="graph0" class="graph" transform="scale(1 1) rotate(0) translate(4 171)">
<title>simulationObjects.Patch.isEmpty</title>
<polygon fill="white" stroke="none" points="-4,4 -4,-171 1558,-171 1558,4 -4,4"/>
<!-- Node1 -->
<g id="node1" class="node"><title>Node1</title>
<polygon fill="#bfbfbf" stroke="black" points="0,-49 0,-79 142,-79 142,-49 0,-49"/>
<text text-anchor="start" x="8" y="-67" font-family="Helvetica,sans-Serif" font-size="10.00">simulationObjects.Patch.is</text>
<text text-anchor="middle" x="71" y="-56" font-family="Helvetica,sans-Serif" font-size="10.00">Empty</text>
</g>
<!-- Node2 -->
<g id="node2" class="node"><title>Node2</title>
<g id="a_node2"><a xlink:href="../../d7/d97/classcontroller_1_1_grid.html#a5a41921f2cae7b1f0097fce7374aab38" target="_top" xlink:title="controller.Grid.countCell\lInPatch">
<polygon fill="white" stroke="black" points="206.5,-98 206.5,-128 337.5,-128 337.5,-98 206.5,-98"/>
<text text-anchor="start" x="214.5" y="-116" font-family="Helvetica,sans-Serif" font-size="10.00">controller.Grid.countCell</text>
<text text-anchor="middle" x="272" y="-105" font-family="Helvetica,sans-Serif" font-size="10.00">InPatch</text>
</a>
</g>
</g>
<!-- Node1&#45;&gt;Node2 -->
<g id="edge1" class="edge"><title>Node1&#45;&gt;Node2</title>
<path fill="none" stroke="midnightblue" d="M142.977,-81.4768C164.911,-86.8775 188.864,-92.7755 210.057,-97.9938"/>
<polygon fill="midnightblue" stroke="midnightblue" points="143.606,-78.0271 133.059,-79.0346 141.932,-84.8241 143.606,-78.0271"/>
</g>
<!-- Node10 -->
<g id="node10" class="node"><title>Node10</title>
<g id="a_node10"><a xlink:href="../../da/db6/classsimulation_objects_1_1_life_patch.html#a3b83c761bbe4cc3795aa4643d74d2fb1" target="_top" xlink:title="simulationObjects.LifePatch.process\lNeighborsAndUpdateState">
<polygon fill="white" stroke="black" points="178,-49 178,-79 366,-79 366,-49 178,-49"/>
<text text-anchor="start" x="186" y="-67" font-family="Helvetica,sans-Serif" font-size="10.00">simulationObjects.LifePatch.process</text>
<text text-anchor="middle" x="272" y="-56" font-family="Helvetica,sans-Serif" font-size="10.00">NeighborsAndUpdateState</text>
</a>
</g>
</g>
<!-- Node1&#45;&gt;Node10 -->
<g id="edge10" class="edge"><title>Node1&#45;&gt;Node10</title>
<path fill="none" stroke="midnightblue" d="M152.283,-64C160.672,-64 169.252,-64 177.769,-64"/>
<polygon fill="midnightblue" stroke="midnightblue" points="152.16,-60.5001 142.16,-64 152.16,-67.5001 152.16,-60.5001"/>
</g>
<!-- Node12 -->
<g id="node12" class="node"><title>Node12</title>
<g id="a_node12"><a xlink:href="../../db/dee/classsimulation_objects_1_1_predator_cell.html#a0f04c13ccdd5e4845f2e5975ec63952f" target="_top" xlink:title="simulationObjects.Predator\lCell.updateStatesandMakeMoves">
<polygon fill="white" stroke="black" points="184,-0 184,-30 360,-30 360,-0 184,-0"/>
<text text-anchor="start" x="192" y="-18" font-family="Helvetica,sans-Serif" font-size="10.00">simulationObjects.Predator</text>
<text text-anchor="middle" x="272" y="-7" font-family="Helvetica,sans-Serif" font-size="10.00">Cell.updateStatesandMakeMoves</text>
</a>
</g>
</g>
<!-- Node1&#45;&gt;Node12 -->
<g id="edge12" class="edge"><title>Node1&#45;&gt;Node12</title>
<path fill="none" stroke="midnightblue" d="M142.977,-46.5232C164.911,-41.1225 188.864,-35.2245 210.057,-30.0062"/>
<polygon fill="midnightblue" stroke="midnightblue" points="141.932,-43.1759 133.059,-48.9654 143.606,-49.9729 141.932,-43.1759"/>
</g>
<!-- Node3 -->
<g id="node3" class="node"><title>Node3</title>
<g id="a_node3"><a xlink:href="../../d7/d97/classcontroller_1_1_grid.html#a2cbf0a87e05ced6bd01a6ca01542b948" target="_top" xlink:title="controller.Grid.updateAll\lPatches">
<polygon fill="white" stroke="black" points="430.5,-98 430.5,-128 561.5,-128 561.5,-98 430.5,-98"/>
<text text-anchor="start" x="438.5" y="-116" font-family="Helvetica,sans-Serif" font-size="10.00">controller.Grid.updateAll</text>
<text text-anchor="middle" x="496" y="-105" font-family="Helvetica,sans-Serif" font-size="10.00">Patches</text>
</a>
</g>
</g>
<!-- Node2&#45;&gt;Node3 -->
<g id="edge2" class="edge"><title>Node2&#45;&gt;Node3</title>
<path fill="none" stroke="midnightblue" d="M347.616,-113C374.43,-113 404.43,-113 430.329,-113"/>
<polygon fill="midnightblue" stroke="midnightblue" points="347.51,-109.5 337.51,-113 347.51,-116.5 347.51,-109.5"/>
</g>
<!-- Node4 -->
<g id="node4" class="node"><title>Node4</title>
<g id="a_node4"><a xlink:href="../../d7/d97/classcontroller_1_1_grid.html#a9d953304e003d02db9447cd636efce3a" target="_top" xlink:title="controller.Grid.updateGrid">
<polygon fill="white" stroke="black" points="626,-103.5 626,-122.5 766,-122.5 766,-103.5 626,-103.5"/>
<text text-anchor="middle" x="696" y="-110.5" font-family="Helvetica,sans-Serif" font-size="10.00">controller.Grid.updateGrid</text>
</a>
</g>
</g>
<!-- Node3&#45;&gt;Node4 -->
<g id="edge3" class="edge"><title>Node3&#45;&gt;Node4</title>
<path fill="none" stroke="midnightblue" d="M571.832,-113C589.526,-113 608.318,-113 625.752,-113"/>
<polygon fill="midnightblue" stroke="midnightblue" points="571.559,-109.5 561.559,-113 571.559,-116.5 571.559,-109.5"/>
</g>
<!-- Node5 -->
<g id="node5" class="node"><title>Node5</title>
<g id="a_node5"><a xlink:href="../../db/d32/classcontroller_1_1_main_controller.html#a73545baf8abf0781ade4a83269de344e" target="_top" xlink:title="controller.MainController.step\lSimulation">
<polygon fill="white" stroke="black" points="802,-98 802,-128 958,-128 958,-98 802,-98"/>
<text text-anchor="start" x="810" y="-116" font-family="Helvetica,sans-Serif" font-size="10.00">controller.MainController.step</text>
<text text-anchor="middle" x="880" y="-105" font-family="Helvetica,sans-Serif" font-size="10.00">Simulation</text>
</a>
</g>
</g>
<!-- Node4&#45;&gt;Node5 -->
<g id="edge4" class="edge"><title>Node4&#45;&gt;Node5</title>
<path fill="none" stroke="midnightblue" d="M776.29,-113C784.744,-113 793.334,-113 801.764,-113"/>
<polygon fill="midnightblue" stroke="midnightblue" points="776.066,-109.5 766.066,-113 776.066,-116.5 776.066,-109.5"/>
</g>
<!-- Node6 -->
<g id="node6" class="node"><title>Node6</title>
<g id="a_node6"><a xlink:href="../../db/ddb/classcontroller_1_1_user_interface.html#a9cf1e21253003993661082c9d42926b2" target="_top" xlink:title="controller.UserInterface.make\lBottomPanel">
<polygon fill="white" stroke="black" points="994,-98 994,-128 1152,-128 1152,-98 994,-98"/>
<text text-anchor="start" x="1002" y="-116" font-family="Helvetica,sans-Serif" font-size="10.00">controller.UserInterface.make</text>
<text text-anchor="middle" x="1073" y="-105" font-family="Helvetica,sans-Serif" font-size="10.00">BottomPanel</text>
</a>
</g>
</g>
<!-- Node5&#45;&gt;Node6 -->
<g id="edge5" class="edge"><title>Node5&#45;&gt;Node6</title>
<path fill="none" stroke="midnightblue" d="M968.171,-113C976.768,-113 985.456,-113 993.954,-113"/>
<polygon fill="midnightblue" stroke="midnightblue" points="968.136,-109.5 958.136,-113 968.136,-116.5 968.136,-109.5"/>
</g>
<!-- Node7 -->
<g id="node7" class="node"><title>Node7</title>
<g id="a_node7"><a xlink:href="../../db/ddb/classcontroller_1_1_user_interface.html#aad62b84bbc23f683c844ace519feb9d2" target="_top" xlink:title="controller.UserInterface.reset">
<polygon fill="white" stroke="black" points="1188,-147.5 1188,-166.5 1344,-166.5 1344,-147.5 1188,-147.5"/>
<text text-anchor="middle" x="1266" y="-154.5" font-family="Helvetica,sans-Serif" font-size="10.00">controller.UserInterface.reset</text>
</a>
</g>
</g>
<!-- Node6&#45;&gt;Node7 -->
<g id="edge6" class="edge"><title>Node6&#45;&gt;Node7</title>
<path fill="none" stroke="midnightblue" d="M1149.18,-130.319C1174.56,-136.165 1201.94,-142.473 1223.71,-147.488"/>
<polygon fill="midnightblue" stroke="midnightblue" points="1149.73,-126.854 1139.2,-128.019 1148.16,-133.675 1149.73,-126.854"/>
</g>
<!-- Node9 -->
<g id="node9" class="node"><title>Node9</title>
<g id="a_node9"><a xlink:href="../../db/ddb/classcontroller_1_1_user_interface.html#a6dd740b89d748c372a5ef9959e1bd7c4" target="_top" xlink:title="controller.UserInterface.\lUserInterface">
<polygon fill="white" stroke="black" points="1200.5,-98 1200.5,-128 1331.5,-128 1331.5,-98 1200.5,-98"/>
<text text-anchor="start" x="1208.5" y="-116" font-family="Helvetica,sans-Serif" font-size="10.00">controller.UserInterface.</text>
<text text-anchor="middle" x="1266" y="-105" font-family="Helvetica,sans-Serif" font-size="10.00">UserInterface</text>
</a>
</g>
</g>
<!-- Node6&#45;&gt;Node9 -->
<g id="edge9" class="edge"><title>Node6&#45;&gt;Node9</title>
<path fill="none" stroke="midnightblue" d="M1162.41,-113C1175.17,-113 1188.1,-113 1200.27,-113"/>
<polygon fill="midnightblue" stroke="midnightblue" points="1162.24,-109.5 1152.24,-113 1162.24,-116.5 1162.24,-109.5"/>
</g>
<!-- Node8 -->
<g id="node8" class="node"><title>Node8</title>
<g id="a_node8"><a xlink:href="../../db/d32/classcontroller_1_1_main_controller.html#a7cfedb8e16c6b9d6394054d03193da82" target="_top" xlink:title="controller.MainController.initialize\lSimulationWithData">
<polygon fill="white" stroke="black" points="1380.5,-98 1380.5,-128 1553.5,-128 1553.5,-98 1380.5,-98"/>
<text text-anchor="start" x="1388.5" y="-116" font-family="Helvetica,sans-Serif" font-size="10.00">controller.MainController.initialize</text>
<text text-anchor="middle" x="1467" y="-105" font-family="Helvetica,sans-Serif" font-size="10.00">SimulationWithData</text>
</a>
</g>
</g>
<!-- Node7&#45;&gt;Node8 -->
<g id="edge7" class="edge"><title>Node7&#45;&gt;Node8</title>
<path fill="none" stroke="midnightblue" d="M1320.11,-145.258C1343.98,-139.979 1372.44,-133.686 1397.86,-128.065"/>
<polygon fill="midnightblue" stroke="midnightblue" points="1319.19,-141.876 1310.18,-147.453 1320.7,-148.711 1319.19,-141.876"/>
</g>
<!-- Node8&#45;&gt;Node6 -->
<g id="edge8" class="edge"><title>Node8&#45;&gt;Node6</title>
<path fill="none" stroke="midnightblue" d="M1394.78,-95.8901C1378.21,-92.6117 1360.57,-89.6799 1344,-88 1275.02,-81.0051 1256.93,-80.5307 1188,-88 1169.27,-90.03 1149.1,-93.8845 1131.01,-97.9698"/>
<polygon fill="midnightblue" stroke="midnightblue" points="1394.44,-99.393 1404.93,-97.968 1395.84,-92.535 1394.44,-99.393"/>
</g>
<!-- Node11 -->
<g id="node11" class="node"><title>Node11</title>
<g id="a_node11"><a xlink:href="../../da/db6/classsimulation_objects_1_1_life_patch.html#acd5197497bd17e2a16199c194e6e33be" target="_top" xlink:title="simulationObjects.LifePatch.prepare\lToUpdate">
<polygon fill="white" stroke="black" points="402,-49 402,-79 590,-79 590,-49 402,-49"/>
<text text-anchor="start" x="410" y="-67" font-family="Helvetica,sans-Serif" font-size="10.00">simulationObjects.LifePatch.prepare</text>
<text text-anchor="middle" x="496" y="-56" font-family="Helvetica,sans-Serif" font-size="10.00">ToUpdate</text>
</a>
</g>
</g>
<!-- Node10&#45;&gt;Node11 -->
<g id="edge11" class="edge"><title>Node10&#45;&gt;Node11</title>
<path fill="none" stroke="midnightblue" d="M376.425,-64C384.857,-64 393.347,-64 401.7,-64"/>
<polygon fill="midnightblue" stroke="midnightblue" points="376.183,-60.5001 366.183,-64 376.183,-67.5001 376.183,-60.5001"/>
</g>
<!-- Node13 -->
<g id="node13" class="node"><title>Node13</title>
<g id="a_node13"><a xlink:href="../../db/dee/classsimulation_objects_1_1_predator_cell.html#a954732c3db3474e874b5023303baa2ed" target="_top" xlink:title="simulationObjects.Predator\lCell.update">
<polygon fill="white" stroke="black" points="423,-0 423,-30 569,-30 569,-0 423,-0"/>
<text text-anchor="start" x="431" y="-18" font-family="Helvetica,sans-Serif" font-size="10.00">simulationObjects.Predator</text>
<text text-anchor="middle" x="496" y="-7" font-family="Helvetica,sans-Serif" font-size="10.00">Cell.update</text>
</a>
</g>
</g>
<!-- Node12&#45;&gt;Node13 -->
<g id="edge13" class="edge"><title>Node12&#45;&gt;Node13</title>
<path fill="none" stroke="midnightblue" d="M370.408,-15C388.024,-15 406.103,-15 422.835,-15"/>
<polygon fill="midnightblue" stroke="midnightblue" points="370.103,-11.5001 360.103,-15 370.103,-18.5001 370.103,-11.5001"/>
</g>
</g>
</svg>
