<?xml version="1.0" encoding="UTF-8" standalone="no"?>
<!DOCTYPE svg PUBLIC "-//W3C//DTD SVG 1.1//EN"
 "http://www.w3.org/Graphics/SVG/1.1/DTD/svg11.dtd">
<!-- Generated by graphviz version 2.36.0 (20140111.2315)
 -->
<!-- Title: simulationObjects.Patch.removeCell Pages: 1 -->
<svg width="2148pt" height="553pt"
 viewBox="0.00 0.00 2148.00 552.82" xmlns="http://www.w3.org/2000/svg" xmlns:xlink="http://www.w3.org/1999/xlink">
<g id="graph0" class="graph" transform="scale(1 1) rotate(0) translate(4 548.823)">
<title>simulationObjects.Patch.removeCell</title>
<polygon fill="white" stroke="none" points="-4,4 -4,-548.823 2144,-548.823 2144,4 -4,4"/>
<!-- Node1 -->
<g id="node1" class="node"><title>Node1</title>
<polygon fill="#bfbfbf" stroke="black" points="0,-213.5 0,-232.5 188,-232.5 188,-213.5 0,-213.5"/>
<text text-anchor="middle" x="94" y="-220.5" font-family="Helvetica,sans-Serif" font-size="10.00">simulationObjects.Patch.removeCell</text>
</g>
<!-- Node2 -->
<g id="node2" class="node"><title>Node2</title>
<g id="a_node2"><a xlink:href="../../d5/da5/classsimulation_objects_1_1_patch.html#ac05b7dd86c9f30b498d93d62cbbba9a4" target="_top" xlink:title="simulationObjects.Patch.addCell">
<polygon fill="white" stroke="black" points="238,-294.5 238,-313.5 408,-313.5 408,-294.5 238,-294.5"/>
<text text-anchor="middle" x="323" y="-301.5" font-family="Helvetica,sans-Serif" font-size="10.00">simulationObjects.Patch.addCell</text>
</a>
</g>
</g>
<!-- Node1&#45;&gt;Node2 -->
<g id="edge1" class="edge"><title>Node1&#45;&gt;Node2</title>
<path fill="none" stroke="midnightblue" d="M126.445,-236.656C152.37,-247.677 190.236,-263.229 224,-275 244.608,-282.184 268.036,-289.16 286.817,-294.468"/>
<polygon fill="midnightblue" stroke="midnightblue" points="127.698,-233.385 117.127,-232.672 124.945,-239.822 127.698,-233.385"/>
</g>
<!-- Node4 -->
<g id="node4" class="node"><title>Node4</title>
<g id="a_node4"><a xlink:href="../../d5/da5/classsimulation_objects_1_1_patch.html#a982ffbab2f32d5955c2c59b5a89fc4a1" target="_top" xlink:title="simulationObjects.Patch.toggle\lCellState">
<polygon fill="white" stroke="black" points="712,-377 712,-407 876,-407 876,-377 712,-377"/>
<text text-anchor="start" x="720" y="-395" font-family="Helvetica,sans-Serif" font-size="10.00">simulationObjects.Patch.toggle</text>
<text text-anchor="middle" x="794" y="-384" font-family="Helvetica,sans-Serif" font-size="10.00">CellState</text>
</a>
</g>
</g>
<!-- Node1&#45;&gt;Node4 -->
<g id="edge30" class="edge"><title>Node1&#45;&gt;Node4</title>
<path fill="none" stroke="midnightblue" d="M105.989,-241.544C125.774,-273.456 170.364,-338.983 224,-377 314.649,-441.252 348.681,-445.124 458,-465 548.079,-481.378 575.463,-488.314 664,-465 706.553,-453.795 749.815,-424.988 773.853,-407.093"/>
<polygon fill="midnightblue" stroke="midnightblue" points="108.85,-239.512 100.663,-232.788 102.869,-243.15 108.85,-239.512"/>
</g>
<!-- Node15 -->
<g id="node15" class="node"><title>Node15</title>
<g id="a_node15"><a xlink:href="../../db/d71/classsimulation_objects_1_1_sugar_cell.html#a2bafc48f035b3134c87ad371e3e2364e" target="_top" xlink:title="simulationObjects.SugarCell.makeMove">
<polygon fill="white" stroke="black" points="458,-513.5 458,-532.5 664,-532.5 664,-513.5 458,-513.5"/>
<text text-anchor="middle" x="561" y="-520.5" font-family="Helvetica,sans-Serif" font-size="10.00">simulationObjects.SugarCell.makeMove</text>
</a>
</g>
</g>
<!-- Node1&#45;&gt;Node15 -->
<g id="edge26" class="edge"><title>Node1&#45;&gt;Node15</title>
<path fill="none" stroke="midnightblue" d="M97.4218,-242.426C105.042,-294.396 133.661,-436.872 224,-499 313.386,-560.473 449.652,-545.46 517.926,-532.528"/>
<polygon fill="midnightblue" stroke="midnightblue" points="100.889,-241.95 96.0675,-232.516 93.9538,-242.898 100.889,-241.95"/>
</g>
<!-- Node18 -->
<g id="node18" class="node"><title>Node18</title>
<g id="a_node18"><a xlink:href="../../db/dee/classsimulation_objects_1_1_predator_cell.html#a7d74aa75e5e49981396b561c6badf01c" target="_top" xlink:title="simulationObjects.Predator\lCell.makeMove">
<polygon fill="white" stroke="black" points="488,-240 488,-270 634,-270 634,-240 488,-240"/>
<text text-anchor="start" x="496" y="-258" font-family="Helvetica,sans-Serif" font-size="10.00">simulationObjects.Predator</text>
<text text-anchor="middle" x="561" y="-247" font-family="Helvetica,sans-Serif" font-size="10.00">Cell.makeMove</text>
</a>
</g>
</g>
<!-- Node1&#45;&gt;Node18 -->
<g id="edge27" class="edge"><title>Node1&#45;&gt;Node18</title>
<path fill="none" stroke="midnightblue" d="M198.239,-230.215C206.953,-230.82 215.629,-231.421 224,-232 314.996,-238.289 419.86,-245.454 487.9,-250.092"/>
<polygon fill="midnightblue" stroke="midnightblue" points="198.227,-226.706 188.008,-229.504 197.741,-233.689 198.227,-226.706"/>
</g>
<!-- Node19 -->
<g id="node19" class="node"><title>Node19</title>
<g id="a_node19"><a xlink:href="../../da/db6/classsimulation_objects_1_1_life_patch.html#a79181e099fd4d7c9e86b94f20f103395" target="_top" xlink:title="simulationObjects.LifePatch.toggle\lCellState">
<polygon fill="white" stroke="black" points="470.5,-426 470.5,-456 651.5,-456 651.5,-426 470.5,-426"/>
<text text-anchor="start" x="478.5" y="-444" font-family="Helvetica,sans-Serif" font-size="10.00">simulationObjects.LifePatch.toggle</text>
<text text-anchor="middle" x="561" y="-433" font-family="Helvetica,sans-Serif" font-size="10.00">CellState</text>
</a>
</g>
</g>
<!-- Node1&#45;&gt;Node19 -->
<g id="edge29" class="edge"><title>Node1&#45;&gt;Node19</title>
<path fill="none" stroke="midnightblue" d="M112.87,-239.521C136.755,-260.952 181.077,-298.488 224,-323 321.183,-378.497 351.399,-381.932 458,-416 469.202,-419.58 481.234,-422.943 492.967,-425.971"/>
<polygon fill="midnightblue" stroke="midnightblue" points="115.067,-236.788 105.309,-232.66 110.363,-241.972 115.067,-236.788"/>
</g>
<!-- Node20 -->
<g id="node20" class="node"><title>Node20</title>
<g id="a_node20"><a xlink:href="../../da/db6/classsimulation_objects_1_1_life_patch.html#a13f9f221b6ac960be22ba52095e60738" target="_top" xlink:title="simulationObjects.LifePatch.update">
<polygon fill="white" stroke="black" points="468.5,-201.5 468.5,-220.5 653.5,-220.5 653.5,-201.5 468.5,-201.5"/>
<text text-anchor="middle" x="561" y="-208.5" font-family="Helvetica,sans-Serif" font-size="10.00">simulationObjects.LifePatch.update</text>
</a>
</g>
</g>
<!-- Node1&#45;&gt;Node20 -->
<g id="edge31" class="edge"><title>Node1&#45;&gt;Node20</title>
<path fill="none" stroke="midnightblue" d="M198.47,-220.33C279.379,-218.242 390.796,-215.367 468.479,-213.362"/>
<polygon fill="midnightblue" stroke="midnightblue" points="198.167,-216.836 188.261,-220.593 198.348,-223.834 198.167,-216.836"/>
</g>
<!-- Node21 -->
<g id="node21" class="node"><title>Node21</title>
<g id="a_node21"><a xlink:href="../../db/d5f/classsimulation_objects_1_1_seg_cell.html#a9d7bc36bf15d97456e59afed1a19e460" target="_top" xlink:title="simulationObjects.SegCell.update">
<polygon fill="white" stroke="black" points="472,-163.5 472,-182.5 650,-182.5 650,-163.5 472,-163.5"/>
<text text-anchor="middle" x="561" y="-170.5" font-family="Helvetica,sans-Serif" font-size="10.00">simulationObjects.SegCell.update</text>
</a>
</g>
</g>
<!-- Node1&#45;&gt;Node21 -->
<g id="edge33" class="edge"><title>Node1&#45;&gt;Node21</title>
<path fill="none" stroke="midnightblue" d="M193.684,-212.389C276.071,-203.53 392.446,-191.017 471.772,-182.487"/>
<polygon fill="midnightblue" stroke="midnightblue" points="193.126,-208.929 183.557,-213.478 193.874,-215.888 193.126,-208.929"/>
</g>
<!-- Node22 -->
<g id="node22" class="node"><title>Node22</title>
<g id="a_node22"><a xlink:href="../../db/dee/classsimulation_objects_1_1_predator_cell.html#a9bb0b62fbecbaf439f7e8552ff74c567" target="_top" xlink:title="simulationObjects.Predator\lCell.feed">
<polygon fill="white" stroke="black" points="250,-126 250,-156 396,-156 396,-126 250,-126"/>
<text text-anchor="start" x="258" y="-144" font-family="Helvetica,sans-Serif" font-size="10.00">simulationObjects.Predator</text>
<text text-anchor="middle" x="323" y="-133" font-family="Helvetica,sans-Serif" font-size="10.00">Cell.feed</text>
</a>
</g>
</g>
<!-- Node1&#45;&gt;Node22 -->
<g id="edge24" class="edge"><title>Node1&#45;&gt;Node22</title>
<path fill="none" stroke="midnightblue" d="M126.474,-209.428C152.416,-198.456 190.291,-182.929 224,-171 238.761,-165.776 254.954,-160.599 269.85,-156.054"/>
<polygon fill="midnightblue" stroke="midnightblue" points="124.983,-206.259 117.15,-213.393 127.722,-212.701 124.983,-206.259"/>
</g>
<!-- Node23 -->
<g id="node23" class="node"><title>Node23</title>
<g id="a_node23"><a xlink:href="../../d7/d97/classcontroller_1_1_grid.html#ae1a47377b4b0a32b1dc96b07dc2395ee" target="_top" xlink:title="controller.Grid.removeCellin\lPatch">
<polygon fill="white" stroke="black" points="248.5,-77 248.5,-107 397.5,-107 397.5,-77 248.5,-77"/>
<text text-anchor="start" x="256.5" y="-95" font-family="Helvetica,sans-Serif" font-size="10.00">controller.Grid.removeCellin</text>
<text text-anchor="middle" x="323" y="-84" font-family="Helvetica,sans-Serif" font-size="10.00">Patch</text>
</a>
</g>
</g>
<!-- Node1&#45;&gt;Node23 -->
<g id="edge28" class="edge"><title>Node1&#45;&gt;Node23</title>
<path fill="none" stroke="midnightblue" d="M110.74,-205.743C133.436,-181.926 177.733,-139.287 224,-116 231.667,-112.141 239.989,-108.88 248.435,-106.13"/>
<polygon fill="midnightblue" stroke="midnightblue" points="107.926,-203.628 103.646,-213.32 113.035,-208.413 107.926,-203.628"/>
</g>
<!-- Node24 -->
<g id="node24" class="node"><title>Node24</title>
<g id="a_node24"><a xlink:href="../../d6/dae/classsimulation_objects_1_1_sugar_patch.html#a8197c32cacf2b75722a72656a1f68b88" target="_top" xlink:title="simulationObjects.SugarPatch.update">
<polygon fill="white" stroke="black" points="224.5,-38.5 224.5,-57.5 421.5,-57.5 421.5,-38.5 224.5,-38.5"/>
<text text-anchor="middle" x="323" y="-45.5" font-family="Helvetica,sans-Serif" font-size="10.00">simulationObjects.SugarPatch.update</text>
</a>
</g>
</g>
<!-- Node1&#45;&gt;Node24 -->
<g id="edge32" class="edge"><title>Node1&#45;&gt;Node24</title>
<path fill="none" stroke="midnightblue" d="M104.761,-204.201C123.192,-170.734 166.486,-101.139 224,-67 230.557,-63.1078 237.756,-59.9922 245.181,-57.5013"/>
<polygon fill="midnightblue" stroke="midnightblue" points="101.497,-202.882 99.8512,-213.348 107.664,-206.193 101.497,-202.882"/>
</g>
<!-- Node25 -->
<g id="node25" class="node"><title>Node25</title>
<g id="a_node25"><a xlink:href="../../d5/da5/classsimulation_objects_1_1_patch.html#ab880fd2c170d6d1c035a1468b8e19465" target="_top" xlink:title="simulationObjects.Patch.update">
<polygon fill="white" stroke="black" points="239,-0.5 239,-19.5 407,-19.5 407,-0.5 239,-0.5"/>
<text text-anchor="middle" x="323" y="-7.5" font-family="Helvetica,sans-Serif" font-size="10.00">simulationObjects.Patch.update</text>
</a>
</g>
</g>
<!-- Node1&#45;&gt;Node25 -->
<g id="edge34" class="edge"><title>Node1&#45;&gt;Node25</title>
<path fill="none" stroke="midnightblue" d="M101.844,-203.842C117.068,-164.195 157.709,-73.1688 224,-29 229.769,-25.1562 236.128,-22.0497 242.751,-19.5439"/>
<polygon fill="midnightblue" stroke="midnightblue" points="98.5041,-202.783 98.2979,-213.376 105.065,-205.224 98.5041,-202.783"/>
</g>
<!-- Node3 -->
<g id="node3" class="node"><title>Node3</title>
<g id="a_node3"><a xlink:href="../../d5/da5/classsimulation_objects_1_1_patch.html#a801de23da5dcdf2e6914b939deefe67e" target="_top" xlink:title="simulationObjects.Patch.create\lNewCell">
<polygon fill="white" stroke="black" points="478.5,-377 478.5,-407 643.5,-407 643.5,-377 478.5,-377"/>
<text text-anchor="start" x="486.5" y="-395" font-family="Helvetica,sans-Serif" font-size="10.00">simulationObjects.Patch.create</text>
<text text-anchor="middle" x="561" y="-384" font-family="Helvetica,sans-Serif" font-size="10.00">NewCell</text>
</a>
</g>
</g>
<!-- Node2&#45;&gt;Node3 -->
<g id="edge2" class="edge"><title>Node2&#45;&gt;Node3</title>
<path fill="none" stroke="midnightblue" d="M353.343,-317.939C380.215,-330.405 421.273,-348.707 458,-362 472.84,-367.371 489.145,-372.501 504.281,-376.951"/>
<polygon fill="midnightblue" stroke="midnightblue" points="354.661,-314.692 344.119,-313.63 351.698,-321.034 354.661,-314.692"/>
</g>
<!-- Node7 -->
<g id="node7" class="node"><title>Node7</title>
<g id="a_node7"><a xlink:href="../../db/d32/classcontroller_1_1_main_controller.html#aecc10abc6b55d8b0b4bd152be5c5d3f0" target="_top" xlink:title="controller.MainController.initialize\lSimulationObjects">
<polygon fill="white" stroke="black" points="1370.5,-353 1370.5,-383 1543.5,-383 1543.5,-353 1370.5,-353"/>
<text text-anchor="start" x="1378.5" y="-371" font-family="Helvetica,sans-Serif" font-size="10.00">controller.MainController.initialize</text>
<text text-anchor="middle" x="1457" y="-360" font-family="Helvetica,sans-Serif" font-size="10.00">SimulationObjects</text>
</a>
</g>
</g>
<!-- Node2&#45;&gt;Node7 -->
<g id="edge12" class="edge"><title>Node2&#45;&gt;Node7</title>
<path fill="none" stroke="midnightblue" d="M401.701,-315.212C408.58,-316.411 415.424,-317.678 422,-319 438.169,-322.251 441.698,-325.498 458,-328 605.427,-350.629 643.846,-348 793,-348 793,-348 793,-348 1019,-348 1141.09,-348 1282.16,-355.886 1370.23,-361.754"/>
<polygon fill="midnightblue" stroke="midnightblue" points="402.068,-311.725 391.624,-313.507 400.9,-318.627 402.068,-311.725"/>
</g>
<!-- Node12 -->
<g id="node12" class="node"><title>Node12</title>
<g id="a_node12"><a xlink:href="../../db/dee/classsimulation_objects_1_1_predator_cell.html#a681bdcb9944d91e15325e477aad1b449" target="_top" xlink:title="simulationObjects.Predator\lCell.leaveEgg">
<polygon fill="white" stroke="black" points="488,-289 488,-319 634,-319 634,-289 488,-289"/>
<text text-anchor="start" x="496" y="-307" font-family="Helvetica,sans-Serif" font-size="10.00">simulationObjects.Predator</text>
<text text-anchor="middle" x="561" y="-296" font-family="Helvetica,sans-Serif" font-size="10.00">Cell.leaveEgg</text>
</a>
</g>
</g>
<!-- Node2&#45;&gt;Node12 -->
<g id="edge13" class="edge"><title>Node2&#45;&gt;Node12</title>
<path fill="none" stroke="midnightblue" d="M418.394,-304C441.568,-304 466.008,-304 487.939,-304"/>
<polygon fill="midnightblue" stroke="midnightblue" points="418.202,-300.5 408.202,-304 418.202,-307.5 418.202,-300.5"/>
</g>
<!-- Node2&#45;&gt;Node15 -->
<g id="edge16" class="edge"><title>Node2&#45;&gt;Node15</title>
<path fill="none" stroke="midnightblue" d="M335.794,-322.089C357.214,-353.935 405.205,-420.815 458,-465 482.995,-485.919 516.59,-503.345 538.271,-513.474"/>
<polygon fill="midnightblue" stroke="midnightblue" points="338.696,-320.132 330.248,-313.738 332.865,-324.004 338.696,-320.132"/>
</g>
<!-- Node2&#45;&gt;Node18 -->
<g id="edge19" class="edge"><title>Node2&#45;&gt;Node18</title>
<path fill="none" stroke="midnightblue" d="M379.943,-292.385C412.231,-285.681 453.185,-277.178 487.873,-269.975"/>
<polygon fill="midnightblue" stroke="midnightblue" points="378.863,-289.034 369.783,-294.494 380.286,-295.888 378.863,-289.034"/>
</g>
<!-- Node2&#45;&gt;Node19 -->
<g id="edge21" class="edge"><title>Node2&#45;&gt;Node19</title>
<path fill="none" stroke="midnightblue" d="M346.546,-319.408C366.96,-333.728 397.496,-356.089 422,-378 439.342,-393.507 437.885,-404.312 458,-416 464.7,-419.893 471.986,-423.183 479.48,-425.962"/>
<polygon fill="midnightblue" stroke="midnightblue" points="348.41,-316.44 338.201,-313.606 344.414,-322.188 348.41,-316.44"/>
</g>
<!-- Node2&#45;&gt;Node20 -->
<g id="edge22" class="edge"><title>Node2&#45;&gt;Node20</title>
<path fill="none" stroke="midnightblue" d="M346.863,-288.706C372.753,-272.079 416.718,-245.893 458,-231 469.882,-226.713 482.893,-223.276 495.526,-220.543"/>
<polygon fill="midnightblue" stroke="midnightblue" points="344.65,-285.971 338.181,-294.361 348.47,-291.836 344.65,-285.971"/>
</g>
<!-- Node2&#45;&gt;Node21 -->
<g id="edge23" class="edge"><title>Node2&#45;&gt;Node21</title>
<path fill="none" stroke="midnightblue" d="M339.139,-286.642C362.136,-261.478 408.466,-215.331 458,-192 466.311,-188.086 475.359,-184.977 484.52,-182.508"/>
<polygon fill="midnightblue" stroke="midnightblue" points="336.334,-284.527 332.263,-294.308 341.546,-289.201 336.334,-284.527"/>
</g>
<!-- Node3&#45;&gt;Node4 -->
<g id="edge3" class="edge"><title>Node3&#45;&gt;Node4</title>
<path fill="none" stroke="midnightblue" d="M653.963,-392C673.06,-392 693.052,-392 711.732,-392"/>
<polygon fill="midnightblue" stroke="midnightblue" points="653.767,-388.5 643.767,-392 653.767,-395.5 653.767,-388.5"/>
</g>
<!-- Node5 -->
<g id="node5" class="node"><title>Node5</title>
<g id="a_node5"><a xlink:href="../../db/d32/classcontroller_1_1_main_controller.html#a20c66a59cfde2b9f8ac2b8bf67e3996d" target="_top" xlink:title="controller.MainController.toggle\lCellStateForMouseEvent">
<polygon fill="white" stroke="black" points="935.5,-377 935.5,-407 1100.5,-407 1100.5,-377 935.5,-377"/>
<text text-anchor="start" x="943.5" y="-395" font-family="Helvetica,sans-Serif" font-size="10.00">controller.MainController.toggle</text>
<text text-anchor="middle" x="1018" y="-384" font-family="Helvetica,sans-Serif" font-size="10.00">CellStateForMouseEvent</text>
</a>
</g>
</g>
<!-- Node4&#45;&gt;Node5 -->
<g id="edge4" class="edge"><title>Node4&#45;&gt;Node5</title>
<path fill="none" stroke="midnightblue" d="M886.155,-392C902.465,-392 919.366,-392 935.387,-392"/>
<polygon fill="midnightblue" stroke="midnightblue" points="886.089,-388.5 876.089,-392 886.089,-395.5 886.089,-388.5"/>
</g>
<!-- Node6 -->
<g id="node6" class="node"><title>Node6</title>
<g id="a_node6"><a xlink:href="../../db/d32/classcontroller_1_1_main_controller.html#ad28f21e1510291d95a69a9f488a20d89" target="_top" xlink:title="controller.MainController.createGrid">
<polygon fill="white" stroke="black" points="1148.5,-379.5 1148.5,-398.5 1333.5,-398.5 1333.5,-379.5 1148.5,-379.5"/>
<text text-anchor="middle" x="1241" y="-386.5" font-family="Helvetica,sans-Serif" font-size="10.00">controller.MainController.createGrid</text>
</a>
</g>
</g>
<!-- Node5&#45;&gt;Node6 -->
<g id="edge5" class="edge"><title>Node5&#45;&gt;Node6</title>
<path fill="none" stroke="midnightblue" d="M1110.93,-390.752C1123.27,-390.585 1135.91,-390.413 1148.24,-390.246"/>
<polygon fill="midnightblue" stroke="midnightblue" points="1110.62,-387.256 1100.66,-390.891 1110.71,-394.255 1110.62,-387.256"/>
</g>
<!-- Node6&#45;&gt;Node7 -->
<g id="edge6" class="edge"><title>Node6&#45;&gt;Node7</title>
<path fill="none" stroke="midnightblue" d="M1343.69,-379.021C1352.58,-378.148 1361.52,-377.271 1370.27,-376.413"/>
<polygon fill="midnightblue" stroke="midnightblue" points="1343.3,-375.543 1333.69,-380.003 1343.98,-382.509 1343.3,-375.543"/>
</g>
<!-- Node8 -->
<g id="node8" class="node"><title>Node8</title>
<g id="a_node8"><a xlink:href="../../db/d32/classcontroller_1_1_main_controller.html#a7cfedb8e16c6b9d6394054d03193da82" target="_top" xlink:title="controller.MainController.initialize\lSimulationWithData">
<polygon fill="white" stroke="black" points="1580.5,-353 1580.5,-383 1753.5,-383 1753.5,-353 1580.5,-353"/>
<text text-anchor="start" x="1588.5" y="-371" font-family="Helvetica,sans-Serif" font-size="10.00">controller.MainController.initialize</text>
<text text-anchor="middle" x="1667" y="-360" font-family="Helvetica,sans-Serif" font-size="10.00">SimulationWithData</text>
</a>
</g>
</g>
<!-- Node7&#45;&gt;Node8 -->
<g id="edge7" class="edge"><title>Node7&#45;&gt;Node8</title>
<path fill="none" stroke="midnightblue" d="M1553.59,-368C1562.56,-368 1571.62,-368 1580.49,-368"/>
<polygon fill="midnightblue" stroke="midnightblue" points="1553.5,-364.5 1543.5,-368 1553.5,-371.5 1553.5,-364.5"/>
</g>
<!-- Node9 -->
<g id="node9" class="node"><title>Node9</title>
<g id="a_node9"><a xlink:href="../../db/ddb/classcontroller_1_1_user_interface.html#a9cf1e21253003993661082c9d42926b2" target="_top" xlink:title="controller.UserInterface.make\lBottomPanel">
<polygon fill="white" stroke="black" points="1790,-331 1790,-361 1948,-361 1948,-331 1790,-331"/>
<text text-anchor="start" x="1798" y="-349" font-family="Helvetica,sans-Serif" font-size="10.00">controller.UserInterface.make</text>
<text text-anchor="middle" x="1869" y="-338" font-family="Helvetica,sans-Serif" font-size="10.00">BottomPanel</text>
</a>
</g>
</g>
<!-- Node8&#45;&gt;Node9 -->
<g id="edge8" class="edge"><title>Node8&#45;&gt;Node9</title>
<path fill="none" stroke="midnightblue" d="M1763.85,-357.457C1772.53,-356.502 1781.26,-355.542 1789.76,-354.606"/>
<polygon fill="midnightblue" stroke="midnightblue" points="1763.25,-354.002 1753.69,-358.574 1764.01,-360.96 1763.25,-354.002"/>
</g>
<!-- Node10 -->
<g id="node10" class="node"><title>Node10</title>
<g id="a_node10"><a xlink:href="../../db/ddb/classcontroller_1_1_user_interface.html#aad62b84bbc23f683c844ace519feb9d2" target="_top" xlink:title="controller.UserInterface.reset">
<polygon fill="white" stroke="black" points="1984,-380.5 1984,-399.5 2140,-399.5 2140,-380.5 1984,-380.5"/>
<text text-anchor="middle" x="2062" y="-387.5" font-family="Helvetica,sans-Serif" font-size="10.00">controller.UserInterface.reset</text>
</a>
</g>
</g>
<!-- Node9&#45;&gt;Node10 -->
<g id="edge9" class="edge"><title>Node9&#45;&gt;Node10</title>
<path fill="none" stroke="midnightblue" d="M1945.18,-363.319C1970.56,-369.165 1997.94,-375.473 2019.71,-380.488"/>
<polygon fill="midnightblue" stroke="midnightblue" points="1945.73,-359.854 1935.2,-361.019 1944.16,-366.675 1945.73,-359.854"/>
</g>
<!-- Node11 -->
<g id="node11" class="node"><title>Node11</title>
<g id="a_node11"><a xlink:href="../../db/ddb/classcontroller_1_1_user_interface.html#a6dd740b89d748c372a5ef9959e1bd7c4" target="_top" xlink:title="controller.UserInterface.\lUserInterface">
<polygon fill="white" stroke="black" points="1996.5,-331 1996.5,-361 2127.5,-361 2127.5,-331 1996.5,-331"/>
<text text-anchor="start" x="2004.5" y="-349" font-family="Helvetica,sans-Serif" font-size="10.00">controller.UserInterface.</text>
<text text-anchor="middle" x="2062" y="-338" font-family="Helvetica,sans-Serif" font-size="10.00">UserInterface</text>
</a>
</g>
</g>
<!-- Node9&#45;&gt;Node11 -->
<g id="edge11" class="edge"><title>Node9&#45;&gt;Node11</title>
<path fill="none" stroke="midnightblue" d="M1958.41,-346C1971.17,-346 1984.1,-346 1996.27,-346"/>
<polygon fill="midnightblue" stroke="midnightblue" points="1958.24,-342.5 1948.24,-346 1958.24,-349.5 1958.24,-342.5"/>
</g>
<!-- Node10&#45;&gt;Node8 -->
<g id="edge10" class="edge"><title>Node10&#45;&gt;Node8</title>
<path fill="none" stroke="midnightblue" d="M1973.44,-385.099C1907.94,-381.432 1818.83,-376.443 1753.76,-372.801"/>
<polygon fill="midnightblue" stroke="midnightblue" points="1973.57,-388.611 1983.75,-385.675 1973.96,-381.622 1973.57,-388.611"/>
</g>
<!-- Node13 -->
<g id="node13" class="node"><title>Node13</title>
<g id="a_node13"><a xlink:href="../../db/dee/classsimulation_objects_1_1_predator_cell.html#a0f04c13ccdd5e4845f2e5975ec63952f" target="_top" xlink:title="simulationObjects.Predator\lCell.updateStatesandMakeMoves">
<polygon fill="white" stroke="black" points="706,-240 706,-270 882,-270 882,-240 706,-240"/>
<text text-anchor="start" x="714" y="-258" font-family="Helvetica,sans-Serif" font-size="10.00">simulationObjects.Predator</text>
<text text-anchor="middle" x="794" y="-247" font-family="Helvetica,sans-Serif" font-size="10.00">Cell.updateStatesandMakeMoves</text>
</a>
</g>
</g>
<!-- Node12&#45;&gt;Node13 -->
<g id="edge14" class="edge"><title>Node12&#45;&gt;Node13</title>
<path fill="none" stroke="midnightblue" d="M642.674,-286.887C668.597,-281.389 697.102,-275.342 722.257,-270.006"/>
<polygon fill="midnightblue" stroke="midnightblue" points="641.934,-283.466 632.877,-288.965 643.386,-290.314 641.934,-283.466"/>
</g>
<!-- Node14 -->
<g id="node14" class="node"><title>Node14</title>
<g id="a_node14"><a xlink:href="../../db/dee/classsimulation_objects_1_1_predator_cell.html#a954732c3db3474e874b5023303baa2ed" target="_top" xlink:title="simulationObjects.Predator\lCell.update">
<polygon fill="white" stroke="black" points="945,-240 945,-270 1091,-270 1091,-240 945,-240"/>
<text text-anchor="start" x="953" y="-258" font-family="Helvetica,sans-Serif" font-size="10.00">simulationObjects.Predator</text>
<text text-anchor="middle" x="1018" y="-247" font-family="Helvetica,sans-Serif" font-size="10.00">Cell.update</text>
</a>
</g>
</g>
<!-- Node13&#45;&gt;Node14 -->
<g id="edge15" class="edge"><title>Node13&#45;&gt;Node14</title>
<path fill="none" stroke="midnightblue" d="M892.408,-255C910.024,-255 928.103,-255 944.835,-255"/>
<polygon fill="midnightblue" stroke="midnightblue" points="892.103,-251.5 882.103,-255 892.103,-258.5 892.103,-251.5"/>
</g>
<!-- Node16 -->
<g id="node16" class="node"><title>Node16</title>
<g id="a_node16"><a xlink:href="../../db/d71/classsimulation_objects_1_1_sugar_cell.html#afca541b3cc884269b4f778da83fb149d" target="_top" xlink:title="simulationObjects.SugarCell.update\lStatesandMakeMoves">
<polygon fill="white" stroke="black" points="700,-508 700,-538 888,-538 888,-508 700,-508"/>
<text text-anchor="start" x="708" y="-526" font-family="Helvetica,sans-Serif" font-size="10.00">simulationObjects.SugarCell.update</text>
<text text-anchor="middle" x="794" y="-515" font-family="Helvetica,sans-Serif" font-size="10.00">StatesandMakeMoves</text>
</a>
</g>
</g>
<!-- Node15&#45;&gt;Node16 -->
<g id="edge17" class="edge"><title>Node15&#45;&gt;Node16</title>
<path fill="none" stroke="midnightblue" d="M674.341,-523C682.888,-523 691.458,-523 699.864,-523"/>
<polygon fill="midnightblue" stroke="midnightblue" points="674.329,-519.5 664.329,-523 674.329,-526.5 674.329,-519.5"/>
</g>
<!-- Node17 -->
<g id="node17" class="node"><title>Node17</title>
<g id="a_node17"><a xlink:href="../../db/d71/classsimulation_objects_1_1_sugar_cell.html#a4f3c5edbe0c43ea62d21a9658fbc11c7" target="_top" xlink:title="simulationObjects.SugarCell.update">
<polygon fill="white" stroke="black" points="924,-513.5 924,-532.5 1112,-532.5 1112,-513.5 924,-513.5"/>
<text text-anchor="middle" x="1018" y="-520.5" font-family="Helvetica,sans-Serif" font-size="10.00">simulationObjects.SugarCell.update</text>
</a>
</g>
</g>
<!-- Node16&#45;&gt;Node17 -->
<g id="edge18" class="edge"><title>Node16&#45;&gt;Node17</title>
<path fill="none" stroke="midnightblue" d="M898.425,-523C906.857,-523 915.347,-523 923.7,-523"/>
<polygon fill="midnightblue" stroke="midnightblue" points="898.183,-519.5 888.183,-523 898.183,-526.5 898.183,-519.5"/>
</g>
<!-- Node18&#45;&gt;Node13 -->
<g id="edge20" class="edge"><title>Node18&#45;&gt;Node13</title>
<path fill="none" stroke="midnightblue" d="M644.378,-255C664.232,-255 685.512,-255 705.587,-255"/>
<polygon fill="midnightblue" stroke="midnightblue" points="644.14,-251.5 634.14,-255 644.14,-258.5 644.14,-251.5"/>
</g>
<!-- Node22&#45;&gt;Node13 -->
<g id="edge25" class="edge"><title>Node22&#45;&gt;Node13</title>
<path fill="none" stroke="midnightblue" d="M406.306,-130.287C476.91,-124.303 580.21,-123.297 664,-154 713.141,-172.007 758.283,-216.306 779.789,-239.799"/>
<polygon fill="midnightblue" stroke="midnightblue" points="405.779,-126.82 396.133,-131.203 406.406,-133.792 405.779,-126.82"/>
</g>
</g>
</svg>
