<?xml version="1.0" encoding="UTF-8" standalone="no"?>
<!DOCTYPE svg PUBLIC "-//W3C//DTD SVG 1.1//EN"
 "http://www.w3.org/Graphics/SVG/1.1/DTD/svg11.dtd">
<!-- Generated by graphviz version 2.36.0 (20140111.2315)
 -->
<!-- Title: simulationObjects.Patch.getRandomEmptyPatch Pages: 1 -->
<svg width="328pt" height="38pt"
 viewBox="0.00 0.00 328.00 38.00" xmlns="http://www.w3.org/2000/svg" xmlns:xlink="http://www.w3.org/1999/xlink">
<g id="graph0" class="graph" transform="scale(1 1) rotate(0) translate(4 34)">
<title>simulationObjects.Patch.getRandomEmptyPatch</title>
<polygon fill="white" stroke="none" points="-4,4 -4,-34 324,-34 324,4 -4,4"/>
<!-- Node1 -->
<g id="node1" class="node"><title>Node1</title>
<polygon fill="#bfbfbf" stroke="black" points="0,-0 0,-30 150,-30 150,-0 0,-0"/>
<text text-anchor="start" x="8" y="-18" font-family="Helvetica,sans-Serif" font-size="10.00">simulationObjects.Patch.get</text>
<text text-anchor="middle" x="75" y="-7" font-family="Helvetica,sans-Serif" font-size="10.00">RandomEmptyPatch</text>
</g>
<!-- Node2 -->
<g id="node2" class="node"><title>Node2</title>
<g id="a_node2"><a xlink:href="../../d7/d97/classcontroller_1_1_grid.html#a3836cf794f6d28c6616c6bf81e6eb413" target="_top" xlink:title="controller.Grid.findEmpty\lPatch">
<polygon fill="white" stroke="black" points="186,-0 186,-30 320,-30 320,-0 186,-0"/>
<text text-anchor="start" x="194" y="-18" font-family="Helvetica,sans-Serif" font-size="10.00">controller.Grid.findEmpty</text>
<text text-anchor="middle" x="253" y="-7" font-family="Helvetica,sans-Serif" font-size="10.00">Patch</text>
</a>
</g>
</g>
<!-- Node1&#45;&gt;Node2 -->
<g id="edge1" class="edge"><title>Node1&#45;&gt;Node2</title>
<path fill="none" stroke="midnightblue" d="M150.13,-15C158.545,-15 167.134,-15 175.578,-15"/>
<polygon fill="midnightblue" stroke="midnightblue" points="175.785,-18.5001 185.785,-15 175.785,-11.5001 175.785,-18.5001"/>
</g>
</g>
</svg>
