<?xml version="1.0" encoding="UTF-8" standalone="no"?>
<!DOCTYPE svg PUBLIC "-//W3C//DTD SVG 1.1//EN"
 "http://www.w3.org/Graphics/SVG/1.1/DTD/svg11.dtd">
<!-- Generated by graphviz version 2.36.0 (20140111.2315)
 -->
<!-- Title: simulationObjects.Patch.toggleCellState Pages: 1 -->
<!--zoomable 245 -->
<svg id="main" version="1.1" xmlns="http://www.w3.org/2000/svg" xmlns:xlink="http://www.w3.org/1999/xlink" xml:space="preserve" onload="init(evt)">
<style type="text/css"><![CDATA[
.edge:hover path { stroke: red; }
.edge:hover polygon { stroke: red; fill: red; }
]]></style>
<script type="text/javascript"><![CDATA[
var edges = document.getElementsByTagName('g');
if (edges && edges.length) {
  for (var i=0;i<edges.length;i++) {
    if (edges[i].id.substr(0,4)=='edge') {
      edges[i].setAttribute('class','edge');
    }
  }
}
]]></script>
        <defs>
                <circle id="rim" cx="0" cy="0" r="7"/>
                <circle id="rim2" cx="0" cy="0" r="3.5"/>
                <g id="zoomPlus">
                        <use xlink:href="#rim" fill="#404040">
                                <set attributeName="fill" to="#808080" begin="zoomplus.mouseover" end="zoomplus.mouseout"/>
                        </use>
                        <path d="M-4,0h8M0,-4v8" fill="none" stroke="white" stroke-width="1.5" pointer-events="none"/>
                </g>
                <g id="zoomMin">
                        <use xlink:href="#rim" fill="#404040">
                                <set attributeName="fill" to="#808080" begin="zoomminus.mouseover" end="zoomminus.mouseout"/>
                        </use>
                        <path d="M-4,0h8" fill="none" stroke="white" stroke-width="1.5" pointer-events="none"/>
                </g>
                <g id="dirArrow">
                        <path fill="none" stroke="white" stroke-width="1.5" d="M0,-3.0v7 M-2.5,-0.5L0,-3.0L2.5,-0.5"/>
                </g>
               <g id="resetDef">
                       <use xlink:href="#rim2" fill="#404040">
                               <set attributeName="fill" to="#808080" begin="reset.mouseover" end="reset.mouseout"/>
                       </use>
               </g>
        </defs>

<script type="text/javascript">
var viewWidth = 1014;
var viewHeight = 245;
var sectionId = 'dynsection-22';
</script>
<script xlink:href="../../svgpan.js"/>
<svg id="graph" class="graph">
<g id="viewport">
<title>simulationObjects.Patch.toggleCellState</title>
<polygon fill="white" stroke="none" points="-4,4 -4,-241 1010,-241 1010,4 -4,4"/>
<!-- Node1 -->
<g id="node1" class="node"><title>Node1</title>
<polygon fill="#bfbfbf" stroke="black" points="0,-82 0,-112 164,-112 164,-82 0,-82"/>
<text text-anchor="start" x="8" y="-100" font-family="Helvetica,sans-Serif" font-size="10.00">simulationObjects.Patch.toggle</text>
<text text-anchor="middle" x="82" y="-89" font-family="Helvetica,sans-Serif" font-size="10.00">CellState</text>
</g>
<!-- Node2 -->
<g id="node2" class="node"><title>Node2</title>
<g id="a_node2"><a xlink:href="../../d5/da5/classsimulation_objects_1_1_patch.html#a801de23da5dcdf2e6914b939deefe67e" target="_top" xlink:title="simulationObjects.Patch.create\lNewCell">
<polygon fill="white" stroke="black" points="200.5,-120 200.5,-150 365.5,-150 365.5,-120 200.5,-120"/>
<text text-anchor="start" x="208.5" y="-138" font-family="Helvetica,sans-Serif" font-size="10.00">simulationObjects.Patch.create</text>
<text text-anchor="middle" x="283" y="-127" font-family="Helvetica,sans-Serif" font-size="10.00">NewCell</text>
</a>
</g>
</g>
<!-- Node1&#45;&gt;Node2 -->
<g id="edge1" class="edge"><title>Node1&#45;&gt;Node2</title>
<path fill="none" stroke="midnightblue" d="M161.65,-112.019C172.024,-113.999 182.714,-116.041 193.241,-118.051"/>
<polygon fill="midnightblue" stroke="midnightblue" points="192.791,-121.528 203.27,-119.966 194.104,-114.652 192.791,-121.528"/>
</g>
<!-- Node4 -->
<g id="node4" class="node"><title>Node4</title>
<g id="a_node4"><a xlink:href="../../d5/da5/classsimulation_objects_1_1_patch.html#ac18f8e7cdd82ed885a6a92f066da2d38" target="_top" xlink:title="simulationObjects.Patch.removeCell">
<polygon fill="white" stroke="black" points="608,-84.5 608,-103.5 796,-103.5 796,-84.5 608,-84.5"/>
<text text-anchor="middle" x="702" y="-91.5" font-family="Helvetica,sans-Serif" font-size="10.00">simulationObjects.Patch.removeCell</text>
</a>
</g>
</g>
<!-- Node1&#45;&gt;Node4 -->
<g id="edge12" class="edge"><title>Node1&#45;&gt;Node4</title>
<path fill="none" stroke="midnightblue" d="M164.389,-88.8408C261.485,-80.2627 428.691,-69.1465 572,-78 589.699,-79.0934 608.687,-81.0231 626.505,-83.1726"/>
<polygon fill="midnightblue" stroke="midnightblue" points="626.486,-86.6971 636.842,-84.4589 627.35,-79.7507 626.486,-86.6971"/>
</g>
<!-- Node9 -->
<g id="node9" class="node"><title>Node9</title>
<g id="a_node9"><a xlink:href="../../d2/d6e/classsimulation_objects_1_1_cell.html#ab7b10d67ea8a16bcb15cc2b8d079b3a1" target="_top" xlink:title="simulationObjects.Cell.set\lState">
<polygon fill="white" stroke="black" points="417,-202 417,-232 557,-232 557,-202 417,-202"/>
<text text-anchor="start" x="425" y="-220" font-family="Helvetica,sans-Serif" font-size="10.00">simulationObjects.Cell.set</text>
<text text-anchor="middle" x="487" y="-209" font-family="Helvetica,sans-Serif" font-size="10.00">State</text>
</a>
</g>
</g>
<!-- Node1&#45;&gt;Node9 -->
<g id="edge13" class="edge"><title>Node1&#45;&gt;Node9</title>
<path fill="none" stroke="midnightblue" d="M106.714,-112.189C129.713,-126.275 166.019,-146.839 200,-159 267.863,-183.288 348.628,-198.493 406.996,-207.21"/>
<polygon fill="midnightblue" stroke="midnightblue" points="406.492,-210.674 416.894,-208.658 407.506,-203.747 406.492,-210.674"/>
</g>
<!-- Node12 -->
<g id="node12" class="node"><title>Node12</title>
<g id="a_node12"><a xlink:href="../../d2/d6e/classsimulation_objects_1_1_cell.html#a8b09099316cc34ad6f5ceec3d03d7584" target="_top" xlink:title="simulationObjects.Cell.get\lNextState">
<polygon fill="white" stroke="black" points="212.5,-0 212.5,-30 353.5,-30 353.5,-0 212.5,-0"/>
<text text-anchor="start" x="220.5" y="-18" font-family="Helvetica,sans-Serif" font-size="10.00">simulationObjects.Cell.get</text>
<text text-anchor="middle" x="283" y="-7" font-family="Helvetica,sans-Serif" font-size="10.00">NextState</text>
</a>
</g>
</g>
<!-- Node1&#45;&gt;Node12 -->
<g id="edge11" class="edge"><title>Node1&#45;&gt;Node12</title>
<path fill="none" stroke="midnightblue" d="M115.528,-81.8352C138.865,-71.1297 171.152,-56.6722 200,-45 209.584,-41.1222 219.882,-37.1812 229.832,-33.486"/>
<polygon fill="midnightblue" stroke="midnightblue" points="231.055,-36.7657 239.232,-30.0286 228.638,-30.1961 231.055,-36.7657"/>
</g>
<!-- Node3 -->
<g id="node3" class="node"><title>Node3</title>
<g id="a_node3"><a xlink:href="../../d5/da5/classsimulation_objects_1_1_patch.html#ac05b7dd86c9f30b498d93d62cbbba9a4" target="_top" xlink:title="simulationObjects.Patch.addCell">
<polygon fill="white" stroke="black" points="402,-163.5 402,-182.5 572,-182.5 572,-163.5 402,-163.5"/>
<text text-anchor="middle" x="487" y="-170.5" font-family="Helvetica,sans-Serif" font-size="10.00">simulationObjects.Patch.addCell</text>
</a>
</g>
</g>
<!-- Node2&#45;&gt;Node3 -->
<g id="edge2" class="edge"><title>Node2&#45;&gt;Node3</title>
<path fill="none" stroke="midnightblue" d="M363.836,-150.019C384.402,-153.887 406.194,-157.987 425.59,-161.636"/>
<polygon fill="midnightblue" stroke="midnightblue" points="425.02,-165.09 435.495,-163.499 426.315,-158.211 425.02,-165.09"/>
</g>
<!-- Node2&#45;&gt;Node9 -->
<g id="edge8" class="edge"><title>Node2&#45;&gt;Node9</title>
<path fill="none" stroke="midnightblue" d="M312.044,-150.131C335.603,-162.453 370.391,-179.753 402,-192 408.196,-194.401 414.723,-196.71 421.287,-198.889"/>
<polygon fill="midnightblue" stroke="midnightblue" points="420.305,-202.25 430.897,-201.984 422.451,-195.587 420.305,-202.25"/>
</g>
<!-- Node10 -->
<g id="node10" class="node"><title>Node10</title>
<g id="a_node10"><a xlink:href="../../d2/d6e/classsimulation_objects_1_1_cell.html#a79ed116f88362c4ef4d906c7a6988fe1" target="_top" xlink:title="simulationObjects.Cell.setX">
<polygon fill="white" stroke="black" points="414,-125.5 414,-144.5 560,-144.5 560,-125.5 414,-125.5"/>
<text text-anchor="middle" x="487" y="-132.5" font-family="Helvetica,sans-Serif" font-size="10.00">simulationObjects.Cell.setX</text>
</a>
</g>
</g>
<!-- Node2&#45;&gt;Node10 -->
<g id="edge9" class="edge"><title>Node2&#45;&gt;Node10</title>
<path fill="none" stroke="midnightblue" d="M365.579,-135C378.193,-135 391.228,-135 403.854,-135"/>
<polygon fill="midnightblue" stroke="midnightblue" points="403.878,-138.5 413.878,-135 403.878,-131.5 403.878,-138.5"/>
</g>
<!-- Node11 -->
<g id="node11" class="node"><title>Node11</title>
<g id="a_node11"><a xlink:href="../../d2/d6e/classsimulation_objects_1_1_cell.html#a94febf4dbd9046affdb7f81e36b8c164" target="_top" xlink:title="simulationObjects.Cell.setY">
<polygon fill="white" stroke="black" points="414,-87.5 414,-106.5 560,-106.5 560,-87.5 414,-87.5"/>
<text text-anchor="middle" x="487" y="-94.5" font-family="Helvetica,sans-Serif" font-size="10.00">simulationObjects.Cell.setY</text>
</a>
</g>
</g>
<!-- Node2&#45;&gt;Node11 -->
<g id="edge10" class="edge"><title>Node2&#45;&gt;Node11</title>
<path fill="none" stroke="midnightblue" d="M363.836,-119.981C384.402,-116.113 406.194,-112.013 425.59,-108.364"/>
<polygon fill="midnightblue" stroke="midnightblue" points="426.315,-111.789 435.495,-106.501 425.02,-104.91 426.315,-111.789"/>
</g>
<!-- Node3&#45;&gt;Node4 -->
<g id="edge3" class="edge"><title>Node3&#45;&gt;Node4</title>
<path fill="none" stroke="midnightblue" d="M538.236,-163.473C549.474,-160.836 561.246,-157.67 572,-154 608.688,-141.478 648.878,-121.758 674.486,-108.372"/>
<polygon fill="midnightblue" stroke="midnightblue" points="676.344,-111.349 683.548,-103.581 673.072,-105.161 676.344,-111.349"/>
</g>
<!-- Node5 -->
<g id="node5" class="node"><title>Node5</title>
<g id="a_node5"><a xlink:href="../../d5/da5/classsimulation_objects_1_1_patch.html#a06f00537a57f3678cf147c580b92de0d" target="_top" xlink:title="simulationObjects.Patch.update\lCellConstraints">
<polygon fill="white" stroke="black" points="618,-158 618,-188 786,-188 786,-158 618,-158"/>
<text text-anchor="start" x="626" y="-176" font-family="Helvetica,sans-Serif" font-size="10.00">simulationObjects.Patch.update</text>
<text text-anchor="middle" x="702" y="-165" font-family="Helvetica,sans-Serif" font-size="10.00">CellConstraints</text>
</a>
</g>
</g>
<!-- Node3&#45;&gt;Node5 -->
<g id="edge4" class="edge"><title>Node3&#45;&gt;Node5</title>
<path fill="none" stroke="midnightblue" d="M572.183,-173C583.785,-173 595.757,-173 607.514,-173"/>
<polygon fill="midnightblue" stroke="midnightblue" points="607.776,-176.5 617.776,-173 607.776,-169.5 607.776,-176.5"/>
</g>
<!-- Node6 -->
<g id="node6" class="node"><title>Node6</title>
<g id="a_node6"><a xlink:href="../../d0/d1a/classsimulation_objects_1_1_patch_body.html#a466dadbe30fb2f8360163881e0db9295" target="_top" xlink:title="simulationObjects.PatchBody.get\lPatchWidth">
<polygon fill="white" stroke="black" points="832.5,-207 832.5,-237 1005.5,-237 1005.5,-207 832.5,-207"/>
<text text-anchor="start" x="840.5" y="-225" font-family="Helvetica,sans-Serif" font-size="10.00">simulationObjects.PatchBody.get</text>
<text text-anchor="middle" x="919" y="-214" font-family="Helvetica,sans-Serif" font-size="10.00">PatchWidth</text>
</a>
</g>
</g>
<!-- Node5&#45;&gt;Node6 -->
<g id="edge5" class="edge"><title>Node5&#45;&gt;Node6</title>
<path fill="none" stroke="midnightblue" d="M768.968,-188.035C792.185,-193.326 818.456,-199.313 842.404,-204.771"/>
<polygon fill="midnightblue" stroke="midnightblue" points="841.629,-208.184 852.157,-206.994 843.184,-201.359 841.629,-208.184"/>
</g>
<!-- Node7 -->
<g id="node7" class="node"><title>Node7</title>
<g id="a_node7"><a xlink:href="../../d0/d1a/classsimulation_objects_1_1_patch_body.html#a7be1762ade4eaee79c26ac524eb97f33" target="_top" xlink:title="simulationObjects.PatchBody.get\lCenter">
<polygon fill="white" stroke="black" points="832.5,-158 832.5,-188 1005.5,-188 1005.5,-158 832.5,-158"/>
<text text-anchor="start" x="840.5" y="-176" font-family="Helvetica,sans-Serif" font-size="10.00">simulationObjects.PatchBody.get</text>
<text text-anchor="middle" x="919" y="-165" font-family="Helvetica,sans-Serif" font-size="10.00">Center</text>
</a>
</g>
</g>
<!-- Node5&#45;&gt;Node7 -->
<g id="edge6" class="edge"><title>Node5&#45;&gt;Node7</title>
<path fill="none" stroke="midnightblue" d="M786.125,-173C797.941,-173 810.173,-173 822.206,-173"/>
<polygon fill="midnightblue" stroke="midnightblue" points="822.254,-176.5 832.254,-173 822.254,-169.5 822.254,-176.5"/>
</g>
<!-- Node8 -->
<g id="node8" class="node"><title>Node8</title>
<g id="a_node8"><a xlink:href="../../d0/d1a/classsimulation_objects_1_1_patch_body.html#a268e88a7cb1f5feb98f49e230475c2ba" target="_top" xlink:title="simulationObjects.PatchBody.get\lPatchHeight">
<polygon fill="white" stroke="black" points="832.5,-109 832.5,-139 1005.5,-139 1005.5,-109 832.5,-109"/>
<text text-anchor="start" x="840.5" y="-127" font-family="Helvetica,sans-Serif" font-size="10.00">simulationObjects.PatchBody.get</text>
<text text-anchor="middle" x="919" y="-116" font-family="Helvetica,sans-Serif" font-size="10.00">PatchHeight</text>
</a>
</g>
</g>
<!-- Node5&#45;&gt;Node8 -->
<g id="edge7" class="edge"><title>Node5&#45;&gt;Node8</title>
<path fill="none" stroke="midnightblue" d="M768.968,-157.965C792.185,-152.674 818.456,-146.687 842.404,-141.229"/>
<polygon fill="midnightblue" stroke="midnightblue" points="843.184,-144.641 852.157,-139.006 841.629,-137.816 843.184,-144.641"/>
</g>
</g>
</svg>
        <g id="navigator" transform="translate(0 0)" fill="#404254">
                <rect fill="#f2f5e9" fill-opacity="0.5" stroke="#606060" stroke-width=".5" x="0" y="0" width="60" height="60"/>
                <use id="zoomplus" xlink:href="#zoomPlus" x="17" y="9" onmousedown="handleZoom(evt,'in')"/>
                <use id="zoomminus" xlink:href="#zoomMin" x="42" y="9" onmousedown="handleZoom(evt,'out')"/>
                <use id="reset" xlink:href="#resetDef" x="30" y="36" onmousedown="handleReset()"/>
                <g id="arrowUp" xlink:href="#dirArrow" transform="translate(30 24)" onmousedown="handlePan(0,-1)">
                  <use xlink:href="#rim" fill="#404040">
                        <set attributeName="fill" to="#808080" begin="arrowUp.mouseover" end="arrowUp.mouseout"/>
                  </use>
                  <path fill="none" stroke="white" stroke-width="1.5" d="M0,-3.0v7 M-2.5,-0.5L0,-3.0L2.5,-0.5"/>
                </g>
                <g id="arrowRight" xlink:href="#dirArrow" transform="rotate(90) translate(36 -43)" onmousedown="handlePan(1,0)">
                  <use xlink:href="#rim" fill="#404040">
                        <set attributeName="fill" to="#808080" begin="arrowRight.mouseover" end="arrowRight.mouseout"/>
                  </use>
                  <path fill="none" stroke="white" stroke-width="1.5" d="M0,-3.0v7 M-2.5,-0.5L0,-3.0L2.5,-0.5"/>
                </g>
                <g id="arrowDown" xlink:href="#dirArrow" transform="rotate(180) translate(-30 -48)" onmousedown="handlePan(0,1)">
                  <use xlink:href="#rim" fill="#404040">
                        <set attributeName="fill" to="#808080" begin="arrowDown.mouseover" end="arrowDown.mouseout"/>
                  </use>
                  <path fill="none" stroke="white" stroke-width="1.5" d="M0,-3.0v7 M-2.5,-0.5L0,-3.0L2.5,-0.5"/>
                </g>
                <g id="arrowLeft" xlink:href="#dirArrow" transform="rotate(270) translate(-36 17)" onmousedown="handlePan(-1,0)">
                  <use xlink:href="#rim" fill="#404040">
                        <set attributeName="fill" to="#808080" begin="arrowLeft.mouseover" end="arrowLeft.mouseout"/>
                  </use>
                  <path fill="none" stroke="white" stroke-width="1.5" d="M0,-3.0v7 M-2.5,-0.5L0,-3.0L2.5,-0.5"/>
                </g>
        </g>
        <svg viewBox="0 0 15 15" width="100%" height="30px" preserveAspectRatio="xMaxYMin meet">
         <g id="arrow_out" transform="scale(0.3 0.3)">
          <a xlink:href="classsimulation_objects_1_1_patch_a982ffbab2f32d5955c2c59b5a89fc4a1_cgraph_org.svg" target="_base">
           <rect id="button" ry="5" rx="5" y="6" x="6" height="38" width="38"
                fill="#f2f5e9" fill-opacity="0.5" stroke="#606060" stroke-width="1.0"/>
           <path id="arrow"
             d="M 11.500037,31.436501 C 11.940474,20.09759 22.043105,11.32322 32.158766,21.979434 L 37.068811,17.246167 C 37.068811,17.246167 37.088388,32 37.088388,32 L 22.160133,31.978069 C 22.160133,31.978069 26.997745,27.140456 26.997745,27.140456 C 18.528582,18.264221 13.291696,25.230495 11.500037,31.436501 z"
             style="fill:#404040;"/>
          </a>
         </g>
        </svg>
</svg>
