<?xml version="1.0" encoding="UTF-8" standalone="no"?>
<!DOCTYPE svg PUBLIC "-//W3C//DTD SVG 1.1//EN"
 "http://www.w3.org/Graphics/SVG/1.1/DTD/svg11.dtd">
<!-- Generated by graphviz version 2.36.0 (20140111.2315)
 -->
<!-- Title: simulationObjects.Patch.createNewCell Pages: 1 -->
<!--zoomable 186 -->
<svg id="main" version="1.1" xmlns="http://www.w3.org/2000/svg" xmlns:xlink="http://www.w3.org/1999/xlink" xml:space="preserve" onload="init(evt)">
<style type="text/css"><![CDATA[
.edge:hover path { stroke: red; }
.edge:hover polygon { stroke: red; fill: red; }
]]></style>
<script type="text/javascript"><![CDATA[
var edges = document.getElementsByTagName('g');
if (edges && edges.length) {
  for (var i=0;i<edges.length;i++) {
    if (edges[i].id.substr(0,4)=='edge') {
      edges[i].setAttribute('class','edge');
    }
  }
}
]]></script>
        <defs>
                <circle id="rim" cx="0" cy="0" r="7"/>
                <circle id="rim2" cx="0" cy="0" r="3.5"/>
                <g id="zoomPlus">
                        <use xlink:href="#rim" fill="#404040">
                                <set attributeName="fill" to="#808080" begin="zoomplus.mouseover" end="zoomplus.mouseout"/>
                        </use>
                        <path d="M-4,0h8M0,-4v8" fill="none" stroke="white" stroke-width="1.5" pointer-events="none"/>
                </g>
                <g id="zoomMin">
                        <use xlink:href="#rim" fill="#404040">
                                <set attributeName="fill" to="#808080" begin="zoomminus.mouseover" end="zoomminus.mouseout"/>
                        </use>
                        <path d="M-4,0h8" fill="none" stroke="white" stroke-width="1.5" pointer-events="none"/>
                </g>
                <g id="dirArrow">
                        <path fill="none" stroke="white" stroke-width="1.5" d="M0,-3.0v7 M-2.5,-0.5L0,-3.0L2.5,-0.5"/>
                </g>
               <g id="resetDef">
                       <use xlink:href="#rim2" fill="#404040">
                               <set attributeName="fill" to="#808080" begin="reset.mouseover" end="reset.mouseout"/>
                       </use>
               </g>
        </defs>

<script type="text/javascript">
var viewWidth = 814;
var viewHeight = 186;
var sectionId = 'dynsection-7';
</script>
<script xlink:href="../../svgpan.js"/>
<svg id="graph" class="graph">
<g id="viewport">
<title>simulationObjects.Patch.createNewCell</title>
<polygon fill="white" stroke="none" points="-4,4 -4,-182 810,-182 810,4 -4,4"/>
<!-- Node1 -->
<g id="node1" class="node"><title>Node1</title>
<polygon fill="#bfbfbf" stroke="black" points="0.5,-55 0.5,-85 165.5,-85 165.5,-55 0.5,-55"/>
<text text-anchor="start" x="8.5" y="-73" font-family="Helvetica,sans-Serif" font-size="10.00">simulationObjects.Patch.create</text>
<text text-anchor="middle" x="83" y="-62" font-family="Helvetica,sans-Serif" font-size="10.00">NewCell</text>
</g>
<!-- Node2 -->
<g id="node2" class="node"><title>Node2</title>
<g id="a_node2"><a xlink:href="../../d5/da5/classsimulation_objects_1_1_patch.html#ac05b7dd86c9f30b498d93d62cbbba9a4" target="_top" xlink:title="simulationObjects.Patch.addCell">
<polygon fill="white" stroke="black" points="202,-126.5 202,-145.5 372,-145.5 372,-126.5 202,-126.5"/>
<text text-anchor="middle" x="287" y="-133.5" font-family="Helvetica,sans-Serif" font-size="10.00">simulationObjects.Patch.addCell</text>
</a>
</g>
</g>
<!-- Node1&#45;&gt;Node2 -->
<g id="edge1" class="edge"><title>Node1&#45;&gt;Node2</title>
<path fill="none" stroke="midnightblue" d="M118.918,-85.077C142.169,-94.7512 173.561,-107.118 202,-116 211.24,-118.886 221.162,-121.588 230.835,-124.016"/>
<polygon fill="midnightblue" stroke="midnightblue" points="230.242,-127.474 240.787,-126.443 231.901,-120.673 230.242,-127.474"/>
</g>
<!-- Node8 -->
<g id="node8" class="node"><title>Node8</title>
<g id="a_node8"><a xlink:href="../../d2/d6e/classsimulation_objects_1_1_cell.html#ab7b10d67ea8a16bcb15cc2b8d079b3a1" target="_top" xlink:title="simulationObjects.Cell.set\lState">
<polygon fill="white" stroke="black" points="217,-77 217,-107 357,-107 357,-77 217,-77"/>
<text text-anchor="start" x="225" y="-95" font-family="Helvetica,sans-Serif" font-size="10.00">simulationObjects.Cell.set</text>
<text text-anchor="middle" x="287" y="-84" font-family="Helvetica,sans-Serif" font-size="10.00">State</text>
</a>
</g>
</g>
<!-- Node1&#45;&gt;Node8 -->
<g id="edge7" class="edge"><title>Node1&#45;&gt;Node8</title>
<path fill="none" stroke="midnightblue" d="M165.579,-78.8848C179.103,-80.3578 193.111,-81.8834 206.581,-83.3504"/>
<polygon fill="midnightblue" stroke="midnightblue" points="206.44,-86.8557 216.76,-84.459 207.198,-79.8968 206.44,-86.8557"/>
</g>
<!-- Node9 -->
<g id="node9" class="node"><title>Node9</title>
<g id="a_node9"><a xlink:href="../../d2/d6e/classsimulation_objects_1_1_cell.html#a79ed116f88362c4ef4d906c7a6988fe1" target="_top" xlink:title="simulationObjects.Cell.setX">
<polygon fill="white" stroke="black" points="214,-38.5 214,-57.5 360,-57.5 360,-38.5 214,-38.5"/>
<text text-anchor="middle" x="287" y="-45.5" font-family="Helvetica,sans-Serif" font-size="10.00">simulationObjects.Cell.setX</text>
</a>
</g>
</g>
<!-- Node1&#45;&gt;Node9 -->
<g id="edge8" class="edge"><title>Node1&#45;&gt;Node9</title>
<path fill="none" stroke="midnightblue" d="M165.579,-61.1152C178.193,-59.7413 191.228,-58.3217 203.854,-56.9465"/>
<polygon fill="midnightblue" stroke="midnightblue" points="204.315,-60.4171 213.878,-55.8549 203.557,-53.4583 204.315,-60.4171"/>
</g>
<!-- Node10 -->
<g id="node10" class="node"><title>Node10</title>
<g id="a_node10"><a xlink:href="../../d2/d6e/classsimulation_objects_1_1_cell.html#a94febf4dbd9046affdb7f81e36b8c164" target="_top" xlink:title="simulationObjects.Cell.setY">
<polygon fill="white" stroke="black" points="214,-0.5 214,-19.5 360,-19.5 360,-0.5 214,-0.5"/>
<text text-anchor="middle" x="287" y="-7.5" font-family="Helvetica,sans-Serif" font-size="10.00">simulationObjects.Cell.setY</text>
</a>
</g>
</g>
<!-- Node1&#45;&gt;Node10 -->
<g id="edge9" class="edge"><title>Node1&#45;&gt;Node10</title>
<path fill="none" stroke="midnightblue" d="M123.787,-54.9282C146.5,-46.6398 175.622,-36.5403 202,-29 210.868,-26.465 220.34,-24.0485 229.609,-21.8405"/>
<polygon fill="midnightblue" stroke="midnightblue" points="230.602,-25.2032 239.55,-19.5308 229.018,-18.3849 230.602,-25.2032"/>
</g>
<!-- Node3 -->
<g id="node3" class="node"><title>Node3</title>
<g id="a_node3"><a xlink:href="../../d5/da5/classsimulation_objects_1_1_patch.html#ac18f8e7cdd82ed885a6a92f066da2d38" target="_top" xlink:title="simulationObjects.Patch.removeCell">
<polygon fill="white" stroke="black" points="408,-148.5 408,-167.5 596,-167.5 596,-148.5 408,-148.5"/>
<text text-anchor="middle" x="502" y="-155.5" font-family="Helvetica,sans-Serif" font-size="10.00">simulationObjects.Patch.removeCell</text>
</a>
</g>
</g>
<!-- Node2&#45;&gt;Node3 -->
<g id="edge2" class="edge"><title>Node2&#45;&gt;Node3</title>
<path fill="none" stroke="midnightblue" d="M372.183,-144.695C380.97,-145.603 389.969,-146.532 398.926,-147.457"/>
<polygon fill="midnightblue" stroke="midnightblue" points="398.701,-150.952 409.007,-148.498 399.42,-143.989 398.701,-150.952"/>
</g>
<!-- Node4 -->
<g id="node4" class="node"><title>Node4</title>
<g id="a_node4"><a xlink:href="../../d5/da5/classsimulation_objects_1_1_patch.html#a06f00537a57f3678cf147c580b92de0d" target="_top" xlink:title="simulationObjects.Patch.update\lCellConstraints">
<polygon fill="white" stroke="black" points="418,-99 418,-129 586,-129 586,-99 418,-99"/>
<text text-anchor="start" x="426" y="-117" font-family="Helvetica,sans-Serif" font-size="10.00">simulationObjects.Patch.update</text>
<text text-anchor="middle" x="502" y="-106" font-family="Helvetica,sans-Serif" font-size="10.00">CellConstraints</text>
</a>
</g>
</g>
<!-- Node2&#45;&gt;Node4 -->
<g id="edge3" class="edge"><title>Node2&#45;&gt;Node4</title>
<path fill="none" stroke="midnightblue" d="M372.183,-127.305C383.785,-126.107 395.757,-124.87 407.514,-123.656"/>
<polygon fill="midnightblue" stroke="midnightblue" points="408.189,-127.105 417.776,-122.596 407.47,-120.142 408.189,-127.105"/>
</g>
<!-- Node5 -->
<g id="node5" class="node"><title>Node5</title>
<g id="a_node5"><a xlink:href="../../d0/d1a/classsimulation_objects_1_1_patch_body.html#a466dadbe30fb2f8360163881e0db9295" target="_top" xlink:title="simulationObjects.PatchBody.get\lPatchWidth">
<polygon fill="white" stroke="black" points="632.5,-148 632.5,-178 805.5,-178 805.5,-148 632.5,-148"/>
<text text-anchor="start" x="640.5" y="-166" font-family="Helvetica,sans-Serif" font-size="10.00">simulationObjects.PatchBody.get</text>
<text text-anchor="middle" x="719" y="-155" font-family="Helvetica,sans-Serif" font-size="10.00">PatchWidth</text>
</a>
</g>
</g>
<!-- Node4&#45;&gt;Node5 -->
<g id="edge4" class="edge"><title>Node4&#45;&gt;Node5</title>
<path fill="none" stroke="midnightblue" d="M568.968,-129.035C592.185,-134.326 618.456,-140.313 642.404,-145.771"/>
<polygon fill="midnightblue" stroke="midnightblue" points="641.629,-149.184 652.157,-147.994 643.184,-142.359 641.629,-149.184"/>
</g>
<!-- Node6 -->
<g id="node6" class="node"><title>Node6</title>
<g id="a_node6"><a xlink:href="../../d0/d1a/classsimulation_objects_1_1_patch_body.html#a7be1762ade4eaee79c26ac524eb97f33" target="_top" xlink:title="simulationObjects.PatchBody.get\lCenter">
<polygon fill="white" stroke="black" points="632.5,-99 632.5,-129 805.5,-129 805.5,-99 632.5,-99"/>
<text text-anchor="start" x="640.5" y="-117" font-family="Helvetica,sans-Serif" font-size="10.00">simulationObjects.PatchBody.get</text>
<text text-anchor="middle" x="719" y="-106" font-family="Helvetica,sans-Serif" font-size="10.00">Center</text>
</a>
</g>
</g>
<!-- Node4&#45;&gt;Node6 -->
<g id="edge5" class="edge"><title>Node4&#45;&gt;Node6</title>
<path fill="none" stroke="midnightblue" d="M586.125,-114C597.941,-114 610.173,-114 622.206,-114"/>
<polygon fill="midnightblue" stroke="midnightblue" points="622.254,-117.5 632.254,-114 622.254,-110.5 622.254,-117.5"/>
</g>
<!-- Node7 -->
<g id="node7" class="node"><title>Node7</title>
<g id="a_node7"><a xlink:href="../../d0/d1a/classsimulation_objects_1_1_patch_body.html#a268e88a7cb1f5feb98f49e230475c2ba" target="_top" xlink:title="simulationObjects.PatchBody.get\lPatchHeight">
<polygon fill="white" stroke="black" points="632.5,-50 632.5,-80 805.5,-80 805.5,-50 632.5,-50"/>
<text text-anchor="start" x="640.5" y="-68" font-family="Helvetica,sans-Serif" font-size="10.00">simulationObjects.PatchBody.get</text>
<text text-anchor="middle" x="719" y="-57" font-family="Helvetica,sans-Serif" font-size="10.00">PatchHeight</text>
</a>
</g>
</g>
<!-- Node4&#45;&gt;Node7 -->
<g id="edge6" class="edge"><title>Node4&#45;&gt;Node7</title>
<path fill="none" stroke="midnightblue" d="M568.968,-98.9654C592.185,-93.6741 618.456,-87.6867 642.404,-82.2288"/>
<polygon fill="midnightblue" stroke="midnightblue" points="643.184,-85.6409 652.157,-80.0062 641.629,-78.8159 643.184,-85.6409"/>
</g>
</g>
</svg>
        <g id="navigator" transform="translate(0 0)" fill="#404254">
                <rect fill="#f2f5e9" fill-opacity="0.5" stroke="#606060" stroke-width=".5" x="0" y="0" width="60" height="60"/>
                <use id="zoomplus" xlink:href="#zoomPlus" x="17" y="9" onmousedown="handleZoom(evt,'in')"/>
                <use id="zoomminus" xlink:href="#zoomMin" x="42" y="9" onmousedown="handleZoom(evt,'out')"/>
                <use id="reset" xlink:href="#resetDef" x="30" y="36" onmousedown="handleReset()"/>
                <g id="arrowUp" xlink:href="#dirArrow" transform="translate(30 24)" onmousedown="handlePan(0,-1)">
                  <use xlink:href="#rim" fill="#404040">
                        <set attributeName="fill" to="#808080" begin="arrowUp.mouseover" end="arrowUp.mouseout"/>
                  </use>
                  <path fill="none" stroke="white" stroke-width="1.5" d="M0,-3.0v7 M-2.5,-0.5L0,-3.0L2.5,-0.5"/>
                </g>
                <g id="arrowRight" xlink:href="#dirArrow" transform="rotate(90) translate(36 -43)" onmousedown="handlePan(1,0)">
                  <use xlink:href="#rim" fill="#404040">
                        <set attributeName="fill" to="#808080" begin="arrowRight.mouseover" end="arrowRight.mouseout"/>
                  </use>
                  <path fill="none" stroke="white" stroke-width="1.5" d="M0,-3.0v7 M-2.5,-0.5L0,-3.0L2.5,-0.5"/>
                </g>
                <g id="arrowDown" xlink:href="#dirArrow" transform="rotate(180) translate(-30 -48)" onmousedown="handlePan(0,1)">
                  <use xlink:href="#rim" fill="#404040">
                        <set attributeName="fill" to="#808080" begin="arrowDown.mouseover" end="arrowDown.mouseout"/>
                  </use>
                  <path fill="none" stroke="white" stroke-width="1.5" d="M0,-3.0v7 M-2.5,-0.5L0,-3.0L2.5,-0.5"/>
                </g>
                <g id="arrowLeft" xlink:href="#dirArrow" transform="rotate(270) translate(-36 17)" onmousedown="handlePan(-1,0)">
                  <use xlink:href="#rim" fill="#404040">
                        <set attributeName="fill" to="#808080" begin="arrowLeft.mouseover" end="arrowLeft.mouseout"/>
                  </use>
                  <path fill="none" stroke="white" stroke-width="1.5" d="M0,-3.0v7 M-2.5,-0.5L0,-3.0L2.5,-0.5"/>
                </g>
        </g>
        <svg viewBox="0 0 15 15" width="100%" height="30px" preserveAspectRatio="xMaxYMin meet">
         <g id="arrow_out" transform="scale(0.3 0.3)">
          <a xlink:href="classsimulation_objects_1_1_patch_a801de23da5dcdf2e6914b939deefe67e_cgraph_org.svg" target="_base">
           <rect id="button" ry="5" rx="5" y="6" x="6" height="38" width="38"
                fill="#f2f5e9" fill-opacity="0.5" stroke="#606060" stroke-width="1.0"/>
           <path id="arrow"
             d="M 11.500037,31.436501 C 11.940474,20.09759 22.043105,11.32322 32.158766,21.979434 L 37.068811,17.246167 C 37.068811,17.246167 37.088388,32 37.088388,32 L 22.160133,31.978069 C 22.160133,31.978069 26.997745,27.140456 26.997745,27.140456 C 18.528582,18.264221 13.291696,25.230495 11.500037,31.436501 z"
             style="fill:#404040;"/>
          </a>
         </g>
        </svg>
</svg>
