<?xml version="1.0" encoding="UTF-8" standalone="no"?>
<!DOCTYPE svg PUBLIC "-//W3C//DTD SVG 1.1//EN"
 "http://www.w3.org/Graphics/SVG/1.1/DTD/svg11.dtd">
<!-- Generated by graphviz version 2.36.0 (20140111.2315)
 -->
<!-- Title: simulationObjects.Patch.createNewCell Pages: 1 -->
<svg width="1604pt" height="77pt"
 viewBox="0.00 0.00 1604.00 77.00" xmlns="http://www.w3.org/2000/svg" xmlns:xlink="http://www.w3.org/1999/xlink">
<g id="graph0" class="graph" transform="scale(1 1) rotate(0) translate(4 73)">
<title>simulationObjects.Patch.createNewCell</title>
<polygon fill="white" stroke="none" points="-4,4 -4,-73 1600,-73 1600,4 -4,4"/>
<!-- Node1 -->
<g id="node1" class="node"><title>Node1</title>
<polygon fill="#bfbfbf" stroke="black" points="0.5,-22 0.5,-52 165.5,-52 165.5,-22 0.5,-22"/>
<text text-anchor="start" x="8.5" y="-40" font-family="Helvetica,sans-Serif" font-size="10.00">simulationObjects.Patch.create</text>
<text text-anchor="middle" x="83" y="-29" font-family="Helvetica,sans-Serif" font-size="10.00">NewCell</text>
</g>
<!-- Node2 -->
<g id="node2" class="node"><title>Node2</title>
<g id="a_node2"><a xlink:href="../../d5/da5/classsimulation_objects_1_1_patch.html#a982ffbab2f32d5955c2c59b5a89fc4a1" target="_top" xlink:title="simulationObjects.Patch.toggle\lCellState">
<polygon fill="white" stroke="black" points="202,-22 202,-52 366,-52 366,-22 202,-22"/>
<text text-anchor="start" x="210" y="-40" font-family="Helvetica,sans-Serif" font-size="10.00">simulationObjects.Patch.toggle</text>
<text text-anchor="middle" x="284" y="-29" font-family="Helvetica,sans-Serif" font-size="10.00">CellState</text>
</a>
</g>
</g>
<!-- Node1&#45;&gt;Node2 -->
<g id="edge1" class="edge"><title>Node1&#45;&gt;Node2</title>
<path fill="none" stroke="midnightblue" d="M175.728,-37C184.474,-37 193.299,-37 201.934,-37"/>
<polygon fill="midnightblue" stroke="midnightblue" points="175.515,-33.5001 165.515,-37 175.515,-40.5001 175.515,-33.5001"/>
</g>
<!-- Node3 -->
<g id="node3" class="node"><title>Node3</title>
<g id="a_node3"><a xlink:href="../../db/d32/classcontroller_1_1_main_controller.html#a20c66a59cfde2b9f8ac2b8bf67e3996d" target="_top" xlink:title="controller.MainController.toggle\lCellStateForMouseEvent">
<polygon fill="white" stroke="black" points="402.5,-22 402.5,-52 567.5,-52 567.5,-22 402.5,-22"/>
<text text-anchor="start" x="410.5" y="-40" font-family="Helvetica,sans-Serif" font-size="10.00">controller.MainController.toggle</text>
<text text-anchor="middle" x="485" y="-29" font-family="Helvetica,sans-Serif" font-size="10.00">CellStateForMouseEvent</text>
</a>
</g>
</g>
<!-- Node2&#45;&gt;Node3 -->
<g id="edge2" class="edge"><title>Node2&#45;&gt;Node3</title>
<path fill="none" stroke="midnightblue" d="M376.364,-37C385.044,-37 393.807,-37 402.387,-37"/>
<polygon fill="midnightblue" stroke="midnightblue" points="376.228,-33.5001 366.228,-37 376.228,-40.5001 376.228,-33.5001"/>
</g>
<!-- Node4 -->
<g id="node4" class="node"><title>Node4</title>
<g id="a_node4"><a xlink:href="../../db/d32/classcontroller_1_1_main_controller.html#ad28f21e1510291d95a69a9f488a20d89" target="_top" xlink:title="controller.MainController.createGrid">
<polygon fill="white" stroke="black" points="604.5,-27.5 604.5,-46.5 789.5,-46.5 789.5,-27.5 604.5,-27.5"/>
<text text-anchor="middle" x="697" y="-34.5" font-family="Helvetica,sans-Serif" font-size="10.00">controller.MainController.createGrid</text>
</a>
</g>
</g>
<!-- Node3&#45;&gt;Node4 -->
<g id="edge3" class="edge"><title>Node3&#45;&gt;Node4</title>
<path fill="none" stroke="midnightblue" d="M577.984,-37C586.726,-37 595.591,-37 604.33,-37"/>
<polygon fill="midnightblue" stroke="midnightblue" points="577.793,-33.5001 567.793,-37 577.793,-40.5001 577.793,-33.5001"/>
</g>
<!-- Node5 -->
<g id="node5" class="node"><title>Node5</title>
<g id="a_node5"><a xlink:href="../../db/d32/classcontroller_1_1_main_controller.html#aecc10abc6b55d8b0b4bd152be5c5d3f0" target="_top" xlink:title="controller.MainController.initialize\lSimulationObjects">
<polygon fill="white" stroke="black" points="826.5,-22 826.5,-52 999.5,-52 999.5,-22 826.5,-22"/>
<text text-anchor="start" x="834.5" y="-40" font-family="Helvetica,sans-Serif" font-size="10.00">controller.MainController.initialize</text>
<text text-anchor="middle" x="913" y="-29" font-family="Helvetica,sans-Serif" font-size="10.00">SimulationObjects</text>
</a>
</g>
</g>
<!-- Node4&#45;&gt;Node5 -->
<g id="edge4" class="edge"><title>Node4&#45;&gt;Node5</title>
<path fill="none" stroke="midnightblue" d="M799.691,-37C808.582,-37 817.522,-37 826.265,-37"/>
<polygon fill="midnightblue" stroke="midnightblue" points="799.687,-33.5001 789.687,-37 799.687,-40.5001 799.687,-33.5001"/>
</g>
<!-- Node6 -->
<g id="node6" class="node"><title>Node6</title>
<g id="a_node6"><a xlink:href="../../db/d32/classcontroller_1_1_main_controller.html#a7cfedb8e16c6b9d6394054d03193da82" target="_top" xlink:title="controller.MainController.initialize\lSimulationWithData">
<polygon fill="white" stroke="black" points="1036.5,-22 1036.5,-52 1209.5,-52 1209.5,-22 1036.5,-22"/>
<text text-anchor="start" x="1044.5" y="-40" font-family="Helvetica,sans-Serif" font-size="10.00">controller.MainController.initialize</text>
<text text-anchor="middle" x="1123" y="-29" font-family="Helvetica,sans-Serif" font-size="10.00">SimulationWithData</text>
</a>
</g>
</g>
<!-- Node5&#45;&gt;Node6 -->
<g id="edge5" class="edge"><title>Node5&#45;&gt;Node6</title>
<path fill="none" stroke="midnightblue" d="M1009.59,-37C1018.56,-37 1027.62,-37 1036.49,-37"/>
<polygon fill="midnightblue" stroke="midnightblue" points="1009.5,-33.5001 999.502,-37 1009.5,-40.5001 1009.5,-33.5001"/>
</g>
<!-- Node7 -->
<g id="node7" class="node"><title>Node7</title>
<g id="a_node7"><a xlink:href="../../db/ddb/classcontroller_1_1_user_interface.html#a9cf1e21253003993661082c9d42926b2" target="_top" xlink:title="controller.UserInterface.make\lBottomPanel">
<polygon fill="white" stroke="black" points="1246,-0 1246,-30 1404,-30 1404,-0 1246,-0"/>
<text text-anchor="start" x="1254" y="-18" font-family="Helvetica,sans-Serif" font-size="10.00">controller.UserInterface.make</text>
<text text-anchor="middle" x="1325" y="-7" font-family="Helvetica,sans-Serif" font-size="10.00">BottomPanel</text>
</a>
</g>
</g>
<!-- Node6&#45;&gt;Node7 -->
<g id="edge6" class="edge"><title>Node6&#45;&gt;Node7</title>
<path fill="none" stroke="midnightblue" d="M1219.85,-26.4568C1228.53,-25.5015 1237.26,-24.5417 1245.76,-23.6061"/>
<polygon fill="midnightblue" stroke="midnightblue" points="1219.25,-23.0018 1209.69,-27.5743 1220.01,-29.9598 1219.25,-23.0018"/>
</g>
<!-- Node8 -->
<g id="node8" class="node"><title>Node8</title>
<g id="a_node8"><a xlink:href="../../db/ddb/classcontroller_1_1_user_interface.html#aad62b84bbc23f683c844ace519feb9d2" target="_top" xlink:title="controller.UserInterface.reset">
<polygon fill="white" stroke="black" points="1440,-49.5 1440,-68.5 1596,-68.5 1596,-49.5 1440,-49.5"/>
<text text-anchor="middle" x="1518" y="-56.5" font-family="Helvetica,sans-Serif" font-size="10.00">controller.UserInterface.reset</text>
</a>
</g>
</g>
<!-- Node7&#45;&gt;Node8 -->
<g id="edge7" class="edge"><title>Node7&#45;&gt;Node8</title>
<path fill="none" stroke="midnightblue" d="M1401.18,-32.3187C1426.56,-38.1648 1453.94,-44.4732 1475.71,-49.4876"/>
<polygon fill="midnightblue" stroke="midnightblue" points="1401.73,-28.8535 1391.2,-30.0192 1400.16,-35.6749 1401.73,-28.8535"/>
</g>
<!-- Node9 -->
<g id="node9" class="node"><title>Node9</title>
<g id="a_node9"><a xlink:href="../../db/ddb/classcontroller_1_1_user_interface.html#a6dd740b89d748c372a5ef9959e1bd7c4" target="_top" xlink:title="controller.UserInterface.\lUserInterface">
<polygon fill="white" stroke="black" points="1452.5,-0 1452.5,-30 1583.5,-30 1583.5,-0 1452.5,-0"/>
<text text-anchor="start" x="1460.5" y="-18" font-family="Helvetica,sans-Serif" font-size="10.00">controller.UserInterface.</text>
<text text-anchor="middle" x="1518" y="-7" font-family="Helvetica,sans-Serif" font-size="10.00">UserInterface</text>
</a>
</g>
</g>
<!-- Node7&#45;&gt;Node9 -->
<g id="edge9" class="edge"><title>Node7&#45;&gt;Node9</title>
<path fill="none" stroke="midnightblue" d="M1414.41,-15C1427.17,-15 1440.1,-15 1452.27,-15"/>
<polygon fill="midnightblue" stroke="midnightblue" points="1414.24,-11.5001 1404.24,-15 1414.24,-18.5001 1414.24,-11.5001"/>
</g>
<!-- Node8&#45;&gt;Node6 -->
<g id="edge8" class="edge"><title>Node8&#45;&gt;Node6</title>
<path fill="none" stroke="midnightblue" d="M1429.44,-54.0986C1363.94,-50.4318 1274.83,-45.4431 1209.76,-41.8008"/>
<polygon fill="midnightblue" stroke="midnightblue" points="1429.57,-57.6109 1439.75,-54.6754 1429.96,-50.6218 1429.57,-57.6109"/>
</g>
</g>
</svg>
