<?xml version="1.0" encoding="UTF-8" standalone="no"?>
<!DOCTYPE svg PUBLIC "-//W3C//DTD SVG 1.1//EN"
 "http://www.w3.org/Graphics/SVG/1.1/DTD/svg11.dtd">
<!-- Generated by graphviz version 2.36.0 (20140111.2315)
 -->
<!-- Title: controller.DefaultEdgeRules Pages: 1 -->
<svg width="1104pt" height="511pt"
 viewBox="0.00 0.00 1104.00 511.00" xmlns="http://www.w3.org/2000/svg" xmlns:xlink="http://www.w3.org/1999/xlink">
<g id="graph0" class="graph" transform="scale(1 1) rotate(0) translate(4 507)">
<title>controller.DefaultEdgeRules</title>
<polygon fill="white" stroke="none" points="-4,4 -4,-507 1100,-507 1100,4 -4,4"/>
<!-- Node1 -->
<g id="node1" class="node"><title>Node1</title>
<polygon fill="#bfbfbf" stroke="black" points="522.5,-38.5 522.5,-57.5 669.5,-57.5 669.5,-38.5 522.5,-38.5"/>
<text text-anchor="middle" x="596" y="-45.5" font-family="Helvetica,sans-Serif" font-size="10.00">controller.DefaultEdgeRules</text>
</g>
<!-- Node2 -->
<g id="node2" class="node"><title>Node2</title>
<g id="a_node2"><a xlink:href="../../dd/d38/classcontroller_1_1_grid_edge_rules.html" target="_top" xlink:title="controller.GridEdgeRules">
<polygon fill="white" stroke="black" points="265,-71.5 265,-90.5 397,-90.5 397,-71.5 265,-71.5"/>
<text text-anchor="middle" x="331" y="-78.5" font-family="Helvetica,sans-Serif" font-size="10.00">controller.GridEdgeRules</text>
</a>
</g>
</g>
<!-- Node2&#45;&gt;Node1 -->
<g id="edge1" class="edge"><title>Node2&#45;&gt;Node1</title>
<path fill="none" stroke="midnightblue" d="M384.792,-69.4513C398.786,-66.6922 413.92,-63.9772 428,-62 458.829,-57.6708 493.061,-54.5148 522.466,-52.3075"/>
<polygon fill="midnightblue" stroke="midnightblue" points="383.947,-66.0512 374.836,-71.4582 385.33,-72.9132 383.947,-66.0512"/>
</g>
<!-- Node3 -->
<g id="node3" class="node"><title>Node3</title>
<g id="a_node3"><a xlink:href="../../d7/d97/classcontroller_1_1_grid.html" target="_top" xlink:title="controller.Grid">
<polygon fill="white" stroke="black" points="554.5,-164.5 554.5,-183.5 637.5,-183.5 637.5,-164.5 554.5,-164.5"/>
<text text-anchor="middle" x="596" y="-171.5" font-family="Helvetica,sans-Serif" font-size="10.00">controller.Grid</text>
</a>
</g>
</g>
<!-- Node2&#45;&gt;Node3 -->
<g id="edge26" class="edge"><title>Node2&#45;&gt;Node3</title>
<path fill="none" stroke="#9a32cd" stroke-dasharray="5,2" d="M381.543,-69.9089C418.196,-64.7429 467.24,-64.6145 500,-91 523.012,-109.535 496.772,-134.446 518,-155 527.694,-164.386 541.25,-169.371 554.291,-171.948"/>
<polygon fill="#9a32cd" stroke="#9a32cd" points="380.891,-66.4683 371.558,-71.4817 381.98,-73.3831 380.891,-66.4683"/>
<text text-anchor="middle" x="464" y="-94" font-family="Helvetica,sans-Serif" font-size="10.00"> myEdgeRules</text>
</g>
<!-- Node3&#45;&gt;Node2 -->
<g id="edge2" class="edge"><title>Node3&#45;&gt;Node2</title>
<path fill="none" stroke="#9a32cd" stroke-dasharray="5,2" d="M544.428,-165.702C535.291,-163.053 526.102,-159.571 518,-155 508.146,-149.441 509.624,-142.948 500,-137 462.471,-113.806 414.228,-99.0185 379.074,-90.5011"/>
<polygon fill="#9a32cd" stroke="#9a32cd" points="543.711,-169.131 554.27,-168.261 545.473,-162.357 543.711,-169.131"/>
<text text-anchor="middle" x="464" y="-140" font-family="Helvetica,sans-Serif" font-size="10.00"> grid</text>
</g>
<!-- Node9 -->
<g id="node9" class="node"><title>Node9</title>
<g id="a_node9"><a xlink:href="../../d5/da5/classsimulation_objects_1_1_patch.html" target="_top" xlink:title="simulationObjects.Patch">
<polygon fill="white" stroke="black" points="760.5,-269.5 760.5,-288.5 891.5,-288.5 891.5,-269.5 760.5,-269.5"/>
<text text-anchor="middle" x="826" y="-276.5" font-family="Helvetica,sans-Serif" font-size="10.00">simulationObjects.Patch</text>
</a>
</g>
</g>
<!-- Node3&#45;&gt;Node9 -->
<g id="edge16" class="edge"><title>Node3&#45;&gt;Node9</title>
<path fill="none" stroke="#9a32cd" stroke-dasharray="5,2" d="M647.713,-181.011C683.75,-186.94 728.117,-196.471 742,-209 759.845,-225.104 742.543,-243.476 760,-260 764.098,-263.879 768.945,-266.972 774.115,-269.436"/>
<polygon fill="#9a32cd" stroke="#9a32cd" points="648.227,-177.548 637.801,-179.434 647.127,-184.462 648.227,-177.548"/>
<text text-anchor="middle" x="717" y="-212" font-family="Helvetica,sans-Serif" font-size="10.00"> grid</text>
</g>
<!-- Node4 -->
<g id="node4" class="node"><title>Node4</title>
<polygon fill="white" stroke="#bfbfbf" points="311,-127.5 311,-146.5 351,-146.5 351,-127.5 311,-127.5"/>
<text text-anchor="middle" x="331" y="-134.5" font-family="Helvetica,sans-Serif" font-size="10.00">Pane</text>
</g>
<!-- Node4&#45;&gt;Node3 -->
<g id="edge3" class="edge"><title>Node4&#45;&gt;Node3</title>
<path fill="none" stroke="midnightblue" d="M361.473,-141.146C408.528,-147.766 500.744,-160.74 554.137,-168.251"/>
<polygon fill="midnightblue" stroke="midnightblue" points="361.729,-137.648 351.339,-139.721 360.754,-144.58 361.729,-137.648"/>
</g>
<!-- Node5 -->
<g id="node5" class="node"><title>Node5</title>
<g id="a_node5"><a xlink:href="../../de/d7a/classcontroller_1_1_grid_info.html" target="_top" xlink:title="controller.GridInfo">
<polygon fill="white" stroke="black" points="280.5,-376.5 280.5,-395.5 381.5,-395.5 381.5,-376.5 280.5,-376.5"/>
<text text-anchor="middle" x="331" y="-383.5" font-family="Helvetica,sans-Serif" font-size="10.00">controller.GridInfo</text>
</a>
</g>
</g>
<!-- Node5&#45;&gt;Node3 -->
<g id="edge4" class="edge"><title>Node5&#45;&gt;Node3</title>
<path fill="none" stroke="#9a32cd" stroke-dasharray="5,2" d="M355.101,-370.921C374.158,-358.878 402.163,-342.078 428,-330 458.821,-315.591 477.856,-329.829 500,-304 527.118,-272.369 492.693,-245.098 518,-212 528.322,-198.5 544.721,-189.488 559.737,-183.644"/>
<polygon fill="#9a32cd" stroke="#9a32cd" points="353.056,-368.074 346.514,-376.409 356.825,-373.973 353.056,-368.074"/>
<text text-anchor="middle" x="464" y="-333" font-family="Helvetica,sans-Serif" font-size="10.00"> infoSheet</text>
</g>
<!-- Node5&#45;&gt;Node9 -->
<g id="edge10" class="edge"><title>Node5&#45;&gt;Node9</title>
<path fill="none" stroke="#9a32cd" stroke-dasharray="5,2" d="M391.696,-384.563C473.58,-380.764 624.015,-367.17 742,-319 764.806,-309.689 790.209,-297.105 806.832,-288.556"/>
<polygon fill="#9a32cd" stroke="#9a32cd" points="391.414,-381.071 381.574,-384.998 391.715,-388.065 391.414,-381.071"/>
<text text-anchor="middle" x="596" y="-376" font-family="Helvetica,sans-Serif" font-size="10.00"> infoSheet</text>
</g>
<!-- Node11 -->
<g id="node11" class="node"><title>Node11</title>
<g id="a_node11"><a xlink:href="../../d2/d6e/classsimulation_objects_1_1_cell.html" target="_top" xlink:title="simulationObjects.Cell">
<polygon fill="white" stroke="black" points="974,-303.5 974,-322.5 1096,-322.5 1096,-303.5 974,-303.5"/>
<text text-anchor="middle" x="1035" y="-310.5" font-family="Helvetica,sans-Serif" font-size="10.00">simulationObjects.Cell</text>
</a>
</g>
</g>
<!-- Node5&#45;&gt;Node11 -->
<g id="edge14" class="edge"><title>Node5&#45;&gt;Node11</title>
<path fill="none" stroke="#9a32cd" stroke-dasharray="5,2" d="M374.946,-398.251C412.364,-408.252 468.271,-421.584 518,-427 586.926,-434.507 604.889,-432.554 674,-427 809.597,-416.103 961.894,-347.975 1014.73,-322.552"/>
<polygon fill="#9a32cd" stroke="#9a32cd" points="375.47,-394.767 364.903,-395.528 373.639,-401.523 375.47,-394.767"/>
<text text-anchor="middle" x="717" y="-428" font-family="Helvetica,sans-Serif" font-size="10.00"> infoSheet</text>
</g>
<!-- Node16 -->
<g id="node16" class="node"><title>Node16</title>
<g id="a_node16"><a xlink:href="../../d0/d1a/classsimulation_objects_1_1_patch_body.html" target="_top" xlink:title="simulationObjects.PatchBody">
<polygon fill="white" stroke="black" points="518.5,-313.5 518.5,-332.5 673.5,-332.5 673.5,-313.5 518.5,-313.5"/>
<text text-anchor="middle" x="596" y="-320.5" font-family="Helvetica,sans-Serif" font-size="10.00">simulationObjects.PatchBody</text>
</a>
</g>
</g>
<!-- Node5&#45;&gt;Node16 -->
<g id="edge22" class="edge"><title>Node5&#45;&gt;Node16</title>
<path fill="none" stroke="#9a32cd" stroke-dasharray="5,2" d="M377.615,-373.812C393.531,-369.642 411.529,-365.017 428,-361 469.742,-350.818 517.569,-340.024 551.312,-332.552"/>
<polygon fill="#9a32cd" stroke="#9a32cd" points="376.274,-370.546 367.494,-376.476 378.056,-377.315 376.274,-370.546"/>
<text text-anchor="middle" x="464" y="-364" font-family="Helvetica,sans-Serif" font-size="10.00"> infoSheet</text>
</g>
<!-- Node6 -->
<g id="node6" class="node"><title>Node6</title>
<polygon fill="white" stroke="#bfbfbf" points="0.5,-357.5 0.5,-376.5 143.5,-376.5 143.5,-357.5 0.5,-357.5"/>
<text text-anchor="middle" x="72" y="-364.5" font-family="Helvetica,sans-Serif" font-size="10.00">HashMap&lt; String, Color &gt;</text>
</g>
<!-- Node6&#45;&gt;Node5 -->
<g id="edge5" class="edge"><title>Node6&#45;&gt;Node5</title>
<path fill="none" stroke="#9a32cd" stroke-dasharray="5,2" d="M153.709,-367.709C179.409,-368.416 207.932,-369.702 234,-372 249.1,-373.331 265.448,-375.457 280.3,-377.654"/>
<polygon fill="#9a32cd" stroke="#9a32cd" points="153.721,-364.208 143.636,-367.457 153.546,-371.206 153.721,-364.208"/>
<text text-anchor="middle" x="198" y="-375" font-family="Helvetica,sans-Serif" font-size="10.00"> stateColors</text>
</g>
<!-- Node7 -->
<g id="node7" class="node"><title>Node7</title>
<polygon fill="white" stroke="#bfbfbf" points="30,-395.5 30,-414.5 114,-414.5 114,-395.5 30,-395.5"/>
<text text-anchor="middle" x="72" y="-402.5" font-family="Helvetica,sans-Serif" font-size="10.00">List&lt; String &gt;</text>
</g>
<!-- Node7&#45;&gt;Node5 -->
<g id="edge6" class="edge"><title>Node7&#45;&gt;Node5</title>
<path fill="none" stroke="#9a32cd" stroke-dasharray="5,2" d="M124.219,-401.213C169.597,-397.859 235.432,-392.991 280.335,-389.672"/>
<polygon fill="#9a32cd" stroke="#9a32cd" points="123.721,-397.741 114.007,-401.968 124.237,-404.721 123.721,-397.741"/>
<text text-anchor="middle" x="198" y="-401" font-family="Helvetica,sans-Serif" font-size="10.00"> myStateTypes</text>
</g>
<!-- Node8 -->
<g id="node8" class="node"><title>Node8</title>
<polygon fill="white" stroke="#bfbfbf" points="27.5,-444.5 27.5,-463.5 116.5,-463.5 116.5,-444.5 27.5,-444.5"/>
<text text-anchor="middle" x="72" y="-451.5" font-family="Helvetica,sans-Serif" font-size="10.00">List&lt; Integer &gt;</text>
</g>
<!-- Node8&#45;&gt;Node5 -->
<g id="edge7" class="edge"><title>Node8&#45;&gt;Node5</title>
<path fill="none" stroke="#9a32cd" stroke-dasharray="5,2" d="M121.445,-441.996C153.449,-433.984 196.29,-423.103 234,-413 254.904,-407.399 278.283,-400.831 296.735,-395.575"/>
<polygon fill="#9a32cd" stroke="#9a32cd" points="120.309,-438.672 111.455,-444.492 122.006,-445.464 120.309,-438.672"/>
<text text-anchor="middle" x="198" y="-434" font-family="Helvetica,sans-Serif" font-size="10.00"> paramList</text>
</g>
<!-- Node8&#45;&gt;Node11 -->
<g id="edge15" class="edge"><title>Node8&#45;&gt;Node11</title>
<path fill="none" stroke="#9a32cd" stroke-dasharray="5,2" d="M122.668,-465.763C174.198,-476.923 257.271,-492 330,-492 330,-492 330,-492 827,-492 931.523,-492 1009.27,-359.804 1029.07,-322.624"/>
<polygon fill="#9a32cd" stroke="#9a32cd" points="123.313,-462.322 112.795,-463.589 121.808,-469.158 123.313,-462.322"/>
<text text-anchor="middle" x="596" y="-495" font-family="Helvetica,sans-Serif" font-size="10.00"> myParamList</text>
</g>
<!-- Node9&#45;&gt;Node3 -->
<g id="edge8" class="edge"><title>Node9&#45;&gt;Node3</title>
<path fill="none" stroke="#9a32cd" stroke-dasharray="5,2" d="M763.958,-263.732C762.561,-262.576 761.236,-261.334 760,-260 733.748,-231.681 771.917,-199.416 742,-175 709.625,-148.577 658.268,-156.001 626.159,-164.487"/>
<polygon fill="#9a32cd" stroke="#9a32cd" points="762.374,-266.88 772.65,-269.462 766.227,-261.036 762.374,-266.88"/>
<text text-anchor="middle" x="717" y="-178" font-family="Helvetica,sans-Serif" font-size="10.00"> gridArray</text>
</g>
<!-- Node9&#45;&gt;Node11 -->
<g id="edge13" class="edge"><title>Node9&#45;&gt;Node11</title>
<path fill="none" stroke="#9a32cd" stroke-dasharray="5,2" d="M901.668,-272.914C919.616,-272.961 938.619,-274.279 956,-278 978.641,-282.847 1002.65,-294.784 1017.96,-303.369"/>
<polygon fill="#9a32cd" stroke="#9a32cd" points="901.497,-269.416 891.533,-273.018 901.569,-276.416 901.497,-269.416"/>
<text text-anchor="middle" x="933" y="-281" font-family="Helvetica,sans-Serif" font-size="10.00"> myPatch</text>
</g>
<!-- Node10 -->
<g id="node10" class="node"><title>Node10</title>
<polygon fill="white" stroke="#bfbfbf" points="573,-0.5 573,-19.5 619,-19.5 619,-0.5 573,-0.5"/>
<text text-anchor="middle" x="596" y="-7.5" font-family="Helvetica,sans-Serif" font-size="10.00">Group</text>
</g>
<!-- Node10&#45;&gt;Node9 -->
<g id="edge9" class="edge"><title>Node10&#45;&gt;Node9</title>
<path fill="none" stroke="midnightblue" d="M629.287,-13.0061C643.878,-15.5598 660.772,-20.2795 674,-29 715.857,-56.5932 723.078,-72.5742 742,-119 765.844,-177.503 718.979,-211.954 760,-260 763.283,-263.845 767.296,-266.934 771.703,-269.413"/>
<polygon fill="midnightblue" stroke="midnightblue" points="629.56,-9.50842 619.154,-11.5033 628.533,-16.4327 629.56,-9.50842"/>
</g>
<!-- Node11&#45;&gt;Node9 -->
<g id="edge11" class="edge"><title>Node11&#45;&gt;Node9</title>
<path fill="none" stroke="#9a32cd" stroke-dasharray="5,2" d="M966.2,-301.864C939.936,-297.55 910.178,-292.662 884.936,-288.516"/>
<polygon fill="#9a32cd" stroke="#9a32cd" points="965.643,-305.319 976.078,-303.486 966.777,-298.412 965.643,-305.319"/>
<text text-anchor="middle" x="933" y="-304" font-family="Helvetica,sans-Serif" font-size="10.00"> myCell</text>
</g>
<!-- Node12 -->
<g id="node12" class="node"><title>Node12</title>
<polygon fill="white" stroke="#bfbfbf" points="794.5,-231.5 794.5,-250.5 857.5,-250.5 857.5,-231.5 794.5,-231.5"/>
<text text-anchor="middle" x="826" y="-238.5" font-family="Helvetica,sans-Serif" font-size="10.00">Rectangle</text>
</g>
<!-- Node12&#45;&gt;Node11 -->
<g id="edge12" class="edge"><title>Node12&#45;&gt;Node11</title>
<path fill="none" stroke="midnightblue" d="M867.863,-247.137C893.672,-251.753 927.421,-259.162 956,-270 979.422,-278.883 1004.44,-293.743 1019.65,-303.458"/>
<polygon fill="midnightblue" stroke="midnightblue" points="868.131,-243.632 857.682,-245.387 866.945,-250.531 868.131,-243.632"/>
</g>
<!-- Node13 -->
<g id="node13" class="node"><title>Node13</title>
<polygon fill="white" stroke="#bfbfbf" points="562,-398.5 562,-417.5 630,-417.5 630,-398.5 562,-398.5"/>
<text text-anchor="middle" x="596" y="-405.5" font-family="Helvetica,sans-Serif" font-size="10.00">ImageView</text>
</g>
<!-- Node13&#45;&gt;Node9 -->
<g id="edge17" class="edge"><title>Node13&#45;&gt;Node9</title>
<path fill="none" stroke="#9a32cd" stroke-dasharray="5,2" d="M640.376,-408.464C670.74,-406.972 711.217,-401.201 742,-383 781.571,-359.603 809.775,-309.737 820.373,-288.692"/>
<polygon fill="#9a32cd" stroke="#9a32cd" points="639.961,-404.977 630.091,-408.827 640.208,-411.972 639.961,-404.977"/>
<text text-anchor="middle" x="717" y="-404" font-family="Helvetica,sans-Serif" font-size="10.00"> myView</text>
</g>
<!-- Node14 -->
<g id="node14" class="node"><title>Node14</title>
<g id="a_node14"><a xlink:href="../../df/d37/enumsimulation_objects_1_1_patch_1_1_state.html" target="_top" xlink:title="simulationObjects.Patch.\lState">
<polygon fill="white" stroke="black" points="529,-264 529,-294 663,-294 663,-264 529,-264"/>
<text text-anchor="start" x="537" y="-282" font-family="Helvetica,sans-Serif" font-size="10.00">simulationObjects.Patch.</text>
<text text-anchor="middle" x="596" y="-271" font-family="Helvetica,sans-Serif" font-size="10.00">State</text>
</a>
</g>
</g>
<!-- Node14&#45;&gt;Node9 -->
<g id="edge18" class="edge"><title>Node14&#45;&gt;Node9</title>
<path fill="none" stroke="#9a32cd" stroke-dasharray="5,2" d="M673.447,-279C701.578,-279 733.144,-279 760.155,-279"/>
<polygon fill="#9a32cd" stroke="#9a32cd" points="673.253,-275.5 663.253,-279 673.253,-282.5 673.253,-275.5"/>
<text text-anchor="middle" x="717" y="-282" font-family="Helvetica,sans-Serif" font-size="10.00"> myState</text>
</g>
<!-- Node15 -->
<g id="node15" class="node"><title>Node15</title>
<polygon fill="white" stroke="#bfbfbf" points="572.5,-126.5 572.5,-145.5 619.5,-145.5 619.5,-126.5 572.5,-126.5"/>
<text text-anchor="middle" x="596" y="-133.5" font-family="Helvetica,sans-Serif" font-size="10.00">Image</text>
</g>
<!-- Node15&#45;&gt;Node9 -->
<g id="edge19" class="edge"><title>Node15&#45;&gt;Node9</title>
<path fill="none" stroke="#9a32cd" stroke-dasharray="5,2" d="M629.587,-126.966C662.23,-120.08 711.837,-115.833 742,-143 781.093,-178.21 725.327,-220.43 760,-260 763.409,-263.891 767.567,-267.005 772.114,-269.496"/>
<polygon fill="#9a32cd" stroke="#9a32cd" points="628.59,-123.604 619.63,-129.258 630.161,-130.426 628.59,-123.604"/>
<text text-anchor="middle" x="717" y="-146" font-family="Helvetica,sans-Serif" font-size="10.00"> image</text>
</g>
<!-- Node16&#45;&gt;Node9 -->
<g id="edge20" class="edge"><title>Node16&#45;&gt;Node9</title>
<path fill="none" stroke="#9a32cd" stroke-dasharray="5,2" d="M656.634,-311.492C693.665,-304.345 740.689,-295.27 775.624,-288.529"/>
<polygon fill="#9a32cd" stroke="#9a32cd" points="655.628,-308.121 646.473,-313.453 656.955,-314.994 655.628,-308.121"/>
<text text-anchor="middle" x="717" y="-307" font-family="Helvetica,sans-Serif" font-size="10.00"> myBody</text>
</g>
<!-- Node17 -->
<g id="node17" class="node"><title>Node17</title>
<polygon fill="white" stroke="#bfbfbf" points="304,-293.5 304,-312.5 358,-312.5 358,-293.5 304,-293.5"/>
<text text-anchor="middle" x="331" y="-300.5" font-family="Helvetica,sans-Serif" font-size="10.00">Polygon</text>
</g>
<!-- Node17&#45;&gt;Node16 -->
<g id="edge21" class="edge"><title>Node17&#45;&gt;Node16</title>
<path fill="none" stroke="midnightblue" d="M368.661,-302.367C402.756,-302.136 454.925,-302.69 500,-307 515.151,-308.449 531.535,-310.889 546.36,-313.433"/>
<polygon fill="midnightblue" stroke="midnightblue" points="368.225,-298.871 358.259,-302.467 368.292,-305.871 368.225,-298.871"/>
</g>
<!-- Node18 -->
<g id="node18" class="node"><title>Node18</title>
<polygon fill="white" stroke="#bfbfbf" points="310.5,-255.5 310.5,-274.5 351.5,-274.5 351.5,-255.5 310.5,-255.5"/>
<text text-anchor="middle" x="331" y="-262.5" font-family="Helvetica,sans-Serif" font-size="10.00">Point</text>
</g>
<!-- Node18&#45;&gt;Node16 -->
<g id="edge23" class="edge"><title>Node18&#45;&gt;Node16</title>
<path fill="none" stroke="#9a32cd" stroke-dasharray="5,2" d="M362.136,-264.709C396.75,-265.398 454.605,-269.729 500,-289 509.329,-292.96 508.908,-298.523 518,-303 526.674,-307.271 536.361,-310.702 545.859,-313.433"/>
<polygon fill="#9a32cd" stroke="#9a32cd" points="361.796,-261.205 351.76,-264.599 361.722,-268.205 361.796,-261.205"/>
<text text-anchor="middle" x="464" y="-292" font-family="Helvetica,sans-Serif" font-size="10.00"> myCenter</text>
</g>
<!-- Node19 -->
<g id="node19" class="node"><title>Node19</title>
<polygon fill="white" stroke="#bfbfbf" points="264.5,-205 264.5,-235 397.5,-235 397.5,-205 264.5,-205"/>
<text text-anchor="start" x="272.5" y="-223" font-family="Helvetica,sans-Serif" font-size="10.00">List&lt; simulationObjects.</text>
<text text-anchor="middle" x="331" y="-212" font-family="Helvetica,sans-Serif" font-size="10.00">Patch &gt;</text>
</g>
<!-- Node19&#45;&gt;Node3 -->
<g id="edge27" class="edge"><title>Node19&#45;&gt;Node3</title>
<path fill="none" stroke="#9a32cd" stroke-dasharray="5,2" d="M407.685,-206.762C455.447,-198.409 515.271,-187.945 554.279,-181.122"/>
<polygon fill="#9a32cd" stroke="#9a32cd" points="406.935,-203.34 397.688,-208.511 408.141,-210.236 406.935,-203.34"/>
<text text-anchor="middle" x="464" y="-206" font-family="Helvetica,sans-Serif" font-size="10.00"> emptyPatches</text>
</g>
<!-- Node19&#45;&gt;Node9 -->
<g id="edge24" class="edge"><title>Node19&#45;&gt;Node9</title>
<path fill="none" stroke="#9a32cd" stroke-dasharray="5,2" d="M408.019,-221.482C477.587,-223.697 583.2,-229.222 674,-243 715.167,-249.247 761.643,-261.066 792.025,-269.456"/>
<polygon fill="#9a32cd" stroke="#9a32cd" points="407.699,-217.971 397.597,-221.166 407.487,-224.968 407.699,-217.971"/>
<text text-anchor="middle" x="596" y="-246" font-family="Helvetica,sans-Serif" font-size="10.00"> myNeighbors</text>
</g>
<!-- Node20 -->
<g id="node20" class="node"><title>Node20</title>
<polygon fill="white" stroke="#bfbfbf" points="252,-165.5 252,-184.5 410,-184.5 410,-165.5 252,-165.5"/>
<text text-anchor="middle" x="331" y="-172.5" font-family="Helvetica,sans-Serif" font-size="10.00">HashMap&lt; Integer, Integer &gt;</text>
</g>
<!-- Node20&#45;&gt;Node3 -->
<g id="edge25" class="edge"><title>Node20&#45;&gt;Node3</title>
<path fill="none" stroke="#9a32cd" stroke-dasharray="5,2" d="M420.348,-174.664C465.718,-174.492 518.797,-174.29 554.428,-174.154"/>
<polygon fill="#9a32cd" stroke="#9a32cd" points="420.183,-171.165 410.197,-174.703 420.21,-178.165 420.183,-171.165"/>
<text text-anchor="middle" x="464" y="-178" font-family="Helvetica,sans-Serif" font-size="10.00"> cellCounts</text>
</g>
</g>
</svg>
