<?xml version="1.0" encoding="UTF-8" standalone="no"?>
<!DOCTYPE svg PUBLIC "-//W3C//DTD SVG 1.1//EN"
 "http://www.w3.org/Graphics/SVG/1.1/DTD/svg11.dtd">
<!-- Generated by graphviz version 2.36.0 (20140111.2315)
 -->
<!-- Title: controller.MainController Pages: 1 -->
<!--zoomable 838 -->
<svg id="main" version="1.1" xmlns="http://www.w3.org/2000/svg" xmlns:xlink="http://www.w3.org/1999/xlink" xml:space="preserve" onload="init(evt)">
<style type="text/css"><![CDATA[
.edge:hover path { stroke: red; }
.edge:hover polygon { stroke: red; fill: red; }
]]></style>
<script type="text/javascript"><![CDATA[
var edges = document.getElementsByTagName('g');
if (edges && edges.length) {
  for (var i=0;i<edges.length;i++) {
    if (edges[i].id.substr(0,4)=='edge') {
      edges[i].setAttribute('class','edge');
    }
  }
}
]]></script>
        <defs>
                <circle id="rim" cx="0" cy="0" r="7"/>
                <circle id="rim2" cx="0" cy="0" r="3.5"/>
                <g id="zoomPlus">
                        <use xlink:href="#rim" fill="#404040">
                                <set attributeName="fill" to="#808080" begin="zoomplus.mouseover" end="zoomplus.mouseout"/>
                        </use>
                        <path d="M-4,0h8M0,-4v8" fill="none" stroke="white" stroke-width="1.5" pointer-events="none"/>
                </g>
                <g id="zoomMin">
                        <use xlink:href="#rim" fill="#404040">
                                <set attributeName="fill" to="#808080" begin="zoomminus.mouseover" end="zoomminus.mouseout"/>
                        </use>
                        <path d="M-4,0h8" fill="none" stroke="white" stroke-width="1.5" pointer-events="none"/>
                </g>
                <g id="dirArrow">
                        <path fill="none" stroke="white" stroke-width="1.5" d="M0,-3.0v7 M-2.5,-0.5L0,-3.0L2.5,-0.5"/>
                </g>
               <g id="resetDef">
                       <use xlink:href="#rim2" fill="#404040">
                               <set attributeName="fill" to="#808080" begin="reset.mouseover" end="reset.mouseout"/>
                       </use>
               </g>
        </defs>

<script type="text/javascript">
var viewWidth = 1442;
var viewHeight = 838;
var sectionId = 'dynsection-1';
</script>
<script xlink:href="../../svgpan.js"/>
<svg id="graph" class="graph">
<g id="viewport">
<title>controller.MainController</title>
<polygon fill="white" stroke="none" points="-4,4 -4,-834 1438,-834 1438,4 -4,4"/>
<!-- Node1 -->
<g id="node1" class="node"><title>Node1</title>
<polygon fill="#bfbfbf" stroke="black" points="1048.5,-597.5 1048.5,-616.5 1181.5,-616.5 1181.5,-597.5 1048.5,-597.5"/>
<text text-anchor="middle" x="1115" y="-604.5" font-family="Helvetica,sans-Serif" font-size="10.00">controller.MainController</text>
</g>
<!-- Node30 -->
<g id="node30" class="node"><title>Node30</title>
<g id="a_node30"><a xlink:href="../../db/ddb/classcontroller_1_1_user_interface.html" target="_top" xlink:title="controller.UserInterface">
<polygon fill="white" stroke="black" points="1306,-631.5 1306,-650.5 1434,-650.5 1434,-631.5 1306,-631.5"/>
<text text-anchor="middle" x="1370" y="-638.5" font-family="Helvetica,sans-Serif" font-size="10.00">controller.UserInterface</text>
</a>
</g>
</g>
<!-- Node1&#45;&gt;Node30 -->
<g id="edge43" class="edge"><title>Node1&#45;&gt;Node30</title>
<path fill="none" stroke="#9a32cd" stroke-dasharray="5,2" d="M1191.74,-617.864C1194.53,-618.25 1197.29,-618.63 1200,-619 1235.03,-623.782 1274.18,-628.894 1305.98,-632.985"/>
<polygon fill="#9a32cd" stroke="#9a32cd" points="1191.95,-614.36 1181.56,-616.447 1190.98,-621.293 1191.95,-614.36"/>
<text text-anchor="middle" x="1244" y="-634" font-family="Helvetica,sans-Serif" font-size="10.00"> myMainController</text>
</g>
<!-- Node2 -->
<g id="node2" class="node"><title>Node2</title>
<polygon fill="white" stroke="#bfbfbf" points="828.5,-543.5 828.5,-562.5 897.5,-562.5 897.5,-543.5 828.5,-543.5"/>
<text text-anchor="middle" x="863" y="-550.5" font-family="Helvetica,sans-Serif" font-size="10.00">Application</text>
</g>
<!-- Node2&#45;&gt;Node1 -->
<g id="edge1" class="edge"><title>Node2&#45;&gt;Node1</title>
<path fill="none" stroke="midnightblue" d="M907.766,-556.92C941.507,-560.519 989.149,-566.86 1030,-577 1051.19,-582.26 1074.52,-590.827 1091.21,-597.462"/>
<polygon fill="midnightblue" stroke="midnightblue" points="908.07,-553.433 897.764,-555.89 907.353,-560.396 908.07,-553.433"/>
</g>
<!-- Node3 -->
<g id="node3" class="node"><title>Node3</title>
<g id="a_node3"><a xlink:href="../../de/d4d/classcontroller_1_1_simulation_chart.html" target="_top" xlink:title="controller.SimulationChart">
<polygon fill="white" stroke="black" points="792.5,-657.5 792.5,-676.5 933.5,-676.5 933.5,-657.5 792.5,-657.5"/>
<text text-anchor="middle" x="863" y="-664.5" font-family="Helvetica,sans-Serif" font-size="10.00">controller.SimulationChart</text>
</a>
</g>
</g>
<!-- Node3&#45;&gt;Node1 -->
<g id="edge2" class="edge"><title>Node3&#45;&gt;Node1</title>
<path fill="none" stroke="#9a32cd" stroke-dasharray="5,2" d="M933.505,-655.702C963.403,-650.301 998.624,-643.216 1030,-635 1049.78,-629.821 1071.68,-622.466 1088.16,-616.594"/>
<polygon fill="#9a32cd" stroke="#9a32cd" points="932.814,-652.269 923.582,-657.468 934.041,-659.161 932.814,-652.269"/>
<text text-anchor="middle" x="996" y="-654" font-family="Helvetica,sans-Serif" font-size="10.00"> myChart</text>
</g>
<!-- Node3&#45;&gt;Node30 -->
<g id="edge42" class="edge"><title>Node3&#45;&gt;Node30</title>
<path fill="none" stroke="#9a32cd" stroke-dasharray="5,2" d="M944.156,-667.61C971.409,-667.527 1002.04,-667.114 1030,-666 1126.41,-662.159 1237.95,-653.027 1305.97,-646.929"/>
<polygon fill="#9a32cd" stroke="#9a32cd" points="943.883,-664.11 933.889,-667.627 943.895,-671.11 943.883,-664.11"/>
<text text-anchor="middle" x="1115" y="-669" font-family="Helvetica,sans-Serif" font-size="10.00"> myChart</text>
</g>
<!-- Node4 -->
<g id="node4" class="node"><title>Node4</title>
<polygon fill="white" stroke="#bfbfbf" points="311,-733.5 311,-752.5 351,-752.5 351,-733.5 311,-733.5"/>
<text text-anchor="middle" x="331" y="-740.5" font-family="Helvetica,sans-Serif" font-size="10.00">Pane</text>
</g>
<!-- Node4&#45;&gt;Node3 -->
<g id="edge3" class="edge"><title>Node4&#45;&gt;Node3</title>
<path fill="none" stroke="midnightblue" d="M361.401,-744.495C432.32,-747.248 617.736,-749.34 764,-706 791.214,-697.936 821.399,-685.34 840.982,-676.656"/>
<polygon fill="midnightblue" stroke="midnightblue" points="361.165,-740.982 351.025,-744.055 360.868,-747.976 361.165,-740.982"/>
</g>
<!-- Node9 -->
<g id="node9" class="node"><title>Node9</title>
<g id="a_node9"><a xlink:href="../../d7/d97/classcontroller_1_1_grid.html" target="_top" xlink:title="controller.Grid">
<polygon fill="white" stroke="black" points="554.5,-382.5 554.5,-401.5 637.5,-401.5 637.5,-382.5 554.5,-382.5"/>
<text text-anchor="middle" x="596" y="-389.5" font-family="Helvetica,sans-Serif" font-size="10.00">controller.Grid</text>
</a>
</g>
</g>
<!-- Node4&#45;&gt;Node9 -->
<g id="edge9" class="edge"><title>Node4&#45;&gt;Node9</title>
<path fill="none" stroke="midnightblue" d="M345.493,-724.992C393.084,-661.477 552.157,-449.178 587.85,-401.542"/>
<polygon fill="midnightblue" stroke="midnightblue" points="342.504,-723.144 339.309,-733.246 348.106,-727.342 342.504,-723.144"/>
</g>
<!-- Node4&#45;&gt;Node30 -->
<g id="edge45" class="edge"><title>Node4&#45;&gt;Node30</title>
<path fill="none" stroke="#9a32cd" stroke-dasharray="5,2" d="M360.574,-757.016C408.047,-778.973 506.7,-819 595,-819 595,-819 595,-819 1116,-819 1234.15,-819 1336.08,-687.542 1362.41,-650.57"/>
<polygon fill="#9a32cd" stroke="#9a32cd" points="361.781,-753.716 351.242,-752.625 358.801,-760.05 361.781,-753.716"/>
<text text-anchor="middle" x="863" y="-822" font-family="Helvetica,sans-Serif" font-size="10.00"> myRootPane</text>
</g>
<!-- Node5 -->
<g id="node5" class="node"><title>Node5</title>
<g id="a_node5"><a xlink:href="../../de/d7a/classcontroller_1_1_grid_info.html" target="_top" xlink:title="controller.GridInfo">
<polygon fill="white" stroke="black" points="280.5,-344.5 280.5,-363.5 381.5,-363.5 381.5,-344.5 280.5,-344.5"/>
<text text-anchor="middle" x="331" y="-351.5" font-family="Helvetica,sans-Serif" font-size="10.00">controller.GridInfo</text>
</a>
</g>
</g>
<!-- Node5&#45;&gt;Node1 -->
<g id="edge36" class="edge"><title>Node5&#45;&gt;Node1</title>
<path fill="none" stroke="#9a32cd" stroke-dasharray="5,2" d="M361.398,-368.06C431.319,-401.536 612.982,-488.718 764,-563 772.026,-566.948 773.415,-569.491 782,-572 871.844,-598.258 980.461,-605.315 1048.41,-606.947"/>
<polygon fill="#9a32cd" stroke="#9a32cd" points="362.82,-364.86 352.289,-363.7 359.798,-371.174 362.82,-364.86"/>
<text text-anchor="middle" x="728" y="-566" font-family="Helvetica,sans-Serif" font-size="10.00"> myInfoSheet</text>
</g>
<!-- Node5&#45;&gt;Node3 -->
<g id="edge4" class="edge"><title>Node5&#45;&gt;Node3</title>
<path fill="none" stroke="#9a32cd" stroke-dasharray="5,2" d="M336.822,-373.541C351.891,-429.568 404.06,-589.882 518,-639 606.865,-677.309 720.514,-678.426 792.309,-674.031"/>
<polygon fill="#9a32cd" stroke="#9a32cd" points="340.192,-372.593 334.295,-363.79 333.415,-374.348 340.192,-372.593"/>
<text text-anchor="middle" x="596" y="-677" font-family="Helvetica,sans-Serif" font-size="10.00"> infoSheet</text>
</g>
<!-- Node5&#45;&gt;Node9 -->
<g id="edge10" class="edge"><title>Node5&#45;&gt;Node9</title>
<path fill="none" stroke="#9a32cd" stroke-dasharray="5,2" d="M391.753,-362.734C403.755,-364.482 416.279,-366.303 428,-368 471.048,-374.232 520.348,-381.31 554.161,-386.155"/>
<polygon fill="#9a32cd" stroke="#9a32cd" points="392.223,-359.265 381.823,-361.286 391.213,-366.192 392.223,-359.265"/>
<text text-anchor="middle" x="464" y="-381" font-family="Helvetica,sans-Serif" font-size="10.00"> infoSheet</text>
</g>
<!-- Node10 -->
<g id="node10" class="node"><title>Node10</title>
<g id="a_node10"><a xlink:href="../../d5/da5/classsimulation_objects_1_1_patch.html" target="_top" xlink:title="simulationObjects.Patch">
<polygon fill="white" stroke="black" points="797.5,-192.5 797.5,-211.5 928.5,-211.5 928.5,-192.5 797.5,-192.5"/>
<text text-anchor="middle" x="863" y="-199.5" font-family="Helvetica,sans-Serif" font-size="10.00">simulationObjects.Patch</text>
</a>
</g>
</g>
<!-- Node5&#45;&gt;Node10 -->
<g id="edge13" class="edge"><title>Node5&#45;&gt;Node10</title>
<path fill="none" stroke="#9a32cd" stroke-dasharray="5,2" d="M384.91,-342.202C452.411,-326.842 572.57,-298.461 674,-269 714.49,-257.239 724.269,-253.116 764,-239 789.191,-230.05 817.765,-219.179 837.531,-211.543"/>
<polygon fill="#9a32cd" stroke="#9a32cd" points="383.919,-338.838 374.941,-344.463 385.467,-345.665 383.919,-338.838"/>
<text text-anchor="middle" x="596" y="-314" font-family="Helvetica,sans-Serif" font-size="10.00"> infoSheet</text>
</g>
<!-- Node12 -->
<g id="node12" class="node"><title>Node12</title>
<g id="a_node12"><a xlink:href="../../d2/d6e/classsimulation_objects_1_1_cell.html" target="_top" xlink:title="simulationObjects.Cell">
<polygon fill="white" stroke="black" points="1054,-173.5 1054,-192.5 1176,-192.5 1176,-173.5 1054,-173.5"/>
<text text-anchor="middle" x="1115" y="-180.5" font-family="Helvetica,sans-Serif" font-size="10.00">simulationObjects.Cell</text>
</a>
</g>
</g>
<!-- Node5&#45;&gt;Node12 -->
<g id="edge17" class="edge"><title>Node5&#45;&gt;Node12</title>
<path fill="none" stroke="#9a32cd" stroke-dasharray="5,2" d="M391.836,-357.494C476.069,-360.945 633.869,-362.014 764,-332 899.138,-300.831 1048.08,-220.535 1097.25,-192.685"/>
<polygon fill="#9a32cd" stroke="#9a32cd" points="391.831,-353.991 381.688,-357.052 391.526,-360.984 391.831,-353.991"/>
<text text-anchor="middle" x="728" y="-349" font-family="Helvetica,sans-Serif" font-size="10.00"> infoSheet</text>
</g>
<!-- Node17 -->
<g id="node17" class="node"><title>Node17</title>
<g id="a_node17"><a xlink:href="../../d0/d1a/classsimulation_objects_1_1_patch_body.html" target="_top" xlink:title="simulationObjects.PatchBody">
<polygon fill="white" stroke="black" points="518.5,-29.5 518.5,-48.5 673.5,-48.5 673.5,-29.5 518.5,-29.5"/>
<text text-anchor="middle" x="596" y="-36.5" font-family="Helvetica,sans-Serif" font-size="10.00">simulationObjects.PatchBody</text>
</a>
</g>
</g>
<!-- Node5&#45;&gt;Node17 -->
<g id="edge25" class="edge"><title>Node5&#45;&gt;Node17</title>
<path fill="none" stroke="#9a32cd" stroke-dasharray="5,2" d="M347.583,-336.904C365.388,-318.301 396.194,-288.835 428,-271 457.301,-254.57 478.929,-274.163 500,-248 526.603,-214.97 490.301,-90.117 518,-58 521.237,-54.2463 525.087,-51.1726 529.312,-48.6619"/>
<polygon fill="#9a32cd" stroke="#9a32cd" points="344.862,-334.689 340.572,-344.377 349.967,-339.479 344.862,-334.689"/>
<text text-anchor="middle" x="464" y="-274" font-family="Helvetica,sans-Serif" font-size="10.00"> infoSheet</text>
</g>
<!-- Node6 -->
<g id="node6" class="node"><title>Node6</title>
<polygon fill="white" stroke="#bfbfbf" points="0.5,-363.5 0.5,-382.5 143.5,-382.5 143.5,-363.5 0.5,-363.5"/>
<text text-anchor="middle" x="72" y="-370.5" font-family="Helvetica,sans-Serif" font-size="10.00">HashMap&lt; String, Color &gt;</text>
</g>
<!-- Node6&#45;&gt;Node5 -->
<g id="edge5" class="edge"><title>Node6&#45;&gt;Node5</title>
<path fill="none" stroke="#9a32cd" stroke-dasharray="5,2" d="M153.664,-367.037C195.174,-363.968 244.454,-360.324 280.35,-357.671"/>
<polygon fill="#9a32cd" stroke="#9a32cd" points="153.281,-363.555 143.566,-367.783 153.797,-370.536 153.281,-363.555"/>
<text text-anchor="middle" x="198" y="-370" font-family="Helvetica,sans-Serif" font-size="10.00"> stateColors</text>
</g>
<!-- Node7 -->
<g id="node7" class="node"><title>Node7</title>
<polygon fill="white" stroke="#bfbfbf" points="30,-325.5 30,-344.5 114,-344.5 114,-325.5 30,-325.5"/>
<text text-anchor="middle" x="72" y="-332.5" font-family="Helvetica,sans-Serif" font-size="10.00">List&lt; String &gt;</text>
</g>
<!-- Node7&#45;&gt;Node5 -->
<g id="edge6" class="edge"><title>Node7&#45;&gt;Node5</title>
<path fill="none" stroke="#9a32cd" stroke-dasharray="5,2" d="M124.219,-338.787C169.597,-342.141 235.432,-347.009 280.335,-350.328"/>
<polygon fill="#9a32cd" stroke="#9a32cd" points="124.237,-335.279 114.007,-338.032 123.721,-342.259 124.237,-335.279"/>
<text text-anchor="middle" x="198" y="-350" font-family="Helvetica,sans-Serif" font-size="10.00"> myStateTypes</text>
</g>
<!-- Node8 -->
<g id="node8" class="node"><title>Node8</title>
<polygon fill="white" stroke="#bfbfbf" points="27.5,-139.5 27.5,-158.5 116.5,-158.5 116.5,-139.5 27.5,-139.5"/>
<text text-anchor="middle" x="72" y="-146.5" font-family="Helvetica,sans-Serif" font-size="10.00">List&lt; Integer &gt;</text>
</g>
<!-- Node8&#45;&gt;Node5 -->
<g id="edge7" class="edge"><title>Node8&#45;&gt;Node5</title>
<path fill="none" stroke="#9a32cd" stroke-dasharray="5,2" d="M93.0277,-164.975C143.947,-205.592 277.207,-311.889 317.975,-344.408"/>
<polygon fill="#9a32cd" stroke="#9a32cd" points="95.0511,-162.112 85.0509,-158.613 90.686,-167.585 95.0511,-162.112"/>
<text text-anchor="middle" x="198" y="-279" font-family="Helvetica,sans-Serif" font-size="10.00"> paramList</text>
</g>
<!-- Node8&#45;&gt;Node12 -->
<g id="edge18" class="edge"><title>Node8&#45;&gt;Node12</title>
<path fill="none" stroke="#9a32cd" stroke-dasharray="5,2" d="M88.7665,-131.708C126.375,-92.4549 225.997,-0 330,-0 330,-0 330,-0 864,-0 982.603,-0 1082.37,-135.765 1107.75,-173.419"/>
<polygon fill="#9a32cd" stroke="#9a32cd" points="86.0009,-129.54 81.7032,-139.224 91.1019,-134.333 86.0009,-129.54"/>
<text text-anchor="middle" x="596" y="-3" font-family="Helvetica,sans-Serif" font-size="10.00"> myParamList</text>
</g>
<!-- Node9&#45;&gt;Node1 -->
<g id="edge39" class="edge"><title>Node9&#45;&gt;Node1</title>
<path fill="none" stroke="#9a32cd" stroke-dasharray="5,2" d="M613.416,-408.565C631.112,-425.263 660.943,-450.203 692,-462 797.136,-501.937 835.407,-455.741 944,-485 984.703,-495.967 995.312,-501.047 1030,-525 1061.53,-546.771 1092.05,-580.789 1106.04,-597.325"/>
<polygon fill="#9a32cd" stroke="#9a32cd" points="615.795,-405.997 606.179,-401.55 610.923,-411.023 615.795,-405.997"/>
<text text-anchor="middle" x="863" y="-488" font-family="Helvetica,sans-Serif" font-size="10.00"> myGrid</text>
</g>
<!-- Node9&#45;&gt;Node3 -->
<g id="edge8" class="edge"><title>Node9&#45;&gt;Node3</title>
<path fill="none" stroke="#9a32cd" stroke-dasharray="5,2" d="M609.751,-409.621C626.378,-431.41 657.444,-468.271 692,-490 720.555,-507.956 742.496,-488.013 764,-514 802.309,-560.295 741.679,-603.446 782,-648 785.448,-651.81 789.509,-654.925 793.941,-657.464"/>
<polygon fill="#9a32cd" stroke="#9a32cd" points="612.516,-407.473 603.73,-401.552 606.906,-411.66 612.516,-407.473"/>
<text text-anchor="middle" x="728" y="-517" font-family="Helvetica,sans-Serif" font-size="10.00"> grid</text>
</g>
<!-- Node9&#45;&gt;Node10 -->
<g id="edge19" class="edge"><title>Node9&#45;&gt;Node10</title>
<path fill="none" stroke="#9a32cd" stroke-dasharray="5,2" d="M614.2,-375.45C630.359,-359.553 654.852,-334.543 674,-311 682.868,-300.096 680.598,-293.218 692,-285 719.041,-265.51 733.617,-277.712 764,-264 796.664,-249.258 831.284,-225.042 849.348,-211.654"/>
<polygon fill="#9a32cd" stroke="#9a32cd" points="611.712,-372.988 606.997,-382.476 616.599,-377.999 611.712,-372.988"/>
<text text-anchor="middle" x="728" y="-288" font-family="Helvetica,sans-Serif" font-size="10.00"> grid</text>
</g>
<!-- Node22 -->
<g id="node22" class="node"><title>Node22</title>
<g id="a_node22"><a xlink:href="../../dd/d38/classcontroller_1_1_grid_edge_rules.html" target="_top" xlink:title="controller.GridEdgeRules">
<polygon fill="white" stroke="black" points="797,-382.5 797,-401.5 929,-401.5 929,-382.5 797,-382.5"/>
<text text-anchor="middle" x="863" y="-389.5" font-family="Helvetica,sans-Serif" font-size="10.00">controller.GridEdgeRules</text>
</a>
</g>
</g>
<!-- Node9&#45;&gt;Node22 -->
<g id="edge30" class="edge"><title>Node9&#45;&gt;Node22</title>
<path fill="none" stroke="#9a32cd" stroke-dasharray="5,2" d="M647.778,-397.069C662.066,-398.28 677.628,-399.396 692,-400 723.972,-401.344 732.027,-401.303 764,-400 774.66,-399.566 785.956,-398.866 796.943,-398.058"/>
<polygon fill="#9a32cd" stroke="#9a32cd" points="647.903,-393.567 637.634,-396.177 647.289,-400.54 647.903,-393.567"/>
<text text-anchor="middle" x="728" y="-404" font-family="Helvetica,sans-Serif" font-size="10.00"> grid</text>
</g>
<!-- Node9&#45;&gt;Node30 -->
<g id="edge47" class="edge"><title>Node9&#45;&gt;Node30</title>
<path fill="none" stroke="#9a32cd" stroke-dasharray="5,2" d="M642.451,-404.188C658.097,-408.195 675.764,-412.513 692,-416 841.169,-448.039 884.641,-429.646 1030,-476 1150.84,-514.536 1174.62,-541.137 1288,-598 1310.06,-609.063 1335.1,-622.493 1351.43,-631.368"/>
<polygon fill="#9a32cd" stroke="#9a32cd" points="643.055,-400.729 632.497,-401.611 641.3,-407.506 643.055,-400.729"/>
<text text-anchor="middle" x="996" y="-479" font-family="Helvetica,sans-Serif" font-size="10.00"> myGrid</text>
</g>
<!-- Node10&#45;&gt;Node9 -->
<g id="edge11" class="edge"><title>Node10&#45;&gt;Node9</title>
<path fill="none" stroke="#9a32cd" stroke-dasharray="5,2" d="M848.419,-219.627C831.038,-241.05 798.966,-276.938 764,-298 735.224,-315.333 721.866,-305.621 692,-321 658.317,-338.344 623.976,-367.435 607.324,-382.426"/>
<polygon fill="#9a32cd" stroke="#9a32cd" points="851.258,-221.68 854.735,-211.673 845.776,-217.327 851.258,-221.68"/>
<text text-anchor="middle" x="728" y="-324" font-family="Helvetica,sans-Serif" font-size="10.00"> gridArray</text>
</g>
<!-- Node10&#45;&gt;Node12 -->
<g id="edge16" class="edge"><title>Node10&#45;&gt;Node12</title>
<path fill="none" stroke="#9a32cd" stroke-dasharray="5,2" d="M911.976,-190.202C927.802,-186.85 945.56,-183.66 962,-182 992.069,-178.963 999.778,-181.82 1030,-182 1037.73,-182.046 1045.86,-182.116 1053.89,-182.198"/>
<polygon fill="#9a32cd" stroke="#9a32cd" points="910.908,-186.853 901.889,-192.414 912.407,-193.691 910.908,-186.853"/>
<text text-anchor="middle" x="996" y="-185" font-family="Helvetica,sans-Serif" font-size="10.00"> myPatch</text>
</g>
<!-- Node11 -->
<g id="node11" class="node"><title>Node11</title>
<polygon fill="white" stroke="#bfbfbf" points="573,-240.5 573,-259.5 619,-259.5 619,-240.5 573,-240.5"/>
<text text-anchor="middle" x="596" y="-247.5" font-family="Helvetica,sans-Serif" font-size="10.00">Group</text>
</g>
<!-- Node11&#45;&gt;Node10 -->
<g id="edge12" class="edge"><title>Node11&#45;&gt;Node10</title>
<path fill="none" stroke="midnightblue" d="M629.168,-244.173C673.968,-236.059 755.685,-221.257 809.414,-211.525"/>
<polygon fill="midnightblue" stroke="midnightblue" points="628.354,-240.764 619.138,-245.99 629.602,-247.652 628.354,-240.764"/>
</g>
<!-- Node12&#45;&gt;Node10 -->
<g id="edge14" class="edge"><title>Node12&#45;&gt;Node10</title>
<path fill="none" stroke="#9a32cd" stroke-dasharray="5,2" d="M1043.77,-193.561C1039.12,-194.098 1034.49,-194.585 1030,-195 996.681,-198.075 959.474,-199.8 928.744,-200.768"/>
<polygon fill="#9a32cd" stroke="#9a32cd" points="1044.47,-197.002 1053.98,-192.317 1043.63,-190.053 1044.47,-197.002"/>
<text text-anchor="middle" x="996" y="-203" font-family="Helvetica,sans-Serif" font-size="10.00"> myCell</text>
</g>
<!-- Node13 -->
<g id="node13" class="node"><title>Node13</title>
<polygon fill="white" stroke="#bfbfbf" points="831.5,-140.5 831.5,-159.5 894.5,-159.5 894.5,-140.5 831.5,-140.5"/>
<text text-anchor="middle" x="863" y="-147.5" font-family="Helvetica,sans-Serif" font-size="10.00">Rectangle</text>
</g>
<!-- Node13&#45;&gt;Node12 -->
<g id="edge15" class="edge"><title>Node13&#45;&gt;Node12</title>
<path fill="none" stroke="midnightblue" d="M904.699,-155.372C945.179,-160.716 1007.75,-168.975 1053.94,-175.072"/>
<polygon fill="midnightblue" stroke="midnightblue" points="905.027,-151.885 894.655,-154.046 904.111,-158.825 905.027,-151.885"/>
</g>
<!-- Node14 -->
<g id="node14" class="node"><title>Node14</title>
<polygon fill="white" stroke="#bfbfbf" points="562,-202.5 562,-221.5 630,-221.5 630,-202.5 562,-202.5"/>
<text text-anchor="middle" x="596" y="-209.5" font-family="Helvetica,sans-Serif" font-size="10.00">ImageView</text>
</g>
<!-- Node14&#45;&gt;Node10 -->
<g id="edge20" class="edge"><title>Node14&#45;&gt;Node10</title>
<path fill="none" stroke="#9a32cd" stroke-dasharray="5,2" d="M640.585,-207.054C656.715,-205.439 675.17,-203.845 692,-203 726.783,-201.254 765.619,-200.905 797.382,-201.036"/>
<polygon fill="#9a32cd" stroke="#9a32cd" points="639.948,-203.601 630.361,-208.111 640.668,-210.564 639.948,-203.601"/>
<text text-anchor="middle" x="728" y="-206" font-family="Helvetica,sans-Serif" font-size="10.00"> myView</text>
</g>
<!-- Node15 -->
<g id="node15" class="node"><title>Node15</title>
<g id="a_node15"><a xlink:href="../../df/d37/enumsimulation_objects_1_1_patch_1_1_state.html" target="_top" xlink:title="simulationObjects.Patch.\lState">
<polygon fill="white" stroke="black" points="529,-153 529,-183 663,-183 663,-153 529,-153"/>
<text text-anchor="start" x="537" y="-171" font-family="Helvetica,sans-Serif" font-size="10.00">simulationObjects.Patch.</text>
<text text-anchor="middle" x="596" y="-160" font-family="Helvetica,sans-Serif" font-size="10.00">State</text>
</a>
</g>
</g>
<!-- Node15&#45;&gt;Node10 -->
<g id="edge21" class="edge"><title>Node15&#45;&gt;Node10</title>
<path fill="none" stroke="#9a32cd" stroke-dasharray="5,2" d="M673.582,-176.085C702.008,-179.252 734.504,-183.066 764,-187 776.369,-188.65 789.592,-190.568 802.194,-192.47"/>
<polygon fill="#9a32cd" stroke="#9a32cd" points="673.631,-172.569 663.307,-174.949 672.862,-179.527 673.631,-172.569"/>
<text text-anchor="middle" x="728" y="-190" font-family="Helvetica,sans-Serif" font-size="10.00"> myState</text>
</g>
<!-- Node16 -->
<g id="node16" class="node"><title>Node16</title>
<polygon fill="white" stroke="#bfbfbf" points="572.5,-67.5 572.5,-86.5 619.5,-86.5 619.5,-67.5 572.5,-67.5"/>
<text text-anchor="middle" x="596" y="-74.5" font-family="Helvetica,sans-Serif" font-size="10.00">Image</text>
</g>
<!-- Node16&#45;&gt;Node10 -->
<g id="edge22" class="edge"><title>Node16&#45;&gt;Node10</title>
<path fill="none" stroke="#9a32cd" stroke-dasharray="5,2" d="M629.947,-71.17C667.172,-66.5984 727.332,-65.5924 764,-98 788.392,-119.558 760.684,-144.396 782,-169 791.543,-180.015 805.339,-187.42 818.796,-192.37"/>
<polygon fill="#9a32cd" stroke="#9a32cd" points="629.063,-67.759 619.639,-72.5994 630.025,-74.6927 629.063,-67.759"/>
<text text-anchor="middle" x="728" y="-101" font-family="Helvetica,sans-Serif" font-size="10.00"> image</text>
</g>
<!-- Node17&#45;&gt;Node10 -->
<g id="edge23" class="edge"><title>Node17&#45;&gt;Node10</title>
<path fill="none" stroke="#9a32cd" stroke-dasharray="5,2" d="M656.562,-28.5301C692.232,-25.8602 735.95,-29.4924 764,-56 800.962,-90.9298 750.469,-129.099 782,-169 790.756,-180.081 803.868,-187.473 816.957,-192.392"/>
<polygon fill="#9a32cd" stroke="#9a32cd" points="655.89,-25.0774 646.257,-29.489 656.538,-32.0473 655.89,-25.0774"/>
<text text-anchor="middle" x="728" y="-59" font-family="Helvetica,sans-Serif" font-size="10.00"> myBody</text>
</g>
<!-- Node18 -->
<g id="node18" class="node"><title>Node18</title>
<polygon fill="white" stroke="#bfbfbf" points="304,-29.5 304,-48.5 358,-48.5 358,-29.5 304,-29.5"/>
<text text-anchor="middle" x="331" y="-36.5" font-family="Helvetica,sans-Serif" font-size="10.00">Polygon</text>
</g>
<!-- Node18&#45;&gt;Node17 -->
<g id="edge24" class="edge"><title>Node18&#45;&gt;Node17</title>
<path fill="none" stroke="midnightblue" d="M368.408,-39C406.988,-39 469.039,-39 518.46,-39"/>
<polygon fill="midnightblue" stroke="midnightblue" points="368.179,-35.5001 358.179,-39 368.179,-42.5001 368.179,-35.5001"/>
</g>
<!-- Node19 -->
<g id="node19" class="node"><title>Node19</title>
<polygon fill="white" stroke="#bfbfbf" points="310.5,-67.5 310.5,-86.5 351.5,-86.5 351.5,-67.5 310.5,-67.5"/>
<text text-anchor="middle" x="331" y="-74.5" font-family="Helvetica,sans-Serif" font-size="10.00">Point</text>
</g>
<!-- Node19&#45;&gt;Node17 -->
<g id="edge26" class="edge"><title>Node19&#45;&gt;Node17</title>
<path fill="none" stroke="#9a32cd" stroke-dasharray="5,2" d="M361.727,-72.7937C395.308,-68.0328 451.59,-60.0249 500,-53 509.899,-51.5635 520.376,-50.0314 530.617,-48.5273"/>
<polygon fill="#9a32cd" stroke="#9a32cd" points="361.071,-69.3517 351.661,-74.22 362.053,-76.2824 361.071,-69.3517"/>
<text text-anchor="middle" x="464" y="-66" font-family="Helvetica,sans-Serif" font-size="10.00"> myCenter</text>
</g>
<!-- Node20 -->
<g id="node20" class="node"><title>Node20</title>
<polygon fill="white" stroke="#bfbfbf" points="264.5,-157 264.5,-187 397.5,-187 397.5,-157 264.5,-157"/>
<text text-anchor="start" x="272.5" y="-175" font-family="Helvetica,sans-Serif" font-size="10.00">List&lt; simulationObjects.</text>
<text text-anchor="middle" x="331" y="-164" font-family="Helvetica,sans-Serif" font-size="10.00">Patch &gt;</text>
</g>
<!-- Node20&#45;&gt;Node9 -->
<g id="edge31" class="edge"><title>Node20&#45;&gt;Node9</title>
<path fill="none" stroke="#9a32cd" stroke-dasharray="5,2" d="M408.087,-167.28C440.555,-169.429 476.337,-178.026 500,-202 534.492,-236.945 496.119,-267.044 518,-311 533.304,-341.744 564.255,-368.696 581.9,-382.403"/>
<polygon fill="#9a32cd" stroke="#9a32cd" points="407.832,-163.764 397.681,-166.797 407.508,-170.757 407.832,-163.764"/>
<text text-anchor="middle" x="464" y="-205" font-family="Helvetica,sans-Serif" font-size="10.00"> emptyPatches</text>
</g>
<!-- Node20&#45;&gt;Node10 -->
<g id="edge27" class="edge"><title>Node20&#45;&gt;Node10</title>
<path fill="none" stroke="#9a32cd" stroke-dasharray="5,2" d="M391.891,-154.376C460.427,-136.662 575.869,-114.324 674,-132 707.077,-137.958 797.134,-174.719 839.456,-192.451"/>
<polygon fill="#9a32cd" stroke="#9a32cd" points="390.904,-151.016 382.127,-156.951 392.689,-157.785 390.904,-151.016"/>
<text text-anchor="middle" x="596" y="-135" font-family="Helvetica,sans-Serif" font-size="10.00"> myNeighbors</text>
</g>
<!-- Node21 -->
<g id="node21" class="node"><title>Node21</title>
<polygon fill="white" stroke="#bfbfbf" points="252,-226.5 252,-245.5 410,-245.5 410,-226.5 252,-226.5"/>
<text text-anchor="middle" x="331" y="-233.5" font-family="Helvetica,sans-Serif" font-size="10.00">HashMap&lt; Integer, Integer &gt;</text>
</g>
<!-- Node21&#45;&gt;Node9 -->
<g id="edge28" class="edge"><title>Node21&#45;&gt;Node9</title>
<path fill="none" stroke="#9a32cd" stroke-dasharray="5,2" d="M370.701,-223.862C407.914,-214.782 463.717,-208.309 500,-237 526.55,-257.994 501.792,-281.285 518,-311 534.538,-341.319 565.304,-368.636 582.517,-382.468"/>
<polygon fill="#9a32cd" stroke="#9a32cd" points="369.522,-220.553 360.73,-226.465 371.29,-227.326 369.522,-220.553"/>
<text text-anchor="middle" x="464" y="-240" font-family="Helvetica,sans-Serif" font-size="10.00"> cellCounts</text>
</g>
<!-- Node22&#45;&gt;Node9 -->
<g id="edge29" class="edge"><title>Node22&#45;&gt;Node9</title>
<path fill="none" stroke="#9a32cd" stroke-dasharray="5,2" d="M786.808,-389.464C779.106,-389.274 771.396,-389.113 764,-389 732.004,-388.51 723.996,-388.495 692,-389 674.181,-389.281 654.489,-389.859 637.675,-390.433"/>
<polygon fill="#9a32cd" stroke="#9a32cd" points="786.816,-392.965 796.904,-389.728 786.999,-385.968 786.816,-392.965"/>
<text text-anchor="middle" x="728" y="-392" font-family="Helvetica,sans-Serif" font-size="10.00"> myEdgeRules</text>
</g>
<!-- Node23 -->
<g id="node23" class="node"><title>Node23</title>
<polygon fill="white" stroke="#bfbfbf" points="558.5,-572.5 558.5,-591.5 633.5,-591.5 633.5,-572.5 558.5,-572.5"/>
<text text-anchor="middle" x="596" y="-579.5" font-family="Helvetica,sans-Serif" font-size="10.00">NumberAxis</text>
</g>
<!-- Node23&#45;&gt;Node3 -->
<g id="edge32" class="edge"><title>Node23&#45;&gt;Node3</title>
<path fill="none" stroke="#9a32cd" stroke-dasharray="5,2" d="M643.902,-575.878C680.303,-573.735 730.112,-576.825 764,-603 781.047,-616.168 765.689,-633.931 782,-648 786.432,-651.823 791.496,-654.908 796.877,-657.395"/>
<polygon fill="#9a32cd" stroke="#9a32cd" points="643.255,-572.416 633.542,-576.648 643.774,-579.397 643.255,-572.416"/>
<text text-anchor="middle" x="728" y="-617" font-family="Helvetica,sans-Serif" font-size="10.00"> myXAxis</text>
<text text-anchor="middle" x="728" y="-606" font-family="Helvetica,sans-Serif" font-size="10.00">myYAxis</text>
</g>
<!-- Node24 -->
<g id="node24" class="node"><title>Node24</title>
<polygon fill="white" stroke="#bfbfbf" points="553,-771.5 553,-790.5 639,-790.5 639,-771.5 553,-771.5"/>
<text text-anchor="middle" x="596" y="-778.5" font-family="Helvetica,sans-Serif" font-size="10.00">List&lt; Series &gt;</text>
</g>
<!-- Node24&#45;&gt;Node3 -->
<g id="edge33" class="edge"><title>Node24&#45;&gt;Node3</title>
<path fill="none" stroke="#9a32cd" stroke-dasharray="5,2" d="M649.573,-786.387C685.432,-787.212 732.036,-782.338 764,-757 781.204,-743.362 767.516,-727.498 782,-711 796.013,-695.038 817.275,-683.731 834.358,-676.579"/>
<polygon fill="#9a32cd" stroke="#9a32cd" points="649.42,-782.879 639.293,-785.991 649.15,-789.874 649.42,-782.879"/>
<text text-anchor="middle" x="728" y="-788" font-family="Helvetica,sans-Serif" font-size="10.00"> myDataPoints</text>
</g>
<!-- Node25 -->
<g id="node25" class="node"><title>Node25</title>
<polygon fill="white" stroke="#bfbfbf" points="565,-695.5 565,-714.5 627,-714.5 627,-695.5 565,-695.5"/>
<text text-anchor="middle" x="596" y="-702.5" font-family="Helvetica,sans-Serif" font-size="10.00">LineChart</text>
</g>
<!-- Node25&#45;&gt;Node3 -->
<g id="edge34" class="edge"><title>Node25&#45;&gt;Node3</title>
<path fill="none" stroke="#9a32cd" stroke-dasharray="5,2" d="M637.275,-699.225C679.319,-693.196 745.942,-683.642 795.749,-676.5"/>
<polygon fill="#9a32cd" stroke="#9a32cd" points="636.543,-695.794 627.141,-700.678 637.536,-702.723 636.543,-695.794"/>
<text text-anchor="middle" x="728" y="-694" font-family="Helvetica,sans-Serif" font-size="10.00"> myLineChart</text>
</g>
<!-- Node26 -->
<g id="node26" class="node"><title>Node26</title>
<polygon fill="white" stroke="#bfbfbf" points="529.5,-610.5 529.5,-629.5 662.5,-629.5 662.5,-610.5 529.5,-610.5"/>
<text text-anchor="middle" x="596" y="-617.5" font-family="Helvetica,sans-Serif" font-size="10.00">Map&lt; Integer, Integer &gt;</text>
</g>
<!-- Node26&#45;&gt;Node3 -->
<g id="edge35" class="edge"><title>Node26&#45;&gt;Node3</title>
<path fill="none" stroke="#9a32cd" stroke-dasharray="5,2" d="M672.747,-625.551C701.603,-628.698 734.606,-633.557 764,-641 772.321,-643.107 773.805,-645.447 782,-648 793.176,-651.482 805.4,-654.683 816.855,-657.425"/>
<polygon fill="#9a32cd" stroke="#9a32cd" points="673.034,-622.062 662.725,-624.507 672.309,-629.024 673.034,-622.062"/>
<text text-anchor="middle" x="728" y="-644" font-family="Helvetica,sans-Serif" font-size="10.00"> cellCounts</text>
</g>
<!-- Node27 -->
<g id="node27" class="node"><title>Node27</title>
<polygon fill="white" stroke="#bfbfbf" points="835,-619.5 835,-638.5 891,-638.5 891,-619.5 835,-619.5"/>
<text text-anchor="middle" x="863" y="-626.5" font-family="Helvetica,sans-Serif" font-size="10.00">Timeline</text>
</g>
<!-- Node27&#45;&gt;Node1 -->
<g id="edge37" class="edge"><title>Node27&#45;&gt;Node1</title>
<path fill="none" stroke="#9a32cd" stroke-dasharray="5,2" d="M901.528,-625.697C940.261,-622.289 1001.46,-616.904 1048.25,-612.786"/>
<polygon fill="#9a32cd" stroke="#9a32cd" points="900.885,-622.241 891.23,-626.604 901.499,-629.214 900.885,-622.241"/>
<text text-anchor="middle" x="996" y="-623" font-family="Helvetica,sans-Serif" font-size="10.00"> myAnimation</text>
</g>
<!-- Node28 -->
<g id="node28" class="node"><title>Node28</title>
<polygon fill="white" stroke="#bfbfbf" points="816.5,-720.5 816.5,-739.5 909.5,-739.5 909.5,-720.5 816.5,-720.5"/>
<text text-anchor="middle" x="863" y="-727.5" font-family="Helvetica,sans-Serif" font-size="10.00">ResourceBundle</text>
</g>
<!-- Node28&#45;&gt;Node1 -->
<g id="edge38" class="edge"><title>Node28&#45;&gt;Node1</title>
<path fill="none" stroke="#9a32cd" stroke-dasharray="5,2" d="M904.98,-717.323C939.344,-705.967 989.2,-687.77 1030,-666 1057.52,-651.318 1086.67,-629.139 1102.36,-616.573"/>
<polygon fill="#9a32cd" stroke="#9a32cd" points="903.704,-714.058 895.28,-720.483 905.873,-720.714 903.704,-714.058"/>
<text text-anchor="middle" x="996" y="-700" font-family="Helvetica,sans-Serif" font-size="10.00"> ourProperties</text>
</g>
<!-- Node28&#45;&gt;Node30 -->
<g id="edge46" class="edge"><title>Node28&#45;&gt;Node30</title>
<path fill="none" stroke="#9a32cd" stroke-dasharray="5,2" d="M919.79,-725.09C1001.49,-717.14 1158.07,-699.021 1288,-667 1306.36,-662.476 1326.61,-655.976 1342.27,-650.607"/>
<polygon fill="#9a32cd" stroke="#9a32cd" points="919.346,-721.616 909.726,-726.054 920.014,-728.584 919.346,-721.616"/>
<text text-anchor="middle" x="1115" y="-713" font-family="Helvetica,sans-Serif" font-size="10.00"> ourMessages</text>
</g>
<!-- Node29 -->
<g id="node29" class="node"><title>Node29</title>
<polygon fill="white" stroke="#bfbfbf" points="782.5,-505.5 782.5,-524.5 943.5,-524.5 943.5,-505.5 782.5,-505.5"/>
<text text-anchor="middle" x="863" y="-512.5" font-family="Helvetica,sans-Serif" font-size="10.00">EventHandler&lt; ActionEvent &gt;</text>
</g>
<!-- Node29&#45;&gt;Node1 -->
<g id="edge40" class="edge"><title>Node29&#45;&gt;Node1</title>
<path fill="none" stroke="#9a32cd" stroke-dasharray="5,2" d="M953.253,-526.463C978.687,-531.534 1005.99,-538.76 1030,-549 1058.85,-561.307 1087.96,-584.322 1103.18,-597.355"/>
<polygon fill="#9a32cd" stroke="#9a32cd" points="953.714,-522.988 943.235,-524.555 952.404,-529.864 953.714,-522.988"/>
<text text-anchor="middle" x="996" y="-552" font-family="Helvetica,sans-Serif" font-size="10.00"> oneFrame</text>
</g>
<!-- Node30&#45;&gt;Node1 -->
<g id="edge41" class="edge"><title>Node30&#45;&gt;Node1</title>
<path fill="none" stroke="#9a32cd" stroke-dasharray="5,2" d="M1341.89,-626.916C1326.52,-619.722 1306.69,-611.718 1288,-608 1253.29,-601.097 1213.86,-600.37 1181.52,-601.581"/>
<polygon fill="#9a32cd" stroke="#9a32cd" points="1340.76,-630.257 1351.28,-631.474 1343.81,-623.959 1340.76,-630.257"/>
<text text-anchor="middle" x="1244" y="-611" font-family="Helvetica,sans-Serif" font-size="10.00"> myUserInterface</text>
</g>
<!-- Node31 -->
<g id="node31" class="node"><title>Node31</title>
<polygon fill="white" stroke="#bfbfbf" points="1092.5,-382.5 1092.5,-401.5 1137.5,-401.5 1137.5,-382.5 1092.5,-382.5"/>
<text text-anchor="middle" x="1115" y="-389.5" font-family="Helvetica,sans-Serif" font-size="10.00">Stage</text>
</g>
<!-- Node31&#45;&gt;Node30 -->
<g id="edge44" class="edge"><title>Node31&#45;&gt;Node30</title>
<path fill="none" stroke="#9a32cd" stroke-dasharray="5,2" d="M1147.54,-384.88C1185.07,-378.356 1247.71,-373.872 1288,-405 1363.07,-463 1368.98,-594.477 1369.12,-631.27"/>
<polygon fill="#9a32cd" stroke="#9a32cd" points="1146.84,-381.451 1137.66,-386.746 1148.14,-388.329 1146.84,-381.451"/>
<text text-anchor="middle" x="1244" y="-408" font-family="Helvetica,sans-Serif" font-size="10.00"> myStage</text>
</g>
</g>
</svg>
        <g id="navigator" transform="translate(0 0)" fill="#404254">
                <rect fill="#f2f5e9" fill-opacity="0.5" stroke="#606060" stroke-width=".5" x="0" y="0" width="60" height="60"/>
                <use id="zoomplus" xlink:href="#zoomPlus" x="17" y="9" onmousedown="handleZoom(evt,'in')"/>
                <use id="zoomminus" xlink:href="#zoomMin" x="42" y="9" onmousedown="handleZoom(evt,'out')"/>
                <use id="reset" xlink:href="#resetDef" x="30" y="36" onmousedown="handleReset()"/>
                <g id="arrowUp" xlink:href="#dirArrow" transform="translate(30 24)" onmousedown="handlePan(0,-1)">
                  <use xlink:href="#rim" fill="#404040">
                        <set attributeName="fill" to="#808080" begin="arrowUp.mouseover" end="arrowUp.mouseout"/>
                  </use>
                  <path fill="none" stroke="white" stroke-width="1.5" d="M0,-3.0v7 M-2.5,-0.5L0,-3.0L2.5,-0.5"/>
                </g>
                <g id="arrowRight" xlink:href="#dirArrow" transform="rotate(90) translate(36 -43)" onmousedown="handlePan(1,0)">
                  <use xlink:href="#rim" fill="#404040">
                        <set attributeName="fill" to="#808080" begin="arrowRight.mouseover" end="arrowRight.mouseout"/>
                  </use>
                  <path fill="none" stroke="white" stroke-width="1.5" d="M0,-3.0v7 M-2.5,-0.5L0,-3.0L2.5,-0.5"/>
                </g>
                <g id="arrowDown" xlink:href="#dirArrow" transform="rotate(180) translate(-30 -48)" onmousedown="handlePan(0,1)">
                  <use xlink:href="#rim" fill="#404040">
                        <set attributeName="fill" to="#808080" begin="arrowDown.mouseover" end="arrowDown.mouseout"/>
                  </use>
                  <path fill="none" stroke="white" stroke-width="1.5" d="M0,-3.0v7 M-2.5,-0.5L0,-3.0L2.5,-0.5"/>
                </g>
                <g id="arrowLeft" xlink:href="#dirArrow" transform="rotate(270) translate(-36 17)" onmousedown="handlePan(-1,0)">
                  <use xlink:href="#rim" fill="#404040">
                        <set attributeName="fill" to="#808080" begin="arrowLeft.mouseover" end="arrowLeft.mouseout"/>
                  </use>
                  <path fill="none" stroke="white" stroke-width="1.5" d="M0,-3.0v7 M-2.5,-0.5L0,-3.0L2.5,-0.5"/>
                </g>
        </g>
        <svg viewBox="0 0 15 15" width="100%" height="30px" preserveAspectRatio="xMaxYMin meet">
         <g id="arrow_out" transform="scale(0.3 0.3)">
          <a xlink:href="classcontroller_1_1_main_controller__coll__graph_org.svg" target="_base">
           <rect id="button" ry="5" rx="5" y="6" x="6" height="38" width="38"
                fill="#f2f5e9" fill-opacity="0.5" stroke="#606060" stroke-width="1.0"/>
           <path id="arrow"
             d="M 11.500037,31.436501 C 11.940474,20.09759 22.043105,11.32322 32.158766,21.979434 L 37.068811,17.246167 C 37.068811,17.246167 37.088388,32 37.088388,32 L 22.160133,31.978069 C 22.160133,31.978069 26.997745,27.140456 26.997745,27.140456 C 18.528582,18.264221 13.291696,25.230495 11.500037,31.436501 z"
             style="fill:#404040;"/>
          </a>
         </g>
        </svg>
</svg>
