<?xml version="1.0" encoding="UTF-8" standalone="no"?>
<!DOCTYPE svg PUBLIC "-//W3C//DTD SVG 1.1//EN"
 "http://www.w3.org/Graphics/SVG/1.1/DTD/svg11.dtd">
<!-- Generated by graphviz version 2.36.0 (20140111.2315)
 -->
<!-- Title: controller.ToroidalEdgeRules.applyRulesAndGetNeighbors Pages: 1 -->
<svg width="396pt" height="136pt"
 viewBox="0.00 0.00 396.00 136.00" xmlns="http://www.w3.org/2000/svg" xmlns:xlink="http://www.w3.org/1999/xlink">
<g id="graph0" class="graph" transform="scale(1 1) rotate(0) translate(4 132)">
<title>controller.ToroidalEdgeRules.applyRulesAndGetNeighbors</title>
<polygon fill="white" stroke="none" points="-4,4 -4,-132 392,-132 392,4 -4,4"/>
<!-- Node1 -->
<g id="node1" class="node"><title>Node1</title>
<polygon fill="#bfbfbf" stroke="black" points="0.5,-49 0.5,-79 177.5,-79 177.5,-49 0.5,-49"/>
<text text-anchor="start" x="8.5" y="-67" font-family="Helvetica,sans-Serif" font-size="10.00">controller.ToroidalEdgeRules.apply</text>
<text text-anchor="middle" x="89" y="-56" font-family="Helvetica,sans-Serif" font-size="10.00">RulesAndGetNeighbors</text>
</g>
<!-- Node2 -->
<g id="node2" class="node"><title>Node2</title>
<g id="a_node2"><a xlink:href="../../d7/d97/classcontroller_1_1_grid.html#a0d00df96b88fcfcf610dd8346860f8ad" target="_top" xlink:title="controller.Grid.getPatch\lAtPoint">
<polygon fill="white" stroke="black" points="237,-98 237,-128 365,-128 365,-98 237,-98"/>
<text text-anchor="start" x="245" y="-116" font-family="Helvetica,sans-Serif" font-size="10.00">controller.Grid.getPatch</text>
<text text-anchor="middle" x="301" y="-105" font-family="Helvetica,sans-Serif" font-size="10.00">AtPoint</text>
</a>
</g>
</g>
<!-- Node1&#45;&gt;Node2 -->
<g id="edge1" class="edge"><title>Node1&#45;&gt;Node2</title>
<path fill="none" stroke="midnightblue" d="M154.434,-79.0346C177.327,-84.3762 203.26,-90.4272 226.829,-95.9268"/>
<polygon fill="midnightblue" stroke="midnightblue" points="226.236,-99.3824 236.77,-98.2463 227.827,-92.5655 226.236,-99.3824"/>
</g>
<!-- Node3 -->
<g id="node3" class="node"><title>Node3</title>
<g id="a_node3"><a xlink:href="../../dd/d38/classcontroller_1_1_grid_edge_rules.html#a1744f73c070f46f05d047ac0d52742b5" target="_top" xlink:title="controller.GridEdgeRules.is\lOutOfBounds">
<polygon fill="white" stroke="black" points="229.5,-49 229.5,-79 372.5,-79 372.5,-49 229.5,-49"/>
<text text-anchor="start" x="237.5" y="-67" font-family="Helvetica,sans-Serif" font-size="10.00">controller.GridEdgeRules.is</text>
<text text-anchor="middle" x="301" y="-56" font-family="Helvetica,sans-Serif" font-size="10.00">OutOfBounds</text>
</a>
</g>
</g>
<!-- Node1&#45;&gt;Node3 -->
<g id="edge2" class="edge"><title>Node1&#45;&gt;Node3</title>
<path fill="none" stroke="midnightblue" d="M177.538,-64C191.26,-64 205.39,-64 218.957,-64"/>
<polygon fill="midnightblue" stroke="midnightblue" points="219.206,-67.5001 229.206,-64 219.206,-60.5001 219.206,-67.5001"/>
</g>
<!-- Node4 -->
<g id="node4" class="node"><title>Node4</title>
<g id="a_node4"><a xlink:href="../../d2/d45/classcontroller_1_1_toroidal_edge_rules.html#ae5f764c2a958c3bd559f88f0e0d94392" target="_top" xlink:title="controller.ToroidalEdgeRules.wrap\lCoordAround">
<polygon fill="white" stroke="black" points="214,-0 214,-30 388,-30 388,-0 214,-0"/>
<text text-anchor="start" x="222" y="-18" font-family="Helvetica,sans-Serif" font-size="10.00">controller.ToroidalEdgeRules.wrap</text>
<text text-anchor="middle" x="301" y="-7" font-family="Helvetica,sans-Serif" font-size="10.00">CoordAround</text>
</a>
</g>
</g>
<!-- Node1&#45;&gt;Node4 -->
<g id="edge3" class="edge"><title>Node1&#45;&gt;Node4</title>
<path fill="none" stroke="midnightblue" d="M154.434,-48.9654C177.01,-43.6976 202.543,-37.7399 225.85,-32.3016"/>
<polygon fill="midnightblue" stroke="midnightblue" points="226.745,-35.687 235.688,-30.0062 225.154,-28.8701 226.745,-35.687"/>
</g>
</g>
</svg>
