<?xml version="1.0" encoding="UTF-8" standalone="no"?>
<!DOCTYPE svg PUBLIC "-//W3C//DTD SVG 1.1//EN"
 "http://www.w3.org/Graphics/SVG/1.1/DTD/svg11.dtd">
<!-- Generated by graphviz version 2.36.0 (20140111.2315)
 -->
<!-- Title: simulationObjects.LifePatch Pages: 1 -->
<svg width="1342pt" height="518pt"
 viewBox="0.00 0.00 1342.00 518.00" xmlns="http://www.w3.org/2000/svg" xmlns:xlink="http://www.w3.org/1999/xlink">
<g id="graph0" class="graph" transform="scale(1 1) rotate(0) translate(4 514)">
<title>simulationObjects.LifePatch</title>
<polygon fill="white" stroke="none" points="-4,4 -4,-514 1338,-514 1338,4 -4,4"/>
<!-- Node1 -->
<g id="node1" class="node"><title>Node1</title>
<polygon fill="#bfbfbf" stroke="black" points="950,-238.5 950,-257.5 1098,-257.5 1098,-238.5 950,-238.5"/>
<text text-anchor="middle" x="1024" y="-245.5" font-family="Helvetica,sans-Serif" font-size="10.00">simulationObjects.LifePatch</text>
</g>
<!-- Node2 -->
<g id="node2" class="node"><title>Node2</title>
<g id="a_node2"><a xlink:href="../../d5/da5/classsimulation_objects_1_1_patch.html" target="_top" xlink:title="simulationObjects.Patch">
<polygon fill="white" stroke="black" points="715.5,-238.5 715.5,-257.5 846.5,-257.5 846.5,-238.5 715.5,-238.5"/>
<text text-anchor="middle" x="781" y="-245.5" font-family="Helvetica,sans-Serif" font-size="10.00">simulationObjects.Patch</text>
</a>
</g>
</g>
<!-- Node2&#45;&gt;Node1 -->
<g id="edge1" class="edge"><title>Node2&#45;&gt;Node1</title>
<path fill="none" stroke="midnightblue" d="M856.85,-248C886.424,-248 920.303,-248 949.721,-248"/>
<polygon fill="midnightblue" stroke="midnightblue" points="856.584,-244.5 846.584,-248 856.584,-251.5 856.584,-244.5"/>
</g>
<!-- Node8 -->
<g id="node8" class="node"><title>Node8</title>
<g id="a_node8"><a xlink:href="../../d2/d6e/classsimulation_objects_1_1_cell.html" target="_top" xlink:title="simulationObjects.Cell">
<polygon fill="white" stroke="black" points="963,-77.5 963,-96.5 1085,-96.5 1085,-77.5 963,-77.5"/>
<text text-anchor="middle" x="1024" y="-84.5" font-family="Helvetica,sans-Serif" font-size="10.00">simulationObjects.Cell</text>
</a>
</g>
</g>
<!-- Node2&#45;&gt;Node8 -->
<g id="edge9" class="edge"><title>Node2&#45;&gt;Node8</title>
<path fill="none" stroke="#9a32cd" stroke-dasharray="5,2" d="M823.537,-235.101C855.013,-224.16 898.426,-206.491 932,-183 968.503,-157.459 1001.94,-115.498 1016,-96.6708"/>
<polygon fill="#9a32cd" stroke="#9a32cd" points="822.11,-231.89 813.764,-238.416 824.359,-238.519 822.11,-231.89"/>
<text text-anchor="middle" x="905" y="-215" font-family="Helvetica,sans-Serif" font-size="10.00"> myPatch</text>
</g>
<!-- Node10 -->
<g id="node10" class="node"><title>Node10</title>
<g id="a_node10"><a xlink:href="../../d7/d97/classcontroller_1_1_grid.html" target="_top" xlink:title="controller.Grid">
<polygon fill="white" stroke="black" points="982.5,-394.5 982.5,-413.5 1065.5,-413.5 1065.5,-394.5 982.5,-394.5"/>
<text text-anchor="middle" x="1024" y="-401.5" font-family="Helvetica,sans-Serif" font-size="10.00">controller.Grid</text>
</a>
</g>
</g>
<!-- Node2&#45;&gt;Node10 -->
<g id="edge15" class="edge"><title>Node2&#45;&gt;Node10</title>
<path fill="none" stroke="#9a32cd" stroke-dasharray="5,2" d="M799.91,-264.283C818.62,-280.868 849.204,-306.806 878,-326 920.1,-354.062 973.3,-380.607 1002.12,-394.318"/>
<polygon fill="#9a32cd" stroke="#9a32cd" points="802.214,-261.648 792.429,-257.587 797.546,-266.864 802.214,-261.648"/>
<text text-anchor="middle" x="905" y="-360" font-family="Helvetica,sans-Serif" font-size="10.00"> gridArray</text>
</g>
<!-- Node3 -->
<g id="node3" class="node"><title>Node3</title>
<polygon fill="white" stroke="#bfbfbf" points="497,-200.5 497,-219.5 543,-219.5 543,-200.5 497,-200.5"/>
<text text-anchor="middle" x="520" y="-207.5" font-family="Helvetica,sans-Serif" font-size="10.00">Group</text>
</g>
<!-- Node3&#45;&gt;Node2 -->
<g id="edge2" class="edge"><title>Node3&#45;&gt;Node2</title>
<path fill="none" stroke="midnightblue" d="M553.153,-214.717C593.515,-220.639 663.711,-230.938 715.356,-238.516"/>
<polygon fill="midnightblue" stroke="midnightblue" points="553.484,-211.229 543.082,-213.24 552.468,-218.155 553.484,-211.229"/>
</g>
<!-- Node4 -->
<g id="node4" class="node"><title>Node4</title>
<g id="a_node4"><a xlink:href="../../de/d7a/classcontroller_1_1_grid_info.html" target="_top" xlink:title="controller.GridInfo">
<polygon fill="white" stroke="black" points="252.5,-161.5 252.5,-180.5 353.5,-180.5 353.5,-161.5 252.5,-161.5"/>
<text text-anchor="middle" x="303" y="-168.5" font-family="Helvetica,sans-Serif" font-size="10.00">controller.GridInfo</text>
</a>
</g>
</g>
<!-- Node4&#45;&gt;Node2 -->
<g id="edge3" class="edge"><title>Node4&#45;&gt;Node2</title>
<path fill="none" stroke="#9a32cd" stroke-dasharray="5,2" d="M363.739,-167.177C423.595,-164.663 518.069,-164.289 598,-180 659.892,-192.165 728.476,-222.842 760.951,-238.494"/>
<polygon fill="#9a32cd" stroke="#9a32cd" points="363.539,-163.682 353.708,-167.632 363.856,-170.675 363.539,-163.682"/>
<text text-anchor="middle" x="520" y="-183" font-family="Helvetica,sans-Serif" font-size="10.00"> infoSheet</text>
</g>
<!-- Node4&#45;&gt;Node8 -->
<g id="edge10" class="edge"><title>Node4&#45;&gt;Node8</title>
<path fill="none" stroke="#9a32cd" stroke-dasharray="5,2" d="M327.576,-156.219C354.204,-140.422 399.393,-116.266 442,-106 627.681,-61.2606 856.347,-72.2855 962.97,-81.0766"/>
<polygon fill="#9a32cd" stroke="#9a32cd" points="325.714,-153.255 318.966,-161.422 329.335,-159.246 325.714,-153.255"/>
<text text-anchor="middle" x="650" y="-83" font-family="Helvetica,sans-Serif" font-size="10.00"> infoSheet</text>
</g>
<!-- Node4&#45;&gt;Node10 -->
<g id="edge14" class="edge"><title>Node4&#45;&gt;Node10</title>
<path fill="none" stroke="#9a32cd" stroke-dasharray="5,2" d="M307.984,-190.376C319.076,-238.427 355.382,-362.205 442,-404 537.274,-449.972 866.457,-420.611 982.291,-408.501"/>
<polygon fill="#9a32cd" stroke="#9a32cd" points="311.401,-189.618 305.839,-180.6 304.564,-191.118 311.401,-189.618"/>
<text text-anchor="middle" x="650" y="-431" font-family="Helvetica,sans-Serif" font-size="10.00"> infoSheet</text>
</g>
<!-- Node18 -->
<g id="node18" class="node"><title>Node18</title>
<g id="a_node18"><a xlink:href="../../d0/d1a/classsimulation_objects_1_1_patch_body.html" target="_top" xlink:title="simulationObjects.PatchBody">
<polygon fill="white" stroke="black" points="442.5,-326.5 442.5,-345.5 597.5,-345.5 597.5,-326.5 442.5,-326.5"/>
<text text-anchor="middle" x="520" y="-333.5" font-family="Helvetica,sans-Serif" font-size="10.00">simulationObjects.PatchBody</text>
</a>
</g>
</g>
<!-- Node4&#45;&gt;Node18 -->
<g id="edge25" class="edge"><title>Node4&#45;&gt;Node18</title>
<path fill="none" stroke="#9a32cd" stroke-dasharray="5,2" d="M315.949,-188.994C337.411,-219.857 385.55,-282.764 442,-316 449.379,-320.345 457.7,-323.758 466.075,-326.436"/>
<polygon fill="#9a32cd" stroke="#9a32cd" points="318.692,-186.803 310.166,-180.513 312.908,-190.747 318.692,-186.803"/>
<text text-anchor="middle" x="398" y="-308" font-family="Helvetica,sans-Serif" font-size="10.00"> infoSheet</text>
</g>
<!-- Node5 -->
<g id="node5" class="node"><title>Node5</title>
<polygon fill="white" stroke="#bfbfbf" points="0.5,-180.5 0.5,-199.5 143.5,-199.5 143.5,-180.5 0.5,-180.5"/>
<text text-anchor="middle" x="72" y="-187.5" font-family="Helvetica,sans-Serif" font-size="10.00">HashMap&lt; String, Color &gt;</text>
</g>
<!-- Node5&#45;&gt;Node4 -->
<g id="edge4" class="edge"><title>Node5&#45;&gt;Node4</title>
<path fill="none" stroke="#9a32cd" stroke-dasharray="5,2" d="M153.64,-183.309C186.538,-180.58 223.532,-177.51 252.35,-175.119"/>
<polygon fill="#9a32cd" stroke="#9a32cd" points="153.252,-179.829 143.576,-184.144 153.831,-186.805 153.252,-179.829"/>
<text text-anchor="middle" x="198" y="-186" font-family="Helvetica,sans-Serif" font-size="10.00"> stateColors</text>
</g>
<!-- Node6 -->
<g id="node6" class="node"><title>Node6</title>
<polygon fill="white" stroke="#bfbfbf" points="30,-142.5 30,-161.5 114,-161.5 114,-142.5 30,-142.5"/>
<text text-anchor="middle" x="72" y="-149.5" font-family="Helvetica,sans-Serif" font-size="10.00">List&lt; String &gt;</text>
</g>
<!-- Node6&#45;&gt;Node4 -->
<g id="edge5" class="edge"><title>Node6&#45;&gt;Node4</title>
<path fill="none" stroke="#9a32cd" stroke-dasharray="5,2" d="M124.408,-154.87C156.045,-156.796 197.408,-159.6 234,-163 239.918,-163.55 246.118,-164.19 252.265,-164.865"/>
<polygon fill="#9a32cd" stroke="#9a32cd" points="124.263,-151.355 114.072,-154.251 123.845,-158.343 124.263,-151.355"/>
<text text-anchor="middle" x="198" y="-166" font-family="Helvetica,sans-Serif" font-size="10.00"> myStateTypes</text>
</g>
<!-- Node7 -->
<g id="node7" class="node"><title>Node7</title>
<polygon fill="white" stroke="#bfbfbf" points="27.5,-71.5 27.5,-90.5 116.5,-90.5 116.5,-71.5 27.5,-71.5"/>
<text text-anchor="middle" x="72" y="-78.5" font-family="Helvetica,sans-Serif" font-size="10.00">List&lt; Integer &gt;</text>
</g>
<!-- Node7&#45;&gt;Node4 -->
<g id="edge6" class="edge"><title>Node7&#45;&gt;Node4</title>
<path fill="none" stroke="#9a32cd" stroke-dasharray="5,2" d="M108.001,-94.2126C140.675,-106.61 190.753,-125.772 234,-143 249.063,-149.001 265.916,-155.939 279.076,-161.407"/>
<polygon fill="#9a32cd" stroke="#9a32cd" points="109.037,-90.8626 98.4458,-90.592 106.557,-97.4084 109.037,-90.8626"/>
<text text-anchor="middle" x="198" y="-146" font-family="Helvetica,sans-Serif" font-size="10.00"> paramList</text>
</g>
<!-- Node7&#45;&gt;Node8 -->
<g id="edge11" class="edge"><title>Node7&#45;&gt;Node8</title>
<path fill="none" stroke="#9a32cd" stroke-dasharray="5,2" d="M124.175,-69.3466C170.386,-59.8488 240.383,-48 302,-48 302,-48 302,-48 782,-48 855.537,-48 940.094,-65.9136 986.956,-77.4595"/>
<polygon fill="#9a32cd" stroke="#9a32cd" points="123.182,-65.9786 114.113,-71.455 124.618,-72.8298 123.182,-65.9786"/>
<text text-anchor="middle" x="520" y="-51" font-family="Helvetica,sans-Serif" font-size="10.00"> myParamList</text>
</g>
<!-- Node8&#45;&gt;Node2 -->
<g id="edge7" class="edge"><title>Node8&#45;&gt;Node2</title>
<path fill="none" stroke="#9a32cd" stroke-dasharray="5,2" d="M995.706,-101.508C966.031,-117.621 917.553,-144.944 878,-172 845.892,-193.963 810.632,-223.362 793.134,-238.342"/>
<polygon fill="#9a32cd" stroke="#9a32cd" points="997.506,-104.514 1004.64,-96.685 994.182,-98.3533 997.506,-104.514"/>
<text text-anchor="middle" x="905" y="-175" font-family="Helvetica,sans-Serif" font-size="10.00"> myCell</text>
</g>
<!-- Node9 -->
<g id="node9" class="node"><title>Node9</title>
<polygon fill="white" stroke="#bfbfbf" points="749.5,-0.5 749.5,-19.5 812.5,-19.5 812.5,-0.5 749.5,-0.5"/>
<text text-anchor="middle" x="781" y="-7.5" font-family="Helvetica,sans-Serif" font-size="10.00">Rectangle</text>
</g>
<!-- Node9&#45;&gt;Node8 -->
<g id="edge8" class="edge"><title>Node9&#45;&gt;Node8</title>
<path fill="none" stroke="midnightblue" d="M823.036,-12.4787C853.767,-15.303 896.453,-21.3046 932,-34 961.959,-44.6995 993.232,-65.3391 1010.19,-77.4635"/>
<polygon fill="midnightblue" stroke="midnightblue" points="822.955,-8.95947 812.696,-11.6064 822.367,-15.9347 822.955,-8.95947"/>
</g>
<!-- Node10&#45;&gt;Node2 -->
<g id="edge12" class="edge"><title>Node10&#45;&gt;Node2</title>
<path fill="none" stroke="#9a32cd" stroke-dasharray="5,2" d="M1008.53,-386.516C991.725,-367.069 962.404,-335.675 932,-315 893.321,-288.698 842.639,-268.598 811.207,-257.549"/>
<polygon fill="#9a32cd" stroke="#9a32cd" points="1005.99,-388.933 1015.13,-394.291 1011.33,-384.402 1005.99,-388.933"/>
<text text-anchor="middle" x="905" y="-318" font-family="Helvetica,sans-Serif" font-size="10.00"> grid</text>
</g>
<!-- Node13 -->
<g id="node13" class="node"><title>Node13</title>
<g id="a_node13"><a xlink:href="../../dd/d38/classcontroller_1_1_grid_edge_rules.html" target="_top" xlink:title="controller.GridEdgeRules">
<polygon fill="white" stroke="black" points="1202,-394.5 1202,-413.5 1334,-413.5 1334,-394.5 1202,-394.5"/>
<text text-anchor="middle" x="1268" y="-401.5" font-family="Helvetica,sans-Serif" font-size="10.00">controller.GridEdgeRules</text>
</a>
</g>
</g>
<!-- Node10&#45;&gt;Node13 -->
<g id="edge18" class="edge"><title>Node10&#45;&gt;Node13</title>
<path fill="none" stroke="#9a32cd" stroke-dasharray="5,2" d="M1075.94,-404C1112.54,-404 1162.19,-404 1201.71,-404"/>
<polygon fill="#9a32cd" stroke="#9a32cd" points="1075.51,-400.5 1065.51,-404 1075.51,-407.5 1075.51,-400.5"/>
<text text-anchor="middle" x="1150" y="-407" font-family="Helvetica,sans-Serif" font-size="10.00"> grid</text>
</g>
<!-- Node11 -->
<g id="node11" class="node"><title>Node11</title>
<polygon fill="white" stroke="#bfbfbf" points="761,-490.5 761,-509.5 801,-509.5 801,-490.5 761,-490.5"/>
<text text-anchor="middle" x="781" y="-497.5" font-family="Helvetica,sans-Serif" font-size="10.00">Pane</text>
</g>
<!-- Node11&#45;&gt;Node10 -->
<g id="edge13" class="edge"><title>Node11&#45;&gt;Node10</title>
<path fill="none" stroke="midnightblue" d="M811.26,-496.058C842.21,-491.191 891.999,-481.349 932,-464 962.903,-450.597 994.826,-426.825 1011.41,-413.583"/>
<polygon fill="midnightblue" stroke="midnightblue" points="810.515,-492.631 801.145,-497.576 811.554,-499.553 810.515,-492.631"/>
</g>
<!-- Node12 -->
<g id="node12" class="node"><title>Node12</title>
<polygon fill="white" stroke="#bfbfbf" points="702,-452.5 702,-471.5 860,-471.5 860,-452.5 702,-452.5"/>
<text text-anchor="middle" x="781" y="-459.5" font-family="Helvetica,sans-Serif" font-size="10.00">HashMap&lt; Integer, Integer &gt;</text>
</g>
<!-- Node12&#45;&gt;Node10 -->
<g id="edge16" class="edge"><title>Node12&#45;&gt;Node10</title>
<path fill="none" stroke="#9a32cd" stroke-dasharray="5,2" d="M870.042,-450.912C890.542,-447.505 912.168,-443.236 932,-438 956.134,-431.629 982.778,-421.26 1000.96,-413.646"/>
<polygon fill="#9a32cd" stroke="#9a32cd" points="869.398,-447.471 860.082,-452.516 870.511,-454.382 869.398,-447.471"/>
<text text-anchor="middle" x="905" y="-452" font-family="Helvetica,sans-Serif" font-size="10.00"> cellCounts</text>
</g>
<!-- Node13&#45;&gt;Node10 -->
<g id="edge17" class="edge"><title>Node13&#45;&gt;Node10</title>
<path fill="none" stroke="#9a32cd" stroke-dasharray="5,2" d="M1215.97,-392.58C1205.45,-390.673 1194.41,-388.994 1184,-388 1153.91,-385.127 1146.11,-385.373 1116,-388 1099.38,-389.45 1081.25,-392.362 1065.57,-395.31"/>
<polygon fill="#9a32cd" stroke="#9a32cd" points="1215.37,-396.03 1225.85,-394.463 1216.68,-389.154 1215.37,-396.03"/>
<text text-anchor="middle" x="1150" y="-391" font-family="Helvetica,sans-Serif" font-size="10.00"> myEdgeRules</text>
</g>
<!-- Node14 -->
<g id="node14" class="node"><title>Node14</title>
<polygon fill="white" stroke="#bfbfbf" points="453.5,-365 453.5,-395 586.5,-395 586.5,-365 453.5,-365"/>
<text text-anchor="start" x="461.5" y="-383" font-family="Helvetica,sans-Serif" font-size="10.00">List&lt; simulationObjects.</text>
<text text-anchor="middle" x="520" y="-372" font-family="Helvetica,sans-Serif" font-size="10.00">Patch &gt;</text>
</g>
<!-- Node14&#45;&gt;Node2 -->
<g id="edge27" class="edge"><title>Node14&#45;&gt;Node2</title>
<path fill="none" stroke="#9a32cd" stroke-dasharray="5,2" d="M576.988,-361.828C584.062,-359.53 591.2,-357.211 598,-355 636.227,-342.571 648.756,-346.33 684,-327 719.579,-307.487 754.675,-274.028 770.809,-257.63"/>
<polygon fill="#9a32cd" stroke="#9a32cd" points="575.85,-358.518 567.42,-364.935 578.012,-365.175 575.85,-358.518"/>
<text text-anchor="middle" x="650" y="-353" font-family="Helvetica,sans-Serif" font-size="10.00"> myNeighbors</text>
</g>
<!-- Node14&#45;&gt;Node10 -->
<g id="edge19" class="edge"><title>Node14&#45;&gt;Node10</title>
<path fill="none" stroke="#9a32cd" stroke-dasharray="5,2" d="M596.789,-383.623C704.632,-388.779 898.578,-398.052 982.487,-402.063"/>
<polygon fill="#9a32cd" stroke="#9a32cd" points="596.783,-380.119 586.628,-383.138 596.449,-387.111 596.783,-380.119"/>
<text text-anchor="middle" x="781" y="-399" font-family="Helvetica,sans-Serif" font-size="10.00"> emptyPatches</text>
</g>
<!-- Node15 -->
<g id="node15" class="node"><title>Node15</title>
<polygon fill="white" stroke="#bfbfbf" points="486,-115.5 486,-134.5 554,-134.5 554,-115.5 486,-115.5"/>
<text text-anchor="middle" x="520" y="-122.5" font-family="Helvetica,sans-Serif" font-size="10.00">ImageView</text>
</g>
<!-- Node15&#45;&gt;Node2 -->
<g id="edge20" class="edge"><title>Node15&#45;&gt;Node2</title>
<path fill="none" stroke="#9a32cd" stroke-dasharray="5,2" d="M564.3,-122.81C598.564,-122.85 646.689,-126.958 684,-146 727.103,-167.999 761.204,-217.431 774.252,-238.353"/>
<polygon fill="#9a32cd" stroke="#9a32cd" points="564.101,-119.311 554.138,-122.916 564.174,-126.311 564.101,-119.311"/>
<text text-anchor="middle" x="650" y="-149" font-family="Helvetica,sans-Serif" font-size="10.00"> myView</text>
</g>
<!-- Node16 -->
<g id="node16" class="node"><title>Node16</title>
<g id="a_node16"><a xlink:href="../../df/d37/enumsimulation_objects_1_1_patch_1_1_state.html" target="_top" xlink:title="simulationObjects.Patch.\lState">
<polygon fill="white" stroke="black" points="453,-277 453,-307 587,-307 587,-277 453,-277"/>
<text text-anchor="start" x="461" y="-295" font-family="Helvetica,sans-Serif" font-size="10.00">simulationObjects.Patch.</text>
<text text-anchor="middle" x="520" y="-284" font-family="Helvetica,sans-Serif" font-size="10.00">State</text>
</a>
</g>
</g>
<!-- Node16&#45;&gt;Node2 -->
<g id="edge21" class="edge"><title>Node16&#45;&gt;Node2</title>
<path fill="none" stroke="#9a32cd" stroke-dasharray="5,2" d="M597.139,-279.065C637.682,-272.178 686.68,-263.854 723.748,-257.556"/>
<polygon fill="#9a32cd" stroke="#9a32cd" points="596.299,-275.658 587.027,-280.783 597.472,-282.559 596.299,-275.658"/>
<text text-anchor="middle" x="650" y="-279" font-family="Helvetica,sans-Serif" font-size="10.00"> myState</text>
</g>
<!-- Node17 -->
<g id="node17" class="node"><title>Node17</title>
<polygon fill="white" stroke="#bfbfbf" points="496.5,-238.5 496.5,-257.5 543.5,-257.5 543.5,-238.5 496.5,-238.5"/>
<text text-anchor="middle" x="520" y="-245.5" font-family="Helvetica,sans-Serif" font-size="10.00">Image</text>
</g>
<!-- Node17&#45;&gt;Node2 -->
<g id="edge22" class="edge"><title>Node17&#45;&gt;Node2</title>
<path fill="none" stroke="#9a32cd" stroke-dasharray="5,2" d="M553.633,-248C594.067,-248 663.908,-248 715.348,-248"/>
<polygon fill="#9a32cd" stroke="#9a32cd" points="553.532,-244.5 543.531,-248 553.531,-251.5 553.532,-244.5"/>
<text text-anchor="middle" x="650" y="-251" font-family="Helvetica,sans-Serif" font-size="10.00"> image</text>
</g>
<!-- Node18&#45;&gt;Node2 -->
<g id="edge23" class="edge"><title>Node18&#45;&gt;Node2</title>
<path fill="none" stroke="#9a32cd" stroke-dasharray="5,2" d="M568.601,-323.865C578.341,-321.317 588.512,-318.611 598,-316 636.378,-305.44 646.636,-304.724 684,-291 711.256,-280.988 741.688,-266.826 760.836,-257.53"/>
<polygon fill="#9a32cd" stroke="#9a32cd" points="567.453,-320.547 558.655,-326.45 569.214,-327.321 567.453,-320.547"/>
<text text-anchor="middle" x="650" y="-315" font-family="Helvetica,sans-Serif" font-size="10.00"> myBody</text>
</g>
<!-- Node19 -->
<g id="node19" class="node"><title>Node19</title>
<polygon fill="white" stroke="#bfbfbf" points="276,-485.5 276,-504.5 330,-504.5 330,-485.5 276,-485.5"/>
<text text-anchor="middle" x="303" y="-492.5" font-family="Helvetica,sans-Serif" font-size="10.00">Polygon</text>
</g>
<!-- Node19&#45;&gt;Node18 -->
<g id="edge24" class="edge"><title>Node19&#45;&gt;Node18</title>
<path fill="none" stroke="midnightblue" d="M339.583,-483.4C344.571,-481.228 349.519,-478.759 354,-476 389.896,-453.898 401.323,-447.535 424,-412 438.292,-389.605 422.624,-373.175 442,-355 446.117,-351.138 450.891,-348.025 456.005,-345.522"/>
<polygon fill="midnightblue" stroke="midnightblue" points="338.041,-480.247 330.054,-487.208 340.639,-486.747 338.041,-480.247"/>
</g>
<!-- Node20 -->
<g id="node20" class="node"><title>Node20</title>
<polygon fill="white" stroke="#bfbfbf" points="282.5,-447.5 282.5,-466.5 323.5,-466.5 323.5,-447.5 282.5,-447.5"/>
<text text-anchor="middle" x="303" y="-454.5" font-family="Helvetica,sans-Serif" font-size="10.00">Point</text>
</g>
<!-- Node20&#45;&gt;Node18 -->
<g id="edge26" class="edge"><title>Node20&#45;&gt;Node18</title>
<path fill="none" stroke="#9a32cd" stroke-dasharray="5,2" d="M321.682,-440.258C346.578,-417.596 394.275,-377.422 442,-355 450.1,-351.194 459.051,-348.096 467.899,-345.592"/>
<polygon fill="#9a32cd" stroke="#9a32cd" points="319.116,-437.864 314.147,-447.221 323.867,-443.005 319.116,-437.864"/>
<text text-anchor="middle" x="398" y="-400" font-family="Helvetica,sans-Serif" font-size="10.00"> myCenter</text>
</g>
</g>
</svg>
