<?xml version="1.0" encoding="UTF-8" standalone="no"?>
<!DOCTYPE svg PUBLIC "-//W3C//DTD SVG 1.1//EN"
 "http://www.w3.org/Graphics/SVG/1.1/DTD/svg11.dtd">
<!-- Generated by graphviz version 2.36.0 (20140111.2315)
 -->
<!-- Title: simulationObjects.Patch Pages: 1 -->
<!--zoomable 532 -->
<svg id="main" version="1.1" xmlns="http://www.w3.org/2000/svg" xmlns:xlink="http://www.w3.org/1999/xlink" xml:space="preserve" onload="init(evt)">
<style type="text/css"><![CDATA[
.edge:hover path { stroke: red; }
.edge:hover polygon { stroke: red; fill: red; }
]]></style>
<script type="text/javascript"><![CDATA[
var edges = document.getElementsByTagName('g');
if (edges && edges.length) {
  for (var i=0;i<edges.length;i++) {
    if (edges[i].id.substr(0,4)=='edge') {
      edges[i].setAttribute('class','edge');
    }
  }
}
]]></script>
        <defs>
                <circle id="rim" cx="0" cy="0" r="7"/>
                <circle id="rim2" cx="0" cy="0" r="3.5"/>
                <g id="zoomPlus">
                        <use xlink:href="#rim" fill="#404040">
                                <set attributeName="fill" to="#808080" begin="zoomplus.mouseover" end="zoomplus.mouseout"/>
                        </use>
                        <path d="M-4,0h8M0,-4v8" fill="none" stroke="white" stroke-width="1.5" pointer-events="none"/>
                </g>
                <g id="zoomMin">
                        <use xlink:href="#rim" fill="#404040">
                                <set attributeName="fill" to="#808080" begin="zoomminus.mouseover" end="zoomminus.mouseout"/>
                        </use>
                        <path d="M-4,0h8" fill="none" stroke="white" stroke-width="1.5" pointer-events="none"/>
                </g>
                <g id="dirArrow">
                        <path fill="none" stroke="white" stroke-width="1.5" d="M0,-3.0v7 M-2.5,-0.5L0,-3.0L2.5,-0.5"/>
                </g>
               <g id="resetDef">
                       <use xlink:href="#rim2" fill="#404040">
                               <set attributeName="fill" to="#808080" begin="reset.mouseover" end="reset.mouseout"/>
                       </use>
               </g>
        </defs>

<script type="text/javascript">
var viewWidth = 1316;
var viewHeight = 532;
var sectionId = 'dynsection-1';
</script>
<script xlink:href="../../svgpan.js"/>
<svg id="graph" class="graph">
<g id="viewport">
<title>simulationObjects.Patch</title>
<polygon fill="white" stroke="none" points="-4,4 -4,-528.409 1312,-528.409 1312,4 -4,4"/>
<!-- Node1 -->
<g id="node1" class="node"><title>Node1</title>
<polygon fill="#bfbfbf" stroke="black" points="715.5,-246.909 715.5,-265.909 846.5,-265.909 846.5,-246.909 715.5,-246.909"/>
<text text-anchor="middle" x="781" y="-253.909" font-family="Helvetica,sans-Serif" font-size="10.00">simulationObjects.Patch</text>
</g>
<!-- Node7 -->
<g id="node7" class="node"><title>Node7</title>
<g id="a_node7"><a xlink:href="../../d2/d6e/classsimulation_objects_1_1_cell.html" target="_top" xlink:title="simulationObjects.Cell">
<polygon fill="white" stroke="black" points="950,-335.909 950,-354.909 1072,-354.909 1072,-335.909 950,-335.909"/>
<text text-anchor="middle" x="1011" y="-342.909" font-family="Helvetica,sans-Serif" font-size="10.00">simulationObjects.Cell</text>
</a>
</g>
</g>
<!-- Node1&#45;&gt;Node7 -->
<g id="edge8" class="edge"><title>Node1&#45;&gt;Node7</title>
<path fill="none" stroke="#9a32cd" stroke-dasharray="5,2" d="M815.721,-269.572C862.095,-287.674 944.454,-319.823 985.431,-335.818"/>
<polygon fill="#9a32cd" stroke="#9a32cd" points="816.988,-266.309 806.4,-265.934 814.443,-272.83 816.988,-266.309"/>
<text text-anchor="middle" x="905" y="-317.409" font-family="Helvetica,sans-Serif" font-size="10.00"> myPatch</text>
</g>
<!-- Node9 -->
<g id="node9" class="node"><title>Node9</title>
<g id="a_node9"><a xlink:href="../../d7/d97/classcontroller_1_1_grid.html" target="_top" xlink:title="controller.Grid">
<polygon fill="white" stroke="black" points="969.5,-97.909 969.5,-116.909 1052.5,-116.909 1052.5,-97.909 969.5,-97.909"/>
<text text-anchor="middle" x="1011" y="-104.909" font-family="Helvetica,sans-Serif" font-size="10.00">controller.Grid</text>
</a>
</g>
</g>
<!-- Node1&#45;&gt;Node9 -->
<g id="edge14" class="edge"><title>Node1&#45;&gt;Node9</title>
<path fill="none" stroke="#9a32cd" stroke-dasharray="5,2" d="M799.072,-239.622C817.526,-222.022 848.298,-194.223 878,-174.409 897.776,-161.217 957.904,-132.102 989.735,-116.967"/>
<polygon fill="#9a32cd" stroke="#9a32cd" points="796.496,-237.243 791.732,-246.706 801.357,-242.28 796.496,-237.243"/>
<text text-anchor="middle" x="905" y="-177.409" font-family="Helvetica,sans-Serif" font-size="10.00"> gridArray</text>
</g>
<!-- Node2 -->
<g id="node2" class="node"><title>Node2</title>
<polygon fill="white" stroke="#bfbfbf" points="497,-206.909 497,-225.909 543,-225.909 543,-206.909 497,-206.909"/>
<text text-anchor="middle" x="520" y="-213.909" font-family="Helvetica,sans-Serif" font-size="10.00">Group</text>
</g>
<!-- Node2&#45;&gt;Node1 -->
<g id="edge1" class="edge"><title>Node2&#45;&gt;Node1</title>
<path fill="none" stroke="midnightblue" d="M553.084,-221.364C594.218,-227.717 666.419,-238.868 718.343,-246.887"/>
<polygon fill="midnightblue" stroke="midnightblue" points="553.499,-217.887 543.082,-219.819 552.431,-224.805 553.499,-217.887"/>
</g>
<!-- Node3 -->
<g id="node3" class="node"><title>Node3</title>
<g id="a_node3"><a xlink:href="../../de/d7a/classcontroller_1_1_grid_info.html" target="_top" xlink:title="controller.GridInfo">
<polygon fill="white" stroke="black" points="252.5,-373.909 252.5,-392.909 353.5,-392.909 353.5,-373.909 252.5,-373.909"/>
<text text-anchor="middle" x="303" y="-380.909" font-family="Helvetica,sans-Serif" font-size="10.00">controller.GridInfo</text>
</a>
</g>
</g>
<!-- Node3&#45;&gt;Node1 -->
<g id="edge2" class="edge"><title>Node3&#45;&gt;Node1</title>
<path fill="none" stroke="#9a32cd" stroke-dasharray="5,2" d="M326.703,-368.12C353.196,-351.036 398.889,-323.881 442,-309.409 442.82,-309.134 621.834,-281.13 718.972,-265.946"/>
<polygon fill="#9a32cd" stroke="#9a32cd" points="324.619,-365.301 318.168,-373.705 328.452,-371.158 324.619,-365.301"/>
<text text-anchor="middle" x="520" y="-312.409" font-family="Helvetica,sans-Serif" font-size="10.00"> infoSheet</text>
</g>
<!-- Node3&#45;&gt;Node7 -->
<g id="edge9" class="edge"><title>Node3&#45;&gt;Node7</title>
<path fill="none" stroke="#9a32cd" stroke-dasharray="5,2" d="M363.968,-382.051C465.924,-379.588 679.557,-373.755 860,-364.409 892.034,-362.75 900.167,-363.359 932,-359.409 941.557,-358.223 951.72,-356.639 961.442,-354.963"/>
<polygon fill="#9a32cd" stroke="#9a32cd" points="363.778,-378.555 353.865,-382.293 363.946,-385.553 363.778,-378.555"/>
<text text-anchor="middle" x="650" y="-378.409" font-family="Helvetica,sans-Serif" font-size="10.00"> infoSheet</text>
</g>
<!-- Node3&#45;&gt;Node9 -->
<g id="edge13" class="edge"><title>Node3&#45;&gt;Node9</title>
<path fill="none" stroke="#9a32cd" stroke-dasharray="5,2" d="M308.076,-363.959C319.652,-313.586 357.506,-177.836 442,-106.409 586.388,15.6494 676.578,18.4464 860,-27.409 915.261,-41.2242 972.455,-79.6786 997.258,-97.7687"/>
<polygon fill="#9a32cd" stroke="#9a32cd" points="304.629,-363.339 305.892,-373.859 311.464,-364.848 304.629,-363.339"/>
<text text-anchor="middle" x="650" y="-10.409" font-family="Helvetica,sans-Serif" font-size="10.00"> infoSheet</text>
</g>
<!-- Node17 -->
<g id="node17" class="node"><title>Node17</title>
<g id="a_node17"><a xlink:href="../../d0/d1a/classsimulation_objects_1_1_patch_body.html" target="_top" xlink:title="simulationObjects.PatchBody">
<polygon fill="white" stroke="black" points="442.5,-427.909 442.5,-446.909 597.5,-446.909 597.5,-427.909 442.5,-427.909"/>
<text text-anchor="middle" x="520" y="-434.909" font-family="Helvetica,sans-Serif" font-size="10.00">simulationObjects.PatchBody</text>
</a>
</g>
</g>
<!-- Node3&#45;&gt;Node17 -->
<g id="edge24" class="edge"><title>Node3&#45;&gt;Node17</title>
<path fill="none" stroke="#9a32cd" stroke-dasharray="5,2" d="M351.997,-395.464C390.948,-405.247 445.116,-418.852 481.076,-427.884"/>
<polygon fill="#9a32cd" stroke="#9a32cd" points="352.494,-391.98 341.943,-392.939 350.789,-398.769 352.494,-391.98"/>
<text text-anchor="middle" x="398" y="-414.409" font-family="Helvetica,sans-Serif" font-size="10.00"> infoSheet</text>
</g>
<!-- Node4 -->
<g id="node4" class="node"><title>Node4</title>
<polygon fill="white" stroke="#bfbfbf" points="0.5,-354.909 0.5,-373.909 143.5,-373.909 143.5,-354.909 0.5,-354.909"/>
<text text-anchor="middle" x="72" y="-361.909" font-family="Helvetica,sans-Serif" font-size="10.00">HashMap&lt; String, Color &gt;</text>
</g>
<!-- Node4&#45;&gt;Node3 -->
<g id="edge3" class="edge"><title>Node4&#45;&gt;Node3</title>
<path fill="none" stroke="#9a32cd" stroke-dasharray="5,2" d="M153.803,-364.203C179.508,-364.863 208.01,-366.353 234,-369.409 242.978,-370.465 252.532,-372.103 261.554,-373.893"/>
<polygon fill="#9a32cd" stroke="#9a32cd" points="153.802,-360.702 143.727,-363.982 153.648,-367.7 153.802,-360.702"/>
<text text-anchor="middle" x="198" y="-372.409" font-family="Helvetica,sans-Serif" font-size="10.00"> stateColors</text>
</g>
<!-- Node5 -->
<g id="node5" class="node"><title>Node5</title>
<polygon fill="white" stroke="#bfbfbf" points="30,-392.909 30,-411.909 114,-411.909 114,-392.909 30,-392.909"/>
<text text-anchor="middle" x="72" y="-399.909" font-family="Helvetica,sans-Serif" font-size="10.00">List&lt; String &gt;</text>
</g>
<!-- Node5&#45;&gt;Node3 -->
<g id="edge4" class="edge"><title>Node5&#45;&gt;Node3</title>
<path fill="none" stroke="#9a32cd" stroke-dasharray="5,2" d="M124.603,-398.127C162.825,-394.956 214.606,-390.66 252.354,-387.528"/>
<polygon fill="#9a32cd" stroke="#9a32cd" points="123.881,-394.675 114.205,-398.99 124.46,-401.651 123.881,-394.675"/>
<text text-anchor="middle" x="198" y="-398.409" font-family="Helvetica,sans-Serif" font-size="10.00"> myStateTypes</text>
</g>
<!-- Node6 -->
<g id="node6" class="node"><title>Node6</title>
<polygon fill="white" stroke="#bfbfbf" points="27.5,-454.909 27.5,-473.909 116.5,-473.909 116.5,-454.909 27.5,-454.909"/>
<text text-anchor="middle" x="72" y="-461.909" font-family="Helvetica,sans-Serif" font-size="10.00">List&lt; Integer &gt;</text>
</g>
<!-- Node6&#45;&gt;Node3 -->
<g id="edge5" class="edge"><title>Node6&#45;&gt;Node3</title>
<path fill="none" stroke="#9a32cd" stroke-dasharray="5,2" d="M112.794,-451.728C145.506,-441.145 192.977,-425.42 234,-410.409 249.03,-404.909 265.738,-398.282 278.831,-392.971"/>
<polygon fill="#9a32cd" stroke="#9a32cd" points="111.583,-448.441 103.139,-454.841 113.731,-455.104 111.583,-448.441"/>
<text text-anchor="middle" x="198" y="-437.409" font-family="Helvetica,sans-Serif" font-size="10.00"> paramList</text>
</g>
<!-- Node6&#45;&gt;Node7 -->
<g id="edge10" class="edge"><title>Node6&#45;&gt;Node7</title>
<path fill="none" stroke="#9a32cd" stroke-dasharray="5,2" d="M109.295,-477.13C154.027,-491.649 232.64,-513.409 302,-513.409 302,-513.409 302,-513.409 782,-513.409 889.679,-513.409 979.982,-390.462 1003.84,-354.923"/>
<polygon fill="#9a32cd" stroke="#9a32cd" points="110.339,-473.789 99.7462,-473.973 108.142,-480.435 110.339,-473.789"/>
<text text-anchor="middle" x="520" y="-516.409" font-family="Helvetica,sans-Serif" font-size="10.00"> myParamList</text>
</g>
<!-- Node7&#45;&gt;Node1 -->
<g id="edge6" class="edge"><title>Node7&#45;&gt;Node1</title>
<path fill="none" stroke="#9a32cd" stroke-dasharray="5,2" d="M993.736,-328.036C979.041,-313.46 956.079,-293.322 932,-282.409 905.399,-270.353 873.815,-263.861 846.506,-260.375"/>
<polygon fill="#9a32cd" stroke="#9a32cd" points="991.51,-330.766 1001,-335.468 996.514,-325.871 991.51,-330.766"/>
<text text-anchor="middle" x="905" y="-285.409" font-family="Helvetica,sans-Serif" font-size="10.00"> myCell</text>
</g>
<!-- Node8 -->
<g id="node8" class="node"><title>Node8</title>
<polygon fill="white" stroke="#bfbfbf" points="749.5,-335.909 749.5,-354.909 812.5,-354.909 812.5,-335.909 749.5,-335.909"/>
<text text-anchor="middle" x="781" y="-342.909" font-family="Helvetica,sans-Serif" font-size="10.00">Rectangle</text>
</g>
<!-- Node8&#45;&gt;Node7 -->
<g id="edge7" class="edge"><title>Node8&#45;&gt;Node7</title>
<path fill="none" stroke="midnightblue" d="M823.171,-345.409C858.515,-345.409 909.924,-345.409 949.872,-345.409"/>
<polygon fill="midnightblue" stroke="midnightblue" points="822.749,-341.909 812.749,-345.409 822.749,-348.909 822.749,-341.909"/>
</g>
<!-- Node9&#45;&gt;Node1 -->
<g id="edge11" class="edge"><title>Node9&#45;&gt;Node1</title>
<path fill="none" stroke="#9a32cd" stroke-dasharray="5,2" d="M996.799,-124.886C982.451,-142.935 958.061,-170.991 932,-189.409 894.151,-216.158 843.913,-235.945 812.265,-246.83"/>
<polygon fill="#9a32cd" stroke="#9a32cd" points="999.622,-126.957 1003,-116.915 994.097,-122.659 999.622,-126.957"/>
<text text-anchor="middle" x="905" y="-222.409" font-family="Helvetica,sans-Serif" font-size="10.00"> grid</text>
</g>
<!-- Node12 -->
<g id="node12" class="node"><title>Node12</title>
<g id="a_node12"><a xlink:href="../../dd/d38/classcontroller_1_1_grid_edge_rules.html" target="_top" xlink:title="controller.GridEdgeRules">
<polygon fill="white" stroke="black" points="1176,-97.909 1176,-116.909 1308,-116.909 1308,-97.909 1176,-97.909"/>
<text text-anchor="middle" x="1242" y="-104.909" font-family="Helvetica,sans-Serif" font-size="10.00">controller.GridEdgeRules</text>
</a>
</g>
</g>
<!-- Node9&#45;&gt;Node12 -->
<g id="edge17" class="edge"><title>Node9&#45;&gt;Node12</title>
<path fill="none" stroke="#9a32cd" stroke-dasharray="5,2" d="M1063.07,-107.409C1096.26,-107.409 1139.85,-107.409 1175.58,-107.409"/>
<polygon fill="#9a32cd" stroke="#9a32cd" points="1062.68,-103.909 1052.68,-107.409 1062.68,-110.909 1062.68,-103.909"/>
<text text-anchor="middle" x="1124" y="-110.409" font-family="Helvetica,sans-Serif" font-size="10.00"> grid</text>
</g>
<!-- Node10 -->
<g id="node10" class="node"><title>Node10</title>
<polygon fill="white" stroke="#bfbfbf" points="761,-36.909 761,-55.909 801,-55.909 801,-36.909 761,-36.909"/>
<text text-anchor="middle" x="781" y="-43.909" font-family="Helvetica,sans-Serif" font-size="10.00">Pane</text>
</g>
<!-- Node10&#45;&gt;Node9 -->
<g id="edge12" class="edge"><title>Node10&#45;&gt;Node9</title>
<path fill="none" stroke="midnightblue" d="M811.286,-53.293C825.944,-56.802 843.942,-61.2064 860,-65.409 900.42,-75.9876 946.687,-89.0952 977.021,-97.8261"/>
<polygon fill="midnightblue" stroke="midnightblue" points="811.817,-49.8218 801.279,-50.912 810.197,-56.6317 811.817,-49.8218"/>
</g>
<!-- Node11 -->
<g id="node11" class="node"><title>Node11</title>
<polygon fill="white" stroke="#bfbfbf" points="702,-74.909 702,-93.909 860,-93.909 860,-74.909 702,-74.909"/>
<text text-anchor="middle" x="781" y="-81.909" font-family="Helvetica,sans-Serif" font-size="10.00">HashMap&lt; Integer, Integer &gt;</text>
</g>
<!-- Node11&#45;&gt;Node9 -->
<g id="edge15" class="edge"><title>Node11&#45;&gt;Node9</title>
<path fill="none" stroke="#9a32cd" stroke-dasharray="5,2" d="M870.169,-93.3032C904.383,-96.7546 941.874,-100.537 969.415,-103.315"/>
<polygon fill="#9a32cd" stroke="#9a32cd" points="870.447,-89.8135 860.146,-92.2921 869.744,-96.7782 870.447,-89.8135"/>
<text text-anchor="middle" x="905" y="-102.409" font-family="Helvetica,sans-Serif" font-size="10.00"> cellCounts</text>
</g>
<!-- Node12&#45;&gt;Node9 -->
<g id="edge16" class="edge"><title>Node12&#45;&gt;Node9</title>
<path fill="none" stroke="#9a32cd" stroke-dasharray="5,2" d="M1189.97,-95.9892C1179.45,-94.0824 1168.41,-92.4028 1158,-91.409 1127.91,-88.5356 1120.07,-88.3569 1090,-91.409 1077.07,-92.7212 1063.12,-95.227 1050.64,-97.8729"/>
<polygon fill="#9a32cd" stroke="#9a32cd" points="1189.37,-99.4391 1199.85,-97.872 1190.68,-92.5628 1189.37,-99.4391"/>
<text text-anchor="middle" x="1124" y="-94.409" font-family="Helvetica,sans-Serif" font-size="10.00"> myEdgeRules</text>
</g>
<!-- Node13 -->
<g id="node13" class="node"><title>Node13</title>
<polygon fill="white" stroke="#bfbfbf" points="453.5,-116.409 453.5,-146.409 586.5,-146.409 586.5,-116.409 453.5,-116.409"/>
<text text-anchor="start" x="461.5" y="-134.409" font-family="Helvetica,sans-Serif" font-size="10.00">List&lt; simulationObjects.</text>
<text text-anchor="middle" x="520" y="-123.409" font-family="Helvetica,sans-Serif" font-size="10.00">Patch &gt;</text>
</g>
<!-- Node13&#45;&gt;Node1 -->
<g id="edge26" class="edge"><title>Node13&#45;&gt;Node1</title>
<path fill="none" stroke="#9a32cd" stroke-dasharray="5,2" d="M593,-149.264C622.128,-157.893 655.528,-169.625 684,-184.409 718.02,-202.074 752.73,-231.541 769.563,-246.719"/>
<polygon fill="#9a32cd" stroke="#9a32cd" points="593.878,-145.875 583.299,-146.457 591.932,-152.599 593.878,-145.875"/>
<text text-anchor="middle" x="650" y="-187.409" font-family="Helvetica,sans-Serif" font-size="10.00"> myNeighbors</text>
</g>
<!-- Node13&#45;&gt;Node9 -->
<g id="edge18" class="edge"><title>Node13&#45;&gt;Node9</title>
<path fill="none" stroke="#9a32cd" stroke-dasharray="5,2" d="M596.578,-129.374C679.071,-126.898 815.02,-122.073 932,-114.409 944.075,-113.618 957.181,-112.531 969.143,-111.449"/>
<polygon fill="#9a32cd" stroke="#9a32cd" points="596.432,-125.877 586.54,-129.671 596.639,-132.874 596.432,-125.877"/>
<text text-anchor="middle" x="781" y="-129.409" font-family="Helvetica,sans-Serif" font-size="10.00"> emptyPatches</text>
</g>
<!-- Node14 -->
<g id="node14" class="node"><title>Node14</title>
<polygon fill="white" stroke="#bfbfbf" points="486,-168.909 486,-187.909 554,-187.909 554,-168.909 486,-168.909"/>
<text text-anchor="middle" x="520" y="-175.909" font-family="Helvetica,sans-Serif" font-size="10.00">ImageView</text>
</g>
<!-- Node14&#45;&gt;Node1 -->
<g id="edge19" class="edge"><title>Node14&#45;&gt;Node1</title>
<path fill="none" stroke="#9a32cd" stroke-dasharray="5,2" d="M564.011,-186.845C597.161,-193.791 643.95,-204.564 684,-217.409 710.38,-225.87 739.762,-238.264 758.988,-246.798"/>
<polygon fill="#9a32cd" stroke="#9a32cd" points="564.685,-183.41 554.184,-184.814 563.269,-190.265 564.685,-183.41"/>
<text text-anchor="middle" x="650" y="-220.409" font-family="Helvetica,sans-Serif" font-size="10.00"> myView</text>
</g>
<!-- Node15 -->
<g id="node15" class="node"><title>Node15</title>
<g id="a_node15"><a xlink:href="../../df/d37/enumsimulation_objects_1_1_patch_1_1_state.html" target="_top" xlink:title="simulationObjects.Patch.\lState">
<polygon fill="white" stroke="black" points="453,-330.409 453,-360.409 587,-360.409 587,-330.409 453,-330.409"/>
<text text-anchor="start" x="461" y="-348.409" font-family="Helvetica,sans-Serif" font-size="10.00">simulationObjects.Patch.</text>
<text text-anchor="middle" x="520" y="-337.409" font-family="Helvetica,sans-Serif" font-size="10.00">State</text>
</a>
</g>
</g>
<!-- Node15&#45;&gt;Node1 -->
<g id="edge20" class="edge"><title>Node15&#45;&gt;Node1</title>
<path fill="none" stroke="#9a32cd" stroke-dasharray="5,2" d="M597.221,-336.655C625.125,-331.969 656.567,-324.914 684,-314.409 716.187,-302.084 749.757,-279.075 767.412,-266.049"/>
<polygon fill="#9a32cd" stroke="#9a32cd" points="596.434,-333.237 587.115,-338.277 597.543,-340.148 596.434,-333.237"/>
<text text-anchor="middle" x="650" y="-336.409" font-family="Helvetica,sans-Serif" font-size="10.00"> myState</text>
</g>
<!-- Node16 -->
<g id="node16" class="node"><title>Node16</title>
<polygon fill="white" stroke="#bfbfbf" points="496.5,-244.909 496.5,-263.909 543.5,-263.909 543.5,-244.909 496.5,-244.909"/>
<text text-anchor="middle" x="520" y="-251.909" font-family="Helvetica,sans-Serif" font-size="10.00">Image</text>
</g>
<!-- Node16&#45;&gt;Node1 -->
<g id="edge21" class="edge"><title>Node16&#45;&gt;Node1</title>
<path fill="none" stroke="#9a32cd" stroke-dasharray="5,2" d="M553.633,-254.661C594.067,-254.973 663.908,-255.512 715.348,-255.91"/>
<polygon fill="#9a32cd" stroke="#9a32cd" points="553.558,-251.16 543.531,-254.583 553.504,-258.16 553.558,-251.16"/>
<text text-anchor="middle" x="650" y="-259.409" font-family="Helvetica,sans-Serif" font-size="10.00"> image</text>
</g>
<!-- Node17&#45;&gt;Node1 -->
<g id="edge22" class="edge"><title>Node17&#45;&gt;Node1</title>
<path fill="none" stroke="#9a32cd" stroke-dasharray="5,2" d="M607.86,-437.706C635.363,-433.514 663.822,-424.048 684,-404.409 709.495,-379.594 683.919,-357.05 702,-326.409 717.627,-299.926 746.615,-277.902 764.512,-265.992"/>
<polygon fill="#9a32cd" stroke="#9a32cd" points="607.25,-434.256 597.787,-439.021 608.156,-441.197 607.25,-434.256"/>
<text text-anchor="middle" x="650" y="-438.409" font-family="Helvetica,sans-Serif" font-size="10.00"> myBody</text>
</g>
<!-- Node18 -->
<g id="node18" class="node"><title>Node18</title>
<polygon fill="white" stroke="#bfbfbf" points="276,-427.909 276,-446.909 330,-446.909 330,-427.909 276,-427.909"/>
<text text-anchor="middle" x="303" y="-434.909" font-family="Helvetica,sans-Serif" font-size="10.00">Polygon</text>
</g>
<!-- Node18&#45;&gt;Node17 -->
<g id="edge23" class="edge"><title>Node18&#45;&gt;Node17</title>
<path fill="none" stroke="midnightblue" d="M340.447,-437.409C368.319,-437.409 407.733,-437.409 442.442,-437.409"/>
<polygon fill="midnightblue" stroke="midnightblue" points="340.363,-433.909 330.363,-437.409 340.363,-440.909 340.363,-433.909"/>
</g>
<!-- Node19 -->
<g id="node19" class="node"><title>Node19</title>
<polygon fill="white" stroke="#bfbfbf" points="282.5,-465.909 282.5,-484.909 323.5,-484.909 323.5,-465.909 282.5,-465.909"/>
<text text-anchor="middle" x="303" y="-472.909" font-family="Helvetica,sans-Serif" font-size="10.00">Point</text>
</g>
<!-- Node19&#45;&gt;Node17 -->
<g id="edge25" class="edge"><title>Node19&#45;&gt;Node17</title>
<path fill="none" stroke="#9a32cd" stroke-dasharray="5,2" d="M334.021,-470.103C367.886,-464.118 423.635,-454.264 465.093,-446.937"/>
<polygon fill="#9a32cd" stroke="#9a32cd" points="333.079,-466.715 323.841,-471.902 334.298,-473.608 333.079,-466.715"/>
<text text-anchor="middle" x="398" y="-465.409" font-family="Helvetica,sans-Serif" font-size="10.00"> myCenter</text>
</g>
</g>
</svg>
        <g id="navigator" transform="translate(0 0)" fill="#404254">
                <rect fill="#f2f5e9" fill-opacity="0.5" stroke="#606060" stroke-width=".5" x="0" y="0" width="60" height="60"/>
                <use id="zoomplus" xlink:href="#zoomPlus" x="17" y="9" onmousedown="handleZoom(evt,'in')"/>
                <use id="zoomminus" xlink:href="#zoomMin" x="42" y="9" onmousedown="handleZoom(evt,'out')"/>
                <use id="reset" xlink:href="#resetDef" x="30" y="36" onmousedown="handleReset()"/>
                <g id="arrowUp" xlink:href="#dirArrow" transform="translate(30 24)" onmousedown="handlePan(0,-1)">
                  <use xlink:href="#rim" fill="#404040">
                        <set attributeName="fill" to="#808080" begin="arrowUp.mouseover" end="arrowUp.mouseout"/>
                  </use>
                  <path fill="none" stroke="white" stroke-width="1.5" d="M0,-3.0v7 M-2.5,-0.5L0,-3.0L2.5,-0.5"/>
                </g>
                <g id="arrowRight" xlink:href="#dirArrow" transform="rotate(90) translate(36 -43)" onmousedown="handlePan(1,0)">
                  <use xlink:href="#rim" fill="#404040">
                        <set attributeName="fill" to="#808080" begin="arrowRight.mouseover" end="arrowRight.mouseout"/>
                  </use>
                  <path fill="none" stroke="white" stroke-width="1.5" d="M0,-3.0v7 M-2.5,-0.5L0,-3.0L2.5,-0.5"/>
                </g>
                <g id="arrowDown" xlink:href="#dirArrow" transform="rotate(180) translate(-30 -48)" onmousedown="handlePan(0,1)">
                  <use xlink:href="#rim" fill="#404040">
                        <set attributeName="fill" to="#808080" begin="arrowDown.mouseover" end="arrowDown.mouseout"/>
                  </use>
                  <path fill="none" stroke="white" stroke-width="1.5" d="M0,-3.0v7 M-2.5,-0.5L0,-3.0L2.5,-0.5"/>
                </g>
                <g id="arrowLeft" xlink:href="#dirArrow" transform="rotate(270) translate(-36 17)" onmousedown="handlePan(-1,0)">
                  <use xlink:href="#rim" fill="#404040">
                        <set attributeName="fill" to="#808080" begin="arrowLeft.mouseover" end="arrowLeft.mouseout"/>
                  </use>
                  <path fill="none" stroke="white" stroke-width="1.5" d="M0,-3.0v7 M-2.5,-0.5L0,-3.0L2.5,-0.5"/>
                </g>
        </g>
        <svg viewBox="0 0 15 15" width="100%" height="30px" preserveAspectRatio="xMaxYMin meet">
         <g id="arrow_out" transform="scale(0.3 0.3)">
          <a xlink:href="classsimulation_objects_1_1_patch__coll__graph_org.svg" target="_base">
           <rect id="button" ry="5" rx="5" y="6" x="6" height="38" width="38"
                fill="#f2f5e9" fill-opacity="0.5" stroke="#606060" stroke-width="1.0"/>
           <path id="arrow"
             d="M 11.500037,31.436501 C 11.940474,20.09759 22.043105,11.32322 32.158766,21.979434 L 37.068811,17.246167 C 37.068811,17.246167 37.088388,32 37.088388,32 L 22.160133,31.978069 C 22.160133,31.978069 26.997745,27.140456 26.997745,27.140456 C 18.528582,18.264221 13.291696,25.230495 11.500037,31.436501 z"
             style="fill:#404040;"/>
          </a>
         </g>
        </svg>
</svg>
