<?xml version="1.0" encoding="UTF-8" standalone="no"?>
<!DOCTYPE svg PUBLIC "-//W3C//DTD SVG 1.1//EN"
 "http://www.w3.org/Graphics/SVG/1.1/DTD/svg11.dtd">
<!-- Generated by graphviz version 2.36.0 (20140111.2315)
 -->
<!-- Title: controller.GridInfo.setType Pages: 1 -->
<svg width="1100pt" height="77pt"
 viewBox="0.00 0.00 1100.00 77.00" xmlns="http://www.w3.org/2000/svg" xmlns:xlink="http://www.w3.org/1999/xlink">
<g id="graph0" class="graph" transform="scale(1 1) rotate(0) translate(4 73)">
<title>controller.GridInfo.setType</title>
<polygon fill="white" stroke="none" points="-4,4 -4,-73 1096,-73 1096,4 -4,4"/>
<!-- Node1 -->
<g id="node1" class="node"><title>Node1</title>
<polygon fill="#bfbfbf" stroke="black" points="0,-22.5 0,-41.5 140,-41.5 140,-22.5 0,-22.5"/>
<text text-anchor="middle" x="70" y="-29.5" font-family="Helvetica,sans-Serif" font-size="10.00">controller.GridInfo.setType</text>
</g>
<!-- Node2 -->
<g id="node2" class="node"><title>Node2</title>
<g id="a_node2"><a xlink:href="../../d3/d6a/classcontroller_1_1_parser.html#a3cb22c70450e8c7a3adfbeb33cf21309" target="_top" xlink:title="controller.Parser.attribute\lParse">
<polygon fill="white" stroke="black" points="176.5,-17 176.5,-47 313.5,-47 313.5,-17 176.5,-17"/>
<text text-anchor="start" x="184.5" y="-35" font-family="Helvetica,sans-Serif" font-size="10.00">controller.Parser.attribute</text>
<text text-anchor="middle" x="245" y="-24" font-family="Helvetica,sans-Serif" font-size="10.00">Parse</text>
</a>
</g>
</g>
<!-- Node1&#45;&gt;Node2 -->
<g id="edge1" class="edge"><title>Node1&#45;&gt;Node2</title>
<path fill="none" stroke="midnightblue" d="M150.448,-32C159.088,-32 167.823,-32 176.305,-32"/>
<polygon fill="midnightblue" stroke="midnightblue" points="150.369,-28.5001 140.369,-32 150.369,-35.5001 150.369,-28.5001"/>
</g>
<!-- Node3 -->
<g id="node3" class="node"><title>Node3</title>
<g id="a_node3"><a xlink:href="../../d3/d6a/classcontroller_1_1_parser.html#a02bf0729411c23f212468f2d50d4e5ed" target="_top" xlink:title="controller.Parser.parserXml">
<polygon fill="white" stroke="black" points="350.5,-22.5 350.5,-41.5 495.5,-41.5 495.5,-22.5 350.5,-22.5"/>
<text text-anchor="middle" x="423" y="-29.5" font-family="Helvetica,sans-Serif" font-size="10.00">controller.Parser.parserXml</text>
</a>
</g>
</g>
<!-- Node2&#45;&gt;Node3 -->
<g id="edge2" class="edge"><title>Node2&#45;&gt;Node3</title>
<path fill="none" stroke="midnightblue" d="M323.792,-32C332.594,-32 341.535,-32 350.255,-32"/>
<polygon fill="midnightblue" stroke="midnightblue" points="323.543,-28.5001 313.543,-32 323.543,-35.5001 323.543,-28.5001"/>
</g>
<!-- Node4 -->
<g id="node4" class="node"><title>Node4</title>
<g id="a_node4"><a xlink:href="../../db/d32/classcontroller_1_1_main_controller.html#a7cfedb8e16c6b9d6394054d03193da82" target="_top" xlink:title="controller.MainController.initialize\lSimulationWithData">
<polygon fill="white" stroke="black" points="532.5,-17 532.5,-47 705.5,-47 705.5,-17 532.5,-17"/>
<text text-anchor="start" x="540.5" y="-35" font-family="Helvetica,sans-Serif" font-size="10.00">controller.MainController.initialize</text>
<text text-anchor="middle" x="619" y="-24" font-family="Helvetica,sans-Serif" font-size="10.00">SimulationWithData</text>
</a>
</g>
</g>
<!-- Node3&#45;&gt;Node4 -->
<g id="edge3" class="edge"><title>Node3&#45;&gt;Node4</title>
<path fill="none" stroke="midnightblue" d="M505.91,-32C514.699,-32 523.658,-32 532.489,-32"/>
<polygon fill="midnightblue" stroke="midnightblue" points="505.687,-28.5001 495.687,-32 505.687,-35.5001 505.687,-28.5001"/>
</g>
<!-- Node5 -->
<g id="node5" class="node"><title>Node5</title>
<g id="a_node5"><a xlink:href="../../db/ddb/classcontroller_1_1_user_interface.html#a9cf1e21253003993661082c9d42926b2" target="_top" xlink:title="controller.UserInterface.make\lBottomPanel">
<polygon fill="white" stroke="black" points="742,-39 742,-69 900,-69 900,-39 742,-39"/>
<text text-anchor="start" x="750" y="-57" font-family="Helvetica,sans-Serif" font-size="10.00">controller.UserInterface.make</text>
<text text-anchor="middle" x="821" y="-46" font-family="Helvetica,sans-Serif" font-size="10.00">BottomPanel</text>
</a>
</g>
</g>
<!-- Node4&#45;&gt;Node5 -->
<g id="edge4" class="edge"><title>Node4&#45;&gt;Node5</title>
<path fill="none" stroke="midnightblue" d="M715.848,-42.5432C724.532,-43.4985 733.257,-44.4583 741.762,-45.3939"/>
<polygon fill="midnightblue" stroke="midnightblue" points="716.011,-39.0402 705.688,-41.4257 715.246,-45.9982 716.011,-39.0402"/>
</g>
<!-- Node6 -->
<g id="node6" class="node"><title>Node6</title>
<g id="a_node6"><a xlink:href="../../db/ddb/classcontroller_1_1_user_interface.html#a6dd740b89d748c372a5ef9959e1bd7c4" target="_top" xlink:title="controller.UserInterface.\lUserInterface">
<polygon fill="white" stroke="black" points="948.5,-39 948.5,-69 1079.5,-69 1079.5,-39 948.5,-39"/>
<text text-anchor="start" x="956.5" y="-57" font-family="Helvetica,sans-Serif" font-size="10.00">controller.UserInterface.</text>
<text text-anchor="middle" x="1014" y="-46" font-family="Helvetica,sans-Serif" font-size="10.00">UserInterface</text>
</a>
</g>
</g>
<!-- Node5&#45;&gt;Node6 -->
<g id="edge5" class="edge"><title>Node5&#45;&gt;Node6</title>
<path fill="none" stroke="midnightblue" d="M910.415,-54C923.171,-54 936.097,-54 948.275,-54"/>
<polygon fill="midnightblue" stroke="midnightblue" points="910.238,-50.5001 900.238,-54 910.238,-57.5001 910.238,-50.5001"/>
</g>
<!-- Node7 -->
<g id="node7" class="node"><title>Node7</title>
<g id="a_node7"><a xlink:href="../../db/ddb/classcontroller_1_1_user_interface.html#aad62b84bbc23f683c844ace519feb9d2" target="_top" xlink:title="controller.UserInterface.reset">
<polygon fill="white" stroke="black" points="936,-0.5 936,-19.5 1092,-19.5 1092,-0.5 936,-0.5"/>
<text text-anchor="middle" x="1014" y="-7.5" font-family="Helvetica,sans-Serif" font-size="10.00">controller.UserInterface.reset</text>
</a>
</g>
</g>
<!-- Node5&#45;&gt;Node7 -->
<g id="edge6" class="edge"><title>Node5&#45;&gt;Node7</title>
<path fill="none" stroke="midnightblue" d="M897.179,-36.6813C922.556,-30.8352 949.941,-24.5268 971.707,-19.5124"/>
<polygon fill="midnightblue" stroke="midnightblue" points="896.156,-33.3251 887.197,-38.9808 897.728,-40.1465 896.156,-33.3251"/>
</g>
<!-- Node7&#45;&gt;Node4 -->
<g id="edge7" class="edge"><title>Node7&#45;&gt;Node4</title>
<path fill="none" stroke="midnightblue" d="M925.444,-14.9014C859.942,-18.5682 770.825,-23.5569 705.76,-27.1992"/>
<polygon fill="midnightblue" stroke="midnightblue" points="925.958,-18.3782 935.747,-14.3246 925.566,-11.3891 925.958,-18.3782"/>
</g>
</g>
</svg>
