<?xml version="1.0" encoding="UTF-8" standalone="no"?>
<!DOCTYPE svg PUBLIC "-//W3C//DTD SVG 1.1//EN"
 "http://www.w3.org/Graphics/SVG/1.1/DTD/svg11.dtd">
<!-- Generated by graphviz version 2.36.0 (20140111.2315)
 -->
<!-- Title: controller.GridInfo.setParameter Pages: 1 -->
<svg width="1130pt" height="77pt"
 viewBox="0.00 0.00 1130.00 77.00" xmlns="http://www.w3.org/2000/svg" xmlns:xlink="http://www.w3.org/1999/xlink">
<g id="graph0" class="graph" transform="scale(1 1) rotate(0) translate(4 73)">
<title>controller.GridInfo.setParameter</title>
<polygon fill="white" stroke="none" points="-4,4 -4,-73 1126,-73 1126,4 -4,4"/>
<!-- Node1 -->
<g id="node1" class="node"><title>Node1</title>
<polygon fill="#bfbfbf" stroke="black" points="0.5,-22.5 0.5,-41.5 169.5,-41.5 169.5,-22.5 0.5,-22.5"/>
<text text-anchor="middle" x="85" y="-29.5" font-family="Helvetica,sans-Serif" font-size="10.00">controller.GridInfo.setParameter</text>
</g>
<!-- Node2 -->
<g id="node2" class="node"><title>Node2</title>
<g id="a_node2"><a xlink:href="../../d3/d6a/classcontroller_1_1_parser.html#a3cb22c70450e8c7a3adfbeb33cf21309" target="_top" xlink:title="controller.Parser.attribute\lParse">
<polygon fill="white" stroke="black" points="206.5,-17 206.5,-47 343.5,-47 343.5,-17 206.5,-17"/>
<text text-anchor="start" x="214.5" y="-35" font-family="Helvetica,sans-Serif" font-size="10.00">controller.Parser.attribute</text>
<text text-anchor="middle" x="275" y="-24" font-family="Helvetica,sans-Serif" font-size="10.00">Parse</text>
</a>
</g>
</g>
<!-- Node1&#45;&gt;Node2 -->
<g id="edge1" class="edge"><title>Node1&#45;&gt;Node2</title>
<path fill="none" stroke="midnightblue" d="M179.727,-32C188.755,-32 197.786,-32 206.487,-32"/>
<polygon fill="midnightblue" stroke="midnightblue" points="179.554,-28.5001 169.554,-32 179.554,-35.5001 179.554,-28.5001"/>
</g>
<!-- Node3 -->
<g id="node3" class="node"><title>Node3</title>
<g id="a_node3"><a xlink:href="../../d3/d6a/classcontroller_1_1_parser.html#a02bf0729411c23f212468f2d50d4e5ed" target="_top" xlink:title="controller.Parser.parserXml">
<polygon fill="white" stroke="black" points="380.5,-22.5 380.5,-41.5 525.5,-41.5 525.5,-22.5 380.5,-22.5"/>
<text text-anchor="middle" x="453" y="-29.5" font-family="Helvetica,sans-Serif" font-size="10.00">controller.Parser.parserXml</text>
</a>
</g>
</g>
<!-- Node2&#45;&gt;Node3 -->
<g id="edge2" class="edge"><title>Node2&#45;&gt;Node3</title>
<path fill="none" stroke="midnightblue" d="M353.792,-32C362.594,-32 371.535,-32 380.255,-32"/>
<polygon fill="midnightblue" stroke="midnightblue" points="353.543,-28.5001 343.543,-32 353.543,-35.5001 353.543,-28.5001"/>
</g>
<!-- Node4 -->
<g id="node4" class="node"><title>Node4</title>
<g id="a_node4"><a xlink:href="../../db/d32/classcontroller_1_1_main_controller.html#a7cfedb8e16c6b9d6394054d03193da82" target="_top" xlink:title="controller.MainController.initialize\lSimulationWithData">
<polygon fill="white" stroke="black" points="562.5,-17 562.5,-47 735.5,-47 735.5,-17 562.5,-17"/>
<text text-anchor="start" x="570.5" y="-35" font-family="Helvetica,sans-Serif" font-size="10.00">controller.MainController.initialize</text>
<text text-anchor="middle" x="649" y="-24" font-family="Helvetica,sans-Serif" font-size="10.00">SimulationWithData</text>
</a>
</g>
</g>
<!-- Node3&#45;&gt;Node4 -->
<g id="edge3" class="edge"><title>Node3&#45;&gt;Node4</title>
<path fill="none" stroke="midnightblue" d="M535.91,-32C544.699,-32 553.658,-32 562.489,-32"/>
<polygon fill="midnightblue" stroke="midnightblue" points="535.687,-28.5001 525.687,-32 535.687,-35.5001 535.687,-28.5001"/>
</g>
<!-- Node5 -->
<g id="node5" class="node"><title>Node5</title>
<g id="a_node5"><a xlink:href="../../db/ddb/classcontroller_1_1_user_interface.html#a9cf1e21253003993661082c9d42926b2" target="_top" xlink:title="controller.UserInterface.make\lBottomPanel">
<polygon fill="white" stroke="black" points="772,-39 772,-69 930,-69 930,-39 772,-39"/>
<text text-anchor="start" x="780" y="-57" font-family="Helvetica,sans-Serif" font-size="10.00">controller.UserInterface.make</text>
<text text-anchor="middle" x="851" y="-46" font-family="Helvetica,sans-Serif" font-size="10.00">BottomPanel</text>
</a>
</g>
</g>
<!-- Node4&#45;&gt;Node5 -->
<g id="edge4" class="edge"><title>Node4&#45;&gt;Node5</title>
<path fill="none" stroke="midnightblue" d="M745.848,-42.5432C754.532,-43.4985 763.257,-44.4583 771.762,-45.3939"/>
<polygon fill="midnightblue" stroke="midnightblue" points="746.011,-39.0402 735.688,-41.4257 745.246,-45.9982 746.011,-39.0402"/>
</g>
<!-- Node6 -->
<g id="node6" class="node"><title>Node6</title>
<g id="a_node6"><a xlink:href="../../db/ddb/classcontroller_1_1_user_interface.html#a6dd740b89d748c372a5ef9959e1bd7c4" target="_top" xlink:title="controller.UserInterface.\lUserInterface">
<polygon fill="white" stroke="black" points="978.5,-39 978.5,-69 1109.5,-69 1109.5,-39 978.5,-39"/>
<text text-anchor="start" x="986.5" y="-57" font-family="Helvetica,sans-Serif" font-size="10.00">controller.UserInterface.</text>
<text text-anchor="middle" x="1044" y="-46" font-family="Helvetica,sans-Serif" font-size="10.00">UserInterface</text>
</a>
</g>
</g>
<!-- Node5&#45;&gt;Node6 -->
<g id="edge5" class="edge"><title>Node5&#45;&gt;Node6</title>
<path fill="none" stroke="midnightblue" d="M940.415,-54C953.171,-54 966.097,-54 978.275,-54"/>
<polygon fill="midnightblue" stroke="midnightblue" points="940.238,-50.5001 930.238,-54 940.238,-57.5001 940.238,-50.5001"/>
</g>
<!-- Node7 -->
<g id="node7" class="node"><title>Node7</title>
<g id="a_node7"><a xlink:href="../../db/ddb/classcontroller_1_1_user_interface.html#aad62b84bbc23f683c844ace519feb9d2" target="_top" xlink:title="controller.UserInterface.reset">
<polygon fill="white" stroke="black" points="966,-0.5 966,-19.5 1122,-19.5 1122,-0.5 966,-0.5"/>
<text text-anchor="middle" x="1044" y="-7.5" font-family="Helvetica,sans-Serif" font-size="10.00">controller.UserInterface.reset</text>
</a>
</g>
</g>
<!-- Node5&#45;&gt;Node7 -->
<g id="edge6" class="edge"><title>Node5&#45;&gt;Node7</title>
<path fill="none" stroke="midnightblue" d="M927.179,-36.6813C952.556,-30.8352 979.941,-24.5268 1001.71,-19.5124"/>
<polygon fill="midnightblue" stroke="midnightblue" points="926.156,-33.3251 917.197,-38.9808 927.728,-40.1465 926.156,-33.3251"/>
</g>
<!-- Node7&#45;&gt;Node4 -->
<g id="edge7" class="edge"><title>Node7&#45;&gt;Node4</title>
<path fill="none" stroke="midnightblue" d="M955.444,-14.9014C889.942,-18.5682 800.825,-23.5569 735.76,-27.1992"/>
<polygon fill="midnightblue" stroke="midnightblue" points="955.958,-18.3782 965.747,-14.3246 955.566,-11.3891 955.958,-18.3782"/>
</g>
</g>
</svg>
