<?xml version="1.0" encoding="UTF-8" standalone="no"?>
<!DOCTYPE svg PUBLIC "-//W3C//DTD SVG 1.1//EN"
 "http://www.w3.org/Graphics/SVG/1.1/DTD/svg11.dtd">
<!-- Generated by graphviz version 2.36.0 (20140111.2315)
 -->
<!-- Title: controller.GridInfo.getHeight Pages: 1 -->
<svg width="1406pt" height="77pt"
 viewBox="0.00 0.00 1406.00 77.00" xmlns="http://www.w3.org/2000/svg" xmlns:xlink="http://www.w3.org/1999/xlink">
<g id="graph0" class="graph" transform="scale(1 1) rotate(0) translate(4 73)">
<title>controller.GridInfo.getHeight</title>
<polygon fill="white" stroke="none" points="-4,4 -4,-73 1402,-73 1402,4 -4,4"/>
<!-- Node1 -->
<g id="node1" class="node"><title>Node1</title>
<polygon fill="#bfbfbf" stroke="black" points="0.5,-22.5 0.5,-41.5 151.5,-41.5 151.5,-22.5 0.5,-22.5"/>
<text text-anchor="middle" x="76" y="-29.5" font-family="Helvetica,sans-Serif" font-size="10.00">controller.GridInfo.getHeight</text>
</g>
<!-- Node2 -->
<g id="node2" class="node"><title>Node2</title>
<g id="a_node2"><a xlink:href="../../db/d32/classcontroller_1_1_main_controller.html#a00aa5baee2ea887c8a3ed80a9a94720f" target="_top" xlink:title="controller.MainController.randomizeGrid">
<polygon fill="white" stroke="black" points="188,-41.5 188,-60.5 394,-60.5 394,-41.5 188,-41.5"/>
<text text-anchor="middle" x="291" y="-48.5" font-family="Helvetica,sans-Serif" font-size="10.00">controller.MainController.randomizeGrid</text>
</a>
</g>
</g>
<!-- Node1&#45;&gt;Node2 -->
<g id="edge1" class="edge"><title>Node1&#45;&gt;Node2</title>
<path fill="none" stroke="midnightblue" d="M162.003,-39.5825C170.461,-40.3369 179.106,-41.1081 187.715,-41.876"/>
<polygon fill="midnightblue" stroke="midnightblue" points="162.068,-36.0744 151.796,-38.672 161.446,-43.0467 162.068,-36.0744"/>
</g>
<!-- Node3 -->
<g id="node3" class="node"><title>Node3</title>
<g id="a_node3"><a xlink:href="../../db/d32/classcontroller_1_1_main_controller.html#a2163bf863ed2b2ce85a7adfec03f44c4" target="_top" xlink:title="controller.MainController.setup\lGridConstraints">
<polygon fill="white" stroke="black" points="430,-17 430,-47 592,-47 592,-17 430,-17"/>
<text text-anchor="start" x="438" y="-35" font-family="Helvetica,sans-Serif" font-size="10.00">controller.MainController.setup</text>
<text text-anchor="middle" x="511" y="-24" font-family="Helvetica,sans-Serif" font-size="10.00">GridConstraints</text>
</a>
</g>
</g>
<!-- Node1&#45;&gt;Node3 -->
<g id="edge9" class="edge"><title>Node1&#45;&gt;Node3</title>
<path fill="none" stroke="midnightblue" d="M162.161,-32C239.808,-32 353.685,-32 429.753,-32"/>
<polygon fill="midnightblue" stroke="midnightblue" points="161.929,-28.5001 151.929,-32 161.928,-35.5001 161.929,-28.5001"/>
</g>
<!-- Node2&#45;&gt;Node3 -->
<g id="edge2" class="edge"><title>Node2&#45;&gt;Node3</title>
<path fill="none" stroke="midnightblue" d="M404.391,-41.2044C412.989,-40.4551 421.559,-39.7082 429.886,-38.9824"/>
<polygon fill="midnightblue" stroke="midnightblue" points="403.956,-37.729 394.298,-42.0841 404.564,-44.7026 403.956,-37.729"/>
</g>
<!-- Node4 -->
<g id="node4" class="node"><title>Node4</title>
<g id="a_node4"><a xlink:href="../../db/d32/classcontroller_1_1_main_controller.html#aecc10abc6b55d8b0b4bd152be5c5d3f0" target="_top" xlink:title="controller.MainController.initialize\lSimulationObjects">
<polygon fill="white" stroke="black" points="628.5,-17 628.5,-47 801.5,-47 801.5,-17 628.5,-17"/>
<text text-anchor="start" x="636.5" y="-35" font-family="Helvetica,sans-Serif" font-size="10.00">controller.MainController.initialize</text>
<text text-anchor="middle" x="715" y="-24" font-family="Helvetica,sans-Serif" font-size="10.00">SimulationObjects</text>
</a>
</g>
</g>
<!-- Node3&#45;&gt;Node4 -->
<g id="edge3" class="edge"><title>Node3&#45;&gt;Node4</title>
<path fill="none" stroke="midnightblue" d="M602.244,-32C610.918,-32 619.699,-32 628.327,-32"/>
<polygon fill="midnightblue" stroke="midnightblue" points="602.126,-28.5001 592.126,-32 602.126,-35.5001 602.126,-28.5001"/>
</g>
<!-- Node5 -->
<g id="node5" class="node"><title>Node5</title>
<g id="a_node5"><a xlink:href="../../db/d32/classcontroller_1_1_main_controller.html#a7cfedb8e16c6b9d6394054d03193da82" target="_top" xlink:title="controller.MainController.initialize\lSimulationWithData">
<polygon fill="white" stroke="black" points="838.5,-17 838.5,-47 1011.5,-47 1011.5,-17 838.5,-17"/>
<text text-anchor="start" x="846.5" y="-35" font-family="Helvetica,sans-Serif" font-size="10.00">controller.MainController.initialize</text>
<text text-anchor="middle" x="925" y="-24" font-family="Helvetica,sans-Serif" font-size="10.00">SimulationWithData</text>
</a>
</g>
</g>
<!-- Node4&#45;&gt;Node5 -->
<g id="edge4" class="edge"><title>Node4&#45;&gt;Node5</title>
<path fill="none" stroke="midnightblue" d="M811.585,-32C820.561,-32 829.62,-32 838.494,-32"/>
<polygon fill="midnightblue" stroke="midnightblue" points="811.502,-28.5001 801.502,-32 811.502,-35.5001 811.502,-28.5001"/>
</g>
<!-- Node6 -->
<g id="node6" class="node"><title>Node6</title>
<g id="a_node6"><a xlink:href="../../db/ddb/classcontroller_1_1_user_interface.html#a9cf1e21253003993661082c9d42926b2" target="_top" xlink:title="controller.UserInterface.make\lBottomPanel">
<polygon fill="white" stroke="black" points="1048,-39 1048,-69 1206,-69 1206,-39 1048,-39"/>
<text text-anchor="start" x="1056" y="-57" font-family="Helvetica,sans-Serif" font-size="10.00">controller.UserInterface.make</text>
<text text-anchor="middle" x="1127" y="-46" font-family="Helvetica,sans-Serif" font-size="10.00">BottomPanel</text>
</a>
</g>
</g>
<!-- Node5&#45;&gt;Node6 -->
<g id="edge5" class="edge"><title>Node5&#45;&gt;Node6</title>
<path fill="none" stroke="midnightblue" d="M1021.85,-42.5432C1030.53,-43.4985 1039.26,-44.4583 1047.76,-45.3939"/>
<polygon fill="midnightblue" stroke="midnightblue" points="1022.01,-39.0402 1011.69,-41.4257 1021.25,-45.9982 1022.01,-39.0402"/>
</g>
<!-- Node7 -->
<g id="node7" class="node"><title>Node7</title>
<g id="a_node7"><a xlink:href="../../db/ddb/classcontroller_1_1_user_interface.html#a6dd740b89d748c372a5ef9959e1bd7c4" target="_top" xlink:title="controller.UserInterface.\lUserInterface">
<polygon fill="white" stroke="black" points="1254.5,-39 1254.5,-69 1385.5,-69 1385.5,-39 1254.5,-39"/>
<text text-anchor="start" x="1262.5" y="-57" font-family="Helvetica,sans-Serif" font-size="10.00">controller.UserInterface.</text>
<text text-anchor="middle" x="1320" y="-46" font-family="Helvetica,sans-Serif" font-size="10.00">UserInterface</text>
</a>
</g>
</g>
<!-- Node6&#45;&gt;Node7 -->
<g id="edge6" class="edge"><title>Node6&#45;&gt;Node7</title>
<path fill="none" stroke="midnightblue" d="M1216.41,-54C1229.17,-54 1242.1,-54 1254.27,-54"/>
<polygon fill="midnightblue" stroke="midnightblue" points="1216.24,-50.5001 1206.24,-54 1216.24,-57.5001 1216.24,-50.5001"/>
</g>
<!-- Node8 -->
<g id="node8" class="node"><title>Node8</title>
<g id="a_node8"><a xlink:href="../../db/ddb/classcontroller_1_1_user_interface.html#aad62b84bbc23f683c844ace519feb9d2" target="_top" xlink:title="controller.UserInterface.reset">
<polygon fill="white" stroke="black" points="1242,-0.5 1242,-19.5 1398,-19.5 1398,-0.5 1242,-0.5"/>
<text text-anchor="middle" x="1320" y="-7.5" font-family="Helvetica,sans-Serif" font-size="10.00">controller.UserInterface.reset</text>
</a>
</g>
</g>
<!-- Node6&#45;&gt;Node8 -->
<g id="edge7" class="edge"><title>Node6&#45;&gt;Node8</title>
<path fill="none" stroke="midnightblue" d="M1203.18,-36.6813C1228.56,-30.8352 1255.94,-24.5268 1277.71,-19.5124"/>
<polygon fill="midnightblue" stroke="midnightblue" points="1202.16,-33.3251 1193.2,-38.9808 1203.73,-40.1465 1202.16,-33.3251"/>
</g>
<!-- Node8&#45;&gt;Node5 -->
<g id="edge8" class="edge"><title>Node8&#45;&gt;Node5</title>
<path fill="none" stroke="midnightblue" d="M1231.44,-14.9014C1165.94,-18.5682 1076.83,-23.5569 1011.76,-27.1992"/>
<polygon fill="midnightblue" stroke="midnightblue" points="1231.96,-18.3782 1241.75,-14.3246 1231.57,-11.3891 1231.96,-18.3782"/>
</g>
</g>
</svg>
