<?xml version="1.0" encoding="UTF-8" standalone="no"?>
<!DOCTYPE svg PUBLIC "-//W3C//DTD SVG 1.1//EN"
 "http://www.w3.org/Graphics/SVG/1.1/DTD/svg11.dtd">
<!-- Generated by graphviz version 2.36.0 (20140111.2315)
 -->
<!-- Title: controller.GridInfo.getColor Pages: 1 -->
<svg width="1196pt" height="474pt"
 viewBox="0.00 0.00 1196.00 474.00" xmlns="http://www.w3.org/2000/svg" xmlns:xlink="http://www.w3.org/1999/xlink">
<g id="graph0" class="graph" transform="scale(1 1) rotate(0) translate(4 470)">
<title>controller.GridInfo.getColor</title>
<polygon fill="white" stroke="none" points="-4,4 -4,-470 1192,-470 1192,4 -4,4"/>
<!-- Node1 -->
<g id="node1" class="node"><title>Node1</title>
<polygon fill="#bfbfbf" stroke="black" points="0,-201.5 0,-220.5 144,-220.5 144,-201.5 0,-201.5"/>
<text text-anchor="middle" x="72" y="-208.5" font-family="Helvetica,sans-Serif" font-size="10.00">controller.GridInfo.getColor</text>
</g>
<!-- Node2 -->
<g id="node2" class="node"><title>Node2</title>
<g id="a_node2"><a xlink:href="../../db/db2/classcontroller_1_1_color_picker.html#afb051d96595ff37672f48e50dc036c82" target="_top" xlink:title="controller.ColorPicker.build\lColorPickerMenu">
<polygon fill="white" stroke="black" points="198,-392 198,-422 340,-422 340,-392 198,-392"/>
<text text-anchor="start" x="206" y="-410" font-family="Helvetica,sans-Serif" font-size="10.00">controller.ColorPicker.build</text>
<text text-anchor="middle" x="269" y="-399" font-family="Helvetica,sans-Serif" font-size="10.00">ColorPickerMenu</text>
</a>
</g>
</g>
<!-- Node1&#45;&gt;Node2 -->
<g id="edge1" class="edge"><title>Node1&#45;&gt;Node2</title>
<path fill="none" stroke="midnightblue" d="M79.8017,-230.582C93.203,-266.239 126.457,-341.781 180,-382 185.461,-386.102 191.569,-389.531 197.955,-392.397"/>
<polygon fill="midnightblue" stroke="midnightblue" points="82.9819,-229.085 76.2795,-220.88 76.4021,-231.474 82.9819,-229.085"/>
</g>
<!-- Node8 -->
<g id="node8" class="node"><title>Node8</title>
<g id="a_node8"><a xlink:href="../../da/ddf/classsimulation_objects_1_1_life_cell.html#a5113216e9560d0e7e7f9e60c445f0461" target="_top" xlink:title="simulationObjects.LifeCell.\lLifeCell">
<polygon fill="white" stroke="black" points="198,-343 198,-373 340,-373 340,-343 198,-343"/>
<text text-anchor="start" x="206" y="-361" font-family="Helvetica,sans-Serif" font-size="10.00">simulationObjects.LifeCell.</text>
<text text-anchor="middle" x="269" y="-350" font-family="Helvetica,sans-Serif" font-size="10.00">LifeCell</text>
</a>
</g>
</g>
<!-- Node1&#45;&gt;Node8 -->
<g id="edge8" class="edge"><title>Node1&#45;&gt;Node8</title>
<path fill="none" stroke="midnightblue" d="M84.1304,-229.352C101.337,-256.157 136.948,-305.78 180,-333 186.041,-336.819 192.677,-340.069 199.513,-342.83"/>
<polygon fill="midnightblue" stroke="midnightblue" points="86.9184,-227.209 78.644,-220.592 80.9859,-230.925 86.9184,-227.209"/>
</g>
<!-- Node9 -->
<g id="node9" class="node"><title>Node9</title>
<g id="a_node9"><a xlink:href="../../db/dee/classsimulation_objects_1_1_predator_cell.html#ac97ac10ba48d554abe18f8e51e080a5e" target="_top" xlink:title="simulationObjects.Predator\lCell.PredatorCell">
<polygon fill="white" stroke="black" points="196,-294 196,-324 342,-324 342,-294 196,-294"/>
<text text-anchor="start" x="204" y="-312" font-family="Helvetica,sans-Serif" font-size="10.00">simulationObjects.Predator</text>
<text text-anchor="middle" x="269" y="-301" font-family="Helvetica,sans-Serif" font-size="10.00">Cell.PredatorCell</text>
</a>
</g>
</g>
<!-- Node1&#45;&gt;Node9 -->
<g id="edge9" class="edge"><title>Node1&#45;&gt;Node9</title>
<path fill="none" stroke="midnightblue" d="M92.3867,-227.091C112.973,-243.465 147.03,-268.569 180,-284 188.055,-287.77 196.798,-291.087 205.54,-293.969"/>
<polygon fill="midnightblue" stroke="midnightblue" points="94.4086,-224.225 84.431,-220.661 90.0087,-229.669 94.4086,-224.225"/>
</g>
<!-- Node10 -->
<g id="node10" class="node"><title>Node10</title>
<g id="a_node10"><a xlink:href="../../d6/dae/classsimulation_objects_1_1_sugar_patch.html#aaa246e873468360d773a255ccfa23780" target="_top" xlink:title="simulationObjects.SugarPatch.set\lColorToBody">
<polygon fill="white" stroke="black" points="180,-245 180,-275 358,-275 358,-245 180,-245"/>
<text text-anchor="start" x="188" y="-263" font-family="Helvetica,sans-Serif" font-size="10.00">simulationObjects.SugarPatch.set</text>
<text text-anchor="middle" x="269" y="-252" font-family="Helvetica,sans-Serif" font-size="10.00">ColorToBody</text>
</a>
</g>
</g>
<!-- Node1&#45;&gt;Node10 -->
<g id="edge10" class="edge"><title>Node1&#45;&gt;Node10</title>
<path fill="none" stroke="midnightblue" d="M120.812,-223.014C147.16,-229.635 180.115,-237.916 208.159,-244.963"/>
<polygon fill="midnightblue" stroke="midnightblue" points="121.612,-219.607 111.061,-220.564 119.906,-226.396 121.612,-219.607"/>
</g>
<!-- Node12 -->
<g id="node12" class="node"><title>Node12</title>
<g id="a_node12"><a xlink:href="../../dc/d23/classsimulation_objects_1_1_forest_cell.html#abb76f3b62b5ffb2d3e0c8c6f0e3c1e23" target="_top" xlink:title="simulationObjects.Forest\lCell.setState">
<polygon fill="white" stroke="black" points="201.5,-196 201.5,-226 336.5,-226 336.5,-196 201.5,-196"/>
<text text-anchor="start" x="209.5" y="-214" font-family="Helvetica,sans-Serif" font-size="10.00">simulationObjects.Forest</text>
<text text-anchor="middle" x="269" y="-203" font-family="Helvetica,sans-Serif" font-size="10.00">Cell.setState</text>
</a>
</g>
</g>
<!-- Node1&#45;&gt;Node12 -->
<g id="edge12" class="edge"><title>Node1&#45;&gt;Node12</title>
<path fill="none" stroke="midnightblue" d="M154.372,-211C169.961,-211 186.115,-211 201.181,-211"/>
<polygon fill="midnightblue" stroke="midnightblue" points="154.227,-207.5 144.227,-211 154.227,-214.5 154.227,-207.5"/>
</g>
<!-- Node16 -->
<g id="node16" class="node"><title>Node16</title>
<g id="a_node16"><a xlink:href="../../db/d5f/classsimulation_objects_1_1_seg_cell.html#a47275c40995ce166665370c940c10947" target="_top" xlink:title="simulationObjects.SegCell.set\lState">
<polygon fill="white" stroke="black" points="189.5,-147 189.5,-177 348.5,-177 348.5,-147 189.5,-147"/>
<text text-anchor="start" x="197.5" y="-165" font-family="Helvetica,sans-Serif" font-size="10.00">simulationObjects.SegCell.set</text>
<text text-anchor="middle" x="269" y="-154" font-family="Helvetica,sans-Serif" font-size="10.00">State</text>
</a>
</g>
</g>
<!-- Node1&#45;&gt;Node16 -->
<g id="edge18" class="edge"><title>Node1&#45;&gt;Node16</title>
<path fill="none" stroke="midnightblue" d="M120.812,-198.986C147.16,-192.365 180.115,-184.084 208.159,-177.037"/>
<polygon fill="midnightblue" stroke="midnightblue" points="119.906,-195.604 111.061,-201.436 121.612,-202.393 119.906,-195.604"/>
</g>
<!-- Node17 -->
<g id="node17" class="node"><title>Node17</title>
<g id="a_node17"><a xlink:href="../../db/d71/classsimulation_objects_1_1_sugar_cell.html#a0fc1e577370ddb0b415775220a1e0895" target="_top" xlink:title="simulationObjects.SugarCell.set\lState">
<polygon fill="white" stroke="black" points="184.5,-98 184.5,-128 353.5,-128 353.5,-98 184.5,-98"/>
<text text-anchor="start" x="192.5" y="-116" font-family="Helvetica,sans-Serif" font-size="10.00">simulationObjects.SugarCell.set</text>
<text text-anchor="middle" x="269" y="-105" font-family="Helvetica,sans-Serif" font-size="10.00">State</text>
</a>
</g>
</g>
<!-- Node1&#45;&gt;Node17 -->
<g id="edge19" class="edge"><title>Node1&#45;&gt;Node17</title>
<path fill="none" stroke="midnightblue" d="M92.3867,-194.909C112.973,-178.535 147.03,-153.431 180,-138 188.055,-134.23 196.798,-130.913 205.54,-128.031"/>
<polygon fill="midnightblue" stroke="midnightblue" points="90.0087,-192.331 84.431,-201.339 94.4086,-197.775 90.0087,-192.331"/>
</g>
<!-- Node19 -->
<g id="node19" class="node"><title>Node19</title>
<g id="a_node19"><a xlink:href="../../db/dee/classsimulation_objects_1_1_predator_cell.html#afaebfc71f9b5ee067fda0be8389dc777" target="_top" xlink:title="simulationObjects.Predator\lCell.setState">
<polygon fill="white" stroke="black" points="196,-49 196,-79 342,-79 342,-49 196,-49"/>
<text text-anchor="start" x="204" y="-67" font-family="Helvetica,sans-Serif" font-size="10.00">simulationObjects.Predator</text>
<text text-anchor="middle" x="269" y="-56" font-family="Helvetica,sans-Serif" font-size="10.00">Cell.setState</text>
</a>
</g>
</g>
<!-- Node1&#45;&gt;Node19 -->
<g id="edge21" class="edge"><title>Node1&#45;&gt;Node19</title>
<path fill="none" stroke="midnightblue" d="M84.1304,-192.648C101.337,-165.843 136.948,-116.22 180,-89 186.041,-85.1806 192.677,-81.9315 199.513,-79.1701"/>
<polygon fill="midnightblue" stroke="midnightblue" points="80.9859,-191.075 78.644,-201.408 86.9184,-194.791 80.9859,-191.075"/>
</g>
<!-- Node21 -->
<g id="node21" class="node"><title>Node21</title>
<g id="a_node21"><a xlink:href="../../db/d71/classsimulation_objects_1_1_sugar_cell.html#a1f48dea0c220b70504fd280b2889c51e" target="_top" xlink:title="simulationObjects.SugarCell.\lSugarCell">
<polygon fill="white" stroke="black" points="192,-0 192,-30 346,-30 346,-0 192,-0"/>
<text text-anchor="start" x="200" y="-18" font-family="Helvetica,sans-Serif" font-size="10.00">simulationObjects.SugarCell.</text>
<text text-anchor="middle" x="269" y="-7" font-family="Helvetica,sans-Serif" font-size="10.00">SugarCell</text>
</a>
</g>
</g>
<!-- Node1&#45;&gt;Node21 -->
<g id="edge23" class="edge"><title>Node1&#45;&gt;Node21</title>
<path fill="none" stroke="midnightblue" d="M79.8017,-191.418C93.203,-155.761 126.457,-80.2187 180,-40 185.207,-36.0891 191.003,-32.7897 197.066,-30.0062"/>
<polygon fill="midnightblue" stroke="midnightblue" points="76.4021,-190.526 76.2795,-201.12 82.9819,-192.915 76.4021,-190.526"/>
</g>
<!-- Node3 -->
<g id="node3" class="node"><title>Node3</title>
<g id="a_node3"><a xlink:href="../../db/db2/classcontroller_1_1_color_picker.html#a965e34ea24c65524bc0e564d055a8e4e" target="_top" xlink:title="controller.ColorPicker.show\lColorPicker">
<polygon fill="white" stroke="black" points="421.5,-392 421.5,-422 564.5,-422 564.5,-392 421.5,-392"/>
<text text-anchor="start" x="429.5" y="-410" font-family="Helvetica,sans-Serif" font-size="10.00">controller.ColorPicker.show</text>
<text text-anchor="middle" x="493" y="-399" font-family="Helvetica,sans-Serif" font-size="10.00">ColorPicker</text>
</a>
</g>
</g>
<!-- Node2&#45;&gt;Node3 -->
<g id="edge2" class="edge"><title>Node2&#45;&gt;Node3</title>
<path fill="none" stroke="midnightblue" d="M350.421,-407C373.668,-407 398.856,-407 421.453,-407"/>
<polygon fill="midnightblue" stroke="midnightblue" points="350.242,-403.5 340.242,-407 350.242,-410.5 350.242,-403.5"/>
</g>
<!-- Node4 -->
<g id="node4" class="node"><title>Node4</title>
<g id="a_node4"><a xlink:href="../../db/ddb/classcontroller_1_1_user_interface.html#a9cf1e21253003993661082c9d42926b2" target="_top" xlink:title="controller.UserInterface.make\lBottomPanel">
<polygon fill="white" stroke="black" points="628,-392 628,-422 786,-422 786,-392 628,-392"/>
<text text-anchor="start" x="636" y="-410" font-family="Helvetica,sans-Serif" font-size="10.00">controller.UserInterface.make</text>
<text text-anchor="middle" x="707" y="-399" font-family="Helvetica,sans-Serif" font-size="10.00">BottomPanel</text>
</a>
</g>
</g>
<!-- Node3&#45;&gt;Node4 -->
<g id="edge3" class="edge"><title>Node3&#45;&gt;Node4</title>
<path fill="none" stroke="midnightblue" d="M574.695,-407C592.066,-407 610.401,-407 627.68,-407"/>
<polygon fill="midnightblue" stroke="midnightblue" points="574.593,-403.5 564.593,-407 574.593,-410.5 574.593,-403.5"/>
</g>
<!-- Node5 -->
<g id="node5" class="node"><title>Node5</title>
<g id="a_node5"><a xlink:href="../../db/ddb/classcontroller_1_1_user_interface.html#a6dd740b89d748c372a5ef9959e1bd7c4" target="_top" xlink:title="controller.UserInterface.\lUserInterface">
<polygon fill="white" stroke="black" points="834.5,-436 834.5,-466 965.5,-466 965.5,-436 834.5,-436"/>
<text text-anchor="start" x="842.5" y="-454" font-family="Helvetica,sans-Serif" font-size="10.00">controller.UserInterface.</text>
<text text-anchor="middle" x="900" y="-443" font-family="Helvetica,sans-Serif" font-size="10.00">UserInterface</text>
</a>
</g>
</g>
<!-- Node4&#45;&gt;Node5 -->
<g id="edge4" class="edge"><title>Node4&#45;&gt;Node5</title>
<path fill="none" stroke="midnightblue" d="M783.07,-424.294C800.044,-428.204 817.922,-432.322 834.42,-436.123"/>
<polygon fill="midnightblue" stroke="midnightblue" points="783.728,-420.854 773.197,-422.019 782.156,-427.675 783.728,-420.854"/>
</g>
<!-- Node6 -->
<g id="node6" class="node"><title>Node6</title>
<g id="a_node6"><a xlink:href="../../db/ddb/classcontroller_1_1_user_interface.html#aad62b84bbc23f683c844ace519feb9d2" target="_top" xlink:title="controller.UserInterface.reset">
<polygon fill="white" stroke="black" points="822,-397.5 822,-416.5 978,-416.5 978,-397.5 822,-397.5"/>
<text text-anchor="middle" x="900" y="-404.5" font-family="Helvetica,sans-Serif" font-size="10.00">controller.UserInterface.reset</text>
</a>
</g>
</g>
<!-- Node4&#45;&gt;Node6 -->
<g id="edge5" class="edge"><title>Node4&#45;&gt;Node6</title>
<path fill="none" stroke="midnightblue" d="M796.495,-407C804.949,-407 813.476,-407 821.81,-407"/>
<polygon fill="midnightblue" stroke="midnightblue" points="796.238,-403.5 786.238,-407 796.238,-410.5 796.238,-403.5"/>
</g>
<!-- Node7 -->
<g id="node7" class="node"><title>Node7</title>
<g id="a_node7"><a xlink:href="../../db/d32/classcontroller_1_1_main_controller.html#a7cfedb8e16c6b9d6394054d03193da82" target="_top" xlink:title="controller.MainController.initialize\lSimulationWithData">
<polygon fill="white" stroke="black" points="1014.5,-373 1014.5,-403 1187.5,-403 1187.5,-373 1014.5,-373"/>
<text text-anchor="start" x="1022.5" y="-391" font-family="Helvetica,sans-Serif" font-size="10.00">controller.MainController.initialize</text>
<text text-anchor="middle" x="1101" y="-380" font-family="Helvetica,sans-Serif" font-size="10.00">SimulationWithData</text>
</a>
</g>
</g>
<!-- Node6&#45;&gt;Node7 -->
<g id="edge6" class="edge"><title>Node6&#45;&gt;Node7</title>
<path fill="none" stroke="midnightblue" d="M988.268,-398.668C996.886,-397.845 1005.63,-397.01 1014.23,-396.189"/>
<polygon fill="midnightblue" stroke="midnightblue" points="987.845,-395.192 978.223,-399.627 988.511,-402.161 987.845,-395.192"/>
</g>
<!-- Node7&#45;&gt;Node4 -->
<g id="edge7" class="edge"><title>Node7&#45;&gt;Node4</title>
<path fill="none" stroke="midnightblue" d="M1004.18,-384.11C950.52,-382.906 882.438,-382.998 822,-388 810.402,-388.96 798.208,-390.46 786.283,-392.207"/>
<polygon fill="midnightblue" stroke="midnightblue" points="1004.29,-387.613 1014.37,-384.357 1004.46,-380.615 1004.29,-387.613"/>
</g>
<!-- Node11 -->
<g id="node11" class="node"><title>Node11</title>
<g id="a_node11"><a xlink:href="../../d6/dae/classsimulation_objects_1_1_sugar_patch.html#a8197c32cacf2b75722a72656a1f68b88" target="_top" xlink:title="simulationObjects.SugarPatch.update">
<polygon fill="white" stroke="black" points="394.5,-284.5 394.5,-303.5 591.5,-303.5 591.5,-284.5 394.5,-284.5"/>
<text text-anchor="middle" x="493" y="-291.5" font-family="Helvetica,sans-Serif" font-size="10.00">simulationObjects.SugarPatch.update</text>
</a>
</g>
</g>
<!-- Node10&#45;&gt;Node11 -->
<g id="edge11" class="edge"><title>Node10&#45;&gt;Node11</title>
<path fill="none" stroke="midnightblue" d="M367.962,-275.003C388.93,-278.214 410.527,-281.522 429.705,-284.459"/>
<polygon fill="midnightblue" stroke="midnightblue" points="368.474,-271.541 358.059,-273.487 367.414,-278.46 368.474,-271.541"/>
</g>
<!-- Node13 -->
<g id="node13" class="node"><title>Node13</title>
<g id="a_node13"><a xlink:href="../../dc/d23/classsimulation_objects_1_1_forest_cell.html#a4f9f29e4b339e76b9ef3ad31cd8d9f02" target="_top" xlink:title="simulationObjects.Forest\lCell.burnDown">
<polygon fill="white" stroke="black" points="425.5,-235 425.5,-265 560.5,-265 560.5,-235 425.5,-235"/>
<text text-anchor="start" x="433.5" y="-253" font-family="Helvetica,sans-Serif" font-size="10.00">simulationObjects.Forest</text>
<text text-anchor="middle" x="493" y="-242" font-family="Helvetica,sans-Serif" font-size="10.00">Cell.burnDown</text>
</a>
</g>
</g>
<!-- Node12&#45;&gt;Node13 -->
<g id="edge13" class="edge"><title>Node12&#45;&gt;Node13</title>
<path fill="none" stroke="midnightblue" d="M346.658,-224.467C372.293,-228.97 400.639,-233.95 425.44,-238.307"/>
<polygon fill="midnightblue" stroke="midnightblue" points="347.062,-220.984 336.607,-222.701 345.851,-227.879 347.062,-220.984"/>
</g>
<!-- Node14 -->
<g id="node14" class="node"><title>Node14</title>
<g id="a_node14"><a xlink:href="../../dc/d23/classsimulation_objects_1_1_forest_cell.html#a71352215a71f9031bf93dc51c9bf38f5" target="_top" xlink:title="simulationObjects.Forest\lCell.update">
<polygon fill="white" stroke="black" points="639.5,-191 639.5,-221 774.5,-221 774.5,-191 639.5,-191"/>
<text text-anchor="start" x="647.5" y="-209" font-family="Helvetica,sans-Serif" font-size="10.00">simulationObjects.Forest</text>
<text text-anchor="middle" x="707" y="-198" font-family="Helvetica,sans-Serif" font-size="10.00">Cell.update</text>
</a>
</g>
</g>
<!-- Node12&#45;&gt;Node14 -->
<g id="edge17" class="edge"><title>Node12&#45;&gt;Node14</title>
<path fill="none" stroke="midnightblue" d="M346.815,-210.119C429.755,-209.168 560.542,-207.668 639.314,-206.765"/>
<polygon fill="midnightblue" stroke="midnightblue" points="346.653,-206.621 336.694,-210.235 346.733,-213.62 346.653,-206.621"/>
</g>
<!-- Node15 -->
<g id="node15" class="node"><title>Node15</title>
<g id="a_node15"><a xlink:href="../../dc/d23/classsimulation_objects_1_1_forest_cell.html#a754d6f01e7cb2ced3a4690aeaf2e8369" target="_top" xlink:title="simulationObjects.Forest\lCell.catchFire">
<polygon fill="white" stroke="black" points="425.5,-147 425.5,-177 560.5,-177 560.5,-147 425.5,-147"/>
<text text-anchor="start" x="433.5" y="-165" font-family="Helvetica,sans-Serif" font-size="10.00">simulationObjects.Forest</text>
<text text-anchor="middle" x="493" y="-154" font-family="Helvetica,sans-Serif" font-size="10.00">Cell.catchFire</text>
</a>
</g>
</g>
<!-- Node12&#45;&gt;Node15 -->
<g id="edge15" class="edge"><title>Node12&#45;&gt;Node15</title>
<path fill="none" stroke="midnightblue" d="M346.658,-194.08C372.293,-188.422 400.639,-182.165 425.44,-176.691"/>
<polygon fill="midnightblue" stroke="midnightblue" points="345.618,-190.725 336.607,-196.298 347.127,-197.561 345.618,-190.725"/>
</g>
<!-- Node13&#45;&gt;Node14 -->
<g id="edge14" class="edge"><title>Node13&#45;&gt;Node14</title>
<path fill="none" stroke="midnightblue" d="M570.61,-234.1C593.052,-229.442 617.403,-224.388 639.184,-219.867"/>
<polygon fill="midnightblue" stroke="midnightblue" points="569.867,-230.679 560.787,-236.139 571.29,-237.533 569.867,-230.679"/>
</g>
<!-- Node15&#45;&gt;Node14 -->
<g id="edge16" class="edge"><title>Node15&#45;&gt;Node14</title>
<path fill="none" stroke="midnightblue" d="M570.61,-177.9C593.052,-182.558 617.403,-187.612 639.184,-192.133"/>
<polygon fill="midnightblue" stroke="midnightblue" points="571.29,-174.467 560.787,-175.861 569.867,-181.321 571.29,-174.467"/>
</g>
<!-- Node18 -->
<g id="node18" class="node"><title>Node18</title>
<g id="a_node18"><a xlink:href="../../db/d71/classsimulation_objects_1_1_sugar_cell.html#a4f3c5edbe0c43ea62d21a9658fbc11c7" target="_top" xlink:title="simulationObjects.SugarCell.update">
<polygon fill="white" stroke="black" points="399,-103.5 399,-122.5 587,-122.5 587,-103.5 399,-103.5"/>
<text text-anchor="middle" x="493" y="-110.5" font-family="Helvetica,sans-Serif" font-size="10.00">simulationObjects.SugarCell.update</text>
</a>
</g>
</g>
<!-- Node17&#45;&gt;Node18 -->
<g id="edge20" class="edge"><title>Node17&#45;&gt;Node18</title>
<path fill="none" stroke="midnightblue" d="M363.73,-113C375.334,-113 387.196,-113 398.792,-113"/>
<polygon fill="midnightblue" stroke="midnightblue" points="363.612,-109.5 353.612,-113 363.612,-116.5 363.612,-109.5"/>
</g>
<!-- Node20 -->
<g id="node20" class="node"><title>Node20</title>
<g id="a_node20"><a xlink:href="../../db/dee/classsimulation_objects_1_1_predator_cell.html#a954732c3db3474e874b5023303baa2ed" target="_top" xlink:title="simulationObjects.Predator\lCell.update">
<polygon fill="white" stroke="black" points="420,-49 420,-79 566,-79 566,-49 420,-49"/>
<text text-anchor="start" x="428" y="-67" font-family="Helvetica,sans-Serif" font-size="10.00">simulationObjects.Predator</text>
<text text-anchor="middle" x="493" y="-56" font-family="Helvetica,sans-Serif" font-size="10.00">Cell.update</text>
</a>
</g>
</g>
<!-- Node19&#45;&gt;Node20 -->
<g id="edge22" class="edge"><title>Node19&#45;&gt;Node20</title>
<path fill="none" stroke="midnightblue" d="M352.159,-64C374.388,-64 398.275,-64 419.905,-64"/>
<polygon fill="midnightblue" stroke="midnightblue" points="352.077,-60.5001 342.077,-64 352.077,-67.5001 352.077,-60.5001"/>
</g>
</g>
</svg>
