<?xml version="1.0" encoding="UTF-8" standalone="no"?>
<!DOCTYPE svg PUBLIC "-//W3C//DTD SVG 1.1//EN"
 "http://www.w3.org/Graphics/SVG/1.1/DTD/svg11.dtd">
<!-- Generated by graphviz version 2.36.0 (20140111.2315)
 -->
<!-- Title: controller.GridInfo.setParamList Pages: 1 -->
<svg width="1126pt" height="77pt"
 viewBox="0.00 0.00 1126.00 77.00" xmlns="http://www.w3.org/2000/svg" xmlns:xlink="http://www.w3.org/1999/xlink">
<g id="graph0" class="graph" transform="scale(1 1) rotate(0) translate(4 73)">
<title>controller.GridInfo.setParamList</title>
<polygon fill="white" stroke="none" points="-4,4 -4,-73 1122,-73 1122,4 -4,4"/>
<!-- Node1 -->
<g id="node1" class="node"><title>Node1</title>
<polygon fill="#bfbfbf" stroke="black" points="0,-22.5 0,-41.5 166,-41.5 166,-22.5 0,-22.5"/>
<text text-anchor="middle" x="83" y="-29.5" font-family="Helvetica,sans-Serif" font-size="10.00">controller.GridInfo.setParamList</text>
</g>
<!-- Node2 -->
<g id="node2" class="node"><title>Node2</title>
<g id="a_node2"><a xlink:href="../../d3/d6a/classcontroller_1_1_parser.html#a3cb22c70450e8c7a3adfbeb33cf21309" target="_top" xlink:title="controller.Parser.attribute\lParse">
<polygon fill="white" stroke="black" points="202.5,-17 202.5,-47 339.5,-47 339.5,-17 202.5,-17"/>
<text text-anchor="start" x="210.5" y="-35" font-family="Helvetica,sans-Serif" font-size="10.00">controller.Parser.attribute</text>
<text text-anchor="middle" x="271" y="-24" font-family="Helvetica,sans-Serif" font-size="10.00">Parse</text>
</a>
</g>
</g>
<!-- Node1&#45;&gt;Node2 -->
<g id="edge1" class="edge"><title>Node1&#45;&gt;Node2</title>
<path fill="none" stroke="midnightblue" d="M176.346,-32C185.073,-32 193.807,-32 202.241,-32"/>
<polygon fill="midnightblue" stroke="midnightblue" points="176.124,-28.5001 166.124,-32 176.124,-35.5001 176.124,-28.5001"/>
</g>
<!-- Node3 -->
<g id="node3" class="node"><title>Node3</title>
<g id="a_node3"><a xlink:href="../../d3/d6a/classcontroller_1_1_parser.html#a02bf0729411c23f212468f2d50d4e5ed" target="_top" xlink:title="controller.Parser.parserXml">
<polygon fill="white" stroke="black" points="376.5,-22.5 376.5,-41.5 521.5,-41.5 521.5,-22.5 376.5,-22.5"/>
<text text-anchor="middle" x="449" y="-29.5" font-family="Helvetica,sans-Serif" font-size="10.00">controller.Parser.parserXml</text>
</a>
</g>
</g>
<!-- Node2&#45;&gt;Node3 -->
<g id="edge2" class="edge"><title>Node2&#45;&gt;Node3</title>
<path fill="none" stroke="midnightblue" d="M349.792,-32C358.594,-32 367.535,-32 376.255,-32"/>
<polygon fill="midnightblue" stroke="midnightblue" points="349.543,-28.5001 339.543,-32 349.543,-35.5001 349.543,-28.5001"/>
</g>
<!-- Node4 -->
<g id="node4" class="node"><title>Node4</title>
<g id="a_node4"><a xlink:href="../../db/d32/classcontroller_1_1_main_controller.html#a7cfedb8e16c6b9d6394054d03193da82" target="_top" xlink:title="controller.MainController.initialize\lSimulationWithData">
<polygon fill="white" stroke="black" points="558.5,-17 558.5,-47 731.5,-47 731.5,-17 558.5,-17"/>
<text text-anchor="start" x="566.5" y="-35" font-family="Helvetica,sans-Serif" font-size="10.00">controller.MainController.initialize</text>
<text text-anchor="middle" x="645" y="-24" font-family="Helvetica,sans-Serif" font-size="10.00">SimulationWithData</text>
</a>
</g>
</g>
<!-- Node3&#45;&gt;Node4 -->
<g id="edge3" class="edge"><title>Node3&#45;&gt;Node4</title>
<path fill="none" stroke="midnightblue" d="M531.91,-32C540.699,-32 549.658,-32 558.489,-32"/>
<polygon fill="midnightblue" stroke="midnightblue" points="531.687,-28.5001 521.687,-32 531.687,-35.5001 531.687,-28.5001"/>
</g>
<!-- Node5 -->
<g id="node5" class="node"><title>Node5</title>
<g id="a_node5"><a xlink:href="../../db/ddb/classcontroller_1_1_user_interface.html#a9cf1e21253003993661082c9d42926b2" target="_top" xlink:title="controller.UserInterface.make\lBottomPanel">
<polygon fill="white" stroke="black" points="768,-39 768,-69 926,-69 926,-39 768,-39"/>
<text text-anchor="start" x="776" y="-57" font-family="Helvetica,sans-Serif" font-size="10.00">controller.UserInterface.make</text>
<text text-anchor="middle" x="847" y="-46" font-family="Helvetica,sans-Serif" font-size="10.00">BottomPanel</text>
</a>
</g>
</g>
<!-- Node4&#45;&gt;Node5 -->
<g id="edge4" class="edge"><title>Node4&#45;&gt;Node5</title>
<path fill="none" stroke="midnightblue" d="M741.848,-42.5432C750.532,-43.4985 759.257,-44.4583 767.762,-45.3939"/>
<polygon fill="midnightblue" stroke="midnightblue" points="742.011,-39.0402 731.688,-41.4257 741.246,-45.9982 742.011,-39.0402"/>
</g>
<!-- Node6 -->
<g id="node6" class="node"><title>Node6</title>
<g id="a_node6"><a xlink:href="../../db/ddb/classcontroller_1_1_user_interface.html#a6dd740b89d748c372a5ef9959e1bd7c4" target="_top" xlink:title="controller.UserInterface.\lUserInterface">
<polygon fill="white" stroke="black" points="974.5,-39 974.5,-69 1105.5,-69 1105.5,-39 974.5,-39"/>
<text text-anchor="start" x="982.5" y="-57" font-family="Helvetica,sans-Serif" font-size="10.00">controller.UserInterface.</text>
<text text-anchor="middle" x="1040" y="-46" font-family="Helvetica,sans-Serif" font-size="10.00">UserInterface</text>
</a>
</g>
</g>
<!-- Node5&#45;&gt;Node6 -->
<g id="edge5" class="edge"><title>Node5&#45;&gt;Node6</title>
<path fill="none" stroke="midnightblue" d="M936.415,-54C949.171,-54 962.097,-54 974.275,-54"/>
<polygon fill="midnightblue" stroke="midnightblue" points="936.238,-50.5001 926.238,-54 936.238,-57.5001 936.238,-50.5001"/>
</g>
<!-- Node7 -->
<g id="node7" class="node"><title>Node7</title>
<g id="a_node7"><a xlink:href="../../db/ddb/classcontroller_1_1_user_interface.html#aad62b84bbc23f683c844ace519feb9d2" target="_top" xlink:title="controller.UserInterface.reset">
<polygon fill="white" stroke="black" points="962,-0.5 962,-19.5 1118,-19.5 1118,-0.5 962,-0.5"/>
<text text-anchor="middle" x="1040" y="-7.5" font-family="Helvetica,sans-Serif" font-size="10.00">controller.UserInterface.reset</text>
</a>
</g>
</g>
<!-- Node5&#45;&gt;Node7 -->
<g id="edge6" class="edge"><title>Node5&#45;&gt;Node7</title>
<path fill="none" stroke="midnightblue" d="M923.179,-36.6813C948.556,-30.8352 975.941,-24.5268 997.707,-19.5124"/>
<polygon fill="midnightblue" stroke="midnightblue" points="922.156,-33.3251 913.197,-38.9808 923.728,-40.1465 922.156,-33.3251"/>
</g>
<!-- Node7&#45;&gt;Node4 -->
<g id="edge7" class="edge"><title>Node7&#45;&gt;Node4</title>
<path fill="none" stroke="midnightblue" d="M951.444,-14.9014C885.942,-18.5682 796.825,-23.5569 731.76,-27.1992"/>
<polygon fill="midnightblue" stroke="midnightblue" points="951.958,-18.3782 961.747,-14.3246 951.566,-11.3891 951.958,-18.3782"/>
</g>
</g>
</svg>
