<?xml version="1.0" encoding="UTF-8" standalone="no"?>
<!DOCTYPE svg PUBLIC "-//W3C//DTD SVG 1.1//EN"
 "http://www.w3.org/Graphics/SVG/1.1/DTD/svg11.dtd">
<!-- Generated by graphviz version 2.36.0 (20140111.2315)
 -->
<!-- Title: controller.GridInfo.setMaxCellState Pages: 1 -->
<svg width="1098pt" height="77pt"
 viewBox="0.00 0.00 1098.00 77.00" xmlns="http://www.w3.org/2000/svg" xmlns:xlink="http://www.w3.org/1999/xlink">
<g id="graph0" class="graph" transform="scale(1 1) rotate(0) translate(4 73)">
<title>controller.GridInfo.setMaxCellState</title>
<polygon fill="white" stroke="none" points="-4,4 -4,-73 1094,-73 1094,4 -4,4"/>
<!-- Node1 -->
<g id="node1" class="node"><title>Node1</title>
<polygon fill="#bfbfbf" stroke="black" points="0,-17 0,-47 138,-47 138,-17 0,-17"/>
<text text-anchor="start" x="8" y="-35" font-family="Helvetica,sans-Serif" font-size="10.00">controller.GridInfo.setMax</text>
<text text-anchor="middle" x="69" y="-24" font-family="Helvetica,sans-Serif" font-size="10.00">CellState</text>
</g>
<!-- Node2 -->
<g id="node2" class="node"><title>Node2</title>
<g id="a_node2"><a xlink:href="../../d3/d6a/classcontroller_1_1_parser.html#a3cb22c70450e8c7a3adfbeb33cf21309" target="_top" xlink:title="controller.Parser.attribute\lParse">
<polygon fill="white" stroke="black" points="174.5,-17 174.5,-47 311.5,-47 311.5,-17 174.5,-17"/>
<text text-anchor="start" x="182.5" y="-35" font-family="Helvetica,sans-Serif" font-size="10.00">controller.Parser.attribute</text>
<text text-anchor="middle" x="243" y="-24" font-family="Helvetica,sans-Serif" font-size="10.00">Parse</text>
</a>
</g>
</g>
<!-- Node1&#45;&gt;Node2 -->
<g id="edge1" class="edge"><title>Node1&#45;&gt;Node2</title>
<path fill="none" stroke="midnightblue" d="M148.521,-32C157.138,-32 165.855,-32 174.324,-32"/>
<polygon fill="midnightblue" stroke="midnightblue" points="148.473,-28.5001 138.473,-32 148.473,-35.5001 148.473,-28.5001"/>
</g>
<!-- Node3 -->
<g id="node3" class="node"><title>Node3</title>
<g id="a_node3"><a xlink:href="../../d3/d6a/classcontroller_1_1_parser.html#a02bf0729411c23f212468f2d50d4e5ed" target="_top" xlink:title="controller.Parser.parserXml">
<polygon fill="white" stroke="black" points="348.5,-22.5 348.5,-41.5 493.5,-41.5 493.5,-22.5 348.5,-22.5"/>
<text text-anchor="middle" x="421" y="-29.5" font-family="Helvetica,sans-Serif" font-size="10.00">controller.Parser.parserXml</text>
</a>
</g>
</g>
<!-- Node2&#45;&gt;Node3 -->
<g id="edge2" class="edge"><title>Node2&#45;&gt;Node3</title>
<path fill="none" stroke="midnightblue" d="M321.792,-32C330.594,-32 339.535,-32 348.255,-32"/>
<polygon fill="midnightblue" stroke="midnightblue" points="321.543,-28.5001 311.543,-32 321.543,-35.5001 321.543,-28.5001"/>
</g>
<!-- Node4 -->
<g id="node4" class="node"><title>Node4</title>
<g id="a_node4"><a xlink:href="../../db/d32/classcontroller_1_1_main_controller.html#a7cfedb8e16c6b9d6394054d03193da82" target="_top" xlink:title="controller.MainController.initialize\lSimulationWithData">
<polygon fill="white" stroke="black" points="530.5,-17 530.5,-47 703.5,-47 703.5,-17 530.5,-17"/>
<text text-anchor="start" x="538.5" y="-35" font-family="Helvetica,sans-Serif" font-size="10.00">controller.MainController.initialize</text>
<text text-anchor="middle" x="617" y="-24" font-family="Helvetica,sans-Serif" font-size="10.00">SimulationWithData</text>
</a>
</g>
</g>
<!-- Node3&#45;&gt;Node4 -->
<g id="edge3" class="edge"><title>Node3&#45;&gt;Node4</title>
<path fill="none" stroke="midnightblue" d="M503.91,-32C512.699,-32 521.658,-32 530.489,-32"/>
<polygon fill="midnightblue" stroke="midnightblue" points="503.687,-28.5001 493.687,-32 503.687,-35.5001 503.687,-28.5001"/>
</g>
<!-- Node5 -->
<g id="node5" class="node"><title>Node5</title>
<g id="a_node5"><a xlink:href="../../db/ddb/classcontroller_1_1_user_interface.html#a9cf1e21253003993661082c9d42926b2" target="_top" xlink:title="controller.UserInterface.make\lBottomPanel">
<polygon fill="white" stroke="black" points="740,-39 740,-69 898,-69 898,-39 740,-39"/>
<text text-anchor="start" x="748" y="-57" font-family="Helvetica,sans-Serif" font-size="10.00">controller.UserInterface.make</text>
<text text-anchor="middle" x="819" y="-46" font-family="Helvetica,sans-Serif" font-size="10.00">BottomPanel</text>
</a>
</g>
</g>
<!-- Node4&#45;&gt;Node5 -->
<g id="edge4" class="edge"><title>Node4&#45;&gt;Node5</title>
<path fill="none" stroke="midnightblue" d="M713.848,-42.5432C722.532,-43.4985 731.257,-44.4583 739.762,-45.3939"/>
<polygon fill="midnightblue" stroke="midnightblue" points="714.011,-39.0402 703.688,-41.4257 713.246,-45.9982 714.011,-39.0402"/>
</g>
<!-- Node6 -->
<g id="node6" class="node"><title>Node6</title>
<g id="a_node6"><a xlink:href="../../db/ddb/classcontroller_1_1_user_interface.html#a6dd740b89d748c372a5ef9959e1bd7c4" target="_top" xlink:title="controller.UserInterface.\lUserInterface">
<polygon fill="white" stroke="black" points="946.5,-39 946.5,-69 1077.5,-69 1077.5,-39 946.5,-39"/>
<text text-anchor="start" x="954.5" y="-57" font-family="Helvetica,sans-Serif" font-size="10.00">controller.UserInterface.</text>
<text text-anchor="middle" x="1012" y="-46" font-family="Helvetica,sans-Serif" font-size="10.00">UserInterface</text>
</a>
</g>
</g>
<!-- Node5&#45;&gt;Node6 -->
<g id="edge5" class="edge"><title>Node5&#45;&gt;Node6</title>
<path fill="none" stroke="midnightblue" d="M908.415,-54C921.171,-54 934.097,-54 946.275,-54"/>
<polygon fill="midnightblue" stroke="midnightblue" points="908.238,-50.5001 898.238,-54 908.238,-57.5001 908.238,-50.5001"/>
</g>
<!-- Node7 -->
<g id="node7" class="node"><title>Node7</title>
<g id="a_node7"><a xlink:href="../../db/ddb/classcontroller_1_1_user_interface.html#aad62b84bbc23f683c844ace519feb9d2" target="_top" xlink:title="controller.UserInterface.reset">
<polygon fill="white" stroke="black" points="934,-0.5 934,-19.5 1090,-19.5 1090,-0.5 934,-0.5"/>
<text text-anchor="middle" x="1012" y="-7.5" font-family="Helvetica,sans-Serif" font-size="10.00">controller.UserInterface.reset</text>
</a>
</g>
</g>
<!-- Node5&#45;&gt;Node7 -->
<g id="edge6" class="edge"><title>Node5&#45;&gt;Node7</title>
<path fill="none" stroke="midnightblue" d="M895.179,-36.6813C920.556,-30.8352 947.941,-24.5268 969.707,-19.5124"/>
<polygon fill="midnightblue" stroke="midnightblue" points="894.156,-33.3251 885.197,-38.9808 895.728,-40.1465 894.156,-33.3251"/>
</g>
<!-- Node7&#45;&gt;Node4 -->
<g id="edge7" class="edge"><title>Node7&#45;&gt;Node4</title>
<path fill="none" stroke="midnightblue" d="M923.444,-14.9014C857.942,-18.5682 768.825,-23.5569 703.76,-27.1992"/>
<polygon fill="midnightblue" stroke="midnightblue" points="923.958,-18.3782 933.747,-14.3246 923.566,-11.3891 923.958,-18.3782"/>
</g>
</g>
</svg>
