<?xml version="1.0" encoding="UTF-8" standalone="no"?>
<!DOCTYPE svg PUBLIC "-//W3C//DTD SVG 1.1//EN"
 "http://www.w3.org/Graphics/SVG/1.1/DTD/svg11.dtd">
<!-- Generated by graphviz version 2.36.0 (20140111.2315)
 -->
<!-- Title: controller.GridInfo.getPatchType Pages: 1 -->
<svg width="1176pt" height="77pt"
 viewBox="0.00 0.00 1176.00 77.00" xmlns="http://www.w3.org/2000/svg" xmlns:xlink="http://www.w3.org/1999/xlink">
<g id="graph0" class="graph" transform="scale(1 1) rotate(0) translate(4 73)">
<title>controller.GridInfo.getPatchType</title>
<polygon fill="white" stroke="none" points="-4,4 -4,-73 1172,-73 1172,4 -4,4"/>
<!-- Node1 -->
<g id="node1" class="node"><title>Node1</title>
<polygon fill="#bfbfbf" stroke="black" points="0.5,-22.5 0.5,-41.5 167.5,-41.5 167.5,-22.5 0.5,-22.5"/>
<text text-anchor="middle" x="84" y="-29.5" font-family="Helvetica,sans-Serif" font-size="10.00">controller.GridInfo.getPatchType</text>
</g>
<!-- Node2 -->
<g id="node2" class="node"><title>Node2</title>
<g id="a_node2"><a xlink:href="../../d6/d7e/classcontroller_1_1_patch_factory.html#a9c96555534f716de7c2f7f984a7531e9" target="_top" xlink:title="controller.PatchFactory.create\lPatch">
<polygon fill="white" stroke="black" points="204.5,-17 204.5,-47 361.5,-47 361.5,-17 204.5,-17"/>
<text text-anchor="start" x="212.5" y="-35" font-family="Helvetica,sans-Serif" font-size="10.00">controller.PatchFactory.create</text>
<text text-anchor="middle" x="283" y="-24" font-family="Helvetica,sans-Serif" font-size="10.00">Patch</text>
</a>
</g>
</g>
<!-- Node1&#45;&gt;Node2 -->
<g id="edge1" class="edge"><title>Node1&#45;&gt;Node2</title>
<path fill="none" stroke="midnightblue" d="M177.967,-32C186.76,-32 195.611,-32 204.24,-32"/>
<polygon fill="midnightblue" stroke="midnightblue" points="177.69,-28.5001 167.689,-32 177.689,-35.5001 177.69,-28.5001"/>
</g>
<!-- Node3 -->
<g id="node3" class="node"><title>Node3</title>
<g id="a_node3"><a xlink:href="../../db/d32/classcontroller_1_1_main_controller.html#aecc10abc6b55d8b0b4bd152be5c5d3f0" target="_top" xlink:title="controller.MainController.initialize\lSimulationObjects">
<polygon fill="white" stroke="black" points="398.5,-17 398.5,-47 571.5,-47 571.5,-17 398.5,-17"/>
<text text-anchor="start" x="406.5" y="-35" font-family="Helvetica,sans-Serif" font-size="10.00">controller.MainController.initialize</text>
<text text-anchor="middle" x="485" y="-24" font-family="Helvetica,sans-Serif" font-size="10.00">SimulationObjects</text>
</a>
</g>
</g>
<!-- Node2&#45;&gt;Node3 -->
<g id="edge2" class="edge"><title>Node2&#45;&gt;Node3</title>
<path fill="none" stroke="midnightblue" d="M371.895,-32C380.719,-32 389.67,-32 398.469,-32"/>
<polygon fill="midnightblue" stroke="midnightblue" points="371.612,-28.5001 361.611,-32 371.611,-35.5001 371.612,-28.5001"/>
</g>
<!-- Node4 -->
<g id="node4" class="node"><title>Node4</title>
<g id="a_node4"><a xlink:href="../../db/d32/classcontroller_1_1_main_controller.html#a7cfedb8e16c6b9d6394054d03193da82" target="_top" xlink:title="controller.MainController.initialize\lSimulationWithData">
<polygon fill="white" stroke="black" points="608.5,-17 608.5,-47 781.5,-47 781.5,-17 608.5,-17"/>
<text text-anchor="start" x="616.5" y="-35" font-family="Helvetica,sans-Serif" font-size="10.00">controller.MainController.initialize</text>
<text text-anchor="middle" x="695" y="-24" font-family="Helvetica,sans-Serif" font-size="10.00">SimulationWithData</text>
</a>
</g>
</g>
<!-- Node3&#45;&gt;Node4 -->
<g id="edge3" class="edge"><title>Node3&#45;&gt;Node4</title>
<path fill="none" stroke="midnightblue" d="M581.585,-32C590.561,-32 599.62,-32 608.494,-32"/>
<polygon fill="midnightblue" stroke="midnightblue" points="581.502,-28.5001 571.502,-32 581.502,-35.5001 581.502,-28.5001"/>
</g>
<!-- Node5 -->
<g id="node5" class="node"><title>Node5</title>
<g id="a_node5"><a xlink:href="../../db/ddb/classcontroller_1_1_user_interface.html#a9cf1e21253003993661082c9d42926b2" target="_top" xlink:title="controller.UserInterface.make\lBottomPanel">
<polygon fill="white" stroke="black" points="818,-39 818,-69 976,-69 976,-39 818,-39"/>
<text text-anchor="start" x="826" y="-57" font-family="Helvetica,sans-Serif" font-size="10.00">controller.UserInterface.make</text>
<text text-anchor="middle" x="897" y="-46" font-family="Helvetica,sans-Serif" font-size="10.00">BottomPanel</text>
</a>
</g>
</g>
<!-- Node4&#45;&gt;Node5 -->
<g id="edge4" class="edge"><title>Node4&#45;&gt;Node5</title>
<path fill="none" stroke="midnightblue" d="M791.848,-42.5432C800.532,-43.4985 809.257,-44.4583 817.762,-45.3939"/>
<polygon fill="midnightblue" stroke="midnightblue" points="792.011,-39.0402 781.688,-41.4257 791.246,-45.9982 792.011,-39.0402"/>
</g>
<!-- Node6 -->
<g id="node6" class="node"><title>Node6</title>
<g id="a_node6"><a xlink:href="../../db/ddb/classcontroller_1_1_user_interface.html#a6dd740b89d748c372a5ef9959e1bd7c4" target="_top" xlink:title="controller.UserInterface.\lUserInterface">
<polygon fill="white" stroke="black" points="1024.5,-39 1024.5,-69 1155.5,-69 1155.5,-39 1024.5,-39"/>
<text text-anchor="start" x="1032.5" y="-57" font-family="Helvetica,sans-Serif" font-size="10.00">controller.UserInterface.</text>
<text text-anchor="middle" x="1090" y="-46" font-family="Helvetica,sans-Serif" font-size="10.00">UserInterface</text>
</a>
</g>
</g>
<!-- Node5&#45;&gt;Node6 -->
<g id="edge5" class="edge"><title>Node5&#45;&gt;Node6</title>
<path fill="none" stroke="midnightblue" d="M986.415,-54C999.171,-54 1012.1,-54 1024.27,-54"/>
<polygon fill="midnightblue" stroke="midnightblue" points="986.238,-50.5001 976.238,-54 986.238,-57.5001 986.238,-50.5001"/>
</g>
<!-- Node7 -->
<g id="node7" class="node"><title>Node7</title>
<g id="a_node7"><a xlink:href="../../db/ddb/classcontroller_1_1_user_interface.html#aad62b84bbc23f683c844ace519feb9d2" target="_top" xlink:title="controller.UserInterface.reset">
<polygon fill="white" stroke="black" points="1012,-0.5 1012,-19.5 1168,-19.5 1168,-0.5 1012,-0.5"/>
<text text-anchor="middle" x="1090" y="-7.5" font-family="Helvetica,sans-Serif" font-size="10.00">controller.UserInterface.reset</text>
</a>
</g>
</g>
<!-- Node5&#45;&gt;Node7 -->
<g id="edge6" class="edge"><title>Node5&#45;&gt;Node7</title>
<path fill="none" stroke="midnightblue" d="M973.179,-36.6813C998.556,-30.8352 1025.94,-24.5268 1047.71,-19.5124"/>
<polygon fill="midnightblue" stroke="midnightblue" points="972.156,-33.3251 963.197,-38.9808 973.728,-40.1465 972.156,-33.3251"/>
</g>
<!-- Node7&#45;&gt;Node4 -->
<g id="edge7" class="edge"><title>Node7&#45;&gt;Node4</title>
<path fill="none" stroke="midnightblue" d="M1001.44,-14.9014C935.942,-18.5682 846.825,-23.5569 781.76,-27.1992"/>
<polygon fill="midnightblue" stroke="midnightblue" points="1001.96,-18.3782 1011.75,-14.3246 1001.57,-11.3891 1001.96,-18.3782"/>
</g>
</g>
</svg>
