<?xml version="1.0" encoding="UTF-8" standalone="no"?>
<!DOCTYPE svg PUBLIC "-//W3C//DTD SVG 1.1//EN"
 "http://www.w3.org/Graphics/SVG/1.1/DTD/svg11.dtd">
<!-- Generated by graphviz version 2.36.0 (20140111.2315)
 -->
<!-- Title: controller.GridInfo.setHeight Pages: 1 -->
<svg width="1162pt" height="87pt"
 viewBox="0.00 0.00 1162.00 87.00" xmlns="http://www.w3.org/2000/svg" xmlns:xlink="http://www.w3.org/1999/xlink">
<g id="graph0" class="graph" transform="scale(1 1) rotate(0) translate(4 83)">
<title>controller.GridInfo.setHeight</title>
<polygon fill="white" stroke="none" points="-4,4 -4,-83 1158,-83 1158,4 -4,4"/>
<!-- Node1 -->
<g id="node1" class="node"><title>Node1</title>
<polygon fill="#bfbfbf" stroke="black" points="0,-29.5 0,-48.5 150,-48.5 150,-29.5 0,-29.5"/>
<text text-anchor="middle" x="75" y="-36.5" font-family="Helvetica,sans-Serif" font-size="10.00">controller.GridInfo.setHeight</text>
</g>
<!-- Node2 -->
<g id="node2" class="node"><title>Node2</title>
<g id="a_node2"><a xlink:href="../../d3/d6a/classcontroller_1_1_parser.html#a3cb22c70450e8c7a3adfbeb33cf21309" target="_top" xlink:title="controller.Parser.attribute\lParse">
<polygon fill="white" stroke="black" points="198.5,-49 198.5,-79 335.5,-79 335.5,-49 198.5,-49"/>
<text text-anchor="start" x="206.5" y="-67" font-family="Helvetica,sans-Serif" font-size="10.00">controller.Parser.attribute</text>
<text text-anchor="middle" x="267" y="-56" font-family="Helvetica,sans-Serif" font-size="10.00">Parse</text>
</a>
</g>
</g>
<!-- Node1&#45;&gt;Node2 -->
<g id="edge1" class="edge"><title>Node1&#45;&gt;Node2</title>
<path fill="none" stroke="midnightblue" d="M158.442,-49.8477C171.718,-51.5944 185.326,-53.385 198.206,-55.0798"/>
<polygon fill="midnightblue" stroke="midnightblue" points="158.744,-46.3573 148.373,-48.5227 157.831,-53.2975 158.744,-46.3573"/>
</g>
<!-- Node8 -->
<g id="node8" class="node"><title>Node8</title>
<g id="a_node8"><a xlink:href="../../db/d32/classcontroller_1_1_main_controller.html#a2163bf863ed2b2ce85a7adfec03f44c4" target="_top" xlink:title="controller.MainController.setup\lGridConstraints">
<polygon fill="white" stroke="black" points="186,-0 186,-30 348,-30 348,-0 186,-0"/>
<text text-anchor="start" x="194" y="-18" font-family="Helvetica,sans-Serif" font-size="10.00">controller.MainController.setup</text>
<text text-anchor="middle" x="267" y="-7" font-family="Helvetica,sans-Serif" font-size="10.00">GridConstraints</text>
</a>
</g>
</g>
<!-- Node1&#45;&gt;Node8 -->
<g id="edge8" class="edge"><title>Node1&#45;&gt;Node8</title>
<path fill="none" stroke="midnightblue" d="M160.028,-28.386C168.63,-27.2994 177.353,-26.1975 185.911,-25.1165"/>
<polygon fill="midnightblue" stroke="midnightblue" points="159.486,-24.9266 150.003,-29.6523 160.363,-31.8714 159.486,-24.9266"/>
</g>
<!-- Node3 -->
<g id="node3" class="node"><title>Node3</title>
<g id="a_node3"><a xlink:href="../../d3/d6a/classcontroller_1_1_parser.html#a02bf0729411c23f212468f2d50d4e5ed" target="_top" xlink:title="controller.Parser.parserXml">
<polygon fill="white" stroke="black" points="398.5,-52.5 398.5,-71.5 543.5,-71.5 543.5,-52.5 398.5,-52.5"/>
<text text-anchor="middle" x="471" y="-59.5" font-family="Helvetica,sans-Serif" font-size="10.00">controller.Parser.parserXml</text>
</a>
</g>
</g>
<!-- Node2&#45;&gt;Node3 -->
<g id="edge2" class="edge"><title>Node2&#45;&gt;Node3</title>
<path fill="none" stroke="midnightblue" d="M345.625,-63.2314C362.966,-63.0597 381.279,-62.8784 398.365,-62.7093"/>
<polygon fill="midnightblue" stroke="midnightblue" points="345.509,-59.7323 335.544,-63.3312 345.578,-66.732 345.509,-59.7323"/>
</g>
<!-- Node4 -->
<g id="node4" class="node"><title>Node4</title>
<g id="a_node4"><a xlink:href="../../db/d32/classcontroller_1_1_main_controller.html#a7cfedb8e16c6b9d6394054d03193da82" target="_top" xlink:title="controller.MainController.initialize\lSimulationWithData">
<polygon fill="white" stroke="black" points="594.5,-24 594.5,-54 767.5,-54 767.5,-24 594.5,-24"/>
<text text-anchor="start" x="602.5" y="-42" font-family="Helvetica,sans-Serif" font-size="10.00">controller.MainController.initialize</text>
<text text-anchor="middle" x="681" y="-31" font-family="Helvetica,sans-Serif" font-size="10.00">SimulationWithData</text>
</a>
</g>
</g>
<!-- Node3&#45;&gt;Node4 -->
<g id="edge3" class="edge"><title>Node3&#45;&gt;Node4</title>
<path fill="none" stroke="midnightblue" d="M553.667,-52.9695C567.006,-51.4945 580.86,-49.9626 594.294,-48.4771"/>
<polygon fill="midnightblue" stroke="midnightblue" points="553.137,-49.5067 543.582,-54.0847 553.906,-56.4643 553.137,-49.5067"/>
</g>
<!-- Node5 -->
<g id="node5" class="node"><title>Node5</title>
<g id="a_node5"><a xlink:href="../../db/ddb/classcontroller_1_1_user_interface.html#a9cf1e21253003993661082c9d42926b2" target="_top" xlink:title="controller.UserInterface.make\lBottomPanel">
<polygon fill="white" stroke="black" points="804,-46 804,-76 962,-76 962,-46 804,-46"/>
<text text-anchor="start" x="812" y="-64" font-family="Helvetica,sans-Serif" font-size="10.00">controller.UserInterface.make</text>
<text text-anchor="middle" x="883" y="-53" font-family="Helvetica,sans-Serif" font-size="10.00">BottomPanel</text>
</a>
</g>
</g>
<!-- Node4&#45;&gt;Node5 -->
<g id="edge4" class="edge"><title>Node4&#45;&gt;Node5</title>
<path fill="none" stroke="midnightblue" d="M777.848,-49.5432C786.532,-50.4985 795.257,-51.4583 803.762,-52.3939"/>
<polygon fill="midnightblue" stroke="midnightblue" points="778.011,-46.0402 767.688,-48.4257 777.246,-52.9982 778.011,-46.0402"/>
</g>
<!-- Node6 -->
<g id="node6" class="node"><title>Node6</title>
<g id="a_node6"><a xlink:href="../../db/ddb/classcontroller_1_1_user_interface.html#a6dd740b89d748c372a5ef9959e1bd7c4" target="_top" xlink:title="controller.UserInterface.\lUserInterface">
<polygon fill="white" stroke="black" points="1010.5,-46 1010.5,-76 1141.5,-76 1141.5,-46 1010.5,-46"/>
<text text-anchor="start" x="1018.5" y="-64" font-family="Helvetica,sans-Serif" font-size="10.00">controller.UserInterface.</text>
<text text-anchor="middle" x="1076" y="-53" font-family="Helvetica,sans-Serif" font-size="10.00">UserInterface</text>
</a>
</g>
</g>
<!-- Node5&#45;&gt;Node6 -->
<g id="edge5" class="edge"><title>Node5&#45;&gt;Node6</title>
<path fill="none" stroke="midnightblue" d="M972.415,-61C985.171,-61 998.097,-61 1010.27,-61"/>
<polygon fill="midnightblue" stroke="midnightblue" points="972.238,-57.5001 962.238,-61 972.238,-64.5001 972.238,-57.5001"/>
</g>
<!-- Node7 -->
<g id="node7" class="node"><title>Node7</title>
<g id="a_node7"><a xlink:href="../../db/ddb/classcontroller_1_1_user_interface.html#aad62b84bbc23f683c844ace519feb9d2" target="_top" xlink:title="controller.UserInterface.reset">
<polygon fill="white" stroke="black" points="998,-7.5 998,-26.5 1154,-26.5 1154,-7.5 998,-7.5"/>
<text text-anchor="middle" x="1076" y="-14.5" font-family="Helvetica,sans-Serif" font-size="10.00">controller.UserInterface.reset</text>
</a>
</g>
</g>
<!-- Node5&#45;&gt;Node7 -->
<g id="edge6" class="edge"><title>Node5&#45;&gt;Node7</title>
<path fill="none" stroke="midnightblue" d="M959.179,-43.6813C984.556,-37.8352 1011.94,-31.5268 1033.71,-26.5124"/>
<polygon fill="midnightblue" stroke="midnightblue" points="958.156,-40.3251 949.197,-45.9808 959.728,-47.1465 958.156,-40.3251"/>
</g>
<!-- Node7&#45;&gt;Node4 -->
<g id="edge7" class="edge"><title>Node7&#45;&gt;Node4</title>
<path fill="none" stroke="midnightblue" d="M987.444,-21.9014C921.942,-25.5682 832.825,-30.5569 767.76,-34.1992"/>
<polygon fill="midnightblue" stroke="midnightblue" points="987.958,-25.3782 997.747,-21.3246 987.566,-18.3891 987.958,-25.3782"/>
</g>
<!-- Node9 -->
<g id="node9" class="node"><title>Node9</title>
<g id="a_node9"><a xlink:href="../../db/d32/classcontroller_1_1_main_controller.html#aecc10abc6b55d8b0b4bd152be5c5d3f0" target="_top" xlink:title="controller.MainController.initialize\lSimulationObjects">
<polygon fill="white" stroke="black" points="384.5,-2 384.5,-32 557.5,-32 557.5,-2 384.5,-2"/>
<text text-anchor="start" x="392.5" y="-20" font-family="Helvetica,sans-Serif" font-size="10.00">controller.MainController.initialize</text>
<text text-anchor="middle" x="471" y="-9" font-family="Helvetica,sans-Serif" font-size="10.00">SimulationObjects</text>
</a>
</g>
</g>
<!-- Node8&#45;&gt;Node9 -->
<g id="edge9" class="edge"><title>Node8&#45;&gt;Node9</title>
<path fill="none" stroke="midnightblue" d="M358.244,-15.8935C366.918,-15.9794 375.699,-16.0663 384.327,-16.1518"/>
<polygon fill="midnightblue" stroke="midnightblue" points="358.16,-12.3926 348.126,-15.7933 358.091,-19.3923 358.16,-12.3926"/>
</g>
<!-- Node9&#45;&gt;Node4 -->
<g id="edge10" class="edge"><title>Node9&#45;&gt;Node4</title>
<path fill="none" stroke="midnightblue" d="M567.585,-27.11C576.561,-28.0593 585.62,-29.0175 594.494,-29.9561"/>
<polygon fill="midnightblue" stroke="midnightblue" points="567.815,-23.6148 557.502,-26.0435 567.078,-30.576 567.815,-23.6148"/>
</g>
</g>
</svg>
