<?xml version="1.0" encoding="UTF-8" standalone="no"?>
<!DOCTYPE svg PUBLIC "-//W3C//DTD SVG 1.1//EN"
 "http://www.w3.org/Graphics/SVG/1.1/DTD/svg11.dtd">
<!-- Generated by graphviz version 2.36.0 (20140111.2315)
 -->
<!-- Title: controller.GridInfo.setAdjacent Pages: 1 -->
<svg width="1122pt" height="77pt"
 viewBox="0.00 0.00 1122.00 77.00" xmlns="http://www.w3.org/2000/svg" xmlns:xlink="http://www.w3.org/1999/xlink">
<g id="graph0" class="graph" transform="scale(1 1) rotate(0) translate(4 73)">
<title>controller.GridInfo.setAdjacent</title>
<polygon fill="white" stroke="none" points="-4,4 -4,-73 1118,-73 1118,4 -4,4"/>
<!-- Node1 -->
<g id="node1" class="node"><title>Node1</title>
<polygon fill="#bfbfbf" stroke="black" points="0.5,-22.5 0.5,-41.5 161.5,-41.5 161.5,-22.5 0.5,-22.5"/>
<text text-anchor="middle" x="81" y="-29.5" font-family="Helvetica,sans-Serif" font-size="10.00">controller.GridInfo.setAdjacent</text>
</g>
<!-- Node2 -->
<g id="node2" class="node"><title>Node2</title>
<g id="a_node2"><a xlink:href="../../d3/d6a/classcontroller_1_1_parser.html#a3cb22c70450e8c7a3adfbeb33cf21309" target="_top" xlink:title="controller.Parser.attribute\lParse">
<polygon fill="white" stroke="black" points="198.5,-17 198.5,-47 335.5,-47 335.5,-17 198.5,-17"/>
<text text-anchor="start" x="206.5" y="-35" font-family="Helvetica,sans-Serif" font-size="10.00">controller.Parser.attribute</text>
<text text-anchor="middle" x="267" y="-24" font-family="Helvetica,sans-Serif" font-size="10.00">Parse</text>
</a>
</g>
</g>
<!-- Node1&#45;&gt;Node2 -->
<g id="edge1" class="edge"><title>Node1&#45;&gt;Node2</title>
<path fill="none" stroke="midnightblue" d="M171.722,-32C180.684,-32 189.674,-32 198.353,-32"/>
<polygon fill="midnightblue" stroke="midnightblue" points="171.635,-28.5001 161.635,-32 171.635,-35.5001 171.635,-28.5001"/>
</g>
<!-- Node3 -->
<g id="node3" class="node"><title>Node3</title>
<g id="a_node3"><a xlink:href="../../d3/d6a/classcontroller_1_1_parser.html#a02bf0729411c23f212468f2d50d4e5ed" target="_top" xlink:title="controller.Parser.parserXml">
<polygon fill="white" stroke="black" points="372.5,-22.5 372.5,-41.5 517.5,-41.5 517.5,-22.5 372.5,-22.5"/>
<text text-anchor="middle" x="445" y="-29.5" font-family="Helvetica,sans-Serif" font-size="10.00">controller.Parser.parserXml</text>
</a>
</g>
</g>
<!-- Node2&#45;&gt;Node3 -->
<g id="edge2" class="edge"><title>Node2&#45;&gt;Node3</title>
<path fill="none" stroke="midnightblue" d="M345.792,-32C354.594,-32 363.535,-32 372.255,-32"/>
<polygon fill="midnightblue" stroke="midnightblue" points="345.543,-28.5001 335.543,-32 345.543,-35.5001 345.543,-28.5001"/>
</g>
<!-- Node4 -->
<g id="node4" class="node"><title>Node4</title>
<g id="a_node4"><a xlink:href="../../db/d32/classcontroller_1_1_main_controller.html#a7cfedb8e16c6b9d6394054d03193da82" target="_top" xlink:title="controller.MainController.initialize\lSimulationWithData">
<polygon fill="white" stroke="black" points="554.5,-17 554.5,-47 727.5,-47 727.5,-17 554.5,-17"/>
<text text-anchor="start" x="562.5" y="-35" font-family="Helvetica,sans-Serif" font-size="10.00">controller.MainController.initialize</text>
<text text-anchor="middle" x="641" y="-24" font-family="Helvetica,sans-Serif" font-size="10.00">SimulationWithData</text>
</a>
</g>
</g>
<!-- Node3&#45;&gt;Node4 -->
<g id="edge3" class="edge"><title>Node3&#45;&gt;Node4</title>
<path fill="none" stroke="midnightblue" d="M527.91,-32C536.699,-32 545.658,-32 554.489,-32"/>
<polygon fill="midnightblue" stroke="midnightblue" points="527.687,-28.5001 517.687,-32 527.687,-35.5001 527.687,-28.5001"/>
</g>
<!-- Node5 -->
<g id="node5" class="node"><title>Node5</title>
<g id="a_node5"><a xlink:href="../../db/ddb/classcontroller_1_1_user_interface.html#a9cf1e21253003993661082c9d42926b2" target="_top" xlink:title="controller.UserInterface.make\lBottomPanel">
<polygon fill="white" stroke="black" points="764,-39 764,-69 922,-69 922,-39 764,-39"/>
<text text-anchor="start" x="772" y="-57" font-family="Helvetica,sans-Serif" font-size="10.00">controller.UserInterface.make</text>
<text text-anchor="middle" x="843" y="-46" font-family="Helvetica,sans-Serif" font-size="10.00">BottomPanel</text>
</a>
</g>
</g>
<!-- Node4&#45;&gt;Node5 -->
<g id="edge4" class="edge"><title>Node4&#45;&gt;Node5</title>
<path fill="none" stroke="midnightblue" d="M737.848,-42.5432C746.532,-43.4985 755.257,-44.4583 763.762,-45.3939"/>
<polygon fill="midnightblue" stroke="midnightblue" points="738.011,-39.0402 727.688,-41.4257 737.246,-45.9982 738.011,-39.0402"/>
</g>
<!-- Node6 -->
<g id="node6" class="node"><title>Node6</title>
<g id="a_node6"><a xlink:href="../../db/ddb/classcontroller_1_1_user_interface.html#a6dd740b89d748c372a5ef9959e1bd7c4" target="_top" xlink:title="controller.UserInterface.\lUserInterface">
<polygon fill="white" stroke="black" points="970.5,-39 970.5,-69 1101.5,-69 1101.5,-39 970.5,-39"/>
<text text-anchor="start" x="978.5" y="-57" font-family="Helvetica,sans-Serif" font-size="10.00">controller.UserInterface.</text>
<text text-anchor="middle" x="1036" y="-46" font-family="Helvetica,sans-Serif" font-size="10.00">UserInterface</text>
</a>
</g>
</g>
<!-- Node5&#45;&gt;Node6 -->
<g id="edge5" class="edge"><title>Node5&#45;&gt;Node6</title>
<path fill="none" stroke="midnightblue" d="M932.415,-54C945.171,-54 958.097,-54 970.275,-54"/>
<polygon fill="midnightblue" stroke="midnightblue" points="932.238,-50.5001 922.238,-54 932.238,-57.5001 932.238,-50.5001"/>
</g>
<!-- Node7 -->
<g id="node7" class="node"><title>Node7</title>
<g id="a_node7"><a xlink:href="../../db/ddb/classcontroller_1_1_user_interface.html#aad62b84bbc23f683c844ace519feb9d2" target="_top" xlink:title="controller.UserInterface.reset">
<polygon fill="white" stroke="black" points="958,-0.5 958,-19.5 1114,-19.5 1114,-0.5 958,-0.5"/>
<text text-anchor="middle" x="1036" y="-7.5" font-family="Helvetica,sans-Serif" font-size="10.00">controller.UserInterface.reset</text>
</a>
</g>
</g>
<!-- Node5&#45;&gt;Node7 -->
<g id="edge6" class="edge"><title>Node5&#45;&gt;Node7</title>
<path fill="none" stroke="midnightblue" d="M919.179,-36.6813C944.556,-30.8352 971.941,-24.5268 993.707,-19.5124"/>
<polygon fill="midnightblue" stroke="midnightblue" points="918.156,-33.3251 909.197,-38.9808 919.728,-40.1465 918.156,-33.3251"/>
</g>
<!-- Node7&#45;&gt;Node4 -->
<g id="edge7" class="edge"><title>Node7&#45;&gt;Node4</title>
<path fill="none" stroke="midnightblue" d="M947.444,-14.9014C881.942,-18.5682 792.825,-23.5569 727.76,-27.1992"/>
<polygon fill="midnightblue" stroke="midnightblue" points="947.958,-18.3782 957.747,-14.3246 947.566,-11.3891 947.958,-18.3782"/>
</g>
</g>
</svg>
