<?xml version="1.0" encoding="UTF-8" standalone="no"?>
<!DOCTYPE svg PUBLIC "-//W3C//DTD SVG 1.1//EN"
 "http://www.w3.org/Graphics/SVG/1.1/DTD/svg11.dtd">
<!-- Generated by graphviz version 2.36.0 (20140111.2315)
 -->
<!-- Title: controller.GridInfo.getMaxCellState Pages: 1 -->
<svg width="1170pt" height="110pt"
 viewBox="0.00 0.00 1170.00 110.00" xmlns="http://www.w3.org/2000/svg" xmlns:xlink="http://www.w3.org/1999/xlink">
<g id="graph0" class="graph" transform="scale(1 1) rotate(0) translate(4 106)">
<title>controller.GridInfo.getMaxCellState</title>
<polygon fill="white" stroke="none" points="-4,4 -4,-106 1166,-106 1166,4 -4,4"/>
<!-- Node1 -->
<g id="node1" class="node"><title>Node1</title>
<polygon fill="#bfbfbf" stroke="black" points="0.5,-24 0.5,-54 139.5,-54 139.5,-24 0.5,-24"/>
<text text-anchor="start" x="8.5" y="-42" font-family="Helvetica,sans-Serif" font-size="10.00">controller.GridInfo.getMax</text>
<text text-anchor="middle" x="70" y="-31" font-family="Helvetica,sans-Serif" font-size="10.00">CellState</text>
</g>
<!-- Node2 -->
<g id="node2" class="node"><title>Node2</title>
<g id="a_node2"><a xlink:href="../../d7/d97/classcontroller_1_1_grid.html#a606f5f45872fdfbc2ccfd30ee41d7a81" target="_top" xlink:title="controller.Grid.initialize\lCellCounts">
<polygon fill="white" stroke="black" points="203.5,-49 203.5,-79 328.5,-79 328.5,-49 203.5,-49"/>
<text text-anchor="start" x="211.5" y="-67" font-family="Helvetica,sans-Serif" font-size="10.00">controller.Grid.initialize</text>
<text text-anchor="middle" x="266" y="-56" font-family="Helvetica,sans-Serif" font-size="10.00">CellCounts</text>
</a>
</g>
</g>
<!-- Node1&#45;&gt;Node2 -->
<g id="edge1" class="edge"><title>Node1&#45;&gt;Node2</title>
<path fill="none" stroke="midnightblue" d="M149.997,-49.18C167.732,-51.4654 186.298,-53.858 203.212,-56.0376"/>
<polygon fill="midnightblue" stroke="midnightblue" points="150.036,-45.6561 139.67,-47.8492 149.141,-52.5987 150.036,-45.6561"/>
</g>
<!-- Node8 -->
<g id="node8" class="node"><title>Node8</title>
<g id="a_node8"><a xlink:href="../../de/d4d/classcontroller_1_1_simulation_chart.html#a2a0445aa6e86c2a38019a594d925a2f6" target="_top" xlink:title="controller.SimulationChart.intialize\lChart">
<polygon fill="white" stroke="black" points="176,-0 176,-30 356,-30 356,-0 176,-0"/>
<text text-anchor="start" x="184" y="-18" font-family="Helvetica,sans-Serif" font-size="10.00">controller.SimulationChart.intialize</text>
<text text-anchor="middle" x="266" y="-7" font-family="Helvetica,sans-Serif" font-size="10.00">Chart</text>
</a>
</g>
</g>
<!-- Node1&#45;&gt;Node8 -->
<g id="edge8" class="edge"><title>Node1&#45;&gt;Node8</title>
<path fill="none" stroke="midnightblue" d="M149.636,-29.2718C158.218,-28.2102 166.998,-27.1239 175.696,-26.0479"/>
<polygon fill="midnightblue" stroke="midnightblue" points="149.165,-25.8034 139.67,-30.5047 150.024,-32.7504 149.165,-25.8034"/>
</g>
<!-- Node3 -->
<g id="node3" class="node"><title>Node3</title>
<g id="a_node3"><a xlink:href="../../db/d32/classcontroller_1_1_main_controller.html#aecc10abc6b55d8b0b4bd152be5c5d3f0" target="_top" xlink:title="controller.MainController.initialize\lSimulationObjects">
<polygon fill="white" stroke="black" points="392.5,-49 392.5,-79 565.5,-79 565.5,-49 392.5,-49"/>
<text text-anchor="start" x="400.5" y="-67" font-family="Helvetica,sans-Serif" font-size="10.00">controller.MainController.initialize</text>
<text text-anchor="middle" x="479" y="-56" font-family="Helvetica,sans-Serif" font-size="10.00">SimulationObjects</text>
</a>
</g>
</g>
<!-- Node2&#45;&gt;Node3 -->
<g id="edge2" class="edge"><title>Node2&#45;&gt;Node3</title>
<path fill="none" stroke="midnightblue" d="M338.605,-64C355.898,-64 374.55,-64 392.411,-64"/>
<polygon fill="midnightblue" stroke="midnightblue" points="338.597,-60.5001 328.597,-64 338.597,-67.5001 338.597,-60.5001"/>
</g>
<!-- Node4 -->
<g id="node4" class="node"><title>Node4</title>
<g id="a_node4"><a xlink:href="../../db/d32/classcontroller_1_1_main_controller.html#a7cfedb8e16c6b9d6394054d03193da82" target="_top" xlink:title="controller.MainController.initialize\lSimulationWithData">
<polygon fill="white" stroke="black" points="602.5,-49 602.5,-79 775.5,-79 775.5,-49 602.5,-49"/>
<text text-anchor="start" x="610.5" y="-67" font-family="Helvetica,sans-Serif" font-size="10.00">controller.MainController.initialize</text>
<text text-anchor="middle" x="689" y="-56" font-family="Helvetica,sans-Serif" font-size="10.00">SimulationWithData</text>
</a>
</g>
</g>
<!-- Node3&#45;&gt;Node4 -->
<g id="edge3" class="edge"><title>Node3&#45;&gt;Node4</title>
<path fill="none" stroke="midnightblue" d="M575.585,-64C584.561,-64 593.62,-64 602.494,-64"/>
<polygon fill="midnightblue" stroke="midnightblue" points="575.502,-60.5001 565.502,-64 575.502,-67.5001 575.502,-60.5001"/>
</g>
<!-- Node5 -->
<g id="node5" class="node"><title>Node5</title>
<g id="a_node5"><a xlink:href="../../db/ddb/classcontroller_1_1_user_interface.html#a9cf1e21253003993661082c9d42926b2" target="_top" xlink:title="controller.UserInterface.make\lBottomPanel">
<polygon fill="white" stroke="black" points="812,-71 812,-101 970,-101 970,-71 812,-71"/>
<text text-anchor="start" x="820" y="-89" font-family="Helvetica,sans-Serif" font-size="10.00">controller.UserInterface.make</text>
<text text-anchor="middle" x="891" y="-78" font-family="Helvetica,sans-Serif" font-size="10.00">BottomPanel</text>
</a>
</g>
</g>
<!-- Node4&#45;&gt;Node5 -->
<g id="edge4" class="edge"><title>Node4&#45;&gt;Node5</title>
<path fill="none" stroke="midnightblue" d="M785.848,-74.5432C794.532,-75.4985 803.257,-76.4583 811.762,-77.3939"/>
<polygon fill="midnightblue" stroke="midnightblue" points="786.011,-71.0402 775.688,-73.4257 785.246,-77.9982 786.011,-71.0402"/>
</g>
<!-- Node6 -->
<g id="node6" class="node"><title>Node6</title>
<g id="a_node6"><a xlink:href="../../db/ddb/classcontroller_1_1_user_interface.html#a6dd740b89d748c372a5ef9959e1bd7c4" target="_top" xlink:title="controller.UserInterface.\lUserInterface">
<polygon fill="white" stroke="black" points="1018.5,-71 1018.5,-101 1149.5,-101 1149.5,-71 1018.5,-71"/>
<text text-anchor="start" x="1026.5" y="-89" font-family="Helvetica,sans-Serif" font-size="10.00">controller.UserInterface.</text>
<text text-anchor="middle" x="1084" y="-78" font-family="Helvetica,sans-Serif" font-size="10.00">UserInterface</text>
</a>
</g>
</g>
<!-- Node5&#45;&gt;Node6 -->
<g id="edge5" class="edge"><title>Node5&#45;&gt;Node6</title>
<path fill="none" stroke="midnightblue" d="M980.415,-86C993.171,-86 1006.1,-86 1018.27,-86"/>
<polygon fill="midnightblue" stroke="midnightblue" points="980.238,-82.5001 970.238,-86 980.238,-89.5001 980.238,-82.5001"/>
</g>
<!-- Node7 -->
<g id="node7" class="node"><title>Node7</title>
<g id="a_node7"><a xlink:href="../../db/ddb/classcontroller_1_1_user_interface.html#aad62b84bbc23f683c844ace519feb9d2" target="_top" xlink:title="controller.UserInterface.reset">
<polygon fill="white" stroke="black" points="1006,-32.5 1006,-51.5 1162,-51.5 1162,-32.5 1006,-32.5"/>
<text text-anchor="middle" x="1084" y="-39.5" font-family="Helvetica,sans-Serif" font-size="10.00">controller.UserInterface.reset</text>
</a>
</g>
</g>
<!-- Node5&#45;&gt;Node7 -->
<g id="edge6" class="edge"><title>Node5&#45;&gt;Node7</title>
<path fill="none" stroke="midnightblue" d="M967.179,-68.6813C992.556,-62.8352 1019.94,-56.5268 1041.71,-51.5124"/>
<polygon fill="midnightblue" stroke="midnightblue" points="966.156,-65.3251 957.197,-70.9808 967.728,-72.1465 966.156,-65.3251"/>
</g>
<!-- Node7&#45;&gt;Node4 -->
<g id="edge7" class="edge"><title>Node7&#45;&gt;Node4</title>
<path fill="none" stroke="midnightblue" d="M995.444,-46.9014C929.942,-50.5682 840.825,-55.5569 775.76,-59.1992"/>
<polygon fill="midnightblue" stroke="midnightblue" points="995.958,-50.3782 1005.75,-46.3246 995.566,-43.3891 995.958,-50.3782"/>
</g>
<!-- Node9 -->
<g id="node9" class="node"><title>Node9</title>
<g id="a_node9"><a xlink:href="../../de/d4d/classcontroller_1_1_simulation_chart.html#a0a61324a4c590fb14b4b6e3211015181" target="_top" xlink:title="controller.SimulationChart.\lSimulationChart">
<polygon fill="white" stroke="black" points="407,-0 407,-30 551,-30 551,-0 407,-0"/>
<text text-anchor="start" x="415" y="-18" font-family="Helvetica,sans-Serif" font-size="10.00">controller.SimulationChart.</text>
<text text-anchor="middle" x="479" y="-7" font-family="Helvetica,sans-Serif" font-size="10.00">SimulationChart</text>
</a>
</g>
</g>
<!-- Node8&#45;&gt;Node9 -->
<g id="edge9" class="edge"><title>Node8&#45;&gt;Node9</title>
<path fill="none" stroke="midnightblue" d="M366.514,-15C380.084,-15 393.787,-15 406.72,-15"/>
<polygon fill="midnightblue" stroke="midnightblue" points="366.177,-11.5001 356.177,-15 366.177,-18.5001 366.177,-11.5001"/>
</g>
</g>
</svg>
