<?xml version="1.0" encoding="UTF-8" standalone="no"?>
<!DOCTYPE svg PUBLIC "-//W3C//DTD SVG 1.1//EN"
 "http://www.w3.org/Graphics/SVG/1.1/DTD/svg11.dtd">
<!-- Generated by graphviz version 2.36.0 (20140111.2315)
 -->
<!-- Title: controller.GridInfo.getCellType Pages: 1 -->
<svg width="1166pt" height="120pt"
 viewBox="0.00 0.00 1166.00 120.00" xmlns="http://www.w3.org/2000/svg" xmlns:xlink="http://www.w3.org/1999/xlink">
<g id="graph0" class="graph" transform="scale(1 1) rotate(0) translate(4 116)">
<title>controller.GridInfo.getCellType</title>
<polygon fill="white" stroke="none" points="-4,4 -4,-116 1162,-116 1162,4 -4,4"/>
<!-- Node1 -->
<g id="node1" class="node"><title>Node1</title>
<polygon fill="#bfbfbf" stroke="black" points="0,-49.5 0,-68.5 158,-68.5 158,-49.5 0,-49.5"/>
<text text-anchor="middle" x="79" y="-56.5" font-family="Helvetica,sans-Serif" font-size="10.00">controller.GridInfo.getCellType</text>
</g>
<!-- Node2 -->
<g id="node2" class="node"><title>Node2</title>
<g id="a_node2"><a xlink:href="../../db/d32/classcontroller_1_1_main_controller.html#aecc10abc6b55d8b0b4bd152be5c5d3f0" target="_top" xlink:title="controller.MainController.initialize\lSimulationObjects">
<polygon fill="white" stroke="black" points="388.5,-82 388.5,-112 561.5,-112 561.5,-82 388.5,-82"/>
<text text-anchor="start" x="396.5" y="-100" font-family="Helvetica,sans-Serif" font-size="10.00">controller.MainController.initialize</text>
<text text-anchor="middle" x="475" y="-89" font-family="Helvetica,sans-Serif" font-size="10.00">SimulationObjects</text>
</a>
</g>
</g>
<!-- Node1&#45;&gt;Node2 -->
<g id="edge1" class="edge"><title>Node1&#45;&gt;Node2</title>
<path fill="none" stroke="midnightblue" d="M140.572,-70.2214C157.789,-73.1045 176.591,-75.9635 194,-78 258.967,-85.5999 332.798,-90.454 388.329,-93.3521"/>
<polygon fill="midnightblue" stroke="midnightblue" points="141.086,-66.7587 130.64,-68.5272 139.909,-73.659 141.086,-66.7587"/>
</g>
<!-- Node7 -->
<g id="node7" class="node"><title>Node7</title>
<g id="a_node7"><a xlink:href="../../d3/d6a/classcontroller_1_1_parser.html#a3c0867c9e5b4f1dcfecb43f2730072ca" target="_top" xlink:title="controller.Parser.inputValidion">
<polygon fill="white" stroke="black" points="194.5,-49.5 194.5,-68.5 351.5,-68.5 351.5,-49.5 194.5,-49.5"/>
<text text-anchor="middle" x="273" y="-56.5" font-family="Helvetica,sans-Serif" font-size="10.00">controller.Parser.inputValidion</text>
</a>
</g>
</g>
<!-- Node1&#45;&gt;Node7 -->
<g id="edge7" class="edge"><title>Node1&#45;&gt;Node7</title>
<path fill="none" stroke="midnightblue" d="M168.241,-59C176.934,-59 185.711,-59 194.287,-59"/>
<polygon fill="midnightblue" stroke="midnightblue" points="168.094,-55.5001 158.094,-59 168.094,-62.5001 168.094,-55.5001"/>
</g>
<!-- Node9 -->
<g id="node9" class="node"><title>Node9</title>
<g id="a_node9"><a xlink:href="../../d3/d6a/classcontroller_1_1_parser.html#ab2d2918d4e1dc3f52a137910d14c633d" target="_top" xlink:title="controller.Parser.setCell\lStates">
<polygon fill="white" stroke="black" points="209,-0 209,-30 337,-30 337,-0 209,-0"/>
<text text-anchor="start" x="217" y="-18" font-family="Helvetica,sans-Serif" font-size="10.00">controller.Parser.setCell</text>
<text text-anchor="middle" x="273" y="-7" font-family="Helvetica,sans-Serif" font-size="10.00">States</text>
</a>
</g>
</g>
<!-- Node1&#45;&gt;Node9 -->
<g id="edge10" class="edge"><title>Node1&#45;&gt;Node9</title>
<path fill="none" stroke="midnightblue" d="M131.548,-47.1868C155.341,-41.7343 183.81,-35.2103 208.876,-29.4658"/>
<polygon fill="midnightblue" stroke="midnightblue" points="130.627,-43.8073 121.661,-49.4527 132.19,-50.6304 130.627,-43.8073"/>
</g>
<!-- Node3 -->
<g id="node3" class="node"><title>Node3</title>
<g id="a_node3"><a xlink:href="../../db/d32/classcontroller_1_1_main_controller.html#a7cfedb8e16c6b9d6394054d03193da82" target="_top" xlink:title="controller.MainController.initialize\lSimulationWithData">
<polygon fill="white" stroke="black" points="598.5,-60 598.5,-90 771.5,-90 771.5,-60 598.5,-60"/>
<text text-anchor="start" x="606.5" y="-78" font-family="Helvetica,sans-Serif" font-size="10.00">controller.MainController.initialize</text>
<text text-anchor="middle" x="685" y="-67" font-family="Helvetica,sans-Serif" font-size="10.00">SimulationWithData</text>
</a>
</g>
</g>
<!-- Node2&#45;&gt;Node3 -->
<g id="edge2" class="edge"><title>Node2&#45;&gt;Node3</title>
<path fill="none" stroke="midnightblue" d="M571.585,-86.89C580.561,-85.9407 589.62,-84.9825 598.494,-84.0439"/>
<polygon fill="midnightblue" stroke="midnightblue" points="571.078,-83.424 561.502,-87.9565 571.815,-90.3852 571.078,-83.424"/>
</g>
<!-- Node4 -->
<g id="node4" class="node"><title>Node4</title>
<g id="a_node4"><a xlink:href="../../db/ddb/classcontroller_1_1_user_interface.html#a9cf1e21253003993661082c9d42926b2" target="_top" xlink:title="controller.UserInterface.make\lBottomPanel">
<polygon fill="white" stroke="black" points="808,-82 808,-112 966,-112 966,-82 808,-82"/>
<text text-anchor="start" x="816" y="-100" font-family="Helvetica,sans-Serif" font-size="10.00">controller.UserInterface.make</text>
<text text-anchor="middle" x="887" y="-89" font-family="Helvetica,sans-Serif" font-size="10.00">BottomPanel</text>
</a>
</g>
</g>
<!-- Node3&#45;&gt;Node4 -->
<g id="edge3" class="edge"><title>Node3&#45;&gt;Node4</title>
<path fill="none" stroke="midnightblue" d="M781.848,-85.5432C790.532,-86.4985 799.257,-87.4583 807.762,-88.3939"/>
<polygon fill="midnightblue" stroke="midnightblue" points="782.011,-82.0402 771.688,-84.4257 781.246,-88.9982 782.011,-82.0402"/>
</g>
<!-- Node5 -->
<g id="node5" class="node"><title>Node5</title>
<g id="a_node5"><a xlink:href="../../db/ddb/classcontroller_1_1_user_interface.html#a6dd740b89d748c372a5ef9959e1bd7c4" target="_top" xlink:title="controller.UserInterface.\lUserInterface">
<polygon fill="white" stroke="black" points="1014.5,-82 1014.5,-112 1145.5,-112 1145.5,-82 1014.5,-82"/>
<text text-anchor="start" x="1022.5" y="-100" font-family="Helvetica,sans-Serif" font-size="10.00">controller.UserInterface.</text>
<text text-anchor="middle" x="1080" y="-89" font-family="Helvetica,sans-Serif" font-size="10.00">UserInterface</text>
</a>
</g>
</g>
<!-- Node4&#45;&gt;Node5 -->
<g id="edge4" class="edge"><title>Node4&#45;&gt;Node5</title>
<path fill="none" stroke="midnightblue" d="M976.415,-97C989.171,-97 1002.1,-97 1014.27,-97"/>
<polygon fill="midnightblue" stroke="midnightblue" points="976.238,-93.5001 966.238,-97 976.238,-100.5 976.238,-93.5001"/>
</g>
<!-- Node6 -->
<g id="node6" class="node"><title>Node6</title>
<g id="a_node6"><a xlink:href="../../db/ddb/classcontroller_1_1_user_interface.html#aad62b84bbc23f683c844ace519feb9d2" target="_top" xlink:title="controller.UserInterface.reset">
<polygon fill="white" stroke="black" points="1002,-43.5 1002,-62.5 1158,-62.5 1158,-43.5 1002,-43.5"/>
<text text-anchor="middle" x="1080" y="-50.5" font-family="Helvetica,sans-Serif" font-size="10.00">controller.UserInterface.reset</text>
</a>
</g>
</g>
<!-- Node4&#45;&gt;Node6 -->
<g id="edge5" class="edge"><title>Node4&#45;&gt;Node6</title>
<path fill="none" stroke="midnightblue" d="M963.179,-79.6813C988.556,-73.8352 1015.94,-67.5268 1037.71,-62.5124"/>
<polygon fill="midnightblue" stroke="midnightblue" points="962.156,-76.3251 953.197,-81.9808 963.728,-83.1465 962.156,-76.3251"/>
</g>
<!-- Node6&#45;&gt;Node3 -->
<g id="edge6" class="edge"><title>Node6&#45;&gt;Node3</title>
<path fill="none" stroke="midnightblue" d="M991.444,-57.9014C925.942,-61.5682 836.825,-66.5569 771.76,-70.1992"/>
<polygon fill="midnightblue" stroke="midnightblue" points="991.958,-61.3782 1001.75,-57.3246 991.566,-54.3891 991.958,-61.3782"/>
</g>
<!-- Node8 -->
<g id="node8" class="node"><title>Node8</title>
<g id="a_node8"><a xlink:href="../../d3/d6a/classcontroller_1_1_parser.html#a02bf0729411c23f212468f2d50d4e5ed" target="_top" xlink:title="controller.Parser.parserXml">
<polygon fill="white" stroke="black" points="402.5,-43.5 402.5,-62.5 547.5,-62.5 547.5,-43.5 402.5,-43.5"/>
<text text-anchor="middle" x="475" y="-50.5" font-family="Helvetica,sans-Serif" font-size="10.00">controller.Parser.parserXml</text>
</a>
</g>
</g>
<!-- Node7&#45;&gt;Node8 -->
<g id="edge8" class="edge"><title>Node7&#45;&gt;Node8</title>
<path fill="none" stroke="midnightblue" d="M361.874,-56.3638C375.392,-55.9582 389.21,-55.5437 402.321,-55.1504"/>
<polygon fill="midnightblue" stroke="midnightblue" points="361.502,-52.8733 351.611,-56.6717 361.712,-59.8701 361.502,-52.8733"/>
</g>
<!-- Node8&#45;&gt;Node3 -->
<g id="edge9" class="edge"><title>Node8&#45;&gt;Node3</title>
<path fill="none" stroke="midnightblue" d="M557.667,-61.6378C571.006,-63.0487 584.86,-64.5141 598.294,-65.9349"/>
<polygon fill="midnightblue" stroke="midnightblue" points="557.895,-58.1425 547.582,-60.5712 557.158,-65.1037 557.895,-58.1425"/>
</g>
<!-- Node9&#45;&gt;Node8 -->
<g id="edge11" class="edge"><title>Node9&#45;&gt;Node8</title>
<path fill="none" stroke="midnightblue" d="M347.038,-28.8772C372.608,-33.7355 400.72,-39.0768 423.978,-43.4957"/>
<polygon fill="midnightblue" stroke="midnightblue" points="347.484,-25.3995 337.007,-26.9713 346.178,-32.2765 347.484,-25.3995"/>
</g>
</g>
</svg>
