<?xml version="1.0" encoding="UTF-8" standalone="no"?>
<!DOCTYPE svg PUBLIC "-//W3C//DTD SVG 1.1//EN"
 "http://www.w3.org/Graphics/SVG/1.1/DTD/svg11.dtd">
<!-- Generated by graphviz version 2.36.0 (20140111.2315)
 -->
<!-- Title: controller.GridInfo.setWidth Pages: 1 -->
<svg width="1158pt" height="87pt"
 viewBox="0.00 0.00 1158.00 87.00" xmlns="http://www.w3.org/2000/svg" xmlns:xlink="http://www.w3.org/1999/xlink">
<g id="graph0" class="graph" transform="scale(1 1) rotate(0) translate(4 83)">
<title>controller.GridInfo.setWidth</title>
<polygon fill="white" stroke="none" points="-4,4 -4,-83 1154,-83 1154,4 -4,4"/>
<!-- Node1 -->
<g id="node1" class="node"><title>Node1</title>
<polygon fill="#bfbfbf" stroke="black" points="0.5,-29.5 0.5,-48.5 145.5,-48.5 145.5,-29.5 0.5,-29.5"/>
<text text-anchor="middle" x="73" y="-36.5" font-family="Helvetica,sans-Serif" font-size="10.00">controller.GridInfo.setWidth</text>
</g>
<!-- Node2 -->
<g id="node2" class="node"><title>Node2</title>
<g id="a_node2"><a xlink:href="../../d3/d6a/classcontroller_1_1_parser.html#a3cb22c70450e8c7a3adfbeb33cf21309" target="_top" xlink:title="controller.Parser.attribute\lParse">
<polygon fill="white" stroke="black" points="194.5,-49 194.5,-79 331.5,-79 331.5,-49 194.5,-49"/>
<text text-anchor="start" x="202.5" y="-67" font-family="Helvetica,sans-Serif" font-size="10.00">controller.Parser.attribute</text>
<text text-anchor="middle" x="263" y="-56" font-family="Helvetica,sans-Serif" font-size="10.00">Parse</text>
</a>
</g>
</g>
<!-- Node1&#45;&gt;Node2 -->
<g id="edge1" class="edge"><title>Node1&#45;&gt;Node2</title>
<path fill="none" stroke="midnightblue" d="M155.827,-49.8813C168.671,-51.5893 181.824,-53.3383 194.304,-54.9979"/>
<polygon fill="midnightblue" stroke="midnightblue" points="155.985,-46.3716 145.611,-48.5227 155.062,-53.3105 155.985,-46.3716"/>
</g>
<!-- Node8 -->
<g id="node8" class="node"><title>Node8</title>
<g id="a_node8"><a xlink:href="../../db/d32/classcontroller_1_1_main_controller.html#a2163bf863ed2b2ce85a7adfec03f44c4" target="_top" xlink:title="controller.MainController.setup\lGridConstraints">
<polygon fill="white" stroke="black" points="182,-0 182,-30 344,-30 344,-0 182,-0"/>
<text text-anchor="start" x="190" y="-18" font-family="Helvetica,sans-Serif" font-size="10.00">controller.MainController.setup</text>
<text text-anchor="middle" x="263" y="-7" font-family="Helvetica,sans-Serif" font-size="10.00">GridConstraints</text>
</a>
</g>
</g>
<!-- Node1&#45;&gt;Node8 -->
<g id="edge8" class="edge"><title>Node1&#45;&gt;Node8</title>
<path fill="none" stroke="midnightblue" d="M155.693,-28.5711C164.353,-27.4656 173.154,-26.3421 181.796,-25.2388"/>
<polygon fill="midnightblue" stroke="midnightblue" points="155.087,-25.1199 145.611,-29.8582 155.974,-32.0636 155.087,-25.1199"/>
</g>
<!-- Node3 -->
<g id="node3" class="node"><title>Node3</title>
<g id="a_node3"><a xlink:href="../../d3/d6a/classcontroller_1_1_parser.html#a02bf0729411c23f212468f2d50d4e5ed" target="_top" xlink:title="controller.Parser.parserXml">
<polygon fill="white" stroke="black" points="394.5,-52.5 394.5,-71.5 539.5,-71.5 539.5,-52.5 394.5,-52.5"/>
<text text-anchor="middle" x="467" y="-59.5" font-family="Helvetica,sans-Serif" font-size="10.00">controller.Parser.parserXml</text>
</a>
</g>
</g>
<!-- Node2&#45;&gt;Node3 -->
<g id="edge2" class="edge"><title>Node2&#45;&gt;Node3</title>
<path fill="none" stroke="midnightblue" d="M341.625,-63.2314C358.966,-63.0597 377.279,-62.8784 394.365,-62.7093"/>
<polygon fill="midnightblue" stroke="midnightblue" points="341.509,-59.7323 331.544,-63.3312 341.578,-66.732 341.509,-59.7323"/>
</g>
<!-- Node4 -->
<g id="node4" class="node"><title>Node4</title>
<g id="a_node4"><a xlink:href="../../db/d32/classcontroller_1_1_main_controller.html#a7cfedb8e16c6b9d6394054d03193da82" target="_top" xlink:title="controller.MainController.initialize\lSimulationWithData">
<polygon fill="white" stroke="black" points="590.5,-24 590.5,-54 763.5,-54 763.5,-24 590.5,-24"/>
<text text-anchor="start" x="598.5" y="-42" font-family="Helvetica,sans-Serif" font-size="10.00">controller.MainController.initialize</text>
<text text-anchor="middle" x="677" y="-31" font-family="Helvetica,sans-Serif" font-size="10.00">SimulationWithData</text>
</a>
</g>
</g>
<!-- Node3&#45;&gt;Node4 -->
<g id="edge3" class="edge"><title>Node3&#45;&gt;Node4</title>
<path fill="none" stroke="midnightblue" d="M549.667,-52.9695C563.006,-51.4945 576.86,-49.9626 590.294,-48.4771"/>
<polygon fill="midnightblue" stroke="midnightblue" points="549.137,-49.5067 539.582,-54.0847 549.906,-56.4643 549.137,-49.5067"/>
</g>
<!-- Node5 -->
<g id="node5" class="node"><title>Node5</title>
<g id="a_node5"><a xlink:href="../../db/ddb/classcontroller_1_1_user_interface.html#a9cf1e21253003993661082c9d42926b2" target="_top" xlink:title="controller.UserInterface.make\lBottomPanel">
<polygon fill="white" stroke="black" points="800,-46 800,-76 958,-76 958,-46 800,-46"/>
<text text-anchor="start" x="808" y="-64" font-family="Helvetica,sans-Serif" font-size="10.00">controller.UserInterface.make</text>
<text text-anchor="middle" x="879" y="-53" font-family="Helvetica,sans-Serif" font-size="10.00">BottomPanel</text>
</a>
</g>
</g>
<!-- Node4&#45;&gt;Node5 -->
<g id="edge4" class="edge"><title>Node4&#45;&gt;Node5</title>
<path fill="none" stroke="midnightblue" d="M773.848,-49.5432C782.532,-50.4985 791.257,-51.4583 799.762,-52.3939"/>
<polygon fill="midnightblue" stroke="midnightblue" points="774.011,-46.0402 763.688,-48.4257 773.246,-52.9982 774.011,-46.0402"/>
</g>
<!-- Node6 -->
<g id="node6" class="node"><title>Node6</title>
<g id="a_node6"><a xlink:href="../../db/ddb/classcontroller_1_1_user_interface.html#a6dd740b89d748c372a5ef9959e1bd7c4" target="_top" xlink:title="controller.UserInterface.\lUserInterface">
<polygon fill="white" stroke="black" points="1006.5,-46 1006.5,-76 1137.5,-76 1137.5,-46 1006.5,-46"/>
<text text-anchor="start" x="1014.5" y="-64" font-family="Helvetica,sans-Serif" font-size="10.00">controller.UserInterface.</text>
<text text-anchor="middle" x="1072" y="-53" font-family="Helvetica,sans-Serif" font-size="10.00">UserInterface</text>
</a>
</g>
</g>
<!-- Node5&#45;&gt;Node6 -->
<g id="edge5" class="edge"><title>Node5&#45;&gt;Node6</title>
<path fill="none" stroke="midnightblue" d="M968.415,-61C981.171,-61 994.097,-61 1006.27,-61"/>
<polygon fill="midnightblue" stroke="midnightblue" points="968.238,-57.5001 958.238,-61 968.238,-64.5001 968.238,-57.5001"/>
</g>
<!-- Node7 -->
<g id="node7" class="node"><title>Node7</title>
<g id="a_node7"><a xlink:href="../../db/ddb/classcontroller_1_1_user_interface.html#aad62b84bbc23f683c844ace519feb9d2" target="_top" xlink:title="controller.UserInterface.reset">
<polygon fill="white" stroke="black" points="994,-7.5 994,-26.5 1150,-26.5 1150,-7.5 994,-7.5"/>
<text text-anchor="middle" x="1072" y="-14.5" font-family="Helvetica,sans-Serif" font-size="10.00">controller.UserInterface.reset</text>
</a>
</g>
</g>
<!-- Node5&#45;&gt;Node7 -->
<g id="edge6" class="edge"><title>Node5&#45;&gt;Node7</title>
<path fill="none" stroke="midnightblue" d="M955.179,-43.6813C980.556,-37.8352 1007.94,-31.5268 1029.71,-26.5124"/>
<polygon fill="midnightblue" stroke="midnightblue" points="954.156,-40.3251 945.197,-45.9808 955.728,-47.1465 954.156,-40.3251"/>
</g>
<!-- Node7&#45;&gt;Node4 -->
<g id="edge7" class="edge"><title>Node7&#45;&gt;Node4</title>
<path fill="none" stroke="midnightblue" d="M983.444,-21.9014C917.942,-25.5682 828.825,-30.5569 763.76,-34.1992"/>
<polygon fill="midnightblue" stroke="midnightblue" points="983.958,-25.3782 993.747,-21.3246 983.566,-18.3891 983.958,-25.3782"/>
</g>
<!-- Node9 -->
<g id="node9" class="node"><title>Node9</title>
<g id="a_node9"><a xlink:href="../../db/d32/classcontroller_1_1_main_controller.html#aecc10abc6b55d8b0b4bd152be5c5d3f0" target="_top" xlink:title="controller.MainController.initialize\lSimulationObjects">
<polygon fill="white" stroke="black" points="380.5,-2 380.5,-32 553.5,-32 553.5,-2 380.5,-2"/>
<text text-anchor="start" x="388.5" y="-20" font-family="Helvetica,sans-Serif" font-size="10.00">controller.MainController.initialize</text>
<text text-anchor="middle" x="467" y="-9" font-family="Helvetica,sans-Serif" font-size="10.00">SimulationObjects</text>
</a>
</g>
</g>
<!-- Node8&#45;&gt;Node9 -->
<g id="edge9" class="edge"><title>Node8&#45;&gt;Node9</title>
<path fill="none" stroke="midnightblue" d="M354.244,-15.8935C362.918,-15.9794 371.699,-16.0663 380.327,-16.1518"/>
<polygon fill="midnightblue" stroke="midnightblue" points="354.16,-12.3926 344.126,-15.7933 354.091,-19.3923 354.16,-12.3926"/>
</g>
<!-- Node9&#45;&gt;Node4 -->
<g id="edge10" class="edge"><title>Node9&#45;&gt;Node4</title>
<path fill="none" stroke="midnightblue" d="M563.585,-27.11C572.561,-28.0593 581.62,-29.0175 590.494,-29.9561"/>
<polygon fill="midnightblue" stroke="midnightblue" points="563.815,-23.6148 553.502,-26.0435 563.078,-30.576 563.815,-23.6148"/>
</g>
</g>
</svg>
