<?xml version="1.0" encoding="UTF-8" standalone="no"?>
<!DOCTYPE svg PUBLIC "-//W3C//DTD SVG 1.1//EN"
 "http://www.w3.org/Graphics/SVG/1.1/DTD/svg11.dtd">
<!-- Generated by graphviz version 2.36.0 (20140111.2315)
 -->
<!-- Title: controller.GridInfo.setStateTypes Pages: 1 -->
<svg width="1096pt" height="77pt"
 viewBox="0.00 0.00 1096.00 77.00" xmlns="http://www.w3.org/2000/svg" xmlns:xlink="http://www.w3.org/1999/xlink">
<g id="graph0" class="graph" transform="scale(1 1) rotate(0) translate(4 73)">
<title>controller.GridInfo.setStateTypes</title>
<polygon fill="white" stroke="none" points="-4,4 -4,-73 1092,-73 1092,4 -4,4"/>
<!-- Node1 -->
<g id="node1" class="node"><title>Node1</title>
<polygon fill="#bfbfbf" stroke="black" points="0.5,-17 0.5,-47 145.5,-47 145.5,-17 0.5,-17"/>
<text text-anchor="start" x="8.5" y="-35" font-family="Helvetica,sans-Serif" font-size="10.00">controller.GridInfo.setState</text>
<text text-anchor="middle" x="73" y="-24" font-family="Helvetica,sans-Serif" font-size="10.00">Types</text>
</g>
<!-- Node2 -->
<g id="node2" class="node"><title>Node2</title>
<g id="a_node2"><a xlink:href="../../d3/d6a/classcontroller_1_1_parser.html#ab2d2918d4e1dc3f52a137910d14c633d" target="_top" xlink:title="controller.Parser.setCell\lStates">
<polygon fill="white" stroke="black" points="182,-17 182,-47 310,-47 310,-17 182,-17"/>
<text text-anchor="start" x="190" y="-35" font-family="Helvetica,sans-Serif" font-size="10.00">controller.Parser.setCell</text>
<text text-anchor="middle" x="246" y="-24" font-family="Helvetica,sans-Serif" font-size="10.00">States</text>
</a>
</g>
</g>
<!-- Node1&#45;&gt;Node2 -->
<g id="edge1" class="edge"><title>Node1&#45;&gt;Node2</title>
<path fill="none" stroke="midnightblue" d="M155.79,-32C164.571,-32 173.404,-32 181.918,-32"/>
<polygon fill="midnightblue" stroke="midnightblue" points="155.529,-28.5001 145.529,-32 155.529,-35.5001 155.529,-28.5001"/>
</g>
<!-- Node3 -->
<g id="node3" class="node"><title>Node3</title>
<g id="a_node3"><a xlink:href="../../d3/d6a/classcontroller_1_1_parser.html#a02bf0729411c23f212468f2d50d4e5ed" target="_top" xlink:title="controller.Parser.parserXml">
<polygon fill="white" stroke="black" points="346.5,-22.5 346.5,-41.5 491.5,-41.5 491.5,-22.5 346.5,-22.5"/>
<text text-anchor="middle" x="419" y="-29.5" font-family="Helvetica,sans-Serif" font-size="10.00">controller.Parser.parserXml</text>
</a>
</g>
</g>
<!-- Node2&#45;&gt;Node3 -->
<g id="edge2" class="edge"><title>Node2&#45;&gt;Node3</title>
<path fill="none" stroke="midnightblue" d="M320.265,-32C328.934,-32 337.775,-32 346.421,-32"/>
<polygon fill="midnightblue" stroke="midnightblue" points="320.188,-28.5001 310.188,-32 320.188,-35.5001 320.188,-28.5001"/>
</g>
<!-- Node4 -->
<g id="node4" class="node"><title>Node4</title>
<g id="a_node4"><a xlink:href="../../db/d32/classcontroller_1_1_main_controller.html#a7cfedb8e16c6b9d6394054d03193da82" target="_top" xlink:title="controller.MainController.initialize\lSimulationWithData">
<polygon fill="white" stroke="black" points="528.5,-17 528.5,-47 701.5,-47 701.5,-17 528.5,-17"/>
<text text-anchor="start" x="536.5" y="-35" font-family="Helvetica,sans-Serif" font-size="10.00">controller.MainController.initialize</text>
<text text-anchor="middle" x="615" y="-24" font-family="Helvetica,sans-Serif" font-size="10.00">SimulationWithData</text>
</a>
</g>
</g>
<!-- Node3&#45;&gt;Node4 -->
<g id="edge3" class="edge"><title>Node3&#45;&gt;Node4</title>
<path fill="none" stroke="midnightblue" d="M501.91,-32C510.699,-32 519.658,-32 528.489,-32"/>
<polygon fill="midnightblue" stroke="midnightblue" points="501.687,-28.5001 491.687,-32 501.687,-35.5001 501.687,-28.5001"/>
</g>
<!-- Node5 -->
<g id="node5" class="node"><title>Node5</title>
<g id="a_node5"><a xlink:href="../../db/ddb/classcontroller_1_1_user_interface.html#a9cf1e21253003993661082c9d42926b2" target="_top" xlink:title="controller.UserInterface.make\lBottomPanel">
<polygon fill="white" stroke="black" points="738,-39 738,-69 896,-69 896,-39 738,-39"/>
<text text-anchor="start" x="746" y="-57" font-family="Helvetica,sans-Serif" font-size="10.00">controller.UserInterface.make</text>
<text text-anchor="middle" x="817" y="-46" font-family="Helvetica,sans-Serif" font-size="10.00">BottomPanel</text>
</a>
</g>
</g>
<!-- Node4&#45;&gt;Node5 -->
<g id="edge4" class="edge"><title>Node4&#45;&gt;Node5</title>
<path fill="none" stroke="midnightblue" d="M711.848,-42.5432C720.532,-43.4985 729.257,-44.4583 737.762,-45.3939"/>
<polygon fill="midnightblue" stroke="midnightblue" points="712.011,-39.0402 701.688,-41.4257 711.246,-45.9982 712.011,-39.0402"/>
</g>
<!-- Node6 -->
<g id="node6" class="node"><title>Node6</title>
<g id="a_node6"><a xlink:href="../../db/ddb/classcontroller_1_1_user_interface.html#a6dd740b89d748c372a5ef9959e1bd7c4" target="_top" xlink:title="controller.UserInterface.\lUserInterface">
<polygon fill="white" stroke="black" points="944.5,-39 944.5,-69 1075.5,-69 1075.5,-39 944.5,-39"/>
<text text-anchor="start" x="952.5" y="-57" font-family="Helvetica,sans-Serif" font-size="10.00">controller.UserInterface.</text>
<text text-anchor="middle" x="1010" y="-46" font-family="Helvetica,sans-Serif" font-size="10.00">UserInterface</text>
</a>
</g>
</g>
<!-- Node5&#45;&gt;Node6 -->
<g id="edge5" class="edge"><title>Node5&#45;&gt;Node6</title>
<path fill="none" stroke="midnightblue" d="M906.415,-54C919.171,-54 932.097,-54 944.275,-54"/>
<polygon fill="midnightblue" stroke="midnightblue" points="906.238,-50.5001 896.238,-54 906.238,-57.5001 906.238,-50.5001"/>
</g>
<!-- Node7 -->
<g id="node7" class="node"><title>Node7</title>
<g id="a_node7"><a xlink:href="../../db/ddb/classcontroller_1_1_user_interface.html#aad62b84bbc23f683c844ace519feb9d2" target="_top" xlink:title="controller.UserInterface.reset">
<polygon fill="white" stroke="black" points="932,-0.5 932,-19.5 1088,-19.5 1088,-0.5 932,-0.5"/>
<text text-anchor="middle" x="1010" y="-7.5" font-family="Helvetica,sans-Serif" font-size="10.00">controller.UserInterface.reset</text>
</a>
</g>
</g>
<!-- Node5&#45;&gt;Node7 -->
<g id="edge6" class="edge"><title>Node5&#45;&gt;Node7</title>
<path fill="none" stroke="midnightblue" d="M893.179,-36.6813C918.556,-30.8352 945.941,-24.5268 967.707,-19.5124"/>
<polygon fill="midnightblue" stroke="midnightblue" points="892.156,-33.3251 883.197,-38.9808 893.728,-40.1465 892.156,-33.3251"/>
</g>
<!-- Node7&#45;&gt;Node4 -->
<g id="edge7" class="edge"><title>Node7&#45;&gt;Node4</title>
<path fill="none" stroke="midnightblue" d="M921.444,-14.9014C855.942,-18.5682 766.825,-23.5569 701.76,-27.1992"/>
<polygon fill="midnightblue" stroke="midnightblue" points="921.958,-18.3782 931.747,-14.3246 921.566,-11.3891 921.958,-18.3782"/>
</g>
</g>
</svg>
