<?xml version="1.0" encoding="UTF-8" standalone="no"?>
<!DOCTYPE svg PUBLIC "-//W3C//DTD SVG 1.1//EN"
 "http://www.w3.org/Graphics/SVG/1.1/DTD/svg11.dtd">
<!-- Generated by graphviz version 2.36.0 (20140111.2315)
 -->
<!-- Title: controller.GridInfo.getStateTypes Pages: 1 -->
<svg width="1108pt" height="101pt"
 viewBox="0.00 0.00 1108.00 101.00" xmlns="http://www.w3.org/2000/svg" xmlns:xlink="http://www.w3.org/1999/xlink">
<g id="graph0" class="graph" transform="scale(1 1) rotate(0) translate(4 97)">
<title>controller.GridInfo.getStateTypes</title>
<polygon fill="white" stroke="none" points="-4,4 -4,-97 1104,-97 1104,4 -4,4"/>
<!-- Node1 -->
<g id="node1" class="node"><title>Node1</title>
<polygon fill="#bfbfbf" stroke="black" points="0,-19 0,-49 146,-49 146,-19 0,-19"/>
<text text-anchor="start" x="8" y="-37" font-family="Helvetica,sans-Serif" font-size="10.00">controller.GridInfo.getState</text>
<text text-anchor="middle" x="73" y="-26" font-family="Helvetica,sans-Serif" font-size="10.00">Types</text>
</g>
<!-- Node2 -->
<g id="node2" class="node"><title>Node2</title>
<g id="a_node2"><a xlink:href="../../db/db2/classcontroller_1_1_color_picker.html#afb051d96595ff37672f48e50dc036c82" target="_top" xlink:title="controller.ColorPicker.build\lColorPickerMenu">
<polygon fill="white" stroke="black" points="182,-41 182,-71 324,-71 324,-41 182,-41"/>
<text text-anchor="start" x="190" y="-59" font-family="Helvetica,sans-Serif" font-size="10.00">controller.ColorPicker.build</text>
<text text-anchor="middle" x="253" y="-48" font-family="Helvetica,sans-Serif" font-size="10.00">ColorPickerMenu</text>
</a>
</g>
</g>
<!-- Node1&#45;&gt;Node2 -->
<g id="edge1" class="edge"><title>Node1&#45;&gt;Node2</title>
<path fill="none" stroke="midnightblue" d="M156.14,-44.1522C164.706,-45.2109 173.358,-46.2802 181.774,-47.3204"/>
<polygon fill="midnightblue" stroke="midnightblue" points="156.497,-40.6697 146.143,-42.9165 155.638,-47.6168 156.497,-40.6697"/>
</g>
<!-- Node3 -->
<g id="node3" class="node"><title>Node3</title>
<g id="a_node3"><a xlink:href="../../db/db2/classcontroller_1_1_color_picker.html#a965e34ea24c65524bc0e564d055a8e4e" target="_top" xlink:title="controller.ColorPicker.show\lColorPicker">
<polygon fill="white" stroke="black" points="360.5,-19 360.5,-49 503.5,-49 503.5,-19 360.5,-19"/>
<text text-anchor="start" x="368.5" y="-37" font-family="Helvetica,sans-Serif" font-size="10.00">controller.ColorPicker.show</text>
<text text-anchor="middle" x="432" y="-26" font-family="Helvetica,sans-Serif" font-size="10.00">ColorPicker</text>
</a>
</g>
</g>
<!-- Node1&#45;&gt;Node3 -->
<g id="edge8" class="edge"><title>Node1&#45;&gt;Node3</title>
<path fill="none" stroke="midnightblue" d="M156.22,-32.319C164.924,-32.1884 173.643,-32.0774 182,-32 245.108,-31.4157 260.892,-31.4103 324,-32 335.798,-32.1102 348.326,-32.2889 360.496,-32.4951"/>
<polygon fill="midnightblue" stroke="midnightblue" points="155.977,-28.8224 146.034,-32.4806 156.088,-35.8215 155.977,-28.8224"/>
</g>
<!-- Node2&#45;&gt;Node3 -->
<g id="edge2" class="edge"><title>Node2&#45;&gt;Node3</title>
<path fill="none" stroke="midnightblue" d="M334.315,-46.0174C342.982,-44.9401 351.754,-43.8497 360.296,-42.788"/>
<polygon fill="midnightblue" stroke="midnightblue" points="333.701,-42.5666 324.209,-47.2734 334.565,-49.5132 333.701,-42.5666"/>
</g>
<!-- Node4 -->
<g id="node4" class="node"><title>Node4</title>
<g id="a_node4"><a xlink:href="../../db/ddb/classcontroller_1_1_user_interface.html#a9cf1e21253003993661082c9d42926b2" target="_top" xlink:title="controller.UserInterface.make\lBottomPanel">
<polygon fill="white" stroke="black" points="540,-19 540,-49 698,-49 698,-19 540,-19"/>
<text text-anchor="start" x="548" y="-37" font-family="Helvetica,sans-Serif" font-size="10.00">controller.UserInterface.make</text>
<text text-anchor="middle" x="619" y="-26" font-family="Helvetica,sans-Serif" font-size="10.00">BottomPanel</text>
</a>
</g>
</g>
<!-- Node3&#45;&gt;Node4 -->
<g id="edge3" class="edge"><title>Node3&#45;&gt;Node4</title>
<path fill="none" stroke="midnightblue" d="M513.817,-34C522.478,-34 531.278,-34 539.906,-34"/>
<polygon fill="midnightblue" stroke="midnightblue" points="513.732,-30.5001 503.732,-34 513.732,-37.5001 513.732,-30.5001"/>
</g>
<!-- Node5 -->
<g id="node5" class="node"><title>Node5</title>
<g id="a_node5"><a xlink:href="../../db/ddb/classcontroller_1_1_user_interface.html#a6dd740b89d748c372a5ef9959e1bd7c4" target="_top" xlink:title="controller.UserInterface.\lUserInterface">
<polygon fill="white" stroke="black" points="746.5,-63 746.5,-93 877.5,-93 877.5,-63 746.5,-63"/>
<text text-anchor="start" x="754.5" y="-81" font-family="Helvetica,sans-Serif" font-size="10.00">controller.UserInterface.</text>
<text text-anchor="middle" x="812" y="-70" font-family="Helvetica,sans-Serif" font-size="10.00">UserInterface</text>
</a>
</g>
</g>
<!-- Node4&#45;&gt;Node5 -->
<g id="edge4" class="edge"><title>Node4&#45;&gt;Node5</title>
<path fill="none" stroke="midnightblue" d="M695.07,-51.2936C712.044,-55.204 729.922,-59.3224 746.42,-63.123"/>
<polygon fill="midnightblue" stroke="midnightblue" points="695.728,-47.8535 685.197,-49.0192 694.156,-54.6749 695.728,-47.8535"/>
</g>
<!-- Node6 -->
<g id="node6" class="node"><title>Node6</title>
<g id="a_node6"><a xlink:href="../../db/ddb/classcontroller_1_1_user_interface.html#aad62b84bbc23f683c844ace519feb9d2" target="_top" xlink:title="controller.UserInterface.reset">
<polygon fill="white" stroke="black" points="734,-24.5 734,-43.5 890,-43.5 890,-24.5 734,-24.5"/>
<text text-anchor="middle" x="812" y="-31.5" font-family="Helvetica,sans-Serif" font-size="10.00">controller.UserInterface.reset</text>
</a>
</g>
</g>
<!-- Node4&#45;&gt;Node6 -->
<g id="edge5" class="edge"><title>Node4&#45;&gt;Node6</title>
<path fill="none" stroke="midnightblue" d="M708.495,-34C716.949,-34 725.476,-34 733.81,-34"/>
<polygon fill="midnightblue" stroke="midnightblue" points="708.238,-30.5001 698.238,-34 708.238,-37.5001 708.238,-30.5001"/>
</g>
<!-- Node7 -->
<g id="node7" class="node"><title>Node7</title>
<g id="a_node7"><a xlink:href="../../db/d32/classcontroller_1_1_main_controller.html#a7cfedb8e16c6b9d6394054d03193da82" target="_top" xlink:title="controller.MainController.initialize\lSimulationWithData">
<polygon fill="white" stroke="black" points="926.5,-0 926.5,-30 1099.5,-30 1099.5,-0 926.5,-0"/>
<text text-anchor="start" x="934.5" y="-18" font-family="Helvetica,sans-Serif" font-size="10.00">controller.MainController.initialize</text>
<text text-anchor="middle" x="1013" y="-7" font-family="Helvetica,sans-Serif" font-size="10.00">SimulationWithData</text>
</a>
</g>
</g>
<!-- Node6&#45;&gt;Node7 -->
<g id="edge6" class="edge"><title>Node6&#45;&gt;Node7</title>
<path fill="none" stroke="midnightblue" d="M900.268,-25.6679C908.886,-24.845 917.629,-24.0103 926.232,-23.1889"/>
<polygon fill="midnightblue" stroke="midnightblue" points="899.845,-22.1922 890.223,-26.6269 900.511,-29.1605 899.845,-22.1922"/>
</g>
<!-- Node7&#45;&gt;Node4 -->
<g id="edge7" class="edge"><title>Node7&#45;&gt;Node4</title>
<path fill="none" stroke="midnightblue" d="M916.182,-11.1096C862.52,-9.90625 794.438,-9.99801 734,-15 722.402,-15.9599 710.208,-17.4601 698.283,-19.2065"/>
<polygon fill="midnightblue" stroke="midnightblue" points="916.29,-14.6132 926.372,-11.3574 916.46,-7.61523 916.29,-14.6132"/>
</g>
</g>
</svg>
