<?xml version="1.0" encoding="UTF-8" standalone="no"?>
<!DOCTYPE svg PUBLIC "-//W3C//DTD SVG 1.1//EN"
 "http://www.w3.org/Graphics/SVG/1.1/DTD/svg11.dtd">
<!-- Generated by graphviz version 2.36.0 (20140111.2315)
 -->
<!-- Title: controller.GridEdgeRules Pages: 1 -->
<svg width="321pt" height="84pt"
 viewBox="0.00 0.00 321.00 84.00" xmlns="http://www.w3.org/2000/svg" xmlns:xlink="http://www.w3.org/1999/xlink">
<g id="graph0" class="graph" transform="scale(1 1) rotate(0) translate(4 80)">
<title>controller.GridEdgeRules</title>
<polygon fill="white" stroke="none" points="-4,4 -4,-80 317,-80 317,4 -4,4"/>
<!-- Node1 -->
<g id="node1" class="node"><title>Node1</title>
<polygon fill="#bfbfbf" stroke="black" points="90,-56.5 90,-75.5 222,-75.5 222,-56.5 90,-56.5"/>
<text text-anchor="middle" x="156" y="-63.5" font-family="Helvetica,sans-Serif" font-size="10.00">controller.GridEdgeRules</text>
</g>
<!-- Node2 -->
<g id="node2" class="node"><title>Node2</title>
<g id="a_node2"><a xlink:href="../../d4/d5d/classcontroller_1_1_default_edge_rules.html" target="_top" xlink:title="controller.DefaultEdgeRules">
<polygon fill="white" stroke="black" points="-0.5,-0.5 -0.5,-19.5 146.5,-19.5 146.5,-0.5 -0.5,-0.5"/>
<text text-anchor="middle" x="73" y="-7.5" font-family="Helvetica,sans-Serif" font-size="10.00">controller.DefaultEdgeRules</text>
</a>
</g>
</g>
<!-- Node1&#45;&gt;Node2 -->
<g id="edge1" class="edge"><title>Node1&#45;&gt;Node2</title>
<path fill="none" stroke="midnightblue" d="M133.901,-50.6221C118.738,-40.7574 99.1172,-27.9919 86.3023,-19.6545"/>
<polygon fill="midnightblue" stroke="midnightblue" points="132.374,-53.8042 142.665,-56.324 136.191,-47.9367 132.374,-53.8042"/>
</g>
<!-- Node3 -->
<g id="node3" class="node"><title>Node3</title>
<g id="a_node3"><a xlink:href="../../d2/d45/classcontroller_1_1_toroidal_edge_rules.html" target="_top" xlink:title="controller.ToroidalEdgeRules">
<polygon fill="white" stroke="black" points="164.5,-0.5 164.5,-19.5 313.5,-19.5 313.5,-0.5 164.5,-0.5"/>
<text text-anchor="middle" x="239" y="-7.5" font-family="Helvetica,sans-Serif" font-size="10.00">controller.ToroidalEdgeRules</text>
</a>
</g>
</g>
<!-- Node1&#45;&gt;Node3 -->
<g id="edge2" class="edge"><title>Node1&#45;&gt;Node3</title>
<path fill="none" stroke="midnightblue" d="M178.099,-50.6221C193.262,-40.7574 212.883,-27.9919 225.698,-19.6545"/>
<polygon fill="midnightblue" stroke="midnightblue" points="175.809,-47.9367 169.335,-56.324 179.626,-53.8042 175.809,-47.9367"/>
</g>
</g>
</svg>
