<?xml version="1.0" encoding="UTF-8" standalone="no"?>
<!DOCTYPE svg PUBLIC "-//W3C//DTD SVG 1.1//EN"
 "http://www.w3.org/Graphics/SVG/1.1/DTD/svg11.dtd">
<!-- Generated by graphviz version 2.36.0 (20140111.2315)
 -->
<!-- Title: controller.UserInterface.createRadioButton Pages: 1 -->
<svg width="766pt" height="102pt"
 viewBox="0.00 0.00 766.00 102.00" xmlns="http://www.w3.org/2000/svg" xmlns:xlink="http://www.w3.org/1999/xlink">
<g id="graph0" class="graph" transform="scale(1 1) rotate(0) translate(4 98)">
<title>controller.UserInterface.createRadioButton</title>
<polygon fill="white" stroke="none" points="-4,4 -4,-98 762,-98 762,4 -4,4"/>
<!-- Node1 -->
<g id="node1" class="node"><title>Node1</title>
<polygon fill="#bfbfbf" stroke="black" points="0,-20 0,-50 162,-50 162,-20 0,-20"/>
<text text-anchor="start" x="8" y="-38" font-family="Helvetica,sans-Serif" font-size="10.00">controller.UserInterface.create</text>
<text text-anchor="middle" x="81" y="-27" font-family="Helvetica,sans-Serif" font-size="10.00">RadioButton</text>
</g>
<!-- Node2 -->
<g id="node2" class="node"><title>Node2</title>
<g id="a_node2"><a xlink:href="../../db/ddb/classcontroller_1_1_user_interface.html#a9cf1e21253003993661082c9d42926b2" target="_top" xlink:title="controller.UserInterface.make\lBottomPanel">
<polygon fill="white" stroke="black" points="198,-20 198,-50 356,-50 356,-20 198,-20"/>
<text text-anchor="start" x="206" y="-38" font-family="Helvetica,sans-Serif" font-size="10.00">controller.UserInterface.make</text>
<text text-anchor="middle" x="277" y="-27" font-family="Helvetica,sans-Serif" font-size="10.00">BottomPanel</text>
</a>
</g>
</g>
<!-- Node1&#45;&gt;Node2 -->
<g id="edge1" class="edge"><title>Node1&#45;&gt;Node2</title>
<path fill="none" stroke="midnightblue" d="M172.045,-35C180.62,-35 189.268,-35 197.72,-35"/>
<polygon fill="midnightblue" stroke="midnightblue" points="172.027,-31.5001 162.027,-35 172.027,-38.5001 172.027,-31.5001"/>
</g>
<!-- Node3 -->
<g id="node3" class="node"><title>Node3</title>
<g id="a_node3"><a xlink:href="../../db/ddb/classcontroller_1_1_user_interface.html#a6dd740b89d748c372a5ef9959e1bd7c4" target="_top" xlink:title="controller.UserInterface.\lUserInterface">
<polygon fill="white" stroke="black" points="404.5,-64 404.5,-94 535.5,-94 535.5,-64 404.5,-64"/>
<text text-anchor="start" x="412.5" y="-82" font-family="Helvetica,sans-Serif" font-size="10.00">controller.UserInterface.</text>
<text text-anchor="middle" x="470" y="-71" font-family="Helvetica,sans-Serif" font-size="10.00">UserInterface</text>
</a>
</g>
</g>
<!-- Node2&#45;&gt;Node3 -->
<g id="edge2" class="edge"><title>Node2&#45;&gt;Node3</title>
<path fill="none" stroke="midnightblue" d="M353.07,-52.2936C370.044,-56.204 387.922,-60.3224 404.42,-64.123"/>
<polygon fill="midnightblue" stroke="midnightblue" points="353.728,-48.8535 343.197,-50.0192 352.156,-55.6749 353.728,-48.8535"/>
</g>
<!-- Node4 -->
<g id="node4" class="node"><title>Node4</title>
<g id="a_node4"><a xlink:href="../../db/ddb/classcontroller_1_1_user_interface.html#aad62b84bbc23f683c844ace519feb9d2" target="_top" xlink:title="controller.UserInterface.reset">
<polygon fill="white" stroke="black" points="392,-25.5 392,-44.5 548,-44.5 548,-25.5 392,-25.5"/>
<text text-anchor="middle" x="470" y="-32.5" font-family="Helvetica,sans-Serif" font-size="10.00">controller.UserInterface.reset</text>
</a>
</g>
</g>
<!-- Node2&#45;&gt;Node4 -->
<g id="edge3" class="edge"><title>Node2&#45;&gt;Node4</title>
<path fill="none" stroke="midnightblue" d="M366.495,-35C374.949,-35 383.476,-35 391.81,-35"/>
<polygon fill="midnightblue" stroke="midnightblue" points="366.238,-31.5001 356.238,-35 366.238,-38.5001 366.238,-31.5001"/>
</g>
<!-- Node5 -->
<g id="node5" class="node"><title>Node5</title>
<g id="a_node5"><a xlink:href="../../db/d32/classcontroller_1_1_main_controller.html#a7cfedb8e16c6b9d6394054d03193da82" target="_top" xlink:title="controller.MainController.initialize\lSimulationWithData">
<polygon fill="white" stroke="black" points="584.5,-1 584.5,-31 757.5,-31 757.5,-1 584.5,-1"/>
<text text-anchor="start" x="592.5" y="-19" font-family="Helvetica,sans-Serif" font-size="10.00">controller.MainController.initialize</text>
<text text-anchor="middle" x="671" y="-8" font-family="Helvetica,sans-Serif" font-size="10.00">SimulationWithData</text>
</a>
</g>
</g>
<!-- Node4&#45;&gt;Node5 -->
<g id="edge4" class="edge"><title>Node4&#45;&gt;Node5</title>
<path fill="none" stroke="midnightblue" d="M558.268,-26.6679C566.886,-25.845 575.629,-25.0103 584.232,-24.1889"/>
<polygon fill="midnightblue" stroke="midnightblue" points="557.845,-23.1922 548.223,-27.6269 558.511,-30.1605 557.845,-23.1922"/>
</g>
<!-- Node5&#45;&gt;Node2 -->
<g id="edge5" class="edge"><title>Node5&#45;&gt;Node2</title>
<path fill="none" stroke="midnightblue" d="M574.182,-12.1096C520.52,-10.9063 452.438,-10.998 392,-16 380.402,-16.9599 368.208,-18.4601 356.283,-20.2065"/>
<polygon fill="midnightblue" stroke="midnightblue" points="574.29,-15.6132 584.372,-12.3574 574.46,-8.61523 574.29,-15.6132"/>
</g>
</g>
</svg>
