<?xml version="1.0" encoding="UTF-8" standalone="no"?>
<!DOCTYPE svg PUBLIC "-//W3C//DTD SVG 1.1//EN"
 "http://www.w3.org/Graphics/SVG/1.1/DTD/svg11.dtd">
<!-- Generated by graphviz version 2.36.0 (20140111.2315)
 -->
<!-- Title: controller.UserInterface.doubleFromResource Pages: 1 -->
<svg width="948pt" height="101pt"
 viewBox="0.00 0.00 948.00 101.00" xmlns="http://www.w3.org/2000/svg" xmlns:xlink="http://www.w3.org/1999/xlink">
<g id="graph0" class="graph" transform="scale(1 1) rotate(0) translate(4 97)">
<title>controller.UserInterface.doubleFromResource</title>
<polygon fill="white" stroke="none" points="-4,4 -4,-97 944,-97 944,4 -4,4"/>
<!-- Node1 -->
<g id="node1" class="node"><title>Node1</title>
<polygon fill="#bfbfbf" stroke="black" points="0,-19 0,-49 164,-49 164,-19 0,-19"/>
<text text-anchor="start" x="8" y="-37" font-family="Helvetica,sans-Serif" font-size="10.00">controller.UserInterface.double</text>
<text text-anchor="middle" x="82" y="-26" font-family="Helvetica,sans-Serif" font-size="10.00">FromResource</text>
</g>
<!-- Node2 -->
<g id="node2" class="node"><title>Node2</title>
<g id="a_node2"><a xlink:href="../../db/ddb/classcontroller_1_1_user_interface.html#a75345cfad18cab86c70efe21f0792c6a" target="_top" xlink:title="controller.UserInterface.int\lFromResource">
<polygon fill="white" stroke="black" points="200.5,-41 200.5,-71 343.5,-71 343.5,-41 200.5,-41"/>
<text text-anchor="start" x="208.5" y="-59" font-family="Helvetica,sans-Serif" font-size="10.00">controller.UserInterface.int</text>
<text text-anchor="middle" x="272" y="-48" font-family="Helvetica,sans-Serif" font-size="10.00">FromResource</text>
</a>
</g>
</g>
<!-- Node1&#45;&gt;Node2 -->
<g id="edge1" class="edge"><title>Node1&#45;&gt;Node2</title>
<path fill="none" stroke="midnightblue" d="M174.289,-44.6828C183.002,-45.7024 191.746,-46.7256 200.222,-47.7175"/>
<polygon fill="midnightblue" stroke="midnightblue" points="174.432,-41.1757 164.093,-43.4896 173.618,-48.1283 174.432,-41.1757"/>
</g>
<!-- Node3 -->
<g id="node3" class="node"><title>Node3</title>
<g id="a_node3"><a xlink:href="../../db/ddb/classcontroller_1_1_user_interface.html#a9cf1e21253003993661082c9d42926b2" target="_top" xlink:title="controller.UserInterface.make\lBottomPanel">
<polygon fill="white" stroke="black" points="380,-19 380,-49 538,-49 538,-19 380,-19"/>
<text text-anchor="start" x="388" y="-37" font-family="Helvetica,sans-Serif" font-size="10.00">controller.UserInterface.make</text>
<text text-anchor="middle" x="459" y="-26" font-family="Helvetica,sans-Serif" font-size="10.00">BottomPanel</text>
</a>
</g>
</g>
<!-- Node1&#45;&gt;Node3 -->
<g id="edge7" class="edge"><title>Node1&#45;&gt;Node3</title>
<path fill="none" stroke="midnightblue" d="M174.354,-32.2878C183.022,-32.1707 191.677,-32.0711 200,-32 263.998,-31.4531 280.002,-31.4387 344,-32 355.579,-32.1016 367.82,-32.2612 379.814,-32.4469"/>
<polygon fill="midnightblue" stroke="midnightblue" points="174.14,-28.7904 164.191,-32.4327 174.24,-35.7897 174.14,-28.7904"/>
</g>
<!-- Node2&#45;&gt;Node3 -->
<g id="edge2" class="edge"><title>Node2&#45;&gt;Node3</title>
<path fill="none" stroke="midnightblue" d="M353.817,-46.3893C362.478,-45.3594 371.278,-44.3129 379.906,-43.2869"/>
<polygon fill="midnightblue" stroke="midnightblue" points="353.249,-42.9321 343.732,-47.5886 354.076,-49.8831 353.249,-42.9321"/>
</g>
<!-- Node4 -->
<g id="node4" class="node"><title>Node4</title>
<g id="a_node4"><a xlink:href="../../db/ddb/classcontroller_1_1_user_interface.html#a6dd740b89d748c372a5ef9959e1bd7c4" target="_top" xlink:title="controller.UserInterface.\lUserInterface">
<polygon fill="white" stroke="black" points="586.5,-63 586.5,-93 717.5,-93 717.5,-63 586.5,-63"/>
<text text-anchor="start" x="594.5" y="-81" font-family="Helvetica,sans-Serif" font-size="10.00">controller.UserInterface.</text>
<text text-anchor="middle" x="652" y="-70" font-family="Helvetica,sans-Serif" font-size="10.00">UserInterface</text>
</a>
</g>
</g>
<!-- Node3&#45;&gt;Node4 -->
<g id="edge3" class="edge"><title>Node3&#45;&gt;Node4</title>
<path fill="none" stroke="midnightblue" d="M535.07,-51.2936C552.044,-55.204 569.922,-59.3224 586.42,-63.123"/>
<polygon fill="midnightblue" stroke="midnightblue" points="535.728,-47.8535 525.197,-49.0192 534.156,-54.6749 535.728,-47.8535"/>
</g>
<!-- Node5 -->
<g id="node5" class="node"><title>Node5</title>
<g id="a_node5"><a xlink:href="../../db/ddb/classcontroller_1_1_user_interface.html#aad62b84bbc23f683c844ace519feb9d2" target="_top" xlink:title="controller.UserInterface.reset">
<polygon fill="white" stroke="black" points="574,-24.5 574,-43.5 730,-43.5 730,-24.5 574,-24.5"/>
<text text-anchor="middle" x="652" y="-31.5" font-family="Helvetica,sans-Serif" font-size="10.00">controller.UserInterface.reset</text>
</a>
</g>
</g>
<!-- Node3&#45;&gt;Node5 -->
<g id="edge4" class="edge"><title>Node3&#45;&gt;Node5</title>
<path fill="none" stroke="midnightblue" d="M548.495,-34C556.949,-34 565.476,-34 573.81,-34"/>
<polygon fill="midnightblue" stroke="midnightblue" points="548.238,-30.5001 538.238,-34 548.238,-37.5001 548.238,-30.5001"/>
</g>
<!-- Node6 -->
<g id="node6" class="node"><title>Node6</title>
<g id="a_node6"><a xlink:href="../../db/d32/classcontroller_1_1_main_controller.html#a7cfedb8e16c6b9d6394054d03193da82" target="_top" xlink:title="controller.MainController.initialize\lSimulationWithData">
<polygon fill="white" stroke="black" points="766.5,-0 766.5,-30 939.5,-30 939.5,-0 766.5,-0"/>
<text text-anchor="start" x="774.5" y="-18" font-family="Helvetica,sans-Serif" font-size="10.00">controller.MainController.initialize</text>
<text text-anchor="middle" x="853" y="-7" font-family="Helvetica,sans-Serif" font-size="10.00">SimulationWithData</text>
</a>
</g>
</g>
<!-- Node5&#45;&gt;Node6 -->
<g id="edge5" class="edge"><title>Node5&#45;&gt;Node6</title>
<path fill="none" stroke="midnightblue" d="M740.268,-25.6679C748.886,-24.845 757.629,-24.0103 766.232,-23.1889"/>
<polygon fill="midnightblue" stroke="midnightblue" points="739.845,-22.1922 730.223,-26.6269 740.511,-29.1605 739.845,-22.1922"/>
</g>
<!-- Node6&#45;&gt;Node3 -->
<g id="edge6" class="edge"><title>Node6&#45;&gt;Node3</title>
<path fill="none" stroke="midnightblue" d="M756.182,-11.1096C702.52,-9.90625 634.438,-9.99801 574,-15 562.402,-15.9599 550.208,-17.4601 538.283,-19.2065"/>
<polygon fill="midnightblue" stroke="midnightblue" points="756.29,-14.6132 766.372,-11.3574 756.46,-7.61523 756.29,-14.6132"/>
</g>
</g>
</svg>
