<?xml version="1.0" encoding="UTF-8" standalone="no"?>
<!DOCTYPE svg PUBLIC "-//W3C//DTD SVG 1.1//EN"
 "http://www.w3.org/Graphics/SVG/1.1/DTD/svg11.dtd">
<!-- Generated by graphviz version 2.36.0 (20140111.2315)
 -->
<!-- Title: controller.UserInterface.addNode Pages: 1 -->
<svg width="1212pt" height="77pt"
 viewBox="0.00 0.00 1212.00 77.00" xmlns="http://www.w3.org/2000/svg" xmlns:xlink="http://www.w3.org/1999/xlink">
<g id="graph0" class="graph" transform="scale(1 1) rotate(0) translate(4 73)">
<title>controller.UserInterface.addNode</title>
<polygon fill="white" stroke="none" points="-4,4 -4,-73 1208,-73 1208,4 -4,4"/>
<!-- Node1 -->
<g id="node1" class="node"><title>Node1</title>
<polygon fill="#bfbfbf" stroke="black" points="0.5,-22.5 0.5,-41.5 175.5,-41.5 175.5,-22.5 0.5,-22.5"/>
<text text-anchor="middle" x="88" y="-29.5" font-family="Helvetica,sans-Serif" font-size="10.00">controller.UserInterface.addNode</text>
</g>
<!-- Node2 -->
<g id="node2" class="node"><title>Node2</title>
<g id="a_node2"><a xlink:href="../../db/d32/classcontroller_1_1_main_controller.html#ad28f21e1510291d95a69a9f488a20d89" target="_top" xlink:title="controller.MainController.createGrid">
<polygon fill="white" stroke="black" points="212.5,-22.5 212.5,-41.5 397.5,-41.5 397.5,-22.5 212.5,-22.5"/>
<text text-anchor="middle" x="305" y="-29.5" font-family="Helvetica,sans-Serif" font-size="10.00">controller.MainController.createGrid</text>
</a>
</g>
</g>
<!-- Node1&#45;&gt;Node2 -->
<g id="edge1" class="edge"><title>Node1&#45;&gt;Node2</title>
<path fill="none" stroke="midnightblue" d="M185.544,-32C194.473,-32 203.504,-32 212.387,-32"/>
<polygon fill="midnightblue" stroke="midnightblue" points="185.519,-28.5001 175.519,-32 185.519,-35.5001 185.519,-28.5001"/>
</g>
<!-- Node3 -->
<g id="node3" class="node"><title>Node3</title>
<g id="a_node3"><a xlink:href="../../db/d32/classcontroller_1_1_main_controller.html#aecc10abc6b55d8b0b4bd152be5c5d3f0" target="_top" xlink:title="controller.MainController.initialize\lSimulationObjects">
<polygon fill="white" stroke="black" points="434.5,-17 434.5,-47 607.5,-47 607.5,-17 434.5,-17"/>
<text text-anchor="start" x="442.5" y="-35" font-family="Helvetica,sans-Serif" font-size="10.00">controller.MainController.initialize</text>
<text text-anchor="middle" x="521" y="-24" font-family="Helvetica,sans-Serif" font-size="10.00">SimulationObjects</text>
</a>
</g>
</g>
<!-- Node2&#45;&gt;Node3 -->
<g id="edge2" class="edge"><title>Node2&#45;&gt;Node3</title>
<path fill="none" stroke="midnightblue" d="M407.691,-32C416.582,-32 425.522,-32 434.265,-32"/>
<polygon fill="midnightblue" stroke="midnightblue" points="407.687,-28.5001 397.687,-32 407.687,-35.5001 407.687,-28.5001"/>
</g>
<!-- Node4 -->
<g id="node4" class="node"><title>Node4</title>
<g id="a_node4"><a xlink:href="../../db/d32/classcontroller_1_1_main_controller.html#a7cfedb8e16c6b9d6394054d03193da82" target="_top" xlink:title="controller.MainController.initialize\lSimulationWithData">
<polygon fill="white" stroke="black" points="644.5,-17 644.5,-47 817.5,-47 817.5,-17 644.5,-17"/>
<text text-anchor="start" x="652.5" y="-35" font-family="Helvetica,sans-Serif" font-size="10.00">controller.MainController.initialize</text>
<text text-anchor="middle" x="731" y="-24" font-family="Helvetica,sans-Serif" font-size="10.00">SimulationWithData</text>
</a>
</g>
</g>
<!-- Node3&#45;&gt;Node4 -->
<g id="edge3" class="edge"><title>Node3&#45;&gt;Node4</title>
<path fill="none" stroke="midnightblue" d="M617.585,-32C626.561,-32 635.62,-32 644.494,-32"/>
<polygon fill="midnightblue" stroke="midnightblue" points="617.502,-28.5001 607.502,-32 617.502,-35.5001 617.502,-28.5001"/>
</g>
<!-- Node5 -->
<g id="node5" class="node"><title>Node5</title>
<g id="a_node5"><a xlink:href="../../db/ddb/classcontroller_1_1_user_interface.html#a9cf1e21253003993661082c9d42926b2" target="_top" xlink:title="controller.UserInterface.make\lBottomPanel">
<polygon fill="white" stroke="black" points="854,-39 854,-69 1012,-69 1012,-39 854,-39"/>
<text text-anchor="start" x="862" y="-57" font-family="Helvetica,sans-Serif" font-size="10.00">controller.UserInterface.make</text>
<text text-anchor="middle" x="933" y="-46" font-family="Helvetica,sans-Serif" font-size="10.00">BottomPanel</text>
</a>
</g>
</g>
<!-- Node4&#45;&gt;Node5 -->
<g id="edge4" class="edge"><title>Node4&#45;&gt;Node5</title>
<path fill="none" stroke="midnightblue" d="M827.848,-42.5432C836.532,-43.4985 845.257,-44.4583 853.762,-45.3939"/>
<polygon fill="midnightblue" stroke="midnightblue" points="828.011,-39.0402 817.688,-41.4257 827.246,-45.9982 828.011,-39.0402"/>
</g>
<!-- Node6 -->
<g id="node6" class="node"><title>Node6</title>
<g id="a_node6"><a xlink:href="../../db/ddb/classcontroller_1_1_user_interface.html#a6dd740b89d748c372a5ef9959e1bd7c4" target="_top" xlink:title="controller.UserInterface.\lUserInterface">
<polygon fill="white" stroke="black" points="1060.5,-39 1060.5,-69 1191.5,-69 1191.5,-39 1060.5,-39"/>
<text text-anchor="start" x="1068.5" y="-57" font-family="Helvetica,sans-Serif" font-size="10.00">controller.UserInterface.</text>
<text text-anchor="middle" x="1126" y="-46" font-family="Helvetica,sans-Serif" font-size="10.00">UserInterface</text>
</a>
</g>
</g>
<!-- Node5&#45;&gt;Node6 -->
<g id="edge5" class="edge"><title>Node5&#45;&gt;Node6</title>
<path fill="none" stroke="midnightblue" d="M1022.41,-54C1035.17,-54 1048.1,-54 1060.27,-54"/>
<polygon fill="midnightblue" stroke="midnightblue" points="1022.24,-50.5001 1012.24,-54 1022.24,-57.5001 1022.24,-50.5001"/>
</g>
<!-- Node7 -->
<g id="node7" class="node"><title>Node7</title>
<g id="a_node7"><a xlink:href="../../db/ddb/classcontroller_1_1_user_interface.html#aad62b84bbc23f683c844ace519feb9d2" target="_top" xlink:title="controller.UserInterface.reset">
<polygon fill="white" stroke="black" points="1048,-0.5 1048,-19.5 1204,-19.5 1204,-0.5 1048,-0.5"/>
<text text-anchor="middle" x="1126" y="-7.5" font-family="Helvetica,sans-Serif" font-size="10.00">controller.UserInterface.reset</text>
</a>
</g>
</g>
<!-- Node5&#45;&gt;Node7 -->
<g id="edge6" class="edge"><title>Node5&#45;&gt;Node7</title>
<path fill="none" stroke="midnightblue" d="M1009.18,-36.6813C1034.56,-30.8352 1061.94,-24.5268 1083.71,-19.5124"/>
<polygon fill="midnightblue" stroke="midnightblue" points="1008.16,-33.3251 999.197,-38.9808 1009.73,-40.1465 1008.16,-33.3251"/>
</g>
<!-- Node7&#45;&gt;Node4 -->
<g id="edge7" class="edge"><title>Node7&#45;&gt;Node4</title>
<path fill="none" stroke="midnightblue" d="M1037.44,-14.9014C971.942,-18.5682 882.825,-23.5569 817.76,-27.1992"/>
<polygon fill="midnightblue" stroke="midnightblue" points="1037.96,-18.3782 1047.75,-14.3246 1037.57,-11.3891 1037.96,-18.3782"/>
</g>
</g>
</svg>
