<?xml version="1.0" encoding="UTF-8" standalone="no"?>
<!DOCTYPE svg PUBLIC "-//W3C//DTD SVG 1.1//EN"
 "http://www.w3.org/Graphics/SVG/1.1/DTD/svg11.dtd">
<!-- Generated by graphviz version 2.36.0 (20140111.2315)
 -->
<!-- Title: controller.UserInterface.setChart Pages: 1 -->
<svg width="960pt" height="77pt"
 viewBox="0.00 0.00 960.00 77.00" xmlns="http://www.w3.org/2000/svg" xmlns:xlink="http://www.w3.org/1999/xlink">
<g id="graph0" class="graph" transform="scale(1 1) rotate(0) translate(4 73)">
<title>controller.UserInterface.setChart</title>
<polygon fill="white" stroke="none" points="-4,4 -4,-73 956,-73 956,4 -4,4"/>
<!-- Node1 -->
<g id="node1" class="node"><title>Node1</title>
<polygon fill="#bfbfbf" stroke="black" points="0,-22 0,-52 146,-52 146,-22 0,-22"/>
<text text-anchor="start" x="8" y="-40" font-family="Helvetica,sans-Serif" font-size="10.00">controller.UserInterface.set</text>
<text text-anchor="middle" x="73" y="-29" font-family="Helvetica,sans-Serif" font-size="10.00">Chart</text>
</g>
<!-- Node2 -->
<g id="node2" class="node"><title>Node2</title>
<g id="a_node2"><a xlink:href="../../db/d32/classcontroller_1_1_main_controller.html#aecc10abc6b55d8b0b4bd152be5c5d3f0" target="_top" xlink:title="controller.MainController.initialize\lSimulationObjects">
<polygon fill="white" stroke="black" points="182.5,-22 182.5,-52 355.5,-52 355.5,-22 182.5,-22"/>
<text text-anchor="start" x="190.5" y="-40" font-family="Helvetica,sans-Serif" font-size="10.00">controller.MainController.initialize</text>
<text text-anchor="middle" x="269" y="-29" font-family="Helvetica,sans-Serif" font-size="10.00">SimulationObjects</text>
</a>
</g>
</g>
<!-- Node1&#45;&gt;Node2 -->
<g id="edge1" class="edge"><title>Node1&#45;&gt;Node2</title>
<path fill="none" stroke="midnightblue" d="M156.252,-37C164.859,-37 173.625,-37 182.269,-37"/>
<polygon fill="midnightblue" stroke="midnightblue" points="156.238,-33.5001 146.238,-37 156.238,-40.5001 156.238,-33.5001"/>
</g>
<!-- Node3 -->
<g id="node3" class="node"><title>Node3</title>
<g id="a_node3"><a xlink:href="../../db/d32/classcontroller_1_1_main_controller.html#a7cfedb8e16c6b9d6394054d03193da82" target="_top" xlink:title="controller.MainController.initialize\lSimulationWithData">
<polygon fill="white" stroke="black" points="392.5,-22 392.5,-52 565.5,-52 565.5,-22 392.5,-22"/>
<text text-anchor="start" x="400.5" y="-40" font-family="Helvetica,sans-Serif" font-size="10.00">controller.MainController.initialize</text>
<text text-anchor="middle" x="479" y="-29" font-family="Helvetica,sans-Serif" font-size="10.00">SimulationWithData</text>
</a>
</g>
</g>
<!-- Node2&#45;&gt;Node3 -->
<g id="edge2" class="edge"><title>Node2&#45;&gt;Node3</title>
<path fill="none" stroke="midnightblue" d="M365.585,-37C374.561,-37 383.62,-37 392.494,-37"/>
<polygon fill="midnightblue" stroke="midnightblue" points="365.502,-33.5001 355.502,-37 365.502,-40.5001 365.502,-33.5001"/>
</g>
<!-- Node4 -->
<g id="node4" class="node"><title>Node4</title>
<g id="a_node4"><a xlink:href="../../db/ddb/classcontroller_1_1_user_interface.html#a9cf1e21253003993661082c9d42926b2" target="_top" xlink:title="controller.UserInterface.make\lBottomPanel">
<polygon fill="white" stroke="black" points="602,-0 602,-30 760,-30 760,-0 602,-0"/>
<text text-anchor="start" x="610" y="-18" font-family="Helvetica,sans-Serif" font-size="10.00">controller.UserInterface.make</text>
<text text-anchor="middle" x="681" y="-7" font-family="Helvetica,sans-Serif" font-size="10.00">BottomPanel</text>
</a>
</g>
</g>
<!-- Node3&#45;&gt;Node4 -->
<g id="edge3" class="edge"><title>Node3&#45;&gt;Node4</title>
<path fill="none" stroke="midnightblue" d="M575.848,-26.4568C584.532,-25.5015 593.257,-24.5417 601.762,-23.6061"/>
<polygon fill="midnightblue" stroke="midnightblue" points="575.246,-23.0018 565.688,-27.5743 576.011,-29.9598 575.246,-23.0018"/>
</g>
<!-- Node5 -->
<g id="node5" class="node"><title>Node5</title>
<g id="a_node5"><a xlink:href="../../db/ddb/classcontroller_1_1_user_interface.html#aad62b84bbc23f683c844ace519feb9d2" target="_top" xlink:title="controller.UserInterface.reset">
<polygon fill="white" stroke="black" points="796,-49.5 796,-68.5 952,-68.5 952,-49.5 796,-49.5"/>
<text text-anchor="middle" x="874" y="-56.5" font-family="Helvetica,sans-Serif" font-size="10.00">controller.UserInterface.reset</text>
</a>
</g>
</g>
<!-- Node4&#45;&gt;Node5 -->
<g id="edge4" class="edge"><title>Node4&#45;&gt;Node5</title>
<path fill="none" stroke="midnightblue" d="M757.179,-32.3187C782.556,-38.1648 809.941,-44.4732 831.707,-49.4876"/>
<polygon fill="midnightblue" stroke="midnightblue" points="757.728,-28.8535 747.197,-30.0192 756.156,-35.6749 757.728,-28.8535"/>
</g>
<!-- Node6 -->
<g id="node6" class="node"><title>Node6</title>
<g id="a_node6"><a xlink:href="../../db/ddb/classcontroller_1_1_user_interface.html#a6dd740b89d748c372a5ef9959e1bd7c4" target="_top" xlink:title="controller.UserInterface.\lUserInterface">
<polygon fill="white" stroke="black" points="808.5,-0 808.5,-30 939.5,-30 939.5,-0 808.5,-0"/>
<text text-anchor="start" x="816.5" y="-18" font-family="Helvetica,sans-Serif" font-size="10.00">controller.UserInterface.</text>
<text text-anchor="middle" x="874" y="-7" font-family="Helvetica,sans-Serif" font-size="10.00">UserInterface</text>
</a>
</g>
</g>
<!-- Node4&#45;&gt;Node6 -->
<g id="edge6" class="edge"><title>Node4&#45;&gt;Node6</title>
<path fill="none" stroke="midnightblue" d="M770.415,-15C783.171,-15 796.097,-15 808.275,-15"/>
<polygon fill="midnightblue" stroke="midnightblue" points="770.238,-11.5001 760.238,-15 770.238,-18.5001 770.238,-11.5001"/>
</g>
<!-- Node5&#45;&gt;Node3 -->
<g id="edge5" class="edge"><title>Node5&#45;&gt;Node3</title>
<path fill="none" stroke="midnightblue" d="M785.444,-54.0986C719.942,-50.4318 630.825,-45.4431 565.76,-41.8008"/>
<polygon fill="midnightblue" stroke="midnightblue" points="785.566,-57.6109 795.747,-54.6754 785.958,-50.6218 785.566,-57.6109"/>
</g>
</g>
</svg>
