<?xml version="1.0" encoding="UTF-8" standalone="no"?>
<!DOCTYPE svg PUBLIC "-//W3C//DTD SVG 1.1//EN"
 "http://www.w3.org/Graphics/SVG/1.1/DTD/svg11.dtd">
<!-- Generated by graphviz version 2.36.0 (20140111.2315)
 -->
<!-- Title: controller.UserInterface.removeNode Pages: 1 -->
<svg width="1230pt" height="77pt"
 viewBox="0.00 0.00 1230.00 77.00" xmlns="http://www.w3.org/2000/svg" xmlns:xlink="http://www.w3.org/1999/xlink">
<g id="graph0" class="graph" transform="scale(1 1) rotate(0) translate(4 73)">
<title>controller.UserInterface.removeNode</title>
<polygon fill="white" stroke="none" points="-4,4 -4,-73 1226,-73 1226,4 -4,4"/>
<!-- Node1 -->
<g id="node1" class="node"><title>Node1</title>
<polygon fill="#bfbfbf" stroke="black" points="0,-27.5 0,-46.5 194,-46.5 194,-27.5 0,-27.5"/>
<text text-anchor="middle" x="97" y="-34.5" font-family="Helvetica,sans-Serif" font-size="10.00">controller.UserInterface.removeNode</text>
</g>
<!-- Node2 -->
<g id="node2" class="node"><title>Node2</title>
<g id="a_node2"><a xlink:href="../../db/d32/classcontroller_1_1_main_controller.html#ad28f21e1510291d95a69a9f488a20d89" target="_top" xlink:title="controller.MainController.createGrid">
<polygon fill="white" stroke="black" points="230.5,-27.5 230.5,-46.5 415.5,-46.5 415.5,-27.5 230.5,-27.5"/>
<text text-anchor="middle" x="323" y="-34.5" font-family="Helvetica,sans-Serif" font-size="10.00">controller.MainController.createGrid</text>
</a>
</g>
</g>
<!-- Node1&#45;&gt;Node2 -->
<g id="edge1" class="edge"><title>Node1&#45;&gt;Node2</title>
<path fill="none" stroke="midnightblue" d="M204.447,-37C213.121,-37 221.841,-37 230.396,-37"/>
<polygon fill="midnightblue" stroke="midnightblue" points="204.296,-33.5001 194.296,-37 204.296,-40.5001 204.296,-33.5001"/>
</g>
<!-- Node3 -->
<g id="node3" class="node"><title>Node3</title>
<g id="a_node3"><a xlink:href="../../db/d32/classcontroller_1_1_main_controller.html#aecc10abc6b55d8b0b4bd152be5c5d3f0" target="_top" xlink:title="controller.MainController.initialize\lSimulationObjects">
<polygon fill="white" stroke="black" points="452.5,-22 452.5,-52 625.5,-52 625.5,-22 452.5,-22"/>
<text text-anchor="start" x="460.5" y="-40" font-family="Helvetica,sans-Serif" font-size="10.00">controller.MainController.initialize</text>
<text text-anchor="middle" x="539" y="-29" font-family="Helvetica,sans-Serif" font-size="10.00">SimulationObjects</text>
</a>
</g>
</g>
<!-- Node2&#45;&gt;Node3 -->
<g id="edge2" class="edge"><title>Node2&#45;&gt;Node3</title>
<path fill="none" stroke="midnightblue" d="M425.691,-37C434.582,-37 443.522,-37 452.265,-37"/>
<polygon fill="midnightblue" stroke="midnightblue" points="425.687,-33.5001 415.687,-37 425.687,-40.5001 425.687,-33.5001"/>
</g>
<!-- Node4 -->
<g id="node4" class="node"><title>Node4</title>
<g id="a_node4"><a xlink:href="../../db/d32/classcontroller_1_1_main_controller.html#a7cfedb8e16c6b9d6394054d03193da82" target="_top" xlink:title="controller.MainController.initialize\lSimulationWithData">
<polygon fill="white" stroke="black" points="662.5,-22 662.5,-52 835.5,-52 835.5,-22 662.5,-22"/>
<text text-anchor="start" x="670.5" y="-40" font-family="Helvetica,sans-Serif" font-size="10.00">controller.MainController.initialize</text>
<text text-anchor="middle" x="749" y="-29" font-family="Helvetica,sans-Serif" font-size="10.00">SimulationWithData</text>
</a>
</g>
</g>
<!-- Node3&#45;&gt;Node4 -->
<g id="edge3" class="edge"><title>Node3&#45;&gt;Node4</title>
<path fill="none" stroke="midnightblue" d="M635.585,-37C644.561,-37 653.62,-37 662.494,-37"/>
<polygon fill="midnightblue" stroke="midnightblue" points="635.502,-33.5001 625.502,-37 635.502,-40.5001 635.502,-33.5001"/>
</g>
<!-- Node5 -->
<g id="node5" class="node"><title>Node5</title>
<g id="a_node5"><a xlink:href="../../db/ddb/classcontroller_1_1_user_interface.html#a9cf1e21253003993661082c9d42926b2" target="_top" xlink:title="controller.UserInterface.make\lBottomPanel">
<polygon fill="white" stroke="black" points="872,-0 872,-30 1030,-30 1030,-0 872,-0"/>
<text text-anchor="start" x="880" y="-18" font-family="Helvetica,sans-Serif" font-size="10.00">controller.UserInterface.make</text>
<text text-anchor="middle" x="951" y="-7" font-family="Helvetica,sans-Serif" font-size="10.00">BottomPanel</text>
</a>
</g>
</g>
<!-- Node4&#45;&gt;Node5 -->
<g id="edge4" class="edge"><title>Node4&#45;&gt;Node5</title>
<path fill="none" stroke="midnightblue" d="M845.848,-26.4568C854.532,-25.5015 863.257,-24.5417 871.762,-23.6061"/>
<polygon fill="midnightblue" stroke="midnightblue" points="845.246,-23.0018 835.688,-27.5743 846.011,-29.9598 845.246,-23.0018"/>
</g>
<!-- Node6 -->
<g id="node6" class="node"><title>Node6</title>
<g id="a_node6"><a xlink:href="../../db/ddb/classcontroller_1_1_user_interface.html#aad62b84bbc23f683c844ace519feb9d2" target="_top" xlink:title="controller.UserInterface.reset">
<polygon fill="white" stroke="black" points="1066,-49.5 1066,-68.5 1222,-68.5 1222,-49.5 1066,-49.5"/>
<text text-anchor="middle" x="1144" y="-56.5" font-family="Helvetica,sans-Serif" font-size="10.00">controller.UserInterface.reset</text>
</a>
</g>
</g>
<!-- Node5&#45;&gt;Node6 -->
<g id="edge5" class="edge"><title>Node5&#45;&gt;Node6</title>
<path fill="none" stroke="midnightblue" d="M1027.18,-32.3187C1052.56,-38.1648 1079.94,-44.4732 1101.71,-49.4876"/>
<polygon fill="midnightblue" stroke="midnightblue" points="1027.73,-28.8535 1017.2,-30.0192 1026.16,-35.6749 1027.73,-28.8535"/>
</g>
<!-- Node7 -->
<g id="node7" class="node"><title>Node7</title>
<g id="a_node7"><a xlink:href="../../db/ddb/classcontroller_1_1_user_interface.html#a6dd740b89d748c372a5ef9959e1bd7c4" target="_top" xlink:title="controller.UserInterface.\lUserInterface">
<polygon fill="white" stroke="black" points="1078.5,-0 1078.5,-30 1209.5,-30 1209.5,-0 1078.5,-0"/>
<text text-anchor="start" x="1086.5" y="-18" font-family="Helvetica,sans-Serif" font-size="10.00">controller.UserInterface.</text>
<text text-anchor="middle" x="1144" y="-7" font-family="Helvetica,sans-Serif" font-size="10.00">UserInterface</text>
</a>
</g>
</g>
<!-- Node5&#45;&gt;Node7 -->
<g id="edge7" class="edge"><title>Node5&#45;&gt;Node7</title>
<path fill="none" stroke="midnightblue" d="M1040.41,-15C1053.17,-15 1066.1,-15 1078.27,-15"/>
<polygon fill="midnightblue" stroke="midnightblue" points="1040.24,-11.5001 1030.24,-15 1040.24,-18.5001 1040.24,-11.5001"/>
</g>
<!-- Node6&#45;&gt;Node4 -->
<g id="edge6" class="edge"><title>Node6&#45;&gt;Node4</title>
<path fill="none" stroke="midnightblue" d="M1055.44,-54.0986C989.942,-50.4318 900.825,-45.4431 835.76,-41.8008"/>
<polygon fill="midnightblue" stroke="midnightblue" points="1055.57,-57.6109 1065.75,-54.6754 1055.96,-50.6218 1055.57,-57.6109"/>
</g>
</g>
</svg>
