<?xml version="1.0" encoding="UTF-8" standalone="no"?>
<!DOCTYPE svg PUBLIC "-//W3C//DTD SVG 1.1//EN"
 "http://www.w3.org/Graphics/SVG/1.1/DTD/svg11.dtd">
<!-- Generated by graphviz version 2.36.0 (20140111.2315)
 -->
<!-- Title: controller.UserInterface.makeBottomPanel Pages: 1 -->
<svg width="568pt" height="91pt"
 viewBox="0.00 0.00 568.00 91.27" xmlns="http://www.w3.org/2000/svg" xmlns:xlink="http://www.w3.org/1999/xlink">
<g id="graph0" class="graph" transform="scale(1 1) rotate(0) translate(4 87.2709)">
<title>controller.UserInterface.makeBottomPanel</title>
<polygon fill="white" stroke="none" points="-4,4 -4,-87.2709 564,-87.2709 564,4 -4,4"/>
<!-- Node1 -->
<g id="node1" class="node"><title>Node1</title>
<polygon fill="#bfbfbf" stroke="black" points="0,-14.2709 0,-44.2709 158,-44.2709 158,-14.2709 0,-14.2709"/>
<text text-anchor="start" x="8" y="-32.2709" font-family="Helvetica,sans-Serif" font-size="10.00">controller.UserInterface.make</text>
<text text-anchor="middle" x="79" y="-21.2709" font-family="Helvetica,sans-Serif" font-size="10.00">BottomPanel</text>
</g>
<!-- Node2 -->
<g id="node2" class="node"><title>Node2</title>
<g id="a_node2"><a xlink:href="../../db/ddb/classcontroller_1_1_user_interface.html#aad62b84bbc23f683c844ace519feb9d2" target="_top" xlink:title="controller.UserInterface.reset">
<polygon fill="white" stroke="black" points="194,-63.7709 194,-82.7709 350,-82.7709 350,-63.7709 194,-63.7709"/>
<text text-anchor="middle" x="272" y="-70.7709" font-family="Helvetica,sans-Serif" font-size="10.00">controller.UserInterface.reset</text>
</a>
</g>
</g>
<!-- Node1&#45;&gt;Node2 -->
<g id="edge1" class="edge"><title>Node1&#45;&gt;Node2</title>
<path fill="none" stroke="midnightblue" d="M155.179,-46.5897C180.556,-52.4357 207.941,-58.7441 229.707,-63.7585"/>
<polygon fill="midnightblue" stroke="midnightblue" points="155.728,-43.1244 145.197,-44.2902 154.156,-49.9458 155.728,-43.1244"/>
</g>
<!-- Node4 -->
<g id="node4" class="node"><title>Node4</title>
<g id="a_node4"><a xlink:href="../../db/ddb/classcontroller_1_1_user_interface.html#a6dd740b89d748c372a5ef9959e1bd7c4" target="_top" xlink:title="controller.UserInterface.\lUserInterface">
<polygon fill="white" stroke="black" points="206.5,-14.2709 206.5,-44.2709 337.5,-44.2709 337.5,-14.2709 206.5,-14.2709"/>
<text text-anchor="start" x="214.5" y="-32.2709" font-family="Helvetica,sans-Serif" font-size="10.00">controller.UserInterface.</text>
<text text-anchor="middle" x="272" y="-21.2709" font-family="Helvetica,sans-Serif" font-size="10.00">UserInterface</text>
</a>
</g>
</g>
<!-- Node1&#45;&gt;Node4 -->
<g id="edge4" class="edge"><title>Node1&#45;&gt;Node4</title>
<path fill="none" stroke="midnightblue" d="M168.415,-29.2709C181.171,-29.2709 194.097,-29.2709 206.275,-29.2709"/>
<polygon fill="midnightblue" stroke="midnightblue" points="168.238,-25.771 158.238,-29.2709 168.238,-32.771 168.238,-25.771"/>
</g>
<!-- Node3 -->
<g id="node3" class="node"><title>Node3</title>
<g id="a_node3"><a xlink:href="../../db/d32/classcontroller_1_1_main_controller.html#a7cfedb8e16c6b9d6394054d03193da82" target="_top" xlink:title="controller.MainController.initialize\lSimulationWithData">
<polygon fill="white" stroke="black" points="386.5,-14.2709 386.5,-44.2709 559.5,-44.2709 559.5,-14.2709 386.5,-14.2709"/>
<text text-anchor="start" x="394.5" y="-32.2709" font-family="Helvetica,sans-Serif" font-size="10.00">controller.MainController.initialize</text>
<text text-anchor="middle" x="473" y="-21.2709" font-family="Helvetica,sans-Serif" font-size="10.00">SimulationWithData</text>
</a>
</g>
</g>
<!-- Node2&#45;&gt;Node3 -->
<g id="edge2" class="edge"><title>Node2&#45;&gt;Node3</title>
<path fill="none" stroke="midnightblue" d="M326.108,-61.5285C349.98,-56.2502 378.443,-49.9569 403.863,-44.3363"/>
<polygon fill="midnightblue" stroke="midnightblue" points="325.189,-58.1471 316.18,-63.7236 326.7,-64.9821 325.189,-58.1471"/>
</g>
<!-- Node3&#45;&gt;Node1 -->
<g id="edge3" class="edge"><title>Node3&#45;&gt;Node1</title>
<path fill="none" stroke="midnightblue" d="M397.619,-12.2567C381.973,-9.34916 365.509,-6.78196 350,-5.27093 280.993,1.45218 262.961,1.90938 194,-5.27093 176.297,-7.11417 157.294,-10.5261 139.977,-14.2105"/>
<polygon fill="midnightblue" stroke="midnightblue" points="397.283,-15.7563 407.764,-14.2089 398.606,-8.88236 397.283,-15.7563"/>
</g>
</g>
</svg>
