<?xml version="1.0" encoding="UTF-8" standalone="no"?>
<!DOCTYPE svg PUBLIC "-//W3C//DTD SVG 1.1//EN"
 "http://www.w3.org/Graphics/SVG/1.1/DTD/svg11.dtd">
<!-- Generated by graphviz version 2.36.0 (20140111.2315)
 -->
<!-- Title: controller.UserInterface.reset Pages: 1 -->
<svg width="736pt" height="61pt"
 viewBox="0.00 0.00 736.00 61.00" xmlns="http://www.w3.org/2000/svg" xmlns:xlink="http://www.w3.org/1999/xlink">
<g id="graph0" class="graph" transform="scale(1 1) rotate(0) translate(4 57)">
<title>controller.UserInterface.reset</title>
<polygon fill="white" stroke="none" points="-4,4 -4,-57 732,-57 732,4 -4,4"/>
<!-- Node1 -->
<g id="node1" class="node"><title>Node1</title>
<polygon fill="#bfbfbf" stroke="black" points="0,-6.5 0,-25.5 156,-25.5 156,-6.5 0,-6.5"/>
<text text-anchor="middle" x="78" y="-13.5" font-family="Helvetica,sans-Serif" font-size="10.00">controller.UserInterface.reset</text>
</g>
<!-- Node2 -->
<g id="node2" class="node"><title>Node2</title>
<g id="a_node2"><a xlink:href="../../db/d32/classcontroller_1_1_main_controller.html#a7cfedb8e16c6b9d6394054d03193da82" target="_top" xlink:title="controller.MainController.initialize\lSimulationWithData">
<polygon fill="white" stroke="black" points="192.5,-23 192.5,-53 365.5,-53 365.5,-23 192.5,-23"/>
<text text-anchor="start" x="200.5" y="-41" font-family="Helvetica,sans-Serif" font-size="10.00">controller.MainController.initialize</text>
<text text-anchor="middle" x="279" y="-30" font-family="Helvetica,sans-Serif" font-size="10.00">SimulationWithData</text>
</a>
</g>
</g>
<!-- Node1&#45;&gt;Node2 -->
<g id="edge1" class="edge"><title>Node1&#45;&gt;Node2</title>
<path fill="none" stroke="midnightblue" d="M166.268,-25.6477C174.886,-26.6005 183.629,-27.567 192.232,-28.5181"/>
<polygon fill="midnightblue" stroke="midnightblue" points="166.547,-22.1574 156.223,-24.5373 165.778,-29.115 166.547,-22.1574"/>
</g>
<!-- Node3 -->
<g id="node3" class="node"><title>Node3</title>
<g id="a_node3"><a xlink:href="../../db/ddb/classcontroller_1_1_user_interface.html#a9cf1e21253003993661082c9d42926b2" target="_top" xlink:title="controller.UserInterface.make\lBottomPanel">
<polygon fill="white" stroke="black" points="402,-1 402,-31 560,-31 560,-1 402,-1"/>
<text text-anchor="start" x="410" y="-19" font-family="Helvetica,sans-Serif" font-size="10.00">controller.UserInterface.make</text>
<text text-anchor="middle" x="481" y="-8" font-family="Helvetica,sans-Serif" font-size="10.00">BottomPanel</text>
</a>
</g>
</g>
<!-- Node2&#45;&gt;Node3 -->
<g id="edge2" class="edge"><title>Node2&#45;&gt;Node3</title>
<path fill="none" stroke="midnightblue" d="M375.848,-27.4568C384.532,-26.5015 393.257,-25.5417 401.762,-24.6061"/>
<polygon fill="midnightblue" stroke="midnightblue" points="375.246,-24.0018 365.688,-28.5743 376.011,-30.9598 375.246,-24.0018"/>
</g>
<!-- Node3&#45;&gt;Node1 -->
<g id="edge3" class="edge"><title>Node3&#45;&gt;Node1</title>
<path fill="none" stroke="midnightblue" d="M391.656,-14.2971C382.987,-14.176 374.323,-14.073 366,-14 288.67,-13.3217 269.33,-13.3157 192,-14 180.424,-14.1024 168.182,-14.2639 156.195,-14.4517"/>
<polygon fill="midnightblue" stroke="midnightblue" points="391.764,-17.799 401.814,-14.4469 391.867,-10.7997 391.764,-17.799"/>
</g>
<!-- Node4 -->
<g id="node4" class="node"><title>Node4</title>
<g id="a_node4"><a xlink:href="../../db/ddb/classcontroller_1_1_user_interface.html#a6dd740b89d748c372a5ef9959e1bd7c4" target="_top" xlink:title="controller.UserInterface.\lUserInterface">
<polygon fill="white" stroke="black" points="596.5,-1 596.5,-31 727.5,-31 727.5,-1 596.5,-1"/>
<text text-anchor="start" x="604.5" y="-19" font-family="Helvetica,sans-Serif" font-size="10.00">controller.UserInterface.</text>
<text text-anchor="middle" x="662" y="-8" font-family="Helvetica,sans-Serif" font-size="10.00">UserInterface</text>
</a>
</g>
</g>
<!-- Node3&#45;&gt;Node4 -->
<g id="edge4" class="edge"><title>Node3&#45;&gt;Node4</title>
<path fill="none" stroke="midnightblue" d="M570.457,-16C579.173,-16 587.902,-16 596.314,-16"/>
<polygon fill="midnightblue" stroke="midnightblue" points="570.252,-12.5001 560.252,-16 570.252,-19.5001 570.252,-12.5001"/>
</g>
</g>
</svg>
