<?xml version="1.0" encoding="UTF-8" standalone="no"?>
<!DOCTYPE svg PUBLIC "-//W3C//DTD SVG 1.1//EN"
 "http://www.w3.org/Graphics/SVG/1.1/DTD/svg11.dtd">
<!-- Generated by graphviz version 2.36.0 (20140111.2315)
 -->
<!-- Title: controller.PatchFactory.createPatch Pages: 1 -->
<svg width="376pt" height="66pt"
 viewBox="0.00 0.00 376.00 66.00" xmlns="http://www.w3.org/2000/svg" xmlns:xlink="http://www.w3.org/1999/xlink">
<g id="graph0" class="graph" transform="scale(1 1) rotate(0) translate(4 62)">
<title>controller.PatchFactory.createPatch</title>
<polygon fill="white" stroke="none" points="-4,4 -4,-62 372,-62 372,4 -4,4"/>
<!-- Node1 -->
<g id="node1" class="node"><title>Node1</title>
<polygon fill="#bfbfbf" stroke="black" points="0.5,-14 0.5,-44 157.5,-44 157.5,-14 0.5,-14"/>
<text text-anchor="start" x="8.5" y="-32" font-family="Helvetica,sans-Serif" font-size="10.00">controller.PatchFactory.create</text>
<text text-anchor="middle" x="79" y="-21" font-family="Helvetica,sans-Serif" font-size="10.00">Patch</text>
</g>
<!-- Node2 -->
<g id="node2" class="node"><title>Node2</title>
<g id="a_node2"><a xlink:href="../../de/d7a/classcontroller_1_1_grid_info.html#a5eb35ecb7a9a19b0ffddc278ee1f8bf1" target="_top" xlink:title="controller.GridInfo.getPatchType">
<polygon fill="white" stroke="black" points="197.5,-38.5 197.5,-57.5 364.5,-57.5 364.5,-38.5 197.5,-38.5"/>
<text text-anchor="middle" x="281" y="-45.5" font-family="Helvetica,sans-Serif" font-size="10.00">controller.GridInfo.getPatchType</text>
</a>
</g>
</g>
<!-- Node1&#45;&gt;Node2 -->
<g id="edge1" class="edge"><title>Node1&#45;&gt;Node2</title>
<path fill="none" stroke="midnightblue" d="M157.611,-36.3731C167.309,-37.2944 177.303,-38.2438 187.202,-39.1842"/>
<polygon fill="midnightblue" stroke="midnightblue" points="187.182,-42.6979 197.468,-40.1594 187.844,-35.7293 187.182,-42.6979"/>
</g>
<!-- Node3 -->
<g id="node3" class="node"><title>Node3</title>
<g id="a_node3"><a xlink:href="../../d5/da5/classsimulation_objects_1_1_patch.html#a887b259553d6546b16ae0a133539098e" target="_top" xlink:title="simulationObjects.Patch.initialize">
<polygon fill="white" stroke="black" points="194.5,-0.5 194.5,-19.5 367.5,-19.5 367.5,-0.5 194.5,-0.5"/>
<text text-anchor="middle" x="281" y="-7.5" font-family="Helvetica,sans-Serif" font-size="10.00">simulationObjects.Patch.initialize</text>
</a>
</g>
</g>
<!-- Node1&#45;&gt;Node3 -->
<g id="edge2" class="edge"><title>Node1&#45;&gt;Node3</title>
<path fill="none" stroke="midnightblue" d="M157.611,-21.6269C166.387,-20.7932 175.405,-19.9365 184.376,-19.0843"/>
<polygon fill="midnightblue" stroke="midnightblue" points="184.845,-22.5556 194.469,-18.1254 184.183,-15.5869 184.845,-22.5556"/>
</g>
</g>
</svg>
