<?xml version="1.0" encoding="UTF-8" standalone="no"?>
<!DOCTYPE svg PUBLIC "-//W3C//DTD SVG 1.1//EN"
 "http://www.w3.org/Graphics/SVG/1.1/DTD/svg11.dtd">
<!-- Generated by graphviz version 2.36.0 (20140111.2315)
 -->
<!-- Title: controller.Parser.setCellStates Pages: 1 -->
<svg width="914pt" height="77pt"
 viewBox="0.00 0.00 914.00 77.00" xmlns="http://www.w3.org/2000/svg" xmlns:xlink="http://www.w3.org/1999/xlink">
<g id="graph0" class="graph" transform="scale(1 1) rotate(0) translate(4 73)">
<title>controller.Parser.setCellStates</title>
<polygon fill="white" stroke="none" points="-4,4 -4,-73 910,-73 910,4 -4,4"/>
<!-- Node1 -->
<g id="node1" class="node"><title>Node1</title>
<polygon fill="#bfbfbf" stroke="black" points="0,-17 0,-47 128,-47 128,-17 0,-17"/>
<text text-anchor="start" x="8" y="-35" font-family="Helvetica,sans-Serif" font-size="10.00">controller.Parser.setCell</text>
<text text-anchor="middle" x="64" y="-24" font-family="Helvetica,sans-Serif" font-size="10.00">States</text>
</g>
<!-- Node2 -->
<g id="node2" class="node"><title>Node2</title>
<g id="a_node2"><a xlink:href="../../d3/d6a/classcontroller_1_1_parser.html#a02bf0729411c23f212468f2d50d4e5ed" target="_top" xlink:title="controller.Parser.parserXml">
<polygon fill="white" stroke="black" points="164.5,-22.5 164.5,-41.5 309.5,-41.5 309.5,-22.5 164.5,-22.5"/>
<text text-anchor="middle" x="237" y="-29.5" font-family="Helvetica,sans-Serif" font-size="10.00">controller.Parser.parserXml</text>
</a>
</g>
</g>
<!-- Node1&#45;&gt;Node2 -->
<g id="edge1" class="edge"><title>Node1&#45;&gt;Node2</title>
<path fill="none" stroke="midnightblue" d="M138.265,-32C146.934,-32 155.775,-32 164.421,-32"/>
<polygon fill="midnightblue" stroke="midnightblue" points="138.188,-28.5001 128.188,-32 138.188,-35.5001 138.188,-28.5001"/>
</g>
<!-- Node3 -->
<g id="node3" class="node"><title>Node3</title>
<g id="a_node3"><a xlink:href="../../db/d32/classcontroller_1_1_main_controller.html#a7cfedb8e16c6b9d6394054d03193da82" target="_top" xlink:title="controller.MainController.initialize\lSimulationWithData">
<polygon fill="white" stroke="black" points="346.5,-17 346.5,-47 519.5,-47 519.5,-17 346.5,-17"/>
<text text-anchor="start" x="354.5" y="-35" font-family="Helvetica,sans-Serif" font-size="10.00">controller.MainController.initialize</text>
<text text-anchor="middle" x="433" y="-24" font-family="Helvetica,sans-Serif" font-size="10.00">SimulationWithData</text>
</a>
</g>
</g>
<!-- Node2&#45;&gt;Node3 -->
<g id="edge2" class="edge"><title>Node2&#45;&gt;Node3</title>
<path fill="none" stroke="midnightblue" d="M319.91,-32C328.699,-32 337.658,-32 346.489,-32"/>
<polygon fill="midnightblue" stroke="midnightblue" points="319.687,-28.5001 309.687,-32 319.687,-35.5001 319.687,-28.5001"/>
</g>
<!-- Node4 -->
<g id="node4" class="node"><title>Node4</title>
<g id="a_node4"><a xlink:href="../../db/ddb/classcontroller_1_1_user_interface.html#a9cf1e21253003993661082c9d42926b2" target="_top" xlink:title="controller.UserInterface.make\lBottomPanel">
<polygon fill="white" stroke="black" points="556,-39 556,-69 714,-69 714,-39 556,-39"/>
<text text-anchor="start" x="564" y="-57" font-family="Helvetica,sans-Serif" font-size="10.00">controller.UserInterface.make</text>
<text text-anchor="middle" x="635" y="-46" font-family="Helvetica,sans-Serif" font-size="10.00">BottomPanel</text>
</a>
</g>
</g>
<!-- Node3&#45;&gt;Node4 -->
<g id="edge3" class="edge"><title>Node3&#45;&gt;Node4</title>
<path fill="none" stroke="midnightblue" d="M529.848,-42.5432C538.532,-43.4985 547.257,-44.4583 555.762,-45.3939"/>
<polygon fill="midnightblue" stroke="midnightblue" points="530.011,-39.0402 519.688,-41.4257 529.246,-45.9982 530.011,-39.0402"/>
</g>
<!-- Node5 -->
<g id="node5" class="node"><title>Node5</title>
<g id="a_node5"><a xlink:href="../../db/ddb/classcontroller_1_1_user_interface.html#a6dd740b89d748c372a5ef9959e1bd7c4" target="_top" xlink:title="controller.UserInterface.\lUserInterface">
<polygon fill="white" stroke="black" points="762.5,-39 762.5,-69 893.5,-69 893.5,-39 762.5,-39"/>
<text text-anchor="start" x="770.5" y="-57" font-family="Helvetica,sans-Serif" font-size="10.00">controller.UserInterface.</text>
<text text-anchor="middle" x="828" y="-46" font-family="Helvetica,sans-Serif" font-size="10.00">UserInterface</text>
</a>
</g>
</g>
<!-- Node4&#45;&gt;Node5 -->
<g id="edge4" class="edge"><title>Node4&#45;&gt;Node5</title>
<path fill="none" stroke="midnightblue" d="M724.415,-54C737.171,-54 750.097,-54 762.275,-54"/>
<polygon fill="midnightblue" stroke="midnightblue" points="724.238,-50.5001 714.238,-54 724.238,-57.5001 724.238,-50.5001"/>
</g>
<!-- Node6 -->
<g id="node6" class="node"><title>Node6</title>
<g id="a_node6"><a xlink:href="../../db/ddb/classcontroller_1_1_user_interface.html#aad62b84bbc23f683c844ace519feb9d2" target="_top" xlink:title="controller.UserInterface.reset">
<polygon fill="white" stroke="black" points="750,-0.5 750,-19.5 906,-19.5 906,-0.5 750,-0.5"/>
<text text-anchor="middle" x="828" y="-7.5" font-family="Helvetica,sans-Serif" font-size="10.00">controller.UserInterface.reset</text>
</a>
</g>
</g>
<!-- Node4&#45;&gt;Node6 -->
<g id="edge5" class="edge"><title>Node4&#45;&gt;Node6</title>
<path fill="none" stroke="midnightblue" d="M711.179,-36.6813C736.556,-30.8352 763.941,-24.5268 785.707,-19.5124"/>
<polygon fill="midnightblue" stroke="midnightblue" points="710.156,-33.3251 701.197,-38.9808 711.728,-40.1465 710.156,-33.3251"/>
</g>
<!-- Node6&#45;&gt;Node3 -->
<g id="edge6" class="edge"><title>Node6&#45;&gt;Node3</title>
<path fill="none" stroke="midnightblue" d="M739.444,-14.9014C673.942,-18.5682 584.825,-23.5569 519.76,-27.1992"/>
<polygon fill="midnightblue" stroke="midnightblue" points="739.958,-18.3782 749.747,-14.3246 739.566,-11.3891 739.958,-18.3782"/>
</g>
</g>
</svg>
