<?xml version="1.0" encoding="UTF-8" standalone="no"?>
<!DOCTYPE svg PUBLIC "-//W3C//DTD SVG 1.1//EN"
 "http://www.w3.org/Graphics/SVG/1.1/DTD/svg11.dtd">
<!-- Generated by graphviz version 2.36.0 (20140111.2315)
 -->
<!-- Title: controller.Parser.setCellStates Pages: 1 -->
<svg width="330pt" height="214pt"
 viewBox="0.00 0.00 330.00 214.00" xmlns="http://www.w3.org/2000/svg" xmlns:xlink="http://www.w3.org/1999/xlink">
<g id="graph0" class="graph" transform="scale(1 1) rotate(0) translate(4 210)">
<title>controller.Parser.setCellStates</title>
<polygon fill="white" stroke="none" points="-4,4 -4,-210 326,-210 326,4 -4,4"/>
<!-- Node1 -->
<g id="node1" class="node"><title>Node1</title>
<polygon fill="#bfbfbf" stroke="black" points="0,-88 0,-118 128,-118 128,-88 0,-88"/>
<text text-anchor="start" x="8" y="-106" font-family="Helvetica,sans-Serif" font-size="10.00">controller.Parser.setCell</text>
<text text-anchor="middle" x="64" y="-95" font-family="Helvetica,sans-Serif" font-size="10.00">States</text>
</g>
<!-- Node2 -->
<g id="node2" class="node"><title>Node2</title>
<g id="a_node2"><a xlink:href="../../de/d7a/classcontroller_1_1_grid_info.html#aa3ee95078f3742aa392bab45f477a5a5" target="_top" xlink:title="controller.GridInfo.getCellType">
<polygon fill="white" stroke="black" points="164,-186.5 164,-205.5 322,-205.5 322,-186.5 164,-186.5"/>
<text text-anchor="middle" x="243" y="-193.5" font-family="Helvetica,sans-Serif" font-size="10.00">controller.GridInfo.getCellType</text>
</a>
</g>
</g>
<!-- Node1&#45;&gt;Node2 -->
<g id="edge1" class="edge"><title>Node1&#45;&gt;Node2</title>
<path fill="none" stroke="midnightblue" d="M81.2304,-118.087C99.8562,-134.617 131.976,-160.799 164,-176 170.024,-178.86 176.512,-181.348 183.081,-183.504"/>
<polygon fill="midnightblue" stroke="midnightblue" points="182.134,-186.874 192.719,-186.43 184.167,-180.176 182.134,-186.874"/>
</g>
<!-- Node3 -->
<g id="node3" class="node"><title>Node3</title>
<g id="a_node3"><a xlink:href="../../d2/d6e/classsimulation_objects_1_1_cell.html#addfb21707362a1904e1bff58918ff266" target="_top" xlink:title="simulationObjects.Cell.get\lInitialColors">
<polygon fill="white" stroke="black" points="172.5,-137 172.5,-167 313.5,-167 313.5,-137 172.5,-137"/>
<text text-anchor="start" x="180.5" y="-155" font-family="Helvetica,sans-Serif" font-size="10.00">simulationObjects.Cell.get</text>
<text text-anchor="middle" x="243" y="-144" font-family="Helvetica,sans-Serif" font-size="10.00">InitialColors</text>
</a>
</g>
</g>
<!-- Node1&#45;&gt;Node3 -->
<g id="edge2" class="edge"><title>Node1&#45;&gt;Node3</title>
<path fill="none" stroke="midnightblue" d="M119.55,-118.101C137.974,-123.202 158.712,-128.943 177.812,-134.23"/>
<polygon fill="midnightblue" stroke="midnightblue" points="177.059,-137.653 187.63,-136.948 178.926,-130.907 177.059,-137.653"/>
</g>
<!-- Node4 -->
<g id="node4" class="node"><title>Node4</title>
<g id="a_node4"><a xlink:href="../../d2/d6e/classsimulation_objects_1_1_cell.html#a23ecd3bd96a8cd054bf310202af9cd2d" target="_top" xlink:title="simulationObjects.Cell.get\lStateTypes">
<polygon fill="white" stroke="black" points="172.5,-88 172.5,-118 313.5,-118 313.5,-88 172.5,-88"/>
<text text-anchor="start" x="180.5" y="-106" font-family="Helvetica,sans-Serif" font-size="10.00">simulationObjects.Cell.get</text>
<text text-anchor="middle" x="243" y="-95" font-family="Helvetica,sans-Serif" font-size="10.00">StateTypes</text>
</a>
</g>
</g>
<!-- Node1&#45;&gt;Node4 -->
<g id="edge3" class="edge"><title>Node1&#45;&gt;Node4</title>
<path fill="none" stroke="midnightblue" d="M128.401,-103C139.337,-103 150.831,-103 162.135,-103"/>
<polygon fill="midnightblue" stroke="midnightblue" points="162.442,-106.5 172.442,-103 162.442,-99.5001 162.442,-106.5"/>
</g>
<!-- Node5 -->
<g id="node5" class="node"><title>Node5</title>
<g id="a_node5"><a xlink:href="../../de/d7a/classcontroller_1_1_grid_info.html#abf71126b3cab1973d8dd4deac7270fc4" target="_top" xlink:title="controller.GridInfo.setColor">
<polygon fill="white" stroke="black" points="171.5,-49.5 171.5,-68.5 314.5,-68.5 314.5,-49.5 171.5,-49.5"/>
<text text-anchor="middle" x="243" y="-56.5" font-family="Helvetica,sans-Serif" font-size="10.00">controller.GridInfo.setColor</text>
</a>
</g>
</g>
<!-- Node1&#45;&gt;Node5 -->
<g id="edge4" class="edge"><title>Node1&#45;&gt;Node5</title>
<path fill="none" stroke="midnightblue" d="M125.418,-87.9808C147.81,-82.4144 172.878,-76.1829 194.014,-70.9287"/>
<polygon fill="midnightblue" stroke="midnightblue" points="194.874,-74.3216 203.734,-68.5124 193.185,-67.5283 194.874,-74.3216"/>
</g>
<!-- Node6 -->
<g id="node6" class="node"><title>Node6</title>
<g id="a_node6"><a xlink:href="../../de/d7a/classcontroller_1_1_grid_info.html#af89dcd48d9c508052c53a54797d06a96" target="_top" xlink:title="controller.GridInfo.setState\lTypes">
<polygon fill="white" stroke="black" points="170.5,-0 170.5,-30 315.5,-30 315.5,-0 170.5,-0"/>
<text text-anchor="start" x="178.5" y="-18" font-family="Helvetica,sans-Serif" font-size="10.00">controller.GridInfo.setState</text>
<text text-anchor="middle" x="243" y="-7" font-family="Helvetica,sans-Serif" font-size="10.00">Types</text>
</a>
</g>
</g>
<!-- Node1&#45;&gt;Node6 -->
<g id="edge5" class="edge"><title>Node1&#45;&gt;Node6</title>
<path fill="none" stroke="midnightblue" d="M85.3447,-87.8473C104.757,-73.9351 135.225,-53.4922 164,-40 168.909,-37.6984 174.085,-35.5279 179.341,-33.5004"/>
<polygon fill="midnightblue" stroke="midnightblue" points="180.667,-36.7421 188.846,-30.0081 178.253,-30.1715 180.667,-36.7421"/>
</g>
</g>
</svg>
