<?xml version="1.0" encoding="UTF-8" standalone="no"?>
<!DOCTYPE svg PUBLIC "-//W3C//DTD SVG 1.1//EN"
 "http://www.w3.org/Graphics/SVG/1.1/DTD/svg11.dtd">
<!-- Generated by graphviz version 2.36.0 (20140111.2315)
 -->
<!-- Title: controller.Parser.inputValidion Pages: 1 -->
<svg width="944pt" height="77pt"
 viewBox="0.00 0.00 944.00 77.00" xmlns="http://www.w3.org/2000/svg" xmlns:xlink="http://www.w3.org/1999/xlink">
<g id="graph0" class="graph" transform="scale(1 1) rotate(0) translate(4 73)">
<title>controller.Parser.inputValidion</title>
<polygon fill="white" stroke="none" points="-4,4 -4,-73 940,-73 940,4 -4,4"/>
<!-- Node1 -->
<g id="node1" class="node"><title>Node1</title>
<polygon fill="#bfbfbf" stroke="black" points="0.5,-22.5 0.5,-41.5 157.5,-41.5 157.5,-22.5 0.5,-22.5"/>
<text text-anchor="middle" x="79" y="-29.5" font-family="Helvetica,sans-Serif" font-size="10.00">controller.Parser.inputValidion</text>
</g>
<!-- Node2 -->
<g id="node2" class="node"><title>Node2</title>
<g id="a_node2"><a xlink:href="../../d3/d6a/classcontroller_1_1_parser.html#a02bf0729411c23f212468f2d50d4e5ed" target="_top" xlink:title="controller.Parser.parserXml">
<polygon fill="white" stroke="black" points="194.5,-22.5 194.5,-41.5 339.5,-41.5 339.5,-22.5 194.5,-22.5"/>
<text text-anchor="middle" x="267" y="-29.5" font-family="Helvetica,sans-Serif" font-size="10.00">controller.Parser.parserXml</text>
</a>
</g>
</g>
<!-- Node1&#45;&gt;Node2 -->
<g id="edge1" class="edge"><title>Node1&#45;&gt;Node2</title>
<path fill="none" stroke="midnightblue" d="M167.573,-32C176.507,-32 185.507,-32 194.242,-32"/>
<polygon fill="midnightblue" stroke="midnightblue" points="167.534,-28.5001 157.534,-32 167.534,-35.5001 167.534,-28.5001"/>
</g>
<!-- Node3 -->
<g id="node3" class="node"><title>Node3</title>
<g id="a_node3"><a xlink:href="../../db/d32/classcontroller_1_1_main_controller.html#a7cfedb8e16c6b9d6394054d03193da82" target="_top" xlink:title="controller.MainController.initialize\lSimulationWithData">
<polygon fill="white" stroke="black" points="376.5,-17 376.5,-47 549.5,-47 549.5,-17 376.5,-17"/>
<text text-anchor="start" x="384.5" y="-35" font-family="Helvetica,sans-Serif" font-size="10.00">controller.MainController.initialize</text>
<text text-anchor="middle" x="463" y="-24" font-family="Helvetica,sans-Serif" font-size="10.00">SimulationWithData</text>
</a>
</g>
</g>
<!-- Node2&#45;&gt;Node3 -->
<g id="edge2" class="edge"><title>Node2&#45;&gt;Node3</title>
<path fill="none" stroke="midnightblue" d="M349.91,-32C358.699,-32 367.658,-32 376.489,-32"/>
<polygon fill="midnightblue" stroke="midnightblue" points="349.687,-28.5001 339.687,-32 349.687,-35.5001 349.687,-28.5001"/>
</g>
<!-- Node4 -->
<g id="node4" class="node"><title>Node4</title>
<g id="a_node4"><a xlink:href="../../db/ddb/classcontroller_1_1_user_interface.html#a9cf1e21253003993661082c9d42926b2" target="_top" xlink:title="controller.UserInterface.make\lBottomPanel">
<polygon fill="white" stroke="black" points="586,-39 586,-69 744,-69 744,-39 586,-39"/>
<text text-anchor="start" x="594" y="-57" font-family="Helvetica,sans-Serif" font-size="10.00">controller.UserInterface.make</text>
<text text-anchor="middle" x="665" y="-46" font-family="Helvetica,sans-Serif" font-size="10.00">BottomPanel</text>
</a>
</g>
</g>
<!-- Node3&#45;&gt;Node4 -->
<g id="edge3" class="edge"><title>Node3&#45;&gt;Node4</title>
<path fill="none" stroke="midnightblue" d="M559.848,-42.5432C568.532,-43.4985 577.257,-44.4583 585.762,-45.3939"/>
<polygon fill="midnightblue" stroke="midnightblue" points="560.011,-39.0402 549.688,-41.4257 559.246,-45.9982 560.011,-39.0402"/>
</g>
<!-- Node5 -->
<g id="node5" class="node"><title>Node5</title>
<g id="a_node5"><a xlink:href="../../db/ddb/classcontroller_1_1_user_interface.html#a6dd740b89d748c372a5ef9959e1bd7c4" target="_top" xlink:title="controller.UserInterface.\lUserInterface">
<polygon fill="white" stroke="black" points="792.5,-39 792.5,-69 923.5,-69 923.5,-39 792.5,-39"/>
<text text-anchor="start" x="800.5" y="-57" font-family="Helvetica,sans-Serif" font-size="10.00">controller.UserInterface.</text>
<text text-anchor="middle" x="858" y="-46" font-family="Helvetica,sans-Serif" font-size="10.00">UserInterface</text>
</a>
</g>
</g>
<!-- Node4&#45;&gt;Node5 -->
<g id="edge4" class="edge"><title>Node4&#45;&gt;Node5</title>
<path fill="none" stroke="midnightblue" d="M754.415,-54C767.171,-54 780.097,-54 792.275,-54"/>
<polygon fill="midnightblue" stroke="midnightblue" points="754.238,-50.5001 744.238,-54 754.238,-57.5001 754.238,-50.5001"/>
</g>
<!-- Node6 -->
<g id="node6" class="node"><title>Node6</title>
<g id="a_node6"><a xlink:href="../../db/ddb/classcontroller_1_1_user_interface.html#aad62b84bbc23f683c844ace519feb9d2" target="_top" xlink:title="controller.UserInterface.reset">
<polygon fill="white" stroke="black" points="780,-0.5 780,-19.5 936,-19.5 936,-0.5 780,-0.5"/>
<text text-anchor="middle" x="858" y="-7.5" font-family="Helvetica,sans-Serif" font-size="10.00">controller.UserInterface.reset</text>
</a>
</g>
</g>
<!-- Node4&#45;&gt;Node6 -->
<g id="edge5" class="edge"><title>Node4&#45;&gt;Node6</title>
<path fill="none" stroke="midnightblue" d="M741.179,-36.6813C766.556,-30.8352 793.941,-24.5268 815.707,-19.5124"/>
<polygon fill="midnightblue" stroke="midnightblue" points="740.156,-33.3251 731.197,-38.9808 741.728,-40.1465 740.156,-33.3251"/>
</g>
<!-- Node6&#45;&gt;Node3 -->
<g id="edge6" class="edge"><title>Node6&#45;&gt;Node3</title>
<path fill="none" stroke="midnightblue" d="M769.444,-14.9014C703.942,-18.5682 614.825,-23.5569 549.76,-27.1992"/>
<polygon fill="midnightblue" stroke="midnightblue" points="769.958,-18.3782 779.747,-14.3246 769.566,-11.3891 769.958,-18.3782"/>
</g>
</g>
</svg>
