<?xml version="1.0" encoding="UTF-8" standalone="no"?>
<!DOCTYPE svg PUBLIC "-//W3C//DTD SVG 1.1//EN"
 "http://www.w3.org/Graphics/SVG/1.1/DTD/svg11.dtd">
<!-- Generated by graphviz version 2.36.0 (20140111.2315)
 -->
<!-- Title: controller.Parser.attributeParse Pages: 1 -->
<svg width="352pt" height="306pt"
 viewBox="0.00 0.00 352.00 306.00" xmlns="http://www.w3.org/2000/svg" xmlns:xlink="http://www.w3.org/1999/xlink">
<g id="graph0" class="graph" transform="scale(1 1) rotate(0) translate(4 302)">
<title>controller.Parser.attributeParse</title>
<polygon fill="white" stroke="none" points="-4,4 -4,-302 348,-302 348,4 -4,4"/>
<!-- Node1 -->
<g id="node1" class="node"><title>Node1</title>
<polygon fill="#bfbfbf" stroke="black" points="0.5,-128 0.5,-158 137.5,-158 137.5,-128 0.5,-128"/>
<text text-anchor="start" x="8.5" y="-146" font-family="Helvetica,sans-Serif" font-size="10.00">controller.Parser.attribute</text>
<text text-anchor="middle" x="69" y="-135" font-family="Helvetica,sans-Serif" font-size="10.00">Parse</text>
</g>
<!-- Node2 -->
<g id="node2" class="node"><title>Node2</title>
<g id="a_node2"><a xlink:href="../../de/d7a/classcontroller_1_1_grid_info.html#a6247bdec4e9925da19bb5ca9d8b2a4a4" target="_top" xlink:title="controller.GridInfo.setAdjacent">
<polygon fill="white" stroke="black" points="178.5,-278.5 178.5,-297.5 339.5,-297.5 339.5,-278.5 178.5,-278.5"/>
<text text-anchor="middle" x="259" y="-285.5" font-family="Helvetica,sans-Serif" font-size="10.00">controller.GridInfo.setAdjacent</text>
</a>
</g>
</g>
<!-- Node1&#45;&gt;Node2 -->
<g id="edge1" class="edge"><title>Node1&#45;&gt;Node2</title>
<path fill="none" stroke="midnightblue" d="M78.0212,-158.175C93.0459,-185.032 128.101,-240.758 174,-269 177.412,-271.1 181.031,-272.968 184.775,-274.63"/>
<polygon fill="midnightblue" stroke="midnightblue" points="183.705,-277.97 194.293,-278.353 186.255,-271.451 183.705,-277.97"/>
</g>
<!-- Node3 -->
<g id="node3" class="node"><title>Node3</title>
<g id="a_node3"><a xlink:href="../../de/d7a/classcontroller_1_1_grid_info.html#a9bad52b68d084a34a421652fd07d713c" target="_top" xlink:title="controller.GridInfo.setHeight">
<polygon fill="white" stroke="black" points="184,-240.5 184,-259.5 334,-259.5 334,-240.5 184,-240.5"/>
<text text-anchor="middle" x="259" y="-247.5" font-family="Helvetica,sans-Serif" font-size="10.00">controller.GridInfo.setHeight</text>
</a>
</g>
</g>
<!-- Node1&#45;&gt;Node3 -->
<g id="edge2" class="edge"><title>Node1&#45;&gt;Node3</title>
<path fill="none" stroke="midnightblue" d="M83.5887,-158.068C102.102,-177.651 137.182,-211.52 174,-230 179.627,-232.824 185.669,-235.26 191.838,-237.359"/>
<polygon fill="midnightblue" stroke="midnightblue" points="191.007,-240.766 201.595,-240.388 193.082,-234.081 191.007,-240.766"/>
</g>
<!-- Node4 -->
<g id="node4" class="node"><title>Node4</title>
<g id="a_node4"><a xlink:href="../../de/d7a/classcontroller_1_1_grid_info.html#a9d7b3515ea21cc50997780a39875a767" target="_top" xlink:title="controller.GridInfo.setMax\lCellState">
<polygon fill="white" stroke="black" points="190,-191 190,-221 328,-221 328,-191 190,-191"/>
<text text-anchor="start" x="198" y="-209" font-family="Helvetica,sans-Serif" font-size="10.00">controller.GridInfo.setMax</text>
<text text-anchor="middle" x="259" y="-198" font-family="Helvetica,sans-Serif" font-size="10.00">CellState</text>
</a>
</g>
</g>
<!-- Node1&#45;&gt;Node4 -->
<g id="edge3" class="edge"><title>Node1&#45;&gt;Node4</title>
<path fill="none" stroke="midnightblue" d="M109.309,-158.006C128.688,-165.238 152.467,-173.869 174,-181 180.951,-183.302 188.257,-185.622 195.54,-187.872"/>
<polygon fill="midnightblue" stroke="midnightblue" points="194.833,-191.315 205.419,-190.888 196.877,-184.621 194.833,-191.315"/>
</g>
<!-- Node5 -->
<g id="node5" class="node"><title>Node5</title>
<g id="a_node5"><a xlink:href="../../de/d7a/classcontroller_1_1_grid_info.html#a07fb7e572c36338d7b16bff1764b73cc" target="_top" xlink:title="controller.GridInfo.setParameter">
<polygon fill="white" stroke="black" points="174.5,-152.5 174.5,-171.5 343.5,-171.5 343.5,-152.5 174.5,-152.5"/>
<text text-anchor="middle" x="259" y="-159.5" font-family="Helvetica,sans-Serif" font-size="10.00">controller.GridInfo.setParameter</text>
</a>
</g>
</g>
<!-- Node1&#45;&gt;Node5 -->
<g id="edge4" class="edge"><title>Node1&#45;&gt;Node5</title>
<path fill="none" stroke="midnightblue" d="M137.607,-149.833C146.249,-150.706 155.216,-151.612 164.181,-152.518"/>
<polygon fill="midnightblue" stroke="midnightblue" points="163.982,-156.016 174.284,-153.539 164.686,-149.051 163.982,-156.016"/>
</g>
<!-- Node6 -->
<g id="node6" class="node"><title>Node6</title>
<g id="a_node6"><a xlink:href="../../de/d7a/classcontroller_1_1_grid_info.html#a0b83cf07752c81d1310c2d32b7b93304" target="_top" xlink:title="controller.GridInfo.setParamList">
<polygon fill="white" stroke="black" points="176,-114.5 176,-133.5 342,-133.5 342,-114.5 176,-114.5"/>
<text text-anchor="middle" x="259" y="-121.5" font-family="Helvetica,sans-Serif" font-size="10.00">controller.GridInfo.setParamList</text>
</a>
</g>
</g>
<!-- Node1&#45;&gt;Node6 -->
<g id="edge5" class="edge"><title>Node1&#45;&gt;Node6</title>
<path fill="none" stroke="midnightblue" d="M137.607,-136.167C146.729,-135.245 156.212,-134.287 165.673,-133.331"/>
<polygon fill="midnightblue" stroke="midnightblue" points="166.314,-136.784 175.911,-132.296 165.61,-129.82 166.314,-136.784"/>
</g>
<!-- Node7 -->
<g id="node7" class="node"><title>Node7</title>
<g id="a_node7"><a xlink:href="../../de/d7a/classcontroller_1_1_grid_info.html#a45c9fe4842504c6c77f52167e093beb4" target="_top" xlink:title="controller.GridInfo.setPatchType">
<polygon fill="white" stroke="black" points="176,-76.5 176,-95.5 342,-95.5 342,-76.5 176,-76.5"/>
<text text-anchor="middle" x="259" y="-83.5" font-family="Helvetica,sans-Serif" font-size="10.00">controller.GridInfo.setPatchType</text>
</a>
</g>
</g>
<!-- Node1&#45;&gt;Node7 -->
<g id="edge6" class="edge"><title>Node1&#45;&gt;Node7</title>
<path fill="none" stroke="midnightblue" d="M107.647,-127.925C127.233,-120.419 151.687,-111.571 174,-105 182.742,-102.426 192.084,-100 201.243,-97.7982"/>
<polygon fill="midnightblue" stroke="midnightblue" points="202.133,-101.185 211.074,-95.5006 200.54,-94.3684 202.133,-101.185"/>
</g>
<!-- Node8 -->
<g id="node8" class="node"><title>Node8</title>
<g id="a_node8"><a xlink:href="../../de/d7a/classcontroller_1_1_grid_info.html#a6c5d3e26cafafa7e694eae3214ef76ff" target="_top" xlink:title="controller.GridInfo.setType">
<polygon fill="white" stroke="black" points="189,-38.5 189,-57.5 329,-57.5 329,-38.5 189,-38.5"/>
<text text-anchor="middle" x="259" y="-45.5" font-family="Helvetica,sans-Serif" font-size="10.00">controller.GridInfo.setType</text>
</a>
</g>
</g>
<!-- Node1&#45;&gt;Node8 -->
<g id="edge7" class="edge"><title>Node1&#45;&gt;Node8</title>
<path fill="none" stroke="midnightblue" d="M86.2948,-127.745C105.698,-110.422 139.8,-82.551 174,-67 179.406,-64.5418 185.157,-62.3891 191.015,-60.5061"/>
<polygon fill="midnightblue" stroke="midnightblue" points="192.329,-63.7678 200.933,-57.5857 190.351,-57.0529 192.329,-63.7678"/>
</g>
<!-- Node9 -->
<g id="node9" class="node"><title>Node9</title>
<g id="a_node9"><a xlink:href="../../de/d7a/classcontroller_1_1_grid_info.html#aa1ef6cedb22bcd544e4c21d201c6f6c7" target="_top" xlink:title="controller.GridInfo.setWidth">
<polygon fill="white" stroke="black" points="186.5,-0.5 186.5,-19.5 331.5,-19.5 331.5,-0.5 186.5,-0.5"/>
<text text-anchor="middle" x="259" y="-7.5" font-family="Helvetica,sans-Serif" font-size="10.00">controller.GridInfo.setWidth</text>
</a>
</g>
</g>
<!-- Node1&#45;&gt;Node9 -->
<g id="edge8" class="edge"><title>Node1&#45;&gt;Node9</title>
<path fill="none" stroke="midnightblue" d="M79.4138,-127.711C95.5437,-102.882 130.927,-54.0547 174,-29 177.885,-26.74 182.017,-24.7487 186.282,-22.9943"/>
<polygon fill="midnightblue" stroke="midnightblue" points="187.601,-26.2388 195.792,-19.5194 185.199,-19.664 187.601,-26.2388"/>
</g>
</g>
</svg>
