<?xml version="1.0" encoding="UTF-8" standalone="no"?>
<!DOCTYPE svg PUBLIC "-//W3C//DTD SVG 1.1//EN"
 "http://www.w3.org/Graphics/SVG/1.1/DTD/svg11.dtd">
<!-- Generated by graphviz version 2.36.0 (20140111.2315)
 -->
<!-- Title: controller.Parser.parserXml Pages: 1 -->
<svg width="554pt" height="530pt"
 viewBox="0.00 0.00 554.00 530.00" xmlns="http://www.w3.org/2000/svg" xmlns:xlink="http://www.w3.org/1999/xlink">
<g id="graph0" class="graph" transform="scale(1 1) rotate(0) translate(4 526)">
<title>controller.Parser.parserXml</title>
<polygon fill="white" stroke="none" points="-4,4 -4,-526 550,-526 550,4 -4,4"/>
<!-- Node1 -->
<g id="node1" class="node"><title>Node1</title>
<polygon fill="#bfbfbf" stroke="black" points="0.5,-186.5 0.5,-205.5 145.5,-205.5 145.5,-186.5 0.5,-186.5"/>
<text text-anchor="middle" x="73" y="-193.5" font-family="Helvetica,sans-Serif" font-size="10.00">controller.Parser.parserXml</text>
</g>
<!-- Node2 -->
<g id="node2" class="node"><title>Node2</title>
<g id="a_node2"><a xlink:href="../../d3/d6a/classcontroller_1_1_parser.html#a3cb22c70450e8c7a3adfbeb33cf21309" target="_top" xlink:title="controller.Parser.attribute\lParse">
<polygon fill="white" stroke="black" points="192.5,-333 192.5,-363 329.5,-363 329.5,-333 192.5,-333"/>
<text text-anchor="start" x="200.5" y="-351" font-family="Helvetica,sans-Serif" font-size="10.00">controller.Parser.attribute</text>
<text text-anchor="middle" x="261" y="-340" font-family="Helvetica,sans-Serif" font-size="10.00">Parse</text>
</a>
</g>
</g>
<!-- Node1&#45;&gt;Node2 -->
<g id="edge1" class="edge"><title>Node1&#45;&gt;Node2</title>
<path fill="none" stroke="midnightblue" d="M85.6351,-205.508C114.951,-229.465 192.43,-292.781 233.529,-326.368"/>
<polygon fill="midnightblue" stroke="midnightblue" points="231.52,-329.246 241.478,-332.863 235.949,-323.825 231.52,-329.246"/>
</g>
<!-- Node11 -->
<g id="node11" class="node"><title>Node11</title>
<g id="a_node11"><a xlink:href="../../d3/d6a/classcontroller_1_1_parser.html#a3c0867c9e5b4f1dcfecb43f2730072ca" target="_top" xlink:title="controller.Parser.inputValidion">
<polygon fill="white" stroke="black" points="182.5,-186.5 182.5,-205.5 339.5,-205.5 339.5,-186.5 182.5,-186.5"/>
<text text-anchor="middle" x="261" y="-193.5" font-family="Helvetica,sans-Serif" font-size="10.00">controller.Parser.inputValidion</text>
</a>
</g>
</g>
<!-- Node1&#45;&gt;Node11 -->
<g id="edge10" class="edge"><title>Node1&#45;&gt;Node11</title>
<path fill="none" stroke="midnightblue" d="M145.646,-196C154.346,-196 163.309,-196 172.208,-196"/>
<polygon fill="midnightblue" stroke="midnightblue" points="172.211,-199.5 182.211,-196 172.211,-192.5 172.211,-199.5"/>
</g>
<!-- Node13 -->
<g id="node13" class="node"><title>Node13</title>
<g id="a_node13"><a xlink:href="../../d3/d6a/classcontroller_1_1_parser.html#ab2d2918d4e1dc3f52a137910d14c633d" target="_top" xlink:title="controller.Parser.setCell\lStates">
<polygon fill="white" stroke="black" points="197,-113 197,-143 325,-143 325,-113 197,-113"/>
<text text-anchor="start" x="205" y="-131" font-family="Helvetica,sans-Serif" font-size="10.00">controller.Parser.setCell</text>
<text text-anchor="middle" x="261" y="-120" font-family="Helvetica,sans-Serif" font-size="10.00">States</text>
</a>
</g>
</g>
<!-- Node1&#45;&gt;Node13 -->
<g id="edge12" class="edge"><title>Node1&#45;&gt;Node13</title>
<path fill="none" stroke="midnightblue" d="M100.255,-186.401C128.447,-176.095 173.935,-159.465 209.173,-146.582"/>
<polygon fill="midnightblue" stroke="midnightblue" points="210.628,-149.777 218.818,-143.056 208.224,-143.202 210.628,-149.777"/>
</g>
<!-- Node3 -->
<g id="node3" class="node"><title>Node3</title>
<g id="a_node3"><a xlink:href="../../de/d7a/classcontroller_1_1_grid_info.html#a6247bdec4e9925da19bb5ca9d8b2a4a4" target="_top" xlink:title="controller.GridInfo.setAdjacent">
<polygon fill="white" stroke="black" points="380.5,-502.5 380.5,-521.5 541.5,-521.5 541.5,-502.5 380.5,-502.5"/>
<text text-anchor="middle" x="461" y="-509.5" font-family="Helvetica,sans-Serif" font-size="10.00">controller.GridInfo.setAdjacent</text>
</a>
</g>
</g>
<!-- Node2&#45;&gt;Node3 -->
<g id="edge2" class="edge"><title>Node2&#45;&gt;Node3</title>
<path fill="none" stroke="midnightblue" d="M269.342,-363.094C284.698,-392.974 323.211,-459.647 376,-493 379.387,-495.14 382.986,-497.04 386.714,-498.727"/>
<polygon fill="midnightblue" stroke="midnightblue" points="385.617,-502.058 396.203,-502.498 388.202,-495.552 385.617,-502.058"/>
</g>
<!-- Node4 -->
<g id="node4" class="node"><title>Node4</title>
<g id="a_node4"><a xlink:href="../../de/d7a/classcontroller_1_1_grid_info.html#a9bad52b68d084a34a421652fd07d713c" target="_top" xlink:title="controller.GridInfo.setHeight">
<polygon fill="white" stroke="black" points="386,-464.5 386,-483.5 536,-483.5 536,-464.5 386,-464.5"/>
<text text-anchor="middle" x="461" y="-471.5" font-family="Helvetica,sans-Serif" font-size="10.00">controller.GridInfo.setHeight</text>
</a>
</g>
</g>
<!-- Node2&#45;&gt;Node4 -->
<g id="edge3" class="edge"><title>Node2&#45;&gt;Node4</title>
<path fill="none" stroke="midnightblue" d="M273.886,-363.249C292.878,-386.525 332.395,-430.664 376,-454 381.165,-456.764 386.711,-459.151 392.4,-461.21"/>
<polygon fill="midnightblue" stroke="midnightblue" points="391.476,-464.59 402.069,-464.376 393.655,-457.938 391.476,-464.59"/>
</g>
<!-- Node5 -->
<g id="node5" class="node"><title>Node5</title>
<g id="a_node5"><a xlink:href="../../de/d7a/classcontroller_1_1_grid_info.html#a9d7b3515ea21cc50997780a39875a767" target="_top" xlink:title="controller.GridInfo.setMax\lCellState">
<polygon fill="white" stroke="black" points="392,-415 392,-445 530,-445 530,-415 392,-415"/>
<text text-anchor="start" x="400" y="-433" font-family="Helvetica,sans-Serif" font-size="10.00">controller.GridInfo.setMax</text>
<text text-anchor="middle" x="461" y="-422" font-family="Helvetica,sans-Serif" font-size="10.00">CellState</text>
</a>
</g>
</g>
<!-- Node2&#45;&gt;Node5 -->
<g id="edge4" class="edge"><title>Node2&#45;&gt;Node5</title>
<path fill="none" stroke="midnightblue" d="M289.029,-363.197C311.75,-375.558 345.338,-392.879 376,-405 381.943,-407.349 388.197,-409.601 394.5,-411.723"/>
<polygon fill="midnightblue" stroke="midnightblue" points="393.815,-415.181 404.407,-414.947 395.981,-408.524 393.815,-415.181"/>
</g>
<!-- Node6 -->
<g id="node6" class="node"><title>Node6</title>
<g id="a_node6"><a xlink:href="../../de/d7a/classcontroller_1_1_grid_info.html#a07fb7e572c36338d7b16bff1764b73cc" target="_top" xlink:title="controller.GridInfo.setParameter">
<polygon fill="white" stroke="black" points="376.5,-376.5 376.5,-395.5 545.5,-395.5 545.5,-376.5 376.5,-376.5"/>
<text text-anchor="middle" x="461" y="-383.5" font-family="Helvetica,sans-Serif" font-size="10.00">controller.GridInfo.setParameter</text>
</a>
</g>
</g>
<!-- Node2&#45;&gt;Node6 -->
<g id="edge5" class="edge"><title>Node2&#45;&gt;Node6</title>
<path fill="none" stroke="midnightblue" d="M329.587,-360.971C352.514,-365.371 377.949,-370.253 400.224,-374.528"/>
<polygon fill="midnightblue" stroke="midnightblue" points="399.736,-377.998 410.216,-376.445 401.055,-371.123 399.736,-377.998"/>
</g>
<!-- Node7 -->
<g id="node7" class="node"><title>Node7</title>
<g id="a_node7"><a xlink:href="../../de/d7a/classcontroller_1_1_grid_info.html#a0b83cf07752c81d1310c2d32b7b93304" target="_top" xlink:title="controller.GridInfo.setParamList">
<polygon fill="white" stroke="black" points="378,-338.5 378,-357.5 544,-357.5 544,-338.5 378,-338.5"/>
<text text-anchor="middle" x="461" y="-345.5" font-family="Helvetica,sans-Serif" font-size="10.00">controller.GridInfo.setParamList</text>
</a>
</g>
</g>
<!-- Node2&#45;&gt;Node7 -->
<g id="edge6" class="edge"><title>Node2&#45;&gt;Node7</title>
<path fill="none" stroke="midnightblue" d="M329.587,-348C341.874,-348 354.882,-348 367.737,-348"/>
<polygon fill="midnightblue" stroke="midnightblue" points="367.997,-351.5 377.997,-348 367.997,-344.5 367.997,-351.5"/>
</g>
<!-- Node8 -->
<g id="node8" class="node"><title>Node8</title>
<g id="a_node8"><a xlink:href="../../de/d7a/classcontroller_1_1_grid_info.html#a45c9fe4842504c6c77f52167e093beb4" target="_top" xlink:title="controller.GridInfo.setPatchType">
<polygon fill="white" stroke="black" points="378,-300.5 378,-319.5 544,-319.5 544,-300.5 378,-300.5"/>
<text text-anchor="middle" x="461" y="-307.5" font-family="Helvetica,sans-Serif" font-size="10.00">controller.GridInfo.setPatchType</text>
</a>
</g>
</g>
<!-- Node2&#45;&gt;Node8 -->
<g id="edge7" class="edge"><title>Node2&#45;&gt;Node8</title>
<path fill="none" stroke="midnightblue" d="M329.587,-335.029C352.514,-330.629 377.949,-325.747 400.224,-321.472"/>
<polygon fill="midnightblue" stroke="midnightblue" points="401.055,-324.877 410.216,-319.555 399.736,-318.002 401.055,-324.877"/>
</g>
<!-- Node9 -->
<g id="node9" class="node"><title>Node9</title>
<g id="a_node9"><a xlink:href="../../de/d7a/classcontroller_1_1_grid_info.html#a6c5d3e26cafafa7e694eae3214ef76ff" target="_top" xlink:title="controller.GridInfo.setType">
<polygon fill="white" stroke="black" points="391,-262.5 391,-281.5 531,-281.5 531,-262.5 391,-262.5"/>
<text text-anchor="middle" x="461" y="-269.5" font-family="Helvetica,sans-Serif" font-size="10.00">controller.GridInfo.setType</text>
</a>
</g>
</g>
<!-- Node2&#45;&gt;Node9 -->
<g id="edge8" class="edge"><title>Node2&#45;&gt;Node9</title>
<path fill="none" stroke="midnightblue" d="M287.922,-332.771C310.526,-320.05 344.534,-302.239 376,-291 383.326,-288.383 391.144,-286.045 398.952,-283.981"/>
<polygon fill="midnightblue" stroke="midnightblue" points="399.949,-287.339 408.798,-281.512 398.247,-280.55 399.949,-287.339"/>
</g>
<!-- Node10 -->
<g id="node10" class="node"><title>Node10</title>
<g id="a_node10"><a xlink:href="../../de/d7a/classcontroller_1_1_grid_info.html#aa1ef6cedb22bcd544e4c21d201c6f6c7" target="_top" xlink:title="controller.GridInfo.setWidth">
<polygon fill="white" stroke="black" points="388.5,-224.5 388.5,-243.5 533.5,-243.5 533.5,-224.5 388.5,-224.5"/>
<text text-anchor="middle" x="461" y="-231.5" font-family="Helvetica,sans-Serif" font-size="10.00">controller.GridInfo.setWidth</text>
</a>
</g>
</g>
<!-- Node2&#45;&gt;Node10 -->
<g id="edge9" class="edge"><title>Node2&#45;&gt;Node10</title>
<path fill="none" stroke="midnightblue" d="M275.513,-332.927C295.389,-311.727 334.649,-273.415 376,-253 380.86,-250.601 386.028,-248.5 391.319,-246.661"/>
<polygon fill="midnightblue" stroke="midnightblue" points="392.453,-249.973 400.936,-243.627 390.347,-243.298 392.453,-249.973"/>
</g>
<!-- Node12 -->
<g id="node12" class="node"><title>Node12</title>
<g id="a_node12"><a xlink:href="../../de/d7a/classcontroller_1_1_grid_info.html#aa3ee95078f3742aa392bab45f477a5a5" target="_top" xlink:title="controller.GridInfo.getCellType">
<polygon fill="white" stroke="black" points="382,-186.5 382,-205.5 540,-205.5 540,-186.5 382,-186.5"/>
<text text-anchor="middle" x="461" y="-193.5" font-family="Helvetica,sans-Serif" font-size="10.00">controller.GridInfo.getCellType</text>
</a>
</g>
</g>
<!-- Node11&#45;&gt;Node12 -->
<g id="edge11" class="edge"><title>Node11&#45;&gt;Node12</title>
<path fill="none" stroke="midnightblue" d="M339.687,-196C350.196,-196 361.041,-196 371.718,-196"/>
<polygon fill="midnightblue" stroke="midnightblue" points="371.887,-199.5 381.887,-196 371.887,-192.5 371.887,-199.5"/>
</g>
<!-- Node13&#45;&gt;Node12 -->
<g id="edge13" class="edge"><title>Node13&#45;&gt;Node12</title>
<path fill="none" stroke="midnightblue" d="M293.893,-143.099C316.459,-153.366 347.63,-166.72 376,-176 384.989,-178.94 394.648,-181.646 404.102,-184.054"/>
<polygon fill="midnightblue" stroke="midnightblue" points="403.296,-187.46 413.843,-186.453 404.97,-180.663 403.296,-187.46"/>
</g>
<!-- Node14 -->
<g id="node14" class="node"><title>Node14</title>
<g id="a_node14"><a xlink:href="../../d2/d6e/classsimulation_objects_1_1_cell.html#a23ecd3bd96a8cd054bf310202af9cd2d" target="_top" xlink:title="simulationObjects.Cell.get\lStateTypes">
<polygon fill="white" stroke="black" points="390.5,-137 390.5,-167 531.5,-167 531.5,-137 390.5,-137"/>
<text text-anchor="start" x="398.5" y="-155" font-family="Helvetica,sans-Serif" font-size="10.00">simulationObjects.Cell.get</text>
<text text-anchor="middle" x="461" y="-144" font-family="Helvetica,sans-Serif" font-size="10.00">StateTypes</text>
</a>
</g>
</g>
<!-- Node13&#45;&gt;Node14 -->
<g id="edge14" class="edge"><title>Node13&#45;&gt;Node14</title>
<path fill="none" stroke="midnightblue" d="M325.193,-135.66C342.668,-137.778 361.863,-140.105 380.152,-142.321"/>
<polygon fill="midnightblue" stroke="midnightblue" points="379.854,-145.811 390.202,-143.54 380.696,-138.862 379.854,-145.811"/>
</g>
<!-- Node15 -->
<g id="node15" class="node"><title>Node15</title>
<g id="a_node15"><a xlink:href="../../de/d7a/classcontroller_1_1_grid_info.html#af89dcd48d9c508052c53a54797d06a96" target="_top" xlink:title="controller.GridInfo.setState\lTypes">
<polygon fill="white" stroke="black" points="388.5,-88 388.5,-118 533.5,-118 533.5,-88 388.5,-88"/>
<text text-anchor="start" x="396.5" y="-106" font-family="Helvetica,sans-Serif" font-size="10.00">controller.GridInfo.setState</text>
<text text-anchor="middle" x="461" y="-95" font-family="Helvetica,sans-Serif" font-size="10.00">Types</text>
</a>
</g>
</g>
<!-- Node13&#45;&gt;Node15 -->
<g id="edge15" class="edge"><title>Node13&#45;&gt;Node15</title>
<path fill="none" stroke="midnightblue" d="M325.193,-120.021C342.033,-117.895 360.471,-115.567 378.155,-113.334"/>
<polygon fill="midnightblue" stroke="midnightblue" points="378.98,-116.758 388.463,-112.032 378.103,-109.813 378.98,-116.758"/>
</g>
<!-- Node16 -->
<g id="node16" class="node"><title>Node16</title>
<g id="a_node16"><a xlink:href="../../d2/d6e/classsimulation_objects_1_1_cell.html#addfb21707362a1904e1bff58918ff266" target="_top" xlink:title="simulationObjects.Cell.get\lInitialColors">
<polygon fill="white" stroke="black" points="390.5,-39 390.5,-69 531.5,-69 531.5,-39 390.5,-39"/>
<text text-anchor="start" x="398.5" y="-57" font-family="Helvetica,sans-Serif" font-size="10.00">simulationObjects.Cell.get</text>
<text text-anchor="middle" x="461" y="-46" font-family="Helvetica,sans-Serif" font-size="10.00">InitialColors</text>
</a>
</g>
</g>
<!-- Node13&#45;&gt;Node16 -->
<g id="edge16" class="edge"><title>Node13&#45;&gt;Node16</title>
<path fill="none" stroke="midnightblue" d="M293.474,-112.823C316.109,-102.248 347.535,-88.2558 376,-78 381.576,-75.991 387.407,-74.0361 393.285,-72.1656"/>
<polygon fill="midnightblue" stroke="midnightblue" points="394.667,-75.4019 403.186,-69.1027 392.598,-68.7146 394.667,-75.4019"/>
</g>
<!-- Node17 -->
<g id="node17" class="node"><title>Node17</title>
<g id="a_node17"><a xlink:href="../../de/d7a/classcontroller_1_1_grid_info.html#abf71126b3cab1973d8dd4deac7270fc4" target="_top" xlink:title="controller.GridInfo.setColor">
<polygon fill="white" stroke="black" points="389.5,-0.5 389.5,-19.5 532.5,-19.5 532.5,-0.5 389.5,-0.5"/>
<text text-anchor="middle" x="461" y="-7.5" font-family="Helvetica,sans-Serif" font-size="10.00">controller.GridInfo.setColor</text>
</a>
</g>
</g>
<!-- Node13&#45;&gt;Node17 -->
<g id="edge17" class="edge"><title>Node13&#45;&gt;Node17</title>
<path fill="none" stroke="midnightblue" d="M275.047,-112.641C294.647,-90.601 333.907,-50.3169 376,-29 380.633,-26.6537 385.555,-24.5943 390.603,-22.7872"/>
<polygon fill="midnightblue" stroke="midnightblue" points="391.983,-26.0196 400.422,-19.6137 389.83,-19.3589 391.983,-26.0196"/>
</g>
</g>
</svg>
