<?xml version="1.0" encoding="UTF-8" standalone="no"?>
<!DOCTYPE svg PUBLIC "-//W3C//DTD SVG 1.1//EN"
 "http://www.w3.org/Graphics/SVG/1.1/DTD/svg11.dtd">
<!-- Generated by graphviz version 2.36.0 (20140111.2315)
 -->
<!-- Title: controller.MainController.randomizeGrid Pages: 1 -->
<svg width="1218pt" height="77pt"
 viewBox="0.00 0.00 1218.00 77.00" xmlns="http://www.w3.org/2000/svg" xmlns:xlink="http://www.w3.org/1999/xlink">
<g id="graph0" class="graph" transform="scale(1 1) rotate(0) translate(4 73)">
<title>controller.MainController.randomizeGrid</title>
<polygon fill="white" stroke="none" points="-4,4 -4,-73 1214,-73 1214,4 -4,4"/>
<!-- Node1 -->
<g id="node1" class="node"><title>Node1</title>
<polygon fill="#bfbfbf" stroke="black" points="0,-22.5 0,-41.5 206,-41.5 206,-22.5 0,-22.5"/>
<text text-anchor="middle" x="103" y="-29.5" font-family="Helvetica,sans-Serif" font-size="10.00">controller.MainController.randomizeGrid</text>
</g>
<!-- Node2 -->
<g id="node2" class="node"><title>Node2</title>
<g id="a_node2"><a xlink:href="../../db/d32/classcontroller_1_1_main_controller.html#a2163bf863ed2b2ce85a7adfec03f44c4" target="_top" xlink:title="controller.MainController.setup\lGridConstraints">
<polygon fill="white" stroke="black" points="242,-17 242,-47 404,-47 404,-17 242,-17"/>
<text text-anchor="start" x="250" y="-35" font-family="Helvetica,sans-Serif" font-size="10.00">controller.MainController.setup</text>
<text text-anchor="middle" x="323" y="-24" font-family="Helvetica,sans-Serif" font-size="10.00">GridConstraints</text>
</a>
</g>
</g>
<!-- Node1&#45;&gt;Node2 -->
<g id="edge1" class="edge"><title>Node1&#45;&gt;Node2</title>
<path fill="none" stroke="midnightblue" d="M216.391,-32C224.989,-32 233.559,-32 241.886,-32"/>
<polygon fill="midnightblue" stroke="midnightblue" points="216.298,-28.5001 206.298,-32 216.298,-35.5001 216.298,-28.5001"/>
</g>
<!-- Node3 -->
<g id="node3" class="node"><title>Node3</title>
<g id="a_node3"><a xlink:href="../../db/d32/classcontroller_1_1_main_controller.html#aecc10abc6b55d8b0b4bd152be5c5d3f0" target="_top" xlink:title="controller.MainController.initialize\lSimulationObjects">
<polygon fill="white" stroke="black" points="440.5,-17 440.5,-47 613.5,-47 613.5,-17 440.5,-17"/>
<text text-anchor="start" x="448.5" y="-35" font-family="Helvetica,sans-Serif" font-size="10.00">controller.MainController.initialize</text>
<text text-anchor="middle" x="527" y="-24" font-family="Helvetica,sans-Serif" font-size="10.00">SimulationObjects</text>
</a>
</g>
</g>
<!-- Node2&#45;&gt;Node3 -->
<g id="edge2" class="edge"><title>Node2&#45;&gt;Node3</title>
<path fill="none" stroke="midnightblue" d="M414.244,-32C422.918,-32 431.699,-32 440.327,-32"/>
<polygon fill="midnightblue" stroke="midnightblue" points="414.126,-28.5001 404.126,-32 414.126,-35.5001 414.126,-28.5001"/>
</g>
<!-- Node4 -->
<g id="node4" class="node"><title>Node4</title>
<g id="a_node4"><a xlink:href="../../db/d32/classcontroller_1_1_main_controller.html#a7cfedb8e16c6b9d6394054d03193da82" target="_top" xlink:title="controller.MainController.initialize\lSimulationWithData">
<polygon fill="white" stroke="black" points="650.5,-17 650.5,-47 823.5,-47 823.5,-17 650.5,-17"/>
<text text-anchor="start" x="658.5" y="-35" font-family="Helvetica,sans-Serif" font-size="10.00">controller.MainController.initialize</text>
<text text-anchor="middle" x="737" y="-24" font-family="Helvetica,sans-Serif" font-size="10.00">SimulationWithData</text>
</a>
</g>
</g>
<!-- Node3&#45;&gt;Node4 -->
<g id="edge3" class="edge"><title>Node3&#45;&gt;Node4</title>
<path fill="none" stroke="midnightblue" d="M623.585,-32C632.561,-32 641.62,-32 650.494,-32"/>
<polygon fill="midnightblue" stroke="midnightblue" points="623.502,-28.5001 613.502,-32 623.502,-35.5001 623.502,-28.5001"/>
</g>
<!-- Node5 -->
<g id="node5" class="node"><title>Node5</title>
<g id="a_node5"><a xlink:href="../../db/ddb/classcontroller_1_1_user_interface.html#a9cf1e21253003993661082c9d42926b2" target="_top" xlink:title="controller.UserInterface.make\lBottomPanel">
<polygon fill="white" stroke="black" points="860,-39 860,-69 1018,-69 1018,-39 860,-39"/>
<text text-anchor="start" x="868" y="-57" font-family="Helvetica,sans-Serif" font-size="10.00">controller.UserInterface.make</text>
<text text-anchor="middle" x="939" y="-46" font-family="Helvetica,sans-Serif" font-size="10.00">BottomPanel</text>
</a>
</g>
</g>
<!-- Node4&#45;&gt;Node5 -->
<g id="edge4" class="edge"><title>Node4&#45;&gt;Node5</title>
<path fill="none" stroke="midnightblue" d="M833.848,-42.5432C842.532,-43.4985 851.257,-44.4583 859.762,-45.3939"/>
<polygon fill="midnightblue" stroke="midnightblue" points="834.011,-39.0402 823.688,-41.4257 833.246,-45.9982 834.011,-39.0402"/>
</g>
<!-- Node6 -->
<g id="node6" class="node"><title>Node6</title>
<g id="a_node6"><a xlink:href="../../db/ddb/classcontroller_1_1_user_interface.html#a6dd740b89d748c372a5ef9959e1bd7c4" target="_top" xlink:title="controller.UserInterface.\lUserInterface">
<polygon fill="white" stroke="black" points="1066.5,-39 1066.5,-69 1197.5,-69 1197.5,-39 1066.5,-39"/>
<text text-anchor="start" x="1074.5" y="-57" font-family="Helvetica,sans-Serif" font-size="10.00">controller.UserInterface.</text>
<text text-anchor="middle" x="1132" y="-46" font-family="Helvetica,sans-Serif" font-size="10.00">UserInterface</text>
</a>
</g>
</g>
<!-- Node5&#45;&gt;Node6 -->
<g id="edge5" class="edge"><title>Node5&#45;&gt;Node6</title>
<path fill="none" stroke="midnightblue" d="M1028.41,-54C1041.17,-54 1054.1,-54 1066.27,-54"/>
<polygon fill="midnightblue" stroke="midnightblue" points="1028.24,-50.5001 1018.24,-54 1028.24,-57.5001 1028.24,-50.5001"/>
</g>
<!-- Node7 -->
<g id="node7" class="node"><title>Node7</title>
<g id="a_node7"><a xlink:href="../../db/ddb/classcontroller_1_1_user_interface.html#aad62b84bbc23f683c844ace519feb9d2" target="_top" xlink:title="controller.UserInterface.reset">
<polygon fill="white" stroke="black" points="1054,-0.5 1054,-19.5 1210,-19.5 1210,-0.5 1054,-0.5"/>
<text text-anchor="middle" x="1132" y="-7.5" font-family="Helvetica,sans-Serif" font-size="10.00">controller.UserInterface.reset</text>
</a>
</g>
</g>
<!-- Node5&#45;&gt;Node7 -->
<g id="edge6" class="edge"><title>Node5&#45;&gt;Node7</title>
<path fill="none" stroke="midnightblue" d="M1015.18,-36.6813C1040.56,-30.8352 1067.94,-24.5268 1089.71,-19.5124"/>
<polygon fill="midnightblue" stroke="midnightblue" points="1014.16,-33.3251 1005.2,-38.9808 1015.73,-40.1465 1014.16,-33.3251"/>
</g>
<!-- Node7&#45;&gt;Node4 -->
<g id="edge7" class="edge"><title>Node7&#45;&gt;Node4</title>
<path fill="none" stroke="midnightblue" d="M1043.44,-14.9014C977.942,-18.5682 888.825,-23.5569 823.76,-27.1992"/>
<polygon fill="midnightblue" stroke="midnightblue" points="1043.96,-18.3782 1053.75,-14.3246 1043.57,-11.3891 1043.96,-18.3782"/>
</g>
</g>
</svg>
