<?xml version="1.0" encoding="UTF-8" standalone="no"?>
<!DOCTYPE svg PUBLIC "-//W3C//DTD SVG 1.1//EN"
 "http://www.w3.org/Graphics/SVG/1.1/DTD/svg11.dtd">
<!-- Generated by graphviz version 2.36.0 (20140111.2315)
 -->
<!-- Title: controller.MainController.setupGridConstraints Pages: 1 -->
<svg width="976pt" height="77pt"
 viewBox="0.00 0.00 976.00 77.00" xmlns="http://www.w3.org/2000/svg" xmlns:xlink="http://www.w3.org/1999/xlink">
<g id="graph0" class="graph" transform="scale(1 1) rotate(0) translate(4 73)">
<title>controller.MainController.setupGridConstraints</title>
<polygon fill="white" stroke="none" points="-4,4 -4,-73 972,-73 972,4 -4,4"/>
<!-- Node1 -->
<g id="node1" class="node"><title>Node1</title>
<polygon fill="#bfbfbf" stroke="black" points="0,-17 0,-47 162,-47 162,-17 0,-17"/>
<text text-anchor="start" x="8" y="-35" font-family="Helvetica,sans-Serif" font-size="10.00">controller.MainController.setup</text>
<text text-anchor="middle" x="81" y="-24" font-family="Helvetica,sans-Serif" font-size="10.00">GridConstraints</text>
</g>
<!-- Node2 -->
<g id="node2" class="node"><title>Node2</title>
<g id="a_node2"><a xlink:href="../../db/d32/classcontroller_1_1_main_controller.html#aecc10abc6b55d8b0b4bd152be5c5d3f0" target="_top" xlink:title="controller.MainController.initialize\lSimulationObjects">
<polygon fill="white" stroke="black" points="198.5,-17 198.5,-47 371.5,-47 371.5,-17 198.5,-17"/>
<text text-anchor="start" x="206.5" y="-35" font-family="Helvetica,sans-Serif" font-size="10.00">controller.MainController.initialize</text>
<text text-anchor="middle" x="285" y="-24" font-family="Helvetica,sans-Serif" font-size="10.00">SimulationObjects</text>
</a>
</g>
</g>
<!-- Node1&#45;&gt;Node2 -->
<g id="edge1" class="edge"><title>Node1&#45;&gt;Node2</title>
<path fill="none" stroke="midnightblue" d="M172.244,-32C180.918,-32 189.699,-32 198.327,-32"/>
<polygon fill="midnightblue" stroke="midnightblue" points="172.126,-28.5001 162.126,-32 172.126,-35.5001 172.126,-28.5001"/>
</g>
<!-- Node3 -->
<g id="node3" class="node"><title>Node3</title>
<g id="a_node3"><a xlink:href="../../db/d32/classcontroller_1_1_main_controller.html#a7cfedb8e16c6b9d6394054d03193da82" target="_top" xlink:title="controller.MainController.initialize\lSimulationWithData">
<polygon fill="white" stroke="black" points="408.5,-17 408.5,-47 581.5,-47 581.5,-17 408.5,-17"/>
<text text-anchor="start" x="416.5" y="-35" font-family="Helvetica,sans-Serif" font-size="10.00">controller.MainController.initialize</text>
<text text-anchor="middle" x="495" y="-24" font-family="Helvetica,sans-Serif" font-size="10.00">SimulationWithData</text>
</a>
</g>
</g>
<!-- Node2&#45;&gt;Node3 -->
<g id="edge2" class="edge"><title>Node2&#45;&gt;Node3</title>
<path fill="none" stroke="midnightblue" d="M381.585,-32C390.561,-32 399.62,-32 408.494,-32"/>
<polygon fill="midnightblue" stroke="midnightblue" points="381.502,-28.5001 371.502,-32 381.502,-35.5001 381.502,-28.5001"/>
</g>
<!-- Node4 -->
<g id="node4" class="node"><title>Node4</title>
<g id="a_node4"><a xlink:href="../../db/ddb/classcontroller_1_1_user_interface.html#a9cf1e21253003993661082c9d42926b2" target="_top" xlink:title="controller.UserInterface.make\lBottomPanel">
<polygon fill="white" stroke="black" points="618,-39 618,-69 776,-69 776,-39 618,-39"/>
<text text-anchor="start" x="626" y="-57" font-family="Helvetica,sans-Serif" font-size="10.00">controller.UserInterface.make</text>
<text text-anchor="middle" x="697" y="-46" font-family="Helvetica,sans-Serif" font-size="10.00">BottomPanel</text>
</a>
</g>
</g>
<!-- Node3&#45;&gt;Node4 -->
<g id="edge3" class="edge"><title>Node3&#45;&gt;Node4</title>
<path fill="none" stroke="midnightblue" d="M591.848,-42.5432C600.532,-43.4985 609.257,-44.4583 617.762,-45.3939"/>
<polygon fill="midnightblue" stroke="midnightblue" points="592.011,-39.0402 581.688,-41.4257 591.246,-45.9982 592.011,-39.0402"/>
</g>
<!-- Node5 -->
<g id="node5" class="node"><title>Node5</title>
<g id="a_node5"><a xlink:href="../../db/ddb/classcontroller_1_1_user_interface.html#a6dd740b89d748c372a5ef9959e1bd7c4" target="_top" xlink:title="controller.UserInterface.\lUserInterface">
<polygon fill="white" stroke="black" points="824.5,-39 824.5,-69 955.5,-69 955.5,-39 824.5,-39"/>
<text text-anchor="start" x="832.5" y="-57" font-family="Helvetica,sans-Serif" font-size="10.00">controller.UserInterface.</text>
<text text-anchor="middle" x="890" y="-46" font-family="Helvetica,sans-Serif" font-size="10.00">UserInterface</text>
</a>
</g>
</g>
<!-- Node4&#45;&gt;Node5 -->
<g id="edge4" class="edge"><title>Node4&#45;&gt;Node5</title>
<path fill="none" stroke="midnightblue" d="M786.415,-54C799.171,-54 812.097,-54 824.275,-54"/>
<polygon fill="midnightblue" stroke="midnightblue" points="786.238,-50.5001 776.238,-54 786.238,-57.5001 786.238,-50.5001"/>
</g>
<!-- Node6 -->
<g id="node6" class="node"><title>Node6</title>
<g id="a_node6"><a xlink:href="../../db/ddb/classcontroller_1_1_user_interface.html#aad62b84bbc23f683c844ace519feb9d2" target="_top" xlink:title="controller.UserInterface.reset">
<polygon fill="white" stroke="black" points="812,-0.5 812,-19.5 968,-19.5 968,-0.5 812,-0.5"/>
<text text-anchor="middle" x="890" y="-7.5" font-family="Helvetica,sans-Serif" font-size="10.00">controller.UserInterface.reset</text>
</a>
</g>
</g>
<!-- Node4&#45;&gt;Node6 -->
<g id="edge5" class="edge"><title>Node4&#45;&gt;Node6</title>
<path fill="none" stroke="midnightblue" d="M773.179,-36.6813C798.556,-30.8352 825.941,-24.5268 847.707,-19.5124"/>
<polygon fill="midnightblue" stroke="midnightblue" points="772.156,-33.3251 763.197,-38.9808 773.728,-40.1465 772.156,-33.3251"/>
</g>
<!-- Node6&#45;&gt;Node3 -->
<g id="edge6" class="edge"><title>Node6&#45;&gt;Node3</title>
<path fill="none" stroke="midnightblue" d="M801.444,-14.9014C735.942,-18.5682 646.825,-23.5569 581.76,-27.1992"/>
<polygon fill="midnightblue" stroke="midnightblue" points="801.958,-18.3782 811.747,-14.3246 801.566,-11.3891 801.958,-18.3782"/>
</g>
</g>
</svg>
