<?xml version="1.0" encoding="UTF-8" standalone="no"?>
<!DOCTYPE svg PUBLIC "-//W3C//DTD SVG 1.1//EN"
 "http://www.w3.org/Graphics/SVG/1.1/DTD/svg11.dtd">
<!-- Generated by graphviz version 2.36.0 (20140111.2315)
 -->
<!-- Title: controller.MainController.createGrid Pages: 1 -->
<svg width="1466pt" height="277pt"
 viewBox="0.00 0.00 1466.00 277.00" xmlns="http://www.w3.org/2000/svg" xmlns:xlink="http://www.w3.org/1999/xlink">
<g id="graph0" class="graph" transform="scale(1 1) rotate(0) translate(4 273)">
<title>controller.MainController.createGrid</title>
<polygon fill="white" stroke="none" points="-4,4 -4,-273 1462,-273 1462,4 -4,4"/>
<!-- Node1 -->
<g id="node1" class="node"><title>Node1</title>
<polygon fill="#bfbfbf" stroke="black" points="0.5,-211.5 0.5,-230.5 185.5,-230.5 185.5,-211.5 0.5,-211.5"/>
<text text-anchor="middle" x="93" y="-218.5" font-family="Helvetica,sans-Serif" font-size="10.00">controller.MainController.createGrid</text>
</g>
<!-- Node2 -->
<g id="node2" class="node"><title>Node2</title>
<g id="a_node2"><a xlink:href="../../db/ddb/classcontroller_1_1_user_interface.html#ad84ee710ce69ac5712236c30390087d4" target="_top" xlink:title="controller.UserInterface.addNode">
<polygon fill="white" stroke="black" points="231.5,-249.5 231.5,-268.5 406.5,-268.5 406.5,-249.5 231.5,-249.5"/>
<text text-anchor="middle" x="319" y="-256.5" font-family="Helvetica,sans-Serif" font-size="10.00">controller.UserInterface.addNode</text>
</a>
</g>
</g>
<!-- Node1&#45;&gt;Node2 -->
<g id="edge1" class="edge"><title>Node1&#45;&gt;Node2</title>
<path fill="none" stroke="midnightblue" d="M150.236,-230.54C180.991,-235.757 219.278,-242.253 251.507,-247.72"/>
<polygon fill="midnightblue" stroke="midnightblue" points="251.297,-251.234 261.741,-249.456 252.468,-244.333 251.297,-251.234"/>
</g>
<!-- Node3 -->
<g id="node3" class="node"><title>Node3</title>
<g id="a_node3"><a xlink:href="../../db/ddb/classcontroller_1_1_user_interface.html#a010c5dc453bd95b1ca3c18d5a9229c45" target="_top" xlink:title="controller.UserInterface.removeNode">
<polygon fill="white" stroke="black" points="222,-211.5 222,-230.5 416,-230.5 416,-211.5 222,-211.5"/>
<text text-anchor="middle" x="319" y="-218.5" font-family="Helvetica,sans-Serif" font-size="10.00">controller.UserInterface.removeNode</text>
</a>
</g>
</g>
<!-- Node1&#45;&gt;Node3 -->
<g id="edge2" class="edge"><title>Node1&#45;&gt;Node3</title>
<path fill="none" stroke="midnightblue" d="M185.756,-221C194.266,-221 202.938,-221 211.565,-221"/>
<polygon fill="midnightblue" stroke="midnightblue" points="211.661,-224.5 221.661,-221 211.661,-217.5 211.661,-224.5"/>
</g>
<!-- Node4 -->
<g id="node4" class="node"><title>Node4</title>
<g id="a_node4"><a xlink:href="../../db/d32/classcontroller_1_1_main_controller.html#a20c66a59cfde2b9f8ac2b8bf67e3996d" target="_top" xlink:title="controller.MainController.toggle\lCellStateForMouseEvent">
<polygon fill="white" stroke="black" points="236.5,-162 236.5,-192 401.5,-192 401.5,-162 236.5,-162"/>
<text text-anchor="start" x="244.5" y="-180" font-family="Helvetica,sans-Serif" font-size="10.00">controller.MainController.toggle</text>
<text text-anchor="middle" x="319" y="-169" font-family="Helvetica,sans-Serif" font-size="10.00">CellStateForMouseEvent</text>
</a>
</g>
</g>
<!-- Node1&#45;&gt;Node4 -->
<g id="edge3" class="edge"><title>Node1&#45;&gt;Node4</title>
<path fill="none" stroke="midnightblue" d="M142.605,-211.453C168.5,-206.366 201.137,-199.955 231.215,-194.047"/>
<polygon fill="midnightblue" stroke="midnightblue" points="232.166,-197.427 241.304,-192.065 230.816,-190.559 232.166,-197.427"/>
</g>
<!-- Node5 -->
<g id="node5" class="node"><title>Node5</title>
<g id="a_node5"><a xlink:href="../../d7/d97/classcontroller_1_1_grid.html#a1a162616b0d12d2dcd2bf3f34d45b88f" target="_top" xlink:title="controller.Grid.getPatch\lAtCoordinate">
<polygon fill="white" stroke="black" points="470,-187 470,-217 598,-217 598,-187 470,-187"/>
<text text-anchor="start" x="478" y="-205" font-family="Helvetica,sans-Serif" font-size="10.00">controller.Grid.getPatch</text>
<text text-anchor="middle" x="534" y="-194" font-family="Helvetica,sans-Serif" font-size="10.00">AtCoordinate</text>
</a>
</g>
</g>
<!-- Node4&#45;&gt;Node5 -->
<g id="edge4" class="edge"><title>Node4&#45;&gt;Node5</title>
<path fill="none" stroke="midnightblue" d="M401.742,-186.594C420.748,-188.825 440.867,-191.186 459.492,-193.372"/>
<polygon fill="midnightblue" stroke="midnightblue" points="459.33,-196.877 469.67,-194.567 460.146,-189.925 459.33,-196.877"/>
</g>
<!-- Node6 -->
<g id="node6" class="node"><title>Node6</title>
<g id="a_node6"><a xlink:href="../../d5/da5/classsimulation_objects_1_1_patch.html#a982ffbab2f32d5955c2c59b5a89fc4a1" target="_top" xlink:title="simulationObjects.Patch.toggle\lCellState">
<polygon fill="white" stroke="black" points="452,-138 452,-168 616,-168 616,-138 452,-138"/>
<text text-anchor="start" x="460" y="-156" font-family="Helvetica,sans-Serif" font-size="10.00">simulationObjects.Patch.toggle</text>
<text text-anchor="middle" x="534" y="-145" font-family="Helvetica,sans-Serif" font-size="10.00">CellState</text>
</a>
</g>
</g>
<!-- Node4&#45;&gt;Node6 -->
<g id="edge5" class="edge"><title>Node4&#45;&gt;Node6</title>
<path fill="none" stroke="midnightblue" d="M401.742,-167.79C414.831,-166.315 428.447,-164.781 441.74,-163.283"/>
<polygon fill="midnightblue" stroke="midnightblue" points="442.283,-166.744 451.828,-162.146 441.499,-159.788 442.283,-166.744"/>
</g>
<!-- Node7 -->
<g id="node7" class="node"><title>Node7</title>
<g id="a_node7"><a xlink:href="../../d2/d6e/classsimulation_objects_1_1_cell.html#a8b09099316cc34ad6f5ceec3d03d7584" target="_top" xlink:title="simulationObjects.Cell.get\lNextState">
<polygon fill="white" stroke="black" points="664.5,-203 664.5,-233 805.5,-233 805.5,-203 664.5,-203"/>
<text text-anchor="start" x="672.5" y="-221" font-family="Helvetica,sans-Serif" font-size="10.00">simulationObjects.Cell.get</text>
<text text-anchor="middle" x="735" y="-210" font-family="Helvetica,sans-Serif" font-size="10.00">NextState</text>
</a>
</g>
</g>
<!-- Node6&#45;&gt;Node7 -->
<g id="edge6" class="edge"><title>Node6&#45;&gt;Node7</title>
<path fill="none" stroke="midnightblue" d="M586.963,-168.008C596.639,-170.913 606.645,-173.991 616,-177 637.922,-184.052 661.96,-192.308 682.586,-199.555"/>
<polygon fill="midnightblue" stroke="midnightblue" points="681.512,-202.888 692.107,-202.914 683.841,-196.287 681.512,-202.888"/>
</g>
<!-- Node8 -->
<g id="node8" class="node"><title>Node8</title>
<g id="a_node8"><a xlink:href="../../d5/da5/classsimulation_objects_1_1_patch.html#ac18f8e7cdd82ed885a6a92f066da2d38" target="_top" xlink:title="simulationObjects.Patch.removeCell">
<polygon fill="white" stroke="black" points="1060,-142.5 1060,-161.5 1248,-161.5 1248,-142.5 1060,-142.5"/>
<text text-anchor="middle" x="1154" y="-149.5" font-family="Helvetica,sans-Serif" font-size="10.00">simulationObjects.Patch.removeCell</text>
</a>
</g>
</g>
<!-- Node6&#45;&gt;Node8 -->
<g id="edge7" class="edge"><title>Node6&#45;&gt;Node8</title>
<path fill="none" stroke="midnightblue" d="M616.188,-155.351C628.195,-155.62 640.419,-155.852 652,-156 817.322,-158.119 858.677,-156.084 1024,-154 1032.37,-153.894 1041.05,-153.777 1049.76,-153.654"/>
<polygon fill="midnightblue" stroke="midnightblue" points="1050.04,-157.15 1059.99,-153.506 1049.94,-150.151 1050.04,-157.15"/>
</g>
<!-- Node9 -->
<g id="node9" class="node"><title>Node9</title>
<g id="a_node9"><a xlink:href="../../d2/d6e/classsimulation_objects_1_1_cell.html#ab7b10d67ea8a16bcb15cc2b8d079b3a1" target="_top" xlink:title="simulationObjects.Cell.set\lState">
<polygon fill="white" stroke="black" points="869,-115 869,-145 1009,-145 1009,-115 869,-115"/>
<text text-anchor="start" x="877" y="-133" font-family="Helvetica,sans-Serif" font-size="10.00">simulationObjects.Cell.set</text>
<text text-anchor="middle" x="939" y="-122" font-family="Helvetica,sans-Serif" font-size="10.00">State</text>
</a>
</g>
</g>
<!-- Node6&#45;&gt;Node9 -->
<g id="edge8" class="edge"><title>Node6&#45;&gt;Node9</title>
<path fill="none" stroke="midnightblue" d="M616.068,-148.373C686.72,-144.341 788.572,-138.528 858.698,-134.526"/>
<polygon fill="midnightblue" stroke="midnightblue" points="859.022,-138.013 868.806,-133.949 858.623,-131.025 859.022,-138.013"/>
</g>
<!-- Node10 -->
<g id="node10" class="node"><title>Node10</title>
<g id="a_node10"><a xlink:href="../../d5/da5/classsimulation_objects_1_1_patch.html#a801de23da5dcdf2e6914b939deefe67e" target="_top" xlink:title="simulationObjects.Patch.create\lNewCell">
<polygon fill="white" stroke="black" points="652.5,-71 652.5,-101 817.5,-101 817.5,-71 652.5,-71"/>
<text text-anchor="start" x="660.5" y="-89" font-family="Helvetica,sans-Serif" font-size="10.00">simulationObjects.Patch.create</text>
<text text-anchor="middle" x="735" y="-78" font-family="Helvetica,sans-Serif" font-size="10.00">NewCell</text>
</a>
</g>
</g>
<!-- Node6&#45;&gt;Node10 -->
<g id="edge9" class="edge"><title>Node6&#45;&gt;Node10</title>
<path fill="none" stroke="midnightblue" d="M579.659,-137.964C609.257,-127.999 648.269,-114.864 679.665,-104.294"/>
<polygon fill="midnightblue" stroke="midnightblue" points="680.785,-107.61 689.146,-101.102 678.552,-100.976 680.785,-107.61"/>
</g>
<!-- Node10&#45;&gt;Node9 -->
<g id="edge16" class="edge"><title>Node10&#45;&gt;Node9</title>
<path fill="none" stroke="midnightblue" d="M804.952,-101.019C822.407,-104.821 841.286,-108.934 859.187,-112.833"/>
<polygon fill="midnightblue" stroke="midnightblue" points="858.5,-116.265 869.016,-114.974 859.99,-109.426 858.5,-116.265"/>
</g>
<!-- Node11 -->
<g id="node11" class="node"><title>Node11</title>
<g id="a_node11"><a xlink:href="../../d5/da5/classsimulation_objects_1_1_patch.html#ac05b7dd86c9f30b498d93d62cbbba9a4" target="_top" xlink:title="simulationObjects.Patch.addCell">
<polygon fill="white" stroke="black" points="854,-76.5 854,-95.5 1024,-95.5 1024,-76.5 854,-76.5"/>
<text text-anchor="middle" x="939" y="-83.5" font-family="Helvetica,sans-Serif" font-size="10.00">simulationObjects.Patch.addCell</text>
</a>
</g>
</g>
<!-- Node10&#45;&gt;Node11 -->
<g id="edge10" class="edge"><title>Node10&#45;&gt;Node11</title>
<path fill="none" stroke="midnightblue" d="M817.579,-86C826.157,-86 834.93,-86 843.637,-86"/>
<polygon fill="midnightblue" stroke="midnightblue" points="843.811,-89.5001 853.811,-86 843.811,-82.5001 843.811,-89.5001"/>
</g>
<!-- Node16 -->
<g id="node16" class="node"><title>Node16</title>
<g id="a_node16"><a xlink:href="../../d2/d6e/classsimulation_objects_1_1_cell.html#a79ed116f88362c4ef4d906c7a6988fe1" target="_top" xlink:title="simulationObjects.Cell.setX">
<polygon fill="white" stroke="black" points="866,-38.5 866,-57.5 1012,-57.5 1012,-38.5 866,-38.5"/>
<text text-anchor="middle" x="939" y="-45.5" font-family="Helvetica,sans-Serif" font-size="10.00">simulationObjects.Cell.setX</text>
</a>
</g>
</g>
<!-- Node10&#45;&gt;Node16 -->
<g id="edge17" class="edge"><title>Node10&#45;&gt;Node16</title>
<path fill="none" stroke="midnightblue" d="M815.836,-70.9814C836.402,-67.1125 858.194,-63.0131 877.59,-59.3643"/>
<polygon fill="midnightblue" stroke="midnightblue" points="878.315,-62.7894 887.495,-57.5009 877.02,-55.9101 878.315,-62.7894"/>
</g>
<!-- Node17 -->
<g id="node17" class="node"><title>Node17</title>
<g id="a_node17"><a xlink:href="../../d2/d6e/classsimulation_objects_1_1_cell.html#a94febf4dbd9046affdb7f81e36b8c164" target="_top" xlink:title="simulationObjects.Cell.setY">
<polygon fill="white" stroke="black" points="866,-0.5 866,-19.5 1012,-19.5 1012,-0.5 866,-0.5"/>
<text text-anchor="middle" x="939" y="-7.5" font-family="Helvetica,sans-Serif" font-size="10.00">simulationObjects.Cell.setY</text>
</a>
</g>
</g>
<!-- Node10&#45;&gt;Node17 -->
<g id="edge18" class="edge"><title>Node10&#45;&gt;Node17</title>
<path fill="none" stroke="midnightblue" d="M762.902,-70.8192C786.343,-58.1288 821.57,-40.3342 854,-29 861.526,-26.3698 869.561,-24.0109 877.566,-21.9246"/>
<polygon fill="midnightblue" stroke="midnightblue" points="878.417,-25.3196 887.28,-19.5148 876.732,-18.5256 878.417,-25.3196"/>
</g>
<!-- Node11&#45;&gt;Node8 -->
<g id="edge11" class="edge"><title>Node11&#45;&gt;Node8</title>
<path fill="none" stroke="midnightblue" d="M986.924,-95.5081C999.078,-98.2721 1012.09,-101.5 1024,-105 1057.26,-114.776 1094.36,-128.612 1120.2,-138.74"/>
<polygon fill="midnightblue" stroke="midnightblue" points="1118.94,-142.004 1129.52,-142.424 1121.51,-135.494 1118.94,-142.004"/>
</g>
<!-- Node12 -->
<g id="node12" class="node"><title>Node12</title>
<g id="a_node12"><a xlink:href="../../d5/da5/classsimulation_objects_1_1_patch.html#a06f00537a57f3678cf147c580b92de0d" target="_top" xlink:title="simulationObjects.Patch.update\lCellConstraints">
<polygon fill="white" stroke="black" points="1070,-71 1070,-101 1238,-101 1238,-71 1070,-71"/>
<text text-anchor="start" x="1078" y="-89" font-family="Helvetica,sans-Serif" font-size="10.00">simulationObjects.Patch.update</text>
<text text-anchor="middle" x="1154" y="-78" font-family="Helvetica,sans-Serif" font-size="10.00">CellConstraints</text>
</a>
</g>
</g>
<!-- Node11&#45;&gt;Node12 -->
<g id="edge12" class="edge"><title>Node11&#45;&gt;Node12</title>
<path fill="none" stroke="midnightblue" d="M1024.18,-86C1035.79,-86 1047.76,-86 1059.51,-86"/>
<polygon fill="midnightblue" stroke="midnightblue" points="1059.78,-89.5001 1069.78,-86 1059.78,-82.5001 1059.78,-89.5001"/>
</g>
<!-- Node13 -->
<g id="node13" class="node"><title>Node13</title>
<g id="a_node13"><a xlink:href="../../d0/d1a/classsimulation_objects_1_1_patch_body.html#a466dadbe30fb2f8360163881e0db9295" target="_top" xlink:title="simulationObjects.PatchBody.get\lPatchWidth">
<polygon fill="white" stroke="black" points="1284.5,-120 1284.5,-150 1457.5,-150 1457.5,-120 1284.5,-120"/>
<text text-anchor="start" x="1292.5" y="-138" font-family="Helvetica,sans-Serif" font-size="10.00">simulationObjects.PatchBody.get</text>
<text text-anchor="middle" x="1371" y="-127" font-family="Helvetica,sans-Serif" font-size="10.00">PatchWidth</text>
</a>
</g>
</g>
<!-- Node12&#45;&gt;Node13 -->
<g id="edge13" class="edge"><title>Node12&#45;&gt;Node13</title>
<path fill="none" stroke="midnightblue" d="M1220.97,-101.035C1244.19,-106.326 1270.46,-112.313 1294.4,-117.771"/>
<polygon fill="midnightblue" stroke="midnightblue" points="1293.63,-121.184 1304.16,-119.994 1295.18,-114.359 1293.63,-121.184"/>
</g>
<!-- Node14 -->
<g id="node14" class="node"><title>Node14</title>
<g id="a_node14"><a xlink:href="../../d0/d1a/classsimulation_objects_1_1_patch_body.html#a7be1762ade4eaee79c26ac524eb97f33" target="_top" xlink:title="simulationObjects.PatchBody.get\lCenter">
<polygon fill="white" stroke="black" points="1284.5,-71 1284.5,-101 1457.5,-101 1457.5,-71 1284.5,-71"/>
<text text-anchor="start" x="1292.5" y="-89" font-family="Helvetica,sans-Serif" font-size="10.00">simulationObjects.PatchBody.get</text>
<text text-anchor="middle" x="1371" y="-78" font-family="Helvetica,sans-Serif" font-size="10.00">Center</text>
</a>
</g>
</g>
<!-- Node12&#45;&gt;Node14 -->
<g id="edge14" class="edge"><title>Node12&#45;&gt;Node14</title>
<path fill="none" stroke="midnightblue" d="M1238.12,-86C1249.94,-86 1262.17,-86 1274.21,-86"/>
<polygon fill="midnightblue" stroke="midnightblue" points="1274.25,-89.5001 1284.25,-86 1274.25,-82.5001 1274.25,-89.5001"/>
</g>
<!-- Node15 -->
<g id="node15" class="node"><title>Node15</title>
<g id="a_node15"><a xlink:href="../../d0/d1a/classsimulation_objects_1_1_patch_body.html#a268e88a7cb1f5feb98f49e230475c2ba" target="_top" xlink:title="simulationObjects.PatchBody.get\lPatchHeight">
<polygon fill="white" stroke="black" points="1284.5,-22 1284.5,-52 1457.5,-52 1457.5,-22 1284.5,-22"/>
<text text-anchor="start" x="1292.5" y="-40" font-family="Helvetica,sans-Serif" font-size="10.00">simulationObjects.PatchBody.get</text>
<text text-anchor="middle" x="1371" y="-29" font-family="Helvetica,sans-Serif" font-size="10.00">PatchHeight</text>
</a>
</g>
</g>
<!-- Node12&#45;&gt;Node15 -->
<g id="edge15" class="edge"><title>Node12&#45;&gt;Node15</title>
<path fill="none" stroke="midnightblue" d="M1220.97,-70.9654C1244.19,-65.6741 1270.46,-59.6867 1294.4,-54.2288"/>
<polygon fill="midnightblue" stroke="midnightblue" points="1295.18,-57.6409 1304.16,-52.0062 1293.63,-50.8159 1295.18,-57.6409"/>
</g>
</g>
</svg>
