<?xml version="1.0" encoding="UTF-8" standalone="no"?>
<!DOCTYPE svg PUBLIC "-//W3C//DTD SVG 1.1//EN"
 "http://www.w3.org/Graphics/SVG/1.1/DTD/svg11.dtd">
<!-- Generated by graphviz version 2.36.0 (20140111.2315)
 -->
<!-- Title: controller.MainController.stepSimulation Pages: 1 -->
<svg width="994pt" height="273pt"
 viewBox="0.00 0.00 994.00 273.00" xmlns="http://www.w3.org/2000/svg" xmlns:xlink="http://www.w3.org/1999/xlink">
<g id="graph0" class="graph" transform="scale(1 1) rotate(0) translate(4 269)">
<title>controller.MainController.stepSimulation</title>
<polygon fill="white" stroke="none" points="-4,4 -4,-269 990,-269 990,4 -4,4"/>
<!-- Node1 -->
<g id="node1" class="node"><title>Node1</title>
<polygon fill="#bfbfbf" stroke="black" points="0,-167 0,-197 156,-197 156,-167 0,-167"/>
<text text-anchor="start" x="8" y="-185" font-family="Helvetica,sans-Serif" font-size="10.00">controller.MainController.step</text>
<text text-anchor="middle" x="78" y="-174" font-family="Helvetica,sans-Serif" font-size="10.00">Simulation</text>
</g>
<!-- Node2 -->
<g id="node2" class="node"><title>Node2</title>
<g id="a_node2"><a xlink:href="../../de/d4d/classcontroller_1_1_simulation_chart.html#a64bd87c0d5164cbd5e84dddeba124a6c" target="_top" xlink:title="controller.SimulationChart.update\lDisplay">
<polygon fill="white" stroke="black" points="192,-191 192,-221 370,-221 370,-191 192,-191"/>
<text text-anchor="start" x="200" y="-209" font-family="Helvetica,sans-Serif" font-size="10.00">controller.SimulationChart.update</text>
<text text-anchor="middle" x="281" y="-198" font-family="Helvetica,sans-Serif" font-size="10.00">Display</text>
</a>
</g>
</g>
<!-- Node1&#45;&gt;Node2 -->
<g id="edge1" class="edge"><title>Node1&#45;&gt;Node2</title>
<path fill="none" stroke="midnightblue" d="M156.137,-191.21C164.492,-192.208 173.075,-193.233 181.638,-194.255"/>
<polygon fill="midnightblue" stroke="midnightblue" points="181.32,-197.742 191.665,-195.453 182.15,-190.792 181.32,-197.742"/>
</g>
<!-- Node6 -->
<g id="node6" class="node"><title>Node6</title>
<g id="a_node6"><a xlink:href="../../d7/d97/classcontroller_1_1_grid.html#a9d953304e003d02db9447cd636efce3a" target="_top" xlink:title="controller.Grid.updateGrid">
<polygon fill="white" stroke="black" points="211,-126.5 211,-145.5 351,-145.5 351,-126.5 211,-126.5"/>
<text text-anchor="middle" x="281" y="-133.5" font-family="Helvetica,sans-Serif" font-size="10.00">controller.Grid.updateGrid</text>
</a>
</g>
</g>
<!-- Node1&#45;&gt;Node6 -->
<g id="edge5" class="edge"><title>Node1&#45;&gt;Node6</title>
<path fill="none" stroke="midnightblue" d="M144.815,-166.938C172.004,-160.715 203.054,-153.61 228.534,-147.778"/>
<polygon fill="midnightblue" stroke="midnightblue" points="229.397,-151.171 238.364,-145.529 227.835,-144.348 229.397,-151.171"/>
</g>
<!-- Node3 -->
<g id="node3" class="node"><title>Node3</title>
<g id="a_node3"><a xlink:href="../../de/d4d/classcontroller_1_1_simulation_chart.html#a57c1893e8c3ae7efa036d649da8c3fe9" target="_top" xlink:title="controller.SimulationChart.check\lBoundaryAndReset">
<polygon fill="white" stroke="black" points="413,-235 413,-265 585,-265 585,-235 413,-235"/>
<text text-anchor="start" x="421" y="-253" font-family="Helvetica,sans-Serif" font-size="10.00">controller.SimulationChart.check</text>
<text text-anchor="middle" x="499" y="-242" font-family="Helvetica,sans-Serif" font-size="10.00">BoundaryAndReset</text>
</a>
</g>
</g>
<!-- Node2&#45;&gt;Node3 -->
<g id="edge2" class="edge"><title>Node2&#45;&gt;Node3</title>
<path fill="none" stroke="midnightblue" d="M355.731,-221.019C374.568,-224.856 394.957,-229.01 414.256,-232.941"/>
<polygon fill="midnightblue" stroke="midnightblue" points="413.738,-236.407 424.235,-234.974 415.135,-229.548 413.738,-236.407"/>
</g>
<!-- Node4 -->
<g id="node4" class="node"><title>Node4</title>
<g id="a_node4"><a xlink:href="../../de/d4d/classcontroller_1_1_simulation_chart.html#aca1714f6b0633c14a2d35c60e50f08b6" target="_top" xlink:title="controller.SimulationChart.plotData">
<polygon fill="white" stroke="black" points="406.5,-196.5 406.5,-215.5 591.5,-215.5 591.5,-196.5 406.5,-196.5"/>
<text text-anchor="middle" x="499" y="-203.5" font-family="Helvetica,sans-Serif" font-size="10.00">controller.SimulationChart.plotData</text>
</a>
</g>
</g>
<!-- Node2&#45;&gt;Node4 -->
<g id="edge3" class="edge"><title>Node2&#45;&gt;Node4</title>
<path fill="none" stroke="midnightblue" d="M370.167,-206C378.719,-206 387.443,-206 396.114,-206"/>
<polygon fill="midnightblue" stroke="midnightblue" points="396.256,-209.5 406.256,-206 396.256,-202.5 396.256,-209.5"/>
</g>
<!-- Node5 -->
<g id="node5" class="node"><title>Node5</title>
<g id="a_node5"><a xlink:href="../../d7/d97/classcontroller_1_1_grid.html#aeb4ca12da867e81ef87591e54766bb6b" target="_top" xlink:title="controller.Grid.getCellCounts">
<polygon fill="white" stroke="black" points="628.5,-196.5 628.5,-215.5 781.5,-215.5 781.5,-196.5 628.5,-196.5"/>
<text text-anchor="middle" x="705" y="-203.5" font-family="Helvetica,sans-Serif" font-size="10.00">controller.Grid.getCellCounts</text>
</a>
</g>
</g>
<!-- Node4&#45;&gt;Node5 -->
<g id="edge4" class="edge"><title>Node4&#45;&gt;Node5</title>
<path fill="none" stroke="midnightblue" d="M591.557,-206C600.388,-206 609.325,-206 618.099,-206"/>
<polygon fill="midnightblue" stroke="midnightblue" points="618.307,-209.5 628.307,-206 618.307,-202.5 618.307,-209.5"/>
</g>
<!-- Node7 -->
<g id="node7" class="node"><title>Node7</title>
<g id="a_node7"><a xlink:href="../../d7/d97/classcontroller_1_1_grid.html#aba9b0cc8014549df640cefa226befb9e" target="_top" xlink:title="controller.Grid.prepareTo\lUpdateAllPatches">
<polygon fill="white" stroke="black" points="432,-147 432,-177 566,-177 566,-147 432,-147"/>
<text text-anchor="start" x="440" y="-165" font-family="Helvetica,sans-Serif" font-size="10.00">controller.Grid.prepareTo</text>
<text text-anchor="middle" x="499" y="-154" font-family="Helvetica,sans-Serif" font-size="10.00">UpdateAllPatches</text>
</a>
</g>
</g>
<!-- Node6&#45;&gt;Node7 -->
<g id="edge6" class="edge"><title>Node6&#45;&gt;Node7</title>
<path fill="none" stroke="midnightblue" d="M351.235,-144.334C373.7,-147.038 398.746,-150.053 421.696,-152.815"/>
<polygon fill="midnightblue" stroke="midnightblue" points="421.386,-156.303 431.732,-154.023 422.222,-149.353 421.386,-156.303"/>
</g>
<!-- Node8 -->
<g id="node8" class="node"><title>Node8</title>
<g id="a_node8"><a xlink:href="../../d7/d97/classcontroller_1_1_grid.html#a1bdb65a9f8f0bc0475a59f32b1f5f4b1" target="_top" xlink:title="controller.Grid.resetCell\lCounts">
<polygon fill="white" stroke="black" points="435,-98 435,-128 563,-128 563,-98 435,-98"/>
<text text-anchor="start" x="443" y="-116" font-family="Helvetica,sans-Serif" font-size="10.00">controller.Grid.resetCell</text>
<text text-anchor="middle" x="499" y="-105" font-family="Helvetica,sans-Serif" font-size="10.00">Counts</text>
</a>
</g>
</g>
<!-- Node6&#45;&gt;Node8 -->
<g id="edge7" class="edge"><title>Node6&#45;&gt;Node8</title>
<path fill="none" stroke="midnightblue" d="M351.235,-128.628C374.665,-126.133 400.901,-123.339 424.641,-120.811"/>
<polygon fill="midnightblue" stroke="midnightblue" points="425.073,-124.285 434.646,-119.746 424.332,-117.325 425.073,-124.285"/>
</g>
<!-- Node9 -->
<g id="node9" class="node"><title>Node9</title>
<g id="a_node9"><a xlink:href="../../d7/d97/classcontroller_1_1_grid.html#a2cbf0a87e05ced6bd01a6ca01542b948" target="_top" xlink:title="controller.Grid.updateAll\lPatches">
<polygon fill="white" stroke="black" points="433.5,-49 433.5,-79 564.5,-79 564.5,-49 433.5,-49"/>
<text text-anchor="start" x="441.5" y="-67" font-family="Helvetica,sans-Serif" font-size="10.00">controller.Grid.updateAll</text>
<text text-anchor="middle" x="499" y="-56" font-family="Helvetica,sans-Serif" font-size="10.00">Patches</text>
</a>
</g>
</g>
<!-- Node6&#45;&gt;Node9 -->
<g id="edge8" class="edge"><title>Node6&#45;&gt;Node9</title>
<path fill="none" stroke="midnightblue" d="M305.072,-126.485C329.795,-116.471 370.306,-100.584 406,-89 413.611,-86.53 421.628,-84.1013 429.627,-81.7865"/>
<polygon fill="midnightblue" stroke="midnightblue" points="430.683,-85.1248 439.346,-79.0242 428.77,-78.3915 430.683,-85.1248"/>
</g>
<!-- Node10 -->
<g id="node10" class="node"><title>Node10</title>
<g id="a_node10"><a xlink:href="../../d7/d97/classcontroller_1_1_grid.html#a5a41921f2cae7b1f0097fce7374aab38" target="_top" xlink:title="controller.Grid.countCell\lInPatch">
<polygon fill="white" stroke="black" points="639.5,-49 639.5,-79 770.5,-79 770.5,-49 639.5,-49"/>
<text text-anchor="start" x="647.5" y="-67" font-family="Helvetica,sans-Serif" font-size="10.00">controller.Grid.countCell</text>
<text text-anchor="middle" x="705" y="-56" font-family="Helvetica,sans-Serif" font-size="10.00">InPatch</text>
</a>
</g>
</g>
<!-- Node9&#45;&gt;Node10 -->
<g id="edge9" class="edge"><title>Node9&#45;&gt;Node10</title>
<path fill="none" stroke="midnightblue" d="M564.547,-64C585.011,-64 607.811,-64 628.948,-64"/>
<polygon fill="midnightblue" stroke="midnightblue" points="629.173,-67.5001 639.173,-64 629.173,-60.5001 629.173,-67.5001"/>
</g>
<!-- Node11 -->
<g id="node11" class="node"><title>Node11</title>
<g id="a_node11"><a xlink:href="../../d5/da5/classsimulation_objects_1_1_patch.html#af1ed13cdf12efa2aa3f2fe887886aa21" target="_top" xlink:title="simulationObjects.Patch.getCell">
<polygon fill="white" stroke="black" points="818.5,-98.5 818.5,-117.5 985.5,-117.5 985.5,-98.5 818.5,-98.5"/>
<text text-anchor="middle" x="902" y="-105.5" font-family="Helvetica,sans-Serif" font-size="10.00">simulationObjects.Patch.getCell</text>
</a>
</g>
</g>
<!-- Node10&#45;&gt;Node11 -->
<g id="edge10" class="edge"><title>Node10&#45;&gt;Node11</title>
<path fill="none" stroke="midnightblue" d="M770.661,-78.5902C796.077,-84.3251 824.864,-90.8205 848.907,-96.2456"/>
<polygon fill="midnightblue" stroke="midnightblue" points="848.372,-99.7129 858.897,-98.4998 849.913,-92.8845 848.372,-99.7129"/>
</g>
<!-- Node12 -->
<g id="node12" class="node"><title>Node12</title>
<g id="a_node12"><a xlink:href="../../d2/d6e/classsimulation_objects_1_1_cell.html#a7d7b09f9e92254d6b2176e8593ce5c21" target="_top" xlink:title="simulationObjects.Cell.get\lState">
<polygon fill="white" stroke="black" points="831.5,-49 831.5,-79 972.5,-79 972.5,-49 831.5,-49"/>
<text text-anchor="start" x="839.5" y="-67" font-family="Helvetica,sans-Serif" font-size="10.00">simulationObjects.Cell.get</text>
<text text-anchor="middle" x="902" y="-56" font-family="Helvetica,sans-Serif" font-size="10.00">State</text>
</a>
</g>
</g>
<!-- Node10&#45;&gt;Node12 -->
<g id="edge11" class="edge"><title>Node10&#45;&gt;Node12</title>
<path fill="none" stroke="midnightblue" d="M770.661,-64C786.82,-64 804.341,-64 821.139,-64"/>
<polygon fill="midnightblue" stroke="midnightblue" points="821.487,-67.5001 831.487,-64 821.486,-60.5001 821.487,-67.5001"/>
</g>
<!-- Node13 -->
<g id="node13" class="node"><title>Node13</title>
<g id="a_node13"><a xlink:href="../../d5/da5/classsimulation_objects_1_1_patch.html#a84e7580a85285441a2caf058f977f237" target="_top" xlink:title="simulationObjects.Patch.is\lEmpty">
<polygon fill="white" stroke="black" points="831,-0 831,-30 973,-30 973,-0 831,-0"/>
<text text-anchor="start" x="839" y="-18" font-family="Helvetica,sans-Serif" font-size="10.00">simulationObjects.Patch.is</text>
<text text-anchor="middle" x="902" y="-7" font-family="Helvetica,sans-Serif" font-size="10.00">Empty</text>
</a>
</g>
</g>
<!-- Node10&#45;&gt;Node13 -->
<g id="edge12" class="edge"><title>Node10&#45;&gt;Node13</title>
<path fill="none" stroke="midnightblue" d="M765.832,-48.9654C786.608,-43.7446 810.081,-37.8463 831.567,-32.4474"/>
<polygon fill="midnightblue" stroke="midnightblue" points="832.436,-35.8378 841.282,-30.0062 830.73,-29.0488 832.436,-35.8378"/>
</g>
</g>
</svg>
