<?xml version="1.0" encoding="UTF-8" standalone="no"?>
<!DOCTYPE svg PUBLIC "-//W3C//DTD SVG 1.1//EN"
 "http://www.w3.org/Graphics/SVG/1.1/DTD/svg11.dtd">
<!-- Generated by graphviz version 2.36.0 (20140111.2315)
 -->
<!-- Title: controller.MainController.randomizeGrid Pages: 1 -->
<svg width="402pt" height="66pt"
 viewBox="0.00 0.00 402.00 66.00" xmlns="http://www.w3.org/2000/svg" xmlns:xlink="http://www.w3.org/1999/xlink">
<g id="graph0" class="graph" transform="scale(1 1) rotate(0) translate(4 62)">
<title>controller.MainController.randomizeGrid</title>
<polygon fill="white" stroke="none" points="-4,4 -4,-62 398,-62 398,4 -4,4"/>
<!-- Node1 -->
<g id="node1" class="node"><title>Node1</title>
<polygon fill="#bfbfbf" stroke="black" points="0,-19.5 0,-38.5 206,-38.5 206,-19.5 0,-19.5"/>
<text text-anchor="middle" x="103" y="-26.5" font-family="Helvetica,sans-Serif" font-size="10.00">controller.MainController.randomizeGrid</text>
</g>
<!-- Node2 -->
<g id="node2" class="node"><title>Node2</title>
<g id="a_node2"><a xlink:href="../../de/d7a/classcontroller_1_1_grid_info.html#af31c032d9ad520ab2993ce173a721a56" target="_top" xlink:title="controller.GridInfo.getHeight">
<polygon fill="white" stroke="black" points="242.5,-38.5 242.5,-57.5 393.5,-57.5 393.5,-38.5 242.5,-38.5"/>
<text text-anchor="middle" x="318" y="-45.5" font-family="Helvetica,sans-Serif" font-size="10.00">controller.GridInfo.getHeight</text>
</a>
</g>
</g>
<!-- Node1&#45;&gt;Node2 -->
<g id="edge1" class="edge"><title>Node1&#45;&gt;Node2</title>
<path fill="none" stroke="midnightblue" d="M206.133,-38.1104C214.881,-38.8908 223.669,-39.6747 232.259,-40.441"/>
<polygon fill="midnightblue" stroke="midnightblue" points="231.967,-43.9287 242.239,-41.3312 232.589,-36.9564 231.967,-43.9287"/>
</g>
<!-- Node3 -->
<g id="node3" class="node"><title>Node3</title>
<g id="a_node3"><a xlink:href="../../de/d7a/classcontroller_1_1_grid_info.html#aeb922edcbb88af55aee279dae79d7660" target="_top" xlink:title="controller.GridInfo.getWidth">
<polygon fill="white" stroke="black" points="245,-0.5 245,-19.5 391,-19.5 391,-0.5 245,-0.5"/>
<text text-anchor="middle" x="318" y="-7.5" font-family="Helvetica,sans-Serif" font-size="10.00">controller.GridInfo.getWidth</text>
</a>
</g>
</g>
<!-- Node1&#45;&gt;Node3 -->
<g id="edge2" class="edge"><title>Node1&#45;&gt;Node3</title>
<path fill="none" stroke="midnightblue" d="M206.133,-19.8896C215.777,-19.0293 225.469,-18.1647 234.892,-17.3242"/>
<polygon fill="midnightblue" stroke="midnightblue" points="235.346,-20.7976 244.996,-16.4229 234.724,-13.8253 235.346,-20.7976"/>
</g>
</g>
</svg>
