<?xml version="1.0" encoding="UTF-8" standalone="no"?>
<!DOCTYPE svg PUBLIC "-//W3C//DTD SVG 1.1//EN"
 "http://www.w3.org/Graphics/SVG/1.1/DTD/svg11.dtd">
<!-- Generated by graphviz version 2.36.0 (20140111.2315)
 -->
<!-- Title: controller.MainController.stopSimulation Pages: 1 -->
<svg width="760pt" height="82pt"
 viewBox="0.00 0.00 760.00 82.00" xmlns="http://www.w3.org/2000/svg" xmlns:xlink="http://www.w3.org/1999/xlink">
<g id="graph0" class="graph" transform="scale(1 1) rotate(0) translate(4 78)">
<title>controller.MainController.stopSimulation</title>
<polygon fill="white" stroke="none" points="-4,4 -4,-78 756,-78 756,4 -4,4"/>
<!-- Node1 -->
<g id="node1" class="node"><title>Node1</title>
<polygon fill="#bfbfbf" stroke="black" points="0,-22 0,-52 156,-52 156,-22 0,-22"/>
<text text-anchor="start" x="8" y="-40" font-family="Helvetica,sans-Serif" font-size="10.00">controller.MainController.stop</text>
<text text-anchor="middle" x="78" y="-29" font-family="Helvetica,sans-Serif" font-size="10.00">Simulation</text>
</g>
<!-- Node2 -->
<g id="node2" class="node"><title>Node2</title>
<g id="a_node2"><a xlink:href="../../db/d32/classcontroller_1_1_main_controller.html#a7cfedb8e16c6b9d6394054d03193da82" target="_top" xlink:title="controller.MainController.initialize\lSimulationWithData">
<polygon fill="white" stroke="black" points="192.5,-0 192.5,-30 365.5,-30 365.5,-0 192.5,-0"/>
<text text-anchor="start" x="200.5" y="-18" font-family="Helvetica,sans-Serif" font-size="10.00">controller.MainController.initialize</text>
<text text-anchor="middle" x="279" y="-7" font-family="Helvetica,sans-Serif" font-size="10.00">SimulationWithData</text>
</a>
</g>
</g>
<!-- Node1&#45;&gt;Node2 -->
<g id="edge1" class="edge"><title>Node1&#45;&gt;Node2</title>
<path fill="none" stroke="midnightblue" d="M166.268,-27.3523C174.886,-26.3995 183.629,-25.433 192.232,-24.4819"/>
<polygon fill="midnightblue" stroke="midnightblue" points="165.778,-23.885 156.223,-28.4627 166.547,-30.8426 165.778,-23.885"/>
</g>
<!-- Node3 -->
<g id="node3" class="node"><title>Node3</title>
<g id="a_node3"><a xlink:href="../../db/ddb/classcontroller_1_1_user_interface.html#a9cf1e21253003993661082c9d42926b2" target="_top" xlink:title="controller.UserInterface.make\lBottomPanel">
<polygon fill="white" stroke="black" points="402,-44 402,-74 560,-74 560,-44 402,-44"/>
<text text-anchor="start" x="410" y="-62" font-family="Helvetica,sans-Serif" font-size="10.00">controller.UserInterface.make</text>
<text text-anchor="middle" x="481" y="-51" font-family="Helvetica,sans-Serif" font-size="10.00">BottomPanel</text>
</a>
</g>
</g>
<!-- Node1&#45;&gt;Node3 -->
<g id="edge6" class="edge"><title>Node1&#45;&gt;Node3</title>
<path fill="none" stroke="midnightblue" d="M166.467,-41.7987C236.661,-45.6497 334.306,-51.0068 401.895,-54.7149"/>
<polygon fill="midnightblue" stroke="midnightblue" points="166.494,-38.295 156.317,-41.2418 166.11,-45.2845 166.494,-38.295"/>
</g>
<!-- Node2&#45;&gt;Node3 -->
<g id="edge2" class="edge"><title>Node2&#45;&gt;Node3</title>
<path fill="none" stroke="midnightblue" d="M358.493,-32.2684C376.069,-36.1352 394.576,-40.2066 411.699,-43.9738"/>
<polygon fill="midnightblue" stroke="midnightblue" points="358.788,-28.7497 348.269,-30.0192 357.284,-35.5862 358.788,-28.7497"/>
</g>
<!-- Node4 -->
<g id="node4" class="node"><title>Node4</title>
<g id="a_node4"><a xlink:href="../../db/ddb/classcontroller_1_1_user_interface.html#a6dd740b89d748c372a5ef9959e1bd7c4" target="_top" xlink:title="controller.UserInterface.\lUserInterface">
<polygon fill="white" stroke="black" points="608.5,-44 608.5,-74 739.5,-74 739.5,-44 608.5,-44"/>
<text text-anchor="start" x="616.5" y="-62" font-family="Helvetica,sans-Serif" font-size="10.00">controller.UserInterface.</text>
<text text-anchor="middle" x="674" y="-51" font-family="Helvetica,sans-Serif" font-size="10.00">UserInterface</text>
</a>
</g>
</g>
<!-- Node3&#45;&gt;Node4 -->
<g id="edge3" class="edge"><title>Node3&#45;&gt;Node4</title>
<path fill="none" stroke="midnightblue" d="M570.415,-59C583.171,-59 596.097,-59 608.275,-59"/>
<polygon fill="midnightblue" stroke="midnightblue" points="570.238,-55.5001 560.238,-59 570.238,-62.5001 570.238,-55.5001"/>
</g>
<!-- Node5 -->
<g id="node5" class="node"><title>Node5</title>
<g id="a_node5"><a xlink:href="../../db/ddb/classcontroller_1_1_user_interface.html#aad62b84bbc23f683c844ace519feb9d2" target="_top" xlink:title="controller.UserInterface.reset">
<polygon fill="white" stroke="black" points="596,-5.5 596,-24.5 752,-24.5 752,-5.5 596,-5.5"/>
<text text-anchor="middle" x="674" y="-12.5" font-family="Helvetica,sans-Serif" font-size="10.00">controller.UserInterface.reset</text>
</a>
</g>
</g>
<!-- Node3&#45;&gt;Node5 -->
<g id="edge4" class="edge"><title>Node3&#45;&gt;Node5</title>
<path fill="none" stroke="midnightblue" d="M557.179,-41.6813C582.556,-35.8352 609.941,-29.5268 631.707,-24.5124"/>
<polygon fill="midnightblue" stroke="midnightblue" points="556.156,-38.3251 547.197,-43.9808 557.728,-45.1465 556.156,-38.3251"/>
</g>
<!-- Node5&#45;&gt;Node2 -->
<g id="edge5" class="edge"><title>Node5&#45;&gt;Node2</title>
<path fill="none" stroke="midnightblue" d="M585.444,-15C519.942,-15 430.825,-15 365.76,-15"/>
<polygon fill="midnightblue" stroke="midnightblue" points="585.747,-18.5001 595.747,-15 585.746,-11.5001 585.747,-18.5001"/>
</g>
</g>
</svg>
