<?xml version="1.0" encoding="UTF-8" standalone="no"?>
<!DOCTYPE svg PUBLIC "-//W3C//DTD SVG 1.1//EN"
 "http://www.w3.org/Graphics/SVG/1.1/DTD/svg11.dtd">
<!-- Generated by graphviz version 2.36.0 (20140111.2315)
 -->
<!-- Title: controller.MainController.createCell Pages: 1 -->
<svg width="998pt" height="77pt"
 viewBox="0.00 0.00 998.00 77.00" xmlns="http://www.w3.org/2000/svg" xmlns:xlink="http://www.w3.org/1999/xlink">
<g id="graph0" class="graph" transform="scale(1 1) rotate(0) translate(4 73)">
<title>controller.MainController.createCell</title>
<polygon fill="white" stroke="none" points="-4,4 -4,-73 994,-73 994,4 -4,4"/>
<!-- Node1 -->
<g id="node1" class="node"><title>Node1</title>
<polygon fill="#bfbfbf" stroke="black" points="0.5,-22.5 0.5,-41.5 183.5,-41.5 183.5,-22.5 0.5,-22.5"/>
<text text-anchor="middle" x="92" y="-29.5" font-family="Helvetica,sans-Serif" font-size="10.00">controller.MainController.createCell</text>
</g>
<!-- Node2 -->
<g id="node2" class="node"><title>Node2</title>
<g id="a_node2"><a xlink:href="../../db/d32/classcontroller_1_1_main_controller.html#aecc10abc6b55d8b0b4bd152be5c5d3f0" target="_top" xlink:title="controller.MainController.initialize\lSimulationObjects">
<polygon fill="white" stroke="black" points="220.5,-17 220.5,-47 393.5,-47 393.5,-17 220.5,-17"/>
<text text-anchor="start" x="228.5" y="-35" font-family="Helvetica,sans-Serif" font-size="10.00">controller.MainController.initialize</text>
<text text-anchor="middle" x="307" y="-24" font-family="Helvetica,sans-Serif" font-size="10.00">SimulationObjects</text>
</a>
</g>
</g>
<!-- Node1&#45;&gt;Node2 -->
<g id="edge1" class="edge"><title>Node1&#45;&gt;Node2</title>
<path fill="none" stroke="midnightblue" d="M193.915,-32C202.699,-32 211.534,-32 220.181,-32"/>
<polygon fill="midnightblue" stroke="midnightblue" points="193.64,-28.5001 183.64,-32 193.64,-35.5001 193.64,-28.5001"/>
</g>
<!-- Node3 -->
<g id="node3" class="node"><title>Node3</title>
<g id="a_node3"><a xlink:href="../../db/d32/classcontroller_1_1_main_controller.html#a7cfedb8e16c6b9d6394054d03193da82" target="_top" xlink:title="controller.MainController.initialize\lSimulationWithData">
<polygon fill="white" stroke="black" points="430.5,-17 430.5,-47 603.5,-47 603.5,-17 430.5,-17"/>
<text text-anchor="start" x="438.5" y="-35" font-family="Helvetica,sans-Serif" font-size="10.00">controller.MainController.initialize</text>
<text text-anchor="middle" x="517" y="-24" font-family="Helvetica,sans-Serif" font-size="10.00">SimulationWithData</text>
</a>
</g>
</g>
<!-- Node2&#45;&gt;Node3 -->
<g id="edge2" class="edge"><title>Node2&#45;&gt;Node3</title>
<path fill="none" stroke="midnightblue" d="M403.585,-32C412.561,-32 421.62,-32 430.494,-32"/>
<polygon fill="midnightblue" stroke="midnightblue" points="403.502,-28.5001 393.502,-32 403.502,-35.5001 403.502,-28.5001"/>
</g>
<!-- Node4 -->
<g id="node4" class="node"><title>Node4</title>
<g id="a_node4"><a xlink:href="../../db/ddb/classcontroller_1_1_user_interface.html#a9cf1e21253003993661082c9d42926b2" target="_top" xlink:title="controller.UserInterface.make\lBottomPanel">
<polygon fill="white" stroke="black" points="640,-39 640,-69 798,-69 798,-39 640,-39"/>
<text text-anchor="start" x="648" y="-57" font-family="Helvetica,sans-Serif" font-size="10.00">controller.UserInterface.make</text>
<text text-anchor="middle" x="719" y="-46" font-family="Helvetica,sans-Serif" font-size="10.00">BottomPanel</text>
</a>
</g>
</g>
<!-- Node3&#45;&gt;Node4 -->
<g id="edge3" class="edge"><title>Node3&#45;&gt;Node4</title>
<path fill="none" stroke="midnightblue" d="M613.848,-42.5432C622.532,-43.4985 631.257,-44.4583 639.762,-45.3939"/>
<polygon fill="midnightblue" stroke="midnightblue" points="614.011,-39.0402 603.688,-41.4257 613.246,-45.9982 614.011,-39.0402"/>
</g>
<!-- Node5 -->
<g id="node5" class="node"><title>Node5</title>
<g id="a_node5"><a xlink:href="../../db/ddb/classcontroller_1_1_user_interface.html#a6dd740b89d748c372a5ef9959e1bd7c4" target="_top" xlink:title="controller.UserInterface.\lUserInterface">
<polygon fill="white" stroke="black" points="846.5,-39 846.5,-69 977.5,-69 977.5,-39 846.5,-39"/>
<text text-anchor="start" x="854.5" y="-57" font-family="Helvetica,sans-Serif" font-size="10.00">controller.UserInterface.</text>
<text text-anchor="middle" x="912" y="-46" font-family="Helvetica,sans-Serif" font-size="10.00">UserInterface</text>
</a>
</g>
</g>
<!-- Node4&#45;&gt;Node5 -->
<g id="edge4" class="edge"><title>Node4&#45;&gt;Node5</title>
<path fill="none" stroke="midnightblue" d="M808.415,-54C821.171,-54 834.097,-54 846.275,-54"/>
<polygon fill="midnightblue" stroke="midnightblue" points="808.238,-50.5001 798.238,-54 808.238,-57.5001 808.238,-50.5001"/>
</g>
<!-- Node6 -->
<g id="node6" class="node"><title>Node6</title>
<g id="a_node6"><a xlink:href="../../db/ddb/classcontroller_1_1_user_interface.html#aad62b84bbc23f683c844ace519feb9d2" target="_top" xlink:title="controller.UserInterface.reset">
<polygon fill="white" stroke="black" points="834,-0.5 834,-19.5 990,-19.5 990,-0.5 834,-0.5"/>
<text text-anchor="middle" x="912" y="-7.5" font-family="Helvetica,sans-Serif" font-size="10.00">controller.UserInterface.reset</text>
</a>
</g>
</g>
<!-- Node4&#45;&gt;Node6 -->
<g id="edge5" class="edge"><title>Node4&#45;&gt;Node6</title>
<path fill="none" stroke="midnightblue" d="M795.179,-36.6813C820.556,-30.8352 847.941,-24.5268 869.707,-19.5124"/>
<polygon fill="midnightblue" stroke="midnightblue" points="794.156,-33.3251 785.197,-38.9808 795.728,-40.1465 794.156,-33.3251"/>
</g>
<!-- Node6&#45;&gt;Node3 -->
<g id="edge6" class="edge"><title>Node6&#45;&gt;Node3</title>
<path fill="none" stroke="midnightblue" d="M823.444,-14.9014C757.942,-18.5682 668.825,-23.5569 603.76,-27.1992"/>
<polygon fill="midnightblue" stroke="midnightblue" points="823.958,-18.3782 833.747,-14.3246 823.566,-11.3891 823.958,-18.3782"/>
</g>
</g>
</svg>
