<?xml version="1.0" encoding="UTF-8" standalone="no"?>
<!DOCTYPE svg PUBLIC "-//W3C//DTD SVG 1.1//EN"
 "http://www.w3.org/Graphics/SVG/1.1/DTD/svg11.dtd">
<!-- Generated by graphviz version 2.36.0 (20140111.2315)
 -->
<!-- Title: controller.MainController.createCell Pages: 1 -->
<svg width="374pt" height="115pt"
 viewBox="0.00 0.00 374.00 115.00" xmlns="http://www.w3.org/2000/svg" xmlns:xlink="http://www.w3.org/1999/xlink">
<g id="graph0" class="graph" transform="scale(1 1) rotate(0) translate(4 111)">
<title>controller.MainController.createCell</title>
<polygon fill="white" stroke="none" points="-4,4 -4,-111 370,-111 370,4 -4,4"/>
<!-- Node1 -->
<g id="node1" class="node"><title>Node1</title>
<polygon fill="#bfbfbf" stroke="black" points="0.5,-38.5 0.5,-57.5 183.5,-57.5 183.5,-38.5 0.5,-38.5"/>
<text text-anchor="middle" x="92" y="-45.5" font-family="Helvetica,sans-Serif" font-size="10.00">controller.MainController.createCell</text>
</g>
<!-- Node2 -->
<g id="node2" class="node"><title>Node2</title>
<g id="a_node2"><a xlink:href="../../d2/d6e/classsimulation_objects_1_1_cell.html#ab7b10d67ea8a16bcb15cc2b8d079b3a1" target="_top" xlink:title="simulationObjects.Cell.set\lState">
<polygon fill="white" stroke="black" points="223,-77 223,-107 363,-107 363,-77 223,-77"/>
<text text-anchor="start" x="231" y="-95" font-family="Helvetica,sans-Serif" font-size="10.00">simulationObjects.Cell.set</text>
<text text-anchor="middle" x="293" y="-84" font-family="Helvetica,sans-Serif" font-size="10.00">State</text>
</a>
</g>
</g>
<!-- Node1&#45;&gt;Node2 -->
<g id="edge1" class="edge"><title>Node1&#45;&gt;Node2</title>
<path fill="none" stroke="midnightblue" d="M136.18,-57.5473C158.885,-62.5676 187.424,-68.8777 213.854,-74.7215"/>
<polygon fill="midnightblue" stroke="midnightblue" points="213.344,-78.1931 223.863,-76.9346 214.855,-71.3582 213.344,-78.1931"/>
</g>
<!-- Node3 -->
<g id="node3" class="node"><title>Node3</title>
<g id="a_node3"><a xlink:href="../../d2/d6e/classsimulation_objects_1_1_cell.html#a79ed116f88362c4ef4d906c7a6988fe1" target="_top" xlink:title="simulationObjects.Cell.setX">
<polygon fill="white" stroke="black" points="220,-38.5 220,-57.5 366,-57.5 366,-38.5 220,-38.5"/>
<text text-anchor="middle" x="293" y="-45.5" font-family="Helvetica,sans-Serif" font-size="10.00">simulationObjects.Cell.setX</text>
</a>
</g>
</g>
<!-- Node1&#45;&gt;Node3 -->
<g id="edge2" class="edge"><title>Node1&#45;&gt;Node3</title>
<path fill="none" stroke="midnightblue" d="M183.765,-48C192.459,-48 201.242,-48 209.847,-48"/>
<polygon fill="midnightblue" stroke="midnightblue" points="209.851,-51.5001 219.851,-48 209.851,-44.5001 209.851,-51.5001"/>
</g>
<!-- Node4 -->
<g id="node4" class="node"><title>Node4</title>
<g id="a_node4"><a xlink:href="../../d2/d6e/classsimulation_objects_1_1_cell.html#a94febf4dbd9046affdb7f81e36b8c164" target="_top" xlink:title="simulationObjects.Cell.setY">
<polygon fill="white" stroke="black" points="220,-0.5 220,-19.5 366,-19.5 366,-0.5 220,-0.5"/>
<text text-anchor="middle" x="293" y="-7.5" font-family="Helvetica,sans-Serif" font-size="10.00">simulationObjects.Cell.setY</text>
</a>
</g>
</g>
<!-- Node1&#45;&gt;Node4 -->
<g id="edge3" class="edge"><title>Node1&#45;&gt;Node4</title>
<path fill="none" stroke="midnightblue" d="M142.959,-38.46C170.045,-33.2878 203.708,-26.8599 232.183,-21.4222"/>
<polygon fill="midnightblue" stroke="midnightblue" points="232.854,-24.8575 242.02,-19.5439 231.541,-17.9817 232.854,-24.8575"/>
</g>
</g>
</svg>
