<?xml version="1.0" encoding="UTF-8" standalone="no"?>
<!DOCTYPE svg PUBLIC "-//W3C//DTD SVG 1.1//EN"
 "http://www.w3.org/Graphics/SVG/1.1/DTD/svg11.dtd">
<!-- Generated by graphviz version 2.36.0 (20140111.2315)
 -->
<!-- Title: controller.MainController.startSimulation Pages: 1 -->
<svg width="762pt" height="102pt"
 viewBox="0.00 0.00 762.00 102.00" xmlns="http://www.w3.org/2000/svg" xmlns:xlink="http://www.w3.org/1999/xlink">
<g id="graph0" class="graph" transform="scale(1 1) rotate(0) translate(4 98)">
<title>controller.MainController.startSimulation</title>
<polygon fill="white" stroke="none" points="-4,4 -4,-98 758,-98 758,4 -4,4"/>
<!-- Node1 -->
<g id="node1" class="node"><title>Node1</title>
<polygon fill="#bfbfbf" stroke="black" points="0,-20 0,-50 158,-50 158,-20 0,-20"/>
<text text-anchor="start" x="8" y="-38" font-family="Helvetica,sans-Serif" font-size="10.00">controller.MainController.start</text>
<text text-anchor="middle" x="79" y="-27" font-family="Helvetica,sans-Serif" font-size="10.00">Simulation</text>
</g>
<!-- Node2 -->
<g id="node2" class="node"><title>Node2</title>
<g id="a_node2"><a xlink:href="../../db/ddb/classcontroller_1_1_user_interface.html#a9cf1e21253003993661082c9d42926b2" target="_top" xlink:title="controller.UserInterface.make\lBottomPanel">
<polygon fill="white" stroke="black" points="194,-20 194,-50 352,-50 352,-20 194,-20"/>
<text text-anchor="start" x="202" y="-38" font-family="Helvetica,sans-Serif" font-size="10.00">controller.UserInterface.make</text>
<text text-anchor="middle" x="273" y="-27" font-family="Helvetica,sans-Serif" font-size="10.00">BottomPanel</text>
</a>
</g>
</g>
<!-- Node1&#45;&gt;Node2 -->
<g id="edge1" class="edge"><title>Node1&#45;&gt;Node2</title>
<path fill="none" stroke="midnightblue" d="M168.153,-35C176.769,-35 185.47,-35 193.975,-35"/>
<polygon fill="midnightblue" stroke="midnightblue" points="168.094,-31.5001 158.094,-35 168.094,-38.5001 168.094,-31.5001"/>
</g>
<!-- Node3 -->
<g id="node3" class="node"><title>Node3</title>
<g id="a_node3"><a xlink:href="../../db/ddb/classcontroller_1_1_user_interface.html#a6dd740b89d748c372a5ef9959e1bd7c4" target="_top" xlink:title="controller.UserInterface.\lUserInterface">
<polygon fill="white" stroke="black" points="400.5,-64 400.5,-94 531.5,-94 531.5,-64 400.5,-64"/>
<text text-anchor="start" x="408.5" y="-82" font-family="Helvetica,sans-Serif" font-size="10.00">controller.UserInterface.</text>
<text text-anchor="middle" x="466" y="-71" font-family="Helvetica,sans-Serif" font-size="10.00">UserInterface</text>
</a>
</g>
</g>
<!-- Node2&#45;&gt;Node3 -->
<g id="edge2" class="edge"><title>Node2&#45;&gt;Node3</title>
<path fill="none" stroke="midnightblue" d="M349.07,-52.2936C366.044,-56.204 383.922,-60.3224 400.42,-64.123"/>
<polygon fill="midnightblue" stroke="midnightblue" points="349.728,-48.8535 339.197,-50.0192 348.156,-55.6749 349.728,-48.8535"/>
</g>
<!-- Node4 -->
<g id="node4" class="node"><title>Node4</title>
<g id="a_node4"><a xlink:href="../../db/ddb/classcontroller_1_1_user_interface.html#aad62b84bbc23f683c844ace519feb9d2" target="_top" xlink:title="controller.UserInterface.reset">
<polygon fill="white" stroke="black" points="388,-25.5 388,-44.5 544,-44.5 544,-25.5 388,-25.5"/>
<text text-anchor="middle" x="466" y="-32.5" font-family="Helvetica,sans-Serif" font-size="10.00">controller.UserInterface.reset</text>
</a>
</g>
</g>
<!-- Node2&#45;&gt;Node4 -->
<g id="edge3" class="edge"><title>Node2&#45;&gt;Node4</title>
<path fill="none" stroke="midnightblue" d="M362.495,-35C370.949,-35 379.476,-35 387.81,-35"/>
<polygon fill="midnightblue" stroke="midnightblue" points="362.238,-31.5001 352.238,-35 362.238,-38.5001 362.238,-31.5001"/>
</g>
<!-- Node5 -->
<g id="node5" class="node"><title>Node5</title>
<g id="a_node5"><a xlink:href="../../db/d32/classcontroller_1_1_main_controller.html#a7cfedb8e16c6b9d6394054d03193da82" target="_top" xlink:title="controller.MainController.initialize\lSimulationWithData">
<polygon fill="white" stroke="black" points="580.5,-1 580.5,-31 753.5,-31 753.5,-1 580.5,-1"/>
<text text-anchor="start" x="588.5" y="-19" font-family="Helvetica,sans-Serif" font-size="10.00">controller.MainController.initialize</text>
<text text-anchor="middle" x="667" y="-8" font-family="Helvetica,sans-Serif" font-size="10.00">SimulationWithData</text>
</a>
</g>
</g>
<!-- Node4&#45;&gt;Node5 -->
<g id="edge4" class="edge"><title>Node4&#45;&gt;Node5</title>
<path fill="none" stroke="midnightblue" d="M554.268,-26.6679C562.886,-25.845 571.629,-25.0103 580.232,-24.1889"/>
<polygon fill="midnightblue" stroke="midnightblue" points="553.845,-23.1922 544.223,-27.6269 554.511,-30.1605 553.845,-23.1922"/>
</g>
<!-- Node5&#45;&gt;Node2 -->
<g id="edge5" class="edge"><title>Node5&#45;&gt;Node2</title>
<path fill="none" stroke="midnightblue" d="M570.182,-12.1096C516.52,-10.9063 448.438,-10.998 388,-16 376.402,-16.9599 364.208,-18.4601 352.283,-20.2065"/>
<polygon fill="midnightblue" stroke="midnightblue" points="570.29,-15.6132 580.372,-12.3574 570.46,-8.61523 570.29,-15.6132"/>
</g>
</g>
</svg>
