<?xml version="1.0" encoding="UTF-8" standalone="no"?>
<!DOCTYPE svg PUBLIC "-//W3C//DTD SVG 1.1//EN"
 "http://www.w3.org/Graphics/SVG/1.1/DTD/svg11.dtd">
<!-- Generated by graphviz version 2.36.0 (20140111.2315)
 -->
<!-- Title: controller.MainController.initializeSimulationObjects Pages: 1 -->
<svg width="1732pt" height="730pt"
 viewBox="0.00 0.00 1732.00 730.37" xmlns="http://www.w3.org/2000/svg" xmlns:xlink="http://www.w3.org/1999/xlink">
<g id="graph0" class="graph" transform="scale(1 1) rotate(0) translate(4 726.366)">
<title>controller.MainController.initializeSimulationObjects</title>
<polygon fill="white" stroke="none" points="-4,4 -4,-726.366 1728,-726.366 1728,4 -4,4"/>
<!-- Node1 -->
<g id="node1" class="node"><title>Node1</title>
<polygon fill="#bfbfbf" stroke="black" points="0.5,-267.022 0.5,-297.022 173.5,-297.022 173.5,-267.022 0.5,-267.022"/>
<text text-anchor="start" x="8.5" y="-285.022" font-family="Helvetica,sans-Serif" font-size="10.00">controller.MainController.initialize</text>
<text text-anchor="middle" x="87" y="-274.022" font-family="Helvetica,sans-Serif" font-size="10.00">SimulationObjects</text>
</g>
<!-- Node2 -->
<g id="node2" class="node"><title>Node2</title>
<g id="a_node2"><a xlink:href="../../d5/da5/classsimulation_objects_1_1_patch.html#ac05b7dd86c9f30b498d93d62cbbba9a4" target="_top" xlink:title="simulationObjects.Patch.addCell">
<polygon fill="white" stroke="black" points="1120,-483.522 1120,-502.522 1290,-502.522 1290,-483.522 1120,-483.522"/>
<text text-anchor="middle" x="1205" y="-490.522" font-family="Helvetica,sans-Serif" font-size="10.00">simulationObjects.Patch.addCell</text>
</a>
</g>
</g>
<!-- Node1&#45;&gt;Node2 -->
<g id="edge1" class="edge"><title>Node1&#45;&gt;Node2</title>
<path fill="none" stroke="midnightblue" d="M96.8367,-297.404C114.401,-326.498 156.653,-389.489 210,-421.022 336.744,-495.939 386.771,-490.022 534,-490.022 534,-490.022 534,-490.022 770,-490.022 887.054,-490.022 1021.86,-491.127 1109.77,-491.996"/>
<polygon fill="midnightblue" stroke="midnightblue" points="1109.96,-495.497 1119.99,-492.098 1110.03,-488.498 1109.96,-495.497"/>
</g>
<!-- Node8 -->
<g id="node8" class="node"><title>Node8</title>
<g id="a_node8"><a xlink:href="../../d7/d97/classcontroller_1_1_grid.html#a85b3833ab13642ba27fd7b65ee6a6daa" target="_top" xlink:title="controller.Grid.addPatch\lAtPoint">
<polygon fill="white" stroke="black" points="237.5,-382.022 237.5,-412.022 368.5,-412.022 368.5,-382.022 237.5,-382.022"/>
<text text-anchor="start" x="245.5" y="-400.022" font-family="Helvetica,sans-Serif" font-size="10.00">controller.Grid.addPatch</text>
<text text-anchor="middle" x="303" y="-389.022" font-family="Helvetica,sans-Serif" font-size="10.00">AtPoint</text>
</a>
</g>
</g>
<!-- Node1&#45;&gt;Node8 -->
<g id="edge7" class="edge"><title>Node1&#45;&gt;Node8</title>
<path fill="none" stroke="midnightblue" d="M104.459,-297.328C126.749,-317.275 168.534,-351.968 210,-372.022 215.574,-374.718 221.483,-377.159 227.51,-379.364"/>
<polygon fill="midnightblue" stroke="midnightblue" points="226.454,-382.701 237.048,-382.634 228.724,-376.08 226.454,-382.701"/>
</g>
<!-- Node15 -->
<g id="node15" class="node"><title>Node15</title>
<g id="a_node15"><a xlink:href="../../db/d32/classcontroller_1_1_main_controller.html#ae8fc91ddcb15203739966acbe170af51" target="_top" xlink:title="controller.MainController.createCell">
<polygon fill="white" stroke="black" points="900.5,-655.522 900.5,-674.522 1083.5,-674.522 1083.5,-655.522 900.5,-655.522"/>
<text text-anchor="middle" x="992" y="-662.522" font-family="Helvetica,sans-Serif" font-size="10.00">controller.MainController.createCell</text>
</a>
</g>
</g>
<!-- Node1&#45;&gt;Node15 -->
<g id="edge15" class="edge"><title>Node1&#45;&gt;Node15</title>
<path fill="none" stroke="midnightblue" d="M89.6588,-297.153C95.782,-345.473 121.564,-497.442 210,-575.022 422.958,-761.84 803.981,-704.888 940.56,-676.643"/>
<polygon fill="midnightblue" stroke="midnightblue" points="941.285,-680.067 950.348,-674.581 939.842,-673.218 941.285,-680.067"/>
</g>
<!-- Node19 -->
<g id="node19" class="node"><title>Node19</title>
<g id="a_node19"><a xlink:href="../../db/d32/classcontroller_1_1_main_controller.html#ad28f21e1510291d95a69a9f488a20d89" target="_top" xlink:title="controller.MainController.createGrid">
<polygon fill="white" stroke="black" points="210.5,-546.522 210.5,-565.522 395.5,-565.522 395.5,-546.522 210.5,-546.522"/>
<text text-anchor="middle" x="303" y="-553.522" font-family="Helvetica,sans-Serif" font-size="10.00">controller.MainController.createGrid</text>
</a>
</g>
</g>
<!-- Node1&#45;&gt;Node19 -->
<g id="edge19" class="edge"><title>Node1&#45;&gt;Node19</title>
<path fill="none" stroke="midnightblue" d="M92.9538,-297.026C106.324,-335.607 146.478,-439.737 210,-504.022 226.327,-520.545 249.007,-533.444 267.763,-542.262"/>
<polygon fill="midnightblue" stroke="midnightblue" points="266.329,-545.455 276.884,-546.379 269.21,-539.075 266.329,-545.455"/>
</g>
<!-- Node27 -->
<g id="node27" class="node"><title>Node27</title>
<g id="a_node27"><a xlink:href="../../d6/d7e/classcontroller_1_1_patch_factory.html#a9c96555534f716de7c2f7f984a7531e9" target="_top" xlink:title="controller.PatchFactory.create\lPatch">
<polygon fill="white" stroke="black" points="224.5,-333.022 224.5,-363.022 381.5,-363.022 381.5,-333.022 224.5,-333.022"/>
<text text-anchor="start" x="232.5" y="-351.022" font-family="Helvetica,sans-Serif" font-size="10.00">controller.PatchFactory.create</text>
<text text-anchor="middle" x="303" y="-340.022" font-family="Helvetica,sans-Serif" font-size="10.00">Patch</text>
</a>
</g>
</g>
<!-- Node1&#45;&gt;Node27 -->
<g id="edge33" class="edge"><title>Node1&#45;&gt;Node27</title>
<path fill="none" stroke="midnightblue" d="M130.712,-297.062C154.036,-305.102 183.488,-314.973 210,-323.022 217.968,-325.441 226.358,-327.875 234.696,-330.225"/>
<polygon fill="midnightblue" stroke="midnightblue" points="233.859,-333.625 244.431,-332.938 235.738,-326.882 233.859,-333.625"/>
</g>
<!-- Node30 -->
<g id="node30" class="node"><title>Node30</title>
<g id="a_node30"><a xlink:href="../../de/d7a/classcontroller_1_1_grid_info.html#aa3ee95078f3742aa392bab45f477a5a5" target="_top" xlink:title="controller.GridInfo.getCellType">
<polygon fill="white" stroke="black" points="224,-294.522 224,-313.522 382,-313.522 382,-294.522 224,-294.522"/>
<text text-anchor="middle" x="303" y="-301.522" font-family="Helvetica,sans-Serif" font-size="10.00">controller.GridInfo.getCellType</text>
</a>
</g>
</g>
<!-- Node1&#45;&gt;Node30 -->
<g id="edge36" class="edge"><title>Node1&#45;&gt;Node30</title>
<path fill="none" stroke="midnightblue" d="M173.501,-290.812C186.768,-292.176 200.494,-293.587 213.818,-294.957"/>
<polygon fill="midnightblue" stroke="midnightblue" points="213.609,-298.454 223.915,-295.995 214.325,-291.49 213.609,-298.454"/>
</g>
<!-- Node31 -->
<g id="node31" class="node"><title>Node31</title>
<g id="a_node31"><a xlink:href="../../d7/d97/classcontroller_1_1_grid.html#a606f5f45872fdfbc2ccfd30ee41d7a81" target="_top" xlink:title="controller.Grid.initialize\lCellCounts">
<polygon fill="white" stroke="black" points="240.5,-245.022 240.5,-275.022 365.5,-275.022 365.5,-245.022 240.5,-245.022"/>
<text text-anchor="start" x="248.5" y="-263.022" font-family="Helvetica,sans-Serif" font-size="10.00">controller.Grid.initialize</text>
<text text-anchor="middle" x="303" y="-252.022" font-family="Helvetica,sans-Serif" font-size="10.00">CellCounts</text>
</a>
</g>
</g>
<!-- Node1&#45;&gt;Node31 -->
<g id="edge37" class="edge"><title>Node1&#45;&gt;Node31</title>
<path fill="none" stroke="midnightblue" d="M173.501,-273.232C192.361,-271.293 212.151,-269.259 230.394,-267.384"/>
<polygon fill="midnightblue" stroke="midnightblue" points="230.764,-270.864 240.354,-266.36 230.048,-263.901 230.764,-270.864"/>
</g>
<!-- Node33 -->
<g id="node33" class="node"><title>Node33</title>
<g id="a_node33"><a xlink:href="../../d5/da5/classsimulation_objects_1_1_patch.html#a30b3c2b2d40f1e9bf12e0cb325a9388e" target="_top" xlink:title="simulationObjects.Patch.set\lCellClass">
<polygon fill="white" stroke="black" points="228.5,-196.022 228.5,-226.022 377.5,-226.022 377.5,-196.022 228.5,-196.022"/>
<text text-anchor="start" x="236.5" y="-214.022" font-family="Helvetica,sans-Serif" font-size="10.00">simulationObjects.Patch.set</text>
<text text-anchor="middle" x="303" y="-203.022" font-family="Helvetica,sans-Serif" font-size="10.00">CellClass</text>
</a>
</g>
</g>
<!-- Node1&#45;&gt;Node33 -->
<g id="edge39" class="edge"><title>Node1&#45;&gt;Node33</title>
<path fill="none" stroke="midnightblue" d="M125.051,-267.001C149.067,-257.526 181.141,-245.36 210,-236.022 217.613,-233.559 225.631,-231.134 233.631,-228.822"/>
<polygon fill="midnightblue" stroke="midnightblue" points="234.687,-232.16 243.35,-226.061 232.775,-225.427 234.687,-232.16"/>
</g>
<!-- Node34 -->
<g id="node34" class="node"><title>Node34</title>
<g id="a_node34"><a xlink:href="../../db/ddb/classcontroller_1_1_user_interface.html#adb0c0560c93253e92c488e086a43afc2" target="_top" xlink:title="controller.UserInterface.set\lChart">
<polygon fill="white" stroke="black" points="230,-147.022 230,-177.022 376,-177.022 376,-147.022 230,-147.022"/>
<text text-anchor="start" x="238" y="-165.022" font-family="Helvetica,sans-Serif" font-size="10.00">controller.UserInterface.set</text>
<text text-anchor="middle" x="303" y="-154.022" font-family="Helvetica,sans-Serif" font-size="10.00">Chart</text>
</a>
</g>
</g>
<!-- Node1&#45;&gt;Node34 -->
<g id="edge40" class="edge"><title>Node1&#45;&gt;Node34</title>
<path fill="none" stroke="midnightblue" d="M103.172,-266.888C124.972,-245.968 167.257,-208.384 210,-187.022 214.601,-184.723 219.441,-182.613 224.394,-180.681"/>
<polygon fill="midnightblue" stroke="midnightblue" points="225.821,-183.886 234.025,-177.181 223.431,-177.307 225.821,-183.886"/>
</g>
<!-- Node35 -->
<g id="node35" class="node"><title>Node35</title>
<g id="a_node35"><a xlink:href="../../db/ddb/classcontroller_1_1_user_interface.html#a6eb7e3a2de0c835fed35c8e8d17c51bd" target="_top" xlink:title="controller.UserInterface.setGrid">
<polygon fill="white" stroke="black" points="220,-108.522 220,-127.522 386,-127.522 386,-108.522 220,-108.522"/>
<text text-anchor="middle" x="303" y="-115.522" font-family="Helvetica,sans-Serif" font-size="10.00">controller.UserInterface.setGrid</text>
</a>
</g>
</g>
<!-- Node1&#45;&gt;Node35 -->
<g id="edge41" class="edge"><title>Node1&#45;&gt;Node35</title>
<path fill="none" stroke="midnightblue" d="M96.1505,-266.995C113.112,-237.254 155.23,-170.926 210,-138.022 214.44,-135.355 219.19,-133.041 224.106,-131.035"/>
<polygon fill="midnightblue" stroke="midnightblue" points="225.52,-134.245 233.725,-127.543 223.131,-127.666 225.52,-134.245"/>
</g>
<!-- Node36 -->
<g id="node36" class="node"><title>Node36</title>
<g id="a_node36"><a xlink:href="../../db/d32/classcontroller_1_1_main_controller.html#a2163bf863ed2b2ce85a7adfec03f44c4" target="_top" xlink:title="controller.MainController.setup\lGridConstraints">
<polygon fill="white" stroke="black" points="222,-59.0222 222,-89.0222 384,-89.0222 384,-59.0222 222,-59.0222"/>
<text text-anchor="start" x="230" y="-77.0222" font-family="Helvetica,sans-Serif" font-size="10.00">controller.MainController.setup</text>
<text text-anchor="middle" x="303" y="-66.0222" font-family="Helvetica,sans-Serif" font-size="10.00">GridConstraints</text>
</a>
</g>
</g>
<!-- Node1&#45;&gt;Node36 -->
<g id="edge42" class="edge"><title>Node1&#45;&gt;Node36</title>
<path fill="none" stroke="midnightblue" d="M93.7442,-266.785C107.831,-231.541 147.562,-143.981 210,-99.0222 212.686,-97.0878 215.514,-95.3032 218.446,-93.6566"/>
<polygon fill="midnightblue" stroke="midnightblue" points="220.135,-96.7251 227.511,-89.1194 217.002,-90.4653 220.135,-96.7251"/>
</g>
<!-- Node42 -->
<g id="node42" class="node"><title>Node42</title>
<g id="a_node42"><a xlink:href="../../d7/d97/classcontroller_1_1_grid.html#a60510998fbe019fcface2ad83d0c99dc" target="_top" xlink:title="controller.Grid.updateAll\lNeighborhoods">
<polygon fill="white" stroke="black" points="237.5,-10.0222 237.5,-40.0222 368.5,-40.0222 368.5,-10.0222 237.5,-10.0222"/>
<text text-anchor="start" x="245.5" y="-28.0222" font-family="Helvetica,sans-Serif" font-size="10.00">controller.Grid.updateAll</text>
<text text-anchor="middle" x="303" y="-17.0222" font-family="Helvetica,sans-Serif" font-size="10.00">Neighborhoods</text>
</a>
</g>
</g>
<!-- Node1&#45;&gt;Node42 -->
<g id="edge50" class="edge"><title>Node1&#45;&gt;Node42</title>
<path fill="none" stroke="midnightblue" d="M91.4186,-266.754C101.585,-225.006 135.664,-108.135 210,-49.0222 215.382,-44.7424 221.448,-41.22 227.834,-38.3218"/>
<polygon fill="midnightblue" stroke="midnightblue" points="229.389,-41.4693 237.375,-34.5067 226.791,-34.9696 229.389,-41.4693"/>
</g>
<!-- Node3 -->
<g id="node3" class="node"><title>Node3</title>
<g id="a_node3"><a xlink:href="../../d5/da5/classsimulation_objects_1_1_patch.html#ac18f8e7cdd82ed885a6a92f066da2d38" target="_top" xlink:title="simulationObjects.Patch.removeCell">
<polygon fill="white" stroke="black" points="1326,-599.522 1326,-618.522 1514,-618.522 1514,-599.522 1326,-599.522"/>
<text text-anchor="middle" x="1420" y="-606.522" font-family="Helvetica,sans-Serif" font-size="10.00">simulationObjects.Patch.removeCell</text>
</a>
</g>
</g>
<!-- Node2&#45;&gt;Node3 -->
<g id="edge2" class="edge"><title>Node2&#45;&gt;Node3</title>
<path fill="none" stroke="midnightblue" d="M1223.79,-502.713C1261.24,-523.106 1348.35,-570.547 1392.43,-594.555"/>
<polygon fill="midnightblue" stroke="midnightblue" points="1390.95,-597.732 1401.41,-599.441 1394.3,-591.584 1390.95,-597.732"/>
</g>
<!-- Node4 -->
<g id="node4" class="node"><title>Node4</title>
<g id="a_node4"><a xlink:href="../../d5/da5/classsimulation_objects_1_1_patch.html#a06f00537a57f3678cf147c580b92de0d" target="_top" xlink:title="simulationObjects.Patch.update\lCellConstraints">
<polygon fill="white" stroke="black" points="1336,-457.022 1336,-487.022 1504,-487.022 1504,-457.022 1336,-457.022"/>
<text text-anchor="start" x="1344" y="-475.022" font-family="Helvetica,sans-Serif" font-size="10.00">simulationObjects.Patch.update</text>
<text text-anchor="middle" x="1420" y="-464.022" font-family="Helvetica,sans-Serif" font-size="10.00">CellConstraints</text>
</a>
</g>
</g>
<!-- Node2&#45;&gt;Node4 -->
<g id="edge3" class="edge"><title>Node2&#45;&gt;Node4</title>
<path fill="none" stroke="midnightblue" d="M1290.18,-484.722C1301.79,-483.579 1313.76,-482.398 1325.51,-481.239"/>
<polygon fill="midnightblue" stroke="midnightblue" points="1326.17,-484.692 1335.78,-480.227 1325.48,-477.725 1326.17,-484.692"/>
</g>
<!-- Node5 -->
<g id="node5" class="node"><title>Node5</title>
<g id="a_node5"><a xlink:href="../../d0/d1a/classsimulation_objects_1_1_patch_body.html#a466dadbe30fb2f8360163881e0db9295" target="_top" xlink:title="simulationObjects.PatchBody.get\lPatchWidth">
<polygon fill="white" stroke="black" points="1550.5,-506.022 1550.5,-536.022 1723.5,-536.022 1723.5,-506.022 1550.5,-506.022"/>
<text text-anchor="start" x="1558.5" y="-524.022" font-family="Helvetica,sans-Serif" font-size="10.00">simulationObjects.PatchBody.get</text>
<text text-anchor="middle" x="1637" y="-513.022" font-family="Helvetica,sans-Serif" font-size="10.00">PatchWidth</text>
</a>
</g>
</g>
<!-- Node4&#45;&gt;Node5 -->
<g id="edge4" class="edge"><title>Node4&#45;&gt;Node5</title>
<path fill="none" stroke="midnightblue" d="M1486.97,-487.057C1510.19,-492.348 1536.46,-498.335 1560.4,-503.793"/>
<polygon fill="midnightblue" stroke="midnightblue" points="1559.63,-507.206 1570.16,-506.016 1561.18,-500.381 1559.63,-507.206"/>
</g>
<!-- Node6 -->
<g id="node6" class="node"><title>Node6</title>
<g id="a_node6"><a xlink:href="../../d0/d1a/classsimulation_objects_1_1_patch_body.html#a7be1762ade4eaee79c26ac524eb97f33" target="_top" xlink:title="simulationObjects.PatchBody.get\lCenter">
<polygon fill="white" stroke="black" points="1550.5,-457.022 1550.5,-487.022 1723.5,-487.022 1723.5,-457.022 1550.5,-457.022"/>
<text text-anchor="start" x="1558.5" y="-475.022" font-family="Helvetica,sans-Serif" font-size="10.00">simulationObjects.PatchBody.get</text>
<text text-anchor="middle" x="1637" y="-464.022" font-family="Helvetica,sans-Serif" font-size="10.00">Center</text>
</a>
</g>
</g>
<!-- Node4&#45;&gt;Node6 -->
<g id="edge5" class="edge"><title>Node4&#45;&gt;Node6</title>
<path fill="none" stroke="midnightblue" d="M1504.12,-472.022C1515.94,-472.022 1528.17,-472.022 1540.21,-472.022"/>
<polygon fill="midnightblue" stroke="midnightblue" points="1540.25,-475.522 1550.25,-472.022 1540.25,-468.522 1540.25,-475.522"/>
</g>
<!-- Node7 -->
<g id="node7" class="node"><title>Node7</title>
<g id="a_node7"><a xlink:href="../../d0/d1a/classsimulation_objects_1_1_patch_body.html#a268e88a7cb1f5feb98f49e230475c2ba" target="_top" xlink:title="simulationObjects.PatchBody.get\lPatchHeight">
<polygon fill="white" stroke="black" points="1550.5,-408.022 1550.5,-438.022 1723.5,-438.022 1723.5,-408.022 1550.5,-408.022"/>
<text text-anchor="start" x="1558.5" y="-426.022" font-family="Helvetica,sans-Serif" font-size="10.00">simulationObjects.PatchBody.get</text>
<text text-anchor="middle" x="1637" y="-415.022" font-family="Helvetica,sans-Serif" font-size="10.00">PatchHeight</text>
</a>
</g>
</g>
<!-- Node4&#45;&gt;Node7 -->
<g id="edge6" class="edge"><title>Node4&#45;&gt;Node7</title>
<path fill="none" stroke="midnightblue" d="M1486.97,-456.988C1510.19,-451.696 1536.46,-445.709 1560.4,-440.251"/>
<polygon fill="midnightblue" stroke="midnightblue" points="1561.18,-443.663 1570.16,-438.028 1559.63,-436.838 1561.18,-443.663"/>
</g>
<!-- Node9 -->
<g id="node9" class="node"><title>Node9</title>
<g id="a_node9"><a xlink:href="../../d7/d97/classcontroller_1_1_grid.html#a52256ef1252a18eab8baeb2edef836d8" target="_top" xlink:title="controller.Grid.addPatch\lToGrid">
<polygon fill="white" stroke="black" points="469.5,-382.022 469.5,-412.022 600.5,-412.022 600.5,-382.022 469.5,-382.022"/>
<text text-anchor="start" x="477.5" y="-400.022" font-family="Helvetica,sans-Serif" font-size="10.00">controller.Grid.addPatch</text>
<text text-anchor="middle" x="535" y="-389.022" font-family="Helvetica,sans-Serif" font-size="10.00">ToGrid</text>
</a>
</g>
</g>
<!-- Node8&#45;&gt;Node9 -->
<g id="edge8" class="edge"><title>Node8&#45;&gt;Node9</title>
<path fill="none" stroke="midnightblue" d="M368.68,-397.022C396.848,-397.022 430.034,-397.022 459.253,-397.022"/>
<polygon fill="midnightblue" stroke="midnightblue" points="459.408,-400.522 469.407,-397.022 459.407,-393.522 459.408,-400.522"/>
</g>
<!-- Node13 -->
<g id="node13" class="node"><title>Node13</title>
<g id="a_node13"><a xlink:href="../../d5/da5/classsimulation_objects_1_1_patch.html#aa905a0fdf2a84eae5e69619a1af300c9" target="_top" xlink:title="simulationObjects.Patch.get\lGridX">
<polygon fill="white" stroke="black" points="460,-333.022 460,-363.022 610,-363.022 610,-333.022 460,-333.022"/>
<text text-anchor="start" x="468" y="-351.022" font-family="Helvetica,sans-Serif" font-size="10.00">simulationObjects.Patch.get</text>
<text text-anchor="middle" x="535" y="-340.022" font-family="Helvetica,sans-Serif" font-size="10.00">GridX</text>
</a>
</g>
</g>
<!-- Node8&#45;&gt;Node13 -->
<g id="edge13" class="edge"><title>Node8&#45;&gt;Node13</title>
<path fill="none" stroke="midnightblue" d="M368.68,-383.243C394.95,-377.646 425.585,-371.119 453.295,-365.216"/>
<polygon fill="midnightblue" stroke="midnightblue" points="454.307,-368.579 463.358,-363.072 452.848,-361.732 454.307,-368.579"/>
</g>
<!-- Node14 -->
<g id="node14" class="node"><title>Node14</title>
<g id="a_node14"><a xlink:href="../../d5/da5/classsimulation_objects_1_1_patch.html#abdbebdfb8cb45838007180c12b5bfe79" target="_top" xlink:title="simulationObjects.Patch.get\lGridY">
<polygon fill="white" stroke="black" points="460,-431.022 460,-461.022 610,-461.022 610,-431.022 460,-431.022"/>
<text text-anchor="start" x="468" y="-449.022" font-family="Helvetica,sans-Serif" font-size="10.00">simulationObjects.Patch.get</text>
<text text-anchor="middle" x="535" y="-438.022" font-family="Helvetica,sans-Serif" font-size="10.00">GridY</text>
</a>
</g>
</g>
<!-- Node8&#45;&gt;Node14 -->
<g id="edge14" class="edge"><title>Node8&#45;&gt;Node14</title>
<path fill="none" stroke="midnightblue" d="M368.68,-410.802C394.95,-416.399 425.585,-422.925 453.295,-428.829"/>
<polygon fill="midnightblue" stroke="midnightblue" points="452.848,-432.312 463.358,-430.972 454.307,-425.465 452.848,-432.312"/>
</g>
<!-- Node10 -->
<g id="node10" class="node"><title>Node10</title>
<g id="a_node10"><a xlink:href="../../d5/da5/classsimulation_objects_1_1_patch.html#a77ec59a5f39498ab6337a9535a6193e0" target="_top" xlink:title="simulationObjects.Patch.createBody">
<polygon fill="white" stroke="black" points="674.5,-391.522 674.5,-410.522 863.5,-410.522 863.5,-391.522 674.5,-391.522"/>
<text text-anchor="middle" x="769" y="-398.522" font-family="Helvetica,sans-Serif" font-size="10.00">simulationObjects.Patch.createBody</text>
</a>
</g>
</g>
<!-- Node9&#45;&gt;Node10 -->
<g id="edge9" class="edge"><title>Node9&#45;&gt;Node10</title>
<path fill="none" stroke="midnightblue" d="M600.625,-398.136C620.302,-398.476 642.45,-398.858 664.036,-399.23"/>
<polygon fill="midnightblue" stroke="midnightblue" points="664.179,-402.733 674.238,-399.406 664.299,-395.734 664.179,-402.733"/>
</g>
<!-- Node10&#45;&gt;Node4 -->
<g id="edge12" class="edge"><title>Node10&#45;&gt;Node4</title>
<path fill="none" stroke="midnightblue" d="M815.859,-410.556C840.677,-415.446 871.919,-421.167 900,-425.022 1048.11,-445.357 1221.26,-459.023 1325.41,-466.157"/>
<polygon fill="midnightblue" stroke="midnightblue" points="1325.37,-469.662 1335.59,-466.848 1325.85,-462.678 1325.37,-469.662"/>
</g>
<!-- Node11 -->
<g id="node11" class="node"><title>Node11</title>
<g id="a_node11"><a xlink:href="../../d7/d97/classcontroller_1_1_grid.html#a61d4b46bec1a6a3c7f277736e6293252" target="_top" xlink:title="controller.Grid.getGridHeight">
<polygon fill="white" stroke="black" points="915.5,-396.522 915.5,-415.522 1068.5,-415.522 1068.5,-396.522 915.5,-396.522"/>
<text text-anchor="middle" x="992" y="-403.522" font-family="Helvetica,sans-Serif" font-size="10.00">controller.Grid.getGridHeight</text>
</a>
</g>
</g>
<!-- Node10&#45;&gt;Node11 -->
<g id="edge10" class="edge"><title>Node10&#45;&gt;Node11</title>
<path fill="none" stroke="midnightblue" d="M863.724,-403.143C877.411,-403.452 891.45,-403.77 904.973,-404.076"/>
<polygon fill="midnightblue" stroke="midnightblue" points="905.124,-407.58 915.2,-404.307 905.282,-400.582 905.124,-407.58"/>
</g>
<!-- Node12 -->
<g id="node12" class="node"><title>Node12</title>
<g id="a_node12"><a xlink:href="../../d7/d97/classcontroller_1_1_grid.html#a07b690d056f74953ade8dc5e762341d7" target="_top" xlink:title="controller.Grid.getGridWidth">
<polygon fill="white" stroke="black" points="918,-358.522 918,-377.522 1066,-377.522 1066,-358.522 918,-358.522"/>
<text text-anchor="middle" x="992" y="-365.522" font-family="Helvetica,sans-Serif" font-size="10.00">controller.Grid.getGridWidth</text>
</a>
</g>
</g>
<!-- Node10&#45;&gt;Node12 -->
<g id="edge11" class="edge"><title>Node10&#45;&gt;Node12</title>
<path fill="none" stroke="midnightblue" d="M833.626,-391.521C859.632,-387.638 889.89,-383.12 916.887,-379.089"/>
<polygon fill="midnightblue" stroke="midnightblue" points="917.685,-382.509 927.058,-377.57 916.651,-375.585 917.685,-382.509"/>
</g>
<!-- Node16 -->
<g id="node16" class="node"><title>Node16</title>
<g id="a_node16"><a xlink:href="../../d2/d6e/classsimulation_objects_1_1_cell.html#ab7b10d67ea8a16bcb15cc2b8d079b3a1" target="_top" xlink:title="simulationObjects.Cell.set\lState">
<polygon fill="white" stroke="black" points="1135,-568.022 1135,-598.022 1275,-598.022 1275,-568.022 1135,-568.022"/>
<text text-anchor="start" x="1143" y="-586.022" font-family="Helvetica,sans-Serif" font-size="10.00">simulationObjects.Cell.set</text>
<text text-anchor="middle" x="1205" y="-575.022" font-family="Helvetica,sans-Serif" font-size="10.00">State</text>
</a>
</g>
</g>
<!-- Node15&#45;&gt;Node16 -->
<g id="edge16" class="edge"><title>Node15&#45;&gt;Node16</title>
<path fill="none" stroke="midnightblue" d="M1058.83,-655.394C1067.59,-652.738 1076.23,-649.348 1084,-645.022 1104.05,-633.867 1100.37,-619.901 1120,-608.022 1123.59,-605.851 1127.38,-603.857 1131.28,-602.029"/>
<polygon fill="midnightblue" stroke="midnightblue" points="1132.75,-605.207 1140.57,-598.054 1130,-598.772 1132.75,-605.207"/>
</g>
<!-- Node17 -->
<g id="node17" class="node"><title>Node17</title>
<g id="a_node17"><a xlink:href="../../d2/d6e/classsimulation_objects_1_1_cell.html#a79ed116f88362c4ef4d906c7a6988fe1" target="_top" xlink:title="simulationObjects.Cell.setX">
<polygon fill="white" stroke="black" points="1132,-617.522 1132,-636.522 1278,-636.522 1278,-617.522 1132,-617.522"/>
<text text-anchor="middle" x="1205" y="-624.522" font-family="Helvetica,sans-Serif" font-size="10.00">simulationObjects.Cell.setX</text>
</a>
</g>
</g>
<!-- Node15&#45;&gt;Node17 -->
<g id="edge17" class="edge"><title>Node15&#45;&gt;Node17</title>
<path fill="none" stroke="midnightblue" d="M1045.97,-655.482C1074.82,-650.287 1110.7,-643.826 1140.97,-638.373"/>
<polygon fill="midnightblue" stroke="midnightblue" points="1141.79,-641.783 1151.01,-636.566 1140.54,-634.894 1141.79,-641.783"/>
</g>
<!-- Node18 -->
<g id="node18" class="node"><title>Node18</title>
<g id="a_node18"><a xlink:href="../../d2/d6e/classsimulation_objects_1_1_cell.html#a94febf4dbd9046affdb7f81e36b8c164" target="_top" xlink:title="simulationObjects.Cell.setY">
<polygon fill="white" stroke="black" points="1132,-655.522 1132,-674.522 1278,-674.522 1278,-655.522 1132,-655.522"/>
<text text-anchor="middle" x="1205" y="-662.522" font-family="Helvetica,sans-Serif" font-size="10.00">simulationObjects.Cell.setY</text>
</a>
</g>
</g>
<!-- Node15&#45;&gt;Node18 -->
<g id="edge18" class="edge"><title>Node15&#45;&gt;Node18</title>
<path fill="none" stroke="midnightblue" d="M1083.71,-665.022C1096.27,-665.022 1109.12,-665.022 1121.53,-665.022"/>
<polygon fill="midnightblue" stroke="midnightblue" points="1121.83,-668.522 1131.83,-665.022 1121.83,-661.522 1121.83,-668.522"/>
</g>
<!-- Node20 -->
<g id="node20" class="node"><title>Node20</title>
<g id="a_node20"><a xlink:href="../../db/ddb/classcontroller_1_1_user_interface.html#ad84ee710ce69ac5712236c30390087d4" target="_top" xlink:title="controller.UserInterface.addNode">
<polygon fill="white" stroke="black" points="447.5,-606.522 447.5,-625.522 622.5,-625.522 622.5,-606.522 447.5,-606.522"/>
<text text-anchor="middle" x="535" y="-613.522" font-family="Helvetica,sans-Serif" font-size="10.00">controller.UserInterface.addNode</text>
</a>
</g>
</g>
<!-- Node19&#45;&gt;Node20 -->
<g id="edge20" class="edge"><title>Node19&#45;&gt;Node20</title>
<path fill="none" stroke="midnightblue" d="M330.685,-565.655C356.383,-574.672 396.478,-588.062 432,-597.022 442.875,-599.765 454.493,-602.298 465.85,-604.56"/>
<polygon fill="midnightblue" stroke="midnightblue" points="465.255,-608.01 475.738,-606.477 466.587,-601.138 465.255,-608.01"/>
</g>
<!-- Node21 -->
<g id="node21" class="node"><title>Node21</title>
<g id="a_node21"><a xlink:href="../../db/ddb/classcontroller_1_1_user_interface.html#a010c5dc453bd95b1ca3c18d5a9229c45" target="_top" xlink:title="controller.UserInterface.removeNode">
<polygon fill="white" stroke="black" points="438,-568.522 438,-587.522 632,-587.522 632,-568.522 438,-568.522"/>
<text text-anchor="middle" x="535" y="-575.522" font-family="Helvetica,sans-Serif" font-size="10.00">controller.UserInterface.removeNode</text>
</a>
</g>
</g>
<!-- Node19&#45;&gt;Node21 -->
<g id="edge21" class="edge"><title>Node19&#45;&gt;Node21</title>
<path fill="none" stroke="midnightblue" d="M395.563,-564.78C406.101,-565.788 416.912,-566.822 427.624,-567.847"/>
<polygon fill="midnightblue" stroke="midnightblue" points="427.563,-571.357 437.85,-568.825 428.229,-564.389 427.563,-571.357"/>
</g>
<!-- Node22 -->
<g id="node22" class="node"><title>Node22</title>
<g id="a_node22"><a xlink:href="../../db/d32/classcontroller_1_1_main_controller.html#a20c66a59cfde2b9f8ac2b8bf67e3996d" target="_top" xlink:title="controller.MainController.toggle\lCellStateForMouseEvent">
<polygon fill="white" stroke="black" points="452.5,-519.022 452.5,-549.022 617.5,-549.022 617.5,-519.022 452.5,-519.022"/>
<text text-anchor="start" x="460.5" y="-537.022" font-family="Helvetica,sans-Serif" font-size="10.00">controller.MainController.toggle</text>
<text text-anchor="middle" x="535" y="-526.022" font-family="Helvetica,sans-Serif" font-size="10.00">CellStateForMouseEvent</text>
</a>
</g>
</g>
<!-- Node19&#45;&gt;Node22 -->
<g id="edge22" class="edge"><title>Node19&#45;&gt;Node22</title>
<path fill="none" stroke="midnightblue" d="M395.563,-547.264C410.977,-545.79 426.978,-544.259 442.394,-542.784"/>
<polygon fill="midnightblue" stroke="midnightblue" points="442.806,-546.261 452.428,-541.825 442.14,-539.293 442.806,-546.261"/>
</g>
<!-- Node23 -->
<g id="node23" class="node"><title>Node23</title>
<g id="a_node23"><a xlink:href="../../d7/d97/classcontroller_1_1_grid.html#a1a162616b0d12d2dcd2bf3f34d45b88f" target="_top" xlink:title="controller.Grid.getPatch\lAtCoordinate">
<polygon fill="white" stroke="black" points="705,-519.022 705,-549.022 833,-549.022 833,-519.022 705,-519.022"/>
<text text-anchor="start" x="713" y="-537.022" font-family="Helvetica,sans-Serif" font-size="10.00">controller.Grid.getPatch</text>
<text text-anchor="middle" x="769" y="-526.022" font-family="Helvetica,sans-Serif" font-size="10.00">AtCoordinate</text>
</a>
</g>
</g>
<!-- Node22&#45;&gt;Node23 -->
<g id="edge23" class="edge"><title>Node22&#45;&gt;Node23</title>
<path fill="none" stroke="midnightblue" d="M617.795,-534.022C642.793,-534.022 670.12,-534.022 694.53,-534.022"/>
<polygon fill="midnightblue" stroke="midnightblue" points="694.798,-537.522 704.798,-534.022 694.798,-530.522 694.798,-537.522"/>
</g>
<!-- Node24 -->
<g id="node24" class="node"><title>Node24</title>
<g id="a_node24"><a xlink:href="../../d5/da5/classsimulation_objects_1_1_patch.html#a982ffbab2f32d5955c2c59b5a89fc4a1" target="_top" xlink:title="simulationObjects.Patch.toggle\lCellState">
<polygon fill="white" stroke="black" points="687,-568.022 687,-598.022 851,-598.022 851,-568.022 687,-568.022"/>
<text text-anchor="start" x="695" y="-586.022" font-family="Helvetica,sans-Serif" font-size="10.00">simulationObjects.Patch.toggle</text>
<text text-anchor="middle" x="769" y="-575.022" font-family="Helvetica,sans-Serif" font-size="10.00">CellState</text>
</a>
</g>
</g>
<!-- Node22&#45;&gt;Node24 -->
<g id="edge24" class="edge"><title>Node22&#45;&gt;Node24</title>
<path fill="none" stroke="midnightblue" d="M607.184,-549.057C632.46,-554.395 661.09,-560.442 687.115,-565.939"/>
<polygon fill="midnightblue" stroke="midnightblue" points="686.443,-569.374 696.95,-568.016 687.889,-562.525 686.443,-569.374"/>
</g>
<!-- Node24&#45;&gt;Node3 -->
<g id="edge26" class="edge"><title>Node24&#45;&gt;Node3</title>
<path fill="none" stroke="midnightblue" d="M782.91,-598.063C804.366,-621.766 849.983,-666.876 900,-684.022 1063.97,-740.231 1122.64,-729.138 1290,-684.022 1332.55,-672.552 1375.51,-643.209 1399.55,-624.811"/>
<polygon fill="midnightblue" stroke="midnightblue" points="1401.79,-627.499 1407.51,-618.581 1397.48,-621.986 1401.79,-627.499"/>
</g>
<!-- Node24&#45;&gt;Node16 -->
<g id="edge27" class="edge"><title>Node24&#45;&gt;Node16</title>
<path fill="none" stroke="midnightblue" d="M827.193,-567.919C839.35,-564.679 852.104,-561.256 864,-558.022 880.024,-553.666 883.546,-550.265 900,-548.022 981.028,-536.977 1003.04,-536.457 1084,-548.022 1107.28,-551.347 1132.34,-558.127 1153.52,-564.841"/>
<polygon fill="midnightblue" stroke="midnightblue" points="1152.67,-568.246 1163.26,-568.012 1154.84,-561.589 1152.67,-568.246"/>
</g>
<!-- Node25 -->
<g id="node25" class="node"><title>Node25</title>
<g id="a_node25"><a xlink:href="../../d2/d6e/classsimulation_objects_1_1_cell.html#a8b09099316cc34ad6f5ceec3d03d7584" target="_top" xlink:title="simulationObjects.Cell.get\lNextState">
<polygon fill="white" stroke="black" points="921.5,-557.022 921.5,-587.022 1062.5,-587.022 1062.5,-557.022 921.5,-557.022"/>
<text text-anchor="start" x="929.5" y="-575.022" font-family="Helvetica,sans-Serif" font-size="10.00">simulationObjects.Cell.get</text>
<text text-anchor="middle" x="992" y="-564.022" font-family="Helvetica,sans-Serif" font-size="10.00">NextState</text>
</a>
</g>
</g>
<!-- Node24&#45;&gt;Node25 -->
<g id="edge25" class="edge"><title>Node24&#45;&gt;Node25</title>
<path fill="none" stroke="midnightblue" d="M851.037,-578.989C870.654,-578.012 891.608,-576.969 911.169,-575.996"/>
<polygon fill="midnightblue" stroke="midnightblue" points="911.443,-579.486 921.257,-575.494 911.095,-572.495 911.443,-579.486"/>
</g>
<!-- Node26 -->
<g id="node26" class="node"><title>Node26</title>
<g id="a_node26"><a xlink:href="../../d5/da5/classsimulation_objects_1_1_patch.html#a801de23da5dcdf2e6914b939deefe67e" target="_top" xlink:title="simulationObjects.Patch.create\lNewCell">
<polygon fill="white" stroke="black" points="909.5,-606.022 909.5,-636.022 1074.5,-636.022 1074.5,-606.022 909.5,-606.022"/>
<text text-anchor="start" x="917.5" y="-624.022" font-family="Helvetica,sans-Serif" font-size="10.00">simulationObjects.Patch.create</text>
<text text-anchor="middle" x="992" y="-613.022" font-family="Helvetica,sans-Serif" font-size="10.00">NewCell</text>
</a>
</g>
</g>
<!-- Node24&#45;&gt;Node26 -->
<g id="edge28" class="edge"><title>Node24&#45;&gt;Node26</title>
<path fill="none" stroke="midnightblue" d="M851.037,-596.956C866.748,-599.658 883.316,-602.506 899.339,-605.261"/>
<polygon fill="midnightblue" stroke="midnightblue" points="898.784,-608.717 909.233,-606.963 899.97,-601.819 898.784,-608.717"/>
</g>
<!-- Node26&#45;&gt;Node2 -->
<g id="edge29" class="edge"><title>Node26&#45;&gt;Node2</title>
<path fill="none" stroke="midnightblue" d="M1063.14,-605.892C1070.42,-603.119 1077.51,-599.856 1084,-596.022 1103.75,-584.352 1102.94,-574.366 1120,-559.022 1140.31,-540.75 1165.07,-521.651 1182.42,-508.728"/>
<polygon fill="midnightblue" stroke="midnightblue" points="1184.79,-511.326 1190.76,-502.57 1180.64,-505.695 1184.79,-511.326"/>
</g>
<!-- Node26&#45;&gt;Node16 -->
<g id="edge30" class="edge"><title>Node26&#45;&gt;Node16</title>
<path fill="none" stroke="midnightblue" d="M1074.58,-606.33C1091.1,-603.356 1108.44,-600.232 1124.87,-597.273"/>
<polygon fill="midnightblue" stroke="midnightblue" points="1125.75,-600.671 1134.97,-595.454 1124.51,-593.782 1125.75,-600.671"/>
</g>
<!-- Node26&#45;&gt;Node17 -->
<g id="edge31" class="edge"><title>Node26&#45;&gt;Node17</title>
<path fill="none" stroke="midnightblue" d="M1074.58,-623.342C1090.08,-623.783 1106.32,-624.244 1121.84,-624.686"/>
<polygon fill="midnightblue" stroke="midnightblue" points="1121.83,-628.187 1131.93,-624.973 1122.03,-621.19 1121.83,-628.187"/>
</g>
<!-- Node26&#45;&gt;Node18 -->
<g id="edge32" class="edge"><title>Node26&#45;&gt;Node18</title>
<path fill="none" stroke="midnightblue" d="M1065.02,-636.041C1092.32,-641.734 1122.95,-648.122 1148.5,-653.449"/>
<polygon fill="midnightblue" stroke="midnightblue" points="1147.88,-656.895 1158.38,-655.51 1149.31,-650.042 1147.88,-656.895"/>
</g>
<!-- Node28 -->
<g id="node28" class="node"><title>Node28</title>
<g id="a_node28"><a xlink:href="../../de/d7a/classcontroller_1_1_grid_info.html#a5eb35ecb7a9a19b0ffddc278ee1f8bf1" target="_top" xlink:title="controller.GridInfo.getPatchType">
<polygon fill="white" stroke="black" points="451.5,-294.522 451.5,-313.522 618.5,-313.522 618.5,-294.522 451.5,-294.522"/>
<text text-anchor="middle" x="535" y="-301.522" font-family="Helvetica,sans-Serif" font-size="10.00">controller.GridInfo.getPatchType</text>
</a>
</g>
</g>
<!-- Node27&#45;&gt;Node28 -->
<g id="edge34" class="edge"><title>Node27&#45;&gt;Node28</title>
<path fill="none" stroke="midnightblue" d="M381.547,-333.187C411.746,-327.41 445.812,-320.893 474.071,-315.487"/>
<polygon fill="midnightblue" stroke="midnightblue" points="475.038,-318.865 484.202,-313.549 473.722,-311.99 475.038,-318.865"/>
</g>
<!-- Node29 -->
<g id="node29" class="node"><title>Node29</title>
<g id="a_node29"><a xlink:href="../../d5/da5/classsimulation_objects_1_1_patch.html#a887b259553d6546b16ae0a133539098e" target="_top" xlink:title="simulationObjects.Patch.initialize">
<polygon fill="white" stroke="black" points="448.5,-256.522 448.5,-275.522 621.5,-275.522 621.5,-256.522 448.5,-256.522"/>
<text text-anchor="middle" x="535" y="-263.522" font-family="Helvetica,sans-Serif" font-size="10.00">simulationObjects.Patch.initialize</text>
</a>
</g>
</g>
<!-- Node27&#45;&gt;Node29 -->
<g id="edge35" class="edge"><title>Node27&#45;&gt;Node29</title>
<path fill="none" stroke="midnightblue" d="M375.443,-332.858C382.619,-330.095 389.607,-326.844 396,-323.022 415.968,-311.084 411.564,-296.141 432,-285.022 436.228,-282.722 440.684,-280.695 445.275,-278.909"/>
<polygon fill="midnightblue" stroke="midnightblue" points="446.565,-282.166 454.858,-275.572 444.263,-275.555 446.565,-282.166"/>
</g>
<!-- Node32 -->
<g id="node32" class="node"><title>Node32</title>
<g id="a_node32"><a xlink:href="../../de/d7a/classcontroller_1_1_grid_info.html#a950f874bbf7935273015e19158a6caf8" target="_top" xlink:title="controller.GridInfo.getMax\lCellState">
<polygon fill="white" stroke="black" points="465.5,-207.022 465.5,-237.022 604.5,-237.022 604.5,-207.022 465.5,-207.022"/>
<text text-anchor="start" x="473.5" y="-225.022" font-family="Helvetica,sans-Serif" font-size="10.00">controller.GridInfo.getMax</text>
<text text-anchor="middle" x="535" y="-214.022" font-family="Helvetica,sans-Serif" font-size="10.00">CellState</text>
</a>
</g>
</g>
<!-- Node31&#45;&gt;Node32 -->
<g id="edge38" class="edge"><title>Node31&#45;&gt;Node32</title>
<path fill="none" stroke="midnightblue" d="M365.636,-249.839C393.132,-245.296 425.857,-239.889 455.113,-235.056"/>
<polygon fill="midnightblue" stroke="midnightblue" points="456.006,-238.456 465.302,-233.372 454.865,-231.549 456.006,-238.456"/>
</g>
<!-- Node37 -->
<g id="node37" class="node"><title>Node37</title>
<g id="a_node37"><a xlink:href="../../de/d7a/classcontroller_1_1_grid_info.html#aeb922edcbb88af55aee279dae79d7660" target="_top" xlink:title="controller.GridInfo.getWidth">
<polygon fill="white" stroke="black" points="696,-121.522 696,-140.522 842,-140.522 842,-121.522 696,-121.522"/>
<text text-anchor="middle" x="769" y="-128.522" font-family="Helvetica,sans-Serif" font-size="10.00">controller.GridInfo.getWidth</text>
</a>
</g>
</g>
<!-- Node36&#45;&gt;Node37 -->
<g id="edge43" class="edge"><title>Node36&#45;&gt;Node37</title>
<path fill="none" stroke="midnightblue" d="M373.188,-89.0545C381.094,-91.8645 388.867,-95.1625 396,-99.0222 414.828,-109.21 411.99,-123.414 432,-131.022 526.261,-166.86 646.438,-154.296 714.544,-142.358"/>
<polygon fill="midnightblue" stroke="midnightblue" points="715.396,-145.76 724.61,-140.531 714.146,-138.873 715.396,-145.76"/>
</g>
<!-- Node38 -->
<g id="node38" class="node"><title>Node38</title>
<g id="a_node38"><a xlink:href="../../de/d7a/classcontroller_1_1_grid_info.html#af31c032d9ad520ab2993ce173a721a56" target="_top" xlink:title="controller.GridInfo.getHeight">
<polygon fill="white" stroke="black" points="693.5,-45.5222 693.5,-64.5222 844.5,-64.5222 844.5,-45.5222 693.5,-45.5222"/>
<text text-anchor="middle" x="769" y="-52.5222" font-family="Helvetica,sans-Serif" font-size="10.00">controller.GridInfo.getHeight</text>
</a>
</g>
</g>
<!-- Node36&#45;&gt;Node38 -->
<g id="edge44" class="edge"><title>Node36&#45;&gt;Node38</title>
<path fill="none" stroke="midnightblue" d="M373.188,-58.9899C381.094,-56.1798 388.867,-52.8818 396,-49.0222 414.828,-38.8344 411.99,-24.6299 432,-17.0222 537.518,23.0957 674.097,-18.4964 735.538,-41.6809"/>
<polygon fill="midnightblue" stroke="midnightblue" points="734.492,-45.0291 745.082,-45.3645 737.013,-38.4986 734.492,-45.0291"/>
</g>
<!-- Node39 -->
<g id="node39" class="node"><title>Node39</title>
<g id="a_node39"><a xlink:href="../../de/d7a/classcontroller_1_1_grid_info.html#aa1ef6cedb22bcd544e4c21d201c6f6c7" target="_top" xlink:title="controller.GridInfo.setWidth">
<polygon fill="white" stroke="black" points="462.5,-64.5222 462.5,-83.5222 607.5,-83.5222 607.5,-64.5222 462.5,-64.5222"/>
<text text-anchor="middle" x="535" y="-71.5222" font-family="Helvetica,sans-Serif" font-size="10.00">controller.GridInfo.setWidth</text>
</a>
</g>
</g>
<!-- Node36&#45;&gt;Node39 -->
<g id="edge45" class="edge"><title>Node36&#45;&gt;Node39</title>
<path fill="none" stroke="midnightblue" d="M384.12,-74.0222C406.155,-74.0222 430.078,-74.0222 452.206,-74.0222"/>
<polygon fill="midnightblue" stroke="midnightblue" points="452.234,-77.5223 462.234,-74.0222 452.234,-70.5223 452.234,-77.5223"/>
</g>
<!-- Node40 -->
<g id="node40" class="node"><title>Node40</title>
<g id="a_node40"><a xlink:href="../../de/d7a/classcontroller_1_1_grid_info.html#a9bad52b68d084a34a421652fd07d713c" target="_top" xlink:title="controller.GridInfo.setHeight">
<polygon fill="white" stroke="black" points="460,-26.5222 460,-45.5222 610,-45.5222 610,-26.5222 460,-26.5222"/>
<text text-anchor="middle" x="535" y="-33.5222" font-family="Helvetica,sans-Serif" font-size="10.00">controller.GridInfo.setHeight</text>
</a>
</g>
</g>
<!-- Node36&#45;&gt;Node40 -->
<g id="edge46" class="edge"><title>Node36&#45;&gt;Node40</title>
<path fill="none" stroke="midnightblue" d="M384.12,-60.785C410.902,-56.3602 440.471,-51.4748 466.219,-47.2208"/>
<polygon fill="midnightblue" stroke="midnightblue" points="466.959,-50.646 476.255,-45.5627 465.818,-43.7397 466.959,-50.646"/>
</g>
<!-- Node41 -->
<g id="node41" class="node"><title>Node41</title>
<g id="a_node41"><a xlink:href="../../db/d32/classcontroller_1_1_main_controller.html#a00aa5baee2ea887c8a3ed80a9a94720f" target="_top" xlink:title="controller.MainController.randomizeGrid">
<polygon fill="white" stroke="black" points="432,-102.522 432,-121.522 638,-121.522 638,-102.522 432,-102.522"/>
<text text-anchor="middle" x="535" y="-109.522" font-family="Helvetica,sans-Serif" font-size="10.00">controller.MainController.randomizeGrid</text>
</a>
</g>
</g>
<!-- Node36&#45;&gt;Node41 -->
<g id="edge47" class="edge"><title>Node36&#45;&gt;Node41</title>
<path fill="none" stroke="midnightblue" d="M384.12,-87.2594C410.902,-91.6842 440.471,-96.5695 466.219,-100.824"/>
<polygon fill="midnightblue" stroke="midnightblue" points="465.818,-104.305 476.255,-102.482 466.959,-97.3983 465.818,-104.305"/>
</g>
<!-- Node41&#45;&gt;Node37 -->
<g id="edge49" class="edge"><title>Node41&#45;&gt;Node37</title>
<path fill="none" stroke="midnightblue" d="M638.096,-120.383C654.052,-121.69 670.364,-123.026 685.801,-124.29"/>
<polygon fill="midnightblue" stroke="midnightblue" points="685.554,-127.782 695.806,-125.11 686.125,-120.805 685.554,-127.782"/>
</g>
<!-- Node41&#45;&gt;Node38 -->
<g id="edge48" class="edge"><title>Node41&#45;&gt;Node38</title>
<path fill="none" stroke="midnightblue" d="M592.863,-102.474C607.623,-99.7102 623.458,-96.4928 638,-93.0222 668.792,-85.6735 703.15,-75.5446 728.809,-67.5921"/>
<polygon fill="midnightblue" stroke="midnightblue" points="730.037,-70.8752 738.538,-64.5518 727.949,-64.1939 730.037,-70.8752"/>
</g>
</g>
</svg>
