<?xml version="1.0" encoding="UTF-8" standalone="no"?>
<!DOCTYPE svg PUBLIC "-//W3C//DTD SVG 1.1//EN"
 "http://www.w3.org/Graphics/SVG/1.1/DTD/svg11.dtd">
<!-- Generated by graphviz version 2.36.0 (20140111.2315)
 -->
<!-- Title: controller.MainController.toggleCellStateForMouseEvent Pages: 1 -->
<svg width="1216pt" height="241pt"
 viewBox="0.00 0.00 1216.00 241.00" xmlns="http://www.w3.org/2000/svg" xmlns:xlink="http://www.w3.org/1999/xlink">
<g id="graph0" class="graph" transform="scale(1 1) rotate(0) translate(4 237)">
<title>controller.MainController.toggleCellStateForMouseEvent</title>
<polygon fill="white" stroke="none" points="-4,4 -4,-237 1212,-237 1212,4 -4,4"/>
<!-- Node1 -->
<g id="node1" class="node"><title>Node1</title>
<polygon fill="#bfbfbf" stroke="black" points="0.5,-162 0.5,-192 165.5,-192 165.5,-162 0.5,-162"/>
<text text-anchor="start" x="8.5" y="-180" font-family="Helvetica,sans-Serif" font-size="10.00">controller.MainController.toggle</text>
<text text-anchor="middle" x="83" y="-169" font-family="Helvetica,sans-Serif" font-size="10.00">CellStateForMouseEvent</text>
</g>
<!-- Node2 -->
<g id="node2" class="node"><title>Node2</title>
<g id="a_node2"><a xlink:href="../../d7/d97/classcontroller_1_1_grid.html#a1a162616b0d12d2dcd2bf3f34d45b88f" target="_top" xlink:title="controller.Grid.getPatch\lAtCoordinate">
<polygon fill="white" stroke="black" points="220,-187 220,-217 348,-217 348,-187 220,-187"/>
<text text-anchor="start" x="228" y="-205" font-family="Helvetica,sans-Serif" font-size="10.00">controller.Grid.getPatch</text>
<text text-anchor="middle" x="284" y="-194" font-family="Helvetica,sans-Serif" font-size="10.00">AtCoordinate</text>
</a>
</g>
</g>
<!-- Node1&#45;&gt;Node2 -->
<g id="edge1" class="edge"><title>Node1&#45;&gt;Node2</title>
<path fill="none" stroke="midnightblue" d="M165.515,-187.241C180.112,-189.074 195.243,-190.975 209.595,-192.778"/>
<polygon fill="midnightblue" stroke="midnightblue" points="209.531,-196.298 219.889,-194.071 210.403,-189.352 209.531,-196.298"/>
</g>
<!-- Node3 -->
<g id="node3" class="node"><title>Node3</title>
<g id="a_node3"><a xlink:href="../../d5/da5/classsimulation_objects_1_1_patch.html#a982ffbab2f32d5955c2c59b5a89fc4a1" target="_top" xlink:title="simulationObjects.Patch.toggle\lCellState">
<polygon fill="white" stroke="black" points="202,-138 202,-168 366,-168 366,-138 202,-138"/>
<text text-anchor="start" x="210" y="-156" font-family="Helvetica,sans-Serif" font-size="10.00">simulationObjects.Patch.toggle</text>
<text text-anchor="middle" x="284" y="-145" font-family="Helvetica,sans-Serif" font-size="10.00">CellState</text>
</a>
</g>
</g>
<!-- Node1&#45;&gt;Node3 -->
<g id="edge2" class="edge"><title>Node1&#45;&gt;Node3</title>
<path fill="none" stroke="midnightblue" d="M165.515,-167.169C174.156,-166.127 182.984,-165.062 191.726,-164.008"/>
<polygon fill="midnightblue" stroke="midnightblue" points="192.425,-167.449 201.934,-162.777 191.586,-160.499 192.425,-167.449"/>
</g>
<!-- Node4 -->
<g id="node4" class="node"><title>Node4</title>
<g id="a_node4"><a xlink:href="../../d2/d6e/classsimulation_objects_1_1_cell.html#a8b09099316cc34ad6f5ceec3d03d7584" target="_top" xlink:title="simulationObjects.Cell.get\lNextState">
<polygon fill="white" stroke="black" points="414.5,-203 414.5,-233 555.5,-233 555.5,-203 414.5,-203"/>
<text text-anchor="start" x="422.5" y="-221" font-family="Helvetica,sans-Serif" font-size="10.00">simulationObjects.Cell.get</text>
<text text-anchor="middle" x="485" y="-210" font-family="Helvetica,sans-Serif" font-size="10.00">NextState</text>
</a>
</g>
</g>
<!-- Node3&#45;&gt;Node4 -->
<g id="edge3" class="edge"><title>Node3&#45;&gt;Node4</title>
<path fill="none" stroke="midnightblue" d="M336.963,-168.008C346.639,-170.913 356.645,-173.991 366,-177 387.922,-184.052 411.96,-192.308 432.586,-199.555"/>
<polygon fill="midnightblue" stroke="midnightblue" points="431.512,-202.888 442.107,-202.914 433.841,-196.287 431.512,-202.888"/>
</g>
<!-- Node5 -->
<g id="node5" class="node"><title>Node5</title>
<g id="a_node5"><a xlink:href="../../d5/da5/classsimulation_objects_1_1_patch.html#ac18f8e7cdd82ed885a6a92f066da2d38" target="_top" xlink:title="simulationObjects.Patch.removeCell">
<polygon fill="white" stroke="black" points="810,-142.5 810,-161.5 998,-161.5 998,-142.5 810,-142.5"/>
<text text-anchor="middle" x="904" y="-149.5" font-family="Helvetica,sans-Serif" font-size="10.00">simulationObjects.Patch.removeCell</text>
</a>
</g>
</g>
<!-- Node3&#45;&gt;Node5 -->
<g id="edge4" class="edge"><title>Node3&#45;&gt;Node5</title>
<path fill="none" stroke="midnightblue" d="M366.188,-155.351C378.195,-155.62 390.419,-155.852 402,-156 567.322,-158.119 608.677,-156.084 774,-154 782.371,-153.894 791.047,-153.777 799.761,-153.654"/>
<polygon fill="midnightblue" stroke="midnightblue" points="800.043,-157.15 809.992,-153.506 799.942,-150.151 800.043,-157.15"/>
</g>
<!-- Node6 -->
<g id="node6" class="node"><title>Node6</title>
<g id="a_node6"><a xlink:href="../../d2/d6e/classsimulation_objects_1_1_cell.html#ab7b10d67ea8a16bcb15cc2b8d079b3a1" target="_top" xlink:title="simulationObjects.Cell.set\lState">
<polygon fill="white" stroke="black" points="619,-115 619,-145 759,-145 759,-115 619,-115"/>
<text text-anchor="start" x="627" y="-133" font-family="Helvetica,sans-Serif" font-size="10.00">simulationObjects.Cell.set</text>
<text text-anchor="middle" x="689" y="-122" font-family="Helvetica,sans-Serif" font-size="10.00">State</text>
</a>
</g>
</g>
<!-- Node3&#45;&gt;Node6 -->
<g id="edge5" class="edge"><title>Node3&#45;&gt;Node6</title>
<path fill="none" stroke="midnightblue" d="M366.068,-148.373C436.72,-144.341 538.572,-138.528 608.698,-134.526"/>
<polygon fill="midnightblue" stroke="midnightblue" points="609.022,-138.013 618.806,-133.949 608.623,-131.025 609.022,-138.013"/>
</g>
<!-- Node7 -->
<g id="node7" class="node"><title>Node7</title>
<g id="a_node7"><a xlink:href="../../d5/da5/classsimulation_objects_1_1_patch.html#a801de23da5dcdf2e6914b939deefe67e" target="_top" xlink:title="simulationObjects.Patch.create\lNewCell">
<polygon fill="white" stroke="black" points="402.5,-71 402.5,-101 567.5,-101 567.5,-71 402.5,-71"/>
<text text-anchor="start" x="410.5" y="-89" font-family="Helvetica,sans-Serif" font-size="10.00">simulationObjects.Patch.create</text>
<text text-anchor="middle" x="485" y="-78" font-family="Helvetica,sans-Serif" font-size="10.00">NewCell</text>
</a>
</g>
</g>
<!-- Node3&#45;&gt;Node7 -->
<g id="edge6" class="edge"><title>Node3&#45;&gt;Node7</title>
<path fill="none" stroke="midnightblue" d="M329.659,-137.964C359.257,-127.999 398.269,-114.864 429.665,-104.294"/>
<polygon fill="midnightblue" stroke="midnightblue" points="430.785,-107.61 439.146,-101.102 428.552,-100.976 430.785,-107.61"/>
</g>
<!-- Node7&#45;&gt;Node6 -->
<g id="edge13" class="edge"><title>Node7&#45;&gt;Node6</title>
<path fill="none" stroke="midnightblue" d="M554.952,-101.019C572.407,-104.821 591.286,-108.934 609.187,-112.833"/>
<polygon fill="midnightblue" stroke="midnightblue" points="608.5,-116.265 619.016,-114.974 609.99,-109.426 608.5,-116.265"/>
</g>
<!-- Node8 -->
<g id="node8" class="node"><title>Node8</title>
<g id="a_node8"><a xlink:href="../../d5/da5/classsimulation_objects_1_1_patch.html#ac05b7dd86c9f30b498d93d62cbbba9a4" target="_top" xlink:title="simulationObjects.Patch.addCell">
<polygon fill="white" stroke="black" points="604,-76.5 604,-95.5 774,-95.5 774,-76.5 604,-76.5"/>
<text text-anchor="middle" x="689" y="-83.5" font-family="Helvetica,sans-Serif" font-size="10.00">simulationObjects.Patch.addCell</text>
</a>
</g>
</g>
<!-- Node7&#45;&gt;Node8 -->
<g id="edge7" class="edge"><title>Node7&#45;&gt;Node8</title>
<path fill="none" stroke="midnightblue" d="M567.579,-86C576.157,-86 584.93,-86 593.637,-86"/>
<polygon fill="midnightblue" stroke="midnightblue" points="593.811,-89.5001 603.811,-86 593.811,-82.5001 593.811,-89.5001"/>
</g>
<!-- Node13 -->
<g id="node13" class="node"><title>Node13</title>
<g id="a_node13"><a xlink:href="../../d2/d6e/classsimulation_objects_1_1_cell.html#a79ed116f88362c4ef4d906c7a6988fe1" target="_top" xlink:title="simulationObjects.Cell.setX">
<polygon fill="white" stroke="black" points="616,-38.5 616,-57.5 762,-57.5 762,-38.5 616,-38.5"/>
<text text-anchor="middle" x="689" y="-45.5" font-family="Helvetica,sans-Serif" font-size="10.00">simulationObjects.Cell.setX</text>
</a>
</g>
</g>
<!-- Node7&#45;&gt;Node13 -->
<g id="edge14" class="edge"><title>Node7&#45;&gt;Node13</title>
<path fill="none" stroke="midnightblue" d="M565.836,-70.9814C586.402,-67.1125 608.194,-63.0131 627.59,-59.3643"/>
<polygon fill="midnightblue" stroke="midnightblue" points="628.315,-62.7894 637.495,-57.5009 627.02,-55.9101 628.315,-62.7894"/>
</g>
<!-- Node14 -->
<g id="node14" class="node"><title>Node14</title>
<g id="a_node14"><a xlink:href="../../d2/d6e/classsimulation_objects_1_1_cell.html#a94febf4dbd9046affdb7f81e36b8c164" target="_top" xlink:title="simulationObjects.Cell.setY">
<polygon fill="white" stroke="black" points="616,-0.5 616,-19.5 762,-19.5 762,-0.5 616,-0.5"/>
<text text-anchor="middle" x="689" y="-7.5" font-family="Helvetica,sans-Serif" font-size="10.00">simulationObjects.Cell.setY</text>
</a>
</g>
</g>
<!-- Node7&#45;&gt;Node14 -->
<g id="edge15" class="edge"><title>Node7&#45;&gt;Node14</title>
<path fill="none" stroke="midnightblue" d="M512.902,-70.8192C536.343,-58.1288 571.57,-40.3342 604,-29 611.526,-26.3698 619.561,-24.0109 627.566,-21.9246"/>
<polygon fill="midnightblue" stroke="midnightblue" points="628.417,-25.3196 637.28,-19.5148 626.732,-18.5256 628.417,-25.3196"/>
</g>
<!-- Node8&#45;&gt;Node5 -->
<g id="edge8" class="edge"><title>Node8&#45;&gt;Node5</title>
<path fill="none" stroke="midnightblue" d="M736.924,-95.5081C749.078,-98.2721 762.094,-101.5 774,-105 807.256,-114.776 844.356,-128.612 870.201,-138.74"/>
<polygon fill="midnightblue" stroke="midnightblue" points="868.938,-142.004 879.524,-142.424 871.511,-135.494 868.938,-142.004"/>
</g>
<!-- Node9 -->
<g id="node9" class="node"><title>Node9</title>
<g id="a_node9"><a xlink:href="../../d5/da5/classsimulation_objects_1_1_patch.html#a06f00537a57f3678cf147c580b92de0d" target="_top" xlink:title="simulationObjects.Patch.update\lCellConstraints">
<polygon fill="white" stroke="black" points="820,-71 820,-101 988,-101 988,-71 820,-71"/>
<text text-anchor="start" x="828" y="-89" font-family="Helvetica,sans-Serif" font-size="10.00">simulationObjects.Patch.update</text>
<text text-anchor="middle" x="904" y="-78" font-family="Helvetica,sans-Serif" font-size="10.00">CellConstraints</text>
</a>
</g>
</g>
<!-- Node8&#45;&gt;Node9 -->
<g id="edge9" class="edge"><title>Node8&#45;&gt;Node9</title>
<path fill="none" stroke="midnightblue" d="M774.183,-86C785.785,-86 797.757,-86 809.514,-86"/>
<polygon fill="midnightblue" stroke="midnightblue" points="809.776,-89.5001 819.776,-86 809.776,-82.5001 809.776,-89.5001"/>
</g>
<!-- Node10 -->
<g id="node10" class="node"><title>Node10</title>
<g id="a_node10"><a xlink:href="../../d0/d1a/classsimulation_objects_1_1_patch_body.html#a466dadbe30fb2f8360163881e0db9295" target="_top" xlink:title="simulationObjects.PatchBody.get\lPatchWidth">
<polygon fill="white" stroke="black" points="1034.5,-120 1034.5,-150 1207.5,-150 1207.5,-120 1034.5,-120"/>
<text text-anchor="start" x="1042.5" y="-138" font-family="Helvetica,sans-Serif" font-size="10.00">simulationObjects.PatchBody.get</text>
<text text-anchor="middle" x="1121" y="-127" font-family="Helvetica,sans-Serif" font-size="10.00">PatchWidth</text>
</a>
</g>
</g>
<!-- Node9&#45;&gt;Node10 -->
<g id="edge10" class="edge"><title>Node9&#45;&gt;Node10</title>
<path fill="none" stroke="midnightblue" d="M970.968,-101.035C994.185,-106.326 1020.46,-112.313 1044.4,-117.771"/>
<polygon fill="midnightblue" stroke="midnightblue" points="1043.63,-121.184 1054.16,-119.994 1045.18,-114.359 1043.63,-121.184"/>
</g>
<!-- Node11 -->
<g id="node11" class="node"><title>Node11</title>
<g id="a_node11"><a xlink:href="../../d0/d1a/classsimulation_objects_1_1_patch_body.html#a7be1762ade4eaee79c26ac524eb97f33" target="_top" xlink:title="simulationObjects.PatchBody.get\lCenter">
<polygon fill="white" stroke="black" points="1034.5,-71 1034.5,-101 1207.5,-101 1207.5,-71 1034.5,-71"/>
<text text-anchor="start" x="1042.5" y="-89" font-family="Helvetica,sans-Serif" font-size="10.00">simulationObjects.PatchBody.get</text>
<text text-anchor="middle" x="1121" y="-78" font-family="Helvetica,sans-Serif" font-size="10.00">Center</text>
</a>
</g>
</g>
<!-- Node9&#45;&gt;Node11 -->
<g id="edge11" class="edge"><title>Node9&#45;&gt;Node11</title>
<path fill="none" stroke="midnightblue" d="M988.125,-86C999.941,-86 1012.17,-86 1024.21,-86"/>
<polygon fill="midnightblue" stroke="midnightblue" points="1024.25,-89.5001 1034.25,-86 1024.25,-82.5001 1024.25,-89.5001"/>
</g>
<!-- Node12 -->
<g id="node12" class="node"><title>Node12</title>
<g id="a_node12"><a xlink:href="../../d0/d1a/classsimulation_objects_1_1_patch_body.html#a268e88a7cb1f5feb98f49e230475c2ba" target="_top" xlink:title="simulationObjects.PatchBody.get\lPatchHeight">
<polygon fill="white" stroke="black" points="1034.5,-22 1034.5,-52 1207.5,-52 1207.5,-22 1034.5,-22"/>
<text text-anchor="start" x="1042.5" y="-40" font-family="Helvetica,sans-Serif" font-size="10.00">simulationObjects.PatchBody.get</text>
<text text-anchor="middle" x="1121" y="-29" font-family="Helvetica,sans-Serif" font-size="10.00">PatchHeight</text>
</a>
</g>
</g>
<!-- Node9&#45;&gt;Node12 -->
<g id="edge12" class="edge"><title>Node9&#45;&gt;Node12</title>
<path fill="none" stroke="midnightblue" d="M970.968,-70.9654C994.185,-65.6741 1020.46,-59.6867 1044.4,-54.2288"/>
<polygon fill="midnightblue" stroke="midnightblue" points="1045.18,-57.6409 1054.16,-52.0062 1043.63,-50.8159 1045.18,-57.6409"/>
</g>
</g>
</svg>
