<?xml version="1.0" encoding="UTF-8" standalone="no"?>
<!DOCTYPE svg PUBLIC "-//W3C//DTD SVG 1.1//EN"
 "http://www.w3.org/Graphics/SVG/1.1/DTD/svg11.dtd">
<!-- Generated by graphviz version 2.36.0 (20140111.2315)
 -->
<!-- Title: controller.MainController.setupGridConstraints Pages: 1 -->
<svg width="600pt" height="165pt"
 viewBox="0.00 0.00 600.00 165.41" xmlns="http://www.w3.org/2000/svg" xmlns:xlink="http://www.w3.org/1999/xlink">
<g id="graph0" class="graph" transform="scale(1 1) rotate(0) translate(4 161.405)">
<title>controller.MainController.setupGridConstraints</title>
<polygon fill="white" stroke="none" points="-4,4 -4,-161.405 596,-161.405 596,4 -4,4"/>
<!-- Node1 -->
<g id="node1" class="node"><title>Node1</title>
<polygon fill="#bfbfbf" stroke="black" points="0,-71 0,-101 162,-101 162,-71 0,-71"/>
<text text-anchor="start" x="8" y="-89" font-family="Helvetica,sans-Serif" font-size="10.00">controller.MainController.setup</text>
<text text-anchor="middle" x="81" y="-78" font-family="Helvetica,sans-Serif" font-size="10.00">GridConstraints</text>
</g>
<!-- Node2 -->
<g id="node2" class="node"><title>Node2</title>
<g id="a_node2"><a xlink:href="../../de/d7a/classcontroller_1_1_grid_info.html#af31c032d9ad520ab2993ce173a721a56" target="_top" xlink:title="controller.GridInfo.getHeight">
<polygon fill="white" stroke="black" points="440.5,-133.5 440.5,-152.5 591.5,-152.5 591.5,-133.5 440.5,-133.5"/>
<text text-anchor="middle" x="516" y="-140.5" font-family="Helvetica,sans-Serif" font-size="10.00">controller.GridInfo.getHeight</text>
</a>
</g>
</g>
<!-- Node1&#45;&gt;Node2 -->
<g id="edge1" class="edge"><title>Node1&#45;&gt;Node2</title>
<path fill="none" stroke="midnightblue" d="M104.801,-101.135C127.374,-115.143 163.467,-134.974 198,-143 275.089,-160.917 365.601,-158.704 430.129,-153.324"/>
<polygon fill="midnightblue" stroke="midnightblue" points="430.601,-156.796 440.256,-152.436 429.989,-149.823 430.601,-156.796"/>
</g>
<!-- Node3 -->
<g id="node3" class="node"><title>Node3</title>
<g id="a_node3"><a xlink:href="../../de/d7a/classcontroller_1_1_grid_info.html#aeb922edcbb88af55aee279dae79d7660" target="_top" xlink:title="controller.GridInfo.getWidth">
<polygon fill="white" stroke="black" points="443,-86.5 443,-105.5 589,-105.5 589,-86.5 443,-86.5"/>
<text text-anchor="middle" x="516" y="-93.5" font-family="Helvetica,sans-Serif" font-size="10.00">controller.GridInfo.getWidth</text>
</a>
</g>
</g>
<!-- Node1&#45;&gt;Node3 -->
<g id="edge2" class="edge"><title>Node1&#45;&gt;Node3</title>
<path fill="none" stroke="midnightblue" d="M162.176,-87.8516C239.15,-89.6293 354.883,-92.3022 432.595,-94.0969"/>
<polygon fill="midnightblue" stroke="midnightblue" points="432.747,-97.6012 442.825,-94.3331 432.908,-90.6031 432.747,-97.6012"/>
</g>
<!-- Node4 -->
<g id="node4" class="node"><title>Node4</title>
<g id="a_node4"><a xlink:href="../../db/d32/classcontroller_1_1_main_controller.html#a00aa5baee2ea887c8a3ed80a9a94720f" target="_top" xlink:title="controller.MainController.randomizeGrid">
<polygon fill="white" stroke="black" points="198,-114.5 198,-133.5 404,-133.5 404,-114.5 198,-114.5"/>
<text text-anchor="middle" x="301" y="-121.5" font-family="Helvetica,sans-Serif" font-size="10.00">controller.MainController.randomizeGrid</text>
</a>
</g>
</g>
<!-- Node1&#45;&gt;Node4 -->
<g id="edge3" class="edge"><title>Node1&#45;&gt;Node4</title>
<path fill="none" stroke="midnightblue" d="M162.246,-99.9879C186.358,-104.191 212.492,-108.746 235.451,-112.748"/>
<polygon fill="midnightblue" stroke="midnightblue" points="234.965,-116.216 245.418,-114.486 236.168,-109.32 234.965,-116.216"/>
</g>
<!-- Node5 -->
<g id="node5" class="node"><title>Node5</title>
<g id="a_node5"><a xlink:href="../../de/d7a/classcontroller_1_1_grid_info.html#a9bad52b68d084a34a421652fd07d713c" target="_top" xlink:title="controller.GridInfo.setHeight">
<polygon fill="white" stroke="black" points="226,-38.5 226,-57.5 376,-57.5 376,-38.5 226,-38.5"/>
<text text-anchor="middle" x="301" y="-45.5" font-family="Helvetica,sans-Serif" font-size="10.00">controller.GridInfo.setHeight</text>
</a>
</g>
</g>
<!-- Node1&#45;&gt;Node5 -->
<g id="edge6" class="edge"><title>Node1&#45;&gt;Node5</title>
<path fill="none" stroke="midnightblue" d="M162.246,-72.0121C186.358,-67.8091 212.492,-63.2537 235.451,-59.2517"/>
<polygon fill="midnightblue" stroke="midnightblue" points="236.168,-62.6796 245.418,-57.5143 234.965,-55.7836 236.168,-62.6796"/>
</g>
<!-- Node6 -->
<g id="node6" class="node"><title>Node6</title>
<g id="a_node6"><a xlink:href="../../de/d7a/classcontroller_1_1_grid_info.html#aa1ef6cedb22bcd544e4c21d201c6f6c7" target="_top" xlink:title="controller.GridInfo.setWidth">
<polygon fill="white" stroke="black" points="228.5,-0.5 228.5,-19.5 373.5,-19.5 373.5,-0.5 228.5,-0.5"/>
<text text-anchor="middle" x="301" y="-7.5" font-family="Helvetica,sans-Serif" font-size="10.00">controller.GridInfo.setWidth</text>
</a>
</g>
</g>
<!-- Node1&#45;&gt;Node6 -->
<g id="edge7" class="edge"><title>Node1&#45;&gt;Node6</title>
<path fill="none" stroke="midnightblue" d="M107.4,-70.9952C130.346,-58.0619 165.416,-39.814 198,-29 206.475,-26.1874 215.492,-23.7517 224.523,-21.6523"/>
<polygon fill="midnightblue" stroke="midnightblue" points="225.288,-25.0679 234.304,-19.5044 223.786,-18.2308 225.288,-25.0679"/>
</g>
<!-- Node4&#45;&gt;Node2 -->
<g id="edge4" class="edge"><title>Node4&#45;&gt;Node2</title>
<path fill="none" stroke="midnightblue" d="M404.133,-133.11C412.881,-133.891 421.669,-134.675 430.259,-135.441"/>
<polygon fill="midnightblue" stroke="midnightblue" points="429.967,-138.929 440.239,-136.331 430.589,-131.956 429.967,-138.929"/>
</g>
<!-- Node4&#45;&gt;Node3 -->
<g id="edge5" class="edge"><title>Node4&#45;&gt;Node3</title>
<path fill="none" stroke="midnightblue" d="M374.409,-114.481C393.204,-112.011 413.581,-109.332 432.838,-106.801"/>
<polygon fill="midnightblue" stroke="midnightblue" points="433.333,-110.266 442.791,-105.492 432.42,-103.326 433.333,-110.266"/>
</g>
</g>
</svg>
