<?xml version="1.0" encoding="UTF-8" standalone="no"?>
<!DOCTYPE svg PUBLIC "-//W3C//DTD SVG 1.1//EN"
 "http://www.w3.org/Graphics/SVG/1.1/DTD/svg11.dtd">
<!-- Generated by graphviz version 2.36.0 (20140111.2315)
 -->
<!-- Title: controller.MainController.setSimulationSpeed Pages: 1 -->
<svg width="754pt" height="121pt"
 viewBox="0.00 0.00 754.00 121.00" xmlns="http://www.w3.org/2000/svg" xmlns:xlink="http://www.w3.org/1999/xlink">
<g id="graph0" class="graph" transform="scale(1 1) rotate(0) translate(4 117)">
<title>controller.MainController.setSimulationSpeed</title>
<polygon fill="white" stroke="none" points="-4,4 -4,-117 750,-117 750,4 -4,4"/>
<!-- Node1 -->
<g id="node1" class="node"><title>Node1</title>
<polygon fill="#bfbfbf" stroke="black" points="0,-17 0,-47 150,-47 150,-17 0,-17"/>
<text text-anchor="start" x="8" y="-35" font-family="Helvetica,sans-Serif" font-size="10.00">controller.MainController.set</text>
<text text-anchor="middle" x="75" y="-24" font-family="Helvetica,sans-Serif" font-size="10.00">SimulationSpeed</text>
</g>
<!-- Node2 -->
<g id="node2" class="node"><title>Node2</title>
<g id="a_node2"><a xlink:href="../../db/ddb/classcontroller_1_1_user_interface.html#a9cf1e21253003993661082c9d42926b2" target="_top" xlink:title="controller.UserInterface.make\lBottomPanel">
<polygon fill="white" stroke="black" points="186,-39 186,-69 344,-69 344,-39 186,-39"/>
<text text-anchor="start" x="194" y="-57" font-family="Helvetica,sans-Serif" font-size="10.00">controller.UserInterface.make</text>
<text text-anchor="middle" x="265" y="-46" font-family="Helvetica,sans-Serif" font-size="10.00">BottomPanel</text>
</a>
</g>
</g>
<!-- Node1&#45;&gt;Node2 -->
<g id="edge1" class="edge"><title>Node1&#45;&gt;Node2</title>
<path fill="none" stroke="midnightblue" d="M160.002,-41.83C168.553,-42.8306 177.215,-43.8443 185.701,-44.8374"/>
<polygon fill="midnightblue" stroke="midnightblue" points="160.372,-38.3495 150.033,-40.6634 159.558,-45.3021 160.372,-38.3495"/>
</g>
<!-- Node6 -->
<g id="node6" class="node"><title>Node6</title>
<g id="a_node6"><a xlink:href="../../db/d32/classcontroller_1_1_main_controller.html#a1f4957429639670087d4d012381ff339" target="_top" xlink:title="controller.MainController.start">
<polygon fill="white" stroke="black" points="186,-0.5 186,-19.5 344,-19.5 344,-0.5 186,-0.5"/>
<text text-anchor="middle" x="265" y="-7.5" font-family="Helvetica,sans-Serif" font-size="10.00">controller.MainController.start</text>
</a>
</g>
</g>
<!-- Node1&#45;&gt;Node6 -->
<g id="edge6" class="edge"><title>Node1&#45;&gt;Node6</title>
<path fill="none" stroke="midnightblue" d="M160.002,-22.17C168.553,-21.1694 177.215,-20.1557 185.701,-19.1626"/>
<polygon fill="midnightblue" stroke="midnightblue" points="159.558,-18.6979 150.033,-23.3366 160.372,-25.6505 159.558,-18.6979"/>
</g>
<!-- Node3 -->
<g id="node3" class="node"><title>Node3</title>
<g id="a_node3"><a xlink:href="../../db/ddb/classcontroller_1_1_user_interface.html#a6dd740b89d748c372a5ef9959e1bd7c4" target="_top" xlink:title="controller.UserInterface.\lUserInterface">
<polygon fill="white" stroke="black" points="392.5,-83 392.5,-113 523.5,-113 523.5,-83 392.5,-83"/>
<text text-anchor="start" x="400.5" y="-101" font-family="Helvetica,sans-Serif" font-size="10.00">controller.UserInterface.</text>
<text text-anchor="middle" x="458" y="-90" font-family="Helvetica,sans-Serif" font-size="10.00">UserInterface</text>
</a>
</g>
</g>
<!-- Node2&#45;&gt;Node3 -->
<g id="edge2" class="edge"><title>Node2&#45;&gt;Node3</title>
<path fill="none" stroke="midnightblue" d="M341.07,-71.2936C358.044,-75.204 375.922,-79.3224 392.42,-83.123"/>
<polygon fill="midnightblue" stroke="midnightblue" points="341.728,-67.8535 331.197,-69.0192 340.156,-74.6749 341.728,-67.8535"/>
</g>
<!-- Node4 -->
<g id="node4" class="node"><title>Node4</title>
<g id="a_node4"><a xlink:href="../../db/ddb/classcontroller_1_1_user_interface.html#aad62b84bbc23f683c844ace519feb9d2" target="_top" xlink:title="controller.UserInterface.reset">
<polygon fill="white" stroke="black" points="380,-44.5 380,-63.5 536,-63.5 536,-44.5 380,-44.5"/>
<text text-anchor="middle" x="458" y="-51.5" font-family="Helvetica,sans-Serif" font-size="10.00">controller.UserInterface.reset</text>
</a>
</g>
</g>
<!-- Node2&#45;&gt;Node4 -->
<g id="edge3" class="edge"><title>Node2&#45;&gt;Node4</title>
<path fill="none" stroke="midnightblue" d="M354.495,-54C362.949,-54 371.476,-54 379.81,-54"/>
<polygon fill="midnightblue" stroke="midnightblue" points="354.238,-50.5001 344.238,-54 354.238,-57.5001 354.238,-50.5001"/>
</g>
<!-- Node5 -->
<g id="node5" class="node"><title>Node5</title>
<g id="a_node5"><a xlink:href="../../db/d32/classcontroller_1_1_main_controller.html#a7cfedb8e16c6b9d6394054d03193da82" target="_top" xlink:title="controller.MainController.initialize\lSimulationWithData">
<polygon fill="white" stroke="black" points="572.5,-20 572.5,-50 745.5,-50 745.5,-20 572.5,-20"/>
<text text-anchor="start" x="580.5" y="-38" font-family="Helvetica,sans-Serif" font-size="10.00">controller.MainController.initialize</text>
<text text-anchor="middle" x="659" y="-27" font-family="Helvetica,sans-Serif" font-size="10.00">SimulationWithData</text>
</a>
</g>
</g>
<!-- Node4&#45;&gt;Node5 -->
<g id="edge4" class="edge"><title>Node4&#45;&gt;Node5</title>
<path fill="none" stroke="midnightblue" d="M546.268,-45.6679C554.886,-44.845 563.629,-44.0103 572.232,-43.1889"/>
<polygon fill="midnightblue" stroke="midnightblue" points="545.845,-42.1922 536.223,-46.6269 546.511,-49.1605 545.845,-42.1922"/>
</g>
<!-- Node5&#45;&gt;Node2 -->
<g id="edge5" class="edge"><title>Node5&#45;&gt;Node2</title>
<path fill="none" stroke="midnightblue" d="M562.182,-31.1096C508.52,-29.9063 440.438,-29.998 380,-35 368.402,-35.9599 356.208,-37.4601 344.283,-39.2065"/>
<polygon fill="midnightblue" stroke="midnightblue" points="562.29,-34.6132 572.372,-31.3574 562.46,-27.6152 562.29,-34.6132"/>
</g>
</g>
</svg>
