<?xml version="1.0" encoding="UTF-8" standalone="no"?>
<!DOCTYPE svg PUBLIC "-//W3C//DTD SVG 1.1//EN"
 "http://www.w3.org/Graphics/SVG/1.1/DTD/svg11.dtd">
<!-- Generated by graphviz version 2.36.0 (20140111.2315)
 -->
<!-- Title: controller.MainController.initializeSimulationWithData Pages: 1 -->
<svg width="568pt" height="77pt"
 viewBox="0.00 0.00 568.00 77.00" xmlns="http://www.w3.org/2000/svg" xmlns:xlink="http://www.w3.org/1999/xlink">
<g id="graph0" class="graph" transform="scale(1 1) rotate(0) translate(4 73)">
<title>controller.MainController.initializeSimulationWithData</title>
<polygon fill="white" stroke="none" points="-4,4 -4,-73 564,-73 564,4 -4,4"/>
<!-- Node1 -->
<g id="node1" class="node"><title>Node1</title>
<polygon fill="#bfbfbf" stroke="black" points="0.5,-17 0.5,-47 173.5,-47 173.5,-17 0.5,-17"/>
<text text-anchor="start" x="8.5" y="-35" font-family="Helvetica,sans-Serif" font-size="10.00">controller.MainController.initialize</text>
<text text-anchor="middle" x="87" y="-24" font-family="Helvetica,sans-Serif" font-size="10.00">SimulationWithData</text>
</g>
<!-- Node2 -->
<g id="node2" class="node"><title>Node2</title>
<g id="a_node2"><a xlink:href="../../db/ddb/classcontroller_1_1_user_interface.html#a9cf1e21253003993661082c9d42926b2" target="_top" xlink:title="controller.UserInterface.make\lBottomPanel">
<polygon fill="white" stroke="black" points="210,-39 210,-69 368,-69 368,-39 210,-39"/>
<text text-anchor="start" x="218" y="-57" font-family="Helvetica,sans-Serif" font-size="10.00">controller.UserInterface.make</text>
<text text-anchor="middle" x="289" y="-46" font-family="Helvetica,sans-Serif" font-size="10.00">BottomPanel</text>
</a>
</g>
</g>
<!-- Node1&#45;&gt;Node2 -->
<g id="edge1" class="edge"><title>Node1&#45;&gt;Node2</title>
<path fill="none" stroke="midnightblue" d="M183.848,-42.5432C192.532,-43.4985 201.257,-44.4583 209.762,-45.3939"/>
<polygon fill="midnightblue" stroke="midnightblue" points="184.011,-39.0402 173.688,-41.4257 183.246,-45.9982 184.011,-39.0402"/>
</g>
<!-- Node3 -->
<g id="node3" class="node"><title>Node3</title>
<g id="a_node3"><a xlink:href="../../db/ddb/classcontroller_1_1_user_interface.html#a6dd740b89d748c372a5ef9959e1bd7c4" target="_top" xlink:title="controller.UserInterface.\lUserInterface">
<polygon fill="white" stroke="black" points="416.5,-39 416.5,-69 547.5,-69 547.5,-39 416.5,-39"/>
<text text-anchor="start" x="424.5" y="-57" font-family="Helvetica,sans-Serif" font-size="10.00">controller.UserInterface.</text>
<text text-anchor="middle" x="482" y="-46" font-family="Helvetica,sans-Serif" font-size="10.00">UserInterface</text>
</a>
</g>
</g>
<!-- Node2&#45;&gt;Node3 -->
<g id="edge2" class="edge"><title>Node2&#45;&gt;Node3</title>
<path fill="none" stroke="midnightblue" d="M378.415,-54C391.171,-54 404.097,-54 416.275,-54"/>
<polygon fill="midnightblue" stroke="midnightblue" points="378.238,-50.5001 368.238,-54 378.238,-57.5001 378.238,-50.5001"/>
</g>
<!-- Node4 -->
<g id="node4" class="node"><title>Node4</title>
<g id="a_node4"><a xlink:href="../../db/ddb/classcontroller_1_1_user_interface.html#aad62b84bbc23f683c844ace519feb9d2" target="_top" xlink:title="controller.UserInterface.reset">
<polygon fill="white" stroke="black" points="404,-0.5 404,-19.5 560,-19.5 560,-0.5 404,-0.5"/>
<text text-anchor="middle" x="482" y="-7.5" font-family="Helvetica,sans-Serif" font-size="10.00">controller.UserInterface.reset</text>
</a>
</g>
</g>
<!-- Node2&#45;&gt;Node4 -->
<g id="edge3" class="edge"><title>Node2&#45;&gt;Node4</title>
<path fill="none" stroke="midnightblue" d="M365.179,-36.6813C390.556,-30.8352 417.941,-24.5268 439.707,-19.5124"/>
<polygon fill="midnightblue" stroke="midnightblue" points="364.156,-33.3251 355.197,-38.9808 365.728,-40.1465 364.156,-33.3251"/>
</g>
<!-- Node4&#45;&gt;Node1 -->
<g id="edge4" class="edge"><title>Node4&#45;&gt;Node1</title>
<path fill="none" stroke="midnightblue" d="M393.444,-14.9014C327.942,-18.5682 238.825,-23.5569 173.76,-27.1992"/>
<polygon fill="midnightblue" stroke="midnightblue" points="393.958,-18.3782 403.747,-14.3246 393.566,-11.3891 393.958,-18.3782"/>
</g>
</g>
</svg>
