<?xml version="1.0" encoding="UTF-8" standalone="no"?>
<!DOCTYPE svg PUBLIC "-//W3C//DTD SVG 1.1//EN"
 "http://www.w3.org/Graphics/SVG/1.1/DTD/svg11.dtd">
<!-- Generated by graphviz version 2.36.0 (20140111.2315)
 -->
<!-- Title: controller.ColorPicker.ColorPicker Pages: 1 -->
<svg width="1106pt" height="102pt"
 viewBox="0.00 0.00 1106.00 102.00" xmlns="http://www.w3.org/2000/svg" xmlns:xlink="http://www.w3.org/1999/xlink">
<g id="graph0" class="graph" transform="scale(1 1) rotate(0) translate(4 98)">
<title>controller.ColorPicker.ColorPicker</title>
<polygon fill="white" stroke="none" points="-4,4 -4,-98 1102,-98 1102,4 -4,4"/>
<!-- Node1 -->
<g id="node1" class="node"><title>Node1</title>
<polygon fill="#bfbfbf" stroke="black" points="0,-20 0,-50 144,-50 144,-20 0,-20"/>
<text text-anchor="start" x="8" y="-38" font-family="Helvetica,sans-Serif" font-size="10.00">controller.ColorPicker.Color</text>
<text text-anchor="middle" x="72" y="-27" font-family="Helvetica,sans-Serif" font-size="10.00">Picker</text>
</g>
<!-- Node2 -->
<g id="node2" class="node"><title>Node2</title>
<g id="a_node2"><a xlink:href="../../db/db2/classcontroller_1_1_color_picker.html#afb051d96595ff37672f48e50dc036c82" target="_top" xlink:title="controller.ColorPicker.build\lColorPickerMenu">
<polygon fill="white" stroke="black" points="180,-20 180,-50 322,-50 322,-20 180,-20"/>
<text text-anchor="start" x="188" y="-38" font-family="Helvetica,sans-Serif" font-size="10.00">controller.ColorPicker.build</text>
<text text-anchor="middle" x="251" y="-27" font-family="Helvetica,sans-Serif" font-size="10.00">ColorPickerMenu</text>
</a>
</g>
</g>
<!-- Node1&#45;&gt;Node2 -->
<g id="edge1" class="edge"><title>Node1&#45;&gt;Node2</title>
<path fill="none" stroke="midnightblue" d="M154.475,-35C162.928,-35 171.468,-35 179.782,-35"/>
<polygon fill="midnightblue" stroke="midnightblue" points="154.228,-31.5001 144.228,-35 154.228,-38.5001 154.228,-31.5001"/>
</g>
<!-- Node3 -->
<g id="node3" class="node"><title>Node3</title>
<g id="a_node3"><a xlink:href="../../db/db2/classcontroller_1_1_color_picker.html#a965e34ea24c65524bc0e564d055a8e4e" target="_top" xlink:title="controller.ColorPicker.show\lColorPicker">
<polygon fill="white" stroke="black" points="358.5,-20 358.5,-50 501.5,-50 501.5,-20 358.5,-20"/>
<text text-anchor="start" x="366.5" y="-38" font-family="Helvetica,sans-Serif" font-size="10.00">controller.ColorPicker.show</text>
<text text-anchor="middle" x="430" y="-27" font-family="Helvetica,sans-Serif" font-size="10.00">ColorPicker</text>
</a>
</g>
</g>
<!-- Node2&#45;&gt;Node3 -->
<g id="edge2" class="edge"><title>Node2&#45;&gt;Node3</title>
<path fill="none" stroke="midnightblue" d="M332.315,-35C340.982,-35 349.754,-35 358.296,-35"/>
<polygon fill="midnightblue" stroke="midnightblue" points="332.209,-31.5001 322.209,-35 332.209,-38.5001 332.209,-31.5001"/>
</g>
<!-- Node4 -->
<g id="node4" class="node"><title>Node4</title>
<g id="a_node4"><a xlink:href="../../db/ddb/classcontroller_1_1_user_interface.html#a9cf1e21253003993661082c9d42926b2" target="_top" xlink:title="controller.UserInterface.make\lBottomPanel">
<polygon fill="white" stroke="black" points="538,-20 538,-50 696,-50 696,-20 538,-20"/>
<text text-anchor="start" x="546" y="-38" font-family="Helvetica,sans-Serif" font-size="10.00">controller.UserInterface.make</text>
<text text-anchor="middle" x="617" y="-27" font-family="Helvetica,sans-Serif" font-size="10.00">BottomPanel</text>
</a>
</g>
</g>
<!-- Node3&#45;&gt;Node4 -->
<g id="edge3" class="edge"><title>Node3&#45;&gt;Node4</title>
<path fill="none" stroke="midnightblue" d="M511.817,-35C520.478,-35 529.278,-35 537.906,-35"/>
<polygon fill="midnightblue" stroke="midnightblue" points="511.732,-31.5001 501.732,-35 511.732,-38.5001 511.732,-31.5001"/>
</g>
<!-- Node5 -->
<g id="node5" class="node"><title>Node5</title>
<g id="a_node5"><a xlink:href="../../db/ddb/classcontroller_1_1_user_interface.html#a6dd740b89d748c372a5ef9959e1bd7c4" target="_top" xlink:title="controller.UserInterface.\lUserInterface">
<polygon fill="white" stroke="black" points="744.5,-64 744.5,-94 875.5,-94 875.5,-64 744.5,-64"/>
<text text-anchor="start" x="752.5" y="-82" font-family="Helvetica,sans-Serif" font-size="10.00">controller.UserInterface.</text>
<text text-anchor="middle" x="810" y="-71" font-family="Helvetica,sans-Serif" font-size="10.00">UserInterface</text>
</a>
</g>
</g>
<!-- Node4&#45;&gt;Node5 -->
<g id="edge4" class="edge"><title>Node4&#45;&gt;Node5</title>
<path fill="none" stroke="midnightblue" d="M693.07,-52.2936C710.044,-56.204 727.922,-60.3224 744.42,-64.123"/>
<polygon fill="midnightblue" stroke="midnightblue" points="693.728,-48.8535 683.197,-50.0192 692.156,-55.6749 693.728,-48.8535"/>
</g>
<!-- Node6 -->
<g id="node6" class="node"><title>Node6</title>
<g id="a_node6"><a xlink:href="../../db/ddb/classcontroller_1_1_user_interface.html#aad62b84bbc23f683c844ace519feb9d2" target="_top" xlink:title="controller.UserInterface.reset">
<polygon fill="white" stroke="black" points="732,-25.5 732,-44.5 888,-44.5 888,-25.5 732,-25.5"/>
<text text-anchor="middle" x="810" y="-32.5" font-family="Helvetica,sans-Serif" font-size="10.00">controller.UserInterface.reset</text>
</a>
</g>
</g>
<!-- Node4&#45;&gt;Node6 -->
<g id="edge5" class="edge"><title>Node4&#45;&gt;Node6</title>
<path fill="none" stroke="midnightblue" d="M706.495,-35C714.949,-35 723.476,-35 731.81,-35"/>
<polygon fill="midnightblue" stroke="midnightblue" points="706.238,-31.5001 696.238,-35 706.238,-38.5001 706.238,-31.5001"/>
</g>
<!-- Node7 -->
<g id="node7" class="node"><title>Node7</title>
<g id="a_node7"><a xlink:href="../../db/d32/classcontroller_1_1_main_controller.html#a7cfedb8e16c6b9d6394054d03193da82" target="_top" xlink:title="controller.MainController.initialize\lSimulationWithData">
<polygon fill="white" stroke="black" points="924.5,-1 924.5,-31 1097.5,-31 1097.5,-1 924.5,-1"/>
<text text-anchor="start" x="932.5" y="-19" font-family="Helvetica,sans-Serif" font-size="10.00">controller.MainController.initialize</text>
<text text-anchor="middle" x="1011" y="-8" font-family="Helvetica,sans-Serif" font-size="10.00">SimulationWithData</text>
</a>
</g>
</g>
<!-- Node6&#45;&gt;Node7 -->
<g id="edge6" class="edge"><title>Node6&#45;&gt;Node7</title>
<path fill="none" stroke="midnightblue" d="M898.268,-26.6679C906.886,-25.845 915.629,-25.0103 924.232,-24.1889"/>
<polygon fill="midnightblue" stroke="midnightblue" points="897.845,-23.1922 888.223,-27.6269 898.511,-30.1605 897.845,-23.1922"/>
</g>
<!-- Node7&#45;&gt;Node4 -->
<g id="edge7" class="edge"><title>Node7&#45;&gt;Node4</title>
<path fill="none" stroke="midnightblue" d="M914.182,-12.1096C860.52,-10.9063 792.438,-10.998 732,-16 720.402,-16.9599 708.208,-18.4601 696.283,-20.2065"/>
<polygon fill="midnightblue" stroke="midnightblue" points="914.29,-15.6132 924.372,-12.3574 914.46,-8.61523 914.29,-15.6132"/>
</g>
</g>
</svg>
