<?xml version="1.0" encoding="UTF-8" standalone="no"?>
<!DOCTYPE svg PUBLIC "-//W3C//DTD SVG 1.1//EN"
 "http://www.w3.org/Graphics/SVG/1.1/DTD/svg11.dtd">
<!-- Generated by graphviz version 2.36.0 (20140111.2315)
 -->
<!-- Title: controller.ColorPicker.showColorPicker Pages: 1 -->
<svg width="546pt" height="232pt"
 viewBox="0.00 0.00 546.00 232.00" xmlns="http://www.w3.org/2000/svg" xmlns:xlink="http://www.w3.org/1999/xlink">
<g id="graph0" class="graph" transform="scale(1 1) rotate(0) translate(4 228)">
<title>controller.ColorPicker.showColorPicker</title>
<polygon fill="white" stroke="none" points="-4,4 -4,-228 542,-228 542,4 -4,4"/>
<!-- Node1 -->
<g id="node1" class="node"><title>Node1</title>
<polygon fill="#bfbfbf" stroke="black" points="0.5,-44 0.5,-74 143.5,-74 143.5,-44 0.5,-44"/>
<text text-anchor="start" x="8.5" y="-62" font-family="Helvetica,sans-Serif" font-size="10.00">controller.ColorPicker.show</text>
<text text-anchor="middle" x="72" y="-51" font-family="Helvetica,sans-Serif" font-size="10.00">ColorPicker</text>
</g>
<!-- Node2 -->
<g id="node2" class="node"><title>Node2</title>
<g id="a_node2"><a xlink:href="../../db/db2/classcontroller_1_1_color_picker.html#afb051d96595ff37672f48e50dc036c82" target="_top" xlink:title="controller.ColorPicker.build\lColorPickerMenu">
<polygon fill="white" stroke="black" points="181,-90 181,-120 323,-120 323,-90 181,-90"/>
<text text-anchor="start" x="189" y="-108" font-family="Helvetica,sans-Serif" font-size="10.00">controller.ColorPicker.build</text>
<text text-anchor="middle" x="252" y="-97" font-family="Helvetica,sans-Serif" font-size="10.00">ColorPickerMenu</text>
</a>
</g>
</g>
<!-- Node1&#45;&gt;Node2 -->
<g id="edge1" class="edge"><title>Node1&#45;&gt;Node2</title>
<path fill="none" stroke="midnightblue" d="M131.284,-74.0621C147.811,-78.3333 165.95,-83.0207 182.998,-87.4265"/>
<polygon fill="midnightblue" stroke="midnightblue" points="182.332,-90.8692 192.889,-89.9826 184.083,-84.0918 182.332,-90.8692"/>
</g>
<!-- Node5 -->
<g id="node5" class="node"><title>Node5</title>
<g id="a_node5"><a xlink:href="../../de/d7a/classcontroller_1_1_grid_info.html#a4ffe15890c7f3ba78c9f30b4c3ac1cb2" target="_top" xlink:title="controller.GridInfo.getState\lTypes">
<polygon fill="white" stroke="black" points="376,-19 376,-49 522,-49 522,-19 376,-19"/>
<text text-anchor="start" x="384" y="-37" font-family="Helvetica,sans-Serif" font-size="10.00">controller.GridInfo.getState</text>
<text text-anchor="middle" x="449" y="-26" font-family="Helvetica,sans-Serif" font-size="10.00">Types</text>
</a>
</g>
</g>
<!-- Node1&#45;&gt;Node5 -->
<g id="edge7" class="edge"><title>Node1&#45;&gt;Node5</title>
<path fill="none" stroke="midnightblue" d="M143.535,-54.2977C206.7,-50.0867 299.351,-43.9099 365.841,-39.4773"/>
<polygon fill="midnightblue" stroke="midnightblue" points="366.121,-42.9665 375.866,-38.8089 365.655,-35.982 366.121,-42.9665"/>
</g>
<!-- Node8 -->
<g id="node8" class="node"><title>Node8</title>
<g id="a_node8"><a xlink:href="../../db/db2/classcontroller_1_1_color_picker.html#a88996a9cdb1e6897ed697b793ed2e154" target="_top" xlink:title="controller.ColorPicker.send\lPickFileAlert">
<polygon fill="white" stroke="black" points="180.5,-0 180.5,-30 323.5,-30 323.5,-0 180.5,-0"/>
<text text-anchor="start" x="188.5" y="-18" font-family="Helvetica,sans-Serif" font-size="10.00">controller.ColorPicker.send</text>
<text text-anchor="middle" x="252" y="-7" font-family="Helvetica,sans-Serif" font-size="10.00">PickFileAlert</text>
</a>
</g>
</g>
<!-- Node1&#45;&gt;Node8 -->
<g id="edge8" class="edge"><title>Node1&#45;&gt;Node8</title>
<path fill="none" stroke="midnightblue" d="M133.76,-43.9808C148.713,-40.2844 164.853,-36.2947 180.234,-32.4926"/>
<polygon fill="midnightblue" stroke="midnightblue" points="181.344,-35.8237 190.212,-30.0262 179.664,-29.0282 181.344,-35.8237"/>
</g>
<!-- Node3 -->
<g id="node3" class="node"><title>Node3</title>
<g id="a_node3"><a xlink:href="../../db/db2/classcontroller_1_1_color_picker.html#a37af659b10fbe01fd8102c37ae719377" target="_top" xlink:title="controller.ColorPicker.Color\lPicker">
<polygon fill="white" stroke="black" points="377,-194 377,-224 521,-224 521,-194 377,-194"/>
<text text-anchor="start" x="385" y="-212" font-family="Helvetica,sans-Serif" font-size="10.00">controller.ColorPicker.Color</text>
<text text-anchor="middle" x="449" y="-201" font-family="Helvetica,sans-Serif" font-size="10.00">Picker</text>
</a>
</g>
</g>
<!-- Node2&#45;&gt;Node3 -->
<g id="edge2" class="edge"><title>Node2&#45;&gt;Node3</title>
<path fill="none" stroke="midnightblue" d="M269.537,-120.212C289.56,-137.882 324.97,-166.802 360,-184 364.812,-186.362 369.884,-188.536 375.065,-190.531"/>
<polygon fill="midnightblue" stroke="midnightblue" points="373.88,-193.824 384.475,-193.928 376.258,-187.24 373.88,-193.824"/>
</g>
<!-- Node4 -->
<g id="node4" class="node"><title>Node4</title>
<g id="a_node4"><a xlink:href="../../de/d7a/classcontroller_1_1_grid_info.html#aa4604331decd6c710c086e9792c6f251" target="_top" xlink:title="controller.GridInfo.getColor">
<polygon fill="white" stroke="black" points="377,-155.5 377,-174.5 521,-174.5 521,-155.5 377,-155.5"/>
<text text-anchor="middle" x="449" y="-162.5" font-family="Helvetica,sans-Serif" font-size="10.00">controller.GridInfo.getColor</text>
</a>
</g>
</g>
<!-- Node2&#45;&gt;Node4 -->
<g id="edge3" class="edge"><title>Node2&#45;&gt;Node4</title>
<path fill="none" stroke="midnightblue" d="M288.196,-120.052C308.844,-128.486 335.594,-138.736 360,-146 368.801,-148.619 378.197,-151.037 387.452,-153.208"/>
<polygon fill="midnightblue" stroke="midnightblue" points="386.877,-156.667 397.404,-155.465 388.425,-149.84 386.877,-156.667"/>
</g>
<!-- Node2&#45;&gt;Node5 -->
<g id="edge4" class="edge"><title>Node2&#45;&gt;Node5</title>
<path fill="none" stroke="midnightblue" d="M286.639,-89.9263C315.169,-77.1917 352.612,-60.614 360,-58 365.878,-55.9202 372.03,-53.9124 378.232,-52.0037"/>
<polygon fill="midnightblue" stroke="midnightblue" points="379.408,-55.3054 387.988,-49.0897 377.404,-48.5982 379.408,-55.3054"/>
</g>
<!-- Node6 -->
<g id="node6" class="node"><title>Node6</title>
<g id="a_node6"><a xlink:href="../../de/d7a/classcontroller_1_1_grid_info.html#abf71126b3cab1973d8dd4deac7270fc4" target="_top" xlink:title="controller.GridInfo.setColor">
<polygon fill="white" stroke="black" points="377.5,-117.5 377.5,-136.5 520.5,-136.5 520.5,-117.5 377.5,-117.5"/>
<text text-anchor="middle" x="449" y="-124.5" font-family="Helvetica,sans-Serif" font-size="10.00">controller.GridInfo.setColor</text>
</a>
</g>
</g>
<!-- Node2&#45;&gt;Node6 -->
<g id="edge5" class="edge"><title>Node2&#45;&gt;Node6</title>
<path fill="none" stroke="midnightblue" d="M323.124,-112.911C337.407,-114.523 352.543,-116.231 367.164,-117.88"/>
<polygon fill="midnightblue" stroke="midnightblue" points="366.858,-121.368 377.187,-119.011 367.643,-114.412 366.858,-121.368"/>
</g>
<!-- Node7 -->
<g id="node7" class="node"><title>Node7</title>
<g id="a_node7"><a xlink:href="../../d7/d97/classcontroller_1_1_grid.html#a3633218920b12cc2de0fd78523f726e9" target="_top" xlink:title="controller.Grid.updateBackground\lColor">
<polygon fill="white" stroke="black" points="360.5,-68 360.5,-98 537.5,-98 537.5,-68 360.5,-68"/>
<text text-anchor="start" x="368.5" y="-86" font-family="Helvetica,sans-Serif" font-size="10.00">controller.Grid.updateBackground</text>
<text text-anchor="middle" x="449" y="-75" font-family="Helvetica,sans-Serif" font-size="10.00">Color</text>
</a>
</g>
</g>
<!-- Node2&#45;&gt;Node7 -->
<g id="edge6" class="edge"><title>Node2&#45;&gt;Node7</title>
<path fill="none" stroke="midnightblue" d="M323.124,-97.0886C332.025,-96.0844 341.256,-95.0429 350.488,-94.0013"/>
<polygon fill="midnightblue" stroke="midnightblue" points="350.946,-97.472 360.49,-92.8729 350.161,-90.5161 350.946,-97.472"/>
</g>
</g>
</svg>
