<?xml version="1.0" encoding="UTF-8" standalone="no"?>
<!DOCTYPE svg PUBLIC "-//W3C//DTD SVG 1.1//EN"
 "http://www.w3.org/Graphics/SVG/1.1/DTD/svg11.dtd">
<!-- Generated by graphviz version 2.36.0 (20140111.2315)
 -->
<!-- Title: controller.ColorPicker.showColorPicker Pages: 1 -->
<!--zoomable 102 -->
<svg id="main" version="1.1" xmlns="http://www.w3.org/2000/svg" xmlns:xlink="http://www.w3.org/1999/xlink" xml:space="preserve" onload="init(evt)">
<style type="text/css"><![CDATA[
.edge:hover path { stroke: red; }
.edge:hover polygon { stroke: red; fill: red; }
]]></style>
<script type="text/javascript"><![CDATA[
var edges = document.getElementsByTagName('g');
if (edges && edges.length) {
  for (var i=0;i<edges.length;i++) {
    if (edges[i].id.substr(0,4)=='edge') {
      edges[i].setAttribute('class','edge');
    }
  }
}
]]></script>
        <defs>
                <circle id="rim" cx="0" cy="0" r="7"/>
                <circle id="rim2" cx="0" cy="0" r="3.5"/>
                <g id="zoomPlus">
                        <use xlink:href="#rim" fill="#404040">
                                <set attributeName="fill" to="#808080" begin="zoomplus.mouseover" end="zoomplus.mouseout"/>
                        </use>
                        <path d="M-4,0h8M0,-4v8" fill="none" stroke="white" stroke-width="1.5" pointer-events="none"/>
                </g>
                <g id="zoomMin">
                        <use xlink:href="#rim" fill="#404040">
                                <set attributeName="fill" to="#808080" begin="zoomminus.mouseover" end="zoomminus.mouseout"/>
                        </use>
                        <path d="M-4,0h8" fill="none" stroke="white" stroke-width="1.5" pointer-events="none"/>
                </g>
                <g id="dirArrow">
                        <path fill="none" stroke="white" stroke-width="1.5" d="M0,-3.0v7 M-2.5,-0.5L0,-3.0L2.5,-0.5"/>
                </g>
               <g id="resetDef">
                       <use xlink:href="#rim2" fill="#404040">
                               <set attributeName="fill" to="#808080" begin="reset.mouseover" end="reset.mouseout"/>
                       </use>
               </g>
        </defs>

<script type="text/javascript">
var viewWidth = 748;
var viewHeight = 102;
var sectionId = 'dynsection-7';
</script>
<script xlink:href="../../svgpan.js"/>
<svg id="graph" class="graph">
<g id="viewport">
<title>controller.ColorPicker.showColorPicker</title>
<polygon fill="white" stroke="none" points="-4,4 -4,-98 744,-98 744,4 -4,4"/>
<!-- Node1 -->
<g id="node1" class="node"><title>Node1</title>
<polygon fill="#bfbfbf" stroke="black" points="0.5,-20 0.5,-50 143.5,-50 143.5,-20 0.5,-20"/>
<text text-anchor="start" x="8.5" y="-38" font-family="Helvetica,sans-Serif" font-size="10.00">controller.ColorPicker.show</text>
<text text-anchor="middle" x="72" y="-27" font-family="Helvetica,sans-Serif" font-size="10.00">ColorPicker</text>
</g>
<!-- Node2 -->
<g id="node2" class="node"><title>Node2</title>
<g id="a_node2"><a xlink:href="../../db/ddb/classcontroller_1_1_user_interface.html#a9cf1e21253003993661082c9d42926b2" target="_top" xlink:title="controller.UserInterface.make\lBottomPanel">
<polygon fill="white" stroke="black" points="180,-20 180,-50 338,-50 338,-20 180,-20"/>
<text text-anchor="start" x="188" y="-38" font-family="Helvetica,sans-Serif" font-size="10.00">controller.UserInterface.make</text>
<text text-anchor="middle" x="259" y="-27" font-family="Helvetica,sans-Serif" font-size="10.00">BottomPanel</text>
</a>
</g>
</g>
<!-- Node1&#45;&gt;Node2 -->
<g id="edge1" class="edge"><title>Node1&#45;&gt;Node2</title>
<path fill="none" stroke="midnightblue" d="M153.817,-35C162.478,-35 171.278,-35 179.906,-35"/>
<polygon fill="midnightblue" stroke="midnightblue" points="153.732,-31.5001 143.732,-35 153.732,-38.5001 153.732,-31.5001"/>
</g>
<!-- Node3 -->
<g id="node3" class="node"><title>Node3</title>
<g id="a_node3"><a xlink:href="../../db/ddb/classcontroller_1_1_user_interface.html#a6dd740b89d748c372a5ef9959e1bd7c4" target="_top" xlink:title="controller.UserInterface.\lUserInterface">
<polygon fill="white" stroke="black" points="386.5,-64 386.5,-94 517.5,-94 517.5,-64 386.5,-64"/>
<text text-anchor="start" x="394.5" y="-82" font-family="Helvetica,sans-Serif" font-size="10.00">controller.UserInterface.</text>
<text text-anchor="middle" x="452" y="-71" font-family="Helvetica,sans-Serif" font-size="10.00">UserInterface</text>
</a>
</g>
</g>
<!-- Node2&#45;&gt;Node3 -->
<g id="edge2" class="edge"><title>Node2&#45;&gt;Node3</title>
<path fill="none" stroke="midnightblue" d="M335.07,-52.2936C352.044,-56.204 369.922,-60.3224 386.42,-64.123"/>
<polygon fill="midnightblue" stroke="midnightblue" points="335.728,-48.8535 325.197,-50.0192 334.156,-55.6749 335.728,-48.8535"/>
</g>
<!-- Node4 -->
<g id="node4" class="node"><title>Node4</title>
<g id="a_node4"><a xlink:href="../../db/ddb/classcontroller_1_1_user_interface.html#aad62b84bbc23f683c844ace519feb9d2" target="_top" xlink:title="controller.UserInterface.reset">
<polygon fill="white" stroke="black" points="374,-25.5 374,-44.5 530,-44.5 530,-25.5 374,-25.5"/>
<text text-anchor="middle" x="452" y="-32.5" font-family="Helvetica,sans-Serif" font-size="10.00">controller.UserInterface.reset</text>
</a>
</g>
</g>
<!-- Node2&#45;&gt;Node4 -->
<g id="edge3" class="edge"><title>Node2&#45;&gt;Node4</title>
<path fill="none" stroke="midnightblue" d="M348.495,-35C356.949,-35 365.476,-35 373.81,-35"/>
<polygon fill="midnightblue" stroke="midnightblue" points="348.238,-31.5001 338.238,-35 348.238,-38.5001 348.238,-31.5001"/>
</g>
<!-- Node5 -->
<g id="node5" class="node"><title>Node5</title>
<g id="a_node5"><a xlink:href="../../db/d32/classcontroller_1_1_main_controller.html#a7cfedb8e16c6b9d6394054d03193da82" target="_top" xlink:title="controller.MainController.initialize\lSimulationWithData">
<polygon fill="white" stroke="black" points="566.5,-1 566.5,-31 739.5,-31 739.5,-1 566.5,-1"/>
<text text-anchor="start" x="574.5" y="-19" font-family="Helvetica,sans-Serif" font-size="10.00">controller.MainController.initialize</text>
<text text-anchor="middle" x="653" y="-8" font-family="Helvetica,sans-Serif" font-size="10.00">SimulationWithData</text>
</a>
</g>
</g>
<!-- Node4&#45;&gt;Node5 -->
<g id="edge4" class="edge"><title>Node4&#45;&gt;Node5</title>
<path fill="none" stroke="midnightblue" d="M540.268,-26.6679C548.886,-25.845 557.629,-25.0103 566.232,-24.1889"/>
<polygon fill="midnightblue" stroke="midnightblue" points="539.845,-23.1922 530.223,-27.6269 540.511,-30.1605 539.845,-23.1922"/>
</g>
<!-- Node5&#45;&gt;Node2 -->
<g id="edge5" class="edge"><title>Node5&#45;&gt;Node2</title>
<path fill="none" stroke="midnightblue" d="M556.182,-12.1096C502.52,-10.9063 434.438,-10.998 374,-16 362.402,-16.9599 350.208,-18.4601 338.283,-20.2065"/>
<polygon fill="midnightblue" stroke="midnightblue" points="556.29,-15.6132 566.372,-12.3574 556.46,-8.61523 556.29,-15.6132"/>
</g>
</g>
</svg>
        <g id="navigator" transform="translate(0 0)" fill="#404254">
                <rect fill="#f2f5e9" fill-opacity="0.5" stroke="#606060" stroke-width=".5" x="0" y="0" width="60" height="60"/>
                <use id="zoomplus" xlink:href="#zoomPlus" x="17" y="9" onmousedown="handleZoom(evt,'in')"/>
                <use id="zoomminus" xlink:href="#zoomMin" x="42" y="9" onmousedown="handleZoom(evt,'out')"/>
                <use id="reset" xlink:href="#resetDef" x="30" y="36" onmousedown="handleReset()"/>
                <g id="arrowUp" xlink:href="#dirArrow" transform="translate(30 24)" onmousedown="handlePan(0,-1)">
                  <use xlink:href="#rim" fill="#404040">
                        <set attributeName="fill" to="#808080" begin="arrowUp.mouseover" end="arrowUp.mouseout"/>
                  </use>
                  <path fill="none" stroke="white" stroke-width="1.5" d="M0,-3.0v7 M-2.5,-0.5L0,-3.0L2.5,-0.5"/>
                </g>
                <g id="arrowRight" xlink:href="#dirArrow" transform="rotate(90) translate(36 -43)" onmousedown="handlePan(1,0)">
                  <use xlink:href="#rim" fill="#404040">
                        <set attributeName="fill" to="#808080" begin="arrowRight.mouseover" end="arrowRight.mouseout"/>
                  </use>
                  <path fill="none" stroke="white" stroke-width="1.5" d="M0,-3.0v7 M-2.5,-0.5L0,-3.0L2.5,-0.5"/>
                </g>
                <g id="arrowDown" xlink:href="#dirArrow" transform="rotate(180) translate(-30 -48)" onmousedown="handlePan(0,1)">
                  <use xlink:href="#rim" fill="#404040">
                        <set attributeName="fill" to="#808080" begin="arrowDown.mouseover" end="arrowDown.mouseout"/>
                  </use>
                  <path fill="none" stroke="white" stroke-width="1.5" d="M0,-3.0v7 M-2.5,-0.5L0,-3.0L2.5,-0.5"/>
                </g>
                <g id="arrowLeft" xlink:href="#dirArrow" transform="rotate(270) translate(-36 17)" onmousedown="handlePan(-1,0)">
                  <use xlink:href="#rim" fill="#404040">
                        <set attributeName="fill" to="#808080" begin="arrowLeft.mouseover" end="arrowLeft.mouseout"/>
                  </use>
                  <path fill="none" stroke="white" stroke-width="1.5" d="M0,-3.0v7 M-2.5,-0.5L0,-3.0L2.5,-0.5"/>
                </g>
        </g>
        <svg viewBox="0 0 15 15" width="100%" height="30px" preserveAspectRatio="xMaxYMin meet">
         <g id="arrow_out" transform="scale(0.3 0.3)">
          <a xlink:href="classcontroller_1_1_color_picker_a965e34ea24c65524bc0e564d055a8e4e_icgraph_org.svg" target="_base">
           <rect id="button" ry="5" rx="5" y="6" x="6" height="38" width="38"
                fill="#f2f5e9" fill-opacity="0.5" stroke="#606060" stroke-width="1.0"/>
           <path id="arrow"
             d="M 11.500037,31.436501 C 11.940474,20.09759 22.043105,11.32322 32.158766,21.979434 L 37.068811,17.246167 C 37.068811,17.246167 37.088388,32 37.088388,32 L 22.160133,31.978069 C 22.160133,31.978069 26.997745,27.140456 26.997745,27.140456 C 18.528582,18.264221 13.291696,25.230495 11.500037,31.436501 z"
             style="fill:#404040;"/>
          </a>
         </g>
        </svg>
</svg>
