<?xml version="1.0" encoding="UTF-8" standalone="no"?>
<!DOCTYPE svg PUBLIC "-//W3C//DTD SVG 1.1//EN"
 "http://www.w3.org/Graphics/SVG/1.1/DTD/svg11.dtd">
<!-- Generated by graphviz version 2.36.0 (20140111.2315)
 -->
<!-- Title: controller.ColorPicker.sendPickFileAlert Pages: 1 -->
<svg width="928pt" height="102pt"
 viewBox="0.00 0.00 928.00 102.00" xmlns="http://www.w3.org/2000/svg" xmlns:xlink="http://www.w3.org/1999/xlink">
<g id="graph0" class="graph" transform="scale(1 1) rotate(0) translate(4 98)">
<title>controller.ColorPicker.sendPickFileAlert</title>
<polygon fill="white" stroke="none" points="-4,4 -4,-98 924,-98 924,4 -4,4"/>
<!-- Node1 -->
<g id="node1" class="node"><title>Node1</title>
<polygon fill="#bfbfbf" stroke="black" points="0.5,-20 0.5,-50 143.5,-50 143.5,-20 0.5,-20"/>
<text text-anchor="start" x="8.5" y="-38" font-family="Helvetica,sans-Serif" font-size="10.00">controller.ColorPicker.send</text>
<text text-anchor="middle" x="72" y="-27" font-family="Helvetica,sans-Serif" font-size="10.00">PickFileAlert</text>
</g>
<!-- Node2 -->
<g id="node2" class="node"><title>Node2</title>
<g id="a_node2"><a xlink:href="../../db/db2/classcontroller_1_1_color_picker.html#a965e34ea24c65524bc0e564d055a8e4e" target="_top" xlink:title="controller.ColorPicker.show\lColorPicker">
<polygon fill="white" stroke="black" points="180.5,-20 180.5,-50 323.5,-50 323.5,-20 180.5,-20"/>
<text text-anchor="start" x="188.5" y="-38" font-family="Helvetica,sans-Serif" font-size="10.00">controller.ColorPicker.show</text>
<text text-anchor="middle" x="252" y="-27" font-family="Helvetica,sans-Serif" font-size="10.00">ColorPicker</text>
</a>
</g>
</g>
<!-- Node1&#45;&gt;Node2 -->
<g id="edge1" class="edge"><title>Node1&#45;&gt;Node2</title>
<path fill="none" stroke="midnightblue" d="M153.646,-35C162.599,-35 171.666,-35 180.479,-35"/>
<polygon fill="midnightblue" stroke="midnightblue" points="153.606,-31.5001 143.606,-35 153.606,-38.5001 153.606,-31.5001"/>
</g>
<!-- Node3 -->
<g id="node3" class="node"><title>Node3</title>
<g id="a_node3"><a xlink:href="../../db/ddb/classcontroller_1_1_user_interface.html#a9cf1e21253003993661082c9d42926b2" target="_top" xlink:title="controller.UserInterface.make\lBottomPanel">
<polygon fill="white" stroke="black" points="360,-20 360,-50 518,-50 518,-20 360,-20"/>
<text text-anchor="start" x="368" y="-38" font-family="Helvetica,sans-Serif" font-size="10.00">controller.UserInterface.make</text>
<text text-anchor="middle" x="439" y="-27" font-family="Helvetica,sans-Serif" font-size="10.00">BottomPanel</text>
</a>
</g>
</g>
<!-- Node2&#45;&gt;Node3 -->
<g id="edge2" class="edge"><title>Node2&#45;&gt;Node3</title>
<path fill="none" stroke="midnightblue" d="M333.817,-35C342.478,-35 351.278,-35 359.906,-35"/>
<polygon fill="midnightblue" stroke="midnightblue" points="333.732,-31.5001 323.732,-35 333.732,-38.5001 333.732,-31.5001"/>
</g>
<!-- Node4 -->
<g id="node4" class="node"><title>Node4</title>
<g id="a_node4"><a xlink:href="../../db/ddb/classcontroller_1_1_user_interface.html#a6dd740b89d748c372a5ef9959e1bd7c4" target="_top" xlink:title="controller.UserInterface.\lUserInterface">
<polygon fill="white" stroke="black" points="566.5,-64 566.5,-94 697.5,-94 697.5,-64 566.5,-64"/>
<text text-anchor="start" x="574.5" y="-82" font-family="Helvetica,sans-Serif" font-size="10.00">controller.UserInterface.</text>
<text text-anchor="middle" x="632" y="-71" font-family="Helvetica,sans-Serif" font-size="10.00">UserInterface</text>
</a>
</g>
</g>
<!-- Node3&#45;&gt;Node4 -->
<g id="edge3" class="edge"><title>Node3&#45;&gt;Node4</title>
<path fill="none" stroke="midnightblue" d="M515.07,-52.2936C532.044,-56.204 549.922,-60.3224 566.42,-64.123"/>
<polygon fill="midnightblue" stroke="midnightblue" points="515.728,-48.8535 505.197,-50.0192 514.156,-55.6749 515.728,-48.8535"/>
</g>
<!-- Node5 -->
<g id="node5" class="node"><title>Node5</title>
<g id="a_node5"><a xlink:href="../../db/ddb/classcontroller_1_1_user_interface.html#aad62b84bbc23f683c844ace519feb9d2" target="_top" xlink:title="controller.UserInterface.reset">
<polygon fill="white" stroke="black" points="554,-25.5 554,-44.5 710,-44.5 710,-25.5 554,-25.5"/>
<text text-anchor="middle" x="632" y="-32.5" font-family="Helvetica,sans-Serif" font-size="10.00">controller.UserInterface.reset</text>
</a>
</g>
</g>
<!-- Node3&#45;&gt;Node5 -->
<g id="edge4" class="edge"><title>Node3&#45;&gt;Node5</title>
<path fill="none" stroke="midnightblue" d="M528.495,-35C536.949,-35 545.476,-35 553.81,-35"/>
<polygon fill="midnightblue" stroke="midnightblue" points="528.238,-31.5001 518.238,-35 528.238,-38.5001 528.238,-31.5001"/>
</g>
<!-- Node6 -->
<g id="node6" class="node"><title>Node6</title>
<g id="a_node6"><a xlink:href="../../db/d32/classcontroller_1_1_main_controller.html#a7cfedb8e16c6b9d6394054d03193da82" target="_top" xlink:title="controller.MainController.initialize\lSimulationWithData">
<polygon fill="white" stroke="black" points="746.5,-1 746.5,-31 919.5,-31 919.5,-1 746.5,-1"/>
<text text-anchor="start" x="754.5" y="-19" font-family="Helvetica,sans-Serif" font-size="10.00">controller.MainController.initialize</text>
<text text-anchor="middle" x="833" y="-8" font-family="Helvetica,sans-Serif" font-size="10.00">SimulationWithData</text>
</a>
</g>
</g>
<!-- Node5&#45;&gt;Node6 -->
<g id="edge5" class="edge"><title>Node5&#45;&gt;Node6</title>
<path fill="none" stroke="midnightblue" d="M720.268,-26.6679C728.886,-25.845 737.629,-25.0103 746.232,-24.1889"/>
<polygon fill="midnightblue" stroke="midnightblue" points="719.845,-23.1922 710.223,-27.6269 720.511,-30.1605 719.845,-23.1922"/>
</g>
<!-- Node6&#45;&gt;Node3 -->
<g id="edge6" class="edge"><title>Node6&#45;&gt;Node3</title>
<path fill="none" stroke="midnightblue" d="M736.182,-12.1096C682.52,-10.9063 614.438,-10.998 554,-16 542.402,-16.9599 530.208,-18.4601 518.283,-20.2065"/>
<polygon fill="midnightblue" stroke="midnightblue" points="736.29,-15.6132 746.372,-12.3574 736.46,-8.61523 736.29,-15.6132"/>
</g>
</g>
</svg>
