<?xml version="1.0" encoding="UTF-8" standalone="no"?>
<!DOCTYPE svg PUBLIC "-//W3C//DTD SVG 1.1//EN"
 "http://www.w3.org/Graphics/SVG/1.1/DTD/svg11.dtd">
<!-- Generated by graphviz version 2.36.0 (20140111.2315)
 -->
<!-- Title: controller.ColorPicker.buildColorPickerMenu Pages: 1 -->
<svg width="364pt" height="214pt"
 viewBox="0.00 0.00 364.00 214.00" xmlns="http://www.w3.org/2000/svg" xmlns:xlink="http://www.w3.org/1999/xlink">
<g id="graph0" class="graph" transform="scale(1 1) rotate(0) translate(4 210)">
<title>controller.ColorPicker.buildColorPickerMenu</title>
<polygon fill="white" stroke="none" points="-4,4 -4,-210 360,-210 360,4 -4,4"/>
<!-- Node1 -->
<g id="node1" class="node"><title>Node1</title>
<polygon fill="#bfbfbf" stroke="black" points="0,-88 0,-118 142,-118 142,-88 0,-88"/>
<text text-anchor="start" x="8" y="-106" font-family="Helvetica,sans-Serif" font-size="10.00">controller.ColorPicker.build</text>
<text text-anchor="middle" x="71" y="-95" font-family="Helvetica,sans-Serif" font-size="10.00">ColorPickerMenu</text>
</g>
<!-- Node2 -->
<g id="node2" class="node"><title>Node2</title>
<g id="a_node2"><a xlink:href="../../db/db2/classcontroller_1_1_color_picker.html#a37af659b10fbe01fd8102c37ae719377" target="_top" xlink:title="controller.ColorPicker.Color\lPicker">
<polygon fill="white" stroke="black" points="195,-176 195,-206 339,-206 339,-176 195,-176"/>
<text text-anchor="start" x="203" y="-194" font-family="Helvetica,sans-Serif" font-size="10.00">controller.ColorPicker.Color</text>
<text text-anchor="middle" x="267" y="-183" font-family="Helvetica,sans-Serif" font-size="10.00">Picker</text>
</a>
</g>
</g>
<!-- Node1&#45;&gt;Node2 -->
<g id="edge1" class="edge"><title>Node1&#45;&gt;Node2</title>
<path fill="none" stroke="midnightblue" d="M93.4461,-118.015C114.255,-132.026 147.129,-152.71 178,-166 183.648,-168.432 189.601,-170.7 195.637,-172.798"/>
<polygon fill="midnightblue" stroke="midnightblue" points="194.565,-176.13 205.159,-175.954 196.768,-169.485 194.565,-176.13"/>
</g>
<!-- Node3 -->
<g id="node3" class="node"><title>Node3</title>
<g id="a_node3"><a xlink:href="../../de/d7a/classcontroller_1_1_grid_info.html#aa4604331decd6c710c086e9792c6f251" target="_top" xlink:title="controller.GridInfo.getColor">
<polygon fill="white" stroke="black" points="195,-137.5 195,-156.5 339,-156.5 339,-137.5 195,-137.5"/>
<text text-anchor="middle" x="267" y="-144.5" font-family="Helvetica,sans-Serif" font-size="10.00">controller.GridInfo.getColor</text>
</a>
</g>
</g>
<!-- Node1&#45;&gt;Node3 -->
<g id="edge2" class="edge"><title>Node1&#45;&gt;Node3</title>
<path fill="none" stroke="midnightblue" d="M138.221,-118.019C162.986,-123.636 190.737,-129.93 214.033,-135.214"/>
<polygon fill="midnightblue" stroke="midnightblue" points="213.532,-138.689 224.059,-137.488 215.081,-131.862 213.532,-138.689"/>
</g>
<!-- Node4 -->
<g id="node4" class="node"><title>Node4</title>
<g id="a_node4"><a xlink:href="../../de/d7a/classcontroller_1_1_grid_info.html#a4ffe15890c7f3ba78c9f30b4c3ac1cb2" target="_top" xlink:title="controller.GridInfo.getState\lTypes">
<polygon fill="white" stroke="black" points="194,-88 194,-118 340,-118 340,-88 194,-88"/>
<text text-anchor="start" x="202" y="-106" font-family="Helvetica,sans-Serif" font-size="10.00">controller.GridInfo.getState</text>
<text text-anchor="middle" x="267" y="-95" font-family="Helvetica,sans-Serif" font-size="10.00">Types</text>
</a>
</g>
</g>
<!-- Node1&#45;&gt;Node4 -->
<g id="edge3" class="edge"><title>Node1&#45;&gt;Node4</title>
<path fill="none" stroke="midnightblue" d="M142.038,-103C155.575,-103 169.873,-103 183.758,-103"/>
<polygon fill="midnightblue" stroke="midnightblue" points="183.779,-106.5 193.779,-103 183.779,-99.5001 183.779,-106.5"/>
</g>
<!-- Node5 -->
<g id="node5" class="node"><title>Node5</title>
<g id="a_node5"><a xlink:href="../../de/d7a/classcontroller_1_1_grid_info.html#abf71126b3cab1973d8dd4deac7270fc4" target="_top" xlink:title="controller.GridInfo.setColor">
<polygon fill="white" stroke="black" points="195.5,-49.5 195.5,-68.5 338.5,-68.5 338.5,-49.5 195.5,-49.5"/>
<text text-anchor="middle" x="267" y="-56.5" font-family="Helvetica,sans-Serif" font-size="10.00">controller.GridInfo.setColor</text>
</a>
</g>
</g>
<!-- Node1&#45;&gt;Node5 -->
<g id="edge4" class="edge"><title>Node1&#45;&gt;Node5</title>
<path fill="none" stroke="midnightblue" d="M138.221,-87.9808C162.986,-82.364 190.737,-76.07 214.033,-70.7863"/>
<polygon fill="midnightblue" stroke="midnightblue" points="215.081,-74.1377 224.059,-68.5124 213.532,-67.311 215.081,-74.1377"/>
</g>
<!-- Node6 -->
<g id="node6" class="node"><title>Node6</title>
<g id="a_node6"><a xlink:href="../../d7/d97/classcontroller_1_1_grid.html#a3633218920b12cc2de0fd78523f726e9" target="_top" xlink:title="controller.Grid.updateBackground\lColor">
<polygon fill="white" stroke="black" points="178.5,-0 178.5,-30 355.5,-30 355.5,-0 178.5,-0"/>
<text text-anchor="start" x="186.5" y="-18" font-family="Helvetica,sans-Serif" font-size="10.00">controller.Grid.updateBackground</text>
<text text-anchor="middle" x="267" y="-7" font-family="Helvetica,sans-Serif" font-size="10.00">Color</text>
</a>
</g>
</g>
<!-- Node1&#45;&gt;Node6 -->
<g id="edge5" class="edge"><title>Node1&#45;&gt;Node6</title>
<path fill="none" stroke="midnightblue" d="M93.4461,-87.9845C114.255,-73.9742 147.129,-53.29 178,-40 183.648,-37.5684 189.601,-35.3005 195.637,-33.2023"/>
<polygon fill="midnightblue" stroke="midnightblue" points="196.768,-36.5148 205.159,-30.0458 194.565,-29.8703 196.768,-36.5148"/>
</g>
</g>
</svg>
