<?xml version="1.0" encoding="UTF-8" standalone="no"?>
<!DOCTYPE svg PUBLIC "-//W3C//DTD SVG 1.1//EN"
 "http://www.w3.org/Graphics/SVG/1.1/DTD/svg11.dtd">
<!-- Generated by graphviz version 2.36.0 (20140111.2315)
 -->
<!-- Title: controller.SimulationChart Pages: 1 -->
<!--zoomable 747 -->
<svg id="main" version="1.1" xmlns="http://www.w3.org/2000/svg" xmlns:xlink="http://www.w3.org/1999/xlink" xml:space="preserve" onload="init(evt)">
<style type="text/css"><![CDATA[
.edge:hover path { stroke: red; }
.edge:hover polygon { stroke: red; fill: red; }
]]></style>
<script type="text/javascript"><![CDATA[
var edges = document.getElementsByTagName('g');
if (edges && edges.length) {
  for (var i=0;i<edges.length;i++) {
    if (edges[i].id.substr(0,4)=='edge') {
      edges[i].setAttribute('class','edge');
    }
  }
}
]]></script>
        <defs>
                <circle id="rim" cx="0" cy="0" r="7"/>
                <circle id="rim2" cx="0" cy="0" r="3.5"/>
                <g id="zoomPlus">
                        <use xlink:href="#rim" fill="#404040">
                                <set attributeName="fill" to="#808080" begin="zoomplus.mouseover" end="zoomplus.mouseout"/>
                        </use>
                        <path d="M-4,0h8M0,-4v8" fill="none" stroke="white" stroke-width="1.5" pointer-events="none"/>
                </g>
                <g id="zoomMin">
                        <use xlink:href="#rim" fill="#404040">
                                <set attributeName="fill" to="#808080" begin="zoomminus.mouseover" end="zoomminus.mouseout"/>
                        </use>
                        <path d="M-4,0h8" fill="none" stroke="white" stroke-width="1.5" pointer-events="none"/>
                </g>
                <g id="dirArrow">
                        <path fill="none" stroke="white" stroke-width="1.5" d="M0,-3.0v7 M-2.5,-0.5L0,-3.0L2.5,-0.5"/>
                </g>
               <g id="resetDef">
                       <use xlink:href="#rim2" fill="#404040">
                               <set attributeName="fill" to="#808080" begin="reset.mouseover" end="reset.mouseout"/>
                       </use>
               </g>
        </defs>

<script type="text/javascript">
var viewWidth = 1136;
var viewHeight = 747;
var sectionId = 'dynsection-1';
</script>
<script xlink:href="../../svgpan.js"/>
<svg id="graph" class="graph">
<g id="viewport">
<title>controller.SimulationChart</title>
<polygon fill="white" stroke="none" points="-4,4 -4,-742.912 1132,-742.912 1132,4 -4,4"/>
<!-- Node1 -->
<g id="node1" class="node"><title>Node1</title>
<polygon fill="#bfbfbf" stroke="black" points="782.5,-135.412 782.5,-154.412 923.5,-154.412 923.5,-135.412 782.5,-135.412"/>
<text text-anchor="middle" x="853" y="-142.412" font-family="Helvetica,sans-Serif" font-size="10.00">controller.SimulationChart</text>
</g>
<!-- Node2 -->
<g id="node2" class="node"><title>Node2</title>
<polygon fill="white" stroke="#bfbfbf" points="311,-109.412 311,-128.412 351,-128.412 351,-109.412 311,-109.412"/>
<text text-anchor="middle" x="331" y="-116.412" font-family="Helvetica,sans-Serif" font-size="10.00">Pane</text>
</g>
<!-- Node2&#45;&gt;Node1 -->
<g id="edge1" class="edge"><title>Node2&#45;&gt;Node1</title>
<path fill="none" stroke="midnightblue" d="M361.255,-116.852C397.876,-114.386 462.539,-110.402 518,-108.912 627.446,-105.972 656.687,-100.209 764,-121.912 774.215,-123.978 797.292,-130.028 817.252,-135.405"/>
<polygon fill="midnightblue" stroke="midnightblue" points="361.004,-113.361 351.265,-117.534 361.48,-120.345 361.004,-113.361"/>
</g>
<!-- Node7 -->
<g id="node7" class="node"><title>Node7</title>
<g id="a_node7"><a xlink:href="../../d7/d97/classcontroller_1_1_grid.html" target="_top" xlink:title="controller.Grid">
<polygon fill="white" stroke="black" points="554.5,-290.412 554.5,-309.412 637.5,-309.412 637.5,-290.412 554.5,-290.412"/>
<text text-anchor="middle" x="596" y="-297.412" font-family="Helvetica,sans-Serif" font-size="10.00">controller.Grid</text>
</a>
</g>
</g>
<!-- Node2&#45;&gt;Node7 -->
<g id="edge7" class="edge"><title>Node2&#45;&gt;Node7</title>
<path fill="none" stroke="midnightblue" d="M356.818,-133.936C372.2,-143.309 392.328,-155.685 410,-166.912 450.371,-192.559 461.101,-198.082 500,-225.912 530.775,-247.93 565.522,-275.805 583.24,-290.249"/>
<polygon fill="midnightblue" stroke="midnightblue" points="358.281,-130.729 347.918,-128.525 354.644,-136.71 358.281,-130.729"/>
</g>
<!-- Node3 -->
<g id="node3" class="node"><title>Node3</title>
<g id="a_node3"><a xlink:href="../../de/d7a/classcontroller_1_1_grid_info.html" target="_top" xlink:title="controller.GridInfo">
<polygon fill="white" stroke="black" points="280.5,-497.412 280.5,-516.412 381.5,-516.412 381.5,-497.412 280.5,-497.412"/>
<text text-anchor="middle" x="331" y="-504.412" font-family="Helvetica,sans-Serif" font-size="10.00">controller.GridInfo</text>
</a>
</g>
</g>
<!-- Node3&#45;&gt;Node1 -->
<g id="edge2" class="edge"><title>Node3&#45;&gt;Node1</title>
<path fill="none" stroke="#9a32cd" stroke-dasharray="5,2" d="M342.859,-488.778C359.103,-461.097 389.958,-406.301 410,-356.912 420.468,-331.114 408.641,-316.92 428,-296.912 537.555,-183.684 617.155,-241.002 764,-183.912 787.674,-174.708 814.259,-162.685 831.952,-154.435"/>
<polygon fill="#9a32cd" stroke="#9a32cd" points="339.846,-486.997 337.764,-497.386 345.87,-490.563 339.846,-486.997"/>
<text text-anchor="middle" x="596" y="-236.912" font-family="Helvetica,sans-Serif" font-size="10.00"> infoSheet</text>
</g>
<!-- Node3&#45;&gt;Node7 -->
<g id="edge8" class="edge"><title>Node3&#45;&gt;Node7</title>
<path fill="none" stroke="#9a32cd" stroke-dasharray="5,2" d="M343.734,-488.77C360.266,-464.254 392.401,-420.245 428,-390.912 473.613,-353.328 537.086,-323.812 571.143,-309.457"/>
<polygon fill="#9a32cd" stroke="#9a32cd" points="340.794,-486.871 338.187,-497.14 346.629,-490.738 340.794,-486.871"/>
<text text-anchor="middle" x="464" y="-393.912" font-family="Helvetica,sans-Serif" font-size="10.00"> infoSheet</text>
</g>
<!-- Node8 -->
<g id="node8" class="node"><title>Node8</title>
<g id="a_node8"><a xlink:href="../../d5/da5/classsimulation_objects_1_1_patch.html" target="_top" xlink:title="simulationObjects.Patch">
<polygon fill="white" stroke="black" points="787.5,-467.412 787.5,-486.412 918.5,-486.412 918.5,-467.412 787.5,-467.412"/>
<text text-anchor="middle" x="853" y="-474.412" font-family="Helvetica,sans-Serif" font-size="10.00">simulationObjects.Patch</text>
</a>
</g>
</g>
<!-- Node3&#45;&gt;Node8 -->
<g id="edge11" class="edge"><title>Node3&#45;&gt;Node8</title>
<path fill="none" stroke="#9a32cd" stroke-dasharray="5,2" d="M356.552,-492.094C391.117,-472.185 456.764,-437.811 518,-424.912 585.844,-410.621 605.366,-415.092 674,-424.912 730.25,-432.96 793.548,-454.629 827.437,-467.311"/>
<polygon fill="#9a32cd" stroke="#9a32cd" points="354.522,-489.226 347.657,-497.296 358.056,-495.269 354.522,-489.226"/>
<text text-anchor="middle" x="596" y="-427.912" font-family="Helvetica,sans-Serif" font-size="10.00"> infoSheet</text>
</g>
<!-- Node10 -->
<g id="node10" class="node"><title>Node10</title>
<g id="a_node10"><a xlink:href="../../d2/d6e/classsimulation_objects_1_1_cell.html" target="_top" xlink:title="simulationObjects.Cell">
<polygon fill="white" stroke="black" points="1006,-501.412 1006,-520.412 1128,-520.412 1128,-501.412 1006,-501.412"/>
<text text-anchor="middle" x="1067" y="-508.412" font-family="Helvetica,sans-Serif" font-size="10.00">simulationObjects.Cell</text>
</a>
</g>
</g>
<!-- Node3&#45;&gt;Node10 -->
<g id="edge15" class="edge"><title>Node3&#45;&gt;Node10</title>
<path fill="none" stroke="#9a32cd" stroke-dasharray="5,2" d="M354.172,-522.321C387.767,-544.632 454.407,-584.9 518,-599.912 720.154,-647.634 970.288,-551.944 1044.37,-520.473"/>
<polygon fill="#9a32cd" stroke="#9a32cd" points="355.85,-519.232 345.603,-516.541 351.936,-525.035 355.85,-519.232"/>
<text text-anchor="middle" x="728" y="-612.912" font-family="Helvetica,sans-Serif" font-size="10.00"> infoSheet</text>
</g>
<!-- Node15 -->
<g id="node15" class="node"><title>Node15</title>
<g id="a_node15"><a xlink:href="../../d0/d1a/classsimulation_objects_1_1_patch_body.html" target="_top" xlink:title="simulationObjects.PatchBody">
<polygon fill="white" stroke="black" points="518.5,-647.412 518.5,-666.412 673.5,-666.412 673.5,-647.412 518.5,-647.412"/>
<text text-anchor="middle" x="596" y="-654.412" font-family="Helvetica,sans-Serif" font-size="10.00">simulationObjects.PatchBody</text>
</a>
</g>
</g>
<!-- Node3&#45;&gt;Node15 -->
<g id="edge23" class="edge"><title>Node3&#45;&gt;Node15</title>
<path fill="none" stroke="#9a32cd" stroke-dasharray="5,2" d="M344.363,-525.159C360.818,-548.058 392.056,-586.984 428,-608.912 448.86,-621.638 510.194,-637.479 552.424,-647.397"/>
<polygon fill="#9a32cd" stroke="#9a32cd" points="347.036,-522.873 338.43,-516.692 341.303,-526.89 347.036,-522.873"/>
<text text-anchor="middle" x="464" y="-635.912" font-family="Helvetica,sans-Serif" font-size="10.00"> infoSheet</text>
</g>
<!-- Node4 -->
<g id="node4" class="node"><title>Node4</title>
<polygon fill="white" stroke="#bfbfbf" points="0.5,-516.412 0.5,-535.412 143.5,-535.412 143.5,-516.412 0.5,-516.412"/>
<text text-anchor="middle" x="72" y="-523.412" font-family="Helvetica,sans-Serif" font-size="10.00">HashMap&lt; String, Color &gt;</text>
</g>
<!-- Node4&#45;&gt;Node3 -->
<g id="edge3" class="edge"><title>Node4&#45;&gt;Node3</title>
<path fill="none" stroke="#9a32cd" stroke-dasharray="5,2" d="M153.664,-519.948C195.174,-516.88 244.454,-513.236 280.35,-510.583"/>
<polygon fill="#9a32cd" stroke="#9a32cd" points="153.281,-516.467 143.566,-520.695 153.797,-523.448 153.281,-516.467"/>
<text text-anchor="middle" x="198" y="-522.912" font-family="Helvetica,sans-Serif" font-size="10.00"> stateColors</text>
</g>
<!-- Node5 -->
<g id="node5" class="node"><title>Node5</title>
<polygon fill="white" stroke="#bfbfbf" points="30,-478.412 30,-497.412 114,-497.412 114,-478.412 30,-478.412"/>
<text text-anchor="middle" x="72" y="-485.412" font-family="Helvetica,sans-Serif" font-size="10.00">List&lt; String &gt;</text>
</g>
<!-- Node5&#45;&gt;Node3 -->
<g id="edge4" class="edge"><title>Node5&#45;&gt;Node3</title>
<path fill="none" stroke="#9a32cd" stroke-dasharray="5,2" d="M124.219,-491.699C169.597,-495.053 235.432,-499.921 280.335,-503.24"/>
<polygon fill="#9a32cd" stroke="#9a32cd" points="124.237,-488.19 114.007,-490.944 123.721,-495.171 124.237,-488.19"/>
<text text-anchor="middle" x="198" y="-502.912" font-family="Helvetica,sans-Serif" font-size="10.00"> myStateTypes</text>
</g>
<!-- Node6 -->
<g id="node6" class="node"><title>Node6</title>
<polygon fill="white" stroke="#bfbfbf" points="27.5,-624.412 27.5,-643.412 116.5,-643.412 116.5,-624.412 27.5,-624.412"/>
<text text-anchor="middle" x="72" y="-631.412" font-family="Helvetica,sans-Serif" font-size="10.00">List&lt; Integer &gt;</text>
</g>
<!-- Node6&#45;&gt;Node3 -->
<g id="edge5" class="edge"><title>Node6&#45;&gt;Node3</title>
<path fill="none" stroke="#9a32cd" stroke-dasharray="5,2" d="M101.431,-619.862C154.061,-593.854 265.401,-538.834 310.459,-516.568"/>
<polygon fill="#9a32cd" stroke="#9a32cd" points="99.7313,-616.798 92.3168,-624.366 102.832,-623.074 99.7313,-616.798"/>
<text text-anchor="middle" x="198" y="-592.912" font-family="Helvetica,sans-Serif" font-size="10.00"> paramList</text>
</g>
<!-- Node6&#45;&gt;Node10 -->
<g id="edge16" class="edge"><title>Node6&#45;&gt;Node10</title>
<path fill="none" stroke="#9a32cd" stroke-dasharray="5,2" d="M96.4291,-648.826C140.394,-675.338 239.043,-727.912 330,-727.912 330,-727.912 330,-727.912 854,-727.912 971.714,-727.912 1045.48,-562.512 1062.31,-520.516"/>
<polygon fill="#9a32cd" stroke="#9a32cd" points="98.0127,-645.692 87.6593,-643.442 94.3503,-651.657 98.0127,-645.692"/>
<text text-anchor="middle" x="596" y="-730.912" font-family="Helvetica,sans-Serif" font-size="10.00"> myParamList</text>
</g>
<!-- Node7&#45;&gt;Node1 -->
<g id="edge6" class="edge"><title>Node7&#45;&gt;Node1</title>
<path fill="none" stroke="#9a32cd" stroke-dasharray="5,2" d="M624.168,-285.542C668.065,-262.283 751.012,-218.15 764,-209.912 792.39,-191.905 823.589,-167.726 840.142,-154.517"/>
<polygon fill="#9a32cd" stroke="#9a32cd" points="622.378,-282.53 615.178,-290.303 625.654,-288.716 622.378,-282.53"/>
<text text-anchor="middle" x="728" y="-252.912" font-family="Helvetica,sans-Serif" font-size="10.00"> grid</text>
</g>
<!-- Node7&#45;&gt;Node8 -->
<g id="edge17" class="edge"><title>Node7&#45;&gt;Node8</title>
<path fill="none" stroke="#9a32cd" stroke-dasharray="5,2" d="M623.996,-314.252C642.763,-323.905 668.524,-336.534 692,-345.912 723.196,-358.374 736.239,-349.995 764,-368.912 803.774,-396.015 834.887,-446.242 846.77,-467.265"/>
<polygon fill="#9a32cd" stroke="#9a32cd" points="625.356,-311.015 614.869,-309.509 622.128,-317.226 625.356,-311.015"/>
<text text-anchor="middle" x="728" y="-371.912" font-family="Helvetica,sans-Serif" font-size="10.00"> grid</text>
</g>
<!-- Node20 -->
<g id="node20" class="node"><title>Node20</title>
<g id="a_node20"><a xlink:href="../../dd/d38/classcontroller_1_1_grid_edge_rules.html" target="_top" xlink:title="controller.GridEdgeRules">
<polygon fill="white" stroke="black" points="787,-273.412 787,-292.412 919,-292.412 919,-273.412 787,-273.412"/>
<text text-anchor="middle" x="853" y="-280.412" font-family="Helvetica,sans-Serif" font-size="10.00">controller.GridEdgeRules</text>
</a>
</g>
</g>
<!-- Node7&#45;&gt;Node20 -->
<g id="edge28" class="edge"><title>Node7&#45;&gt;Node20</title>
<path fill="none" stroke="#9a32cd" stroke-dasharray="5,2" d="M647.715,-296.531C687.575,-293.874 743.389,-290.153 786.606,-287.272"/>
<polygon fill="#9a32cd" stroke="#9a32cd" points="647.432,-293.042 637.687,-297.199 647.898,-300.026 647.432,-293.042"/>
<text text-anchor="middle" x="728" y="-296.912" font-family="Helvetica,sans-Serif" font-size="10.00"> grid</text>
</g>
<!-- Node8&#45;&gt;Node7 -->
<g id="edge9" class="edge"><title>Node8&#45;&gt;Node7</title>
<path fill="none" stroke="#9a32cd" stroke-dasharray="5,2" d="M845.618,-457.394C834.377,-426.26 807.979,-365.734 764,-334.912 743.987,-320.886 680.397,-310.4 637.717,-304.718"/>
<polygon fill="#9a32cd" stroke="#9a32cd" points="842.392,-458.775 848.966,-467.083 849.008,-456.489 842.392,-458.775"/>
<text text-anchor="middle" x="728" y="-337.912" font-family="Helvetica,sans-Serif" font-size="10.00"> gridArray</text>
</g>
<!-- Node8&#45;&gt;Node10 -->
<g id="edge14" class="edge"><title>Node8&#45;&gt;Node10</title>
<path fill="none" stroke="#9a32cd" stroke-dasharray="5,2" d="M923.453,-488.051C950.352,-492.365 980.829,-497.252 1006.68,-501.398"/>
<polygon fill="#9a32cd" stroke="#9a32cd" points="923.764,-484.556 913.336,-486.428 922.655,-491.467 923.764,-484.556"/>
<text text-anchor="middle" x="965" y="-501.912" font-family="Helvetica,sans-Serif" font-size="10.00"> myPatch</text>
</g>
<!-- Node9 -->
<g id="node9" class="node"><title>Node9</title>
<polygon fill="white" stroke="#bfbfbf" points="573,-571.412 573,-590.412 619,-590.412 619,-571.412 573,-571.412"/>
<text text-anchor="middle" x="596" y="-578.412" font-family="Helvetica,sans-Serif" font-size="10.00">Group</text>
</g>
<!-- Node9&#45;&gt;Node8 -->
<g id="edge10" class="edge"><title>Node9&#45;&gt;Node8</title>
<path fill="none" stroke="midnightblue" d="M629.204,-576.186C663.723,-570.318 719.554,-558.477 764,-537.912 794.03,-524.017 824.844,-499.954 840.833,-486.58"/>
<polygon fill="midnightblue" stroke="midnightblue" points="628.516,-572.752 619.211,-577.819 629.645,-579.661 628.516,-572.752"/>
</g>
<!-- Node10&#45;&gt;Node8 -->
<g id="edge12" class="edge"><title>Node10&#45;&gt;Node8</title>
<path fill="none" stroke="#9a32cd" stroke-dasharray="5,2" d="M1039.95,-496.842C1025.17,-489.652 1006.07,-481.648 988,-477.912 965.673,-473.296 940.803,-472.068 918.609,-472.31"/>
<polygon fill="#9a32cd" stroke="#9a32cd" points="1038.47,-500.019 1048.98,-501.396 1041.63,-493.769 1038.47,-500.019"/>
<text text-anchor="middle" x="965" y="-480.912" font-family="Helvetica,sans-Serif" font-size="10.00"> myCell</text>
</g>
<!-- Node11 -->
<g id="node11" class="node"><title>Node11</title>
<polygon fill="white" stroke="#bfbfbf" points="821.5,-97.4119 821.5,-116.412 884.5,-116.412 884.5,-97.4119 821.5,-97.4119"/>
<text text-anchor="middle" x="853" y="-104.412" font-family="Helvetica,sans-Serif" font-size="10.00">Rectangle</text>
</g>
<!-- Node11&#45;&gt;Node10 -->
<g id="edge13" class="edge"><title>Node11&#45;&gt;Node10</title>
<path fill="none" stroke="midnightblue" d="M894.622,-111.135C905.209,-113.935 915.905,-118.502 924,-125.912 1043.03,-234.865 1062.59,-452.404 1065.52,-501.093"/>
<polygon fill="midnightblue" stroke="midnightblue" points="895.107,-107.659 884.592,-108.956 893.621,-114.499 895.107,-107.659"/>
</g>
<!-- Node12 -->
<g id="node12" class="node"><title>Node12</title>
<polygon fill="white" stroke="#bfbfbf" points="562,-533.412 562,-552.412 630,-552.412 630,-533.412 562,-533.412"/>
<text text-anchor="middle" x="596" y="-540.412" font-family="Helvetica,sans-Serif" font-size="10.00">ImageView</text>
</g>
<!-- Node12&#45;&gt;Node8 -->
<g id="edge18" class="edge"><title>Node12&#45;&gt;Node8</title>
<path fill="none" stroke="#9a32cd" stroke-dasharray="5,2" d="M640.228,-534.575C674.118,-527.741 722.35,-517.358 764,-505.912 784.785,-500.2 807.921,-492.522 825.253,-486.501"/>
<polygon fill="#9a32cd" stroke="#9a32cd" points="639.315,-531.188 630.194,-536.579 640.686,-538.053 639.315,-531.188"/>
<text text-anchor="middle" x="728" y="-525.912" font-family="Helvetica,sans-Serif" font-size="10.00"> myView</text>
</g>
<!-- Node13 -->
<g id="node13" class="node"><title>Node13</title>
<g id="a_node13"><a xlink:href="../../df/d37/enumsimulation_objects_1_1_patch_1_1_state.html" target="_top" xlink:title="simulationObjects.Patch.\lState">
<polygon fill="white" stroke="black" points="529,-483.912 529,-513.912 663,-513.912 663,-483.912 529,-483.912"/>
<text text-anchor="start" x="537" y="-501.912" font-family="Helvetica,sans-Serif" font-size="10.00">simulationObjects.Patch.</text>
<text text-anchor="middle" x="596" y="-490.912" font-family="Helvetica,sans-Serif" font-size="10.00">State</text>
</a>
</g>
</g>
<!-- Node13&#45;&gt;Node8 -->
<g id="edge19" class="edge"><title>Node13&#45;&gt;Node8</title>
<path fill="none" stroke="#9a32cd" stroke-dasharray="5,2" d="M673.057,-492.35C709.383,-489.216 752.404,-485.504 787.159,-482.506"/>
<polygon fill="#9a32cd" stroke="#9a32cd" points="672.663,-488.871 663,-493.218 673.264,-495.845 672.663,-488.871"/>
<text text-anchor="middle" x="728" y="-493.912" font-family="Helvetica,sans-Serif" font-size="10.00"> myState</text>
</g>
<!-- Node14 -->
<g id="node14" class="node"><title>Node14</title>
<polygon fill="white" stroke="#bfbfbf" points="572.5,-445.412 572.5,-464.412 619.5,-464.412 619.5,-445.412 572.5,-445.412"/>
<text text-anchor="middle" x="596" y="-452.412" font-family="Helvetica,sans-Serif" font-size="10.00">Image</text>
</g>
<!-- Node14&#45;&gt;Node8 -->
<g id="edge20" class="edge"><title>Node14&#45;&gt;Node8</title>
<path fill="none" stroke="#9a32cd" stroke-dasharray="5,2" d="M629.787,-457.741C669.408,-461.159 737.005,-466.991 787.265,-471.327"/>
<polygon fill="#9a32cd" stroke="#9a32cd" points="629.893,-454.237 619.63,-456.864 629.292,-461.211 629.893,-454.237"/>
<text text-anchor="middle" x="728" y="-472.912" font-family="Helvetica,sans-Serif" font-size="10.00"> image</text>
</g>
<!-- Node15&#45;&gt;Node8 -->
<g id="edge21" class="edge"><title>Node15&#45;&gt;Node8</title>
<path fill="none" stroke="#9a32cd" stroke-dasharray="5,2" d="M683.801,-659.128C711.391,-656.161 740.746,-648.819 764,-632.912 817.896,-596.043 842.585,-514.688 849.718,-486.641"/>
<polygon fill="#9a32cd" stroke="#9a32cd" points="683.379,-655.652 673.731,-660.031 684.004,-662.624 683.379,-655.652"/>
<text text-anchor="middle" x="728" y="-659.912" font-family="Helvetica,sans-Serif" font-size="10.00"> myBody</text>
</g>
<!-- Node16 -->
<g id="node16" class="node"><title>Node16</title>
<polygon fill="white" stroke="#bfbfbf" points="304,-642.412 304,-661.412 358,-661.412 358,-642.412 304,-642.412"/>
<text text-anchor="middle" x="331" y="-649.412" font-family="Helvetica,sans-Serif" font-size="10.00">Polygon</text>
</g>
<!-- Node16&#45;&gt;Node15 -->
<g id="edge22" class="edge"><title>Node16&#45;&gt;Node15</title>
<path fill="none" stroke="midnightblue" d="M368.408,-652.604C406.988,-653.338 469.039,-654.517 518.46,-655.457"/>
<polygon fill="midnightblue" stroke="midnightblue" points="368.244,-649.1 358.179,-652.41 368.111,-656.099 368.244,-649.1"/>
</g>
<!-- Node17 -->
<g id="node17" class="node"><title>Node17</title>
<polygon fill="white" stroke="#bfbfbf" points="310.5,-680.412 310.5,-699.412 351.5,-699.412 351.5,-680.412 310.5,-680.412"/>
<text text-anchor="middle" x="331" y="-687.412" font-family="Helvetica,sans-Serif" font-size="10.00">Point</text>
</g>
<!-- Node17&#45;&gt;Node15 -->
<g id="edge24" class="edge"><title>Node17&#45;&gt;Node15</title>
<path fill="none" stroke="#9a32cd" stroke-dasharray="5,2" d="M362.139,-686.13C400.129,-681.363 466.783,-673 519.072,-666.439"/>
<polygon fill="#9a32cd" stroke="#9a32cd" points="361.254,-682.714 351.768,-687.432 362.126,-689.659 361.254,-682.714"/>
<text text-anchor="middle" x="464" y="-679.912" font-family="Helvetica,sans-Serif" font-size="10.00"> myCenter</text>
</g>
<!-- Node18 -->
<g id="node18" class="node"><title>Node18</title>
<polygon fill="white" stroke="#bfbfbf" points="264.5,-317.912 264.5,-347.912 397.5,-347.912 397.5,-317.912 264.5,-317.912"/>
<text text-anchor="start" x="272.5" y="-335.912" font-family="Helvetica,sans-Serif" font-size="10.00">List&lt; simulationObjects.</text>
<text text-anchor="middle" x="331" y="-324.912" font-family="Helvetica,sans-Serif" font-size="10.00">Patch &gt;</text>
</g>
<!-- Node18&#45;&gt;Node7 -->
<g id="edge29" class="edge"><title>Node18&#45;&gt;Node7</title>
<path fill="none" stroke="#9a32cd" stroke-dasharray="5,2" d="M389.337,-315.153C401.961,-311.871 415.343,-308.866 428,-306.912 470.731,-300.314 520.294,-299.025 554.26,-299.101"/>
<polygon fill="#9a32cd" stroke="#9a32cd" points="388.149,-311.848 379.404,-317.829 389.971,-318.607 388.149,-311.848"/>
<text text-anchor="middle" x="464" y="-309.912" font-family="Helvetica,sans-Serif" font-size="10.00"> emptyPatches</text>
</g>
<!-- Node18&#45;&gt;Node8 -->
<g id="edge25" class="edge"><title>Node18&#45;&gt;Node8</title>
<path fill="none" stroke="#9a32cd" stroke-dasharray="5,2" d="M405.778,-350.136C413.275,-351.792 420.783,-353.411 428,-354.912 577.344,-385.974 623.333,-365.91 764,-424.912 791.983,-436.649 821.847,-455.908 838.593,-467.403"/>
<polygon fill="#9a32cd" stroke="#9a32cd" points="406.475,-346.706 395.953,-347.947 404.952,-353.538 406.475,-346.706"/>
<text text-anchor="middle" x="596" y="-396.912" font-family="Helvetica,sans-Serif" font-size="10.00"> myNeighbors</text>
</g>
<!-- Node19 -->
<g id="node19" class="node"><title>Node19</title>
<polygon fill="white" stroke="#bfbfbf" points="252,-176.412 252,-195.412 410,-195.412 410,-176.412 252,-176.412"/>
<text text-anchor="middle" x="331" y="-183.412" font-family="Helvetica,sans-Serif" font-size="10.00">HashMap&lt; Integer, Integer &gt;</text>
</g>
<!-- Node19&#45;&gt;Node7 -->
<g id="edge26" class="edge"><title>Node19&#45;&gt;Node7</title>
<path fill="none" stroke="#9a32cd" stroke-dasharray="5,2" d="M363.369,-199.509C417.276,-222.876 526.193,-270.087 572.907,-290.335"/>
<polygon fill="#9a32cd" stroke="#9a32cd" points="364.538,-196.201 353.971,-195.435 361.754,-202.624 364.538,-196.201"/>
<text text-anchor="middle" x="464" y="-259.912" font-family="Helvetica,sans-Serif" font-size="10.00"> cellCounts</text>
</g>
<!-- Node20&#45;&gt;Node7 -->
<g id="edge27" class="edge"><title>Node20&#45;&gt;Node7</title>
<path fill="none" stroke="#9a32cd" stroke-dasharray="5,2" d="M803.711,-271.411C771.845,-265.459 729.258,-260.625 692,-266.912 665.659,-271.357 636.87,-282.276 617.969,-290.343"/>
<polygon fill="#9a32cd" stroke="#9a32cd" points="803.172,-274.872 813.66,-273.37 804.524,-268.004 803.172,-274.872"/>
<text text-anchor="middle" x="728" y="-269.912" font-family="Helvetica,sans-Serif" font-size="10.00"> myEdgeRules</text>
</g>
<!-- Node21 -->
<g id="node21" class="node"><title>Node21</title>
<polygon fill="white" stroke="#bfbfbf" points="558.5,-156.412 558.5,-175.412 633.5,-175.412 633.5,-156.412 558.5,-156.412"/>
<text text-anchor="middle" x="596" y="-163.412" font-family="Helvetica,sans-Serif" font-size="10.00">NumberAxis</text>
</g>
<!-- Node21&#45;&gt;Node1 -->
<g id="edge30" class="edge"><title>Node21&#45;&gt;Node1</title>
<path fill="none" stroke="#9a32cd" stroke-dasharray="5,2" d="M643.509,-162.082C682.315,-158.886 738.203,-154.283 782.349,-150.648"/>
<polygon fill="#9a32cd" stroke="#9a32cd" points="643.214,-158.594 633.535,-162.903 643.789,-165.57 643.214,-158.594"/>
<text text-anchor="middle" x="728" y="-171.912" font-family="Helvetica,sans-Serif" font-size="10.00"> myXAxis</text>
<text text-anchor="middle" x="728" y="-160.912" font-family="Helvetica,sans-Serif" font-size="10.00">myYAxis</text>
</g>
<!-- Node22 -->
<g id="node22" class="node"><title>Node22</title>
<polygon fill="white" stroke="#bfbfbf" points="553,-118.412 553,-137.412 639,-137.412 639,-118.412 553,-118.412"/>
<text text-anchor="middle" x="596" y="-125.412" font-family="Helvetica,sans-Serif" font-size="10.00">List&lt; Series &gt;</text>
</g>
<!-- Node22&#45;&gt;Node1 -->
<g id="edge31" class="edge"><title>Node22&#45;&gt;Node1</title>
<path fill="none" stroke="#9a32cd" stroke-dasharray="5,2" d="M649.621,-125.892C682.558,-125.205 725.838,-125.356 764,-128.912 778.379,-130.252 793.924,-132.73 807.891,-135.342"/>
<polygon fill="#9a32cd" stroke="#9a32cd" points="649.223,-122.401 639.311,-126.141 649.392,-129.398 649.223,-122.401"/>
<text text-anchor="middle" x="728" y="-131.912" font-family="Helvetica,sans-Serif" font-size="10.00"> myDataPoints</text>
</g>
<!-- Node23 -->
<g id="node23" class="node"><title>Node23</title>
<polygon fill="white" stroke="#bfbfbf" points="565,-42.4119 565,-61.4119 627,-61.4119 627,-42.4119 565,-42.4119"/>
<text text-anchor="middle" x="596" y="-49.4119" font-family="Helvetica,sans-Serif" font-size="10.00">LineChart</text>
</g>
<!-- Node23&#45;&gt;Node1 -->
<g id="edge32" class="edge"><title>Node23&#45;&gt;Node1</title>
<path fill="none" stroke="#9a32cd" stroke-dasharray="5,2" d="M637.184,-43.2746C674.233,-37.7831 728.678,-36.3031 764,-64.9119 785.966,-82.7029 761.795,-106.144 782,-125.912 785.961,-129.787 790.627,-132.891 795.641,-135.375"/>
<polygon fill="#9a32cd" stroke="#9a32cd" points="636.528,-39.8355 627.226,-44.9082 637.661,-46.7431 636.528,-39.8355"/>
<text text-anchor="middle" x="728" y="-67.9119" font-family="Helvetica,sans-Serif" font-size="10.00"> myLineChart</text>
</g>
<!-- Node24 -->
<g id="node24" class="node"><title>Node24</title>
<polygon fill="white" stroke="#bfbfbf" points="529.5,-4.41191 529.5,-23.4119 662.5,-23.4119 662.5,-4.41191 529.5,-4.41191"/>
<text text-anchor="middle" x="596" y="-11.4119" font-family="Helvetica,sans-Serif" font-size="10.00">Map&lt; Integer, Integer &gt;</text>
</g>
<!-- Node24&#45;&gt;Node1 -->
<g id="edge33" class="edge"><title>Node24&#45;&gt;Node1</title>
<path fill="none" stroke="#9a32cd" stroke-dasharray="5,2" d="M646.377,-2.81845C683.324,2.37246 732.681,2.24159 764,-25.9119 797.584,-56.1015 751.486,-92.6223 782,-125.912 785.489,-129.718 789.655,-132.792 794.193,-135.271"/>
<polygon fill="#9a32cd" stroke="#9a32cd" points="645.643,0.609249 636.31,-4.40481 646.733,-6.30542 645.643,0.609249"/>
<text text-anchor="middle" x="728" y="-28.9119" font-family="Helvetica,sans-Serif" font-size="10.00"> cellCounts</text>
</g>
</g>
</svg>
        <g id="navigator" transform="translate(0 0)" fill="#404254">
                <rect fill="#f2f5e9" fill-opacity="0.5" stroke="#606060" stroke-width=".5" x="0" y="0" width="60" height="60"/>
                <use id="zoomplus" xlink:href="#zoomPlus" x="17" y="9" onmousedown="handleZoom(evt,'in')"/>
                <use id="zoomminus" xlink:href="#zoomMin" x="42" y="9" onmousedown="handleZoom(evt,'out')"/>
                <use id="reset" xlink:href="#resetDef" x="30" y="36" onmousedown="handleReset()"/>
                <g id="arrowUp" xlink:href="#dirArrow" transform="translate(30 24)" onmousedown="handlePan(0,-1)">
                  <use xlink:href="#rim" fill="#404040">
                        <set attributeName="fill" to="#808080" begin="arrowUp.mouseover" end="arrowUp.mouseout"/>
                  </use>
                  <path fill="none" stroke="white" stroke-width="1.5" d="M0,-3.0v7 M-2.5,-0.5L0,-3.0L2.5,-0.5"/>
                </g>
                <g id="arrowRight" xlink:href="#dirArrow" transform="rotate(90) translate(36 -43)" onmousedown="handlePan(1,0)">
                  <use xlink:href="#rim" fill="#404040">
                        <set attributeName="fill" to="#808080" begin="arrowRight.mouseover" end="arrowRight.mouseout"/>
                  </use>
                  <path fill="none" stroke="white" stroke-width="1.5" d="M0,-3.0v7 M-2.5,-0.5L0,-3.0L2.5,-0.5"/>
                </g>
                <g id="arrowDown" xlink:href="#dirArrow" transform="rotate(180) translate(-30 -48)" onmousedown="handlePan(0,1)">
                  <use xlink:href="#rim" fill="#404040">
                        <set attributeName="fill" to="#808080" begin="arrowDown.mouseover" end="arrowDown.mouseout"/>
                  </use>
                  <path fill="none" stroke="white" stroke-width="1.5" d="M0,-3.0v7 M-2.5,-0.5L0,-3.0L2.5,-0.5"/>
                </g>
                <g id="arrowLeft" xlink:href="#dirArrow" transform="rotate(270) translate(-36 17)" onmousedown="handlePan(-1,0)">
                  <use xlink:href="#rim" fill="#404040">
                        <set attributeName="fill" to="#808080" begin="arrowLeft.mouseover" end="arrowLeft.mouseout"/>
                  </use>
                  <path fill="none" stroke="white" stroke-width="1.5" d="M0,-3.0v7 M-2.5,-0.5L0,-3.0L2.5,-0.5"/>
                </g>
        </g>
        <svg viewBox="0 0 15 15" width="100%" height="30px" preserveAspectRatio="xMaxYMin meet">
         <g id="arrow_out" transform="scale(0.3 0.3)">
          <a xlink:href="classcontroller_1_1_simulation_chart__coll__graph_org.svg" target="_base">
           <rect id="button" ry="5" rx="5" y="6" x="6" height="38" width="38"
                fill="#f2f5e9" fill-opacity="0.5" stroke="#606060" stroke-width="1.0"/>
           <path id="arrow"
             d="M 11.500037,31.436501 C 11.940474,20.09759 22.043105,11.32322 32.158766,21.979434 L 37.068811,17.246167 C 37.068811,17.246167 37.088388,32 37.088388,32 L 22.160133,31.978069 C 22.160133,31.978069 26.997745,27.140456 26.997745,27.140456 C 18.528582,18.264221 13.291696,25.230495 11.500037,31.436501 z"
             style="fill:#404040;"/>
          </a>
         </g>
        </svg>
</svg>
