<?xml version="1.0" encoding="UTF-8" standalone="no"?>
<!DOCTYPE svg PUBLIC "-//W3C//DTD SVG 1.1//EN"
 "http://www.w3.org/Graphics/SVG/1.1/DTD/svg11.dtd">
<!-- Generated by graphviz version 2.36.0 (20140111.2315)
 -->
<!-- Title: simulationObjects.PatchBodyRectangle.buildBody Pages: 1 -->
<svg width="388pt" height="185pt"
 viewBox="0.00 0.00 388.00 185.00" xmlns="http://www.w3.org/2000/svg" xmlns:xlink="http://www.w3.org/1999/xlink">
<g id="graph0" class="graph" transform="scale(1 1) rotate(0) translate(4 181)">
<title>simulationObjects.PatchBodyRectangle.buildBody</title>
<polygon fill="white" stroke="none" points="-4,4 -4,-181 384,-181 384,4 -4,4"/>
<!-- Node1 -->
<g id="node1" class="node"><title>Node1</title>
<polygon fill="#bfbfbf" stroke="black" points="0.5,-73 0.5,-103 155.5,-103 155.5,-73 0.5,-73"/>
<text text-anchor="start" x="8.5" y="-91" font-family="Helvetica,sans-Serif" font-size="10.00">simulationObjects.PatchBody</text>
<text text-anchor="middle" x="78" y="-80" font-family="Helvetica,sans-Serif" font-size="10.00">Rectangle.buildBody</text>
</g>
<!-- Node2 -->
<g id="node2" class="node"><title>Node2</title>
<g id="a_node2"><a xlink:href="../../d0/d1a/classsimulation_objects_1_1_patch_body.html#a9760016e89cb49e2037203dd2a7eed58" target="_top" xlink:title="simulationObjects.PatchBody.create\lPolyFromPoints">
<polygon fill="white" stroke="black" points="192,-147 192,-177 380,-177 380,-147 192,-147"/>
<text text-anchor="start" x="200" y="-165" font-family="Helvetica,sans-Serif" font-size="10.00">simulationObjects.PatchBody.create</text>
<text text-anchor="middle" x="286" y="-154" font-family="Helvetica,sans-Serif" font-size="10.00">PolyFromPoints</text>
</a>
</g>
</g>
<!-- Node1&#45;&gt;Node2 -->
<g id="edge1" class="edge"><title>Node1&#45;&gt;Node2</title>
<path fill="none" stroke="midnightblue" d="M110.65,-103.211C133.036,-113.599 163.938,-127.203 192,-137 199.214,-139.519 206.817,-141.935 214.439,-144.205"/>
<polygon fill="midnightblue" stroke="midnightblue" points="213.497,-147.576 224.076,-146.998 215.446,-140.852 213.497,-147.576"/>
</g>
<!-- Node3 -->
<g id="node3" class="node"><title>Node3</title>
<g id="a_node3"><a xlink:href="../../d0/d1a/classsimulation_objects_1_1_patch_body.html#a268e88a7cb1f5feb98f49e230475c2ba" target="_top" xlink:title="simulationObjects.PatchBody.get\lPatchHeight">
<polygon fill="white" stroke="black" points="199.5,-98 199.5,-128 372.5,-128 372.5,-98 199.5,-98"/>
<text text-anchor="start" x="207.5" y="-116" font-family="Helvetica,sans-Serif" font-size="10.00">simulationObjects.PatchBody.get</text>
<text text-anchor="middle" x="286" y="-105" font-family="Helvetica,sans-Serif" font-size="10.00">PatchHeight</text>
</a>
</g>
</g>
<!-- Node1&#45;&gt;Node3 -->
<g id="edge2" class="edge"><title>Node1&#45;&gt;Node3</title>
<path fill="none" stroke="midnightblue" d="M155.707,-97.3091C166.567,-98.627 177.845,-99.9957 189.013,-101.351"/>
<polygon fill="midnightblue" stroke="midnightblue" points="188.873,-104.86 199.222,-102.59 189.717,-97.9107 188.873,-104.86"/>
</g>
<!-- Node4 -->
<g id="node4" class="node"><title>Node4</title>
<g id="a_node4"><a xlink:href="../../d0/d1a/classsimulation_objects_1_1_patch_body.html#a466dadbe30fb2f8360163881e0db9295" target="_top" xlink:title="simulationObjects.PatchBody.get\lPatchWidth">
<polygon fill="white" stroke="black" points="199.5,-49 199.5,-79 372.5,-79 372.5,-49 199.5,-49"/>
<text text-anchor="start" x="207.5" y="-67" font-family="Helvetica,sans-Serif" font-size="10.00">simulationObjects.PatchBody.get</text>
<text text-anchor="middle" x="286" y="-56" font-family="Helvetica,sans-Serif" font-size="10.00">PatchWidth</text>
</a>
</g>
</g>
<!-- Node1&#45;&gt;Node4 -->
<g id="edge3" class="edge"><title>Node1&#45;&gt;Node4</title>
<path fill="none" stroke="midnightblue" d="M155.707,-79.0633C166.567,-77.798 177.845,-76.4841 189.013,-75.183"/>
<polygon fill="midnightblue" stroke="midnightblue" points="189.695,-78.6273 199.222,-73.9935 188.884,-71.6743 189.695,-78.6273"/>
</g>
<!-- Node5 -->
<g id="node5" class="node"><title>Node5</title>
<g id="a_node5"><a xlink:href="../../d0/d1a/classsimulation_objects_1_1_patch_body.html#a699dd283d067ce6da4bc19a2ae81a365" target="_top" xlink:title="simulationObjects.PatchBody.set\lCenter">
<polygon fill="white" stroke="black" points="200,-0 200,-30 372,-30 372,-0 200,-0"/>
<text text-anchor="start" x="208" y="-18" font-family="Helvetica,sans-Serif" font-size="10.00">simulationObjects.PatchBody.set</text>
<text text-anchor="middle" x="286" y="-7" font-family="Helvetica,sans-Serif" font-size="10.00">Center</text>
</a>
</g>
</g>
<!-- Node1&#45;&gt;Node5 -->
<g id="edge4" class="edge"><title>Node1&#45;&gt;Node5</title>
<path fill="none" stroke="midnightblue" d="M111.169,-72.9201C133.529,-62.7901 164.193,-49.5912 192,-40 199.223,-37.5084 206.832,-35.1097 214.458,-32.8501"/>
<polygon fill="midnightblue" stroke="midnightblue" points="215.462,-36.203 224.098,-30.0657 213.52,-29.4779 215.462,-36.203"/>
</g>
</g>
</svg>
