<?xml version="1.0" encoding="UTF-8" standalone="no"?>
<!DOCTYPE svg PUBLIC "-//W3C//DTD SVG 1.1//EN"
 "http://www.w3.org/Graphics/SVG/1.1/DTD/svg11.dtd">
<!-- Generated by graphviz version 2.36.0 (20140111.2315)
 -->
<!-- Title: simulationObjects.PatchBodyRectangle.PatchBodyRectangle Pages: 1 -->
<svg width="604pt" height="209pt"
 viewBox="0.00 0.00 604.00 209.00" xmlns="http://www.w3.org/2000/svg" xmlns:xlink="http://www.w3.org/1999/xlink">
<g id="graph0" class="graph" transform="scale(1 1) rotate(0) translate(4 205)">
<title>simulationObjects.PatchBodyRectangle.PatchBodyRectangle</title>
<polygon fill="white" stroke="none" points="-4,4 -4,-205 600,-205 600,4 -4,4"/>
<!-- Node1 -->
<g id="node1" class="node"><title>Node1</title>
<polygon fill="#bfbfbf" stroke="black" points="0.5,-49 0.5,-79 163.5,-79 163.5,-49 0.5,-49"/>
<text text-anchor="start" x="8.5" y="-67" font-family="Helvetica,sans-Serif" font-size="10.00">simulationObjects.PatchBody</text>
<text text-anchor="middle" x="82" y="-56" font-family="Helvetica,sans-Serif" font-size="10.00">Rectangle.PatchBodyRectangle</text>
</g>
<!-- Node2 -->
<g id="node2" class="node"><title>Node2</title>
<g id="a_node2"><a xlink:href="../../d9/d93/classsimulation_objects_1_1_patch_body_rectangle.html#a9eadab113da9b80f951bf333791d1ff3" target="_top" xlink:title="simulationObjects.PatchBody\lRectangle.buildBody">
<polygon fill="white" stroke="black" points="208.5,-98 208.5,-128 363.5,-128 363.5,-98 208.5,-98"/>
<text text-anchor="start" x="216.5" y="-116" font-family="Helvetica,sans-Serif" font-size="10.00">simulationObjects.PatchBody</text>
<text text-anchor="middle" x="286" y="-105" font-family="Helvetica,sans-Serif" font-size="10.00">Rectangle.buildBody</text>
</a>
</g>
</g>
<!-- Node1&#45;&gt;Node2 -->
<g id="edge1" class="edge"><title>Node1&#45;&gt;Node2</title>
<path fill="none" stroke="midnightblue" d="M144.979,-79.0346C166.599,-84.2789 191.037,-90.2069 213.375,-95.6255"/>
<polygon fill="midnightblue" stroke="midnightblue" points="212.594,-99.0377 223.138,-97.9938 214.245,-92.235 212.594,-99.0377"/>
</g>
<!-- Node7 -->
<g id="node7" class="node"><title>Node7</title>
<g id="a_node7"><a xlink:href="../../d0/d1a/classsimulation_objects_1_1_patch_body.html#a5cc298524a3d85e5d6e9607d1b04f708" target="_top" xlink:title="simulationObjects.PatchBody.set\lPatchHeight">
<polygon fill="white" stroke="black" points="200,-49 200,-79 372,-79 372,-49 200,-49"/>
<text text-anchor="start" x="208" y="-67" font-family="Helvetica,sans-Serif" font-size="10.00">simulationObjects.PatchBody.set</text>
<text text-anchor="middle" x="286" y="-56" font-family="Helvetica,sans-Serif" font-size="10.00">PatchHeight</text>
</a>
</g>
</g>
<!-- Node1&#45;&gt;Node7 -->
<g id="edge6" class="edge"><title>Node1&#45;&gt;Node7</title>
<path fill="none" stroke="midnightblue" d="M163.707,-64C172.237,-64 180.969,-64 189.645,-64"/>
<polygon fill="midnightblue" stroke="midnightblue" points="189.789,-67.5001 199.789,-64 189.789,-60.5001 189.789,-67.5001"/>
</g>
<!-- Node8 -->
<g id="node8" class="node"><title>Node8</title>
<g id="a_node8"><a xlink:href="../../d0/d1a/classsimulation_objects_1_1_patch_body.html#a3fbd0cb76950803bc4c07f3580569be4" target="_top" xlink:title="simulationObjects.PatchBody.set\lPatchWidth">
<polygon fill="white" stroke="black" points="200,-0 200,-30 372,-30 372,-0 200,-0"/>
<text text-anchor="start" x="208" y="-18" font-family="Helvetica,sans-Serif" font-size="10.00">simulationObjects.PatchBody.set</text>
<text text-anchor="middle" x="286" y="-7" font-family="Helvetica,sans-Serif" font-size="10.00">PatchWidth</text>
</a>
</g>
</g>
<!-- Node1&#45;&gt;Node8 -->
<g id="edge7" class="edge"><title>Node1&#45;&gt;Node8</title>
<path fill="none" stroke="midnightblue" d="M144.979,-48.9654C166.599,-43.7211 191.037,-37.7931 213.375,-32.3745"/>
<polygon fill="midnightblue" stroke="midnightblue" points="214.245,-35.765 223.138,-30.0062 212.594,-28.9623 214.245,-35.765"/>
</g>
<!-- Node3 -->
<g id="node3" class="node"><title>Node3</title>
<g id="a_node3"><a xlink:href="../../d0/d1a/classsimulation_objects_1_1_patch_body.html#a466dadbe30fb2f8360163881e0db9295" target="_top" xlink:title="simulationObjects.PatchBody.get\lPatchWidth">
<polygon fill="white" stroke="black" points="415.5,-171 415.5,-201 588.5,-201 588.5,-171 415.5,-171"/>
<text text-anchor="start" x="423.5" y="-189" font-family="Helvetica,sans-Serif" font-size="10.00">simulationObjects.PatchBody.get</text>
<text text-anchor="middle" x="502" y="-178" font-family="Helvetica,sans-Serif" font-size="10.00">PatchWidth</text>
</a>
</g>
</g>
<!-- Node2&#45;&gt;Node3 -->
<g id="edge2" class="edge"><title>Node2&#45;&gt;Node3</title>
<path fill="none" stroke="midnightblue" d="M321.817,-128.047C345.787,-138.1 378.504,-151.221 408,-161 415.364,-163.442 423.115,-165.819 430.87,-168.077"/>
<polygon fill="midnightblue" stroke="midnightblue" points="430.089,-171.493 440.666,-170.867 432.007,-164.761 430.089,-171.493"/>
</g>
<!-- Node4 -->
<g id="node4" class="node"><title>Node4</title>
<g id="a_node4"><a xlink:href="../../d0/d1a/classsimulation_objects_1_1_patch_body.html#a268e88a7cb1f5feb98f49e230475c2ba" target="_top" xlink:title="simulationObjects.PatchBody.get\lPatchHeight">
<polygon fill="white" stroke="black" points="415.5,-122 415.5,-152 588.5,-152 588.5,-122 415.5,-122"/>
<text text-anchor="start" x="423.5" y="-140" font-family="Helvetica,sans-Serif" font-size="10.00">simulationObjects.PatchBody.get</text>
<text text-anchor="middle" x="502" y="-129" font-family="Helvetica,sans-Serif" font-size="10.00">PatchHeight</text>
</a>
</g>
</g>
<!-- Node2&#45;&gt;Node4 -->
<g id="edge3" class="edge"><title>Node2&#45;&gt;Node4</title>
<path fill="none" stroke="midnightblue" d="M363.654,-121.597C377.166,-123.112 391.38,-124.706 405.335,-126.271"/>
<polygon fill="midnightblue" stroke="midnightblue" points="405.109,-129.768 415.436,-127.404 405.889,-122.811 405.109,-129.768"/>
</g>
<!-- Node5 -->
<g id="node5" class="node"><title>Node5</title>
<g id="a_node5"><a xlink:href="../../d0/d1a/classsimulation_objects_1_1_patch_body.html#a9760016e89cb49e2037203dd2a7eed58" target="_top" xlink:title="simulationObjects.PatchBody.create\lPolyFromPoints">
<polygon fill="white" stroke="black" points="408,-73 408,-103 596,-103 596,-73 408,-73"/>
<text text-anchor="start" x="416" y="-91" font-family="Helvetica,sans-Serif" font-size="10.00">simulationObjects.PatchBody.create</text>
<text text-anchor="middle" x="502" y="-80" font-family="Helvetica,sans-Serif" font-size="10.00">PolyFromPoints</text>
</a>
</g>
</g>
<!-- Node2&#45;&gt;Node5 -->
<g id="edge4" class="edge"><title>Node2&#45;&gt;Node5</title>
<path fill="none" stroke="midnightblue" d="M363.654,-104.045C374.693,-102.756 386.201,-101.411 397.653,-100.073"/>
<polygon fill="midnightblue" stroke="midnightblue" points="398.163,-103.538 407.69,-98.9007 397.351,-96.5848 398.163,-103.538"/>
</g>
<!-- Node6 -->
<g id="node6" class="node"><title>Node6</title>
<g id="a_node6"><a xlink:href="../../d0/d1a/classsimulation_objects_1_1_patch_body.html#a699dd283d067ce6da4bc19a2ae81a365" target="_top" xlink:title="simulationObjects.PatchBody.set\lCenter">
<polygon fill="white" stroke="black" points="416,-24 416,-54 588,-54 588,-24 416,-24"/>
<text text-anchor="start" x="424" y="-42" font-family="Helvetica,sans-Serif" font-size="10.00">simulationObjects.PatchBody.set</text>
<text text-anchor="middle" x="502" y="-31" font-family="Helvetica,sans-Serif" font-size="10.00">Center</text>
</a>
</g>
</g>
<!-- Node2&#45;&gt;Node6 -->
<g id="edge5" class="edge"><title>Node2&#45;&gt;Node6</title>
<path fill="none" stroke="midnightblue" d="M346.834,-97.8934C355.436,-95.0087 364.056,-91.7109 372,-88 389.422,-79.8611 390.484,-71.9341 408,-64 413.366,-61.5694 419.017,-59.3344 424.772,-57.287"/>
<polygon fill="midnightblue" stroke="midnightblue" points="426.156,-60.5145 434.525,-54.0173 423.931,-53.8776 426.156,-60.5145"/>
</g>
</g>
</svg>
