<?xml version="1.0" encoding="UTF-8" standalone="no"?>
<!DOCTYPE svg PUBLIC "-//W3C//DTD SVG 1.1//EN"
 "http://www.w3.org/Graphics/SVG/1.1/DTD/svg11.dtd">
<!-- Generated by graphviz version 2.36.0 (20140111.2315)
 -->
<!-- Title: controller.UserInterface Pages: 1 -->
<!--zoomable 898 -->
<svg id="main" version="1.1" xmlns="http://www.w3.org/2000/svg" xmlns:xlink="http://www.w3.org/1999/xlink" xml:space="preserve" onload="init(evt)">
<style type="text/css"><![CDATA[
.edge:hover path { stroke: red; }
.edge:hover polygon { stroke: red; fill: red; }
]]></style>
<script type="text/javascript"><![CDATA[
var edges = document.getElementsByTagName('g');
if (edges && edges.length) {
  for (var i=0;i<edges.length;i++) {
    if (edges[i].id.substr(0,4)=='edge') {
      edges[i].setAttribute('class','edge');
    }
  }
}
]]></script>
        <defs>
                <circle id="rim" cx="0" cy="0" r="7"/>
                <circle id="rim2" cx="0" cy="0" r="3.5"/>
                <g id="zoomPlus">
                        <use xlink:href="#rim" fill="#404040">
                                <set attributeName="fill" to="#808080" begin="zoomplus.mouseover" end="zoomplus.mouseout"/>
                        </use>
                        <path d="M-4,0h8M0,-4v8" fill="none" stroke="white" stroke-width="1.5" pointer-events="none"/>
                </g>
                <g id="zoomMin">
                        <use xlink:href="#rim" fill="#404040">
                                <set attributeName="fill" to="#808080" begin="zoomminus.mouseover" end="zoomminus.mouseout"/>
                        </use>
                        <path d="M-4,0h8" fill="none" stroke="white" stroke-width="1.5" pointer-events="none"/>
                </g>
                <g id="dirArrow">
                        <path fill="none" stroke="white" stroke-width="1.5" d="M0,-3.0v7 M-2.5,-0.5L0,-3.0L2.5,-0.5"/>
                </g>
               <g id="resetDef">
                       <use xlink:href="#rim2" fill="#404040">
                               <set attributeName="fill" to="#808080" begin="reset.mouseover" end="reset.mouseout"/>
                       </use>
               </g>
        </defs>

<script type="text/javascript">
var viewWidth = 1456;
var viewHeight = 898;
var sectionId = 'dynsection-0';
</script>
<script xlink:href="../../svgpan.js"/>
<svg id="graph" class="graph">
<g id="viewport">
<title>controller.UserInterface</title>
<polygon fill="white" stroke="none" points="-4,4 -4,-894 1452,-894 1452,4 -4,4"/>
<!-- Node1 -->
<g id="node1" class="node"><title>Node1</title>
<polygon fill="#bfbfbf" stroke="black" points="1045,-236.5 1045,-255.5 1173,-255.5 1173,-236.5 1045,-236.5"/>
<text text-anchor="middle" x="1109" y="-243.5" font-family="Helvetica,sans-Serif" font-size="10.00">controller.UserInterface</text>
</g>
<!-- Node26 -->
<g id="node26" class="node"><title>Node26</title>
<g id="a_node26"><a xlink:href="../../db/d32/classcontroller_1_1_main_controller.html" target="_top" xlink:title="controller.MainController">
<polygon fill="white" stroke="black" points="1314.5,-169.5 1314.5,-188.5 1447.5,-188.5 1447.5,-169.5 1314.5,-169.5"/>
<text text-anchor="middle" x="1381" y="-176.5" font-family="Helvetica,sans-Serif" font-size="10.00">controller.MainController</text>
</a>
</g>
</g>
<!-- Node1&#45;&gt;Node26 -->
<g id="edge43" class="edge"><title>Node1&#45;&gt;Node26</title>
<path fill="none" stroke="#9a32cd" stroke-dasharray="5,2" d="M1143.01,-232.728C1161.82,-225.541 1185.97,-216.943 1208,-211 1243.04,-201.547 1282.85,-193.946 1315.34,-188.529"/>
<polygon fill="#9a32cd" stroke="#9a32cd" points="1141.49,-229.565 1133.43,-236.442 1144.02,-236.091 1141.49,-229.565"/>
<text text-anchor="middle" x="1252" y="-214" font-family="Helvetica,sans-Serif" font-size="10.00"> myUserInterface</text>
</g>
<!-- Node2 -->
<g id="node2" class="node"><title>Node2</title>
<g id="a_node2"><a xlink:href="../../de/d4d/classcontroller_1_1_simulation_chart.html" target="_top" xlink:title="controller.SimulationChart">
<polygon fill="white" stroke="black" points="782.5,-162.5 782.5,-181.5 923.5,-181.5 923.5,-162.5 782.5,-162.5"/>
<text text-anchor="middle" x="853" y="-169.5" font-family="Helvetica,sans-Serif" font-size="10.00">controller.SimulationChart</text>
</a>
</g>
</g>
<!-- Node2&#45;&gt;Node1 -->
<g id="edge1" class="edge"><title>Node2&#45;&gt;Node1</title>
<path fill="none" stroke="#9a32cd" stroke-dasharray="5,2" d="M884.663,-185.49C901.393,-192.52 922.595,-200.898 942,-207 980.69,-219.166 1025.51,-229.48 1058.82,-236.44"/>
<polygon fill="#9a32cd" stroke="#9a32cd" points="885.949,-182.234 875.377,-181.535 883.205,-188.674 885.949,-182.234"/>
<text text-anchor="middle" x="976" y="-229" font-family="Helvetica,sans-Serif" font-size="10.00"> myChart</text>
</g>
<!-- Node2&#45;&gt;Node26 -->
<g id="edge37" class="edge"><title>Node2&#45;&gt;Node26</title>
<path fill="none" stroke="#9a32cd" stroke-dasharray="5,2" d="M933.709,-173.061C1037.72,-174.445 1217.79,-176.841 1314.35,-178.126"/>
<polygon fill="#9a32cd" stroke="#9a32cd" points="933.623,-169.559 923.577,-172.926 933.53,-176.559 933.623,-169.559"/>
<text text-anchor="middle" x="1109" y="-180" font-family="Helvetica,sans-Serif" font-size="10.00"> myChart</text>
</g>
<!-- Node3 -->
<g id="node3" class="node"><title>Node3</title>
<polygon fill="white" stroke="#bfbfbf" points="311,-289.5 311,-308.5 351,-308.5 351,-289.5 311,-289.5"/>
<text text-anchor="middle" x="331" y="-296.5" font-family="Helvetica,sans-Serif" font-size="10.00">Pane</text>
</g>
<!-- Node3&#45;&gt;Node1 -->
<g id="edge45" class="edge"><title>Node3&#45;&gt;Node1</title>
<path fill="none" stroke="#9a32cd" stroke-dasharray="5,2" d="M361.473,-299.104C456.099,-299.099 760.584,-296.461 1010,-265 1028.23,-262.701 1048.16,-259.048 1065.26,-255.557"/>
<polygon fill="#9a32cd" stroke="#9a32cd" points="361.24,-295.603 351.237,-299.093 361.233,-302.603 361.24,-295.603"/>
<text text-anchor="middle" x="728" y="-294" font-family="Helvetica,sans-Serif" font-size="10.00"> myRootPane</text>
</g>
<!-- Node3&#45;&gt;Node2 -->
<g id="edge2" class="edge"><title>Node3&#45;&gt;Node2</title>
<path fill="none" stroke="midnightblue" d="M340.442,-280.128C362.109,-234.353 424.623,-117.96 518,-74 617.429,-27.1905 666.61,-48.0842 764,-99 796.72,-116.106 828.348,-146.891 843.199,-162.448"/>
<polygon fill="midnightblue" stroke="midnightblue" points="337.142,-278.926 336.127,-289.472 343.497,-281.861 337.142,-278.926"/>
</g>
<!-- Node8 -->
<g id="node8" class="node"><title>Node8</title>
<g id="a_node8"><a xlink:href="../../d7/d97/classcontroller_1_1_grid.html" target="_top" xlink:title="controller.Grid">
<polygon fill="white" stroke="black" points="554.5,-383.5 554.5,-402.5 637.5,-402.5 637.5,-383.5 554.5,-383.5"/>
<text text-anchor="middle" x="596" y="-390.5" font-family="Helvetica,sans-Serif" font-size="10.00">controller.Grid</text>
</a>
</g>
</g>
<!-- Node3&#45;&gt;Node8 -->
<g id="edge8" class="edge"><title>Node3&#45;&gt;Node8</title>
<path fill="none" stroke="midnightblue" d="M360.838,-309.307C412.175,-327.656 518.677,-365.721 568.378,-383.485"/>
<polygon fill="midnightblue" stroke="midnightblue" points="361.934,-305.982 351.339,-305.912 359.578,-312.574 361.934,-305.982"/>
</g>
<!-- Node4 -->
<g id="node4" class="node"><title>Node4</title>
<g id="a_node4"><a xlink:href="../../de/d7a/classcontroller_1_1_grid_info.html" target="_top" xlink:title="controller.GridInfo">
<polygon fill="white" stroke="black" points="280.5,-574.5 280.5,-593.5 381.5,-593.5 381.5,-574.5 280.5,-574.5"/>
<text text-anchor="middle" x="331" y="-581.5" font-family="Helvetica,sans-Serif" font-size="10.00">controller.GridInfo</text>
</a>
</g>
</g>
<!-- Node4&#45;&gt;Node2 -->
<g id="edge3" class="edge"><title>Node4&#45;&gt;Node2</title>
<path fill="none" stroke="#9a32cd" stroke-dasharray="5,2" d="M350.751,-567.309C368.644,-550.343 395.028,-522.432 410,-493 425.739,-462.061 407.993,-445.366 428,-417 430.518,-413.43 688.175,-248.11 692,-246 739.167,-219.988 797.104,-194.766 828.709,-181.542"/>
<polygon fill="#9a32cd" stroke="#9a32cd" points="348.159,-564.939 343.199,-574.301 352.915,-570.076 348.159,-564.939"/>
<text text-anchor="middle" x="596" y="-359" font-family="Helvetica,sans-Serif" font-size="10.00"> infoSheet</text>
</g>
<!-- Node4&#45;&gt;Node8 -->
<g id="edge9" class="edge"><title>Node4&#45;&gt;Node8</title>
<path fill="none" stroke="#9a32cd" stroke-dasharray="5,2" d="M353.678,-568.257C406.189,-530.121 539.013,-433.66 581.623,-402.715"/>
<polygon fill="#9a32cd" stroke="#9a32cd" points="351.438,-565.557 345.404,-574.266 355.552,-571.221 351.438,-565.557"/>
<text text-anchor="middle" x="464" y="-515" font-family="Helvetica,sans-Serif" font-size="10.00"> infoSheet</text>
</g>
<!-- Node9 -->
<g id="node9" class="node"><title>Node9</title>
<g id="a_node9"><a xlink:href="../../d5/da5/classsimulation_objects_1_1_patch.html" target="_top" xlink:title="simulationObjects.Patch">
<polygon fill="white" stroke="black" points="787.5,-659.5 787.5,-678.5 918.5,-678.5 918.5,-659.5 787.5,-659.5"/>
<text text-anchor="middle" x="853" y="-666.5" font-family="Helvetica,sans-Serif" font-size="10.00">simulationObjects.Patch</text>
</a>
</g>
</g>
<!-- Node4&#45;&gt;Node9 -->
<g id="edge12" class="edge"><title>Node4&#45;&gt;Node9</title>
<path fill="none" stroke="#9a32cd" stroke-dasharray="5,2" d="M391.711,-593.463C459.983,-604.316 575.087,-622.711 674,-639 714.817,-645.722 760.866,-653.488 795.9,-659.434"/>
<polygon fill="#9a32cd" stroke="#9a32cd" points="392.001,-589.966 381.576,-591.853 390.903,-596.879 392.001,-589.966"/>
<text text-anchor="middle" x="596" y="-642" font-family="Helvetica,sans-Serif" font-size="10.00"> infoSheet</text>
</g>
<!-- Node11 -->
<g id="node11" class="node"><title>Node11</title>
<g id="a_node11"><a xlink:href="../../d2/d6e/classsimulation_objects_1_1_cell.html" target="_top" xlink:title="simulationObjects.Cell">
<polygon fill="white" stroke="black" points="1048,-635.5 1048,-654.5 1170,-654.5 1170,-635.5 1048,-635.5"/>
<text text-anchor="middle" x="1109" y="-642.5" font-family="Helvetica,sans-Serif" font-size="10.00">simulationObjects.Cell</text>
</a>
</g>
</g>
<!-- Node4&#45;&gt;Node11 -->
<g id="edge16" class="edge"><title>Node4&#45;&gt;Node11</title>
<path fill="none" stroke="#9a32cd" stroke-dasharray="5,2" d="M392.07,-588.302C510.382,-596.844 781.904,-616.78 1010,-636 1022.26,-637.033 1035.37,-638.197 1047.89,-639.336"/>
<polygon fill="#9a32cd" stroke="#9a32cd" points="392.008,-584.789 381.782,-587.561 391.504,-591.771 392.008,-584.789"/>
<text text-anchor="middle" x="728" y="-619" font-family="Helvetica,sans-Serif" font-size="10.00"> infoSheet</text>
</g>
<!-- Node16 -->
<g id="node16" class="node"><title>Node16</title>
<g id="a_node16"><a xlink:href="../../d0/d1a/classsimulation_objects_1_1_patch_body.html" target="_top" xlink:title="simulationObjects.PatchBody">
<polygon fill="white" stroke="black" points="518.5,-823.5 518.5,-842.5 673.5,-842.5 673.5,-823.5 518.5,-823.5"/>
<text text-anchor="middle" x="596" y="-830.5" font-family="Helvetica,sans-Serif" font-size="10.00">simulationObjects.PatchBody</text>
</a>
</g>
</g>
<!-- Node4&#45;&gt;Node16 -->
<g id="edge24" class="edge"><title>Node4&#45;&gt;Node16</title>
<path fill="none" stroke="#9a32cd" stroke-dasharray="5,2" d="M345.449,-601.936C384.273,-653.519 495.209,-799.509 518,-814 524.158,-817.916 531.067,-821.024 538.151,-823.492"/>
<polygon fill="#9a32cd" stroke="#9a32cd" points="348.077,-599.606 339.271,-593.715 342.481,-603.811 348.077,-599.606"/>
<text text-anchor="middle" x="464" y="-800" font-family="Helvetica,sans-Serif" font-size="10.00"> infoSheet</text>
</g>
<!-- Node4&#45;&gt;Node26 -->
<g id="edge38" class="edge"><title>Node4&#45;&gt;Node26</title>
<path fill="none" stroke="#9a32cd" stroke-dasharray="5,2" d="M391.932,-576.335C460.405,-567.243 575.691,-550.913 674,-532 965.927,-475.838 1059.82,-466.543 1296,-286 1333.15,-257.601 1363.08,-209.124 1374.74,-188.615"/>
<polygon fill="#9a32cd" stroke="#9a32cd" points="391.222,-572.899 381.766,-577.678 392.138,-579.838 391.222,-572.899"/>
<text text-anchor="middle" x="853" y="-515" font-family="Helvetica,sans-Serif" font-size="10.00"> myInfoSheet</text>
</g>
<!-- Node5 -->
<g id="node5" class="node"><title>Node5</title>
<polygon fill="white" stroke="#bfbfbf" points="0.5,-593.5 0.5,-612.5 143.5,-612.5 143.5,-593.5 0.5,-593.5"/>
<text text-anchor="middle" x="72" y="-600.5" font-family="Helvetica,sans-Serif" font-size="10.00">HashMap&lt; String, Color &gt;</text>
</g>
<!-- Node5&#45;&gt;Node4 -->
<g id="edge4" class="edge"><title>Node5&#45;&gt;Node4</title>
<path fill="none" stroke="#9a32cd" stroke-dasharray="5,2" d="M153.664,-597.037C195.174,-593.968 244.454,-590.324 280.35,-587.671"/>
<polygon fill="#9a32cd" stroke="#9a32cd" points="153.281,-593.555 143.566,-597.783 153.797,-600.536 153.281,-593.555"/>
<text text-anchor="middle" x="198" y="-600" font-family="Helvetica,sans-Serif" font-size="10.00"> stateColors</text>
</g>
<!-- Node6 -->
<g id="node6" class="node"><title>Node6</title>
<polygon fill="white" stroke="#bfbfbf" points="30,-555.5 30,-574.5 114,-574.5 114,-555.5 30,-555.5"/>
<text text-anchor="middle" x="72" y="-562.5" font-family="Helvetica,sans-Serif" font-size="10.00">List&lt; String &gt;</text>
</g>
<!-- Node6&#45;&gt;Node4 -->
<g id="edge5" class="edge"><title>Node6&#45;&gt;Node4</title>
<path fill="none" stroke="#9a32cd" stroke-dasharray="5,2" d="M124.219,-568.787C169.597,-572.141 235.432,-577.009 280.335,-580.328"/>
<polygon fill="#9a32cd" stroke="#9a32cd" points="124.237,-565.279 114.007,-568.032 123.721,-572.259 124.237,-565.279"/>
<text text-anchor="middle" x="198" y="-580" font-family="Helvetica,sans-Serif" font-size="10.00"> myStateTypes</text>
</g>
<!-- Node7 -->
<g id="node7" class="node"><title>Node7</title>
<polygon fill="white" stroke="#bfbfbf" points="27.5,-748.5 27.5,-767.5 116.5,-767.5 116.5,-748.5 27.5,-748.5"/>
<text text-anchor="middle" x="72" y="-755.5" font-family="Helvetica,sans-Serif" font-size="10.00">List&lt; Integer &gt;</text>
</g>
<!-- Node7&#45;&gt;Node4 -->
<g id="edge6" class="edge"><title>Node7&#45;&gt;Node4</title>
<path fill="none" stroke="#9a32cd" stroke-dasharray="5,2" d="M95.6885,-742.639C147.546,-707.529 273.53,-622.232 315.86,-593.573"/>
<polygon fill="#9a32cd" stroke="#9a32cd" points="93.5019,-739.893 87.1835,-748.397 97.4264,-745.689 93.5019,-739.893"/>
<text text-anchor="middle" x="198" y="-700" font-family="Helvetica,sans-Serif" font-size="10.00"> paramList</text>
</g>
<!-- Node7&#45;&gt;Node11 -->
<g id="edge17" class="edge"><title>Node7&#45;&gt;Node11</title>
<path fill="none" stroke="#9a32cd" stroke-dasharray="5,2" d="M92.1865,-774.324C133.041,-807.355 232.853,-879 330,-879 330,-879 330,-879 854,-879 988.606,-879 1082.46,-699.043 1103.52,-654.757"/>
<polygon fill="#9a32cd" stroke="#9a32cd" points="94.3304,-771.556 84.3856,-767.902 89.8811,-776.96 94.3304,-771.556"/>
<text text-anchor="middle" x="596" y="-882" font-family="Helvetica,sans-Serif" font-size="10.00"> myParamList</text>
</g>
<!-- Node8&#45;&gt;Node1 -->
<g id="edge47" class="edge"><title>Node8&#45;&gt;Node1</title>
<path fill="none" stroke="#9a32cd" stroke-dasharray="5,2" d="M622.952,-378.475C641.61,-368.664 667.666,-356.227 692,-349 828.894,-308.343 875.145,-349.981 1010,-303 1042.9,-291.539 1077.15,-268.678 1095.16,-255.66"/>
<polygon fill="#9a32cd" stroke="#9a32cd" points="621.073,-375.511 613.918,-383.325 624.384,-381.679 621.073,-375.511"/>
<text text-anchor="middle" x="853" y="-335" font-family="Helvetica,sans-Serif" font-size="10.00"> myGrid</text>
</g>
<!-- Node8&#45;&gt;Node2 -->
<g id="edge7" class="edge"><title>Node8&#45;&gt;Node2</title>
<path fill="none" stroke="#9a32cd" stroke-dasharray="5,2" d="M606.067,-374.445C620.491,-346.819 651.251,-295.022 692,-266 719.363,-246.512 734.424,-258.929 764,-243 780.505,-234.11 821.367,-198.963 841.053,-181.688"/>
<polygon fill="#9a32cd" stroke="#9a32cd" points="602.905,-372.941 601.503,-383.442 609.148,-376.107 602.905,-372.941"/>
<text text-anchor="middle" x="728" y="-269" font-family="Helvetica,sans-Serif" font-size="10.00"> grid</text>
</g>
<!-- Node8&#45;&gt;Node9 -->
<g id="edge18" class="edge"><title>Node8&#45;&gt;Node9</title>
<path fill="none" stroke="#9a32cd" stroke-dasharray="5,2" d="M613.029,-409.98C630.8,-427.916 661.064,-455.916 692,-473 721.407,-489.239 741.785,-470.801 764,-496 792.996,-528.891 762.381,-553.787 782,-593 796.046,-621.074 823.6,-646.281 839.63,-659.421"/>
<polygon fill="#9a32cd" stroke="#9a32cd" points="615.263,-407.257 605.785,-402.523 610.242,-412.134 615.263,-407.257"/>
<text text-anchor="middle" x="728" y="-499" font-family="Helvetica,sans-Serif" font-size="10.00"> grid</text>
</g>
<!-- Node21 -->
<g id="node21" class="node"><title>Node21</title>
<g id="a_node21"><a xlink:href="../../dd/d38/classcontroller_1_1_grid_edge_rules.html" target="_top" xlink:title="controller.GridEdgeRules">
<polygon fill="white" stroke="black" points="787,-410.5 787,-429.5 919,-429.5 919,-410.5 787,-410.5"/>
<text text-anchor="middle" x="853" y="-417.5" font-family="Helvetica,sans-Serif" font-size="10.00">controller.GridEdgeRules</text>
</a>
</g>
</g>
<!-- Node8&#45;&gt;Node21 -->
<g id="edge29" class="edge"><title>Node8&#45;&gt;Node21</title>
<path fill="none" stroke="#9a32cd" stroke-dasharray="5,2" d="M647.792,-399.722C662.081,-401.53 677.639,-403.42 692,-405 723.199,-408.432 757.876,-411.744 786.949,-414.379"/>
<polygon fill="#9a32cd" stroke="#9a32cd" points="648.011,-396.222 637.648,-398.426 647.124,-403.166 648.011,-396.222"/>
<text text-anchor="middle" x="728" y="-416" font-family="Helvetica,sans-Serif" font-size="10.00"> grid</text>
</g>
<!-- Node8&#45;&gt;Node26 -->
<g id="edge41" class="edge"><title>Node8&#45;&gt;Node26</title>
<path fill="none" stroke="#9a32cd" stroke-dasharray="5,2" d="M647.962,-386.948C789.104,-369.573 1182.16,-316.866 1296,-256 1328.8,-238.464 1358.73,-205.157 1372.31,-188.7"/>
<polygon fill="#9a32cd" stroke="#9a32cd" points="647.349,-383.496 637.848,-388.185 648.199,-390.445 647.349,-383.496"/>
<text text-anchor="middle" x="976" y="-348" font-family="Helvetica,sans-Serif" font-size="10.00"> myGrid</text>
</g>
<!-- Node9&#45;&gt;Node8 -->
<g id="edge10" class="edge"><title>Node9&#45;&gt;Node8</title>
<path fill="none" stroke="#9a32cd" stroke-dasharray="5,2" d="M831.236,-652.705C814.996,-638.714 793.332,-617.043 782,-593 756.945,-539.839 799.929,-508.508 764,-462 759.385,-456.026 667.283,-420.022 621.876,-402.527"/>
<polygon fill="#9a32cd" stroke="#9a32cd" points="829.226,-655.585 839.151,-659.293 833.704,-650.205 829.226,-655.585"/>
<text text-anchor="middle" x="728" y="-465" font-family="Helvetica,sans-Serif" font-size="10.00"> gridArray</text>
</g>
<!-- Node9&#45;&gt;Node11 -->
<g id="edge15" class="edge"><title>Node9&#45;&gt;Node11</title>
<path fill="none" stroke="#9a32cd" stroke-dasharray="5,2" d="M890.369,-656.222C906.042,-651.358 924.709,-646.408 942,-644 976.824,-639.149 1016.16,-639.149 1047.79,-640.478"/>
<polygon fill="#9a32cd" stroke="#9a32cd" points="888.996,-652.987 880.547,-659.379 891.138,-659.651 888.996,-652.987"/>
<text text-anchor="middle" x="976" y="-647" font-family="Helvetica,sans-Serif" font-size="10.00"> myPatch</text>
</g>
<!-- Node10 -->
<g id="node10" class="node"><title>Node10</title>
<polygon fill="white" stroke="#bfbfbf" points="573,-785.5 573,-804.5 619,-804.5 619,-785.5 573,-785.5"/>
<text text-anchor="middle" x="596" y="-792.5" font-family="Helvetica,sans-Serif" font-size="10.00">Group</text>
</g>
<!-- Node10&#45;&gt;Node9 -->
<g id="edge11" class="edge"><title>Node10&#45;&gt;Node9</title>
<path fill="none" stroke="midnightblue" d="M629.251,-790.657C664.259,-784.898 720.923,-772.469 764,-748 797.561,-728.936 829.289,-695.267 843.776,-678.725"/>
<polygon fill="midnightblue" stroke="midnightblue" points="628.463,-787.237 619.121,-792.236 629.541,-794.154 628.463,-787.237"/>
</g>
<!-- Node11&#45;&gt;Node9 -->
<g id="edge13" class="edge"><title>Node11&#45;&gt;Node9</title>
<path fill="none" stroke="#9a32cd" stroke-dasharray="5,2" d="M1037.85,-653.979C1028.49,-655.062 1019.02,-656.101 1010,-657 979.997,-659.989 946.684,-662.642 918.572,-664.689"/>
<polygon fill="#9a32cd" stroke="#9a32cd" points="1038.41,-657.437 1047.93,-652.79 1037.59,-650.485 1038.41,-657.437"/>
<text text-anchor="middle" x="976" y="-666" font-family="Helvetica,sans-Serif" font-size="10.00"> myCell</text>
</g>
<!-- Node12 -->
<g id="node12" class="node"><title>Node12</title>
<polygon fill="white" stroke="#bfbfbf" points="821.5,-564.5 821.5,-583.5 884.5,-583.5 884.5,-564.5 821.5,-564.5"/>
<text text-anchor="middle" x="853" y="-571.5" font-family="Helvetica,sans-Serif" font-size="10.00">Rectangle</text>
</g>
<!-- Node12&#45;&gt;Node11 -->
<g id="edge14" class="edge"><title>Node12&#45;&gt;Node11</title>
<path fill="none" stroke="midnightblue" d="M895.078,-576.996C926.974,-580.112 972.015,-586.253 1010,-598 1040.29,-607.366 1073.03,-624.68 1091.96,-635.477"/>
<polygon fill="midnightblue" stroke="midnightblue" points="895.073,-573.481 884.795,-576.052 894.433,-580.452 895.073,-573.481"/>
</g>
<!-- Node13 -->
<g id="node13" class="node"><title>Node13</title>
<polygon fill="white" stroke="#bfbfbf" points="562,-747.5 562,-766.5 630,-766.5 630,-747.5 562,-747.5"/>
<text text-anchor="middle" x="596" y="-754.5" font-family="Helvetica,sans-Serif" font-size="10.00">ImageView</text>
</g>
<!-- Node13&#45;&gt;Node9 -->
<g id="edge19" class="edge"><title>Node13&#45;&gt;Node9</title>
<path fill="none" stroke="#9a32cd" stroke-dasharray="5,2" d="M639.925,-745.987C651.033,-743.1 662.971,-739.964 674,-737 714.092,-726.226 725.187,-726.731 764,-712 789.436,-702.346 817.452,-687.963 834.887,-678.533"/>
<polygon fill="#9a32cd" stroke="#9a32cd" points="638.808,-742.661 630.006,-748.557 640.564,-749.437 638.808,-742.661"/>
<text text-anchor="middle" x="728" y="-736" font-family="Helvetica,sans-Serif" font-size="10.00"> myView</text>
</g>
<!-- Node14 -->
<g id="node14" class="node"><title>Node14</title>
<g id="a_node14"><a xlink:href="../../df/d37/enumsimulation_objects_1_1_patch_1_1_state.html" target="_top" xlink:title="simulationObjects.Patch.\lState">
<polygon fill="white" stroke="black" points="529,-698 529,-728 663,-728 663,-698 529,-698"/>
<text text-anchor="start" x="537" y="-716" font-family="Helvetica,sans-Serif" font-size="10.00">simulationObjects.Patch.</text>
<text text-anchor="middle" x="596" y="-705" font-family="Helvetica,sans-Serif" font-size="10.00">State</text>
</a>
</g>
</g>
<!-- Node14&#45;&gt;Node9 -->
<g id="edge20" class="edge"><title>Node14&#45;&gt;Node9</title>
<path fill="none" stroke="#9a32cd" stroke-dasharray="5,2" d="M672.916,-699.901C712.647,-693.045 760.415,-684.803 796.622,-678.556"/>
<polygon fill="#9a32cd" stroke="#9a32cd" points="672.26,-696.462 663,-701.612 673.45,-703.36 672.26,-696.462"/>
<text text-anchor="middle" x="728" y="-700" font-family="Helvetica,sans-Serif" font-size="10.00"> myState</text>
</g>
<!-- Node15 -->
<g id="node15" class="node"><title>Node15</title>
<polygon fill="white" stroke="#bfbfbf" points="572.5,-659.5 572.5,-678.5 619.5,-678.5 619.5,-659.5 572.5,-659.5"/>
<text text-anchor="middle" x="596" y="-666.5" font-family="Helvetica,sans-Serif" font-size="10.00">Image</text>
</g>
<!-- Node15&#45;&gt;Node9 -->
<g id="edge21" class="edge"><title>Node15&#45;&gt;Node9</title>
<path fill="none" stroke="#9a32cd" stroke-dasharray="5,2" d="M629.787,-669C669.408,-669 737.005,-669 787.265,-669"/>
<polygon fill="#9a32cd" stroke="#9a32cd" points="629.63,-665.5 619.63,-669 629.63,-672.5 629.63,-665.5"/>
<text text-anchor="middle" x="728" y="-672" font-family="Helvetica,sans-Serif" font-size="10.00"> image</text>
</g>
<!-- Node16&#45;&gt;Node9 -->
<g id="edge22" class="edge"><title>Node16&#45;&gt;Node9</title>
<path fill="none" stroke="#9a32cd" stroke-dasharray="5,2" d="M662.938,-821.008C695.658,-812.665 734.405,-798.969 764,-777 802.452,-748.456 834.066,-699.46 846.417,-678.724"/>
<polygon fill="#9a32cd" stroke="#9a32cd" points="661.882,-817.663 652.993,-823.428 663.538,-824.464 661.882,-817.663"/>
<text text-anchor="middle" x="728" y="-815" font-family="Helvetica,sans-Serif" font-size="10.00"> myBody</text>
</g>
<!-- Node17 -->
<g id="node17" class="node"><title>Node17</title>
<polygon fill="white" stroke="#bfbfbf" points="304,-827.5 304,-846.5 358,-846.5 358,-827.5 304,-827.5"/>
<text text-anchor="middle" x="331" y="-834.5" font-family="Helvetica,sans-Serif" font-size="10.00">Polygon</text>
</g>
<!-- Node17&#45;&gt;Node16 -->
<g id="edge23" class="edge"><title>Node17&#45;&gt;Node16</title>
<path fill="none" stroke="midnightblue" d="M368.408,-836.446C406.988,-835.86 469.039,-834.916 518.46,-834.164"/>
<polygon fill="midnightblue" stroke="midnightblue" points="368.125,-832.95 358.179,-836.602 368.231,-839.949 368.125,-832.95"/>
</g>
<!-- Node18 -->
<g id="node18" class="node"><title>Node18</title>
<polygon fill="white" stroke="#bfbfbf" points="310.5,-789.5 310.5,-808.5 351.5,-808.5 351.5,-789.5 310.5,-789.5"/>
<text text-anchor="middle" x="331" y="-796.5" font-family="Helvetica,sans-Serif" font-size="10.00">Point</text>
</g>
<!-- Node18&#45;&gt;Node16 -->
<g id="edge25" class="edge"><title>Node18&#45;&gt;Node16</title>
<path fill="none" stroke="#9a32cd" stroke-dasharray="5,2" d="M361.735,-802.611C395.322,-806.714 451.61,-813.665 500,-820 508.501,-821.113 517.426,-822.304 526.26,-823.497"/>
<polygon fill="#9a32cd" stroke="#9a32cd" points="362.016,-799.119 351.666,-801.383 361.169,-806.068 362.016,-799.119"/>
<text text-anchor="middle" x="464" y="-823" font-family="Helvetica,sans-Serif" font-size="10.00"> myCenter</text>
</g>
<!-- Node19 -->
<g id="node19" class="node"><title>Node19</title>
<polygon fill="white" stroke="#bfbfbf" points="264.5,-454 264.5,-484 397.5,-484 397.5,-454 264.5,-454"/>
<text text-anchor="start" x="272.5" y="-472" font-family="Helvetica,sans-Serif" font-size="10.00">List&lt; simulationObjects.</text>
<text text-anchor="middle" x="331" y="-461" font-family="Helvetica,sans-Serif" font-size="10.00">Patch &gt;</text>
</g>
<!-- Node19&#45;&gt;Node8 -->
<g id="edge30" class="edge"><title>Node19&#45;&gt;Node8</title>
<path fill="none" stroke="#9a32cd" stroke-dasharray="5,2" d="M390.94,-451.002C403.177,-447.32 415.999,-443.501 428,-440 473.684,-426.672 526.591,-411.893 560.402,-402.53"/>
<polygon fill="#9a32cd" stroke="#9a32cd" points="389.84,-447.678 381.278,-453.918 391.862,-454.38 389.84,-447.678"/>
<text text-anchor="middle" x="464" y="-443" font-family="Helvetica,sans-Serif" font-size="10.00"> emptyPatches</text>
</g>
<!-- Node19&#45;&gt;Node9 -->
<g id="edge26" class="edge"><title>Node19&#45;&gt;Node9</title>
<path fill="none" stroke="#9a32cd" stroke-dasharray="5,2" d="M401.592,-486.52C410.475,-488.721 419.448,-490.926 428,-493 577.083,-529.16 632.942,-492.269 764,-572 774.502,-578.389 773.835,-583.811 782,-593 803.448,-617.137 829.341,-644.904 842.826,-659.264"/>
<polygon fill="#9a32cd" stroke="#9a32cd" points="402.177,-483.059 391.628,-484.045 400.489,-489.853 402.177,-483.059"/>
<text text-anchor="middle" x="596" y="-533" font-family="Helvetica,sans-Serif" font-size="10.00"> myNeighbors</text>
</g>
<!-- Node20 -->
<g id="node20" class="node"><title>Node20</title>
<polygon fill="white" stroke="#bfbfbf" points="252,-347.5 252,-366.5 410,-366.5 410,-347.5 252,-347.5"/>
<text text-anchor="middle" x="331" y="-354.5" font-family="Helvetica,sans-Serif" font-size="10.00">HashMap&lt; Integer, Integer &gt;</text>
</g>
<!-- Node20&#45;&gt;Node8 -->
<g id="edge27" class="edge"><title>Node20&#45;&gt;Node8</title>
<path fill="none" stroke="#9a32cd" stroke-dasharray="5,2" d="M411.626,-367.899C458.71,-374.344 516.361,-382.236 554.303,-387.429"/>
<polygon fill="#9a32cd" stroke="#9a32cd" points="411.826,-364.394 401.444,-366.506 410.877,-371.33 411.826,-364.394"/>
<text text-anchor="middle" x="464" y="-383" font-family="Helvetica,sans-Serif" font-size="10.00"> cellCounts</text>
</g>
<!-- Node21&#45;&gt;Node8 -->
<g id="edge28" class="edge"><title>Node21&#45;&gt;Node8</title>
<path fill="none" stroke="#9a32cd" stroke-dasharray="5,2" d="M816.71,-407.102C800.831,-401.946 781.711,-396.616 764,-394 721.263,-387.688 671.702,-388.385 637.737,-390.07"/>
<polygon fill="#9a32cd" stroke="#9a32cd" points="816.035,-410.568 826.629,-410.436 818.265,-403.933 816.035,-410.568"/>
<text text-anchor="middle" x="728" y="-397" font-family="Helvetica,sans-Serif" font-size="10.00"> myEdgeRules</text>
</g>
<!-- Node22 -->
<g id="node22" class="node"><title>Node22</title>
<polygon fill="white" stroke="#bfbfbf" points="558.5,-121.5 558.5,-140.5 633.5,-140.5 633.5,-121.5 558.5,-121.5"/>
<text text-anchor="middle" x="596" y="-128.5" font-family="Helvetica,sans-Serif" font-size="10.00">NumberAxis</text>
</g>
<!-- Node22&#45;&gt;Node2 -->
<g id="edge31" class="edge"><title>Node22&#45;&gt;Node2</title>
<path fill="none" stroke="#9a32cd" stroke-dasharray="5,2" d="M643.819,-132.248C677.501,-133.794 723.872,-137.255 764,-145 785.34,-149.119 808.842,-156.482 826.186,-162.479"/>
<polygon fill="#9a32cd" stroke="#9a32cd" points="643.933,-128.75 633.795,-131.827 643.639,-135.744 643.933,-128.75"/>
<text text-anchor="middle" x="728" y="-159" font-family="Helvetica,sans-Serif" font-size="10.00"> myXAxis</text>
<text text-anchor="middle" x="728" y="-148" font-family="Helvetica,sans-Serif" font-size="10.00">myYAxis</text>
</g>
<!-- Node23 -->
<g id="node23" class="node"><title>Node23</title>
<polygon fill="white" stroke="#bfbfbf" points="553,-83.5 553,-102.5 639,-102.5 639,-83.5 553,-83.5"/>
<text text-anchor="middle" x="596" y="-90.5" font-family="Helvetica,sans-Serif" font-size="10.00">List&lt; Series &gt;</text>
</g>
<!-- Node23&#45;&gt;Node2 -->
<g id="edge32" class="edge"><title>Node23&#45;&gt;Node2</title>
<path fill="none" stroke="#9a32cd" stroke-dasharray="5,2" d="M649.287,-96.9117C682.837,-100.593 726.903,-107.64 764,-121 792.575,-131.291 822.477,-150.776 839.024,-162.455"/>
<polygon fill="#9a32cd" stroke="#9a32cd" points="649.539,-93.4191 639.232,-95.874 648.82,-100.382 649.539,-93.4191"/>
<text text-anchor="middle" x="728" y="-124" font-family="Helvetica,sans-Serif" font-size="10.00"> myDataPoints</text>
</g>
<!-- Node24 -->
<g id="node24" class="node"><title>Node24</title>
<polygon fill="white" stroke="#bfbfbf" points="565,-198.5 565,-217.5 627,-217.5 627,-198.5 565,-198.5"/>
<text text-anchor="middle" x="596" y="-205.5" font-family="Helvetica,sans-Serif" font-size="10.00">LineChart</text>
</g>
<!-- Node24&#45;&gt;Node2 -->
<g id="edge33" class="edge"><title>Node24&#45;&gt;Node2</title>
<path fill="none" stroke="#9a32cd" stroke-dasharray="5,2" d="M637.047,-202.346C676.545,-196.77 737.651,-188.143 784.631,-181.511"/>
<polygon fill="#9a32cd" stroke="#9a32cd" points="636.414,-198.901 627.002,-203.764 637.393,-205.832 636.414,-198.901"/>
<text text-anchor="middle" x="728" y="-198" font-family="Helvetica,sans-Serif" font-size="10.00"> myLineChart</text>
</g>
<!-- Node25 -->
<g id="node25" class="node"><title>Node25</title>
<polygon fill="white" stroke="#bfbfbf" points="529.5,-160.5 529.5,-179.5 662.5,-179.5 662.5,-160.5 529.5,-160.5"/>
<text text-anchor="middle" x="596" y="-167.5" font-family="Helvetica,sans-Serif" font-size="10.00">Map&lt; Integer, Integer &gt;</text>
</g>
<!-- Node25&#45;&gt;Node2 -->
<g id="edge34" class="edge"><title>Node25&#45;&gt;Node2</title>
<path fill="none" stroke="#9a32cd" stroke-dasharray="5,2" d="M672.737,-170.594C707.386,-170.866 748.177,-171.186 782.088,-171.452"/>
<polygon fill="#9a32cd" stroke="#9a32cd" points="672.696,-167.094 662.669,-170.515 672.641,-174.093 672.696,-167.094"/>
<text text-anchor="middle" x="728" y="-175" font-family="Helvetica,sans-Serif" font-size="10.00"> cellCounts</text>
</g>
<!-- Node26&#45;&gt;Node1 -->
<g id="edge35" class="edge"><title>Node26&#45;&gt;Node1</title>
<path fill="none" stroke="#9a32cd" stroke-dasharray="5,2" d="M1357.36,-194.151C1341.01,-204.316 1318.03,-217.07 1296,-224 1256.3,-236.49 1209.8,-241.99 1173.22,-244.367"/>
<polygon fill="#9a32cd" stroke="#9a32cd" points="1359.62,-196.863 1366.16,-188.529 1355.85,-190.964 1359.62,-196.863"/>
<text text-anchor="middle" x="1252" y="-244" font-family="Helvetica,sans-Serif" font-size="10.00"> myMainController</text>
</g>
<!-- Node27 -->
<g id="node27" class="node"><title>Node27</title>
<polygon fill="white" stroke="#bfbfbf" points="1074.5,-123.5 1074.5,-142.5 1143.5,-142.5 1143.5,-123.5 1074.5,-123.5"/>
<text text-anchor="middle" x="1109" y="-130.5" font-family="Helvetica,sans-Serif" font-size="10.00">Application</text>
</g>
<!-- Node27&#45;&gt;Node26 -->
<g id="edge36" class="edge"><title>Node27&#45;&gt;Node26</title>
<path fill="none" stroke="midnightblue" d="M1153.68,-140.443C1200.05,-148.342 1273.47,-160.851 1324.05,-169.467"/>
<polygon fill="midnightblue" stroke="midnightblue" points="1154.1,-136.962 1143.65,-138.733 1152.92,-143.863 1154.1,-136.962"/>
</g>
<!-- Node28 -->
<g id="node28" class="node"><title>Node28</title>
<polygon fill="white" stroke="#bfbfbf" points="1081,-85.5 1081,-104.5 1137,-104.5 1137,-85.5 1081,-85.5"/>
<text text-anchor="middle" x="1109" y="-92.5" font-family="Helvetica,sans-Serif" font-size="10.00">Timeline</text>
</g>
<!-- Node28&#45;&gt;Node26 -->
<g id="edge39" class="edge"><title>Node28&#45;&gt;Node26</title>
<path fill="none" stroke="#9a32cd" stroke-dasharray="5,2" d="M1147.22,-100.323C1185.34,-106.437 1245.94,-118.007 1296,-136 1320.98,-144.977 1347.98,-159.812 1364.44,-169.496"/>
<polygon fill="#9a32cd" stroke="#9a32cd" points="1147.51,-96.8261 1137.09,-98.7423 1146.44,-103.742 1147.51,-96.8261"/>
<text text-anchor="middle" x="1252" y="-139" font-family="Helvetica,sans-Serif" font-size="10.00"> myAnimation</text>
</g>
<!-- Node29 -->
<g id="node29" class="node"><title>Node29</title>
<polygon fill="white" stroke="#bfbfbf" points="806.5,-71.5 806.5,-90.5 899.5,-90.5 899.5,-71.5 806.5,-71.5"/>
<text text-anchor="middle" x="853" y="-78.5" font-family="Helvetica,sans-Serif" font-size="10.00">ResourceBundle</text>
</g>
<!-- Node29&#45;&gt;Node1 -->
<g id="edge46" class="edge"><title>Node29&#45;&gt;Node1</title>
<path fill="none" stroke="#9a32cd" stroke-dasharray="5,2" d="M877.213,-96.0794C928.608,-129.466 1050.8,-208.845 1093.21,-236.389"/>
<polygon fill="#9a32cd" stroke="#9a32cd" points="879.047,-93.0968 868.754,-90.5843 875.233,-98.967 879.047,-93.0968"/>
<text text-anchor="middle" x="976" y="-182" font-family="Helvetica,sans-Serif" font-size="10.00"> ourMessages</text>
</g>
<!-- Node29&#45;&gt;Node26 -->
<g id="edge40" class="edge"><title>Node29&#45;&gt;Node26</title>
<path fill="none" stroke="#9a32cd" stroke-dasharray="5,2" d="M909.572,-70.1837C976.71,-58.9839 1092.76,-45.6197 1190,-65 1240.02,-74.9701 1252.36,-82.5957 1296,-109 1325.56,-126.884 1355.55,-154.72 1370.41,-169.318"/>
<polygon fill="#9a32cd" stroke="#9a32cd" points="908.894,-66.7488 899.628,-71.8867 910.076,-73.6483 908.894,-66.7488"/>
<text text-anchor="middle" x="1109" y="-68" font-family="Helvetica,sans-Serif" font-size="10.00"> ourProperties</text>
</g>
<!-- Node30 -->
<g id="node30" class="node"><title>Node30</title>
<polygon fill="white" stroke="#bfbfbf" points="1028.5,-0.5 1028.5,-19.5 1189.5,-19.5 1189.5,-0.5 1028.5,-0.5"/>
<text text-anchor="middle" x="1109" y="-7.5" font-family="Helvetica,sans-Serif" font-size="10.00">EventHandler&lt; ActionEvent &gt;</text>
</g>
<!-- Node30&#45;&gt;Node26 -->
<g id="edge42" class="edge"><title>Node30&#45;&gt;Node26</title>
<path fill="none" stroke="#9a32cd" stroke-dasharray="5,2" d="M1199.67,-3.7599C1232.29,-5.51527 1267.98,-12.503 1296,-31 1347.53,-65.0198 1370.91,-142.136 1377.76,-169.306"/>
<polygon fill="#9a32cd" stroke="#9a32cd" points="1199.79,-0.261866 1189.66,-3.37616 1199.52,-7.25673 1199.79,-0.261866"/>
<text text-anchor="middle" x="1252" y="-34" font-family="Helvetica,sans-Serif" font-size="10.00"> oneFrame</text>
</g>
<!-- Node31 -->
<g id="node31" class="node"><title>Node31</title>
<polygon fill="white" stroke="#bfbfbf" points="830.5,-241.5 830.5,-260.5 875.5,-260.5 875.5,-241.5 830.5,-241.5"/>
<text text-anchor="middle" x="853" y="-248.5" font-family="Helvetica,sans-Serif" font-size="10.00">Stage</text>
</g>
<!-- Node31&#45;&gt;Node1 -->
<g id="edge44" class="edge"><title>Node31&#45;&gt;Node1</title>
<path fill="none" stroke="#9a32cd" stroke-dasharray="5,2" d="M885.803,-250.374C925.499,-249.593 994.314,-248.238 1044.87,-247.243"/>
<polygon fill="#9a32cd" stroke="#9a32cd" points="885.585,-246.877 875.656,-250.574 885.723,-253.876 885.585,-246.877"/>
<text text-anchor="middle" x="976" y="-253" font-family="Helvetica,sans-Serif" font-size="10.00"> myStage</text>
</g>
</g>
</svg>
        <g id="navigator" transform="translate(0 0)" fill="#404254">
                <rect fill="#f2f5e9" fill-opacity="0.5" stroke="#606060" stroke-width=".5" x="0" y="0" width="60" height="60"/>
                <use id="zoomplus" xlink:href="#zoomPlus" x="17" y="9" onmousedown="handleZoom(evt,'in')"/>
                <use id="zoomminus" xlink:href="#zoomMin" x="42" y="9" onmousedown="handleZoom(evt,'out')"/>
                <use id="reset" xlink:href="#resetDef" x="30" y="36" onmousedown="handleReset()"/>
                <g id="arrowUp" xlink:href="#dirArrow" transform="translate(30 24)" onmousedown="handlePan(0,-1)">
                  <use xlink:href="#rim" fill="#404040">
                        <set attributeName="fill" to="#808080" begin="arrowUp.mouseover" end="arrowUp.mouseout"/>
                  </use>
                  <path fill="none" stroke="white" stroke-width="1.5" d="M0,-3.0v7 M-2.5,-0.5L0,-3.0L2.5,-0.5"/>
                </g>
                <g id="arrowRight" xlink:href="#dirArrow" transform="rotate(90) translate(36 -43)" onmousedown="handlePan(1,0)">
                  <use xlink:href="#rim" fill="#404040">
                        <set attributeName="fill" to="#808080" begin="arrowRight.mouseover" end="arrowRight.mouseout"/>
                  </use>
                  <path fill="none" stroke="white" stroke-width="1.5" d="M0,-3.0v7 M-2.5,-0.5L0,-3.0L2.5,-0.5"/>
                </g>
                <g id="arrowDown" xlink:href="#dirArrow" transform="rotate(180) translate(-30 -48)" onmousedown="handlePan(0,1)">
                  <use xlink:href="#rim" fill="#404040">
                        <set attributeName="fill" to="#808080" begin="arrowDown.mouseover" end="arrowDown.mouseout"/>
                  </use>
                  <path fill="none" stroke="white" stroke-width="1.5" d="M0,-3.0v7 M-2.5,-0.5L0,-3.0L2.5,-0.5"/>
                </g>
                <g id="arrowLeft" xlink:href="#dirArrow" transform="rotate(270) translate(-36 17)" onmousedown="handlePan(-1,0)">
                  <use xlink:href="#rim" fill="#404040">
                        <set attributeName="fill" to="#808080" begin="arrowLeft.mouseover" end="arrowLeft.mouseout"/>
                  </use>
                  <path fill="none" stroke="white" stroke-width="1.5" d="M0,-3.0v7 M-2.5,-0.5L0,-3.0L2.5,-0.5"/>
                </g>
        </g>
        <svg viewBox="0 0 15 15" width="100%" height="30px" preserveAspectRatio="xMaxYMin meet">
         <g id="arrow_out" transform="scale(0.3 0.3)">
          <a xlink:href="classcontroller_1_1_user_interface__coll__graph_org.svg" target="_base">
           <rect id="button" ry="5" rx="5" y="6" x="6" height="38" width="38"
                fill="#f2f5e9" fill-opacity="0.5" stroke="#606060" stroke-width="1.0"/>
           <path id="arrow"
             d="M 11.500037,31.436501 C 11.940474,20.09759 22.043105,11.32322 32.158766,21.979434 L 37.068811,17.246167 C 37.068811,17.246167 37.088388,32 37.088388,32 L 22.160133,31.978069 C 22.160133,31.978069 26.997745,27.140456 26.997745,27.140456 C 18.528582,18.264221 13.291696,25.230495 11.500037,31.436501 z"
             style="fill:#404040;"/>
          </a>
         </g>
        </svg>
</svg>
