<?xml version="1.0" encoding="UTF-8" standalone="no"?>
<!DOCTYPE svg PUBLIC "-//W3C//DTD SVG 1.1//EN"
 "http://www.w3.org/Graphics/SVG/1.1/DTD/svg11.dtd">
<!-- Generated by graphviz version 2.36.0 (20140111.2315)
 -->
<!-- Title: simulationObjects.LifePatch.countNeighbors Pages: 1 -->
<svg width="634pt" height="38pt"
 viewBox="0.00 0.00 634.00 38.00" xmlns="http://www.w3.org/2000/svg" xmlns:xlink="http://www.w3.org/1999/xlink">
<g id="graph0" class="graph" transform="scale(1 1) rotate(0) translate(4 34)">
<title>simulationObjects.LifePatch.countNeighbors</title>
<polygon fill="white" stroke="none" points="-4,4 -4,-34 630,-34 630,4 -4,4"/>
<!-- Node1 -->
<g id="node1" class="node"><title>Node1</title>
<polygon fill="#bfbfbf" stroke="black" points="0,-0 0,-30 178,-30 178,-0 0,-0"/>
<text text-anchor="start" x="8" y="-18" font-family="Helvetica,sans-Serif" font-size="10.00">simulationObjects.LifePatch.count</text>
<text text-anchor="middle" x="89" y="-7" font-family="Helvetica,sans-Serif" font-size="10.00">Neighbors</text>
</g>
<!-- Node2 -->
<g id="node2" class="node"><title>Node2</title>
<g id="a_node2"><a xlink:href="../../da/db6/classsimulation_objects_1_1_life_patch.html#a3b83c761bbe4cc3795aa4643d74d2fb1" target="_top" xlink:title="simulationObjects.LifePatch.process\lNeighborsAndUpdateState">
<polygon fill="white" stroke="black" points="214,-0 214,-30 402,-30 402,-0 214,-0"/>
<text text-anchor="start" x="222" y="-18" font-family="Helvetica,sans-Serif" font-size="10.00">simulationObjects.LifePatch.process</text>
<text text-anchor="middle" x="308" y="-7" font-family="Helvetica,sans-Serif" font-size="10.00">NeighborsAndUpdateState</text>
</a>
</g>
</g>
<!-- Node1&#45;&gt;Node2 -->
<g id="edge1" class="edge"><title>Node1&#45;&gt;Node2</title>
<path fill="none" stroke="midnightblue" d="M188.506,-15C196.948,-15 205.472,-15 213.871,-15"/>
<polygon fill="midnightblue" stroke="midnightblue" points="188.262,-11.5001 178.262,-15 188.262,-18.5001 188.262,-11.5001"/>
</g>
<!-- Node3 -->
<g id="node3" class="node"><title>Node3</title>
<g id="a_node3"><a xlink:href="../../da/db6/classsimulation_objects_1_1_life_patch.html#acd5197497bd17e2a16199c194e6e33be" target="_top" xlink:title="simulationObjects.LifePatch.prepare\lToUpdate">
<polygon fill="white" stroke="black" points="438,-0 438,-30 626,-30 626,-0 438,-0"/>
<text text-anchor="start" x="446" y="-18" font-family="Helvetica,sans-Serif" font-size="10.00">simulationObjects.LifePatch.prepare</text>
<text text-anchor="middle" x="532" y="-7" font-family="Helvetica,sans-Serif" font-size="10.00">ToUpdate</text>
</a>
</g>
</g>
<!-- Node2&#45;&gt;Node3 -->
<g id="edge2" class="edge"><title>Node2&#45;&gt;Node3</title>
<path fill="none" stroke="midnightblue" d="M412.425,-15C420.857,-15 429.347,-15 437.7,-15"/>
<polygon fill="midnightblue" stroke="midnightblue" points="412.183,-11.5001 402.183,-15 412.183,-18.5001 412.183,-11.5001"/>
</g>
</g>
</svg>
