<?xml version="1.0" encoding="UTF-8" standalone="no"?>
<!DOCTYPE svg PUBLIC "-//W3C//DTD SVG 1.1//EN"
 "http://www.w3.org/Graphics/SVG/1.1/DTD/svg11.dtd">
<!-- Generated by graphviz version 2.36.0 (20140111.2315)
 -->
<!-- Title: simulationObjects.LifePatch.prepareToUpdate Pages: 1 -->
<svg width="634pt" height="87pt"
 viewBox="0.00 0.00 634.00 87.00" xmlns="http://www.w3.org/2000/svg" xmlns:xlink="http://www.w3.org/1999/xlink">
<g id="graph0" class="graph" transform="scale(1 1) rotate(0) translate(4 83)">
<title>simulationObjects.LifePatch.prepareToUpdate</title>
<polygon fill="white" stroke="none" points="-4,4 -4,-83 630,-83 630,4 -4,4"/>
<!-- Node1 -->
<g id="node1" class="node"><title>Node1</title>
<polygon fill="#bfbfbf" stroke="black" points="0,-24 0,-54 188,-54 188,-24 0,-24"/>
<text text-anchor="start" x="8" y="-42" font-family="Helvetica,sans-Serif" font-size="10.00">simulationObjects.LifePatch.prepare</text>
<text text-anchor="middle" x="94" y="-31" font-family="Helvetica,sans-Serif" font-size="10.00">ToUpdate</text>
</g>
<!-- Node2 -->
<g id="node2" class="node"><title>Node2</title>
<g id="a_node2"><a xlink:href="../../da/db6/classsimulation_objects_1_1_life_patch.html#a3b83c761bbe4cc3795aa4643d74d2fb1" target="_top" xlink:title="simulationObjects.LifePatch.process\lNeighborsAndUpdateState">
<polygon fill="white" stroke="black" points="224,-24 224,-54 412,-54 412,-24 224,-24"/>
<text text-anchor="start" x="232" y="-42" font-family="Helvetica,sans-Serif" font-size="10.00">simulationObjects.LifePatch.process</text>
<text text-anchor="middle" x="318" y="-31" font-family="Helvetica,sans-Serif" font-size="10.00">NeighborsAndUpdateState</text>
</a>
</g>
</g>
<!-- Node1&#45;&gt;Node2 -->
<g id="edge1" class="edge"><title>Node1&#45;&gt;Node2</title>
<path fill="none" stroke="midnightblue" d="M188.183,-39C196.535,-39 205.024,-39 213.456,-39"/>
<polygon fill="midnightblue" stroke="midnightblue" points="213.7,-42.5001 223.7,-39 213.699,-35.5001 213.7,-42.5001"/>
</g>
<!-- Node3 -->
<g id="node3" class="node"><title>Node3</title>
<g id="a_node3"><a xlink:href="../../da/db6/classsimulation_objects_1_1_life_patch.html#ae893fb16d7bed57a52e4011e3daa4c85" target="_top" xlink:title="simulationObjects.LifePatch.count\lNeighbors">
<polygon fill="white" stroke="black" points="448,-49 448,-79 626,-79 626,-49 448,-49"/>
<text text-anchor="start" x="456" y="-67" font-family="Helvetica,sans-Serif" font-size="10.00">simulationObjects.LifePatch.count</text>
<text text-anchor="middle" x="537" y="-56" font-family="Helvetica,sans-Serif" font-size="10.00">Neighbors</text>
</a>
</g>
</g>
<!-- Node2&#45;&gt;Node3 -->
<g id="edge2" class="edge"><title>Node2&#45;&gt;Node3</title>
<path fill="none" stroke="midnightblue" d="M412.287,-49.7473C420.791,-50.7271 429.422,-51.7215 437.966,-52.7058"/>
<polygon fill="midnightblue" stroke="midnightblue" points="437.608,-56.1876 447.943,-53.8552 438.409,-49.2336 437.608,-56.1876"/>
</g>
<!-- Node4 -->
<g id="node4" class="node"><title>Node4</title>
<g id="a_node4"><a xlink:href="../../d5/da5/classsimulation_objects_1_1_patch.html#a84e7580a85285441a2caf058f977f237" target="_top" xlink:title="simulationObjects.Patch.is\lEmpty">
<polygon fill="white" stroke="black" points="466,-0 466,-30 608,-30 608,-0 466,-0"/>
<text text-anchor="start" x="474" y="-18" font-family="Helvetica,sans-Serif" font-size="10.00">simulationObjects.Patch.is</text>
<text text-anchor="middle" x="537" y="-7" font-family="Helvetica,sans-Serif" font-size="10.00">Empty</text>
</a>
</g>
</g>
<!-- Node2&#45;&gt;Node4 -->
<g id="edge3" class="edge"><title>Node2&#45;&gt;Node4</title>
<path fill="none" stroke="midnightblue" d="M412.287,-28.6826C426.707,-27.0877 441.493,-25.4524 455.598,-23.8924"/>
<polygon fill="midnightblue" stroke="midnightblue" points="456.179,-27.3496 465.734,-22.7714 455.409,-20.392 456.179,-27.3496"/>
</g>
</g>
</svg>
