<?xml version="1.0" encoding="UTF-8" standalone="no"?>
<!DOCTYPE svg PUBLIC "-//W3C//DTD SVG 1.1//EN"
 "http://www.w3.org/Graphics/SVG/1.1/DTD/svg11.dtd">
<!-- Generated by graphviz version 2.36.0 (20140111.2315)
 -->
<!-- Title: simulationObjects.LifePatch.update Pages: 1 -->
<svg width="834pt" height="136pt"
 viewBox="0.00 0.00 834.00 136.00" xmlns="http://www.w3.org/2000/svg" xmlns:xlink="http://www.w3.org/1999/xlink">
<g id="graph0" class="graph" transform="scale(1 1) rotate(0) translate(4 132)">
<title>simulationObjects.LifePatch.update</title>
<polygon fill="white" stroke="none" points="-4,4 -4,-132 830,-132 830,4 -4,4"/>
<!-- Node1 -->
<g id="node1" class="node"><title>Node1</title>
<polygon fill="#bfbfbf" stroke="black" points="0.5,-79.5 0.5,-98.5 185.5,-98.5 185.5,-79.5 0.5,-79.5"/>
<text text-anchor="middle" x="93" y="-86.5" font-family="Helvetica,sans-Serif" font-size="10.00">simulationObjects.LifePatch.update</text>
</g>
<!-- Node2 -->
<g id="node2" class="node"><title>Node2</title>
<g id="a_node2"><a xlink:href="../../d5/da5/classsimulation_objects_1_1_patch.html#ac05b7dd86c9f30b498d93d62cbbba9a4" target="_top" xlink:title="simulationObjects.Patch.addCell">
<polygon fill="white" stroke="black" points="222,-60.5 222,-79.5 392,-79.5 392,-60.5 222,-60.5"/>
<text text-anchor="middle" x="307" y="-67.5" font-family="Helvetica,sans-Serif" font-size="10.00">simulationObjects.Patch.addCell</text>
</a>
</g>
</g>
<!-- Node1&#45;&gt;Node2 -->
<g id="edge1" class="edge"><title>Node1&#45;&gt;Node2</title>
<path fill="none" stroke="midnightblue" d="M185.753,-80.7768C194.359,-80.0055 203.093,-79.2228 211.722,-78.4494"/>
<polygon fill="midnightblue" stroke="midnightblue" points="212.142,-81.9259 221.79,-77.5471 211.517,-74.9539 212.142,-81.9259"/>
</g>
<!-- Node3 -->
<g id="node3" class="node"><title>Node3</title>
<g id="a_node3"><a xlink:href="../../d5/da5/classsimulation_objects_1_1_patch.html#ac18f8e7cdd82ed885a6a92f066da2d38" target="_top" xlink:title="simulationObjects.Patch.removeCell">
<polygon fill="white" stroke="black" points="428,-98.5 428,-117.5 616,-117.5 616,-98.5 428,-98.5"/>
<text text-anchor="middle" x="522" y="-105.5" font-family="Helvetica,sans-Serif" font-size="10.00">simulationObjects.Patch.removeCell</text>
</a>
</g>
</g>
<!-- Node1&#45;&gt;Node3 -->
<g id="edge7" class="edge"><title>Node1&#45;&gt;Node3</title>
<path fill="none" stroke="midnightblue" d="M185.602,-93.076C253.686,-96.1055 346.643,-100.242 417.429,-103.391"/>
<polygon fill="midnightblue" stroke="midnightblue" points="417.561,-106.901 427.706,-103.849 417.872,-99.9076 417.561,-106.901"/>
</g>
<!-- Node2&#45;&gt;Node3 -->
<g id="edge2" class="edge"><title>Node2&#45;&gt;Node3</title>
<path fill="none" stroke="midnightblue" d="M361.474,-79.54C390.592,-84.7348 426.811,-91.1963 457.374,-96.6489"/>
<polygon fill="midnightblue" stroke="midnightblue" points="457.045,-100.145 467.504,-98.4561 458.274,-93.2541 457.045,-100.145"/>
</g>
<!-- Node4 -->
<g id="node4" class="node"><title>Node4</title>
<g id="a_node4"><a xlink:href="../../d5/da5/classsimulation_objects_1_1_patch.html#a06f00537a57f3678cf147c580b92de0d" target="_top" xlink:title="simulationObjects.Patch.update\lCellConstraints">
<polygon fill="white" stroke="black" points="438,-49 438,-79 606,-79 606,-49 438,-49"/>
<text text-anchor="start" x="446" y="-67" font-family="Helvetica,sans-Serif" font-size="10.00">simulationObjects.Patch.update</text>
<text text-anchor="middle" x="522" y="-56" font-family="Helvetica,sans-Serif" font-size="10.00">CellConstraints</text>
</a>
</g>
</g>
<!-- Node2&#45;&gt;Node4 -->
<g id="edge3" class="edge"><title>Node2&#45;&gt;Node4</title>
<path fill="none" stroke="midnightblue" d="M392.183,-67.6286C403.785,-67.3018 415.757,-66.9646 427.514,-66.6334"/>
<polygon fill="midnightblue" stroke="midnightblue" points="427.879,-70.1246 437.776,-66.3443 427.682,-63.1274 427.879,-70.1246"/>
</g>
<!-- Node5 -->
<g id="node5" class="node"><title>Node5</title>
<g id="a_node5"><a xlink:href="../../d0/d1a/classsimulation_objects_1_1_patch_body.html#a466dadbe30fb2f8360163881e0db9295" target="_top" xlink:title="simulationObjects.PatchBody.get\lPatchWidth">
<polygon fill="white" stroke="black" points="652.5,-98 652.5,-128 825.5,-128 825.5,-98 652.5,-98"/>
<text text-anchor="start" x="660.5" y="-116" font-family="Helvetica,sans-Serif" font-size="10.00">simulationObjects.PatchBody.get</text>
<text text-anchor="middle" x="739" y="-105" font-family="Helvetica,sans-Serif" font-size="10.00">PatchWidth</text>
</a>
</g>
</g>
<!-- Node4&#45;&gt;Node5 -->
<g id="edge4" class="edge"><title>Node4&#45;&gt;Node5</title>
<path fill="none" stroke="midnightblue" d="M588.968,-79.0346C612.185,-84.3259 638.456,-90.3133 662.404,-95.7712"/>
<polygon fill="midnightblue" stroke="midnightblue" points="661.629,-99.1841 672.157,-97.9938 663.184,-92.3591 661.629,-99.1841"/>
</g>
<!-- Node6 -->
<g id="node6" class="node"><title>Node6</title>
<g id="a_node6"><a xlink:href="../../d0/d1a/classsimulation_objects_1_1_patch_body.html#a7be1762ade4eaee79c26ac524eb97f33" target="_top" xlink:title="simulationObjects.PatchBody.get\lCenter">
<polygon fill="white" stroke="black" points="652.5,-49 652.5,-79 825.5,-79 825.5,-49 652.5,-49"/>
<text text-anchor="start" x="660.5" y="-67" font-family="Helvetica,sans-Serif" font-size="10.00">simulationObjects.PatchBody.get</text>
<text text-anchor="middle" x="739" y="-56" font-family="Helvetica,sans-Serif" font-size="10.00">Center</text>
</a>
</g>
</g>
<!-- Node4&#45;&gt;Node6 -->
<g id="edge5" class="edge"><title>Node4&#45;&gt;Node6</title>
<path fill="none" stroke="midnightblue" d="M606.125,-64C617.941,-64 630.173,-64 642.206,-64"/>
<polygon fill="midnightblue" stroke="midnightblue" points="642.254,-67.5001 652.254,-64 642.254,-60.5001 642.254,-67.5001"/>
</g>
<!-- Node7 -->
<g id="node7" class="node"><title>Node7</title>
<g id="a_node7"><a xlink:href="../../d0/d1a/classsimulation_objects_1_1_patch_body.html#a268e88a7cb1f5feb98f49e230475c2ba" target="_top" xlink:title="simulationObjects.PatchBody.get\lPatchHeight">
<polygon fill="white" stroke="black" points="652.5,-0 652.5,-30 825.5,-30 825.5,-0 652.5,-0"/>
<text text-anchor="start" x="660.5" y="-18" font-family="Helvetica,sans-Serif" font-size="10.00">simulationObjects.PatchBody.get</text>
<text text-anchor="middle" x="739" y="-7" font-family="Helvetica,sans-Serif" font-size="10.00">PatchHeight</text>
</a>
</g>
</g>
<!-- Node4&#45;&gt;Node7 -->
<g id="edge6" class="edge"><title>Node4&#45;&gt;Node7</title>
<path fill="none" stroke="midnightblue" d="M588.968,-48.9654C612.185,-43.6741 638.456,-37.6867 662.404,-32.2288"/>
<polygon fill="midnightblue" stroke="midnightblue" points="663.184,-35.6409 672.157,-30.0062 661.629,-28.8159 663.184,-35.6409"/>
</g>
</g>
</svg>
