<?xml version="1.0" encoding="UTF-8" standalone="no"?>
<!DOCTYPE svg PUBLIC "-//W3C//DTD SVG 1.1//EN"
 "http://www.w3.org/Graphics/SVG/1.1/DTD/svg11.dtd">
<!-- Generated by graphviz version 2.36.0 (20140111.2315)
 -->
<!-- Title: simulationObjects.LifePatch.toggleCellState Pages: 1 -->
<svg width="830pt" height="136pt"
 viewBox="0.00 0.00 830.00 136.00" xmlns="http://www.w3.org/2000/svg" xmlns:xlink="http://www.w3.org/1999/xlink">
<g id="graph0" class="graph" transform="scale(1 1) rotate(0) translate(4 132)">
<title>simulationObjects.LifePatch.toggleCellState</title>
<polygon fill="white" stroke="none" points="-4,4 -4,-132 826,-132 826,4 -4,4"/>
<!-- Node1 -->
<g id="node1" class="node"><title>Node1</title>
<polygon fill="#bfbfbf" stroke="black" points="0.5,-74 0.5,-104 181.5,-104 181.5,-74 0.5,-74"/>
<text text-anchor="start" x="8.5" y="-92" font-family="Helvetica,sans-Serif" font-size="10.00">simulationObjects.LifePatch.toggle</text>
<text text-anchor="middle" x="91" y="-81" font-family="Helvetica,sans-Serif" font-size="10.00">CellState</text>
</g>
<!-- Node2 -->
<g id="node2" class="node"><title>Node2</title>
<g id="a_node2"><a xlink:href="../../d5/da5/classsimulation_objects_1_1_patch.html#ac05b7dd86c9f30b498d93d62cbbba9a4" target="_top" xlink:title="simulationObjects.Patch.addCell">
<polygon fill="white" stroke="black" points="218,-60.5 218,-79.5 388,-79.5 388,-60.5 218,-60.5"/>
<text text-anchor="middle" x="303" y="-67.5" font-family="Helvetica,sans-Serif" font-size="10.00">simulationObjects.Patch.addCell</text>
</a>
</g>
</g>
<!-- Node1&#45;&gt;Node2 -->
<g id="edge1" class="edge"><title>Node1&#45;&gt;Node2</title>
<path fill="none" stroke="midnightblue" d="M181.668,-80.8872C190.322,-80.1042 199.117,-79.3084 207.813,-78.5217"/>
<polygon fill="midnightblue" stroke="midnightblue" points="208.316,-81.9905 217.96,-77.6036 207.685,-75.019 208.316,-81.9905"/>
</g>
<!-- Node3 -->
<g id="node3" class="node"><title>Node3</title>
<g id="a_node3"><a xlink:href="../../d5/da5/classsimulation_objects_1_1_patch.html#ac18f8e7cdd82ed885a6a92f066da2d38" target="_top" xlink:title="simulationObjects.Patch.removeCell">
<polygon fill="white" stroke="black" points="424,-98.5 424,-117.5 612,-117.5 612,-98.5 424,-98.5"/>
<text text-anchor="middle" x="518" y="-105.5" font-family="Helvetica,sans-Serif" font-size="10.00">simulationObjects.Patch.removeCell</text>
</a>
</g>
</g>
<!-- Node1&#45;&gt;Node3 -->
<g id="edge7" class="edge"><title>Node1&#45;&gt;Node3</title>
<path fill="none" stroke="midnightblue" d="M181.612,-93.0062C249.391,-96.0363 342.584,-100.203 413.534,-103.374"/>
<polygon fill="midnightblue" stroke="midnightblue" points="413.688,-106.885 423.835,-103.835 414.001,-99.8917 413.688,-106.885"/>
</g>
<!-- Node2&#45;&gt;Node3 -->
<g id="edge2" class="edge"><title>Node2&#45;&gt;Node3</title>
<path fill="none" stroke="midnightblue" d="M357.474,-79.54C386.592,-84.7348 422.811,-91.1963 453.374,-96.6489"/>
<polygon fill="midnightblue" stroke="midnightblue" points="453.045,-100.145 463.504,-98.4561 454.274,-93.2541 453.045,-100.145"/>
</g>
<!-- Node4 -->
<g id="node4" class="node"><title>Node4</title>
<g id="a_node4"><a xlink:href="../../d5/da5/classsimulation_objects_1_1_patch.html#a06f00537a57f3678cf147c580b92de0d" target="_top" xlink:title="simulationObjects.Patch.update\lCellConstraints">
<polygon fill="white" stroke="black" points="434,-49 434,-79 602,-79 602,-49 434,-49"/>
<text text-anchor="start" x="442" y="-67" font-family="Helvetica,sans-Serif" font-size="10.00">simulationObjects.Patch.update</text>
<text text-anchor="middle" x="518" y="-56" font-family="Helvetica,sans-Serif" font-size="10.00">CellConstraints</text>
</a>
</g>
</g>
<!-- Node2&#45;&gt;Node4 -->
<g id="edge3" class="edge"><title>Node2&#45;&gt;Node4</title>
<path fill="none" stroke="midnightblue" d="M388.183,-67.6286C399.785,-67.3018 411.757,-66.9646 423.514,-66.6334"/>
<polygon fill="midnightblue" stroke="midnightblue" points="423.879,-70.1246 433.776,-66.3443 423.682,-63.1274 423.879,-70.1246"/>
</g>
<!-- Node5 -->
<g id="node5" class="node"><title>Node5</title>
<g id="a_node5"><a xlink:href="../../d0/d1a/classsimulation_objects_1_1_patch_body.html#a466dadbe30fb2f8360163881e0db9295" target="_top" xlink:title="simulationObjects.PatchBody.get\lPatchWidth">
<polygon fill="white" stroke="black" points="648.5,-98 648.5,-128 821.5,-128 821.5,-98 648.5,-98"/>
<text text-anchor="start" x="656.5" y="-116" font-family="Helvetica,sans-Serif" font-size="10.00">simulationObjects.PatchBody.get</text>
<text text-anchor="middle" x="735" y="-105" font-family="Helvetica,sans-Serif" font-size="10.00">PatchWidth</text>
</a>
</g>
</g>
<!-- Node4&#45;&gt;Node5 -->
<g id="edge4" class="edge"><title>Node4&#45;&gt;Node5</title>
<path fill="none" stroke="midnightblue" d="M584.968,-79.0346C608.185,-84.3259 634.456,-90.3133 658.404,-95.7712"/>
<polygon fill="midnightblue" stroke="midnightblue" points="657.629,-99.1841 668.157,-97.9938 659.184,-92.3591 657.629,-99.1841"/>
</g>
<!-- Node6 -->
<g id="node6" class="node"><title>Node6</title>
<g id="a_node6"><a xlink:href="../../d0/d1a/classsimulation_objects_1_1_patch_body.html#a7be1762ade4eaee79c26ac524eb97f33" target="_top" xlink:title="simulationObjects.PatchBody.get\lCenter">
<polygon fill="white" stroke="black" points="648.5,-49 648.5,-79 821.5,-79 821.5,-49 648.5,-49"/>
<text text-anchor="start" x="656.5" y="-67" font-family="Helvetica,sans-Serif" font-size="10.00">simulationObjects.PatchBody.get</text>
<text text-anchor="middle" x="735" y="-56" font-family="Helvetica,sans-Serif" font-size="10.00">Center</text>
</a>
</g>
</g>
<!-- Node4&#45;&gt;Node6 -->
<g id="edge5" class="edge"><title>Node4&#45;&gt;Node6</title>
<path fill="none" stroke="midnightblue" d="M602.125,-64C613.941,-64 626.173,-64 638.206,-64"/>
<polygon fill="midnightblue" stroke="midnightblue" points="638.254,-67.5001 648.254,-64 638.254,-60.5001 638.254,-67.5001"/>
</g>
<!-- Node7 -->
<g id="node7" class="node"><title>Node7</title>
<g id="a_node7"><a xlink:href="../../d0/d1a/classsimulation_objects_1_1_patch_body.html#a268e88a7cb1f5feb98f49e230475c2ba" target="_top" xlink:title="simulationObjects.PatchBody.get\lPatchHeight">
<polygon fill="white" stroke="black" points="648.5,-0 648.5,-30 821.5,-30 821.5,-0 648.5,-0"/>
<text text-anchor="start" x="656.5" y="-18" font-family="Helvetica,sans-Serif" font-size="10.00">simulationObjects.PatchBody.get</text>
<text text-anchor="middle" x="735" y="-7" font-family="Helvetica,sans-Serif" font-size="10.00">PatchHeight</text>
</a>
</g>
</g>
<!-- Node4&#45;&gt;Node7 -->
<g id="edge6" class="edge"><title>Node4&#45;&gt;Node7</title>
<path fill="none" stroke="midnightblue" d="M584.968,-48.9654C608.185,-43.6741 634.456,-37.6867 658.404,-32.2288"/>
<polygon fill="midnightblue" stroke="midnightblue" points="659.184,-35.6409 668.157,-30.0062 657.629,-28.8159 659.184,-35.6409"/>
</g>
</g>
</svg>
