<?xml version="1.0" encoding="UTF-8" standalone="no"?>
<!DOCTYPE svg PUBLIC "-//W3C//DTD SVG 1.1//EN"
 "http://www.w3.org/Graphics/SVG/1.1/DTD/svg11.dtd">
<!-- Generated by graphviz version 2.36.0 (20140111.2315)
 -->
<!-- Title: simulationObjects.LifePatch.processNeighborsAndUpdateState Pages: 1 -->
<svg width="410pt" height="87pt"
 viewBox="0.00 0.00 410.00 87.00" xmlns="http://www.w3.org/2000/svg" xmlns:xlink="http://www.w3.org/1999/xlink">
<g id="graph0" class="graph" transform="scale(1 1) rotate(0) translate(4 83)">
<title>simulationObjects.LifePatch.processNeighborsAndUpdateState</title>
<polygon fill="white" stroke="none" points="-4,4 -4,-83 406,-83 406,4 -4,4"/>
<!-- Node1 -->
<g id="node1" class="node"><title>Node1</title>
<polygon fill="#bfbfbf" stroke="black" points="0,-24 0,-54 188,-54 188,-24 0,-24"/>
<text text-anchor="start" x="8" y="-42" font-family="Helvetica,sans-Serif" font-size="10.00">simulationObjects.LifePatch.process</text>
<text text-anchor="middle" x="94" y="-31" font-family="Helvetica,sans-Serif" font-size="10.00">NeighborsAndUpdateState</text>
</g>
<!-- Node2 -->
<g id="node2" class="node"><title>Node2</title>
<g id="a_node2"><a xlink:href="../../da/db6/classsimulation_objects_1_1_life_patch.html#ae893fb16d7bed57a52e4011e3daa4c85" target="_top" xlink:title="simulationObjects.LifePatch.count\lNeighbors">
<polygon fill="white" stroke="black" points="224,-49 224,-79 402,-79 402,-49 224,-49"/>
<text text-anchor="start" x="232" y="-67" font-family="Helvetica,sans-Serif" font-size="10.00">simulationObjects.LifePatch.count</text>
<text text-anchor="middle" x="313" y="-56" font-family="Helvetica,sans-Serif" font-size="10.00">Neighbors</text>
</a>
</g>
</g>
<!-- Node1&#45;&gt;Node2 -->
<g id="edge1" class="edge"><title>Node1&#45;&gt;Node2</title>
<path fill="none" stroke="midnightblue" d="M188.287,-49.7473C196.791,-50.7271 205.422,-51.7215 213.966,-52.7058"/>
<polygon fill="midnightblue" stroke="midnightblue" points="213.608,-56.1876 223.943,-53.8552 214.409,-49.2336 213.608,-56.1876"/>
</g>
<!-- Node3 -->
<g id="node3" class="node"><title>Node3</title>
<g id="a_node3"><a xlink:href="../../d5/da5/classsimulation_objects_1_1_patch.html#a84e7580a85285441a2caf058f977f237" target="_top" xlink:title="simulationObjects.Patch.is\lEmpty">
<polygon fill="white" stroke="black" points="242,-0 242,-30 384,-30 384,-0 242,-0"/>
<text text-anchor="start" x="250" y="-18" font-family="Helvetica,sans-Serif" font-size="10.00">simulationObjects.Patch.is</text>
<text text-anchor="middle" x="313" y="-7" font-family="Helvetica,sans-Serif" font-size="10.00">Empty</text>
</a>
</g>
</g>
<!-- Node1&#45;&gt;Node3 -->
<g id="edge2" class="edge"><title>Node1&#45;&gt;Node3</title>
<path fill="none" stroke="midnightblue" d="M188.287,-28.6826C202.707,-27.0877 217.493,-25.4524 231.598,-23.8924"/>
<polygon fill="midnightblue" stroke="midnightblue" points="232.179,-27.3496 241.734,-22.7714 231.409,-20.392 232.179,-27.3496"/>
</g>
</g>
</svg>
