<?xml version="1.0" encoding="UTF-8" standalone="no"?>
<!DOCTYPE svg PUBLIC "-//W3C//DTD SVG 1.1//EN"
 "http://www.w3.org/Graphics/SVG/1.1/DTD/svg11.dtd">
<!-- Generated by graphviz version 2.36.0 (20140111.2315)
 -->
<!-- Title: simulationObjects.PredatorCell.leaveEgg Pages: 1 -->
<svg width="794pt" height="207pt"
 viewBox="0.00 0.00 794.00 207.00" xmlns="http://www.w3.org/2000/svg" xmlns:xlink="http://www.w3.org/1999/xlink">
<g id="graph0" class="graph" transform="scale(1 1) rotate(0) translate(4 203)">
<title>simulationObjects.PredatorCell.leaveEgg</title>
<polygon fill="white" stroke="none" points="-4,4 -4,-203 790,-203 790,4 -4,4"/>
<!-- Node1 -->
<g id="node1" class="node"><title>Node1</title>
<polygon fill="#bfbfbf" stroke="black" points="0,-73 0,-103 146,-103 146,-73 0,-73"/>
<text text-anchor="start" x="8" y="-91" font-family="Helvetica,sans-Serif" font-size="10.00">simulationObjects.Predator</text>
<text text-anchor="middle" x="73" y="-80" font-family="Helvetica,sans-Serif" font-size="10.00">Cell.leaveEgg</text>
</g>
<!-- Node2 -->
<g id="node2" class="node"><title>Node2</title>
<g id="a_node2"><a xlink:href="../../d5/da5/classsimulation_objects_1_1_patch.html#ac05b7dd86c9f30b498d93d62cbbba9a4" target="_top" xlink:title="simulationObjects.Patch.addCell">
<polygon fill="white" stroke="black" points="182,-147.5 182,-166.5 352,-166.5 352,-147.5 182,-147.5"/>
<text text-anchor="middle" x="267" y="-154.5" font-family="Helvetica,sans-Serif" font-size="10.00">simulationObjects.Patch.addCell</text>
</a>
</g>
</g>
<!-- Node1&#45;&gt;Node2 -->
<g id="edge1" class="edge"><title>Node1&#45;&gt;Node2</title>
<path fill="none" stroke="midnightblue" d="M103.174,-103.088C124.56,-113.687 154.534,-127.597 182,-137 190.645,-139.96 199.935,-142.644 209.073,-145.015"/>
<polygon fill="midnightblue" stroke="midnightblue" points="208.342,-148.44 218.892,-147.465 210.037,-141.648 208.342,-148.44"/>
</g>
<!-- Node8 -->
<g id="node8" class="node"><title>Node8</title>
<g id="a_node8"><a xlink:href="../../d5/da5/classsimulation_objects_1_1_patch.html#aa905a0fdf2a84eae5e69619a1af300c9" target="_top" xlink:title="simulationObjects.Patch.get\lGridX">
<polygon fill="white" stroke="black" points="192,-98 192,-128 342,-128 342,-98 192,-98"/>
<text text-anchor="start" x="200" y="-116" font-family="Helvetica,sans-Serif" font-size="10.00">simulationObjects.Patch.get</text>
<text text-anchor="middle" x="267" y="-105" font-family="Helvetica,sans-Serif" font-size="10.00">GridX</text>
</a>
</g>
</g>
<!-- Node1&#45;&gt;Node8 -->
<g id="edge7" class="edge"><title>Node1&#45;&gt;Node8</title>
<path fill="none" stroke="midnightblue" d="M146.04,-97.3802C157.761,-98.9064 169.992,-100.499 181.97,-102.059"/>
<polygon fill="midnightblue" stroke="midnightblue" points="181.587,-105.538 191.956,-103.359 182.491,-98.5968 181.587,-105.538"/>
</g>
<!-- Node9 -->
<g id="node9" class="node"><title>Node9</title>
<g id="a_node9"><a xlink:href="../../d5/da5/classsimulation_objects_1_1_patch.html#abdbebdfb8cb45838007180c12b5bfe79" target="_top" xlink:title="simulationObjects.Patch.get\lGridY">
<polygon fill="white" stroke="black" points="192,-49 192,-79 342,-79 342,-49 192,-49"/>
<text text-anchor="start" x="200" y="-67" font-family="Helvetica,sans-Serif" font-size="10.00">simulationObjects.Patch.get</text>
<text text-anchor="middle" x="267" y="-56" font-family="Helvetica,sans-Serif" font-size="10.00">GridY</text>
</a>
</g>
</g>
<!-- Node1&#45;&gt;Node9 -->
<g id="edge8" class="edge"><title>Node1&#45;&gt;Node9</title>
<path fill="none" stroke="midnightblue" d="M146.04,-78.995C157.761,-77.5298 169.992,-76.001 181.97,-74.5037"/>
<polygon fill="midnightblue" stroke="midnightblue" points="182.467,-77.969 191.956,-73.2556 181.599,-71.023 182.467,-77.969"/>
</g>
<!-- Node10 -->
<g id="node10" class="node"><title>Node10</title>
<g id="a_node10"><a xlink:href="../../db/dee/classsimulation_objects_1_1_predator_cell.html#ac6f2a7e0e14953d619e8ed0773f613bc" target="_top" xlink:title="simulationObjects.Predator\lCell.PredatorCell">
<polygon fill="white" stroke="black" points="194,-0 194,-30 340,-30 340,-0 194,-0"/>
<text text-anchor="start" x="202" y="-18" font-family="Helvetica,sans-Serif" font-size="10.00">simulationObjects.Predator</text>
<text text-anchor="middle" x="267" y="-7" font-family="Helvetica,sans-Serif" font-size="10.00">Cell.PredatorCell</text>
</a>
</g>
</g>
<!-- Node1&#45;&gt;Node10 -->
<g id="edge9" class="edge"><title>Node1&#45;&gt;Node10</title>
<path fill="none" stroke="midnightblue" d="M104.223,-72.8355C125.605,-62.4681 155.136,-48.8704 182,-39 187.563,-36.9559 193.385,-34.9766 199.258,-33.09"/>
<polygon fill="midnightblue" stroke="midnightblue" points="200.645,-36.3238 209.151,-30.0073 198.563,-29.6407 200.645,-36.3238"/>
</g>
<!-- Node3 -->
<g id="node3" class="node"><title>Node3</title>
<g id="a_node3"><a xlink:href="../../d5/da5/classsimulation_objects_1_1_patch.html#ac18f8e7cdd82ed885a6a92f066da2d38" target="_top" xlink:title="simulationObjects.Patch.removeCell">
<polygon fill="white" stroke="black" points="388,-169.5 388,-188.5 576,-188.5 576,-169.5 388,-169.5"/>
<text text-anchor="middle" x="482" y="-176.5" font-family="Helvetica,sans-Serif" font-size="10.00">simulationObjects.Patch.removeCell</text>
</a>
</g>
</g>
<!-- Node2&#45;&gt;Node3 -->
<g id="edge2" class="edge"><title>Node2&#45;&gt;Node3</title>
<path fill="none" stroke="midnightblue" d="M352.183,-165.695C360.97,-166.603 369.969,-167.532 378.926,-168.457"/>
<polygon fill="midnightblue" stroke="midnightblue" points="378.701,-171.952 389.007,-169.498 379.42,-164.989 378.701,-171.952"/>
</g>
<!-- Node4 -->
<g id="node4" class="node"><title>Node4</title>
<g id="a_node4"><a xlink:href="../../d5/da5/classsimulation_objects_1_1_patch.html#a06f00537a57f3678cf147c580b92de0d" target="_top" xlink:title="simulationObjects.Patch.update\lCellConstraints">
<polygon fill="white" stroke="black" points="398,-120 398,-150 566,-150 566,-120 398,-120"/>
<text text-anchor="start" x="406" y="-138" font-family="Helvetica,sans-Serif" font-size="10.00">simulationObjects.Patch.update</text>
<text text-anchor="middle" x="482" y="-127" font-family="Helvetica,sans-Serif" font-size="10.00">CellConstraints</text>
</a>
</g>
</g>
<!-- Node2&#45;&gt;Node4 -->
<g id="edge3" class="edge"><title>Node2&#45;&gt;Node4</title>
<path fill="none" stroke="midnightblue" d="M352.183,-148.305C363.785,-147.107 375.757,-145.87 387.514,-144.656"/>
<polygon fill="midnightblue" stroke="midnightblue" points="388.189,-148.105 397.776,-143.596 387.47,-141.142 388.189,-148.105"/>
</g>
<!-- Node5 -->
<g id="node5" class="node"><title>Node5</title>
<g id="a_node5"><a xlink:href="../../d0/d1a/classsimulation_objects_1_1_patch_body.html#a7be1762ade4eaee79c26ac524eb97f33" target="_top" xlink:title="simulationObjects.PatchBody.get\lCenter">
<polygon fill="white" stroke="black" points="612.5,-169 612.5,-199 785.5,-199 785.5,-169 612.5,-169"/>
<text text-anchor="start" x="620.5" y="-187" font-family="Helvetica,sans-Serif" font-size="10.00">simulationObjects.PatchBody.get</text>
<text text-anchor="middle" x="699" y="-176" font-family="Helvetica,sans-Serif" font-size="10.00">Center</text>
</a>
</g>
</g>
<!-- Node4&#45;&gt;Node5 -->
<g id="edge4" class="edge"><title>Node4&#45;&gt;Node5</title>
<path fill="none" stroke="midnightblue" d="M548.968,-150.035C572.185,-155.326 598.456,-161.313 622.404,-166.771"/>
<polygon fill="midnightblue" stroke="midnightblue" points="621.629,-170.184 632.157,-168.994 623.184,-163.359 621.629,-170.184"/>
</g>
<!-- Node6 -->
<g id="node6" class="node"><title>Node6</title>
<g id="a_node6"><a xlink:href="../../d0/d1a/classsimulation_objects_1_1_patch_body.html#a268e88a7cb1f5feb98f49e230475c2ba" target="_top" xlink:title="simulationObjects.PatchBody.get\lPatchHeight">
<polygon fill="white" stroke="black" points="612.5,-120 612.5,-150 785.5,-150 785.5,-120 612.5,-120"/>
<text text-anchor="start" x="620.5" y="-138" font-family="Helvetica,sans-Serif" font-size="10.00">simulationObjects.PatchBody.get</text>
<text text-anchor="middle" x="699" y="-127" font-family="Helvetica,sans-Serif" font-size="10.00">PatchHeight</text>
</a>
</g>
</g>
<!-- Node4&#45;&gt;Node6 -->
<g id="edge5" class="edge"><title>Node4&#45;&gt;Node6</title>
<path fill="none" stroke="midnightblue" d="M566.125,-135C577.941,-135 590.173,-135 602.206,-135"/>
<polygon fill="midnightblue" stroke="midnightblue" points="602.254,-138.5 612.254,-135 602.254,-131.5 602.254,-138.5"/>
</g>
<!-- Node7 -->
<g id="node7" class="node"><title>Node7</title>
<g id="a_node7"><a xlink:href="../../d0/d1a/classsimulation_objects_1_1_patch_body.html#a466dadbe30fb2f8360163881e0db9295" target="_top" xlink:title="simulationObjects.PatchBody.get\lPatchWidth">
<polygon fill="white" stroke="black" points="612.5,-71 612.5,-101 785.5,-101 785.5,-71 612.5,-71"/>
<text text-anchor="start" x="620.5" y="-89" font-family="Helvetica,sans-Serif" font-size="10.00">simulationObjects.PatchBody.get</text>
<text text-anchor="middle" x="699" y="-78" font-family="Helvetica,sans-Serif" font-size="10.00">PatchWidth</text>
</a>
</g>
</g>
<!-- Node4&#45;&gt;Node7 -->
<g id="edge6" class="edge"><title>Node4&#45;&gt;Node7</title>
<path fill="none" stroke="midnightblue" d="M548.968,-119.965C572.185,-114.674 598.456,-108.687 622.404,-103.229"/>
<polygon fill="midnightblue" stroke="midnightblue" points="623.184,-106.641 632.157,-101.006 621.629,-99.8159 623.184,-106.641"/>
</g>
<!-- Node11 -->
<g id="node11" class="node"><title>Node11</title>
<g id="a_node11"><a xlink:href="../../db/dee/classsimulation_objects_1_1_predator_cell.html#ae280edbc80128008359fda053d018a67" target="_top" xlink:title="simulationObjects.Predator\lCell.initializeParameters">
<polygon fill="white" stroke="black" points="409,-0 409,-30 555,-30 555,-0 409,-0"/>
<text text-anchor="start" x="417" y="-18" font-family="Helvetica,sans-Serif" font-size="10.00">simulationObjects.Predator</text>
<text text-anchor="middle" x="482" y="-7" font-family="Helvetica,sans-Serif" font-size="10.00">Cell.initializeParameters</text>
</a>
</g>
</g>
<!-- Node10&#45;&gt;Node11 -->
<g id="edge10" class="edge"><title>Node10&#45;&gt;Node11</title>
<path fill="none" stroke="midnightblue" d="M340.112,-15C359.023,-15 379.554,-15 398.942,-15"/>
<polygon fill="midnightblue" stroke="midnightblue" points="398.962,-18.5001 408.962,-15 398.962,-11.5001 398.962,-18.5001"/>
</g>
</g>
</svg>
