<?xml version="1.0" encoding="UTF-8" standalone="no"?>
<!DOCTYPE svg PUBLIC "-//W3C//DTD SVG 1.1//EN"
 "http://www.w3.org/Graphics/SVG/1.1/DTD/svg11.dtd">
<!-- Generated by graphviz version 2.36.0 (20140111.2315)
 -->
<!-- Title: simulationObjects.PredatorCell.initializeParameters Pages: 1 -->
<svg width="912pt" height="87pt"
 viewBox="0.00 0.00 912.00 87.00" xmlns="http://www.w3.org/2000/svg" xmlns:xlink="http://www.w3.org/1999/xlink">
<g id="graph0" class="graph" transform="scale(1 1) rotate(0) translate(4 83)">
<title>simulationObjects.PredatorCell.initializeParameters</title>
<polygon fill="white" stroke="none" points="-4,4 -4,-83 908,-83 908,4 -4,4"/>
<!-- Node1 -->
<g id="node1" class="node"><title>Node1</title>
<polygon fill="#bfbfbf" stroke="black" points="0,-24 0,-54 146,-54 146,-24 0,-24"/>
<text text-anchor="start" x="8" y="-42" font-family="Helvetica,sans-Serif" font-size="10.00">simulationObjects.Predator</text>
<text text-anchor="middle" x="73" y="-31" font-family="Helvetica,sans-Serif" font-size="10.00">Cell.initializeParameters</text>
</g>
<!-- Node2 -->
<g id="node2" class="node"><title>Node2</title>
<g id="a_node2"><a xlink:href="../../db/dee/classsimulation_objects_1_1_predator_cell.html#a77eb0a8020def93913c1765492a8839a" target="_top" xlink:title="simulationObjects.Predator\lCell.initialize">
<polygon fill="white" stroke="black" points="182,-49 182,-79 328,-79 328,-49 182,-49"/>
<text text-anchor="start" x="190" y="-67" font-family="Helvetica,sans-Serif" font-size="10.00">simulationObjects.Predator</text>
<text text-anchor="middle" x="255" y="-56" font-family="Helvetica,sans-Serif" font-size="10.00">Cell.initialize</text>
</a>
</g>
</g>
<!-- Node1&#45;&gt;Node2 -->
<g id="edge1" class="edge"><title>Node1&#45;&gt;Node2</title>
<path fill="none" stroke="midnightblue" d="M156.16,-50.4111C164.718,-51.5998 173.372,-52.8017 181.808,-53.9733"/>
<polygon fill="midnightblue" stroke="midnightblue" points="156.562,-46.9335 146.176,-49.0244 155.599,-53.8669 156.562,-46.9335"/>
</g>
<!-- Node3 -->
<g id="node3" class="node"><title>Node3</title>
<g id="a_node3"><a xlink:href="../../db/dee/classsimulation_objects_1_1_predator_cell.html#ac6f2a7e0e14953d619e8ed0773f613bc" target="_top" xlink:title="simulationObjects.Predator\lCell.PredatorCell">
<polygon fill="white" stroke="black" points="182,-0 182,-30 328,-30 328,-0 182,-0"/>
<text text-anchor="start" x="190" y="-18" font-family="Helvetica,sans-Serif" font-size="10.00">simulationObjects.Predator</text>
<text text-anchor="middle" x="255" y="-7" font-family="Helvetica,sans-Serif" font-size="10.00">Cell.PredatorCell</text>
</a>
</g>
</g>
<!-- Node1&#45;&gt;Node3 -->
<g id="edge2" class="edge"><title>Node1&#45;&gt;Node3</title>
<path fill="none" stroke="midnightblue" d="M156.16,-28.0453C164.718,-26.9042 173.372,-25.7504 181.808,-24.6256"/>
<polygon fill="midnightblue" stroke="midnightblue" points="155.625,-24.5855 146.176,-29.3766 156.551,-31.5241 155.625,-24.5855"/>
</g>
<!-- Node4 -->
<g id="node4" class="node"><title>Node4</title>
<g id="a_node4"><a xlink:href="../../db/dee/classsimulation_objects_1_1_predator_cell.html#a681bdcb9944d91e15325e477aad1b449" target="_top" xlink:title="simulationObjects.Predator\lCell.leaveEgg">
<polygon fill="white" stroke="black" points="364,-0 364,-30 510,-30 510,-0 364,-0"/>
<text text-anchor="start" x="372" y="-18" font-family="Helvetica,sans-Serif" font-size="10.00">simulationObjects.Predator</text>
<text text-anchor="middle" x="437" y="-7" font-family="Helvetica,sans-Serif" font-size="10.00">Cell.leaveEgg</text>
</a>
</g>
</g>
<!-- Node3&#45;&gt;Node4 -->
<g id="edge3" class="edge"><title>Node3&#45;&gt;Node4</title>
<path fill="none" stroke="midnightblue" d="M338.439,-15C346.906,-15 355.464,-15 363.808,-15"/>
<polygon fill="midnightblue" stroke="midnightblue" points="338.176,-11.5001 328.176,-15 338.176,-18.5001 338.176,-11.5001"/>
</g>
<!-- Node5 -->
<g id="node5" class="node"><title>Node5</title>
<g id="a_node5"><a xlink:href="../../db/dee/classsimulation_objects_1_1_predator_cell.html#a0f04c13ccdd5e4845f2e5975ec63952f" target="_top" xlink:title="simulationObjects.Predator\lCell.updateStatesandMakeMoves">
<polygon fill="white" stroke="black" points="546,-0 546,-30 722,-30 722,-0 546,-0"/>
<text text-anchor="start" x="554" y="-18" font-family="Helvetica,sans-Serif" font-size="10.00">simulationObjects.Predator</text>
<text text-anchor="middle" x="634" y="-7" font-family="Helvetica,sans-Serif" font-size="10.00">Cell.updateStatesandMakeMoves</text>
</a>
</g>
</g>
<!-- Node4&#45;&gt;Node5 -->
<g id="edge4" class="edge"><title>Node4&#45;&gt;Node5</title>
<path fill="none" stroke="midnightblue" d="M520.236,-15C528.659,-15 537.237,-15 545.712,-15"/>
<polygon fill="midnightblue" stroke="midnightblue" points="520.057,-11.5001 510.057,-15 520.057,-18.5001 520.057,-11.5001"/>
</g>
<!-- Node6 -->
<g id="node6" class="node"><title>Node6</title>
<g id="a_node6"><a xlink:href="../../db/dee/classsimulation_objects_1_1_predator_cell.html#a954732c3db3474e874b5023303baa2ed" target="_top" xlink:title="simulationObjects.Predator\lCell.update">
<polygon fill="white" stroke="black" points="758,-0 758,-30 904,-30 904,-0 758,-0"/>
<text text-anchor="start" x="766" y="-18" font-family="Helvetica,sans-Serif" font-size="10.00">simulationObjects.Predator</text>
<text text-anchor="middle" x="831" y="-7" font-family="Helvetica,sans-Serif" font-size="10.00">Cell.update</text>
</a>
</g>
</g>
<!-- Node5&#45;&gt;Node6 -->
<g id="edge5" class="edge"><title>Node5&#45;&gt;Node6</title>
<path fill="none" stroke="midnightblue" d="M732.277,-15C740.847,-15 749.419,-15 757.729,-15"/>
<polygon fill="midnightblue" stroke="midnightblue" points="732.234,-11.5001 722.234,-15 732.234,-18.5001 732.234,-11.5001"/>
</g>
</g>
</svg>
