<?xml version="1.0" encoding="UTF-8" standalone="no"?>
<!DOCTYPE svg PUBLIC "-//W3C//DTD SVG 1.1//EN"
 "http://www.w3.org/Graphics/SVG/1.1/DTD/svg11.dtd">
<!-- Generated by graphviz version 2.36.0 (20140111.2315)
 -->
<!-- Title: simulationObjects.PredatorCell.updateStatesandMakeMoves Pages: 1 -->
<svg width="1006pt" height="256pt"
 viewBox="0.00 0.00 1006.00 256.00" xmlns="http://www.w3.org/2000/svg" xmlns:xlink="http://www.w3.org/1999/xlink">
<g id="graph0" class="graph" transform="scale(1 1) rotate(0) translate(4 252)">
<title>simulationObjects.PredatorCell.updateStatesandMakeMoves</title>
<polygon fill="white" stroke="none" points="-4,4 -4,-252 1002,-252 1002,4 -4,4"/>
<!-- Node1 -->
<g id="node1" class="node"><title>Node1</title>
<polygon fill="#bfbfbf" stroke="black" points="0,-73 0,-103 176,-103 176,-73 0,-73"/>
<text text-anchor="start" x="8" y="-91" font-family="Helvetica,sans-Serif" font-size="10.00">simulationObjects.Predator</text>
<text text-anchor="middle" x="88" y="-80" font-family="Helvetica,sans-Serif" font-size="10.00">Cell.updateStatesandMakeMoves</text>
</g>
<!-- Node2 -->
<g id="node2" class="node"><title>Node2</title>
<g id="a_node2"><a xlink:href="../../db/dee/classsimulation_objects_1_1_predator_cell.html#a9bb0b62fbecbaf439f7e8552ff74c567" target="_top" xlink:title="simulationObjects.Predator\lCell.feed">
<polygon fill="white" stroke="black" points="212,-0 212,-30 358,-30 358,-0 212,-0"/>
<text text-anchor="start" x="220" y="-18" font-family="Helvetica,sans-Serif" font-size="10.00">simulationObjects.Predator</text>
<text text-anchor="middle" x="285" y="-7" font-family="Helvetica,sans-Serif" font-size="10.00">Cell.feed</text>
</a>
</g>
</g>
<!-- Node1&#45;&gt;Node2 -->
<g id="edge1" class="edge"><title>Node1&#45;&gt;Node2</title>
<path fill="none" stroke="midnightblue" d="M125.119,-72.9781C149.518,-62.9871 182.531,-49.7714 212,-39 217.105,-37.1341 222.434,-35.2464 227.783,-33.3924"/>
<polygon fill="midnightblue" stroke="midnightblue" points="229.06,-36.6545 237.387,-30.1034 226.792,-30.032 229.06,-36.6545"/>
</g>
<!-- Node4 -->
<g id="node4" class="node"><title>Node4</title>
<g id="a_node4"><a xlink:href="../../d5/da5/classsimulation_objects_1_1_patch.html#a84e7580a85285441a2caf058f977f237" target="_top" xlink:title="simulationObjects.Patch.is\lEmpty">
<polygon fill="white" stroke="black" points="214,-98 214,-128 356,-128 356,-98 214,-98"/>
<text text-anchor="start" x="222" y="-116" font-family="Helvetica,sans-Serif" font-size="10.00">simulationObjects.Patch.is</text>
<text text-anchor="middle" x="285" y="-105" font-family="Helvetica,sans-Serif" font-size="10.00">Empty</text>
</a>
</g>
</g>
<!-- Node1&#45;&gt;Node4 -->
<g id="edge3" class="edge"><title>Node1&#45;&gt;Node4</title>
<path fill="none" stroke="midnightblue" d="M176.234,-99.1838C185.37,-100.355 194.627,-101.542 203.681,-102.703"/>
<polygon fill="midnightblue" stroke="midnightblue" points="203.435,-106.2 213.799,-104 204.325,-99.2565 203.435,-106.2"/>
</g>
<!-- Node5 -->
<g id="node5" class="node"><title>Node5</title>
<g id="a_node5"><a xlink:href="../../db/dee/classsimulation_objects_1_1_predator_cell.html#a681bdcb9944d91e15325e477aad1b449" target="_top" xlink:title="simulationObjects.Predator\lCell.leaveEgg">
<polygon fill="white" stroke="black" points="212,-147 212,-177 358,-177 358,-147 212,-147"/>
<text text-anchor="start" x="220" y="-165" font-family="Helvetica,sans-Serif" font-size="10.00">simulationObjects.Predator</text>
<text text-anchor="middle" x="285" y="-154" font-family="Helvetica,sans-Serif" font-size="10.00">Cell.leaveEgg</text>
</a>
</g>
</g>
<!-- Node1&#45;&gt;Node5 -->
<g id="edge4" class="edge"><title>Node1&#45;&gt;Node5</title>
<path fill="none" stroke="midnightblue" d="M125.432,-103.011C149.823,-112.939 182.706,-126.085 212,-137 217.859,-139.183 224.008,-141.412 230.14,-143.595"/>
<polygon fill="midnightblue" stroke="midnightblue" points="229.124,-146.948 239.718,-146.975 231.453,-140.347 229.124,-146.948"/>
</g>
<!-- Node15 -->
<g id="node15" class="node"><title>Node15</title>
<g id="a_node15"><a xlink:href="../../db/dee/classsimulation_objects_1_1_predator_cell.html#a7d74aa75e5e49981396b561c6badf01c" target="_top" xlink:title="simulationObjects.Predator\lCell.makeMove">
<polygon fill="white" stroke="black" points="212,-49 212,-79 358,-79 358,-49 212,-49"/>
<text text-anchor="start" x="220" y="-67" font-family="Helvetica,sans-Serif" font-size="10.00">simulationObjects.Predator</text>
<text text-anchor="middle" x="285" y="-56" font-family="Helvetica,sans-Serif" font-size="10.00">Cell.makeMove</text>
</a>
</g>
</g>
<!-- Node1&#45;&gt;Node15 -->
<g id="edge15" class="edge"><title>Node1&#45;&gt;Node15</title>
<path fill="none" stroke="midnightblue" d="M176.234,-77.2635C184.669,-76.2254 193.207,-75.1745 201.593,-74.1424"/>
<polygon fill="midnightblue" stroke="midnightblue" points="202.232,-77.5903 211.729,-72.8949 201.376,-70.6427 202.232,-77.5903"/>
</g>
<!-- Node3 -->
<g id="node3" class="node"><title>Node3</title>
<g id="a_node3"><a xlink:href="../../d5/da5/classsimulation_objects_1_1_patch.html#ac18f8e7cdd82ed885a6a92f066da2d38" target="_top" xlink:title="simulationObjects.Patch.removeCell">
<polygon fill="white" stroke="black" points="600,-40.5 600,-59.5 788,-59.5 788,-40.5 600,-40.5"/>
<text text-anchor="middle" x="694" y="-47.5" font-family="Helvetica,sans-Serif" font-size="10.00">simulationObjects.Patch.removeCell</text>
</a>
</g>
</g>
<!-- Node2&#45;&gt;Node3 -->
<g id="edge2" class="edge"><title>Node2&#45;&gt;Node3</title>
<path fill="none" stroke="midnightblue" d="M358.294,-21.217C422.654,-26.7516 517.536,-34.9109 589.858,-41.1303"/>
<polygon fill="midnightblue" stroke="midnightblue" points="589.645,-44.6248 599.908,-41.9946 590.245,-37.6505 589.645,-44.6248"/>
</g>
<!-- Node6 -->
<g id="node6" class="node"><title>Node6</title>
<g id="a_node6"><a xlink:href="../../d5/da5/classsimulation_objects_1_1_patch.html#ac05b7dd86c9f30b498d93d62cbbba9a4" target="_top" xlink:title="simulationObjects.Patch.addCell">
<polygon fill="white" stroke="black" points="394,-81.5 394,-100.5 564,-100.5 564,-81.5 394,-81.5"/>
<text text-anchor="middle" x="479" y="-88.5" font-family="Helvetica,sans-Serif" font-size="10.00">simulationObjects.Patch.addCell</text>
</a>
</g>
</g>
<!-- Node5&#45;&gt;Node6 -->
<g id="edge5" class="edge"><title>Node5&#45;&gt;Node6</title>
<path fill="none" stroke="midnightblue" d="M336.045,-146.885C343.568,-143.97 351.107,-140.666 358,-137 375.657,-127.608 375.846,-118.391 394,-110 399.304,-107.548 404.946,-105.403 410.699,-103.526"/>
<polygon fill="midnightblue" stroke="midnightblue" points="411.865,-106.831 420.446,-100.617 409.862,-100.123 411.865,-106.831"/>
</g>
<!-- Node11 -->
<g id="node11" class="node"><title>Node11</title>
<g id="a_node11"><a xlink:href="../../d5/da5/classsimulation_objects_1_1_patch.html#aa905a0fdf2a84eae5e69619a1af300c9" target="_top" xlink:title="simulationObjects.Patch.get\lGridX">
<polygon fill="white" stroke="black" points="404,-169 404,-199 554,-199 554,-169 404,-169"/>
<text text-anchor="start" x="412" y="-187" font-family="Helvetica,sans-Serif" font-size="10.00">simulationObjects.Patch.get</text>
<text text-anchor="middle" x="479" y="-176" font-family="Helvetica,sans-Serif" font-size="10.00">GridX</text>
</a>
</g>
</g>
<!-- Node5&#45;&gt;Node11 -->
<g id="edge11" class="edge"><title>Node5&#45;&gt;Node11</title>
<path fill="none" stroke="midnightblue" d="M358.04,-170.255C369.761,-171.598 381.992,-172.999 393.97,-174.372"/>
<polygon fill="midnightblue" stroke="midnightblue" points="393.622,-177.855 403.956,-175.516 394.419,-170.9 393.622,-177.855"/>
</g>
<!-- Node12 -->
<g id="node12" class="node"><title>Node12</title>
<g id="a_node12"><a xlink:href="../../d5/da5/classsimulation_objects_1_1_patch.html#abdbebdfb8cb45838007180c12b5bfe79" target="_top" xlink:title="simulationObjects.Patch.get\lGridY">
<polygon fill="white" stroke="black" points="404,-120 404,-150 554,-150 554,-120 404,-120"/>
<text text-anchor="start" x="412" y="-138" font-family="Helvetica,sans-Serif" font-size="10.00">simulationObjects.Patch.get</text>
<text text-anchor="middle" x="479" y="-127" font-family="Helvetica,sans-Serif" font-size="10.00">GridY</text>
</a>
</g>
</g>
<!-- Node5&#45;&gt;Node12 -->
<g id="edge12" class="edge"><title>Node5&#45;&gt;Node12</title>
<path fill="none" stroke="midnightblue" d="M358.04,-151.869C369.761,-150.221 381.992,-148.501 393.97,-146.817"/>
<polygon fill="midnightblue" stroke="midnightblue" points="394.54,-150.271 403.956,-145.413 393.566,-143.339 394.54,-150.271"/>
</g>
<!-- Node13 -->
<g id="node13" class="node"><title>Node13</title>
<g id="a_node13"><a xlink:href="../../db/dee/classsimulation_objects_1_1_predator_cell.html#ac6f2a7e0e14953d619e8ed0773f613bc" target="_top" xlink:title="simulationObjects.Predator\lCell.PredatorCell">
<polygon fill="white" stroke="black" points="406,-218 406,-248 552,-248 552,-218 406,-218"/>
<text text-anchor="start" x="414" y="-236" font-family="Helvetica,sans-Serif" font-size="10.00">simulationObjects.Predator</text>
<text text-anchor="middle" x="479" y="-225" font-family="Helvetica,sans-Serif" font-size="10.00">Cell.PredatorCell</text>
</a>
</g>
</g>
<!-- Node5&#45;&gt;Node13 -->
<g id="edge13" class="edge"><title>Node5&#45;&gt;Node13</title>
<path fill="none" stroke="midnightblue" d="M318.702,-177.074C339.923,-186.57 368.309,-198.739 394,-208 400.444,-210.323 407.218,-212.601 414.009,-214.78"/>
<polygon fill="midnightblue" stroke="midnightblue" points="413.342,-218.239 423.931,-217.894 415.438,-211.56 413.342,-218.239"/>
</g>
<!-- Node6&#45;&gt;Node3 -->
<g id="edge6" class="edge"><title>Node6&#45;&gt;Node3</title>
<path fill="none" stroke="midnightblue" d="M529.402,-81.4907C560.475,-75.5095 600.755,-67.756 633.571,-61.4393"/>
<polygon fill="midnightblue" stroke="midnightblue" points="634.339,-64.8558 643.498,-59.5286 633.016,-57.982 634.339,-64.8558"/>
</g>
<!-- Node7 -->
<g id="node7" class="node"><title>Node7</title>
<g id="a_node7"><a xlink:href="../../d5/da5/classsimulation_objects_1_1_patch.html#a06f00537a57f3678cf147c580b92de0d" target="_top" xlink:title="simulationObjects.Patch.update\lCellConstraints">
<polygon fill="white" stroke="black" points="610,-79 610,-109 778,-109 778,-79 610,-79"/>
<text text-anchor="start" x="618" y="-97" font-family="Helvetica,sans-Serif" font-size="10.00">simulationObjects.Patch.update</text>
<text text-anchor="middle" x="694" y="-86" font-family="Helvetica,sans-Serif" font-size="10.00">CellConstraints</text>
</a>
</g>
</g>
<!-- Node6&#45;&gt;Node7 -->
<g id="edge7" class="edge"><title>Node6&#45;&gt;Node7</title>
<path fill="none" stroke="midnightblue" d="M564.183,-92.1857C575.785,-92.3491 587.757,-92.5177 599.514,-92.6833"/>
<polygon fill="midnightblue" stroke="midnightblue" points="599.728,-96.1866 609.776,-92.8278 599.827,-89.1873 599.728,-96.1866"/>
</g>
<!-- Node8 -->
<g id="node8" class="node"><title>Node8</title>
<g id="a_node8"><a xlink:href="../../d0/d1a/classsimulation_objects_1_1_patch_body.html#a7be1762ade4eaee79c26ac524eb97f33" target="_top" xlink:title="simulationObjects.PatchBody.get\lCenter">
<polygon fill="white" stroke="black" points="824.5,-128 824.5,-158 997.5,-158 997.5,-128 824.5,-128"/>
<text text-anchor="start" x="832.5" y="-146" font-family="Helvetica,sans-Serif" font-size="10.00">simulationObjects.PatchBody.get</text>
<text text-anchor="middle" x="911" y="-135" font-family="Helvetica,sans-Serif" font-size="10.00">Center</text>
</a>
</g>
</g>
<!-- Node7&#45;&gt;Node8 -->
<g id="edge8" class="edge"><title>Node7&#45;&gt;Node8</title>
<path fill="none" stroke="midnightblue" d="M760.968,-109.035C784.185,-114.326 810.456,-120.313 834.404,-125.771"/>
<polygon fill="midnightblue" stroke="midnightblue" points="833.629,-129.184 844.157,-127.994 835.184,-122.359 833.629,-129.184"/>
</g>
<!-- Node9 -->
<g id="node9" class="node"><title>Node9</title>
<g id="a_node9"><a xlink:href="../../d0/d1a/classsimulation_objects_1_1_patch_body.html#a268e88a7cb1f5feb98f49e230475c2ba" target="_top" xlink:title="simulationObjects.PatchBody.get\lPatchHeight">
<polygon fill="white" stroke="black" points="824.5,-79 824.5,-109 997.5,-109 997.5,-79 824.5,-79"/>
<text text-anchor="start" x="832.5" y="-97" font-family="Helvetica,sans-Serif" font-size="10.00">simulationObjects.PatchBody.get</text>
<text text-anchor="middle" x="911" y="-86" font-family="Helvetica,sans-Serif" font-size="10.00">PatchHeight</text>
</a>
</g>
</g>
<!-- Node7&#45;&gt;Node9 -->
<g id="edge9" class="edge"><title>Node7&#45;&gt;Node9</title>
<path fill="none" stroke="midnightblue" d="M778.125,-94C789.941,-94 802.173,-94 814.206,-94"/>
<polygon fill="midnightblue" stroke="midnightblue" points="814.254,-97.5001 824.254,-94 814.254,-90.5001 814.254,-97.5001"/>
</g>
<!-- Node10 -->
<g id="node10" class="node"><title>Node10</title>
<g id="a_node10"><a xlink:href="../../d0/d1a/classsimulation_objects_1_1_patch_body.html#a466dadbe30fb2f8360163881e0db9295" target="_top" xlink:title="simulationObjects.PatchBody.get\lPatchWidth">
<polygon fill="white" stroke="black" points="824.5,-30 824.5,-60 997.5,-60 997.5,-30 824.5,-30"/>
<text text-anchor="start" x="832.5" y="-48" font-family="Helvetica,sans-Serif" font-size="10.00">simulationObjects.PatchBody.get</text>
<text text-anchor="middle" x="911" y="-37" font-family="Helvetica,sans-Serif" font-size="10.00">PatchWidth</text>
</a>
</g>
</g>
<!-- Node7&#45;&gt;Node10 -->
<g id="edge10" class="edge"><title>Node7&#45;&gt;Node10</title>
<path fill="none" stroke="midnightblue" d="M760.968,-78.9654C784.185,-73.6741 810.456,-67.6867 834.404,-62.2288"/>
<polygon fill="midnightblue" stroke="midnightblue" points="835.184,-65.6409 844.157,-60.0062 833.629,-58.8159 835.184,-65.6409"/>
</g>
<!-- Node14 -->
<g id="node14" class="node"><title>Node14</title>
<g id="a_node14"><a xlink:href="../../db/dee/classsimulation_objects_1_1_predator_cell.html#ae280edbc80128008359fda053d018a67" target="_top" xlink:title="simulationObjects.Predator\lCell.initializeParameters">
<polygon fill="white" stroke="black" points="621,-218 621,-248 767,-248 767,-218 621,-218"/>
<text text-anchor="start" x="629" y="-236" font-family="Helvetica,sans-Serif" font-size="10.00">simulationObjects.Predator</text>
<text text-anchor="middle" x="694" y="-225" font-family="Helvetica,sans-Serif" font-size="10.00">Cell.initializeParameters</text>
</a>
</g>
</g>
<!-- Node13&#45;&gt;Node14 -->
<g id="edge14" class="edge"><title>Node13&#45;&gt;Node14</title>
<path fill="none" stroke="midnightblue" d="M552.112,-233C571.023,-233 591.554,-233 610.942,-233"/>
<polygon fill="midnightblue" stroke="midnightblue" points="610.962,-236.5 620.962,-233 610.962,-229.5 610.962,-236.5"/>
</g>
<!-- Node15&#45;&gt;Node3 -->
<g id="edge17" class="edge"><title>Node15&#45;&gt;Node3</title>
<path fill="none" stroke="midnightblue" d="M358.294,-61.5132C422.654,-59.2994 517.536,-56.0356 589.858,-53.5479"/>
<polygon fill="midnightblue" stroke="midnightblue" points="590.034,-57.044 599.908,-53.2022 589.794,-50.0481 590.034,-57.044"/>
</g>
<!-- Node15&#45;&gt;Node6 -->
<g id="edge16" class="edge"><title>Node15&#45;&gt;Node6</title>
<path fill="none" stroke="midnightblue" d="M358.04,-74.1306C371.826,-76.0692 386.315,-78.1069 400.27,-80.0693"/>
<polygon fill="midnightblue" stroke="midnightblue" points="399.93,-83.5557 410.32,-81.4824 400.904,-76.6239 399.93,-83.5557"/>
</g>
</g>
</svg>
