<?xml version="1.0" encoding="UTF-8" standalone="no"?>
<!DOCTYPE svg PUBLIC "-//W3C//DTD SVG 1.1//EN"
 "http://www.w3.org/Graphics/SVG/1.1/DTD/svg11.dtd">
<!-- Generated by graphviz version 2.36.0 (20140111.2315)
 -->
<!-- Title: simulationObjects.PredatorCell.update Pages: 1 -->
<!--zoomable 379 -->
<svg id="main" version="1.1" xmlns="http://www.w3.org/2000/svg" xmlns:xlink="http://www.w3.org/1999/xlink" xml:space="preserve" onload="init(evt)">
<style type="text/css"><![CDATA[
.edge:hover path { stroke: red; }
.edge:hover polygon { stroke: red; fill: red; }
]]></style>
<script type="text/javascript"><![CDATA[
var edges = document.getElementsByTagName('g');
if (edges && edges.length) {
  for (var i=0;i<edges.length;i++) {
    if (edges[i].id.substr(0,4)=='edge') {
      edges[i].setAttribute('class','edge');
    }
  }
}
]]></script>
        <defs>
                <circle id="rim" cx="0" cy="0" r="7"/>
                <circle id="rim2" cx="0" cy="0" r="3.5"/>
                <g id="zoomPlus">
                        <use xlink:href="#rim" fill="#404040">
                                <set attributeName="fill" to="#808080" begin="zoomplus.mouseover" end="zoomplus.mouseout"/>
                        </use>
                        <path d="M-4,0h8M0,-4v8" fill="none" stroke="white" stroke-width="1.5" pointer-events="none"/>
                </g>
                <g id="zoomMin">
                        <use xlink:href="#rim" fill="#404040">
                                <set attributeName="fill" to="#808080" begin="zoomminus.mouseover" end="zoomminus.mouseout"/>
                        </use>
                        <path d="M-4,0h8" fill="none" stroke="white" stroke-width="1.5" pointer-events="none"/>
                </g>
                <g id="dirArrow">
                        <path fill="none" stroke="white" stroke-width="1.5" d="M0,-3.0v7 M-2.5,-0.5L0,-3.0L2.5,-0.5"/>
                </g>
               <g id="resetDef">
                       <use xlink:href="#rim2" fill="#404040">
                               <set attributeName="fill" to="#808080" begin="reset.mouseover" end="reset.mouseout"/>
                       </use>
               </g>
        </defs>

<script type="text/javascript">
var viewWidth = 1216;
var viewHeight = 379;
var sectionId = 'dynsection-19';
</script>
<script xlink:href="../../svgpan.js"/>
<svg id="graph" class="graph">
<g id="viewport">
<title>simulationObjects.PredatorCell.update</title>
<polygon fill="white" stroke="none" points="-4,4 -4,-375 1212,-375 1212,4 -4,4"/>
<!-- Node1 -->
<g id="node1" class="node"><title>Node1</title>
<polygon fill="#bfbfbf" stroke="black" points="0,-292 0,-322 146,-322 146,-292 0,-292"/>
<text text-anchor="start" x="8" y="-310" font-family="Helvetica,sans-Serif" font-size="10.00">simulationObjects.Predator</text>
<text text-anchor="middle" x="73" y="-299" font-family="Helvetica,sans-Serif" font-size="10.00">Cell.update</text>
</g>
<!-- Node2 -->
<g id="node2" class="node"><title>Node2</title>
<g id="a_node2"><a xlink:href="../../db/dee/classsimulation_objects_1_1_predator_cell.html#accb390ed661d175bf8400145c8d47dad" target="_top" xlink:title="simulationObjects.Predator\lCell.chooseMove">
<polygon fill="white" stroke="black" points="197,-341 197,-371 343,-371 343,-341 197,-341"/>
<text text-anchor="start" x="205" y="-359" font-family="Helvetica,sans-Serif" font-size="10.00">simulationObjects.Predator</text>
<text text-anchor="middle" x="270" y="-348" font-family="Helvetica,sans-Serif" font-size="10.00">Cell.chooseMove</text>
</a>
</g>
</g>
<!-- Node1&#45;&gt;Node2 -->
<g id="edge1" class="edge"><title>Node1&#45;&gt;Node2</title>
<path fill="none" stroke="midnightblue" d="M133.832,-322.035C154.608,-327.255 178.081,-333.154 199.567,-338.553"/>
<polygon fill="midnightblue" stroke="midnightblue" points="198.73,-341.951 209.282,-340.994 200.436,-335.162 198.73,-341.951"/>
</g>
<!-- Node5 -->
<g id="node5" class="node"><title>Node5</title>
<g id="a_node5"><a xlink:href="../../db/dee/classsimulation_objects_1_1_predator_cell.html#afaebfc71f9b5ee067fda0be8389dc777" target="_top" xlink:title="simulationObjects.Predator\lCell.setState">
<polygon fill="white" stroke="black" points="197,-292 197,-322 343,-322 343,-292 197,-292"/>
<text text-anchor="start" x="205" y="-310" font-family="Helvetica,sans-Serif" font-size="10.00">simulationObjects.Predator</text>
<text text-anchor="middle" x="270" y="-299" font-family="Helvetica,sans-Serif" font-size="10.00">Cell.setState</text>
</a>
</g>
</g>
<!-- Node1&#45;&gt;Node5 -->
<g id="edge4" class="edge"><title>Node1&#45;&gt;Node5</title>
<path fill="none" stroke="midnightblue" d="M146.057,-307C159.284,-307 173.184,-307 186.685,-307"/>
<polygon fill="midnightblue" stroke="midnightblue" points="186.914,-310.5 196.914,-307 186.914,-303.5 186.914,-310.5"/>
</g>
<!-- Node7 -->
<g id="node7" class="node"><title>Node7</title>
<g id="a_node7"><a xlink:href="../../db/dee/classsimulation_objects_1_1_predator_cell.html#a0f04c13ccdd5e4845f2e5975ec63952f" target="_top" xlink:title="simulationObjects.Predator\lCell.updateStatesandMakeMoves">
<polygon fill="white" stroke="black" points="182,-207 182,-237 358,-237 358,-207 182,-207"/>
<text text-anchor="start" x="190" y="-225" font-family="Helvetica,sans-Serif" font-size="10.00">simulationObjects.Predator</text>
<text text-anchor="middle" x="270" y="-214" font-family="Helvetica,sans-Serif" font-size="10.00">Cell.updateStatesandMakeMoves</text>
</a>
</g>
</g>
<!-- Node1&#45;&gt;Node7 -->
<g id="edge6" class="edge"><title>Node1&#45;&gt;Node7</title>
<path fill="none" stroke="midnightblue" d="M108.413,-291.999C140.794,-277.885 189.444,-256.678 224.708,-241.307"/>
<polygon fill="midnightblue" stroke="midnightblue" points="226.506,-244.341 234.275,-237.137 223.709,-237.924 226.506,-244.341"/>
</g>
<!-- Node3 -->
<g id="node3" class="node"><title>Node3</title>
<g id="a_node3"><a xlink:href="../../db/dee/classsimulation_objects_1_1_predator_cell.html#a81b7e97d389dbd9dd60f32fb226f88ea" target="_top" xlink:title="simulationObjects.Predator\lCell.processPossibleDestinations">
<polygon fill="white" stroke="black" points="394.5,-341 394.5,-371 567.5,-371 567.5,-341 394.5,-341"/>
<text text-anchor="start" x="402.5" y="-359" font-family="Helvetica,sans-Serif" font-size="10.00">simulationObjects.Predator</text>
<text text-anchor="middle" x="481" y="-348" font-family="Helvetica,sans-Serif" font-size="10.00">Cell.processPossibleDestinations</text>
</a>
</g>
</g>
<!-- Node2&#45;&gt;Node3 -->
<g id="edge2" class="edge"><title>Node2&#45;&gt;Node3</title>
<path fill="none" stroke="midnightblue" d="M343.219,-356C356.511,-356 370.576,-356 384.43,-356"/>
<polygon fill="midnightblue" stroke="midnightblue" points="384.466,-359.5 394.466,-356 384.466,-352.5 384.466,-359.5"/>
</g>
<!-- Node4 -->
<g id="node4" class="node"><title>Node4</title>
<g id="a_node4"><a xlink:href="../../d2/d6e/classsimulation_objects_1_1_cell.html#a7d7b09f9e92254d6b2176e8593ce5c21" target="_top" xlink:title="simulationObjects.Cell.get\lState">
<polygon fill="white" stroke="black" points="618.5,-341 618.5,-371 759.5,-371 759.5,-341 618.5,-341"/>
<text text-anchor="start" x="626.5" y="-359" font-family="Helvetica,sans-Serif" font-size="10.00">simulationObjects.Cell.get</text>
<text text-anchor="middle" x="689" y="-348" font-family="Helvetica,sans-Serif" font-size="10.00">State</text>
</a>
</g>
</g>
<!-- Node3&#45;&gt;Node4 -->
<g id="edge3" class="edge"><title>Node3&#45;&gt;Node4</title>
<path fill="none" stroke="midnightblue" d="M567.573,-356C581.051,-356 594.938,-356 608.276,-356"/>
<polygon fill="midnightblue" stroke="midnightblue" points="608.353,-359.5 618.353,-356 608.353,-352.5 608.353,-359.5"/>
</g>
<!-- Node6 -->
<g id="node6" class="node"><title>Node6</title>
<g id="a_node6"><a xlink:href="../../de/d7a/classcontroller_1_1_grid_info.html#aa4604331decd6c710c086e9792c6f251" target="_top" xlink:title="controller.GridInfo.getColor">
<polygon fill="white" stroke="black" points="409,-300.5 409,-319.5 553,-319.5 553,-300.5 409,-300.5"/>
<text text-anchor="middle" x="481" y="-307.5" font-family="Helvetica,sans-Serif" font-size="10.00">controller.GridInfo.getColor</text>
</a>
</g>
</g>
<!-- Node5&#45;&gt;Node6 -->
<g id="edge5" class="edge"><title>Node5&#45;&gt;Node6</title>
<path fill="none" stroke="midnightblue" d="M343.219,-308.037C361.138,-308.294 380.462,-308.571 398.781,-308.834"/>
<polygon fill="midnightblue" stroke="midnightblue" points="398.79,-312.335 408.839,-308.979 398.89,-305.335 398.79,-312.335"/>
</g>
<!-- Node8 -->
<g id="node8" class="node"><title>Node8</title>
<g id="a_node8"><a xlink:href="../../d5/da5/classsimulation_objects_1_1_patch.html#a84e7580a85285441a2caf058f977f237" target="_top" xlink:title="simulationObjects.Patch.is\lEmpty">
<polygon fill="white" stroke="black" points="410,-251 410,-281 552,-281 552,-251 410,-251"/>
<text text-anchor="start" x="418" y="-269" font-family="Helvetica,sans-Serif" font-size="10.00">simulationObjects.Patch.is</text>
<text text-anchor="middle" x="481" y="-258" font-family="Helvetica,sans-Serif" font-size="10.00">Empty</text>
</a>
</g>
</g>
<!-- Node7&#45;&gt;Node8 -->
<g id="edge7" class="edge"><title>Node7&#45;&gt;Node8</title>
<path fill="none" stroke="midnightblue" d="M342.341,-237.019C360.87,-240.92 380.951,-245.147 399.898,-249.136"/>
<polygon fill="midnightblue" stroke="midnightblue" points="399.182,-252.562 409.688,-251.198 400.624,-245.712 399.182,-252.562"/>
</g>
<!-- Node9 -->
<g id="node9" class="node"><title>Node9</title>
<g id="a_node9"><a xlink:href="../../db/dee/classsimulation_objects_1_1_predator_cell.html#a9bb0b62fbecbaf439f7e8552ff74c567" target="_top" xlink:title="simulationObjects.Predator\lCell.feed">
<polygon fill="white" stroke="black" points="616,-224 616,-254 762,-254 762,-224 616,-224"/>
<text text-anchor="start" x="624" y="-242" font-family="Helvetica,sans-Serif" font-size="10.00">simulationObjects.Predator</text>
<text text-anchor="middle" x="689" y="-231" font-family="Helvetica,sans-Serif" font-size="10.00">Cell.feed</text>
</a>
</g>
</g>
<!-- Node7&#45;&gt;Node9 -->
<g id="edge8" class="edge"><title>Node7&#45;&gt;Node9</title>
<path fill="none" stroke="midnightblue" d="M358.163,-225.553C430.984,-228.522 534.093,-232.726 605.562,-235.639"/>
<polygon fill="midnightblue" stroke="midnightblue" points="605.736,-239.149 615.87,-236.059 606.021,-232.155 605.736,-239.149"/>
</g>
<!-- Node11 -->
<g id="node11" class="node"><title>Node11</title>
<g id="a_node11"><a xlink:href="../../db/dee/classsimulation_objects_1_1_predator_cell.html#a7d74aa75e5e49981396b561c6badf01c" target="_top" xlink:title="simulationObjects.Predator\lCell.makeMove">
<polygon fill="white" stroke="black" points="408,-163 408,-193 554,-193 554,-163 408,-163"/>
<text text-anchor="start" x="416" y="-181" font-family="Helvetica,sans-Serif" font-size="10.00">simulationObjects.Predator</text>
<text text-anchor="middle" x="481" y="-170" font-family="Helvetica,sans-Serif" font-size="10.00">Cell.makeMove</text>
</a>
</g>
</g>
<!-- Node7&#45;&gt;Node11 -->
<g id="edge10" class="edge"><title>Node7&#45;&gt;Node11</title>
<path fill="none" stroke="midnightblue" d="M342.341,-206.981C360.484,-203.161 380.115,-199.028 398.713,-195.113"/>
<polygon fill="midnightblue" stroke="midnightblue" points="399.561,-198.511 408.626,-193.026 398.119,-191.661 399.561,-198.511"/>
</g>
<!-- Node17 -->
<g id="node17" class="node"><title>Node17</title>
<g id="a_node17"><a xlink:href="../../db/dee/classsimulation_objects_1_1_predator_cell.html#a681bdcb9944d91e15325e477aad1b449" target="_top" xlink:title="simulationObjects.Predator\lCell.leaveEgg">
<polygon fill="white" stroke="black" points="408,-98 408,-128 554,-128 554,-98 408,-98"/>
<text text-anchor="start" x="416" y="-116" font-family="Helvetica,sans-Serif" font-size="10.00">simulationObjects.Predator</text>
<text text-anchor="middle" x="481" y="-105" font-family="Helvetica,sans-Serif" font-size="10.00">Cell.leaveEgg</text>
</a>
</g>
</g>
<!-- Node7&#45;&gt;Node17 -->
<g id="edge18" class="edge"><title>Node7&#45;&gt;Node17</title>
<path fill="none" stroke="midnightblue" d="M296.606,-206.885C321.275,-192.504 359.785,-170.522 394,-153 407.695,-145.987 422.849,-138.764 436.574,-132.42"/>
<polygon fill="midnightblue" stroke="midnightblue" points="438.182,-135.533 445.811,-128.181 435.262,-129.171 438.182,-135.533"/>
</g>
<!-- Node10 -->
<g id="node10" class="node"><title>Node10</title>
<g id="a_node10"><a xlink:href="../../d5/da5/classsimulation_objects_1_1_patch.html#ac18f8e7cdd82ed885a6a92f066da2d38" target="_top" xlink:title="simulationObjects.Patch.removeCell">
<polygon fill="white" stroke="black" points="810,-188.5 810,-207.5 998,-207.5 998,-188.5 810,-188.5"/>
<text text-anchor="middle" x="904" y="-195.5" font-family="Helvetica,sans-Serif" font-size="10.00">simulationObjects.Patch.removeCell</text>
</a>
</g>
</g>
<!-- Node9&#45;&gt;Node10 -->
<g id="edge9" class="edge"><title>Node9&#45;&gt;Node10</title>
<path fill="none" stroke="midnightblue" d="M762.112,-225.119C788.525,-220.035 818.098,-214.343 843.305,-209.491"/>
<polygon fill="midnightblue" stroke="midnightblue" points="844.297,-212.864 853.456,-207.537 842.974,-205.99 844.297,-212.864"/>
</g>
<!-- Node11&#45;&gt;Node10 -->
<g id="edge17" class="edge"><title>Node11&#45;&gt;Node10</title>
<path fill="none" stroke="midnightblue" d="M554.372,-181.438C621.984,-184.65 723.634,-189.479 799.752,-193.095"/>
<polygon fill="midnightblue" stroke="midnightblue" points="799.69,-196.596 809.845,-193.575 800.022,-189.604 799.69,-196.596"/>
</g>
<!-- Node12 -->
<g id="node12" class="node"><title>Node12</title>
<g id="a_node12"><a xlink:href="../../d5/da5/classsimulation_objects_1_1_patch.html#ac05b7dd86c9f30b498d93d62cbbba9a4" target="_top" xlink:title="simulationObjects.Patch.addCell">
<polygon fill="white" stroke="black" points="604,-147.5 604,-166.5 774,-166.5 774,-147.5 604,-147.5"/>
<text text-anchor="middle" x="689" y="-154.5" font-family="Helvetica,sans-Serif" font-size="10.00">simulationObjects.Patch.addCell</text>
</a>
</g>
</g>
<!-- Node11&#45;&gt;Node12 -->
<g id="edge11" class="edge"><title>Node11&#45;&gt;Node12</title>
<path fill="none" stroke="midnightblue" d="M554.049,-170.655C566.9,-169.345 580.461,-167.963 593.821,-166.601"/>
<polygon fill="midnightblue" stroke="midnightblue" points="594.391,-170.061 603.984,-165.565 593.681,-163.097 594.391,-170.061"/>
</g>
<!-- Node12&#45;&gt;Node10 -->
<g id="edge12" class="edge"><title>Node12&#45;&gt;Node10</title>
<path fill="none" stroke="midnightblue" d="M739.402,-166.509C770.475,-172.491 810.755,-180.244 843.571,-186.561"/>
<polygon fill="midnightblue" stroke="midnightblue" points="843.016,-190.018 853.498,-188.471 844.339,-183.144 843.016,-190.018"/>
</g>
<!-- Node13 -->
<g id="node13" class="node"><title>Node13</title>
<g id="a_node13"><a xlink:href="../../d5/da5/classsimulation_objects_1_1_patch.html#a06f00537a57f3678cf147c580b92de0d" target="_top" xlink:title="simulationObjects.Patch.update\lCellConstraints">
<polygon fill="white" stroke="black" points="820,-139 820,-169 988,-169 988,-139 820,-139"/>
<text text-anchor="start" x="828" y="-157" font-family="Helvetica,sans-Serif" font-size="10.00">simulationObjects.Patch.update</text>
<text text-anchor="middle" x="904" y="-146" font-family="Helvetica,sans-Serif" font-size="10.00">CellConstraints</text>
</a>
</g>
</g>
<!-- Node12&#45;&gt;Node13 -->
<g id="edge13" class="edge"><title>Node12&#45;&gt;Node13</title>
<path fill="none" stroke="midnightblue" d="M774.183,-155.814C785.785,-155.651 797.757,-155.482 809.514,-155.317"/>
<polygon fill="midnightblue" stroke="midnightblue" points="809.827,-158.813 819.776,-155.172 809.728,-151.813 809.827,-158.813"/>
</g>
<!-- Node14 -->
<g id="node14" class="node"><title>Node14</title>
<g id="a_node14"><a xlink:href="../../d0/d1a/classsimulation_objects_1_1_patch_body.html#a7be1762ade4eaee79c26ac524eb97f33" target="_top" xlink:title="simulationObjects.PatchBody.get\lCenter">
<polygon fill="white" stroke="black" points="1034.5,-188 1034.5,-218 1207.5,-218 1207.5,-188 1034.5,-188"/>
<text text-anchor="start" x="1042.5" y="-206" font-family="Helvetica,sans-Serif" font-size="10.00">simulationObjects.PatchBody.get</text>
<text text-anchor="middle" x="1121" y="-195" font-family="Helvetica,sans-Serif" font-size="10.00">Center</text>
</a>
</g>
</g>
<!-- Node13&#45;&gt;Node14 -->
<g id="edge14" class="edge"><title>Node13&#45;&gt;Node14</title>
<path fill="none" stroke="midnightblue" d="M970.968,-169.035C994.185,-174.326 1020.46,-180.313 1044.4,-185.771"/>
<polygon fill="midnightblue" stroke="midnightblue" points="1043.63,-189.184 1054.16,-187.994 1045.18,-182.359 1043.63,-189.184"/>
</g>
<!-- Node15 -->
<g id="node15" class="node"><title>Node15</title>
<g id="a_node15"><a xlink:href="../../d0/d1a/classsimulation_objects_1_1_patch_body.html#a268e88a7cb1f5feb98f49e230475c2ba" target="_top" xlink:title="simulationObjects.PatchBody.get\lPatchHeight">
<polygon fill="white" stroke="black" points="1034.5,-139 1034.5,-169 1207.5,-169 1207.5,-139 1034.5,-139"/>
<text text-anchor="start" x="1042.5" y="-157" font-family="Helvetica,sans-Serif" font-size="10.00">simulationObjects.PatchBody.get</text>
<text text-anchor="middle" x="1121" y="-146" font-family="Helvetica,sans-Serif" font-size="10.00">PatchHeight</text>
</a>
</g>
</g>
<!-- Node13&#45;&gt;Node15 -->
<g id="edge15" class="edge"><title>Node13&#45;&gt;Node15</title>
<path fill="none" stroke="midnightblue" d="M988.125,-154C999.941,-154 1012.17,-154 1024.21,-154"/>
<polygon fill="midnightblue" stroke="midnightblue" points="1024.25,-157.5 1034.25,-154 1024.25,-150.5 1024.25,-157.5"/>
</g>
<!-- Node16 -->
<g id="node16" class="node"><title>Node16</title>
<g id="a_node16"><a xlink:href="../../d0/d1a/classsimulation_objects_1_1_patch_body.html#a466dadbe30fb2f8360163881e0db9295" target="_top" xlink:title="simulationObjects.PatchBody.get\lPatchWidth">
<polygon fill="white" stroke="black" points="1034.5,-90 1034.5,-120 1207.5,-120 1207.5,-90 1034.5,-90"/>
<text text-anchor="start" x="1042.5" y="-108" font-family="Helvetica,sans-Serif" font-size="10.00">simulationObjects.PatchBody.get</text>
<text text-anchor="middle" x="1121" y="-97" font-family="Helvetica,sans-Serif" font-size="10.00">PatchWidth</text>
</a>
</g>
</g>
<!-- Node13&#45;&gt;Node16 -->
<g id="edge16" class="edge"><title>Node13&#45;&gt;Node16</title>
<path fill="none" stroke="midnightblue" d="M970.968,-138.965C994.185,-133.674 1020.46,-127.687 1044.4,-122.229"/>
<polygon fill="midnightblue" stroke="midnightblue" points="1045.18,-125.641 1054.16,-120.006 1043.63,-118.816 1045.18,-125.641"/>
</g>
<!-- Node17&#45;&gt;Node12 -->
<g id="edge19" class="edge"><title>Node17&#45;&gt;Node12</title>
<path fill="none" stroke="midnightblue" d="M552.317,-128.019C578.85,-133.686 608.61,-140.043 633.483,-145.356"/>
<polygon fill="midnightblue" stroke="midnightblue" points="632.954,-148.821 643.465,-147.488 634.416,-141.976 632.954,-148.821"/>
</g>
<!-- Node18 -->
<g id="node18" class="node"><title>Node18</title>
<g id="a_node18"><a xlink:href="../../d5/da5/classsimulation_objects_1_1_patch.html#aa905a0fdf2a84eae5e69619a1af300c9" target="_top" xlink:title="simulationObjects.Patch.get\lGridX">
<polygon fill="white" stroke="black" points="614,-98 614,-128 764,-128 764,-98 614,-98"/>
<text text-anchor="start" x="622" y="-116" font-family="Helvetica,sans-Serif" font-size="10.00">simulationObjects.Patch.get</text>
<text text-anchor="middle" x="689" y="-105" font-family="Helvetica,sans-Serif" font-size="10.00">GridX</text>
</a>
</g>
</g>
<!-- Node17&#45;&gt;Node18 -->
<g id="edge20" class="edge"><title>Node17&#45;&gt;Node18</title>
<path fill="none" stroke="midnightblue" d="M554.049,-113C570.095,-113 587.245,-113 603.733,-113"/>
<polygon fill="midnightblue" stroke="midnightblue" points="603.898,-116.5 613.898,-113 603.898,-109.5 603.898,-116.5"/>
</g>
<!-- Node19 -->
<g id="node19" class="node"><title>Node19</title>
<g id="a_node19"><a xlink:href="../../d5/da5/classsimulation_objects_1_1_patch.html#abdbebdfb8cb45838007180c12b5bfe79" target="_top" xlink:title="simulationObjects.Patch.get\lGridY">
<polygon fill="white" stroke="black" points="614,-49 614,-79 764,-79 764,-49 614,-49"/>
<text text-anchor="start" x="622" y="-67" font-family="Helvetica,sans-Serif" font-size="10.00">simulationObjects.Patch.get</text>
<text text-anchor="middle" x="689" y="-56" font-family="Helvetica,sans-Serif" font-size="10.00">GridY</text>
</a>
</g>
</g>
<!-- Node17&#45;&gt;Node19 -->
<g id="edge21" class="edge"><title>Node17&#45;&gt;Node19</title>
<path fill="none" stroke="midnightblue" d="M545.207,-97.9654C567.254,-92.7211 592.176,-86.7931 614.956,-81.3745"/>
<polygon fill="midnightblue" stroke="midnightblue" points="615.994,-84.7253 624.913,-79.0062 614.374,-77.9153 615.994,-84.7253"/>
</g>
<!-- Node20 -->
<g id="node20" class="node"><title>Node20</title>
<g id="a_node20"><a xlink:href="../../db/dee/classsimulation_objects_1_1_predator_cell.html#ac6f2a7e0e14953d619e8ed0773f613bc" target="_top" xlink:title="simulationObjects.Predator\lCell.PredatorCell">
<polygon fill="white" stroke="black" points="616,-0 616,-30 762,-30 762,-0 616,-0"/>
<text text-anchor="start" x="624" y="-18" font-family="Helvetica,sans-Serif" font-size="10.00">simulationObjects.Predator</text>
<text text-anchor="middle" x="689" y="-7" font-family="Helvetica,sans-Serif" font-size="10.00">Cell.PredatorCell</text>
</a>
</g>
</g>
<!-- Node17&#45;&gt;Node20 -->
<g id="edge22" class="edge"><title>Node17&#45;&gt;Node20</title>
<path fill="none" stroke="midnightblue" d="M503.088,-97.7974C526.688,-81.3713 566.542,-55.359 604,-39 608.456,-37.0537 613.114,-35.2185 617.853,-33.4971"/>
<polygon fill="midnightblue" stroke="midnightblue" points="619.338,-36.6875 627.655,-30.1242 617.061,-30.0684 619.338,-36.6875"/>
</g>
<!-- Node21 -->
<g id="node21" class="node"><title>Node21</title>
<g id="a_node21"><a xlink:href="../../db/dee/classsimulation_objects_1_1_predator_cell.html#ae280edbc80128008359fda053d018a67" target="_top" xlink:title="simulationObjects.Predator\lCell.initializeParameters">
<polygon fill="white" stroke="black" points="831,-0 831,-30 977,-30 977,-0 831,-0"/>
<text text-anchor="start" x="839" y="-18" font-family="Helvetica,sans-Serif" font-size="10.00">simulationObjects.Predator</text>
<text text-anchor="middle" x="904" y="-7" font-family="Helvetica,sans-Serif" font-size="10.00">Cell.initializeParameters</text>
</a>
</g>
</g>
<!-- Node20&#45;&gt;Node21 -->
<g id="edge23" class="edge"><title>Node20&#45;&gt;Node21</title>
<path fill="none" stroke="midnightblue" d="M762.112,-15C781.023,-15 801.554,-15 820.942,-15"/>
<polygon fill="midnightblue" stroke="midnightblue" points="820.962,-18.5001 830.962,-15 820.962,-11.5001 820.962,-18.5001"/>
</g>
</g>
</svg>
        <g id="navigator" transform="translate(0 0)" fill="#404254">
                <rect fill="#f2f5e9" fill-opacity="0.5" stroke="#606060" stroke-width=".5" x="0" y="0" width="60" height="60"/>
                <use id="zoomplus" xlink:href="#zoomPlus" x="17" y="9" onmousedown="handleZoom(evt,'in')"/>
                <use id="zoomminus" xlink:href="#zoomMin" x="42" y="9" onmousedown="handleZoom(evt,'out')"/>
                <use id="reset" xlink:href="#resetDef" x="30" y="36" onmousedown="handleReset()"/>
                <g id="arrowUp" xlink:href="#dirArrow" transform="translate(30 24)" onmousedown="handlePan(0,-1)">
                  <use xlink:href="#rim" fill="#404040">
                        <set attributeName="fill" to="#808080" begin="arrowUp.mouseover" end="arrowUp.mouseout"/>
                  </use>
                  <path fill="none" stroke="white" stroke-width="1.5" d="M0,-3.0v7 M-2.5,-0.5L0,-3.0L2.5,-0.5"/>
                </g>
                <g id="arrowRight" xlink:href="#dirArrow" transform="rotate(90) translate(36 -43)" onmousedown="handlePan(1,0)">
                  <use xlink:href="#rim" fill="#404040">
                        <set attributeName="fill" to="#808080" begin="arrowRight.mouseover" end="arrowRight.mouseout"/>
                  </use>
                  <path fill="none" stroke="white" stroke-width="1.5" d="M0,-3.0v7 M-2.5,-0.5L0,-3.0L2.5,-0.5"/>
                </g>
                <g id="arrowDown" xlink:href="#dirArrow" transform="rotate(180) translate(-30 -48)" onmousedown="handlePan(0,1)">
                  <use xlink:href="#rim" fill="#404040">
                        <set attributeName="fill" to="#808080" begin="arrowDown.mouseover" end="arrowDown.mouseout"/>
                  </use>
                  <path fill="none" stroke="white" stroke-width="1.5" d="M0,-3.0v7 M-2.5,-0.5L0,-3.0L2.5,-0.5"/>
                </g>
                <g id="arrowLeft" xlink:href="#dirArrow" transform="rotate(270) translate(-36 17)" onmousedown="handlePan(-1,0)">
                  <use xlink:href="#rim" fill="#404040">
                        <set attributeName="fill" to="#808080" begin="arrowLeft.mouseover" end="arrowLeft.mouseout"/>
                  </use>
                  <path fill="none" stroke="white" stroke-width="1.5" d="M0,-3.0v7 M-2.5,-0.5L0,-3.0L2.5,-0.5"/>
                </g>
        </g>
        <svg viewBox="0 0 15 15" width="100%" height="30px" preserveAspectRatio="xMaxYMin meet">
         <g id="arrow_out" transform="scale(0.3 0.3)">
          <a xlink:href="classsimulation_objects_1_1_predator_cell_a954732c3db3474e874b5023303baa2ed_cgraph_org.svg" target="_base">
           <rect id="button" ry="5" rx="5" y="6" x="6" height="38" width="38"
                fill="#f2f5e9" fill-opacity="0.5" stroke="#606060" stroke-width="1.0"/>
           <path id="arrow"
             d="M 11.500037,31.436501 C 11.940474,20.09759 22.043105,11.32322 32.158766,21.979434 L 37.068811,17.246167 C 37.068811,17.246167 37.088388,32 37.088388,32 L 22.160133,31.978069 C 22.160133,31.978069 26.997745,27.140456 26.997745,27.140456 C 18.528582,18.264221 13.291696,25.230495 11.500037,31.436501 z"
             style="fill:#404040;"/>
          </a>
         </g>
        </svg>
</svg>
