<?xml version="1.0" encoding="UTF-8" standalone="no"?>
<!DOCTYPE svg PUBLIC "-//W3C//DTD SVG 1.1//EN"
 "http://www.w3.org/Graphics/SVG/1.1/DTD/svg11.dtd">
<!-- Generated by graphviz version 2.36.0 (20140111.2315)
 -->
<!-- Title: simulationObjects.SugarCell.processPossibleDestinations Pages: 1 -->
<svg width="674pt" height="38pt"
 viewBox="0.00 0.00 674.00 38.00" xmlns="http://www.w3.org/2000/svg" xmlns:xlink="http://www.w3.org/1999/xlink">
<g id="graph0" class="graph" transform="scale(1 1) rotate(0) translate(4 34)">
<title>simulationObjects.SugarCell.processPossibleDestinations</title>
<polygon fill="white" stroke="none" points="-4,4 -4,-34 670,-34 670,4 -4,4"/>
<!-- Node1 -->
<g id="node1" class="node"><title>Node1</title>
<polygon fill="#bfbfbf" stroke="black" points="0.5,-0 0.5,-30 191.5,-30 191.5,-0 0.5,-0"/>
<text text-anchor="start" x="8.5" y="-18" font-family="Helvetica,sans-Serif" font-size="10.00">simulationObjects.SugarCell.process</text>
<text text-anchor="middle" x="96" y="-7" font-family="Helvetica,sans-Serif" font-size="10.00">PossibleDestinations</text>
</g>
<!-- Node2 -->
<g id="node2" class="node"><title>Node2</title>
<g id="a_node2"><a xlink:href="../../db/d71/classsimulation_objects_1_1_sugar_cell.html#a72ef8360de960778662504ca2f83170c" target="_top" xlink:title="simulationObjects.SugarCell.chooseMove">
<polygon fill="white" stroke="black" points="228,-5.5 228,-24.5 442,-24.5 442,-5.5 228,-5.5"/>
<text text-anchor="middle" x="335" y="-12.5" font-family="Helvetica,sans-Serif" font-size="10.00">simulationObjects.SugarCell.chooseMove</text>
</a>
</g>
</g>
<!-- Node1&#45;&gt;Node2 -->
<g id="edge1" class="edge"><title>Node1&#45;&gt;Node2</title>
<path fill="none" stroke="midnightblue" d="M201.766,-15C210.398,-15 219.128,-15 227.77,-15"/>
<polygon fill="midnightblue" stroke="midnightblue" points="201.69,-11.5001 191.69,-15 201.69,-18.5001 201.69,-11.5001"/>
</g>
<!-- Node3 -->
<g id="node3" class="node"><title>Node3</title>
<g id="a_node3"><a xlink:href="../../db/d71/classsimulation_objects_1_1_sugar_cell.html#a4f3c5edbe0c43ea62d21a9658fbc11c7" target="_top" xlink:title="simulationObjects.SugarCell.update">
<polygon fill="white" stroke="black" points="478,-5.5 478,-24.5 666,-24.5 666,-5.5 478,-5.5"/>
<text text-anchor="middle" x="572" y="-12.5" font-family="Helvetica,sans-Serif" font-size="10.00">simulationObjects.SugarCell.update</text>
</a>
</g>
</g>
<!-- Node2&#45;&gt;Node3 -->
<g id="edge2" class="edge"><title>Node2&#45;&gt;Node3</title>
<path fill="none" stroke="midnightblue" d="M452.24,-15C460.843,-15 469.455,-15 477.891,-15"/>
<polygon fill="midnightblue" stroke="midnightblue" points="452.156,-11.5001 442.156,-15 452.156,-18.5001 452.156,-11.5001"/>
</g>
</g>
</svg>
