<?xml version="1.0" encoding="UTF-8" standalone="no"?>
<!DOCTYPE svg PUBLIC "-//W3C//DTD SVG 1.1//EN"
 "http://www.w3.org/Graphics/SVG/1.1/DTD/svg11.dtd">
<!-- Generated by graphviz version 2.36.0 (20140111.2315)
 -->
<!-- Title: simulationObjects.SugarCell.update Pages: 1 -->
<svg width="1328pt" height="254pt"
 viewBox="0.00 0.00 1328.00 254.00" xmlns="http://www.w3.org/2000/svg" xmlns:xlink="http://www.w3.org/1999/xlink">
<g id="graph0" class="graph" transform="scale(1 1) rotate(0) translate(4 250)">
<title>simulationObjects.SugarCell.update</title>
<polygon fill="white" stroke="none" points="-4,4 -4,-250 1324,-250 1324,4 -4,4"/>
<!-- Node1 -->
<g id="node1" class="node"><title>Node1</title>
<polygon fill="#bfbfbf" stroke="black" points="0,-128.5 0,-147.5 188,-147.5 188,-128.5 0,-128.5"/>
<text text-anchor="middle" x="94" y="-135.5" font-family="Helvetica,sans-Serif" font-size="10.00">simulationObjects.SugarCell.update</text>
</g>
<!-- Node2 -->
<g id="node2" class="node"><title>Node2</title>
<g id="a_node2"><a xlink:href="../../db/d71/classsimulation_objects_1_1_sugar_cell.html#a72ef8360de960778662504ca2f83170c" target="_top" xlink:title="simulationObjects.SugarCell.chooseMove">
<polygon fill="white" stroke="black" points="224,-172.5 224,-191.5 438,-191.5 438,-172.5 224,-172.5"/>
<text text-anchor="middle" x="331" y="-179.5" font-family="Helvetica,sans-Serif" font-size="10.00">simulationObjects.SugarCell.chooseMove</text>
</a>
</g>
</g>
<!-- Node1&#45;&gt;Node2 -->
<g id="edge1" class="edge"><title>Node1&#45;&gt;Node2</title>
<path fill="none" stroke="midnightblue" d="M145.992,-147.547C182.175,-154.322 230.906,-163.446 269.129,-170.603"/>
<polygon fill="midnightblue" stroke="midnightblue" points="268.635,-174.071 279.108,-172.471 269.923,-167.191 268.635,-174.071"/>
</g>
<!-- Node5 -->
<g id="node5" class="node"><title>Node5</title>
<g id="a_node5"><a xlink:href="../../db/d71/classsimulation_objects_1_1_sugar_cell.html#a0fc1e577370ddb0b415775220a1e0895" target="_top" xlink:title="simulationObjects.SugarCell.set\lState">
<polygon fill="white" stroke="black" points="246.5,-123 246.5,-153 415.5,-153 415.5,-123 246.5,-123"/>
<text text-anchor="start" x="254.5" y="-141" font-family="Helvetica,sans-Serif" font-size="10.00">simulationObjects.SugarCell.set</text>
<text text-anchor="middle" x="331" y="-130" font-family="Helvetica,sans-Serif" font-size="10.00">State</text>
</a>
</g>
</g>
<!-- Node1&#45;&gt;Node5 -->
<g id="edge4" class="edge"><title>Node1&#45;&gt;Node5</title>
<path fill="none" stroke="midnightblue" d="M188.216,-138C203.984,-138 220.362,-138 236.146,-138"/>
<polygon fill="midnightblue" stroke="midnightblue" points="236.42,-141.5 246.42,-138 236.42,-134.5 236.42,-141.5"/>
</g>
<!-- Node7 -->
<g id="node7" class="node"><title>Node7</title>
<g id="a_node7"><a xlink:href="../../db/d71/classsimulation_objects_1_1_sugar_cell.html#afca541b3cc884269b4f778da83fb149d" target="_top" xlink:title="simulationObjects.SugarCell.update\lStatesandMakeMoves">
<polygon fill="white" stroke="black" points="237,-74 237,-104 425,-104 425,-74 237,-74"/>
<text text-anchor="start" x="245" y="-92" font-family="Helvetica,sans-Serif" font-size="10.00">simulationObjects.SugarCell.update</text>
<text text-anchor="middle" x="331" y="-81" font-family="Helvetica,sans-Serif" font-size="10.00">StatesandMakeMoves</text>
</a>
</g>
</g>
<!-- Node1&#45;&gt;Node7 -->
<g id="edge6" class="edge"><title>Node1&#45;&gt;Node7</title>
<path fill="none" stroke="midnightblue" d="M140.589,-128.494C170.968,-122.16 211.768,-113.653 247.72,-106.156"/>
<polygon fill="midnightblue" stroke="midnightblue" points="248.644,-109.539 257.719,-104.071 247.215,-102.686 248.644,-109.539"/>
</g>
<!-- Node3 -->
<g id="node3" class="node"><title>Node3</title>
<g id="a_node3"><a xlink:href="../../db/d71/classsimulation_objects_1_1_sugar_cell.html#a2b381c74b44548fefee11587b06c9d32" target="_top" xlink:title="simulationObjects.SugarCell.pick\lClosestMove">
<polygon fill="white" stroke="black" points="490.5,-216 490.5,-246 663.5,-246 663.5,-216 490.5,-216"/>
<text text-anchor="start" x="498.5" y="-234" font-family="Helvetica,sans-Serif" font-size="10.00">simulationObjects.SugarCell.pick</text>
<text text-anchor="middle" x="577" y="-223" font-family="Helvetica,sans-Serif" font-size="10.00">ClosestMove</text>
</a>
</g>
</g>
<!-- Node2&#45;&gt;Node3 -->
<g id="edge2" class="edge"><title>Node2&#45;&gt;Node3</title>
<path fill="none" stroke="midnightblue" d="M379.335,-191.506C411.012,-197.867 453.602,-206.42 491.047,-213.94"/>
<polygon fill="midnightblue" stroke="midnightblue" points="490.458,-217.391 500.951,-215.929 491.836,-210.528 490.458,-217.391"/>
</g>
<!-- Node4 -->
<g id="node4" class="node"><title>Node4</title>
<g id="a_node4"><a xlink:href="../../db/d71/classsimulation_objects_1_1_sugar_cell.html#ac520bd4f12be8ba375b1d142fe4f30c5" target="_top" xlink:title="simulationObjects.SugarCell.process\lPossibleDestinations">
<polygon fill="white" stroke="black" points="481.5,-167 481.5,-197 672.5,-197 672.5,-167 481.5,-167"/>
<text text-anchor="start" x="489.5" y="-185" font-family="Helvetica,sans-Serif" font-size="10.00">simulationObjects.SugarCell.process</text>
<text text-anchor="middle" x="577" y="-174" font-family="Helvetica,sans-Serif" font-size="10.00">PossibleDestinations</text>
</a>
</g>
</g>
<!-- Node2&#45;&gt;Node4 -->
<g id="edge3" class="edge"><title>Node2&#45;&gt;Node4</title>
<path fill="none" stroke="midnightblue" d="M438.312,-182C449.115,-182 460.084,-182 470.874,-182"/>
<polygon fill="midnightblue" stroke="midnightblue" points="471.153,-185.5 481.153,-182 471.153,-178.5 471.153,-185.5"/>
</g>
<!-- Node6 -->
<g id="node6" class="node"><title>Node6</title>
<g id="a_node6"><a xlink:href="../../de/d7a/classcontroller_1_1_grid_info.html#aa4604331decd6c710c086e9792c6f251" target="_top" xlink:title="controller.GridInfo.getColor">
<polygon fill="white" stroke="black" points="505,-128.5 505,-147.5 649,-147.5 649,-128.5 505,-128.5"/>
<text text-anchor="middle" x="577" y="-135.5" font-family="Helvetica,sans-Serif" font-size="10.00">controller.GridInfo.getColor</text>
</a>
</g>
</g>
<!-- Node5&#45;&gt;Node6 -->
<g id="edge5" class="edge"><title>Node5&#45;&gt;Node6</title>
<path fill="none" stroke="midnightblue" d="M415.63,-138C441.092,-138 469.037,-138 494.366,-138"/>
<polygon fill="midnightblue" stroke="midnightblue" points="494.673,-141.5 504.673,-138 494.673,-134.5 494.673,-141.5"/>
</g>
<!-- Node8 -->
<g id="node8" class="node"><title>Node8</title>
<g id="a_node8"><a xlink:href="../../db/d71/classsimulation_objects_1_1_sugar_cell.html#a2bafc48f035b3134c87ad371e3e2364e" target="_top" xlink:title="simulationObjects.SugarCell.makeMove">
<polygon fill="white" stroke="black" points="474,-79.5 474,-98.5 680,-98.5 680,-79.5 474,-79.5"/>
<text text-anchor="middle" x="577" y="-86.5" font-family="Helvetica,sans-Serif" font-size="10.00">simulationObjects.SugarCell.makeMove</text>
</a>
</g>
</g>
<!-- Node7&#45;&gt;Node8 -->
<g id="edge7" class="edge"><title>Node7&#45;&gt;Node8</title>
<path fill="none" stroke="midnightblue" d="M425.29,-89C437.817,-89 450.771,-89 463.584,-89"/>
<polygon fill="midnightblue" stroke="midnightblue" points="463.819,-92.5001 473.819,-89 463.819,-85.5001 463.819,-92.5001"/>
</g>
<!-- Node9 -->
<g id="node9" class="node"><title>Node9</title>
<g id="a_node9"><a xlink:href="../../d5/da5/classsimulation_objects_1_1_patch.html#ac05b7dd86c9f30b498d93d62cbbba9a4" target="_top" xlink:title="simulationObjects.Patch.addCell">
<polygon fill="white" stroke="black" points="716,-60.5 716,-79.5 886,-79.5 886,-60.5 716,-60.5"/>
<text text-anchor="middle" x="801" y="-67.5" font-family="Helvetica,sans-Serif" font-size="10.00">simulationObjects.Patch.addCell</text>
</a>
</g>
</g>
<!-- Node8&#45;&gt;Node9 -->
<g id="edge8" class="edge"><title>Node8&#45;&gt;Node9</title>
<path fill="none" stroke="midnightblue" d="M680.228,-80.2508C688.723,-79.5237 697.286,-78.7908 705.718,-78.0691"/>
<polygon fill="midnightblue" stroke="midnightblue" points="706.26,-81.5357 715.925,-77.1956 705.663,-74.5612 706.26,-81.5357"/>
</g>
<!-- Node10 -->
<g id="node10" class="node"><title>Node10</title>
<g id="a_node10"><a xlink:href="../../d5/da5/classsimulation_objects_1_1_patch.html#ac18f8e7cdd82ed885a6a92f066da2d38" target="_top" xlink:title="simulationObjects.Patch.removeCell">
<polygon fill="white" stroke="black" points="922,-98.5 922,-117.5 1110,-117.5 1110,-98.5 922,-98.5"/>
<text text-anchor="middle" x="1016" y="-105.5" font-family="Helvetica,sans-Serif" font-size="10.00">simulationObjects.Patch.removeCell</text>
</a>
</g>
</g>
<!-- Node8&#45;&gt;Node10 -->
<g id="edge14" class="edge"><title>Node8&#45;&gt;Node10</title>
<path fill="none" stroke="midnightblue" d="M680.181,-93.4427C749.782,-96.4688 841.608,-100.461 911.49,-103.5"/>
<polygon fill="midnightblue" stroke="midnightblue" points="911.493,-107.003 921.636,-103.941 911.797,-100.01 911.493,-107.003"/>
</g>
<!-- Node9&#45;&gt;Node10 -->
<g id="edge9" class="edge"><title>Node9&#45;&gt;Node10</title>
<path fill="none" stroke="midnightblue" d="M855.474,-79.54C884.592,-84.7348 920.811,-91.1963 951.374,-96.6489"/>
<polygon fill="midnightblue" stroke="midnightblue" points="951.045,-100.145 961.504,-98.4561 952.274,-93.2541 951.045,-100.145"/>
</g>
<!-- Node11 -->
<g id="node11" class="node"><title>Node11</title>
<g id="a_node11"><a xlink:href="../../d5/da5/classsimulation_objects_1_1_patch.html#a06f00537a57f3678cf147c580b92de0d" target="_top" xlink:title="simulationObjects.Patch.update\lCellConstraints">
<polygon fill="white" stroke="black" points="932,-49 932,-79 1100,-79 1100,-49 932,-49"/>
<text text-anchor="start" x="940" y="-67" font-family="Helvetica,sans-Serif" font-size="10.00">simulationObjects.Patch.update</text>
<text text-anchor="middle" x="1016" y="-56" font-family="Helvetica,sans-Serif" font-size="10.00">CellConstraints</text>
</a>
</g>
</g>
<!-- Node9&#45;&gt;Node11 -->
<g id="edge10" class="edge"><title>Node9&#45;&gt;Node11</title>
<path fill="none" stroke="midnightblue" d="M886.183,-67.6286C897.785,-67.3018 909.757,-66.9646 921.514,-66.6334"/>
<polygon fill="midnightblue" stroke="midnightblue" points="921.879,-70.1246 931.776,-66.3443 921.682,-63.1274 921.879,-70.1246"/>
</g>
<!-- Node12 -->
<g id="node12" class="node"><title>Node12</title>
<g id="a_node12"><a xlink:href="../../d0/d1a/classsimulation_objects_1_1_patch_body.html#a7be1762ade4eaee79c26ac524eb97f33" target="_top" xlink:title="simulationObjects.PatchBody.get\lCenter">
<polygon fill="white" stroke="black" points="1146.5,-98 1146.5,-128 1319.5,-128 1319.5,-98 1146.5,-98"/>
<text text-anchor="start" x="1154.5" y="-116" font-family="Helvetica,sans-Serif" font-size="10.00">simulationObjects.PatchBody.get</text>
<text text-anchor="middle" x="1233" y="-105" font-family="Helvetica,sans-Serif" font-size="10.00">Center</text>
</a>
</g>
</g>
<!-- Node11&#45;&gt;Node12 -->
<g id="edge11" class="edge"><title>Node11&#45;&gt;Node12</title>
<path fill="none" stroke="midnightblue" d="M1082.97,-79.0346C1106.19,-84.3259 1132.46,-90.3133 1156.4,-95.7712"/>
<polygon fill="midnightblue" stroke="midnightblue" points="1155.63,-99.1841 1166.16,-97.9938 1157.18,-92.3591 1155.63,-99.1841"/>
</g>
<!-- Node13 -->
<g id="node13" class="node"><title>Node13</title>
<g id="a_node13"><a xlink:href="../../d0/d1a/classsimulation_objects_1_1_patch_body.html#a268e88a7cb1f5feb98f49e230475c2ba" target="_top" xlink:title="simulationObjects.PatchBody.get\lPatchHeight">
<polygon fill="white" stroke="black" points="1146.5,-49 1146.5,-79 1319.5,-79 1319.5,-49 1146.5,-49"/>
<text text-anchor="start" x="1154.5" y="-67" font-family="Helvetica,sans-Serif" font-size="10.00">simulationObjects.PatchBody.get</text>
<text text-anchor="middle" x="1233" y="-56" font-family="Helvetica,sans-Serif" font-size="10.00">PatchHeight</text>
</a>
</g>
</g>
<!-- Node11&#45;&gt;Node13 -->
<g id="edge12" class="edge"><title>Node11&#45;&gt;Node13</title>
<path fill="none" stroke="midnightblue" d="M1100.12,-64C1111.94,-64 1124.17,-64 1136.21,-64"/>
<polygon fill="midnightblue" stroke="midnightblue" points="1136.25,-67.5001 1146.25,-64 1136.25,-60.5001 1136.25,-67.5001"/>
</g>
<!-- Node14 -->
<g id="node14" class="node"><title>Node14</title>
<g id="a_node14"><a xlink:href="../../d0/d1a/classsimulation_objects_1_1_patch_body.html#a466dadbe30fb2f8360163881e0db9295" target="_top" xlink:title="simulationObjects.PatchBody.get\lPatchWidth">
<polygon fill="white" stroke="black" points="1146.5,-0 1146.5,-30 1319.5,-30 1319.5,-0 1146.5,-0"/>
<text text-anchor="start" x="1154.5" y="-18" font-family="Helvetica,sans-Serif" font-size="10.00">simulationObjects.PatchBody.get</text>
<text text-anchor="middle" x="1233" y="-7" font-family="Helvetica,sans-Serif" font-size="10.00">PatchWidth</text>
</a>
</g>
</g>
<!-- Node11&#45;&gt;Node14 -->
<g id="edge13" class="edge"><title>Node11&#45;&gt;Node14</title>
<path fill="none" stroke="midnightblue" d="M1082.97,-48.9654C1106.19,-43.6741 1132.46,-37.6867 1156.4,-32.2288"/>
<polygon fill="midnightblue" stroke="midnightblue" points="1157.18,-35.6409 1166.16,-30.0062 1155.63,-28.8159 1157.18,-35.6409"/>
</g>
</g>
</svg>
