<?xml version="1.0" encoding="UTF-8" standalone="no"?>
<!DOCTYPE svg PUBLIC "-//W3C//DTD SVG 1.1//EN"
 "http://www.w3.org/Graphics/SVG/1.1/DTD/svg11.dtd">
<!-- Generated by graphviz version 2.36.0 (20140111.2315)
 -->
<!-- Title: simulationObjects.SugarCell.pickClosestMove Pages: 1 -->
<svg width="656pt" height="38pt"
 viewBox="0.00 0.00 656.00 38.00" xmlns="http://www.w3.org/2000/svg" xmlns:xlink="http://www.w3.org/1999/xlink">
<g id="graph0" class="graph" transform="scale(1 1) rotate(0) translate(4 34)">
<title>simulationObjects.SugarCell.pickClosestMove</title>
<polygon fill="white" stroke="none" points="-4,4 -4,-34 652,-34 652,4 -4,4"/>
<!-- Node1 -->
<g id="node1" class="node"><title>Node1</title>
<polygon fill="#bfbfbf" stroke="black" points="0.5,-0 0.5,-30 173.5,-30 173.5,-0 0.5,-0"/>
<text text-anchor="start" x="8.5" y="-18" font-family="Helvetica,sans-Serif" font-size="10.00">simulationObjects.SugarCell.pick</text>
<text text-anchor="middle" x="87" y="-7" font-family="Helvetica,sans-Serif" font-size="10.00">ClosestMove</text>
</g>
<!-- Node2 -->
<g id="node2" class="node"><title>Node2</title>
<g id="a_node2"><a xlink:href="../../db/d71/classsimulation_objects_1_1_sugar_cell.html#a72ef8360de960778662504ca2f83170c" target="_top" xlink:title="simulationObjects.SugarCell.chooseMove">
<polygon fill="white" stroke="black" points="210,-5.5 210,-24.5 424,-24.5 424,-5.5 210,-5.5"/>
<text text-anchor="middle" x="317" y="-12.5" font-family="Helvetica,sans-Serif" font-size="10.00">simulationObjects.SugarCell.chooseMove</text>
</a>
</g>
</g>
<!-- Node1&#45;&gt;Node2 -->
<g id="edge1" class="edge"><title>Node1&#45;&gt;Node2</title>
<path fill="none" stroke="midnightblue" d="M183.661,-15C192.344,-15 201.173,-15 209.939,-15"/>
<polygon fill="midnightblue" stroke="midnightblue" points="183.548,-11.5001 173.547,-15 183.547,-18.5001 183.548,-11.5001"/>
</g>
<!-- Node3 -->
<g id="node3" class="node"><title>Node3</title>
<g id="a_node3"><a xlink:href="../../db/d71/classsimulation_objects_1_1_sugar_cell.html#a4f3c5edbe0c43ea62d21a9658fbc11c7" target="_top" xlink:title="simulationObjects.SugarCell.update">
<polygon fill="white" stroke="black" points="460,-5.5 460,-24.5 648,-24.5 648,-5.5 460,-5.5"/>
<text text-anchor="middle" x="554" y="-12.5" font-family="Helvetica,sans-Serif" font-size="10.00">simulationObjects.SugarCell.update</text>
</a>
</g>
</g>
<!-- Node2&#45;&gt;Node3 -->
<g id="edge2" class="edge"><title>Node2&#45;&gt;Node3</title>
<path fill="none" stroke="midnightblue" d="M434.24,-15C442.843,-15 451.455,-15 459.891,-15"/>
<polygon fill="midnightblue" stroke="midnightblue" points="434.156,-11.5001 424.156,-15 434.156,-18.5001 434.156,-11.5001"/>
</g>
</g>
</svg>
