<?xml version="1.0" encoding="UTF-8" standalone="no"?>
<!DOCTYPE svg PUBLIC "-//W3C//DTD SVG 1.1//EN"
 "http://www.w3.org/Graphics/SVG/1.1/DTD/svg11.dtd">
<!-- Generated by graphviz version 2.36.0 (20140111.2315)
 -->
<!-- Title: simulationObjects.SugarCell.makeMove Pages: 1 -->
<!--zoomable 136 -->
<svg id="main" version="1.1" xmlns="http://www.w3.org/2000/svg" xmlns:xlink="http://www.w3.org/1999/xlink" xml:space="preserve" onload="init(evt)">
<style type="text/css"><![CDATA[
.edge:hover path { stroke: red; }
.edge:hover polygon { stroke: red; fill: red; }
]]></style>
<script type="text/javascript"><![CDATA[
var edges = document.getElementsByTagName('g');
if (edges && edges.length) {
  for (var i=0;i<edges.length;i++) {
    if (edges[i].id.substr(0,4)=='edge') {
      edges[i].setAttribute('class','edge');
    }
  }
}
]]></script>
        <defs>
                <circle id="rim" cx="0" cy="0" r="7"/>
                <circle id="rim2" cx="0" cy="0" r="3.5"/>
                <g id="zoomPlus">
                        <use xlink:href="#rim" fill="#404040">
                                <set attributeName="fill" to="#808080" begin="zoomplus.mouseover" end="zoomplus.mouseout"/>
                        </use>
                        <path d="M-4,0h8M0,-4v8" fill="none" stroke="white" stroke-width="1.5" pointer-events="none"/>
                </g>
                <g id="zoomMin">
                        <use xlink:href="#rim" fill="#404040">
                                <set attributeName="fill" to="#808080" begin="zoomminus.mouseover" end="zoomminus.mouseout"/>
                        </use>
                        <path d="M-4,0h8" fill="none" stroke="white" stroke-width="1.5" pointer-events="none"/>
                </g>
                <g id="dirArrow">
                        <path fill="none" stroke="white" stroke-width="1.5" d="M0,-3.0v7 M-2.5,-0.5L0,-3.0L2.5,-0.5"/>
                </g>
               <g id="resetDef">
                       <use xlink:href="#rim2" fill="#404040">
                               <set attributeName="fill" to="#808080" begin="reset.mouseover" end="reset.mouseout"/>
                       </use>
               </g>
        </defs>

<script type="text/javascript">
var viewWidth = 854;
var viewHeight = 136;
var sectionId = 'dynsection-5';
</script>
<script xlink:href="../../svgpan.js"/>
<svg id="graph" class="graph">
<g id="viewport">
<title>simulationObjects.SugarCell.makeMove</title>
<polygon fill="white" stroke="none" points="-4,4 -4,-132 850,-132 850,4 -4,4"/>
<!-- Node1 -->
<g id="node1" class="node"><title>Node1</title>
<polygon fill="#bfbfbf" stroke="black" points="0,-79.5 0,-98.5 206,-98.5 206,-79.5 0,-79.5"/>
<text text-anchor="middle" x="103" y="-86.5" font-family="Helvetica,sans-Serif" font-size="10.00">simulationObjects.SugarCell.makeMove</text>
</g>
<!-- Node2 -->
<g id="node2" class="node"><title>Node2</title>
<g id="a_node2"><a xlink:href="../../d5/da5/classsimulation_objects_1_1_patch.html#ac05b7dd86c9f30b498d93d62cbbba9a4" target="_top" xlink:title="simulationObjects.Patch.addCell">
<polygon fill="white" stroke="black" points="242,-60.5 242,-79.5 412,-79.5 412,-60.5 242,-60.5"/>
<text text-anchor="middle" x="327" y="-67.5" font-family="Helvetica,sans-Serif" font-size="10.00">simulationObjects.Patch.addCell</text>
</a>
</g>
</g>
<!-- Node1&#45;&gt;Node2 -->
<g id="edge1" class="edge"><title>Node1&#45;&gt;Node2</title>
<path fill="none" stroke="midnightblue" d="M206.228,-80.2508C214.723,-79.5237 223.286,-78.7908 231.718,-78.0691"/>
<polygon fill="midnightblue" stroke="midnightblue" points="232.26,-81.5357 241.925,-77.1956 231.663,-74.5612 232.26,-81.5357"/>
</g>
<!-- Node3 -->
<g id="node3" class="node"><title>Node3</title>
<g id="a_node3"><a xlink:href="../../d5/da5/classsimulation_objects_1_1_patch.html#ac18f8e7cdd82ed885a6a92f066da2d38" target="_top" xlink:title="simulationObjects.Patch.removeCell">
<polygon fill="white" stroke="black" points="448,-98.5 448,-117.5 636,-117.5 636,-98.5 448,-98.5"/>
<text text-anchor="middle" x="542" y="-105.5" font-family="Helvetica,sans-Serif" font-size="10.00">simulationObjects.Patch.removeCell</text>
</a>
</g>
</g>
<!-- Node1&#45;&gt;Node3 -->
<g id="edge7" class="edge"><title>Node1&#45;&gt;Node3</title>
<path fill="none" stroke="midnightblue" d="M206.181,-93.4427C275.782,-96.4688 367.608,-100.461 437.49,-103.5"/>
<polygon fill="midnightblue" stroke="midnightblue" points="437.493,-107.003 447.636,-103.941 437.797,-100.01 437.493,-107.003"/>
</g>
<!-- Node2&#45;&gt;Node3 -->
<g id="edge2" class="edge"><title>Node2&#45;&gt;Node3</title>
<path fill="none" stroke="midnightblue" d="M381.474,-79.54C410.592,-84.7348 446.811,-91.1963 477.374,-96.6489"/>
<polygon fill="midnightblue" stroke="midnightblue" points="477.045,-100.145 487.504,-98.4561 478.274,-93.2541 477.045,-100.145"/>
</g>
<!-- Node4 -->
<g id="node4" class="node"><title>Node4</title>
<g id="a_node4"><a xlink:href="../../d5/da5/classsimulation_objects_1_1_patch.html#a06f00537a57f3678cf147c580b92de0d" target="_top" xlink:title="simulationObjects.Patch.update\lCellConstraints">
<polygon fill="white" stroke="black" points="458,-49 458,-79 626,-79 626,-49 458,-49"/>
<text text-anchor="start" x="466" y="-67" font-family="Helvetica,sans-Serif" font-size="10.00">simulationObjects.Patch.update</text>
<text text-anchor="middle" x="542" y="-56" font-family="Helvetica,sans-Serif" font-size="10.00">CellConstraints</text>
</a>
</g>
</g>
<!-- Node2&#45;&gt;Node4 -->
<g id="edge3" class="edge"><title>Node2&#45;&gt;Node4</title>
<path fill="none" stroke="midnightblue" d="M412.183,-67.6286C423.785,-67.3018 435.757,-66.9646 447.514,-66.6334"/>
<polygon fill="midnightblue" stroke="midnightblue" points="447.879,-70.1246 457.776,-66.3443 447.682,-63.1274 447.879,-70.1246"/>
</g>
<!-- Node5 -->
<g id="node5" class="node"><title>Node5</title>
<g id="a_node5"><a xlink:href="../../d0/d1a/classsimulation_objects_1_1_patch_body.html#a7be1762ade4eaee79c26ac524eb97f33" target="_top" xlink:title="simulationObjects.PatchBody.get\lCenter">
<polygon fill="white" stroke="black" points="672.5,-98 672.5,-128 845.5,-128 845.5,-98 672.5,-98"/>
<text text-anchor="start" x="680.5" y="-116" font-family="Helvetica,sans-Serif" font-size="10.00">simulationObjects.PatchBody.get</text>
<text text-anchor="middle" x="759" y="-105" font-family="Helvetica,sans-Serif" font-size="10.00">Center</text>
</a>
</g>
</g>
<!-- Node4&#45;&gt;Node5 -->
<g id="edge4" class="edge"><title>Node4&#45;&gt;Node5</title>
<path fill="none" stroke="midnightblue" d="M608.968,-79.0346C632.185,-84.3259 658.456,-90.3133 682.404,-95.7712"/>
<polygon fill="midnightblue" stroke="midnightblue" points="681.629,-99.1841 692.157,-97.9938 683.184,-92.3591 681.629,-99.1841"/>
</g>
<!-- Node6 -->
<g id="node6" class="node"><title>Node6</title>
<g id="a_node6"><a xlink:href="../../d0/d1a/classsimulation_objects_1_1_patch_body.html#a268e88a7cb1f5feb98f49e230475c2ba" target="_top" xlink:title="simulationObjects.PatchBody.get\lPatchHeight">
<polygon fill="white" stroke="black" points="672.5,-49 672.5,-79 845.5,-79 845.5,-49 672.5,-49"/>
<text text-anchor="start" x="680.5" y="-67" font-family="Helvetica,sans-Serif" font-size="10.00">simulationObjects.PatchBody.get</text>
<text text-anchor="middle" x="759" y="-56" font-family="Helvetica,sans-Serif" font-size="10.00">PatchHeight</text>
</a>
</g>
</g>
<!-- Node4&#45;&gt;Node6 -->
<g id="edge5" class="edge"><title>Node4&#45;&gt;Node6</title>
<path fill="none" stroke="midnightblue" d="M626.125,-64C637.941,-64 650.173,-64 662.206,-64"/>
<polygon fill="midnightblue" stroke="midnightblue" points="662.254,-67.5001 672.254,-64 662.254,-60.5001 662.254,-67.5001"/>
</g>
<!-- Node7 -->
<g id="node7" class="node"><title>Node7</title>
<g id="a_node7"><a xlink:href="../../d0/d1a/classsimulation_objects_1_1_patch_body.html#a466dadbe30fb2f8360163881e0db9295" target="_top" xlink:title="simulationObjects.PatchBody.get\lPatchWidth">
<polygon fill="white" stroke="black" points="672.5,-0 672.5,-30 845.5,-30 845.5,-0 672.5,-0"/>
<text text-anchor="start" x="680.5" y="-18" font-family="Helvetica,sans-Serif" font-size="10.00">simulationObjects.PatchBody.get</text>
<text text-anchor="middle" x="759" y="-7" font-family="Helvetica,sans-Serif" font-size="10.00">PatchWidth</text>
</a>
</g>
</g>
<!-- Node4&#45;&gt;Node7 -->
<g id="edge6" class="edge"><title>Node4&#45;&gt;Node7</title>
<path fill="none" stroke="midnightblue" d="M608.968,-48.9654C632.185,-43.6741 658.456,-37.6867 682.404,-32.2288"/>
<polygon fill="midnightblue" stroke="midnightblue" points="683.184,-35.6409 692.157,-30.0062 681.629,-28.8159 683.184,-35.6409"/>
</g>
</g>
</svg>
        <g id="navigator" transform="translate(0 0)" fill="#404254">
                <rect fill="#f2f5e9" fill-opacity="0.5" stroke="#606060" stroke-width=".5" x="0" y="0" width="60" height="60"/>
                <use id="zoomplus" xlink:href="#zoomPlus" x="17" y="9" onmousedown="handleZoom(evt,'in')"/>
                <use id="zoomminus" xlink:href="#zoomMin" x="42" y="9" onmousedown="handleZoom(evt,'out')"/>
                <use id="reset" xlink:href="#resetDef" x="30" y="36" onmousedown="handleReset()"/>
                <g id="arrowUp" xlink:href="#dirArrow" transform="translate(30 24)" onmousedown="handlePan(0,-1)">
                  <use xlink:href="#rim" fill="#404040">
                        <set attributeName="fill" to="#808080" begin="arrowUp.mouseover" end="arrowUp.mouseout"/>
                  </use>
                  <path fill="none" stroke="white" stroke-width="1.5" d="M0,-3.0v7 M-2.5,-0.5L0,-3.0L2.5,-0.5"/>
                </g>
                <g id="arrowRight" xlink:href="#dirArrow" transform="rotate(90) translate(36 -43)" onmousedown="handlePan(1,0)">
                  <use xlink:href="#rim" fill="#404040">
                        <set attributeName="fill" to="#808080" begin="arrowRight.mouseover" end="arrowRight.mouseout"/>
                  </use>
                  <path fill="none" stroke="white" stroke-width="1.5" d="M0,-3.0v7 M-2.5,-0.5L0,-3.0L2.5,-0.5"/>
                </g>
                <g id="arrowDown" xlink:href="#dirArrow" transform="rotate(180) translate(-30 -48)" onmousedown="handlePan(0,1)">
                  <use xlink:href="#rim" fill="#404040">
                        <set attributeName="fill" to="#808080" begin="arrowDown.mouseover" end="arrowDown.mouseout"/>
                  </use>
                  <path fill="none" stroke="white" stroke-width="1.5" d="M0,-3.0v7 M-2.5,-0.5L0,-3.0L2.5,-0.5"/>
                </g>
                <g id="arrowLeft" xlink:href="#dirArrow" transform="rotate(270) translate(-36 17)" onmousedown="handlePan(-1,0)">
                  <use xlink:href="#rim" fill="#404040">
                        <set attributeName="fill" to="#808080" begin="arrowLeft.mouseover" end="arrowLeft.mouseout"/>
                  </use>
                  <path fill="none" stroke="white" stroke-width="1.5" d="M0,-3.0v7 M-2.5,-0.5L0,-3.0L2.5,-0.5"/>
                </g>
        </g>
        <svg viewBox="0 0 15 15" width="100%" height="30px" preserveAspectRatio="xMaxYMin meet">
         <g id="arrow_out" transform="scale(0.3 0.3)">
          <a xlink:href="classsimulation_objects_1_1_sugar_cell_a2bafc48f035b3134c87ad371e3e2364e_cgraph_org.svg" target="_base">
           <rect id="button" ry="5" rx="5" y="6" x="6" height="38" width="38"
                fill="#f2f5e9" fill-opacity="0.5" stroke="#606060" stroke-width="1.0"/>
           <path id="arrow"
             d="M 11.500037,31.436501 C 11.940474,20.09759 22.043105,11.32322 32.158766,21.979434 L 37.068811,17.246167 C 37.068811,17.246167 37.088388,32 37.088388,32 L 22.160133,31.978069 C 22.160133,31.978069 26.997745,27.140456 26.997745,27.140456 C 18.528582,18.264221 13.291696,25.230495 11.500037,31.436501 z"
             style="fill:#404040;"/>
          </a>
         </g>
        </svg>
</svg>
