<?xml version="1.0" encoding="UTF-8" standalone="no"?>
<!DOCTYPE svg PUBLIC "-//W3C//DTD SVG 1.1//EN"
 "http://www.w3.org/Graphics/SVG/1.1/DTD/svg11.dtd">
<!-- Generated by graphviz version 2.36.0 (20140111.2315)
 -->
<!-- Title: simulationObjects.SugarCell.chooseMove Pages: 1 -->
<svg width="450pt" height="87pt"
 viewBox="0.00 0.00 450.00 87.00" xmlns="http://www.w3.org/2000/svg" xmlns:xlink="http://www.w3.org/1999/xlink">
<g id="graph0" class="graph" transform="scale(1 1) rotate(0) translate(4 83)">
<title>simulationObjects.SugarCell.chooseMove</title>
<polygon fill="white" stroke="none" points="-4,4 -4,-83 446,-83 446,4 -4,4"/>
<!-- Node1 -->
<g id="node1" class="node"><title>Node1</title>
<polygon fill="#bfbfbf" stroke="black" points="0,-29.5 0,-48.5 214,-48.5 214,-29.5 0,-29.5"/>
<text text-anchor="middle" x="107" y="-36.5" font-family="Helvetica,sans-Serif" font-size="10.00">simulationObjects.SugarCell.chooseMove</text>
</g>
<!-- Node2 -->
<g id="node2" class="node"><title>Node2</title>
<g id="a_node2"><a xlink:href="../../db/d71/classsimulation_objects_1_1_sugar_cell.html#a2b381c74b44548fefee11587b06c9d32" target="_top" xlink:title="simulationObjects.SugarCell.pick\lClosestMove">
<polygon fill="white" stroke="black" points="259.5,-49 259.5,-79 432.5,-79 432.5,-49 259.5,-49"/>
<text text-anchor="start" x="267.5" y="-67" font-family="Helvetica,sans-Serif" font-size="10.00">simulationObjects.SugarCell.pick</text>
<text text-anchor="middle" x="346" y="-56" font-family="Helvetica,sans-Serif" font-size="10.00">ClosestMove</text>
</a>
</g>
</g>
<!-- Node1&#45;&gt;Node2 -->
<g id="edge1" class="edge"><title>Node1&#45;&gt;Node2</title>
<path fill="none" stroke="midnightblue" d="M198.276,-48.5227C214.85,-50.2711 232.207,-52.102 248.943,-53.8674"/>
<polygon fill="midnightblue" stroke="midnightblue" points="248.959,-57.3885 259.271,-54.9569 249.694,-50.4271 248.959,-57.3885"/>
</g>
<!-- Node3 -->
<g id="node3" class="node"><title>Node3</title>
<g id="a_node3"><a xlink:href="../../db/d71/classsimulation_objects_1_1_sugar_cell.html#ac520bd4f12be8ba375b1d142fe4f30c5" target="_top" xlink:title="simulationObjects.SugarCell.process\lPossibleDestinations">
<polygon fill="white" stroke="black" points="250.5,-0 250.5,-30 441.5,-30 441.5,-0 250.5,-0"/>
<text text-anchor="start" x="258.5" y="-18" font-family="Helvetica,sans-Serif" font-size="10.00">simulationObjects.SugarCell.process</text>
<text text-anchor="middle" x="346" y="-7" font-family="Helvetica,sans-Serif" font-size="10.00">PossibleDestinations</text>
</a>
</g>
</g>
<!-- Node1&#45;&gt;Node3 -->
<g id="edge2" class="edge"><title>Node1&#45;&gt;Node3</title>
<path fill="none" stroke="midnightblue" d="M202.009,-29.4801C214.552,-28.2099 227.478,-26.901 240.191,-25.6136"/>
<polygon fill="midnightblue" stroke="midnightblue" points="240.732,-29.0767 250.329,-24.5869 240.027,-22.1124 240.732,-29.0767"/>
</g>
</g>
</svg>
