<?xml version="1.0" encoding="UTF-8" standalone="no"?>
<!DOCTYPE svg PUBLIC "-//W3C//DTD SVG 1.1//EN"
 "http://www.w3.org/Graphics/SVG/1.1/DTD/svg11.dtd">
<!-- Generated by graphviz version 2.36.0 (20140111.2315)
 -->
<!-- Title: simulationObjects.SugarCell.updateStatesandMakeMoves Pages: 1 -->
<svg width="1078pt" height="136pt"
 viewBox="0.00 0.00 1078.00 136.00" xmlns="http://www.w3.org/2000/svg" xmlns:xlink="http://www.w3.org/1999/xlink">
<g id="graph0" class="graph" transform="scale(1 1) rotate(0) translate(4 132)">
<title>simulationObjects.SugarCell.updateStatesandMakeMoves</title>
<polygon fill="white" stroke="none" points="-4,4 -4,-132 1074,-132 1074,4 -4,4"/>
<!-- Node1 -->
<g id="node1" class="node"><title>Node1</title>
<polygon fill="#bfbfbf" stroke="black" points="0,-74 0,-104 188,-104 188,-74 0,-74"/>
<text text-anchor="start" x="8" y="-92" font-family="Helvetica,sans-Serif" font-size="10.00">simulationObjects.SugarCell.update</text>
<text text-anchor="middle" x="94" y="-81" font-family="Helvetica,sans-Serif" font-size="10.00">StatesandMakeMoves</text>
</g>
<!-- Node2 -->
<g id="node2" class="node"><title>Node2</title>
<g id="a_node2"><a xlink:href="../../db/d71/classsimulation_objects_1_1_sugar_cell.html#a2bafc48f035b3134c87ad371e3e2364e" target="_top" xlink:title="simulationObjects.SugarCell.makeMove">
<polygon fill="white" stroke="black" points="224,-79.5 224,-98.5 430,-98.5 430,-79.5 224,-79.5"/>
<text text-anchor="middle" x="327" y="-86.5" font-family="Helvetica,sans-Serif" font-size="10.00">simulationObjects.SugarCell.makeMove</text>
</a>
</g>
</g>
<!-- Node1&#45;&gt;Node2 -->
<g id="edge1" class="edge"><title>Node1&#45;&gt;Node2</title>
<path fill="none" stroke="midnightblue" d="M188.291,-89C196.57,-89 205.007,-89 213.423,-89"/>
<polygon fill="midnightblue" stroke="midnightblue" points="213.667,-92.5001 223.667,-89 213.667,-85.5001 213.667,-92.5001"/>
</g>
<!-- Node3 -->
<g id="node3" class="node"><title>Node3</title>
<g id="a_node3"><a xlink:href="../../d5/da5/classsimulation_objects_1_1_patch.html#ac05b7dd86c9f30b498d93d62cbbba9a4" target="_top" xlink:title="simulationObjects.Patch.addCell">
<polygon fill="white" stroke="black" points="466,-60.5 466,-79.5 636,-79.5 636,-60.5 466,-60.5"/>
<text text-anchor="middle" x="551" y="-67.5" font-family="Helvetica,sans-Serif" font-size="10.00">simulationObjects.Patch.addCell</text>
</a>
</g>
</g>
<!-- Node2&#45;&gt;Node3 -->
<g id="edge2" class="edge"><title>Node2&#45;&gt;Node3</title>
<path fill="none" stroke="midnightblue" d="M430.228,-80.2508C438.723,-79.5237 447.286,-78.7908 455.718,-78.0691"/>
<polygon fill="midnightblue" stroke="midnightblue" points="456.26,-81.5357 465.925,-77.1956 455.663,-74.5612 456.26,-81.5357"/>
</g>
<!-- Node4 -->
<g id="node4" class="node"><title>Node4</title>
<g id="a_node4"><a xlink:href="../../d5/da5/classsimulation_objects_1_1_patch.html#ac18f8e7cdd82ed885a6a92f066da2d38" target="_top" xlink:title="simulationObjects.Patch.removeCell">
<polygon fill="white" stroke="black" points="672,-98.5 672,-117.5 860,-117.5 860,-98.5 672,-98.5"/>
<text text-anchor="middle" x="766" y="-105.5" font-family="Helvetica,sans-Serif" font-size="10.00">simulationObjects.Patch.removeCell</text>
</a>
</g>
</g>
<!-- Node2&#45;&gt;Node4 -->
<g id="edge8" class="edge"><title>Node2&#45;&gt;Node4</title>
<path fill="none" stroke="midnightblue" d="M430.181,-93.4427C499.782,-96.4688 591.608,-100.461 661.49,-103.5"/>
<polygon fill="midnightblue" stroke="midnightblue" points="661.493,-107.003 671.636,-103.941 661.797,-100.01 661.493,-107.003"/>
</g>
<!-- Node3&#45;&gt;Node4 -->
<g id="edge3" class="edge"><title>Node3&#45;&gt;Node4</title>
<path fill="none" stroke="midnightblue" d="M605.474,-79.54C634.592,-84.7348 670.811,-91.1963 701.374,-96.6489"/>
<polygon fill="midnightblue" stroke="midnightblue" points="701.045,-100.145 711.504,-98.4561 702.274,-93.2541 701.045,-100.145"/>
</g>
<!-- Node5 -->
<g id="node5" class="node"><title>Node5</title>
<g id="a_node5"><a xlink:href="../../d5/da5/classsimulation_objects_1_1_patch.html#a06f00537a57f3678cf147c580b92de0d" target="_top" xlink:title="simulationObjects.Patch.update\lCellConstraints">
<polygon fill="white" stroke="black" points="682,-49 682,-79 850,-79 850,-49 682,-49"/>
<text text-anchor="start" x="690" y="-67" font-family="Helvetica,sans-Serif" font-size="10.00">simulationObjects.Patch.update</text>
<text text-anchor="middle" x="766" y="-56" font-family="Helvetica,sans-Serif" font-size="10.00">CellConstraints</text>
</a>
</g>
</g>
<!-- Node3&#45;&gt;Node5 -->
<g id="edge4" class="edge"><title>Node3&#45;&gt;Node5</title>
<path fill="none" stroke="midnightblue" d="M636.183,-67.6286C647.785,-67.3018 659.757,-66.9646 671.514,-66.6334"/>
<polygon fill="midnightblue" stroke="midnightblue" points="671.879,-70.1246 681.776,-66.3443 671.682,-63.1274 671.879,-70.1246"/>
</g>
<!-- Node6 -->
<g id="node6" class="node"><title>Node6</title>
<g id="a_node6"><a xlink:href="../../d0/d1a/classsimulation_objects_1_1_patch_body.html#a7be1762ade4eaee79c26ac524eb97f33" target="_top" xlink:title="simulationObjects.PatchBody.get\lCenter">
<polygon fill="white" stroke="black" points="896.5,-98 896.5,-128 1069.5,-128 1069.5,-98 896.5,-98"/>
<text text-anchor="start" x="904.5" y="-116" font-family="Helvetica,sans-Serif" font-size="10.00">simulationObjects.PatchBody.get</text>
<text text-anchor="middle" x="983" y="-105" font-family="Helvetica,sans-Serif" font-size="10.00">Center</text>
</a>
</g>
</g>
<!-- Node5&#45;&gt;Node6 -->
<g id="edge5" class="edge"><title>Node5&#45;&gt;Node6</title>
<path fill="none" stroke="midnightblue" d="M832.968,-79.0346C856.185,-84.3259 882.456,-90.3133 906.404,-95.7712"/>
<polygon fill="midnightblue" stroke="midnightblue" points="905.629,-99.1841 916.157,-97.9938 907.184,-92.3591 905.629,-99.1841"/>
</g>
<!-- Node7 -->
<g id="node7" class="node"><title>Node7</title>
<g id="a_node7"><a xlink:href="../../d0/d1a/classsimulation_objects_1_1_patch_body.html#a268e88a7cb1f5feb98f49e230475c2ba" target="_top" xlink:title="simulationObjects.PatchBody.get\lPatchHeight">
<polygon fill="white" stroke="black" points="896.5,-49 896.5,-79 1069.5,-79 1069.5,-49 896.5,-49"/>
<text text-anchor="start" x="904.5" y="-67" font-family="Helvetica,sans-Serif" font-size="10.00">simulationObjects.PatchBody.get</text>
<text text-anchor="middle" x="983" y="-56" font-family="Helvetica,sans-Serif" font-size="10.00">PatchHeight</text>
</a>
</g>
</g>
<!-- Node5&#45;&gt;Node7 -->
<g id="edge6" class="edge"><title>Node5&#45;&gt;Node7</title>
<path fill="none" stroke="midnightblue" d="M850.125,-64C861.941,-64 874.173,-64 886.206,-64"/>
<polygon fill="midnightblue" stroke="midnightblue" points="886.254,-67.5001 896.254,-64 886.254,-60.5001 886.254,-67.5001"/>
</g>
<!-- Node8 -->
<g id="node8" class="node"><title>Node8</title>
<g id="a_node8"><a xlink:href="../../d0/d1a/classsimulation_objects_1_1_patch_body.html#a466dadbe30fb2f8360163881e0db9295" target="_top" xlink:title="simulationObjects.PatchBody.get\lPatchWidth">
<polygon fill="white" stroke="black" points="896.5,-0 896.5,-30 1069.5,-30 1069.5,-0 896.5,-0"/>
<text text-anchor="start" x="904.5" y="-18" font-family="Helvetica,sans-Serif" font-size="10.00">simulationObjects.PatchBody.get</text>
<text text-anchor="middle" x="983" y="-7" font-family="Helvetica,sans-Serif" font-size="10.00">PatchWidth</text>
</a>
</g>
</g>
<!-- Node5&#45;&gt;Node8 -->
<g id="edge7" class="edge"><title>Node5&#45;&gt;Node8</title>
<path fill="none" stroke="midnightblue" d="M832.968,-48.9654C856.185,-43.6741 882.456,-37.6867 906.404,-32.2288"/>
<polygon fill="midnightblue" stroke="midnightblue" points="907.184,-35.6409 916.157,-30.0062 905.629,-28.8159 907.184,-35.6409"/>
</g>
</g>
</svg>
