<?xml version="1.0" encoding="UTF-8" standalone="no"?>
<!DOCTYPE svg PUBLIC "-//W3C//DTD SVG 1.1//EN"
 "http://www.w3.org/Graphics/SVG/1.1/DTD/svg11.dtd">
<!-- Generated by graphviz version 2.36.0 (20140111.2315)
 -->
<!-- Title: Graphical Class Hierarchy Pages: 1 -->
<svg width="430pt" height="218pt"
 viewBox="0.00 0.00 430.00 218.00" xmlns="http://www.w3.org/2000/svg" xmlns:xlink="http://www.w3.org/1999/xlink">
<g id="graph0" class="graph" transform="scale(1 1) rotate(0) translate(4 214)">
<title>Graphical Class Hierarchy</title>
<polygon fill="white" stroke="none" points="-4,4 -4,-214 426,-214 426,4 -4,4"/>
<!-- Node1 -->
<g id="node1" class="node"><title>Node1</title>
<polygon fill="white" stroke="#bfbfbf" points="0.5,-95.5 0.5,-114.5 63.5,-114.5 63.5,-95.5 0.5,-95.5"/>
<text text-anchor="middle" x="32" y="-102.5" font-family="Helvetica,sans-Serif" font-size="10.00">Rectangle</text>
</g>
<!-- Node2 -->
<g id="node2" class="node"><title>Node2</title>
<g id="a_node2"><a xlink:href="d2/d6e/classsimulation_objects_1_1_cell.html" target="_top" xlink:title="simulationObjects.Cell">
<polygon fill="white" stroke="black" points="100,-95.5 100,-114.5 222,-114.5 222,-95.5 100,-95.5"/>
<text text-anchor="middle" x="161" y="-102.5" font-family="Helvetica,sans-Serif" font-size="10.00">simulationObjects.Cell</text>
</a>
</g>
</g>
<!-- Node1&#45;&gt;Node2 -->
<g id="edge1" class="edge"><title>Node1&#45;&gt;Node2</title>
<path fill="none" stroke="midnightblue" d="M73.9056,-105C82.2202,-105 91.129,-105 99.9489,-105"/>
<polygon fill="midnightblue" stroke="midnightblue" points="73.7432,-101.5 63.7432,-105 73.7431,-108.5 73.7432,-101.5"/>
</g>
<!-- Node3 -->
<g id="node3" class="node"><title>Node3</title>
<g id="a_node3"><a xlink:href="d0/d1a/classsimulation_objects_1_1_ant_cell.html" target="_top" xlink:title="simulationObjects.AntCell">
<polygon fill="white" stroke="black" points="270.5,-190.5 270.5,-209.5 409.5,-209.5 409.5,-190.5 270.5,-190.5"/>
<text text-anchor="middle" x="340" y="-197.5" font-family="Helvetica,sans-Serif" font-size="10.00">simulationObjects.AntCell</text>
</a>
</g>
</g>
<!-- Node2&#45;&gt;Node3 -->
<g id="edge2" class="edge"><title>Node2&#45;&gt;Node3</title>
<path fill="none" stroke="midnightblue" d="M178.44,-121.825C196.4,-139.228 226.794,-165.925 258,-181 265.934,-184.833 274.686,-187.918 283.415,-190.393"/>
<polygon fill="midnightblue" stroke="midnightblue" points="180.673,-119.11 171.105,-114.559 175.746,-124.083 180.673,-119.11"/>
</g>
<!-- Node4 -->
<g id="node4" class="node"><title>Node4</title>
<g id="a_node4"><a xlink:href="dc/d23/classsimulation_objects_1_1_forest_cell.html" target="_top" xlink:title="simulationObjects.ForestCell">
<polygon fill="white" stroke="black" points="264,-152.5 264,-171.5 416,-171.5 416,-152.5 264,-152.5"/>
<text text-anchor="middle" x="340" y="-159.5" font-family="Helvetica,sans-Serif" font-size="10.00">simulationObjects.ForestCell</text>
</a>
</g>
</g>
<!-- Node2&#45;&gt;Node4 -->
<g id="edge3" class="edge"><title>Node2&#45;&gt;Node4</title>
<path fill="none" stroke="midnightblue" d="M192.848,-118.547C211.471,-126.388 235.817,-136.049 258,-143 269.165,-146.498 281.373,-149.685 292.847,-152.407"/>
<polygon fill="midnightblue" stroke="midnightblue" points="193.978,-115.224 183.407,-114.522 191.233,-121.663 193.978,-115.224"/>
</g>
<!-- Node5 -->
<g id="node5" class="node"><title>Node5</title>
<g id="a_node5"><a xlink:href="da/ddf/classsimulation_objects_1_1_life_cell.html" target="_top" xlink:title="simulationObjects.LifeCell">
<polygon fill="white" stroke="black" points="270.5,-114.5 270.5,-133.5 409.5,-133.5 409.5,-114.5 270.5,-114.5"/>
<text text-anchor="middle" x="340" y="-121.5" font-family="Helvetica,sans-Serif" font-size="10.00">simulationObjects.LifeCell</text>
</a>
</g>
</g>
<!-- Node2&#45;&gt;Node5 -->
<g id="edge4" class="edge"><title>Node2&#45;&gt;Node5</title>
<path fill="none" stroke="midnightblue" d="M232.699,-112.589C245.101,-113.92 257.99,-115.304 270.336,-116.629"/>
<polygon fill="midnightblue" stroke="midnightblue" points="232.735,-109.073 222.418,-111.486 231.988,-116.033 232.735,-109.073"/>
</g>
<!-- Node6 -->
<g id="node6" class="node"><title>Node6</title>
<g id="a_node6"><a xlink:href="db/dee/classsimulation_objects_1_1_predator_cell.html" target="_top" xlink:title="simulationObjects.PredatorCell">
<polygon fill="white" stroke="black" points="258,-76.5 258,-95.5 422,-95.5 422,-76.5 258,-76.5"/>
<text text-anchor="middle" x="340" y="-83.5" font-family="Helvetica,sans-Serif" font-size="10.00">simulationObjects.PredatorCell</text>
</a>
</g>
</g>
<!-- Node2&#45;&gt;Node6 -->
<g id="edge5" class="edge"><title>Node2&#45;&gt;Node6</title>
<path fill="none" stroke="midnightblue" d="M232.472,-97.4352C240.823,-96.5388 249.397,-95.6184 257.88,-94.7078"/>
<polygon fill="midnightblue" stroke="midnightblue" points="231.988,-93.967 222.418,-98.5144 232.735,-100.927 231.988,-93.967"/>
</g>
<!-- Node7 -->
<g id="node7" class="node"><title>Node7</title>
<g id="a_node7"><a xlink:href="db/d5f/classsimulation_objects_1_1_seg_cell.html" target="_top" xlink:title="simulationObjects.SegCell">
<polygon fill="white" stroke="black" points="269.5,-38.5 269.5,-57.5 410.5,-57.5 410.5,-38.5 269.5,-38.5"/>
<text text-anchor="middle" x="340" y="-45.5" font-family="Helvetica,sans-Serif" font-size="10.00">simulationObjects.SegCell</text>
</a>
</g>
</g>
<!-- Node2&#45;&gt;Node7 -->
<g id="edge6" class="edge"><title>Node2&#45;&gt;Node7</title>
<path fill="none" stroke="midnightblue" d="M192.848,-91.453C211.471,-83.612 235.817,-73.9511 258,-67 269.165,-63.5016 281.373,-60.3149 292.847,-57.5929"/>
<polygon fill="midnightblue" stroke="midnightblue" points="191.233,-88.3366 183.407,-95.4781 193.978,-94.7758 191.233,-88.3366"/>
</g>
<!-- Node8 -->
<g id="node8" class="node"><title>Node8</title>
<g id="a_node8"><a xlink:href="db/d71/classsimulation_objects_1_1_sugar_cell.html" target="_top" xlink:title="simulationObjects.SugarCell">
<polygon fill="white" stroke="black" points="264.5,-0.5 264.5,-19.5 415.5,-19.5 415.5,-0.5 264.5,-0.5"/>
<text text-anchor="middle" x="340" y="-7.5" font-family="Helvetica,sans-Serif" font-size="10.00">simulationObjects.SugarCell</text>
</a>
</g>
</g>
<!-- Node2&#45;&gt;Node8 -->
<g id="edge7" class="edge"><title>Node2&#45;&gt;Node8</title>
<path fill="none" stroke="midnightblue" d="M178.44,-88.1748C196.4,-70.7721 226.794,-44.0748 258,-29 265.934,-25.1674 274.686,-22.0825 283.415,-19.6065"/>
<polygon fill="midnightblue" stroke="midnightblue" points="175.746,-85.9171 171.105,-95.4414 180.673,-90.8901 175.746,-85.9171"/>
</g>
</g>
</svg>
