<?xml version="1.0" encoding="UTF-8" standalone="no"?>
<!DOCTYPE svg PUBLIC "-//W3C//DTD SVG 1.1//EN"
 "http://www.w3.org/Graphics/SVG/1.1/DTD/svg11.dtd">
<!-- Generated by graphviz version 2.36.0 (20140111.2315)
 -->
<!-- Title: Graphical Class Hierarchy Pages: 1 -->
<svg width="226pt" height="66pt"
 viewBox="0.00 0.00 226.00 66.00" xmlns="http://www.w3.org/2000/svg" xmlns:xlink="http://www.w3.org/1999/xlink">
<g id="graph0" class="graph" transform="scale(1 1) rotate(0) translate(4 62)">
<title>Graphical Class Hierarchy</title>
<polygon fill="white" stroke="none" points="-4,4 -4,-62 222,-62 222,4 -4,4"/>
<!-- Node1 -->
<g id="node1" class="node"><title>Node1</title>
<polygon fill="white" stroke="#bfbfbf" points="0,-19.5 0,-38.5 40,-38.5 40,-19.5 0,-19.5"/>
<text text-anchor="middle" x="20" y="-26.5" font-family="Helvetica,sans-Serif" font-size="10.00">Pane</text>
</g>
<!-- Node2 -->
<g id="node2" class="node"><title>Node2</title>
<g id="a_node2"><a xlink:href="d7/d97/classcontroller_1_1_grid.html" target="_top" xlink:title="controller.Grid">
<polygon fill="white" stroke="black" points="105.5,-38.5 105.5,-57.5 188.5,-57.5 188.5,-38.5 105.5,-38.5"/>
<text text-anchor="middle" x="147" y="-45.5" font-family="Helvetica,sans-Serif" font-size="10.00">controller.Grid</text>
</a>
</g>
</g>
<!-- Node1&#45;&gt;Node2 -->
<g id="edge1" class="edge"><title>Node1&#45;&gt;Node2</title>
<path fill="none" stroke="midnightblue" d="M50.3225,-33.457C66.6872,-35.9444 87.3251,-39.0814 105.241,-41.8046"/>
<polygon fill="midnightblue" stroke="midnightblue" points="50.6697,-29.9697 40.2573,-31.9271 49.6178,-36.8902 50.6697,-29.9697"/>
</g>
<!-- Node3 -->
<g id="node3" class="node"><title>Node3</title>
<g id="a_node3"><a xlink:href="de/d4d/classcontroller_1_1_simulation_chart.html" target="_top" xlink:title="controller.SimulationChart">
<polygon fill="white" stroke="black" points="76.5,-0.5 76.5,-19.5 217.5,-19.5 217.5,-0.5 76.5,-0.5"/>
<text text-anchor="middle" x="147" y="-7.5" font-family="Helvetica,sans-Serif" font-size="10.00">controller.SimulationChart</text>
</a>
</g>
</g>
<!-- Node1&#45;&gt;Node3 -->
<g id="edge2" class="edge"><title>Node1&#45;&gt;Node3</title>
<path fill="none" stroke="midnightblue" d="M50.3559,-24.5379C60.3007,-23.0263 71.8207,-21.2753 83.3477,-19.5232"/>
<polygon fill="midnightblue" stroke="midnightblue" points="49.6178,-21.1098 40.2573,-26.0729 50.6697,-28.0303 49.6178,-21.1098"/>
</g>
</g>
</svg>
