<?xml version="1.0" encoding="UTF-8" standalone="no"?>
<!DOCTYPE svg PUBLIC "-//W3C//DTD SVG 1.1//EN"
 "http://www.w3.org/Graphics/SVG/1.1/DTD/svg11.dtd">
<!-- Generated by graphviz version 2.36.0 (20140111.2315)
 -->
<!-- Title: Graphical Class Hierarchy Pages: 1 -->
<svg width="418pt" height="104pt"
 viewBox="0.00 0.00 418.00 104.00" xmlns="http://www.w3.org/2000/svg" xmlns:xlink="http://www.w3.org/1999/xlink">
<g id="graph0" class="graph" transform="scale(1 1) rotate(0) translate(4 100)">
<title>Graphical Class Hierarchy</title>
<polygon fill="white" stroke="none" points="-4,4 -4,-100 414,-100 414,4 -4,4"/>
<!-- Node1 -->
<g id="node1" class="node"><title>Node1</title>
<polygon fill="white" stroke="#bfbfbf" points="0,-38.5 0,-57.5 46,-57.5 46,-38.5 0,-38.5"/>
<text text-anchor="middle" x="23" y="-45.5" font-family="Helvetica,sans-Serif" font-size="10.00">Group</text>
</g>
<!-- Node2 -->
<g id="node2" class="node"><title>Node2</title>
<g id="a_node2"><a xlink:href="d5/da5/classsimulation_objects_1_1_patch.html" target="_top" xlink:title="simulationObjects.Patch">
<polygon fill="white" stroke="black" points="82.5,-38.5 82.5,-57.5 213.5,-57.5 213.5,-38.5 82.5,-38.5"/>
<text text-anchor="middle" x="148" y="-45.5" font-family="Helvetica,sans-Serif" font-size="10.00">simulationObjects.Patch</text>
</a>
</g>
</g>
<!-- Node1&#45;&gt;Node2 -->
<g id="edge1" class="edge"><title>Node1&#45;&gt;Node2</title>
<path fill="none" stroke="midnightblue" d="M56.3404,-48C64.4319,-48 73.3997,-48 82.4557,-48"/>
<polygon fill="midnightblue" stroke="midnightblue" points="56.2744,-44.5001 46.2744,-48 56.2743,-51.5001 56.2744,-44.5001"/>
</g>
<!-- Node3 -->
<g id="node3" class="node"><title>Node3</title>
<g id="a_node3"><a xlink:href="de/d1a/classsimulation_objects_1_1_ant_patch.html" target="_top" xlink:title="simulationObjects.AntPatch">
<polygon fill="white" stroke="black" points="256,-76.5 256,-95.5 404,-95.5 404,-76.5 256,-76.5"/>
<text text-anchor="middle" x="330" y="-83.5" font-family="Helvetica,sans-Serif" font-size="10.00">simulationObjects.AntPatch</text>
</a>
</g>
</g>
<!-- Node2&#45;&gt;Node3 -->
<g id="edge2" class="edge"><title>Node2&#45;&gt;Node3</title>
<path fill="none" stroke="midnightblue" d="M204.331,-59.681C229.857,-65.0699 259.776,-71.3861 283.905,-76.4799"/>
<polygon fill="midnightblue" stroke="midnightblue" points="204.929,-56.2301 194.422,-57.589 203.483,-63.0792 204.929,-56.2301"/>
</g>
<!-- Node4 -->
<g id="node4" class="node"><title>Node4</title>
<g id="a_node4"><a xlink:href="da/db6/classsimulation_objects_1_1_life_patch.html" target="_top" xlink:title="simulationObjects.LifePatch">
<polygon fill="white" stroke="black" points="256,-38.5 256,-57.5 404,-57.5 404,-38.5 256,-38.5"/>
<text text-anchor="middle" x="330" y="-45.5" font-family="Helvetica,sans-Serif" font-size="10.00">simulationObjects.LifePatch</text>
</a>
</g>
</g>
<!-- Node2&#45;&gt;Node4 -->
<g id="edge3" class="edge"><title>Node2&#45;&gt;Node4</title>
<path fill="none" stroke="midnightblue" d="M223.819,-48C234.456,-48 245.384,-48 255.986,-48"/>
<polygon fill="midnightblue" stroke="midnightblue" points="223.73,-44.5001 213.73,-48 223.73,-51.5001 223.73,-44.5001"/>
</g>
<!-- Node5 -->
<g id="node5" class="node"><title>Node5</title>
<g id="a_node5"><a xlink:href="d6/dae/classsimulation_objects_1_1_sugar_patch.html" target="_top" xlink:title="simulationObjects.SugarPatch">
<polygon fill="white" stroke="black" points="250,-0.5 250,-19.5 410,-19.5 410,-0.5 250,-0.5"/>
<text text-anchor="middle" x="330" y="-7.5" font-family="Helvetica,sans-Serif" font-size="10.00">simulationObjects.SugarPatch</text>
</a>
</g>
</g>
<!-- Node2&#45;&gt;Node5 -->
<g id="edge4" class="edge"><title>Node2&#45;&gt;Node5</title>
<path fill="none" stroke="midnightblue" d="M204.331,-36.319C229.857,-30.9301 259.776,-24.6139 283.905,-19.5201"/>
<polygon fill="midnightblue" stroke="midnightblue" points="203.483,-32.9208 194.422,-38.411 204.929,-39.7699 203.483,-32.9208"/>
</g>
</g>
</svg>
