<?xml version="1.0" encoding="UTF-8" standalone="no"?>
<!DOCTYPE svg PUBLIC "-//W3C//DTD SVG 1.1//EN"
 "http://www.w3.org/Graphics/SVG/1.1/DTD/svg11.dtd">
<!-- Generated by graphviz version 2.36.0 (20140111.2315)
 -->
<!-- Title: Graphical Class Hierarchy Pages: 1 -->
<svg width="326pt" height="66pt"
 viewBox="0.00 0.00 326.00 66.00" xmlns="http://www.w3.org/2000/svg" xmlns:xlink="http://www.w3.org/1999/xlink">
<g id="graph0" class="graph" transform="scale(1 1) rotate(0) translate(4 62)">
<title>Graphical Class Hierarchy</title>
<polygon fill="white" stroke="none" points="-4,4 -4,-62 322,-62 322,4 -4,4"/>
<!-- Node1 -->
<g id="node1" class="node"><title>Node1</title>
<g id="a_node1"><a xlink:href="dd/d38/classcontroller_1_1_grid_edge_rules.html" target="_top" xlink:title="controller.GridEdgeRules">
<polygon fill="white" stroke="black" points="0,-19.5 0,-38.5 132,-38.5 132,-19.5 0,-19.5"/>
<text text-anchor="middle" x="66" y="-26.5" font-family="Helvetica,sans-Serif" font-size="10.00">controller.GridEdgeRules</text>
</a>
</g>
</g>
<!-- Node2 -->
<g id="node2" class="node"><title>Node2</title>
<g id="a_node2"><a xlink:href="d4/d5d/classcontroller_1_1_default_edge_rules.html" target="_top" xlink:title="controller.DefaultEdgeRules">
<polygon fill="white" stroke="black" points="169.5,-38.5 169.5,-57.5 316.5,-57.5 316.5,-38.5 169.5,-38.5"/>
<text text-anchor="middle" x="243" y="-45.5" font-family="Helvetica,sans-Serif" font-size="10.00">controller.DefaultEdgeRules</text>
</a>
</g>
</g>
<!-- Node1&#45;&gt;Node2 -->
<g id="edge1" class="edge"><title>Node1&#45;&gt;Node2</title>
<path fill="none" stroke="midnightblue" d="M142.245,-37.1695C151.26,-38.1482 160.451,-39.1462 169.427,-40.1207"/>
<polygon fill="midnightblue" stroke="midnightblue" points="142.483,-33.6748 132.164,-36.0749 141.727,-40.6339 142.483,-33.6748"/>
</g>
<!-- Node3 -->
<g id="node3" class="node"><title>Node3</title>
<g id="a_node3"><a xlink:href="d2/d45/classcontroller_1_1_toroidal_edge_rules.html" target="_top" xlink:title="controller.ToroidalEdgeRules">
<polygon fill="white" stroke="black" points="168.5,-0.5 168.5,-19.5 317.5,-19.5 317.5,-0.5 168.5,-0.5"/>
<text text-anchor="middle" x="243" y="-7.5" font-family="Helvetica,sans-Serif" font-size="10.00">controller.ToroidalEdgeRules</text>
</a>
</g>
</g>
<!-- Node1&#45;&gt;Node3 -->
<g id="edge2" class="edge"><title>Node1&#45;&gt;Node3</title>
<path fill="none" stroke="midnightblue" d="M142.201,-20.8353C150.833,-19.8982 159.627,-18.9433 168.24,-18.0082"/>
<polygon fill="midnightblue" stroke="midnightblue" points="141.727,-17.3661 132.164,-21.9251 142.483,-24.3252 141.727,-17.3661"/>
</g>
</g>
</svg>
