<?xml version="1.0" encoding="UTF-8" standalone="no"?>
<!DOCTYPE svg PUBLIC "-//W3C//DTD SVG 1.1//EN"
 "http://www.w3.org/Graphics/SVG/1.1/DTD/svg11.dtd">
<!-- Generated by graphviz version 2.36.0 (20140111.2315)
 -->
<!-- Title: Graphical Class Hierarchy Pages: 1 -->
<svg width="446pt" height="136pt"
 viewBox="0.00 0.00 446.00 136.00" xmlns="http://www.w3.org/2000/svg" xmlns:xlink="http://www.w3.org/1999/xlink">
<g id="graph0" class="graph" transform="scale(1 1) rotate(0) translate(4 132)">
<title>Graphical Class Hierarchy</title>
<polygon fill="white" stroke="none" points="-4,4 -4,-132 442,-132 442,4 -4,4"/>
<!-- Node1 -->
<g id="node1" class="node"><title>Node1</title>
<polygon fill="white" stroke="#bfbfbf" points="0,-54.5 0,-73.5 54,-73.5 54,-54.5 0,-54.5"/>
<text text-anchor="middle" x="27" y="-61.5" font-family="Helvetica,sans-Serif" font-size="10.00">Polygon</text>
</g>
<!-- Node2 -->
<g id="node2" class="node"><title>Node2</title>
<g id="a_node2"><a xlink:href="d0/d1a/classsimulation_objects_1_1_patch_body.html" target="_top" xlink:title="simulationObjects.PatchBody">
<polygon fill="white" stroke="black" points="90.5,-54.5 90.5,-73.5 245.5,-73.5 245.5,-54.5 90.5,-54.5"/>
<text text-anchor="middle" x="168" y="-61.5" font-family="Helvetica,sans-Serif" font-size="10.00">simulationObjects.PatchBody</text>
</a>
</g>
</g>
<!-- Node1&#45;&gt;Node2 -->
<g id="edge1" class="edge"><title>Node1&#45;&gt;Node2</title>
<path fill="none" stroke="midnightblue" d="M64.2609,-64C72.339,-64 81.2007,-64 90.2279,-64"/>
<polygon fill="midnightblue" stroke="midnightblue" points="64.1449,-60.5001 54.1448,-64 64.1448,-67.5001 64.1449,-60.5001"/>
</g>
<!-- Node3 -->
<g id="node3" class="node"><title>Node3</title>
<g id="a_node3"><a xlink:href="d8/dfe/classsimulation_objects_1_1_patch_body_hexagon.html" target="_top" xlink:title="simulationObjects.PatchBody\lHexagon">
<polygon fill="white" stroke="black" points="282.5,-98 282.5,-128 437.5,-128 437.5,-98 282.5,-98"/>
<text text-anchor="start" x="290.5" y="-116" font-family="Helvetica,sans-Serif" font-size="10.00">simulationObjects.PatchBody</text>
<text text-anchor="middle" x="360" y="-105" font-family="Helvetica,sans-Serif" font-size="10.00">Hexagon</text>
</a>
</g>
</g>
<!-- Node2&#45;&gt;Node3 -->
<g id="edge2" class="edge"><title>Node2&#45;&gt;Node3</title>
<path fill="none" stroke="midnightblue" d="M215.925,-76.1018C241.541,-82.708 273.489,-90.9471 300.693,-97.963"/>
<polygon fill="midnightblue" stroke="midnightblue" points="216.642,-72.6722 206.085,-73.564 214.894,-79.4504 216.642,-72.6722"/>
</g>
<!-- Node4 -->
<g id="node4" class="node"><title>Node4</title>
<g id="a_node4"><a xlink:href="d9/d93/classsimulation_objects_1_1_patch_body_rectangle.html" target="_top" xlink:title="simulationObjects.PatchBody\lRectangle">
<polygon fill="white" stroke="black" points="282.5,-49 282.5,-79 437.5,-79 437.5,-49 282.5,-49"/>
<text text-anchor="start" x="290.5" y="-67" font-family="Helvetica,sans-Serif" font-size="10.00">simulationObjects.PatchBody</text>
<text text-anchor="middle" x="360" y="-56" font-family="Helvetica,sans-Serif" font-size="10.00">Rectangle</text>
</a>
</g>
</g>
<!-- Node2&#45;&gt;Node4 -->
<g id="edge3" class="edge"><title>Node2&#45;&gt;Node4</title>
<path fill="none" stroke="midnightblue" d="M255.978,-64C264.758,-64 273.629,-64 282.29,-64"/>
<polygon fill="midnightblue" stroke="midnightblue" points="255.733,-60.5001 245.733,-64 255.733,-67.5001 255.733,-60.5001"/>
</g>
<!-- Node5 -->
<g id="node5" class="node"><title>Node5</title>
<g id="a_node5"><a xlink:href="dc/df0/classsimulation_objects_1_1_patch_body_triangle.html" target="_top" xlink:title="simulationObjects.PatchBody\lTriangle">
<polygon fill="white" stroke="black" points="282.5,-0 282.5,-30 437.5,-30 437.5,-0 282.5,-0"/>
<text text-anchor="start" x="290.5" y="-18" font-family="Helvetica,sans-Serif" font-size="10.00">simulationObjects.PatchBody</text>
<text text-anchor="middle" x="360" y="-7" font-family="Helvetica,sans-Serif" font-size="10.00">Triangle</text>
</a>
</g>
</g>
<!-- Node2&#45;&gt;Node5 -->
<g id="edge4" class="edge"><title>Node2&#45;&gt;Node5</title>
<path fill="none" stroke="midnightblue" d="M215.925,-51.8982C241.541,-45.292 273.489,-37.0529 300.693,-30.037"/>
<polygon fill="midnightblue" stroke="midnightblue" points="214.894,-48.5496 206.085,-54.436 216.642,-55.3278 214.894,-48.5496"/>
</g>
</g>
</svg>
