<?xml version="1.0" encoding="UTF-8" standalone="no"?>
<!DOCTYPE svg PUBLIC "-//W3C//DTD SVG 1.1//EN"
 "http://www.w3.org/Graphics/SVG/1.1/DTD/svg11.dtd">
<!-- Generated by graphviz version 2.36.0 (20140111.2315)
 -->
<!-- Title: simulationObjects.SugarCell Pages: 1 -->
<!--zoomable 548 -->
<svg id="main" version="1.1" xmlns="http://www.w3.org/2000/svg" xmlns:xlink="http://www.w3.org/1999/xlink" xml:space="preserve" onload="init(evt)">
<style type="text/css"><![CDATA[
.edge:hover path { stroke: red; }
.edge:hover polygon { stroke: red; fill: red; }
]]></style>
<script type="text/javascript"><![CDATA[
var edges = document.getElementsByTagName('g');
if (edges && edges.length) {
  for (var i=0;i<edges.length;i++) {
    if (edges[i].id.substr(0,4)=='edge') {
      edges[i].setAttribute('class','edge');
    }
  }
}
]]></script>
        <defs>
                <circle id="rim" cx="0" cy="0" r="7"/>
                <circle id="rim2" cx="0" cy="0" r="3.5"/>
                <g id="zoomPlus">
                        <use xlink:href="#rim" fill="#404040">
                                <set attributeName="fill" to="#808080" begin="zoomplus.mouseover" end="zoomplus.mouseout"/>
                        </use>
                        <path d="M-4,0h8M0,-4v8" fill="none" stroke="white" stroke-width="1.5" pointer-events="none"/>
                </g>
                <g id="zoomMin">
                        <use xlink:href="#rim" fill="#404040">
                                <set attributeName="fill" to="#808080" begin="zoomminus.mouseover" end="zoomminus.mouseout"/>
                        </use>
                        <path d="M-4,0h8" fill="none" stroke="white" stroke-width="1.5" pointer-events="none"/>
                </g>
                <g id="dirArrow">
                        <path fill="none" stroke="white" stroke-width="1.5" d="M0,-3.0v7 M-2.5,-0.5L0,-3.0L2.5,-0.5"/>
                </g>
               <g id="resetDef">
                       <use xlink:href="#rim2" fill="#404040">
                               <set attributeName="fill" to="#808080" begin="reset.mouseover" end="reset.mouseout"/>
                       </use>
               </g>
        </defs>

<script type="text/javascript">
var viewWidth = 1278;
var viewHeight = 548;
var sectionId = 'dynsection-1';
</script>
<script xlink:href="../../svgpan.js"/>
<svg id="graph" class="graph">
<g id="viewport">
<title>simulationObjects.SugarCell</title>
<polygon fill="white" stroke="none" points="-4,4 -4,-544 1274,-544 1274,4 -4,4"/>
<!-- Node1 -->
<g id="node1" class="node"><title>Node1</title>
<polygon fill="#bfbfbf" stroke="black" points="705.5,-453.5 705.5,-472.5 856.5,-472.5 856.5,-453.5 705.5,-453.5"/>
<text text-anchor="middle" x="781" y="-460.5" font-family="Helvetica,sans-Serif" font-size="10.00">simulationObjects.SugarCell</text>
</g>
<!-- Node2 -->
<g id="node2" class="node"><title>Node2</title>
<g id="a_node2"><a xlink:href="../../d2/d6e/classsimulation_objects_1_1_cell.html" target="_top" xlink:title="simulationObjects.Cell">
<polygon fill="white" stroke="black" points="459,-359.5 459,-378.5 581,-378.5 581,-359.5 459,-359.5"/>
<text text-anchor="middle" x="520" y="-366.5" font-family="Helvetica,sans-Serif" font-size="10.00">simulationObjects.Cell</text>
</a>
</g>
</g>
<!-- Node2&#45;&gt;Node1 -->
<g id="edge1" class="edge"><title>Node2&#45;&gt;Node1</title>
<path fill="none" stroke="midnightblue" d="M546.922,-383.414C565.704,-393.461 591.924,-406.682 616,-416 657.018,-431.875 705.634,-445.148 739.23,-453.495"/>
<polygon fill="midnightblue" stroke="midnightblue" points="548.545,-380.313 538.085,-378.627 545.211,-386.468 548.545,-380.313"/>
</g>
<!-- Node4 -->
<g id="node4" class="node"><title>Node4</title>
<g id="a_node4"><a xlink:href="../../d5/da5/classsimulation_objects_1_1_patch.html" target="_top" xlink:title="simulationObjects.Patch">
<polygon fill="white" stroke="black" points="715.5,-259.5 715.5,-278.5 846.5,-278.5 846.5,-259.5 715.5,-259.5"/>
<text text-anchor="middle" x="781" y="-266.5" font-family="Helvetica,sans-Serif" font-size="10.00">simulationObjects.Patch</text>
</a>
</g>
</g>
<!-- Node2&#45;&gt;Node4 -->
<g id="edge9" class="edge"><title>Node2&#45;&gt;Node4</title>
<path fill="none" stroke="#9a32cd" stroke-dasharray="5,2" d="M591.449,-368.462C621.032,-366.096 655.188,-360.466 684,-348 721.837,-331.629 756.653,-295.711 771.894,-278.527"/>
<polygon fill="#9a32cd" stroke="#9a32cd" points="590.927,-364.99 581.192,-369.169 591.409,-371.973 590.927,-364.99"/>
<text text-anchor="middle" x="650" y="-369" font-family="Helvetica,sans-Serif" font-size="10.00"> myCell</text>
</g>
<!-- Node3 -->
<g id="node3" class="node"><title>Node3</title>
<polygon fill="white" stroke="#bfbfbf" points="271.5,-323.5 271.5,-342.5 334.5,-342.5 334.5,-323.5 271.5,-323.5"/>
<text text-anchor="middle" x="303" y="-330.5" font-family="Helvetica,sans-Serif" font-size="10.00">Rectangle</text>
</g>
<!-- Node3&#45;&gt;Node2 -->
<g id="edge2" class="edge"><title>Node3&#45;&gt;Node2</title>
<path fill="none" stroke="midnightblue" d="M345.047,-339.873C378.191,-345.423 425.203,-353.294 461.999,-359.456"/>
<polygon fill="midnightblue" stroke="midnightblue" points="345.245,-336.357 334.804,-338.158 344.089,-343.261 345.245,-336.357"/>
</g>
<!-- Node4&#45;&gt;Node2 -->
<g id="edge3" class="edge"><title>Node4&#45;&gt;Node2</title>
<path fill="none" stroke="#9a32cd" stroke-dasharray="5,2" d="M752.172,-283.064C733.202,-292.398 707.38,-304.611 684,-314 682.376,-314.652 595.691,-343.853 549.417,-359.434"/>
<polygon fill="#9a32cd" stroke="#9a32cd" points="753.752,-286.188 761.155,-278.608 750.641,-279.917 753.752,-286.188"/>
<text text-anchor="middle" x="650" y="-340" font-family="Helvetica,sans-Serif" font-size="10.00"> myPatch</text>
</g>
<!-- Node10 -->
<g id="node10" class="node"><title>Node10</title>
<g id="a_node10"><a xlink:href="../../d7/d97/classcontroller_1_1_grid.html" target="_top" xlink:title="controller.Grid">
<polygon fill="white" stroke="black" points="950.5,-223.5 950.5,-242.5 1033.5,-242.5 1033.5,-223.5 950.5,-223.5"/>
<text text-anchor="middle" x="992" y="-230.5" font-family="Helvetica,sans-Serif" font-size="10.00">controller.Grid</text>
</a>
</g>
</g>
<!-- Node4&#45;&gt;Node10 -->
<g id="edge13" class="edge"><title>Node4&#45;&gt;Node10</title>
<path fill="none" stroke="#9a32cd" stroke-dasharray="5,2" d="M834.854,-257.348C848.847,-254.439 863.965,-251.453 878,-249 901.909,-244.821 928.811,-240.978 950.367,-238.106"/>
<polygon fill="#9a32cd" stroke="#9a32cd" points="833.961,-253.96 824.896,-259.444 835.402,-260.81 833.961,-253.96"/>
<text text-anchor="middle" x="905" y="-252" font-family="Helvetica,sans-Serif" font-size="10.00"> gridArray</text>
</g>
<!-- Node5 -->
<g id="node5" class="node"><title>Node5</title>
<polygon fill="white" stroke="#bfbfbf" points="497,-135.5 497,-154.5 543,-154.5 543,-135.5 497,-135.5"/>
<text text-anchor="middle" x="520" y="-142.5" font-family="Helvetica,sans-Serif" font-size="10.00">Group</text>
</g>
<!-- Node5&#45;&gt;Node4 -->
<g id="edge4" class="edge"><title>Node5&#45;&gt;Node4</title>
<path fill="none" stroke="midnightblue" d="M553.112,-152.213C566.997,-155.515 583.38,-159.657 598,-164 636.805,-175.528 654.402,-166.384 684,-194 698.849,-207.855 687.606,-221.673 702,-236 712.942,-246.892 728.03,-254.4 742.022,-259.469"/>
<polygon fill="midnightblue" stroke="midnightblue" points="553.587,-148.73 543.053,-149.863 551.994,-155.546 553.587,-148.73"/>
</g>
<!-- Node6 -->
<g id="node6" class="node"><title>Node6</title>
<g id="a_node6"><a xlink:href="../../de/d7a/classcontroller_1_1_grid_info.html" target="_top" xlink:title="controller.GridInfo">
<polygon fill="white" stroke="black" points="252.5,-269.5 252.5,-288.5 353.5,-288.5 353.5,-269.5 252.5,-269.5"/>
<text text-anchor="middle" x="303" y="-276.5" font-family="Helvetica,sans-Serif" font-size="10.00">controller.GridInfo</text>
</a>
</g>
</g>
<!-- Node6&#45;&gt;Node2 -->
<g id="edge26" class="edge"><title>Node6&#45;&gt;Node2</title>
<path fill="none" stroke="#9a32cd" stroke-dasharray="5,2" d="M336.232,-292.59C364.19,-304.367 405.75,-321.85 442,-337 460.032,-344.536 480.459,-353.023 495.74,-359.362"/>
<polygon fill="#9a32cd" stroke="#9a32cd" points="337.515,-289.332 326.941,-288.675 334.797,-295.783 337.515,-289.332"/>
<text text-anchor="middle" x="398" y="-333" font-family="Helvetica,sans-Serif" font-size="10.00"> infoSheet</text>
</g>
<!-- Node6&#45;&gt;Node4 -->
<g id="edge5" class="edge"><title>Node6&#45;&gt;Node4</title>
<path fill="none" stroke="#9a32cd" stroke-dasharray="5,2" d="M363.615,-277.748C453.435,-275.861 622.792,-272.303 715.437,-270.356"/>
<polygon fill="#9a32cd" stroke="#9a32cd" points="363.518,-274.249 353.593,-277.958 363.665,-281.247 363.518,-274.249"/>
<text text-anchor="middle" x="520" y="-279" font-family="Helvetica,sans-Serif" font-size="10.00"> infoSheet</text>
</g>
<!-- Node6&#45;&gt;Node10 -->
<g id="edge12" class="edge"><title>Node6&#45;&gt;Node10</title>
<path fill="none" stroke="#9a32cd" stroke-dasharray="5,2" d="M313.783,-260.35C332.977,-226.049 379.231,-153.914 442,-126 516.593,-92.8276 853.295,-158.076 860,-160 907.3,-173.571 956.161,-206.893 978.497,-223.405"/>
<polygon fill="#9a32cd" stroke="#9a32cd" points="310.606,-258.866 308.9,-269.322 316.754,-262.212 310.606,-258.866"/>
<text text-anchor="middle" x="650" y="-134" font-family="Helvetica,sans-Serif" font-size="10.00"> infoSheet</text>
</g>
<!-- Node18 -->
<g id="node18" class="node"><title>Node18</title>
<g id="a_node18"><a xlink:href="../../d0/d1a/classsimulation_objects_1_1_patch_body.html" target="_top" xlink:title="simulationObjects.PatchBody">
<polygon fill="white" stroke="black" points="442.5,-44.5 442.5,-63.5 597.5,-63.5 597.5,-44.5 442.5,-44.5"/>
<text text-anchor="middle" x="520" y="-51.5" font-family="Helvetica,sans-Serif" font-size="10.00">simulationObjects.PatchBody</text>
</a>
</g>
</g>
<!-- Node6&#45;&gt;Node18 -->
<g id="edge23" class="edge"><title>Node6&#45;&gt;Node18</title>
<path fill="none" stroke="#9a32cd" stroke-dasharray="5,2" d="M304.614,-259.318C306.99,-219.326 318.346,-128.428 372,-82 383.002,-72.4801 412.513,-65.9308 442.233,-61.5749"/>
<polygon fill="#9a32cd" stroke="#9a32cd" points="301.115,-259.225 304.147,-269.376 308.107,-259.549 301.115,-259.225"/>
<text text-anchor="middle" x="398" y="-85" font-family="Helvetica,sans-Serif" font-size="10.00"> infoSheet</text>
</g>
<!-- Node7 -->
<g id="node7" class="node"><title>Node7</title>
<polygon fill="white" stroke="#bfbfbf" points="0.5,-302.5 0.5,-321.5 143.5,-321.5 143.5,-302.5 0.5,-302.5"/>
<text text-anchor="middle" x="72" y="-309.5" font-family="Helvetica,sans-Serif" font-size="10.00">HashMap&lt; String, Color &gt;</text>
</g>
<!-- Node7&#45;&gt;Node6 -->
<g id="edge6" class="edge"><title>Node7&#45;&gt;Node6</title>
<path fill="none" stroke="#9a32cd" stroke-dasharray="5,2" d="M153.658,-301.374C179.355,-297.882 207.889,-293.895 234,-290 239.914,-289.118 246.112,-288.16 252.257,-287.191"/>
<polygon fill="#9a32cd" stroke="#9a32cd" points="153.027,-297.927 143.587,-302.737 153.966,-304.864 153.027,-297.927"/>
<text text-anchor="middle" x="198" y="-304" font-family="Helvetica,sans-Serif" font-size="10.00"> stateColors</text>
</g>
<!-- Node8 -->
<g id="node8" class="node"><title>Node8</title>
<polygon fill="white" stroke="#bfbfbf" points="30,-264.5 30,-283.5 114,-283.5 114,-264.5 30,-264.5"/>
<text text-anchor="middle" x="72" y="-271.5" font-family="Helvetica,sans-Serif" font-size="10.00">List&lt; String &gt;</text>
</g>
<!-- Node8&#45;&gt;Node6 -->
<g id="edge7" class="edge"><title>Node8&#45;&gt;Node6</title>
<path fill="none" stroke="#9a32cd" stroke-dasharray="5,2" d="M124.603,-275.127C162.825,-275.961 214.606,-277.092 252.354,-277.916"/>
<polygon fill="#9a32cd" stroke="#9a32cd" points="124.279,-271.619 114.205,-274.9 124.126,-278.617 124.279,-271.619"/>
<text text-anchor="middle" x="198" y="-281" font-family="Helvetica,sans-Serif" font-size="10.00"> myStateTypes</text>
</g>
<!-- Node9 -->
<g id="node9" class="node"><title>Node9</title>
<polygon fill="white" stroke="#bfbfbf" points="27.5,-354.5 27.5,-373.5 116.5,-373.5 116.5,-354.5 27.5,-354.5"/>
<text text-anchor="middle" x="72" y="-361.5" font-family="Helvetica,sans-Serif" font-size="10.00">List&lt; Integer &gt;</text>
</g>
<!-- Node9&#45;&gt;Node2 -->
<g id="edge27" class="edge"><title>Node9&#45;&gt;Node2</title>
<path fill="none" stroke="#9a32cd" stroke-dasharray="5,2" d="M126.625,-364.601C210.241,-365.539 371.152,-367.343 458.69,-368.324"/>
<polygon fill="#9a32cd" stroke="#9a32cd" points="126.615,-361.101 116.576,-364.489 126.537,-368.101 126.615,-361.101"/>
<text text-anchor="middle" x="303" y="-371" font-family="Helvetica,sans-Serif" font-size="10.00"> myParamList</text>
</g>
<!-- Node9&#45;&gt;Node6 -->
<g id="edge8" class="edge"><title>Node9&#45;&gt;Node6</title>
<path fill="none" stroke="#9a32cd" stroke-dasharray="5,2" d="M123.583,-351.824C155.778,-343.369 198.033,-330.954 234,-316 252.739,-308.209 273.03,-296.736 286.523,-288.635"/>
<polygon fill="#9a32cd" stroke="#9a32cd" points="122.31,-348.537 113.504,-354.428 124.062,-355.315 122.31,-348.537"/>
<text text-anchor="middle" x="198" y="-344" font-family="Helvetica,sans-Serif" font-size="10.00"> paramList</text>
</g>
<!-- Node10&#45;&gt;Node4 -->
<g id="edge10" class="edge"><title>Node10&#45;&gt;Node4</title>
<path fill="none" stroke="#9a32cd" stroke-dasharray="5,2" d="M966.818,-247.682C956.469,-253.213 944.018,-258.909 932,-262 904.606,-269.046 873.488,-271.376 846.723,-271.723"/>
<polygon fill="#9a32cd" stroke="#9a32cd" points="968.645,-250.67 975.658,-242.729 965.224,-244.564 968.645,-250.67"/>
<text text-anchor="middle" x="905" y="-274" font-family="Helvetica,sans-Serif" font-size="10.00"> grid</text>
</g>
<!-- Node13 -->
<g id="node13" class="node"><title>Node13</title>
<g id="a_node13"><a xlink:href="../../dd/d38/classcontroller_1_1_grid_edge_rules.html" target="_top" xlink:title="controller.GridEdgeRules">
<polygon fill="white" stroke="black" points="1138,-223.5 1138,-242.5 1270,-242.5 1270,-223.5 1138,-223.5"/>
<text text-anchor="middle" x="1204" y="-230.5" font-family="Helvetica,sans-Serif" font-size="10.00">controller.GridEdgeRules</text>
</a>
</g>
</g>
<!-- Node10&#45;&gt;Node13 -->
<g id="edge16" class="edge"><title>Node10&#45;&gt;Node13</title>
<path fill="none" stroke="#9a32cd" stroke-dasharray="5,2" d="M1043.82,-233C1072.13,-233 1107.68,-233 1138,-233"/>
<polygon fill="#9a32cd" stroke="#9a32cd" points="1043.74,-229.5 1033.74,-233 1043.74,-236.5 1043.74,-229.5"/>
<text text-anchor="middle" x="1086" y="-236" font-family="Helvetica,sans-Serif" font-size="10.00"> grid</text>
</g>
<!-- Node11 -->
<g id="node11" class="node"><title>Node11</title>
<polygon fill="white" stroke="#bfbfbf" points="761,-207.5 761,-226.5 801,-226.5 801,-207.5 761,-207.5"/>
<text text-anchor="middle" x="781" y="-214.5" font-family="Helvetica,sans-Serif" font-size="10.00">Pane</text>
</g>
<!-- Node11&#45;&gt;Node10 -->
<g id="edge11" class="edge"><title>Node11&#45;&gt;Node10</title>
<path fill="none" stroke="midnightblue" d="M811.697,-219.273C848.024,-222.054 909.698,-226.776 950.393,-229.891"/>
<polygon fill="midnightblue" stroke="midnightblue" points="811.526,-215.75 801.288,-218.477 810.991,-222.73 811.526,-215.75"/>
</g>
<!-- Node12 -->
<g id="node12" class="node"><title>Node12</title>
<polygon fill="white" stroke="#bfbfbf" points="702,-169.5 702,-188.5 860,-188.5 860,-169.5 702,-169.5"/>
<text text-anchor="middle" x="781" y="-176.5" font-family="Helvetica,sans-Serif" font-size="10.00">HashMap&lt; Integer, Integer &gt;</text>
</g>
<!-- Node12&#45;&gt;Node10 -->
<g id="edge14" class="edge"><title>Node12&#45;&gt;Node10</title>
<path fill="none" stroke="#9a32cd" stroke-dasharray="5,2" d="M849.671,-190.482C875.655,-195.542 905.438,-202.138 932,-210 944.545,-213.713 958.176,-218.944 969.172,-223.479"/>
<polygon fill="#9a32cd" stroke="#9a32cd" points="850.02,-186.986 839.541,-188.549 848.708,-193.862 850.02,-186.986"/>
<text text-anchor="middle" x="905" y="-213" font-family="Helvetica,sans-Serif" font-size="10.00"> cellCounts</text>
</g>
<!-- Node13&#45;&gt;Node10 -->
<g id="edge15" class="edge"><title>Node13&#45;&gt;Node10</title>
<path fill="none" stroke="#9a32cd" stroke-dasharray="5,2" d="M1151.97,-221.58C1141.45,-219.673 1130.41,-217.994 1120,-217 1089.91,-214.127 1081.96,-213.01 1052,-217 1042.11,-218.317 1031.53,-220.824 1022.1,-223.47"/>
<polygon fill="#9a32cd" stroke="#9a32cd" points="1151.37,-225.03 1161.85,-223.463 1152.68,-218.154 1151.37,-225.03"/>
<text text-anchor="middle" x="1086" y="-220" font-family="Helvetica,sans-Serif" font-size="10.00"> myEdgeRules</text>
</g>
<!-- Node14 -->
<g id="node14" class="node"><title>Node14</title>
<polygon fill="white" stroke="#bfbfbf" points="453.5,-497 453.5,-527 586.5,-527 586.5,-497 453.5,-497"/>
<text text-anchor="start" x="461.5" y="-515" font-family="Helvetica,sans-Serif" font-size="10.00">List&lt; simulationObjects.</text>
<text text-anchor="middle" x="520" y="-504" font-family="Helvetica,sans-Serif" font-size="10.00">Patch &gt;</text>
</g>
<!-- Node14&#45;&gt;Node1 -->
<g id="edge29" class="edge"><title>Node14&#45;&gt;Node1</title>
<path fill="none" stroke="#9a32cd" stroke-dasharray="5,2" d="M596.776,-497.664C639.52,-489.577 691.756,-479.695 729.5,-472.554"/>
<polygon fill="#9a32cd" stroke="#9a32cd" points="595.867,-494.274 586.691,-499.572 597.168,-501.152 595.867,-494.274"/>
<text text-anchor="middle" x="650" y="-497" font-family="Helvetica,sans-Serif" font-size="10.00"> myNeighbors</text>
</g>
<!-- Node14&#45;&gt;Node4 -->
<g id="edge25" class="edge"><title>Node14&#45;&gt;Node4</title>
<path fill="none" stroke="#9a32cd" stroke-dasharray="5,2" d="M592.474,-491.38C594.401,-490.012 596.25,-488.554 598,-487 612.274,-474.324 605.023,-463.619 616,-448 640.396,-413.288 655.058,-412.023 684,-381 718.241,-344.297 756.324,-298.143 772.294,-278.525"/>
<polygon fill="#9a32cd" stroke="#9a32cd" points="590.294,-488.611 583.59,-496.815 593.947,-494.582 590.294,-488.611"/>
<text text-anchor="middle" x="650" y="-451" font-family="Helvetica,sans-Serif" font-size="10.00"> myNeighbors</text>
</g>
<!-- Node14&#45;&gt;Node10 -->
<g id="edge17" class="edge"><title>Node14&#45;&gt;Node10</title>
<path fill="none" stroke="#9a32cd" stroke-dasharray="5,2" d="M596.819,-525.787C670.894,-534.895 783.381,-536.624 860,-482 947.502,-419.617 981.357,-280.562 989.148,-242.686"/>
<polygon fill="#9a32cd" stroke="#9a32cd" points="596.998,-522.281 586.629,-524.458 596.093,-529.222 596.998,-522.281"/>
<text text-anchor="middle" x="781" y="-532" font-family="Helvetica,sans-Serif" font-size="10.00"> emptyPatches</text>
</g>
<!-- Node15 -->
<g id="node15" class="node"><title>Node15</title>
<polygon fill="white" stroke="#bfbfbf" points="486,-308.5 486,-327.5 554,-327.5 554,-308.5 486,-308.5"/>
<text text-anchor="middle" x="520" y="-315.5" font-family="Helvetica,sans-Serif" font-size="10.00">ImageView</text>
</g>
<!-- Node15&#45;&gt;Node4 -->
<g id="edge18" class="edge"><title>Node15&#45;&gt;Node4</title>
<path fill="none" stroke="#9a32cd" stroke-dasharray="5,2" d="M563.909,-309.882C609.374,-301.281 681.123,-287.707 729.336,-278.585"/>
<polygon fill="#9a32cd" stroke="#9a32cd" points="563.241,-306.446 554.066,-311.744 564.542,-313.324 563.241,-306.446"/>
<text text-anchor="middle" x="650" y="-303" font-family="Helvetica,sans-Serif" font-size="10.00"> myView</text>
</g>
<!-- Node16 -->
<g id="node16" class="node"><title>Node16</title>
<g id="a_node16"><a xlink:href="../../df/d37/enumsimulation_objects_1_1_patch_1_1_state.html" target="_top" xlink:title="simulationObjects.Patch.\lState">
<polygon fill="white" stroke="black" points="453,-212 453,-242 587,-242 587,-212 453,-212"/>
<text text-anchor="start" x="461" y="-230" font-family="Helvetica,sans-Serif" font-size="10.00">simulationObjects.Patch.</text>
<text text-anchor="middle" x="520" y="-219" font-family="Helvetica,sans-Serif" font-size="10.00">State</text>
</a>
</g>
</g>
<!-- Node16&#45;&gt;Node4 -->
<g id="edge19" class="edge"><title>Node16&#45;&gt;Node4</title>
<path fill="none" stroke="#9a32cd" stroke-dasharray="5,2" d="M597.464,-232.575C624.885,-235.206 655.948,-238.915 684,-244 705.691,-247.932 729.691,-254.182 748.268,-259.449"/>
<polygon fill="#9a32cd" stroke="#9a32cd" points="597.428,-229.057 587.147,-231.619 596.782,-236.027 597.428,-229.057"/>
<text text-anchor="middle" x="650" y="-247" font-family="Helvetica,sans-Serif" font-size="10.00"> myState</text>
</g>
<!-- Node17 -->
<g id="node17" class="node"><title>Node17</title>
<polygon fill="white" stroke="#bfbfbf" points="496.5,-173.5 496.5,-192.5 543.5,-192.5 543.5,-173.5 496.5,-173.5"/>
<text text-anchor="middle" x="520" y="-180.5" font-family="Helvetica,sans-Serif" font-size="10.00">Image</text>
</g>
<!-- Node17&#45;&gt;Node4 -->
<g id="edge20" class="edge"><title>Node17&#45;&gt;Node4</title>
<path fill="none" stroke="#9a32cd" stroke-dasharray="5,2" d="M553.899,-185.609C588.044,-189.4 642.2,-198.507 684,-220 693.519,-224.894 692.951,-230.283 702,-236 717.414,-245.738 736.196,-253.785 751.467,-259.494"/>
<polygon fill="#9a32cd" stroke="#9a32cd" points="553.861,-182.088 543.558,-184.557 553.152,-189.052 553.861,-182.088"/>
<text text-anchor="middle" x="650" y="-223" font-family="Helvetica,sans-Serif" font-size="10.00"> image</text>
</g>
<!-- Node18&#45;&gt;Node4 -->
<g id="edge21" class="edge"><title>Node18&#45;&gt;Node4</title>
<path fill="none" stroke="#9a32cd" stroke-dasharray="5,2" d="M594.604,-44.2991C626.237,-44.3756 661.12,-50.8567 684,-74 709.466,-99.7585 680.351,-206.96 702,-236 710.261,-247.081 722.972,-254.474 735.751,-259.393"/>
<polygon fill="#9a32cd" stroke="#9a32cd" points="594.401,-40.8021 584.467,-44.4863 594.53,-47.8009 594.401,-40.8021"/>
<text text-anchor="middle" x="650" y="-77" font-family="Helvetica,sans-Serif" font-size="10.00"> myBody</text>
</g>
<!-- Node19 -->
<g id="node19" class="node"><title>Node19</title>
<polygon fill="white" stroke="#bfbfbf" points="276,-38.5 276,-57.5 330,-57.5 330,-38.5 276,-38.5"/>
<text text-anchor="middle" x="303" y="-45.5" font-family="Helvetica,sans-Serif" font-size="10.00">Polygon</text>
</g>
<!-- Node19&#45;&gt;Node18 -->
<g id="edge22" class="edge"><title>Node19&#45;&gt;Node18</title>
<path fill="none" stroke="midnightblue" d="M340.447,-49.0171C368.319,-49.7949 407.733,-50.8949 442.442,-51.8635"/>
<polygon fill="midnightblue" stroke="midnightblue" points="340.457,-45.5161 330.363,-48.7357 340.262,-52.5134 340.457,-45.5161"/>
</g>
<!-- Node20 -->
<g id="node20" class="node"><title>Node20</title>
<polygon fill="white" stroke="#bfbfbf" points="282.5,-0.5 282.5,-19.5 323.5,-19.5 323.5,-0.5 282.5,-0.5"/>
<text text-anchor="middle" x="303" y="-7.5" font-family="Helvetica,sans-Serif" font-size="10.00">Point</text>
</g>
<!-- Node20&#45;&gt;Node18 -->
<g id="edge24" class="edge"><title>Node20&#45;&gt;Node18</title>
<path fill="none" stroke="#9a32cd" stroke-dasharray="5,2" d="M333.672,-16.0723C369.454,-23.3953 430.032,-35.7926 472.149,-44.412"/>
<polygon fill="#9a32cd" stroke="#9a32cd" points="334.34,-12.6367 323.841,-14.0605 332.936,-19.4945 334.34,-12.6367"/>
<text text-anchor="middle" x="398" y="-37" font-family="Helvetica,sans-Serif" font-size="10.00"> myCenter</text>
</g>
<!-- Node21 -->
<g id="node21" class="node"><title>Node21</title>
<g id="a_node21"><a xlink:href="../../de/dc9/enumsimulation_objects_1_1_sugar_cell_1_1_phase.html" target="_top" xlink:title="simulationObjects.SugarCell.\lPhase">
<polygon fill="white" stroke="black" points="443,-448 443,-478 597,-478 597,-448 443,-448"/>
<text text-anchor="start" x="451" y="-466" font-family="Helvetica,sans-Serif" font-size="10.00">simulationObjects.SugarCell.</text>
<text text-anchor="middle" x="520" y="-455" font-family="Helvetica,sans-Serif" font-size="10.00">Phase</text>
</a>
</g>
</g>
<!-- Node21&#45;&gt;Node1 -->
<g id="edge28" class="edge"><title>Node21&#45;&gt;Node1</title>
<path fill="none" stroke="#9a32cd" stroke-dasharray="5,2" d="M607.433,-463C639.073,-463 674.584,-463 705.13,-463"/>
<polygon fill="#9a32cd" stroke="#9a32cd" points="607.308,-459.5 597.308,-463 607.308,-466.5 607.308,-459.5"/>
<text text-anchor="middle" x="650" y="-466" font-family="Helvetica,sans-Serif" font-size="10.00"> myPhase</text>
</g>
</g>
</svg>
        <g id="navigator" transform="translate(0 0)" fill="#404254">
                <rect fill="#f2f5e9" fill-opacity="0.5" stroke="#606060" stroke-width=".5" x="0" y="0" width="60" height="60"/>
                <use id="zoomplus" xlink:href="#zoomPlus" x="17" y="9" onmousedown="handleZoom(evt,'in')"/>
                <use id="zoomminus" xlink:href="#zoomMin" x="42" y="9" onmousedown="handleZoom(evt,'out')"/>
                <use id="reset" xlink:href="#resetDef" x="30" y="36" onmousedown="handleReset()"/>
                <g id="arrowUp" xlink:href="#dirArrow" transform="translate(30 24)" onmousedown="handlePan(0,-1)">
                  <use xlink:href="#rim" fill="#404040">
                        <set attributeName="fill" to="#808080" begin="arrowUp.mouseover" end="arrowUp.mouseout"/>
                  </use>
                  <path fill="none" stroke="white" stroke-width="1.5" d="M0,-3.0v7 M-2.5,-0.5L0,-3.0L2.5,-0.5"/>
                </g>
                <g id="arrowRight" xlink:href="#dirArrow" transform="rotate(90) translate(36 -43)" onmousedown="handlePan(1,0)">
                  <use xlink:href="#rim" fill="#404040">
                        <set attributeName="fill" to="#808080" begin="arrowRight.mouseover" end="arrowRight.mouseout"/>
                  </use>
                  <path fill="none" stroke="white" stroke-width="1.5" d="M0,-3.0v7 M-2.5,-0.5L0,-3.0L2.5,-0.5"/>
                </g>
                <g id="arrowDown" xlink:href="#dirArrow" transform="rotate(180) translate(-30 -48)" onmousedown="handlePan(0,1)">
                  <use xlink:href="#rim" fill="#404040">
                        <set attributeName="fill" to="#808080" begin="arrowDown.mouseover" end="arrowDown.mouseout"/>
                  </use>
                  <path fill="none" stroke="white" stroke-width="1.5" d="M0,-3.0v7 M-2.5,-0.5L0,-3.0L2.5,-0.5"/>
                </g>
                <g id="arrowLeft" xlink:href="#dirArrow" transform="rotate(270) translate(-36 17)" onmousedown="handlePan(-1,0)">
                  <use xlink:href="#rim" fill="#404040">
                        <set attributeName="fill" to="#808080" begin="arrowLeft.mouseover" end="arrowLeft.mouseout"/>
                  </use>
                  <path fill="none" stroke="white" stroke-width="1.5" d="M0,-3.0v7 M-2.5,-0.5L0,-3.0L2.5,-0.5"/>
                </g>
        </g>
        <svg viewBox="0 0 15 15" width="100%" height="30px" preserveAspectRatio="xMaxYMin meet">
         <g id="arrow_out" transform="scale(0.3 0.3)">
          <a xlink:href="classsimulation_objects_1_1_sugar_cell__coll__graph_org.svg" target="_base">
           <rect id="button" ry="5" rx="5" y="6" x="6" height="38" width="38"
                fill="#f2f5e9" fill-opacity="0.5" stroke="#606060" stroke-width="1.0"/>
           <path id="arrow"
             d="M 11.500037,31.436501 C 11.940474,20.09759 22.043105,11.32322 32.158766,21.979434 L 37.068811,17.246167 C 37.068811,17.246167 37.088388,32 37.088388,32 L 22.160133,31.978069 C 22.160133,31.978069 26.997745,27.140456 26.997745,27.140456 C 18.528582,18.264221 13.291696,25.230495 11.500037,31.436501 z"
             style="fill:#404040;"/>
          </a>
         </g>
        </svg>
</svg>
