<?xml version="1.0" encoding="UTF-8" standalone="no"?>
<!DOCTYPE svg PUBLIC "-//W3C//DTD SVG 1.1//EN"
 "http://www.w3.org/Graphics/SVG/1.1/DTD/svg11.dtd">
<!-- Generated by graphviz version 2.36.0 (20140111.2315)
 -->
<!-- Title: simulationObjects.Cell Pages: 1 -->
<svg width="1278pt" height="411pt"
 viewBox="0.00 0.00 1278.00 410.62" xmlns="http://www.w3.org/2000/svg" xmlns:xlink="http://www.w3.org/1999/xlink">
<g id="graph0" class="graph" transform="scale(1 1) rotate(0) translate(4 406.624)">
<title>simulationObjects.Cell</title>
<polygon fill="white" stroke="none" points="-4,4 -4,-406.624 1274,-406.624 1274,4 -4,4"/>
<!-- Node1 -->
<g id="node1" class="node"><title>Node1</title>
<polygon fill="#bfbfbf" stroke="black" points="459,-84.1242 459,-103.124 581,-103.124 581,-84.1242 459,-84.1242"/>
<text text-anchor="middle" x="520" y="-91.1242" font-family="Helvetica,sans-Serif" font-size="10.00">simulationObjects.Cell</text>
</g>
<!-- Node3 -->
<g id="node3" class="node"><title>Node3</title>
<g id="a_node3"><a xlink:href="../../d5/da5/classsimulation_objects_1_1_patch.html" target="_top" xlink:title="simulationObjects.Patch">
<polygon fill="white" stroke="black" points="715.5,-206.124 715.5,-225.124 846.5,-225.124 846.5,-206.124 715.5,-206.124"/>
<text text-anchor="middle" x="781" y="-213.124" font-family="Helvetica,sans-Serif" font-size="10.00">simulationObjects.Patch</text>
</a>
</g>
</g>
<!-- Node1&#45;&gt;Node3 -->
<g id="edge8" class="edge"><title>Node1&#45;&gt;Node3</title>
<path fill="none" stroke="#9a32cd" stroke-dasharray="5,2" d="M568.203,-82.332C604.088,-76.7213 652.495,-75.9624 684,-102.624 711.82,-126.167 678.635,-154.655 702,-182.624 711.238,-193.683 724.834,-201.111 738.097,-206.067"/>
<polygon fill="#9a32cd" stroke="#9a32cd" points="567.222,-78.95 557.971,-84.1136 568.423,-85.8463 567.222,-78.95"/>
<text text-anchor="middle" x="650" y="-105.624" font-family="Helvetica,sans-Serif" font-size="10.00"> myCell</text>
</g>
<!-- Node2 -->
<g id="node2" class="node"><title>Node2</title>
<polygon fill="white" stroke="#bfbfbf" points="271.5,-31.1242 271.5,-50.1242 334.5,-50.1242 334.5,-31.1242 271.5,-31.1242"/>
<text text-anchor="middle" x="303" y="-38.1242" font-family="Helvetica,sans-Serif" font-size="10.00">Rectangle</text>
</g>
<!-- Node2&#45;&gt;Node1 -->
<g id="edge1" class="edge"><title>Node2&#45;&gt;Node1</title>
<path fill="none" stroke="midnightblue" d="M344.753,-50.6703C383.698,-60.2707 441.983,-74.6387 480.248,-84.0713"/>
<polygon fill="midnightblue" stroke="midnightblue" points="345.351,-47.213 334.804,-48.2178 343.676,-54.0096 345.351,-47.213"/>
</g>
<!-- Node3&#45;&gt;Node1 -->
<g id="edge2" class="edge"><title>Node3&#45;&gt;Node1</title>
<path fill="none" stroke="#9a32cd" stroke-dasharray="5,2" d="M732.404,-202.261C721.406,-197.448 710.463,-191.048 702,-182.624 687.606,-168.297 698.993,-154.323 684,-140.624 654.325,-113.51 636.65,-123.669 598,-112.624 586.35,-109.295 573.61,-106.009 561.907,-103.131"/>
<polygon fill="#9a32cd" stroke="#9a32cd" points="731.437,-205.643 742.022,-206.093 734.028,-199.14 731.437,-205.643"/>
<text text-anchor="middle" x="650" y="-143.624" font-family="Helvetica,sans-Serif" font-size="10.00"> myPatch</text>
</g>
<!-- Node9 -->
<g id="node9" class="node"><title>Node9</title>
<g id="a_node9"><a xlink:href="../../d7/d97/classcontroller_1_1_grid.html" target="_top" xlink:title="controller.Grid">
<polygon fill="white" stroke="black" points="950.5,-170.124 950.5,-189.124 1033.5,-189.124 1033.5,-170.124 950.5,-170.124"/>
<text text-anchor="middle" x="992" y="-177.124" font-family="Helvetica,sans-Serif" font-size="10.00">controller.Grid</text>
</a>
</g>
</g>
<!-- Node3&#45;&gt;Node9 -->
<g id="edge12" class="edge"><title>Node3&#45;&gt;Node9</title>
<path fill="none" stroke="#9a32cd" stroke-dasharray="5,2" d="M834.854,-203.973C848.847,-201.064 863.965,-198.077 878,-195.624 901.909,-191.445 928.811,-187.602 950.367,-184.73"/>
<polygon fill="#9a32cd" stroke="#9a32cd" points="833.961,-200.584 824.896,-206.069 835.402,-207.434 833.961,-200.584"/>
<text text-anchor="middle" x="905" y="-198.624" font-family="Helvetica,sans-Serif" font-size="10.00"> gridArray</text>
</g>
<!-- Node4 -->
<g id="node4" class="node"><title>Node4</title>
<polygon fill="white" stroke="#bfbfbf" points="497,-122.124 497,-141.124 543,-141.124 543,-122.124 497,-122.124"/>
<text text-anchor="middle" x="520" y="-129.124" font-family="Helvetica,sans-Serif" font-size="10.00">Group</text>
</g>
<!-- Node4&#45;&gt;Node3 -->
<g id="edge3" class="edge"><title>Node4&#45;&gt;Node3</title>
<path fill="none" stroke="midnightblue" d="M553.327,-139.208C567.132,-142.548 583.398,-146.618 598,-150.624 636.508,-161.189 646.352,-163.318 684,-176.624 709.781,-185.736 738.791,-197.777 758.106,-206.056"/>
<polygon fill="midnightblue" stroke="midnightblue" points="553.858,-135.736 543.318,-136.809 552.227,-142.543 553.858,-135.736"/>
</g>
<!-- Node5 -->
<g id="node5" class="node"><title>Node5</title>
<g id="a_node5"><a xlink:href="../../de/d7a/classcontroller_1_1_grid_info.html" target="_top" xlink:title="controller.GridInfo">
<polygon fill="white" stroke="black" points="252.5,-84.1242 252.5,-103.124 353.5,-103.124 353.5,-84.1242 252.5,-84.1242"/>
<text text-anchor="middle" x="303" y="-91.1242" font-family="Helvetica,sans-Serif" font-size="10.00">controller.GridInfo</text>
</a>
</g>
</g>
<!-- Node5&#45;&gt;Node1 -->
<g id="edge25" class="edge"><title>Node5&#45;&gt;Node1</title>
<path fill="none" stroke="#9a32cd" stroke-dasharray="5,2" d="M363.816,-93.6242C393.483,-93.6242 429.228,-93.6242 458.93,-93.6242"/>
<polygon fill="#9a32cd" stroke="#9a32cd" points="363.595,-90.1243 353.595,-93.6242 363.595,-97.1243 363.595,-90.1243"/>
<text text-anchor="middle" x="398" y="-96.6242" font-family="Helvetica,sans-Serif" font-size="10.00"> infoSheet</text>
</g>
<!-- Node5&#45;&gt;Node3 -->
<g id="edge4" class="edge"><title>Node5&#45;&gt;Node3</title>
<path fill="none" stroke="#9a32cd" stroke-dasharray="5,2" d="M321.458,-110.261C346.092,-132.578 393.489,-171.393 442,-188.624 532.835,-220.89 645.758,-222.925 715.346,-220.202"/>
<polygon fill="#9a32cd" stroke="#9a32cd" points="323.728,-107.594 314.007,-103.38 318.979,-112.736 323.728,-107.594"/>
<text text-anchor="middle" x="520" y="-221.624" font-family="Helvetica,sans-Serif" font-size="10.00"> infoSheet</text>
</g>
<!-- Node5&#45;&gt;Node9 -->
<g id="edge11" class="edge"><title>Node5&#45;&gt;Node9</title>
<path fill="none" stroke="#9a32cd" stroke-dasharray="5,2" d="M363.816,-84.2576C388.035,-80.7609 416.298,-77.0538 442,-74.6242 627.494,-57.0894 683.691,-46.3683 860,-106.624 893.309,-118.008 901.326,-122.355 932,-139.624 948.607,-148.974 966.584,-161.55 978.274,-170.087"/>
<polygon fill="#9a32cd" stroke="#9a32cd" points="363.091,-80.8265 353.704,-85.739 364.106,-87.7526 363.091,-80.8265"/>
<text text-anchor="middle" x="650" y="-66.6242" font-family="Helvetica,sans-Serif" font-size="10.00"> infoSheet</text>
</g>
<!-- Node17 -->
<g id="node17" class="node"><title>Node17</title>
<g id="a_node17"><a xlink:href="../../d0/d1a/classsimulation_objects_1_1_patch_body.html" target="_top" xlink:title="simulationObjects.PatchBody">
<polygon fill="white" stroke="black" points="442.5,-333.124 442.5,-352.124 597.5,-352.124 597.5,-333.124 442.5,-333.124"/>
<text text-anchor="middle" x="520" y="-340.124" font-family="Helvetica,sans-Serif" font-size="10.00">simulationObjects.PatchBody</text>
</a>
</g>
</g>
<!-- Node5&#45;&gt;Node17 -->
<g id="edge22" class="edge"><title>Node5&#45;&gt;Node17</title>
<path fill="none" stroke="#9a32cd" stroke-dasharray="5,2" d="M309.495,-113.471C323.267,-159.143 363.88,-271.735 442,-323.624 447.849,-327.51 454.424,-330.601 461.203,-333.06"/>
<polygon fill="#9a32cd" stroke="#9a32cd" points="312.781,-112.236 306.63,-103.61 306.059,-114.19 312.781,-112.236"/>
<text text-anchor="middle" x="398" y="-308.624" font-family="Helvetica,sans-Serif" font-size="10.00"> infoSheet</text>
</g>
<!-- Node6 -->
<g id="node6" class="node"><title>Node6</title>
<polygon fill="white" stroke="#bfbfbf" points="0.5,-110.124 0.5,-129.124 143.5,-129.124 143.5,-110.124 0.5,-110.124"/>
<text text-anchor="middle" x="72" y="-117.124" font-family="Helvetica,sans-Serif" font-size="10.00">HashMap&lt; String, Color &gt;</text>
</g>
<!-- Node6&#45;&gt;Node5 -->
<g id="edge5" class="edge"><title>Node6&#45;&gt;Node5</title>
<path fill="none" stroke="#9a32cd" stroke-dasharray="5,2" d="M153.64,-110.468C186.538,-106.733 223.532,-102.533 252.35,-99.2613"/>
<polygon fill="#9a32cd" stroke="#9a32cd" points="153.117,-107.005 143.576,-111.611 153.907,-113.961 153.117,-107.005"/>
<text text-anchor="middle" x="198" y="-112.624" font-family="Helvetica,sans-Serif" font-size="10.00"> stateColors</text>
</g>
<!-- Node7 -->
<g id="node7" class="node"><title>Node7</title>
<polygon fill="white" stroke="#bfbfbf" points="30,-72.1242 30,-91.1242 114,-91.1242 114,-72.1242 30,-72.1242"/>
<text text-anchor="middle" x="72" y="-79.1242" font-family="Helvetica,sans-Serif" font-size="10.00">List&lt; String &gt;</text>
</g>
<!-- Node7&#45;&gt;Node5 -->
<g id="edge6" class="edge"><title>Node7&#45;&gt;Node5</title>
<path fill="none" stroke="#9a32cd" stroke-dasharray="5,2" d="M124.402,-82.2844C156.037,-82.9231 197.4,-84.1752 234,-86.6242 239.921,-87.0203 246.123,-87.5288 252.27,-88.0905"/>
<polygon fill="#9a32cd" stroke="#9a32cd" points="124.131,-78.7788 114.067,-82.0905 124,-85.7776 124.131,-78.7788"/>
<text text-anchor="middle" x="198" y="-89.6242" font-family="Helvetica,sans-Serif" font-size="10.00"> myStateTypes</text>
</g>
<!-- Node8 -->
<g id="node8" class="node"><title>Node8</title>
<polygon fill="white" stroke="#bfbfbf" points="27.5,-13.1242 27.5,-32.1242 116.5,-32.1242 116.5,-13.1242 27.5,-13.1242"/>
<text text-anchor="middle" x="72" y="-20.1242" font-family="Helvetica,sans-Serif" font-size="10.00">List&lt; Integer &gt;</text>
</g>
<!-- Node8&#45;&gt;Node1 -->
<g id="edge26" class="edge"><title>Node8&#45;&gt;Node1</title>
<path fill="none" stroke="#9a32cd" stroke-dasharray="5,2" d="M126.438,-11.7823C183.585,-2.15921 276.464,7.77869 354,-10.6242 414.526,-24.9899 478.074,-65.2478 505.304,-83.9051"/>
<polygon fill="#9a32cd" stroke="#9a32cd" points="125.792,-8.34187 116.541,-13.506 126.994,-15.238 125.792,-8.34187"/>
<text text-anchor="middle" x="303" y="-13.6242" font-family="Helvetica,sans-Serif" font-size="10.00"> myParamList</text>
</g>
<!-- Node8&#45;&gt;Node5 -->
<g id="edge7" class="edge"><title>Node8&#45;&gt;Node5</title>
<path fill="none" stroke="#9a32cd" stroke-dasharray="5,2" d="M119.419,-34.9078C151.732,-43.6971 195.72,-56.1379 234,-68.6242 248.469,-73.3438 264.452,-79.187 277.285,-84.0373"/>
<polygon fill="#9a32cd" stroke="#9a32cd" points="119.927,-31.4195 109.36,-32.187 118.099,-38.1767 119.927,-31.4195"/>
<text text-anchor="middle" x="198" y="-71.6242" font-family="Helvetica,sans-Serif" font-size="10.00"> paramList</text>
</g>
<!-- Node9&#45;&gt;Node3 -->
<g id="edge9" class="edge"><title>Node9&#45;&gt;Node3</title>
<path fill="none" stroke="#9a32cd" stroke-dasharray="5,2" d="M966.818,-194.307C956.469,-199.837 944.018,-205.533 932,-208.624 904.606,-215.67 873.488,-218.001 846.723,-218.348"/>
<polygon fill="#9a32cd" stroke="#9a32cd" points="968.645,-197.295 975.658,-189.353 965.224,-191.188 968.645,-197.295"/>
<text text-anchor="middle" x="905" y="-220.624" font-family="Helvetica,sans-Serif" font-size="10.00"> grid</text>
</g>
<!-- Node12 -->
<g id="node12" class="node"><title>Node12</title>
<g id="a_node12"><a xlink:href="../../dd/d38/classcontroller_1_1_grid_edge_rules.html" target="_top" xlink:title="controller.GridEdgeRules">
<polygon fill="white" stroke="black" points="1138,-170.124 1138,-189.124 1270,-189.124 1270,-170.124 1138,-170.124"/>
<text text-anchor="middle" x="1204" y="-177.124" font-family="Helvetica,sans-Serif" font-size="10.00">controller.GridEdgeRules</text>
</a>
</g>
</g>
<!-- Node9&#45;&gt;Node12 -->
<g id="edge15" class="edge"><title>Node9&#45;&gt;Node12</title>
<path fill="none" stroke="#9a32cd" stroke-dasharray="5,2" d="M1043.82,-179.624C1072.13,-179.624 1107.68,-179.624 1138,-179.624"/>
<polygon fill="#9a32cd" stroke="#9a32cd" points="1043.74,-176.124 1033.74,-179.624 1043.74,-183.124 1043.74,-176.124"/>
<text text-anchor="middle" x="1086" y="-182.624" font-family="Helvetica,sans-Serif" font-size="10.00"> grid</text>
</g>
<!-- Node10 -->
<g id="node10" class="node"><title>Node10</title>
<polygon fill="white" stroke="#bfbfbf" points="761,-154.124 761,-173.124 801,-173.124 801,-154.124 761,-154.124"/>
<text text-anchor="middle" x="781" y="-161.124" font-family="Helvetica,sans-Serif" font-size="10.00">Pane</text>
</g>
<!-- Node10&#45;&gt;Node9 -->
<g id="edge10" class="edge"><title>Node10&#45;&gt;Node9</title>
<path fill="none" stroke="midnightblue" d="M811.697,-165.898C848.024,-168.679 909.698,-173.4 950.393,-176.515"/>
<polygon fill="midnightblue" stroke="midnightblue" points="811.526,-162.374 801.288,-165.101 810.991,-169.354 811.526,-162.374"/>
</g>
<!-- Node11 -->
<g id="node11" class="node"><title>Node11</title>
<polygon fill="white" stroke="#bfbfbf" points="702,-116.124 702,-135.124 860,-135.124 860,-116.124 702,-116.124"/>
<text text-anchor="middle" x="781" y="-123.124" font-family="Helvetica,sans-Serif" font-size="10.00">HashMap&lt; Integer, Integer &gt;</text>
</g>
<!-- Node11&#45;&gt;Node9 -->
<g id="edge13" class="edge"><title>Node11&#45;&gt;Node9</title>
<path fill="none" stroke="#9a32cd" stroke-dasharray="5,2" d="M849.671,-137.107C875.655,-142.166 905.438,-148.763 932,-156.624 944.545,-160.337 958.176,-165.568 969.172,-170.103"/>
<polygon fill="#9a32cd" stroke="#9a32cd" points="850.02,-133.61 839.541,-135.174 848.708,-140.486 850.02,-133.61"/>
<text text-anchor="middle" x="905" y="-159.624" font-family="Helvetica,sans-Serif" font-size="10.00"> cellCounts</text>
</g>
<!-- Node12&#45;&gt;Node9 -->
<g id="edge14" class="edge"><title>Node12&#45;&gt;Node9</title>
<path fill="none" stroke="#9a32cd" stroke-dasharray="5,2" d="M1151.97,-168.204C1141.45,-166.298 1130.41,-164.618 1120,-163.624 1089.91,-160.751 1081.96,-159.634 1052,-163.624 1042.11,-164.941 1031.53,-167.448 1022.1,-170.094"/>
<polygon fill="#9a32cd" stroke="#9a32cd" points="1151.37,-171.654 1161.85,-170.087 1152.68,-164.778 1151.37,-171.654"/>
<text text-anchor="middle" x="1086" y="-166.624" font-family="Helvetica,sans-Serif" font-size="10.00"> myEdgeRules</text>
</g>
<!-- Node13 -->
<g id="node13" class="node"><title>Node13</title>
<polygon fill="white" stroke="#bfbfbf" points="453.5,-372.624 453.5,-402.624 586.5,-402.624 586.5,-372.624 453.5,-372.624"/>
<text text-anchor="start" x="461.5" y="-390.624" font-family="Helvetica,sans-Serif" font-size="10.00">List&lt; simulationObjects.</text>
<text text-anchor="middle" x="520" y="-379.624" font-family="Helvetica,sans-Serif" font-size="10.00">Patch &gt;</text>
</g>
<!-- Node13&#45;&gt;Node3 -->
<g id="edge24" class="edge"><title>Node13&#45;&gt;Node3</title>
<path fill="none" stroke="#9a32cd" stroke-dasharray="5,2" d="M586.32,-369.579C624.233,-358.34 667.646,-343.922 684,-332.624 727.452,-302.606 761.852,-247.599 774.628,-225.348"/>
<polygon fill="#9a32cd" stroke="#9a32cd" points="584.924,-366.341 576.311,-372.512 586.892,-373.059 584.924,-366.341"/>
<text text-anchor="middle" x="650" y="-362.624" font-family="Helvetica,sans-Serif" font-size="10.00"> myNeighbors</text>
</g>
<!-- Node13&#45;&gt;Node9 -->
<g id="edge16" class="edge"><title>Node13&#45;&gt;Node9</title>
<path fill="none" stroke="#9a32cd" stroke-dasharray="5,2" d="M596.975,-387.854C624.853,-386.19 656.341,-382.22 684,-373.624 805.079,-335.994 829.134,-306.75 932,-232.624 950.767,-219.101 970.311,-200.501 981.531,-189.313"/>
<polygon fill="#9a32cd" stroke="#9a32cd" points="596.691,-384.364 586.882,-388.367 597.046,-391.355 596.691,-384.364"/>
<text text-anchor="middle" x="781" y="-369.624" font-family="Helvetica,sans-Serif" font-size="10.00"> emptyPatches</text>
</g>
<!-- Node14 -->
<g id="node14" class="node"><title>Node14</title>
<polygon fill="white" stroke="#bfbfbf" points="486,-295.124 486,-314.124 554,-314.124 554,-295.124 486,-295.124"/>
<text text-anchor="middle" x="520" y="-302.124" font-family="Helvetica,sans-Serif" font-size="10.00">ImageView</text>
</g>
<!-- Node14&#45;&gt;Node3 -->
<g id="edge17" class="edge"><title>Node14&#45;&gt;Node3</title>
<path fill="none" stroke="#9a32cd" stroke-dasharray="5,2" d="M563.972,-293.783C575.08,-290.893 587.005,-287.713 598,-284.624 636.443,-273.825 646.592,-272.592 684,-258.624 711.031,-248.531 741.264,-234.517 760.45,-225.267"/>
<polygon fill="#9a32cd" stroke="#9a32cd" points="562.858,-290.455 554.051,-296.344 564.608,-297.233 562.858,-290.455"/>
<text text-anchor="middle" x="650" y="-282.624" font-family="Helvetica,sans-Serif" font-size="10.00"> myView</text>
</g>
<!-- Node15 -->
<g id="node15" class="node"><title>Node15</title>
<g id="a_node15"><a xlink:href="../../df/d37/enumsimulation_objects_1_1_patch_1_1_state.html" target="_top" xlink:title="simulationObjects.Patch.\lState">
<polygon fill="white" stroke="black" points="453,-245.624 453,-275.624 587,-275.624 587,-245.624 453,-245.624"/>
<text text-anchor="start" x="461" y="-263.624" font-family="Helvetica,sans-Serif" font-size="10.00">simulationObjects.Patch.</text>
<text text-anchor="middle" x="520" y="-252.624" font-family="Helvetica,sans-Serif" font-size="10.00">State</text>
</a>
</g>
</g>
<!-- Node15&#45;&gt;Node3 -->
<g id="edge18" class="edge"><title>Node15&#45;&gt;Node3</title>
<path fill="none" stroke="#9a32cd" stroke-dasharray="5,2" d="M596.989,-247.421C638.028,-240.291 687.767,-231.649 725.027,-225.175"/>
<polygon fill="#9a32cd" stroke="#9a32cd" points="596.28,-243.992 587.027,-249.152 597.478,-250.889 596.28,-243.992"/>
<text text-anchor="middle" x="650" y="-246.624" font-family="Helvetica,sans-Serif" font-size="10.00"> myState</text>
</g>
<!-- Node16 -->
<g id="node16" class="node"><title>Node16</title>
<polygon fill="white" stroke="#bfbfbf" points="496.5,-160.124 496.5,-179.124 543.5,-179.124 543.5,-160.124 496.5,-160.124"/>
<text text-anchor="middle" x="520" y="-167.124" font-family="Helvetica,sans-Serif" font-size="10.00">Image</text>
</g>
<!-- Node16&#45;&gt;Node3 -->
<g id="edge19" class="edge"><title>Node16&#45;&gt;Node3</title>
<path fill="none" stroke="#9a32cd" stroke-dasharray="5,2" d="M553.564,-172.594C586.606,-175.894 639.136,-181.929 684,-190.624 705.304,-194.753 728.893,-200.874 747.356,-206.026"/>
<polygon fill="#9a32cd" stroke="#9a32cd" points="553.847,-169.105 543.555,-171.619 553.169,-176.072 553.847,-169.105"/>
<text text-anchor="middle" x="650" y="-193.624" font-family="Helvetica,sans-Serif" font-size="10.00"> image</text>
</g>
<!-- Node17&#45;&gt;Node3 -->
<g id="edge20" class="edge"><title>Node17&#45;&gt;Node3</title>
<path fill="none" stroke="#9a32cd" stroke-dasharray="5,2" d="M572.299,-330.599C580.912,-328.399 589.734,-326.033 598,-323.624 636.726,-312.338 648.735,-314.206 684,-294.624 719.476,-274.925 754.62,-241.554 770.787,-225.215"/>
<polygon fill="#9a32cd" stroke="#9a32cd" points="571.178,-327.271 562.329,-333.098 572.88,-334.061 571.178,-327.271"/>
<text text-anchor="middle" x="650" y="-320.624" font-family="Helvetica,sans-Serif" font-size="10.00"> myBody</text>
</g>
<!-- Node18 -->
<g id="node18" class="node"><title>Node18</title>
<polygon fill="white" stroke="#bfbfbf" points="276,-352.124 276,-371.124 330,-371.124 330,-352.124 276,-352.124"/>
<text text-anchor="middle" x="303" y="-359.124" font-family="Helvetica,sans-Serif" font-size="10.00">Polygon</text>
</g>
<!-- Node18&#45;&gt;Node17 -->
<g id="edge21" class="edge"><title>Node18&#45;&gt;Node17</title>
<path fill="none" stroke="midnightblue" d="M340.447,-358.403C368.319,-355.94 407.733,-352.457 442.442,-349.39"/>
<polygon fill="midnightblue" stroke="midnightblue" points="340.016,-354.928 330.363,-359.294 340.633,-361.9 340.016,-354.928"/>
</g>
<!-- Node19 -->
<g id="node19" class="node"><title>Node19</title>
<polygon fill="white" stroke="#bfbfbf" points="282.5,-314.124 282.5,-333.124 323.5,-333.124 323.5,-314.124 282.5,-314.124"/>
<text text-anchor="middle" x="303" y="-321.124" font-family="Helvetica,sans-Serif" font-size="10.00">Point</text>
</g>
<!-- Node19&#45;&gt;Node17 -->
<g id="edge23" class="edge"><title>Node19&#45;&gt;Node17</title>
<path fill="none" stroke="#9a32cd" stroke-dasharray="5,2" d="M334.151,-326.289C362.131,-328.761 404.971,-332.547 442.366,-335.852"/>
<polygon fill="#9a32cd" stroke="#9a32cd" points="334.111,-322.772 323.841,-325.378 333.494,-329.744 334.111,-322.772"/>
<text text-anchor="middle" x="398" y="-336.624" font-family="Helvetica,sans-Serif" font-size="10.00"> myCenter</text>
</g>
</g>
</svg>
