<?xml version="1.0" encoding="UTF-8" standalone="no"?>
<!DOCTYPE svg PUBLIC "-//W3C//DTD SVG 1.1//EN"
 "http://www.w3.org/Graphics/SVG/1.1/DTD/svg11.dtd">
<!-- Generated by graphviz version 2.36.0 (20140111.2315)
 -->
<!-- Title: simulationObjects.SugarPatch.update Pages: 1 -->
<svg width="612pt" height="214pt"
 viewBox="0.00 0.00 612.00 214.00" xmlns="http://www.w3.org/2000/svg" xmlns:xlink="http://www.w3.org/1999/xlink">
<g id="graph0" class="graph" transform="scale(1 1) rotate(0) translate(4 210)">
<title>simulationObjects.SugarPatch.update</title>
<polygon fill="white" stroke="none" points="-4,4 -4,-210 608,-210 608,4 -4,4"/>
<!-- Node1 -->
<g id="node1" class="node"><title>Node1</title>
<polygon fill="#bfbfbf" stroke="black" points="0.5,-93.5 0.5,-112.5 197.5,-112.5 197.5,-93.5 0.5,-93.5"/>
<text text-anchor="middle" x="99" y="-100.5" font-family="Helvetica,sans-Serif" font-size="10.00">simulationObjects.SugarPatch.update</text>
</g>
<!-- Node2 -->
<g id="node2" class="node"><title>Node2</title>
<g id="a_node2"><a xlink:href="../../d2/d6e/classsimulation_objects_1_1_cell.html#a7d7b09f9e92254d6b2176e8593ce5c21" target="_top" xlink:title="simulationObjects.Cell.get\lState">
<polygon fill="white" stroke="black" points="258.5,-176 258.5,-206 399.5,-206 399.5,-176 258.5,-176"/>
<text text-anchor="start" x="266.5" y="-194" font-family="Helvetica,sans-Serif" font-size="10.00">simulationObjects.Cell.get</text>
<text text-anchor="middle" x="329" y="-183" font-family="Helvetica,sans-Serif" font-size="10.00">State</text>
</a>
</g>
</g>
<!-- Node1&#45;&gt;Node2 -->
<g id="edge1" class="edge"><title>Node1&#45;&gt;Node2</title>
<path fill="none" stroke="midnightblue" d="M117.767,-112.615C143.02,-125.988 191.012,-150.322 234,-166 240.817,-168.486 247.994,-170.842 255.217,-173.041"/>
<polygon fill="midnightblue" stroke="midnightblue" points="254.486,-176.474 265.067,-175.941 256.463,-169.759 254.486,-176.474"/>
</g>
<!-- Node3 -->
<g id="node3" class="node"><title>Node3</title>
<g id="a_node3"><a xlink:href="../../d5/da5/classsimulation_objects_1_1_patch.html#ac18f8e7cdd82ed885a6a92f066da2d38" target="_top" xlink:title="simulationObjects.Patch.removeCell">
<polygon fill="white" stroke="black" points="235,-137.5 235,-156.5 423,-156.5 423,-137.5 235,-137.5"/>
<text text-anchor="middle" x="329" y="-144.5" font-family="Helvetica,sans-Serif" font-size="10.00">simulationObjects.Patch.removeCell</text>
</a>
</g>
</g>
<!-- Node1&#45;&gt;Node3 -->
<g id="edge2" class="edge"><title>Node1&#45;&gt;Node3</title>
<path fill="none" stroke="midnightblue" d="M149.473,-112.547C184.429,-119.293 231.456,-128.369 268.468,-135.511"/>
<polygon fill="midnightblue" stroke="midnightblue" points="268.142,-139.013 278.624,-137.471 269.468,-132.14 268.142,-139.013"/>
</g>
<!-- Node4 -->
<g id="node4" class="node"><title>Node4</title>
<g id="a_node4"><a xlink:href="../../d6/dae/classsimulation_objects_1_1_sugar_patch.html#aaa246e873468360d773a255ccfa23780" target="_top" xlink:title="simulationObjects.SugarPatch.set\lColorToBody">
<polygon fill="white" stroke="black" points="240,-88 240,-118 418,-118 418,-88 240,-88"/>
<text text-anchor="start" x="248" y="-106" font-family="Helvetica,sans-Serif" font-size="10.00">simulationObjects.SugarPatch.set</text>
<text text-anchor="middle" x="329" y="-95" font-family="Helvetica,sans-Serif" font-size="10.00">ColorToBody</text>
</a>
</g>
</g>
<!-- Node1&#45;&gt;Node4 -->
<g id="edge3" class="edge"><title>Node1&#45;&gt;Node4</title>
<path fill="none" stroke="midnightblue" d="M197.685,-103C208.31,-103 219.127,-103 229.759,-103"/>
<polygon fill="midnightblue" stroke="midnightblue" points="229.882,-106.5 239.882,-103 229.882,-99.5001 229.882,-106.5"/>
</g>
<!-- Node6 -->
<g id="node6" class="node"><title>Node6</title>
<g id="a_node6"><a xlink:href="../../d6/dae/classsimulation_objects_1_1_sugar_patch.html#a10531578abc8fc4d5d65e7c302c3ad9a" target="_top" xlink:title="simulationObjects.SugarPatch.sugar\lGrowBack">
<polygon fill="white" stroke="black" points="234,-39 234,-69 424,-69 424,-39 234,-39"/>
<text text-anchor="start" x="242" y="-57" font-family="Helvetica,sans-Serif" font-size="10.00">simulationObjects.SugarPatch.sugar</text>
<text text-anchor="middle" x="329" y="-46" font-family="Helvetica,sans-Serif" font-size="10.00">GrowBack</text>
</a>
</g>
</g>
<!-- Node1&#45;&gt;Node6 -->
<g id="edge5" class="edge"><title>Node1&#45;&gt;Node6</title>
<path fill="none" stroke="midnightblue" d="M144.231,-93.4942C173.579,-87.1869 212.951,-78.7253 247.724,-71.2524"/>
<polygon fill="midnightblue" stroke="midnightblue" points="248.831,-74.5944 257.872,-69.0713 247.36,-67.7506 248.831,-74.5944"/>
</g>
<!-- Node7 -->
<g id="node7" class="node"><title>Node7</title>
<g id="a_node7"><a xlink:href="../../d2/d6e/classsimulation_objects_1_1_cell.html#a0c8b76c4b9bec90ddf8016548d9e7474" target="_top" xlink:title="simulationObjects.Cell.update">
<polygon fill="white" stroke="black" points="249.5,-0.5 249.5,-19.5 408.5,-19.5 408.5,-0.5 249.5,-0.5"/>
<text text-anchor="middle" x="329" y="-7.5" font-family="Helvetica,sans-Serif" font-size="10.00">simulationObjects.Cell.update</text>
</a>
</g>
</g>
<!-- Node1&#45;&gt;Node7 -->
<g id="edge6" class="edge"><title>Node1&#45;&gt;Node7</title>
<path fill="none" stroke="midnightblue" d="M114.211,-93.4445C137.988,-77.8834 187.784,-47.0921 234,-30 242.3,-26.9304 251.196,-24.2742 260.084,-21.992"/>
<polygon fill="midnightblue" stroke="midnightblue" points="261.188,-25.326 270.084,-19.572 259.541,-18.5224 261.188,-25.326"/>
</g>
<!-- Node5 -->
<g id="node5" class="node"><title>Node5</title>
<g id="a_node5"><a xlink:href="../../de/d7a/classcontroller_1_1_grid_info.html#aa4604331decd6c710c086e9792c6f251" target="_top" xlink:title="controller.GridInfo.getColor">
<polygon fill="white" stroke="black" points="460,-93.5 460,-112.5 604,-112.5 604,-93.5 460,-93.5"/>
<text text-anchor="middle" x="532" y="-100.5" font-family="Helvetica,sans-Serif" font-size="10.00">controller.GridInfo.getColor</text>
</a>
</g>
</g>
<!-- Node4&#45;&gt;Node5 -->
<g id="edge4" class="edge"><title>Node4&#45;&gt;Node5</title>
<path fill="none" stroke="midnightblue" d="M418.162,-103C428.604,-103 439.227,-103 449.57,-103"/>
<polygon fill="midnightblue" stroke="midnightblue" points="449.803,-106.5 459.803,-103 449.803,-99.5001 449.803,-106.5"/>
</g>
</g>
</svg>
