<?xml version="1.0" encoding="UTF-8" standalone="no"?>
<!DOCTYPE svg PUBLIC "-//W3C//DTD SVG 1.1//EN"
 "http://www.w3.org/Graphics/SVG/1.1/DTD/svg11.dtd">
<!-- Generated by graphviz version 2.36.0 (20140111.2315)
 -->
<!-- Title: simulationObjects.SugarPatch.createBody Pages: 1 -->
<svg width="640pt" height="164pt"
 viewBox="0.00 0.00 640.00 164.00" xmlns="http://www.w3.org/2000/svg" xmlns:xlink="http://www.w3.org/1999/xlink">
<g id="graph0" class="graph" transform="scale(1 1) rotate(0) translate(4 160)">
<title>simulationObjects.SugarPatch.createBody</title>
<polygon fill="white" stroke="none" points="-4,4 -4,-160 636,-160 636,4 -4,4"/>
<!-- Node1 -->
<g id="node1" class="node"><title>Node1</title>
<polygon fill="#bfbfbf" stroke="black" points="0,-98.5 0,-117.5 218,-117.5 218,-98.5 0,-98.5"/>
<text text-anchor="middle" x="109" y="-105.5" font-family="Helvetica,sans-Serif" font-size="10.00">simulationObjects.SugarPatch.createBody</text>
</g>
<!-- Node2 -->
<g id="node2" class="node"><title>Node2</title>
<g id="a_node2"><a xlink:href="../../d7/d97/classcontroller_1_1_grid.html#a61d4b46bec1a6a3c7f277736e6293252" target="_top" xlink:title="controller.Grid.getGridHeight">
<polygon fill="white" stroke="black" points="261.5,-136.5 261.5,-155.5 414.5,-155.5 414.5,-136.5 261.5,-136.5"/>
<text text-anchor="middle" x="338" y="-143.5" font-family="Helvetica,sans-Serif" font-size="10.00">controller.Grid.getGridHeight</text>
</a>
</g>
</g>
<!-- Node1&#45;&gt;Node2 -->
<g id="edge1" class="edge"><title>Node1&#45;&gt;Node2</title>
<path fill="none" stroke="midnightblue" d="M166.989,-117.54C198.291,-122.78 237.292,-129.309 270.041,-134.791"/>
<polygon fill="midnightblue" stroke="midnightblue" points="269.547,-138.257 279.988,-136.456 270.703,-131.353 269.547,-138.257"/>
</g>
<!-- Node3 -->
<g id="node3" class="node"><title>Node3</title>
<g id="a_node3"><a xlink:href="../../d7/d97/classcontroller_1_1_grid.html#a07b690d056f74953ade8dc5e762341d7" target="_top" xlink:title="controller.Grid.getGridWidth">
<polygon fill="white" stroke="black" points="264,-98.5 264,-117.5 412,-117.5 412,-98.5 264,-98.5"/>
<text text-anchor="middle" x="338" y="-105.5" font-family="Helvetica,sans-Serif" font-size="10.00">controller.Grid.getGridWidth</text>
</a>
</g>
</g>
<!-- Node1&#45;&gt;Node3 -->
<g id="edge2" class="edge"><title>Node1&#45;&gt;Node3</title>
<path fill="none" stroke="midnightblue" d="M218.181,-108C230.105,-108 242.106,-108 253.659,-108"/>
<polygon fill="midnightblue" stroke="midnightblue" points="253.682,-111.5 263.682,-108 253.682,-104.5 253.682,-111.5"/>
</g>
<!-- Node4 -->
<g id="node4" class="node"><title>Node4</title>
<g id="a_node4"><a xlink:href="../../d5/da5/classsimulation_objects_1_1_patch.html#a06f00537a57f3678cf147c580b92de0d" target="_top" xlink:title="simulationObjects.Patch.update\lCellConstraints">
<polygon fill="white" stroke="black" points="254,-49 254,-79 422,-79 422,-49 254,-49"/>
<text text-anchor="start" x="262" y="-67" font-family="Helvetica,sans-Serif" font-size="10.00">simulationObjects.Patch.update</text>
<text text-anchor="middle" x="338" y="-56" font-family="Helvetica,sans-Serif" font-size="10.00">CellConstraints</text>
</a>
</g>
</g>
<!-- Node1&#45;&gt;Node4 -->
<g id="edge3" class="edge"><title>Node1&#45;&gt;Node4</title>
<path fill="none" stroke="midnightblue" d="M159.256,-98.4527C185.612,-93.344 218.859,-86.8995 249.45,-80.9701"/>
<polygon fill="midnightblue" stroke="midnightblue" points="250.125,-84.4044 259.276,-79.0654 248.793,-77.5323 250.125,-84.4044"/>
</g>
<!-- Node5 -->
<g id="node5" class="node"><title>Node5</title>
<g id="a_node5"><a xlink:href="../../d0/d1a/classsimulation_objects_1_1_patch_body.html#a7be1762ade4eaee79c26ac524eb97f33" target="_top" xlink:title="simulationObjects.PatchBody.get\lCenter">
<polygon fill="white" stroke="black" points="458.5,-98 458.5,-128 631.5,-128 631.5,-98 458.5,-98"/>
<text text-anchor="start" x="466.5" y="-116" font-family="Helvetica,sans-Serif" font-size="10.00">simulationObjects.PatchBody.get</text>
<text text-anchor="middle" x="545" y="-105" font-family="Helvetica,sans-Serif" font-size="10.00">Center</text>
</a>
</g>
</g>
<!-- Node4&#45;&gt;Node5 -->
<g id="edge4" class="edge"><title>Node4&#45;&gt;Node5</title>
<path fill="none" stroke="midnightblue" d="M401.9,-79.0346C423.84,-84.2789 448.641,-90.2069 471.311,-95.6255"/>
<polygon fill="midnightblue" stroke="midnightblue" points="470.679,-99.0731 481.219,-97.9938 472.307,-92.2649 470.679,-99.0731"/>
</g>
<!-- Node6 -->
<g id="node6" class="node"><title>Node6</title>
<g id="a_node6"><a xlink:href="../../d0/d1a/classsimulation_objects_1_1_patch_body.html#a268e88a7cb1f5feb98f49e230475c2ba" target="_top" xlink:title="simulationObjects.PatchBody.get\lPatchHeight">
<polygon fill="white" stroke="black" points="458.5,-49 458.5,-79 631.5,-79 631.5,-49 458.5,-49"/>
<text text-anchor="start" x="466.5" y="-67" font-family="Helvetica,sans-Serif" font-size="10.00">simulationObjects.PatchBody.get</text>
<text text-anchor="middle" x="545" y="-56" font-family="Helvetica,sans-Serif" font-size="10.00">PatchHeight</text>
</a>
</g>
</g>
<!-- Node4&#45;&gt;Node6 -->
<g id="edge5" class="edge"><title>Node4&#45;&gt;Node6</title>
<path fill="none" stroke="midnightblue" d="M422.086,-64C430.701,-64 439.507,-64 448.246,-64"/>
<polygon fill="midnightblue" stroke="midnightblue" points="448.46,-67.5001 458.46,-64 448.46,-60.5001 448.46,-67.5001"/>
</g>
<!-- Node7 -->
<g id="node7" class="node"><title>Node7</title>
<g id="a_node7"><a xlink:href="../../d0/d1a/classsimulation_objects_1_1_patch_body.html#a466dadbe30fb2f8360163881e0db9295" target="_top" xlink:title="simulationObjects.PatchBody.get\lPatchWidth">
<polygon fill="white" stroke="black" points="458.5,-0 458.5,-30 631.5,-30 631.5,-0 458.5,-0"/>
<text text-anchor="start" x="466.5" y="-18" font-family="Helvetica,sans-Serif" font-size="10.00">simulationObjects.PatchBody.get</text>
<text text-anchor="middle" x="545" y="-7" font-family="Helvetica,sans-Serif" font-size="10.00">PatchWidth</text>
</a>
</g>
</g>
<!-- Node4&#45;&gt;Node7 -->
<g id="edge6" class="edge"><title>Node4&#45;&gt;Node7</title>
<path fill="none" stroke="midnightblue" d="M401.9,-48.9654C423.84,-43.7211 448.641,-37.7931 471.311,-32.3745"/>
<polygon fill="midnightblue" stroke="midnightblue" points="472.307,-35.7351 481.219,-30.0062 470.679,-28.9269 472.307,-35.7351"/>
</g>
</g>
</svg>
