<?xml version="1.0" encoding="UTF-8" standalone="no"?>
<!DOCTYPE svg PUBLIC "-//W3C//DTD SVG 1.1//EN"
 "http://www.w3.org/Graphics/SVG/1.1/DTD/svg11.dtd">
<!-- Generated by graphviz version 2.36.0 (20140111.2315)
 -->
<!-- Title: simulationObjects.SugarPatch.getNeighbors Pages: 1 -->
<svg width="594pt" height="77pt"
 viewBox="0.00 0.00 594.00 77.00" xmlns="http://www.w3.org/2000/svg" xmlns:xlink="http://www.w3.org/1999/xlink">
<g id="graph0" class="graph" transform="scale(1 1) rotate(0) translate(4 73)">
<title>simulationObjects.SugarPatch.getNeighbors</title>
<polygon fill="white" stroke="none" points="-4,4 -4,-73 590,-73 590,4 -4,4"/>
<!-- Node1 -->
<g id="node1" class="node"><title>Node1</title>
<polygon fill="#bfbfbf" stroke="black" points="0.5,-17 0.5,-47 179.5,-47 179.5,-17 0.5,-17"/>
<text text-anchor="start" x="8.5" y="-35" font-family="Helvetica,sans-Serif" font-size="10.00">simulationObjects.SugarPatch.get</text>
<text text-anchor="middle" x="90" y="-24" font-family="Helvetica,sans-Serif" font-size="10.00">Neighbors</text>
</g>
<!-- Node2 -->
<g id="node2" class="node"><title>Node2</title>
<g id="a_node2"><a xlink:href="../../d7/d97/classcontroller_1_1_grid.html#a462b2d06aaf343128c4f4534c4304305" target="_top" xlink:title="controller.Grid.getNeighbors\lAround">
<polygon fill="white" stroke="black" points="216.5,-17 216.5,-47 367.5,-47 367.5,-17 216.5,-17"/>
<text text-anchor="start" x="224.5" y="-35" font-family="Helvetica,sans-Serif" font-size="10.00">controller.Grid.getNeighbors</text>
<text text-anchor="middle" x="292" y="-24" font-family="Helvetica,sans-Serif" font-size="10.00">Around</text>
</a>
</g>
</g>
<!-- Node1&#45;&gt;Node2 -->
<g id="edge1" class="edge"><title>Node1&#45;&gt;Node2</title>
<path fill="none" stroke="midnightblue" d="M179.596,-32C188.383,-32 197.288,-32 206.037,-32"/>
<polygon fill="midnightblue" stroke="midnightblue" points="206.218,-35.5001 216.218,-32 206.218,-28.5001 206.218,-35.5001"/>
</g>
<!-- Node3 -->
<g id="node3" class="node"><title>Node3</title>
<g id="a_node3"><a xlink:href="../../dd/d38/classcontroller_1_1_grid_edge_rules.html#aedf4c70e84eba8d2becdf3dd6c6745e8" target="_top" xlink:title="controller.GridEdgeRules.apply\lRulesAndGetNeighbors">
<polygon fill="white" stroke="black" points="414.5,-39 414.5,-69 575.5,-69 575.5,-39 414.5,-39"/>
<text text-anchor="start" x="422.5" y="-57" font-family="Helvetica,sans-Serif" font-size="10.00">controller.GridEdgeRules.apply</text>
<text text-anchor="middle" x="495" y="-46" font-family="Helvetica,sans-Serif" font-size="10.00">RulesAndGetNeighbors</text>
</a>
</g>
</g>
<!-- Node2&#45;&gt;Node3 -->
<g id="edge2" class="edge"><title>Node2&#45;&gt;Node3</title>
<path fill="none" stroke="midnightblue" d="M367.559,-40.1607C379.43,-41.46 391.819,-42.816 404,-44.1492"/>
<polygon fill="midnightblue" stroke="midnightblue" points="403.846,-47.6532 414.167,-45.2621 404.607,-40.6947 403.846,-47.6532"/>
</g>
<!-- Node4 -->
<g id="node4" class="node"><title>Node4</title>
<g id="a_node4"><a xlink:href="../../de/d7a/classcontroller_1_1_grid_info.html#aef08f2c5d0e8914e1bb285490a144ec5" target="_top" xlink:title="controller.GridInfo.getAdjacentType">
<polygon fill="white" stroke="black" points="404,-0.5 404,-19.5 586,-19.5 586,-0.5 404,-0.5"/>
<text text-anchor="middle" x="495" y="-7.5" font-family="Helvetica,sans-Serif" font-size="10.00">controller.GridInfo.getAdjacentType</text>
</a>
</g>
</g>
<!-- Node2&#45;&gt;Node4 -->
<g id="edge3" class="edge"><title>Node2&#45;&gt;Node4</title>
<path fill="none" stroke="midnightblue" d="M367.559,-23.8393C377.095,-22.7956 386.965,-21.7152 396.794,-20.6395"/>
<polygon fill="midnightblue" stroke="midnightblue" points="397.445,-24.0892 407.005,-19.5219 396.683,-17.1308 397.445,-24.0892"/>
</g>
</g>
</svg>
