<?xml version="1.0" encoding="UTF-8" standalone="no"?>
<!DOCTYPE svg PUBLIC "-//W3C//DTD SVG 1.1//EN"
 "http://www.w3.org/Graphics/SVG/1.1/DTD/svg11.dtd">
<!-- Generated by graphviz version 2.36.0 (20140111.2315)
 -->
<!-- Title: simulationObjects.ForestCell.update Pages: 1 -->
<svg width="682pt" height="175pt"
 viewBox="0.00 0.00 682.00 175.00" xmlns="http://www.w3.org/2000/svg" xmlns:xlink="http://www.w3.org/1999/xlink">
<g id="graph0" class="graph" transform="scale(1 1) rotate(0) translate(4 171)">
<title>simulationObjects.ForestCell.update</title>
<polygon fill="white" stroke="none" points="-4,4 -4,-171 678,-171 678,4 -4,4"/>
<!-- Node1 -->
<g id="node1" class="node"><title>Node1</title>
<polygon fill="#bfbfbf" stroke="black" points="0.5,-71 0.5,-101 135.5,-101 135.5,-71 0.5,-71"/>
<text text-anchor="start" x="8.5" y="-89" font-family="Helvetica,sans-Serif" font-size="10.00">simulationObjects.Forest</text>
<text text-anchor="middle" x="68" y="-78" font-family="Helvetica,sans-Serif" font-size="10.00">Cell.update</text>
</g>
<!-- Node2 -->
<g id="node2" class="node"><title>Node2</title>
<g id="a_node2"><a xlink:href="../../dc/d23/classsimulation_objects_1_1_forest_cell.html#a4f9f29e4b339e76b9ef3ad31cd8d9f02" target="_top" xlink:title="simulationObjects.Forest\lCell.burnDown">
<polygon fill="white" stroke="black" points="172.5,-137 172.5,-167 307.5,-167 307.5,-137 172.5,-137"/>
<text text-anchor="start" x="180.5" y="-155" font-family="Helvetica,sans-Serif" font-size="10.00">simulationObjects.Forest</text>
<text text-anchor="middle" x="240" y="-144" font-family="Helvetica,sans-Serif" font-size="10.00">Cell.burnDown</text>
</a>
</g>
</g>
<!-- Node1&#45;&gt;Node2 -->
<g id="edge1" class="edge"><title>Node1&#45;&gt;Node2</title>
<path fill="none" stroke="midnightblue" d="M108.001,-101.142C132.622,-110.7 164.609,-123.119 190.812,-133.292"/>
<polygon fill="midnightblue" stroke="midnightblue" points="189.591,-136.572 200.18,-136.929 192.125,-130.047 189.591,-136.572"/>
</g>
<!-- Node3 -->
<g id="node3" class="node"><title>Node3</title>
<g id="a_node3"><a xlink:href="../../dc/d23/classsimulation_objects_1_1_forest_cell.html#abb76f3b62b5ffb2d3e0c8c6f0e3c1e23" target="_top" xlink:title="simulationObjects.Forest\lCell.setState">
<polygon fill="white" stroke="black" points="351.5,-93 351.5,-123 486.5,-123 486.5,-93 351.5,-93"/>
<text text-anchor="start" x="359.5" y="-111" font-family="Helvetica,sans-Serif" font-size="10.00">simulationObjects.Forest</text>
<text text-anchor="middle" x="419" y="-100" font-family="Helvetica,sans-Serif" font-size="10.00">Cell.setState</text>
</a>
</g>
</g>
<!-- Node1&#45;&gt;Node3 -->
<g id="edge6" class="edge"><title>Node1&#45;&gt;Node3</title>
<path fill="none" stroke="midnightblue" d="M135.878,-90.2158C194.562,-93.9151 279.887,-99.2938 341.32,-103.166"/>
<polygon fill="midnightblue" stroke="midnightblue" points="341.148,-106.662 351.348,-103.798 341.589,-99.6762 341.148,-106.662"/>
</g>
<!-- Node5 -->
<g id="node5" class="node"><title>Node5</title>
<g id="a_node5"><a xlink:href="../../dc/d23/classsimulation_objects_1_1_forest_cell.html#a754d6f01e7cb2ced3a4690aeaf2e8369" target="_top" xlink:title="simulationObjects.Forest\lCell.catchFire">
<polygon fill="white" stroke="black" points="172.5,-49 172.5,-79 307.5,-79 307.5,-49 172.5,-49"/>
<text text-anchor="start" x="180.5" y="-67" font-family="Helvetica,sans-Serif" font-size="10.00">simulationObjects.Forest</text>
<text text-anchor="middle" x="240" y="-56" font-family="Helvetica,sans-Serif" font-size="10.00">Cell.catchFire</text>
</a>
</g>
</g>
<!-- Node1&#45;&gt;Node5 -->
<g id="edge4" class="edge"><title>Node1&#45;&gt;Node5</title>
<path fill="none" stroke="midnightblue" d="M135.701,-77.3682C144.487,-76.2311 153.547,-75.0587 162.48,-73.9026"/>
<polygon fill="midnightblue" stroke="midnightblue" points="163.024,-77.3615 172.492,-72.6069 162.125,-70.4194 163.024,-77.3615"/>
</g>
<!-- Node6 -->
<g id="node6" class="node"><title>Node6</title>
<g id="a_node6"><a xlink:href="../../dc/d23/classsimulation_objects_1_1_forest_cell.html#a375db869afc0f70c8631202ba79f9ca7" target="_top" xlink:title="simulationObjects.Forest\lCell.willCatchFire">
<polygon fill="white" stroke="black" points="172.5,-0 172.5,-30 307.5,-30 307.5,-0 172.5,-0"/>
<text text-anchor="start" x="180.5" y="-18" font-family="Helvetica,sans-Serif" font-size="10.00">simulationObjects.Forest</text>
<text text-anchor="middle" x="240" y="-7" font-family="Helvetica,sans-Serif" font-size="10.00">Cell.willCatchFire</text>
</a>
</g>
</g>
<!-- Node1&#45;&gt;Node6 -->
<g id="edge7" class="edge"><title>Node1&#45;&gt;Node6</title>
<path fill="none" stroke="midnightblue" d="M100.257,-70.9078C120.523,-61.3293 147.6,-48.9168 172,-39 176.418,-37.2046 181.026,-35.4051 185.667,-33.6434"/>
<polygon fill="midnightblue" stroke="midnightblue" points="187.042,-36.8664 195.19,-30.0943 184.597,-30.3072 187.042,-36.8664"/>
</g>
<!-- Node2&#45;&gt;Node3 -->
<g id="edge2" class="edge"><title>Node2&#45;&gt;Node3</title>
<path fill="none" stroke="midnightblue" d="M301.418,-136.981C316.288,-133.284 332.337,-129.295 347.632,-125.493"/>
<polygon fill="midnightblue" stroke="midnightblue" points="348.693,-128.835 357.554,-123.026 347.005,-122.042 348.693,-128.835"/>
</g>
<!-- Node4 -->
<g id="node4" class="node"><title>Node4</title>
<g id="a_node4"><a xlink:href="../../de/d7a/classcontroller_1_1_grid_info.html#aa4604331decd6c710c086e9792c6f251" target="_top" xlink:title="controller.GridInfo.getColor">
<polygon fill="white" stroke="black" points="530,-98.5 530,-117.5 674,-117.5 674,-98.5 530,-98.5"/>
<text text-anchor="middle" x="602" y="-105.5" font-family="Helvetica,sans-Serif" font-size="10.00">controller.GridInfo.getColor</text>
</a>
</g>
</g>
<!-- Node3&#45;&gt;Node4 -->
<g id="edge3" class="edge"><title>Node3&#45;&gt;Node4</title>
<path fill="none" stroke="midnightblue" d="M486.627,-108C497.431,-108 508.724,-108 519.828,-108"/>
<polygon fill="midnightblue" stroke="midnightblue" points="519.953,-111.5 529.953,-108 519.953,-104.5 519.953,-111.5"/>
</g>
<!-- Node5&#45;&gt;Node3 -->
<g id="edge5" class="edge"><title>Node5&#45;&gt;Node3</title>
<path fill="none" stroke="midnightblue" d="M301.418,-79.0192C316.288,-82.7156 332.337,-86.7053 347.632,-90.5074"/>
<polygon fill="midnightblue" stroke="midnightblue" points="347.005,-93.9579 357.554,-92.9738 348.693,-87.1646 347.005,-93.9579"/>
</g>
<!-- Node7 -->
<g id="node7" class="node"><title>Node7</title>
<g id="a_node7"><a xlink:href="../../de/d7a/classcontroller_1_1_grid_info.html#a84cd52470ca45097f982d970b15926b9" target="_top" xlink:title="controller.GridInfo.getParam">
<polygon fill="white" stroke="black" points="344,-5.5 344,-24.5 494,-24.5 494,-5.5 344,-5.5"/>
<text text-anchor="middle" x="419" y="-12.5" font-family="Helvetica,sans-Serif" font-size="10.00">controller.GridInfo.getParam</text>
</a>
</g>
</g>
<!-- Node6&#45;&gt;Node7 -->
<g id="edge8" class="edge"><title>Node6&#45;&gt;Node7</title>
<path fill="none" stroke="midnightblue" d="M307.664,-15C316.187,-15 324.997,-15 333.752,-15"/>
<polygon fill="midnightblue" stroke="midnightblue" points="333.984,-18.5001 343.984,-15 333.984,-11.5001 333.984,-18.5001"/>
</g>
</g>
</svg>
