<?xml version="1.0" encoding="UTF-8" standalone="no"?>
<!DOCTYPE svg PUBLIC "-//W3C//DTD SVG 1.1//EN"
 "http://www.w3.org/Graphics/SVG/1.1/DTD/svg11.dtd">
<!-- Generated by graphviz version 2.36.0 (20140111.2315)
 -->
<!-- Title: simulationObjects.ForestCell.setState Pages: 1 -->
<svg width="488pt" height="126pt"
 viewBox="0.00 0.00 488.00 126.00" xmlns="http://www.w3.org/2000/svg" xmlns:xlink="http://www.w3.org/1999/xlink">
<g id="graph0" class="graph" transform="scale(1 1) rotate(0) translate(4 122)">
<title>simulationObjects.ForestCell.setState</title>
<polygon fill="white" stroke="none" points="-4,4 -4,-122 484,-122 484,4 -4,4"/>
<!-- Node1 -->
<g id="node1" class="node"><title>Node1</title>
<polygon fill="#bfbfbf" stroke="black" points="0.5,-44 0.5,-74 135.5,-74 135.5,-44 0.5,-44"/>
<text text-anchor="start" x="8.5" y="-62" font-family="Helvetica,sans-Serif" font-size="10.00">simulationObjects.Forest</text>
<text text-anchor="middle" x="68" y="-51" font-family="Helvetica,sans-Serif" font-size="10.00">Cell.setState</text>
</g>
<!-- Node2 -->
<g id="node2" class="node"><title>Node2</title>
<g id="a_node2"><a xlink:href="../../dc/d23/classsimulation_objects_1_1_forest_cell.html#a4f9f29e4b339e76b9ef3ad31cd8d9f02" target="_top" xlink:title="simulationObjects.Forest\lCell.burnDown">
<polygon fill="white" stroke="black" points="172.5,-88 172.5,-118 307.5,-118 307.5,-88 172.5,-88"/>
<text text-anchor="start" x="180.5" y="-106" font-family="Helvetica,sans-Serif" font-size="10.00">simulationObjects.Forest</text>
<text text-anchor="middle" x="240" y="-95" font-family="Helvetica,sans-Serif" font-size="10.00">Cell.burnDown</text>
</a>
</g>
</g>
<!-- Node1&#45;&gt;Node2 -->
<g id="edge1" class="edge"><title>Node1&#45;&gt;Node2</title>
<path fill="none" stroke="midnightblue" d="M136.977,-76.5941C151.54,-80.3632 166.797,-84.3122 180.944,-87.9738"/>
<polygon fill="midnightblue" stroke="midnightblue" points="137.587,-73.1366 127.029,-74.0192 135.833,-79.9133 137.587,-73.1366"/>
</g>
<!-- Node3 -->
<g id="node3" class="node"><title>Node3</title>
<g id="a_node3"><a xlink:href="../../dc/d23/classsimulation_objects_1_1_forest_cell.html#a71352215a71f9031bf93dc51c9bf38f5" target="_top" xlink:title="simulationObjects.Forest\lCell.update">
<polygon fill="white" stroke="black" points="344.5,-44 344.5,-74 479.5,-74 479.5,-44 344.5,-44"/>
<text text-anchor="start" x="352.5" y="-62" font-family="Helvetica,sans-Serif" font-size="10.00">simulationObjects.Forest</text>
<text text-anchor="middle" x="412" y="-51" font-family="Helvetica,sans-Serif" font-size="10.00">Cell.update</text>
</a>
</g>
</g>
<!-- Node1&#45;&gt;Node3 -->
<g id="edge5" class="edge"><title>Node1&#45;&gt;Node3</title>
<path fill="none" stroke="midnightblue" d="M145.881,-59C205.576,-59 287.499,-59 344.415,-59"/>
<polygon fill="midnightblue" stroke="midnightblue" points="145.753,-55.5001 135.753,-59 145.753,-62.5001 145.753,-55.5001"/>
</g>
<!-- Node4 -->
<g id="node4" class="node"><title>Node4</title>
<g id="a_node4"><a xlink:href="../../dc/d23/classsimulation_objects_1_1_forest_cell.html#a754d6f01e7cb2ced3a4690aeaf2e8369" target="_top" xlink:title="simulationObjects.Forest\lCell.catchFire">
<polygon fill="white" stroke="black" points="172.5,-0 172.5,-30 307.5,-30 307.5,-0 172.5,-0"/>
<text text-anchor="start" x="180.5" y="-18" font-family="Helvetica,sans-Serif" font-size="10.00">simulationObjects.Forest</text>
<text text-anchor="middle" x="240" y="-7" font-family="Helvetica,sans-Serif" font-size="10.00">Cell.catchFire</text>
</a>
</g>
</g>
<!-- Node1&#45;&gt;Node4 -->
<g id="edge3" class="edge"><title>Node1&#45;&gt;Node4</title>
<path fill="none" stroke="midnightblue" d="M136.977,-41.4059C151.54,-37.6368 166.797,-33.6878 180.944,-30.0262"/>
<polygon fill="midnightblue" stroke="midnightblue" points="135.833,-38.0867 127.029,-43.9808 137.587,-44.8634 135.833,-38.0867"/>
</g>
<!-- Node2&#45;&gt;Node3 -->
<g id="edge2" class="edge"><title>Node2&#45;&gt;Node3</title>
<path fill="none" stroke="midnightblue" d="M308.977,-85.4059C323.54,-81.6368 338.797,-77.6878 352.944,-74.0262"/>
<polygon fill="midnightblue" stroke="midnightblue" points="307.833,-82.0867 299.029,-87.9808 309.587,-88.8634 307.833,-82.0867"/>
</g>
<!-- Node4&#45;&gt;Node3 -->
<g id="edge4" class="edge"><title>Node4&#45;&gt;Node3</title>
<path fill="none" stroke="midnightblue" d="M308.977,-32.5941C323.54,-36.3632 338.797,-40.3122 352.944,-43.9738"/>
<polygon fill="midnightblue" stroke="midnightblue" points="309.587,-29.1366 299.029,-30.0192 307.833,-35.9133 309.587,-29.1366"/>
</g>
</g>
</svg>
