<?xml version="1.0" encoding="UTF-8" standalone="no"?>
<!DOCTYPE svg PUBLIC "-//W3C//DTD SVG 1.1//EN"
 "http://www.w3.org/Graphics/SVG/1.1/DTD/svg11.dtd">
<!-- Generated by graphviz version 2.36.0 (20140111.2315)
 -->
<!-- Title: simulationObjects.ForestCell.prepareToUpdate Pages: 1 -->
<svg width="330pt" height="38pt"
 viewBox="0.00 0.00 330.00 38.00" xmlns="http://www.w3.org/2000/svg" xmlns:xlink="http://www.w3.org/1999/xlink">
<g id="graph0" class="graph" transform="scale(1 1) rotate(0) translate(4 34)">
<title>simulationObjects.ForestCell.prepareToUpdate</title>
<polygon fill="white" stroke="none" points="-4,4 -4,-34 326,-34 326,4 -4,4"/>
<!-- Node1 -->
<g id="node1" class="node"><title>Node1</title>
<polygon fill="#bfbfbf" stroke="black" points="0.5,-0 0.5,-30 135.5,-30 135.5,-0 0.5,-0"/>
<text text-anchor="start" x="8.5" y="-18" font-family="Helvetica,sans-Serif" font-size="10.00">simulationObjects.Forest</text>
<text text-anchor="middle" x="68" y="-7" font-family="Helvetica,sans-Serif" font-size="10.00">Cell.prepareToUpdate</text>
</g>
<!-- Node2 -->
<g id="node2" class="node"><title>Node2</title>
<g id="a_node2"><a xlink:href="../../d5/da5/classsimulation_objects_1_1_patch.html#ab17ec1ff254fab2ee2e0892278745078" target="_top" xlink:title="simulationObjects.Patch.set\lPreviousState">
<polygon fill="white" stroke="black" points="172.5,-0 172.5,-30 321.5,-30 321.5,-0 172.5,-0"/>
<text text-anchor="start" x="180.5" y="-18" font-family="Helvetica,sans-Serif" font-size="10.00">simulationObjects.Patch.set</text>
<text text-anchor="middle" x="247" y="-7" font-family="Helvetica,sans-Serif" font-size="10.00">PreviousState</text>
</a>
</g>
</g>
<!-- Node1&#45;&gt;Node2 -->
<g id="edge1" class="edge"><title>Node1&#45;&gt;Node2</title>
<path fill="none" stroke="midnightblue" d="M135.664,-15C144.35,-15 153.336,-15 162.257,-15"/>
<polygon fill="midnightblue" stroke="midnightblue" points="162.283,-18.5001 172.283,-15 162.283,-11.5001 162.283,-18.5001"/>
</g>
</g>
</svg>
