<?xml version="1.0" encoding="UTF-8" standalone="no"?>
<!DOCTYPE svg PUBLIC "-//W3C//DTD SVG 1.1//EN"
 "http://www.w3.org/Graphics/SVG/1.1/DTD/svg11.dtd">
<!-- Generated by graphviz version 2.36.0 (20140111.2315)
 -->
<!-- Title: simulationObjects.Cell.getState Pages: 1 -->
<svg width="1536pt" height="203pt"
 viewBox="0.00 0.00 1536.00 203.00" xmlns="http://www.w3.org/2000/svg" xmlns:xlink="http://www.w3.org/1999/xlink">
<g id="graph0" class="graph" transform="scale(1 1) rotate(0) translate(4 199)">
<title>simulationObjects.Cell.getState</title>
<polygon fill="white" stroke="none" points="-4,4 -4,-199 1532,-199 1532,4 -4,4"/>
<!-- Node1 -->
<g id="node1" class="node"><title>Node1</title>
<polygon fill="#bfbfbf" stroke="black" points="0.5,-55 0.5,-85 141.5,-85 141.5,-55 0.5,-55"/>
<text text-anchor="start" x="8.5" y="-73" font-family="Helvetica,sans-Serif" font-size="10.00">simulationObjects.Cell.get</text>
<text text-anchor="middle" x="71" y="-62" font-family="Helvetica,sans-Serif" font-size="10.00">State</text>
</g>
<!-- Node2 -->
<g id="node2" class="node"><title>Node2</title>
<g id="a_node2"><a xlink:href="../../d7/d97/classcontroller_1_1_grid.html#a5a41921f2cae7b1f0097fce7374aab38" target="_top" xlink:title="controller.Grid.countCell\lInPatch">
<polygon fill="white" stroke="black" points="211.5,-126 211.5,-156 342.5,-156 342.5,-126 211.5,-126"/>
<text text-anchor="start" x="219.5" y="-144" font-family="Helvetica,sans-Serif" font-size="10.00">controller.Grid.countCell</text>
<text text-anchor="middle" x="277" y="-133" font-family="Helvetica,sans-Serif" font-size="10.00">InPatch</text>
</a>
</g>
</g>
<!-- Node1&#45;&gt;Node2 -->
<g id="edge1" class="edge"><title>Node1&#45;&gt;Node2</title>
<path fill="none" stroke="midnightblue" d="M112.236,-89.267C131.794,-98.1637 155.816,-108.411 178,-116 188.633,-119.637 200.074,-123.018 211.255,-126.044"/>
<polygon fill="midnightblue" stroke="midnightblue" points="113.569,-86.0274 103.022,-85.0256 110.642,-92.3862 113.569,-86.0274"/>
</g>
<!-- Node10 -->
<g id="node10" class="node"><title>Node10</title>
<g id="a_node10"><a xlink:href="../../db/dee/classsimulation_objects_1_1_predator_cell.html#a81b7e97d389dbd9dd60f32fb226f88ea" target="_top" xlink:title="simulationObjects.Predator\lCell.processPossibleDestinations">
<polygon fill="white" stroke="black" points="190.5,-77 190.5,-107 363.5,-107 363.5,-77 190.5,-77"/>
<text text-anchor="start" x="198.5" y="-95" font-family="Helvetica,sans-Serif" font-size="10.00">simulationObjects.Predator</text>
<text text-anchor="middle" x="277" y="-84" font-family="Helvetica,sans-Serif" font-size="10.00">Cell.processPossibleDestinations</text>
</a>
</g>
</g>
<!-- Node1&#45;&gt;Node10 -->
<g id="edge10" class="edge"><title>Node1&#45;&gt;Node10</title>
<path fill="none" stroke="midnightblue" d="M151.705,-78.5956C164.411,-79.9659 177.602,-81.3885 190.437,-82.7726"/>
<polygon fill="midnightblue" stroke="midnightblue" points="151.952,-75.1021 141.635,-77.5096 151.202,-82.0617 151.952,-75.1021"/>
</g>
<!-- Node13 -->
<g id="node13" class="node"><title>Node13</title>
<g id="a_node13"><a xlink:href="../../d6/dae/classsimulation_objects_1_1_sugar_patch.html#a8197c32cacf2b75722a72656a1f68b88" target="_top" xlink:title="simulationObjects.SugarPatch.update">
<polygon fill="white" stroke="black" points="178.5,-38.5 178.5,-57.5 375.5,-57.5 375.5,-38.5 178.5,-38.5"/>
<text text-anchor="middle" x="277" y="-45.5" font-family="Helvetica,sans-Serif" font-size="10.00">simulationObjects.SugarPatch.update</text>
</a>
</g>
</g>
<!-- Node1&#45;&gt;Node13 -->
<g id="edge13" class="edge"><title>Node1&#45;&gt;Node13</title>
<path fill="none" stroke="midnightblue" d="M151.816,-61.3924C163.54,-60.128 175.676,-58.8193 187.561,-57.5376"/>
<polygon fill="midnightblue" stroke="midnightblue" points="151.202,-57.9383 141.635,-62.4904 151.952,-64.8979 151.202,-57.9383"/>
</g>
<!-- Node14 -->
<g id="node14" class="node"><title>Node14</title>
<g id="a_node14"><a xlink:href="../../d5/da5/classsimulation_objects_1_1_patch.html#ab880fd2c170d6d1c035a1468b8e19465" target="_top" xlink:title="simulationObjects.Patch.update">
<polygon fill="white" stroke="black" points="193,-0.5 193,-19.5 361,-19.5 361,-0.5 193,-0.5"/>
<text text-anchor="middle" x="277" y="-7.5" font-family="Helvetica,sans-Serif" font-size="10.00">simulationObjects.Patch.update</text>
</a>
</g>
</g>
<!-- Node1&#45;&gt;Node14 -->
<g id="edge14" class="edge"><title>Node1&#45;&gt;Node14</title>
<path fill="none" stroke="midnightblue" d="M115.571,-51.137C134.493,-43.4728 157.075,-35.0235 178,-29 190.741,-25.3324 204.618,-22.1602 217.815,-19.5147"/>
<polygon fill="midnightblue" stroke="midnightblue" points="114.238,-47.9005 106.319,-54.9389 116.899,-54.3751 114.238,-47.9005"/>
</g>
<!-- Node3 -->
<g id="node3" class="node"><title>Node3</title>
<g id="a_node3"><a xlink:href="../../d7/d97/classcontroller_1_1_grid.html#a2cbf0a87e05ced6bd01a6ca01542b948" target="_top" xlink:title="controller.Grid.updateAll\lPatches">
<polygon fill="white" stroke="black" points="419.5,-126 419.5,-156 550.5,-156 550.5,-126 419.5,-126"/>
<text text-anchor="start" x="427.5" y="-144" font-family="Helvetica,sans-Serif" font-size="10.00">controller.Grid.updateAll</text>
<text text-anchor="middle" x="485" y="-133" font-family="Helvetica,sans-Serif" font-size="10.00">Patches</text>
</a>
</g>
</g>
<!-- Node2&#45;&gt;Node3 -->
<g id="edge2" class="edge"><title>Node2&#45;&gt;Node3</title>
<path fill="none" stroke="midnightblue" d="M352.804,-141C374.574,-141 398.166,-141 419.261,-141"/>
<polygon fill="midnightblue" stroke="midnightblue" points="352.615,-137.5 342.614,-141 352.614,-144.5 352.615,-137.5"/>
</g>
<!-- Node4 -->
<g id="node4" class="node"><title>Node4</title>
<g id="a_node4"><a xlink:href="../../d7/d97/classcontroller_1_1_grid.html#a9d953304e003d02db9447cd636efce3a" target="_top" xlink:title="controller.Grid.updateGrid">
<polygon fill="white" stroke="black" points="597,-131.5 597,-150.5 737,-150.5 737,-131.5 597,-131.5"/>
<text text-anchor="middle" x="667" y="-138.5" font-family="Helvetica,sans-Serif" font-size="10.00">controller.Grid.updateGrid</text>
</a>
</g>
</g>
<!-- Node3&#45;&gt;Node4 -->
<g id="edge3" class="edge"><title>Node3&#45;&gt;Node4</title>
<path fill="none" stroke="midnightblue" d="M561.073,-141C572.972,-141 585.229,-141 596.981,-141"/>
<polygon fill="midnightblue" stroke="midnightblue" points="560.73,-137.5 550.73,-141 560.73,-144.5 560.73,-137.5"/>
</g>
<!-- Node5 -->
<g id="node5" class="node"><title>Node5</title>
<g id="a_node5"><a xlink:href="../../db/d32/classcontroller_1_1_main_controller.html#a73545baf8abf0781ade4a83269de344e" target="_top" xlink:title="controller.MainController.step\lSimulation">
<polygon fill="white" stroke="black" points="776,-126 776,-156 932,-156 932,-126 776,-126"/>
<text text-anchor="start" x="784" y="-144" font-family="Helvetica,sans-Serif" font-size="10.00">controller.MainController.step</text>
<text text-anchor="middle" x="854" y="-133" font-family="Helvetica,sans-Serif" font-size="10.00">Simulation</text>
</a>
</g>
</g>
<!-- Node4&#45;&gt;Node5 -->
<g id="edge4" class="edge"><title>Node4&#45;&gt;Node5</title>
<path fill="none" stroke="midnightblue" d="M747.322,-141C756.781,-141 766.428,-141 775.856,-141"/>
<polygon fill="midnightblue" stroke="midnightblue" points="747.15,-137.5 737.15,-141 747.15,-144.5 747.15,-137.5"/>
</g>
<!-- Node6 -->
<g id="node6" class="node"><title>Node6</title>
<g id="a_node6"><a xlink:href="../../db/ddb/classcontroller_1_1_user_interface.html#a9cf1e21253003993661082c9d42926b2" target="_top" xlink:title="controller.UserInterface.make\lBottomPanel">
<polygon fill="white" stroke="black" points="968,-126 968,-156 1126,-156 1126,-126 968,-126"/>
<text text-anchor="start" x="976" y="-144" font-family="Helvetica,sans-Serif" font-size="10.00">controller.UserInterface.make</text>
<text text-anchor="middle" x="1047" y="-133" font-family="Helvetica,sans-Serif" font-size="10.00">BottomPanel</text>
</a>
</g>
</g>
<!-- Node5&#45;&gt;Node6 -->
<g id="edge5" class="edge"><title>Node5&#45;&gt;Node6</title>
<path fill="none" stroke="midnightblue" d="M942.171,-141C950.768,-141 959.456,-141 967.954,-141"/>
<polygon fill="midnightblue" stroke="midnightblue" points="942.136,-137.5 932.136,-141 942.136,-144.5 942.136,-137.5"/>
</g>
<!-- Node7 -->
<g id="node7" class="node"><title>Node7</title>
<g id="a_node7"><a xlink:href="../../db/ddb/classcontroller_1_1_user_interface.html#aad62b84bbc23f683c844ace519feb9d2" target="_top" xlink:title="controller.UserInterface.reset">
<polygon fill="white" stroke="black" points="1162,-175.5 1162,-194.5 1318,-194.5 1318,-175.5 1162,-175.5"/>
<text text-anchor="middle" x="1240" y="-182.5" font-family="Helvetica,sans-Serif" font-size="10.00">controller.UserInterface.reset</text>
</a>
</g>
</g>
<!-- Node6&#45;&gt;Node7 -->
<g id="edge6" class="edge"><title>Node6&#45;&gt;Node7</title>
<path fill="none" stroke="midnightblue" d="M1123.18,-158.319C1148.56,-164.165 1175.94,-170.473 1197.71,-175.488"/>
<polygon fill="midnightblue" stroke="midnightblue" points="1123.73,-154.854 1113.2,-156.019 1122.16,-161.675 1123.73,-154.854"/>
</g>
<!-- Node9 -->
<g id="node9" class="node"><title>Node9</title>
<g id="a_node9"><a xlink:href="../../db/ddb/classcontroller_1_1_user_interface.html#a6dd740b89d748c372a5ef9959e1bd7c4" target="_top" xlink:title="controller.UserInterface.\lUserInterface">
<polygon fill="white" stroke="black" points="1174.5,-126 1174.5,-156 1305.5,-156 1305.5,-126 1174.5,-126"/>
<text text-anchor="start" x="1182.5" y="-144" font-family="Helvetica,sans-Serif" font-size="10.00">controller.UserInterface.</text>
<text text-anchor="middle" x="1240" y="-133" font-family="Helvetica,sans-Serif" font-size="10.00">UserInterface</text>
</a>
</g>
</g>
<!-- Node6&#45;&gt;Node9 -->
<g id="edge9" class="edge"><title>Node6&#45;&gt;Node9</title>
<path fill="none" stroke="midnightblue" d="M1136.41,-141C1149.17,-141 1162.1,-141 1174.27,-141"/>
<polygon fill="midnightblue" stroke="midnightblue" points="1136.24,-137.5 1126.24,-141 1136.24,-144.5 1136.24,-137.5"/>
</g>
<!-- Node8 -->
<g id="node8" class="node"><title>Node8</title>
<g id="a_node8"><a xlink:href="../../db/d32/classcontroller_1_1_main_controller.html#a7cfedb8e16c6b9d6394054d03193da82" target="_top" xlink:title="controller.MainController.initialize\lSimulationWithData">
<polygon fill="white" stroke="black" points="1354.5,-126 1354.5,-156 1527.5,-156 1527.5,-126 1354.5,-126"/>
<text text-anchor="start" x="1362.5" y="-144" font-family="Helvetica,sans-Serif" font-size="10.00">controller.MainController.initialize</text>
<text text-anchor="middle" x="1441" y="-133" font-family="Helvetica,sans-Serif" font-size="10.00">SimulationWithData</text>
</a>
</g>
</g>
<!-- Node7&#45;&gt;Node8 -->
<g id="edge7" class="edge"><title>Node7&#45;&gt;Node8</title>
<path fill="none" stroke="midnightblue" d="M1294.11,-173.258C1317.98,-167.979 1346.44,-161.686 1371.86,-156.065"/>
<polygon fill="midnightblue" stroke="midnightblue" points="1293.19,-169.876 1284.18,-175.453 1294.7,-176.711 1293.19,-169.876"/>
</g>
<!-- Node8&#45;&gt;Node6 -->
<g id="edge8" class="edge"><title>Node8&#45;&gt;Node6</title>
<path fill="none" stroke="midnightblue" d="M1365.62,-123.986C1349.97,-121.078 1333.51,-118.511 1318,-117 1248.99,-110.277 1230.96,-109.82 1162,-117 1144.3,-118.843 1125.29,-122.255 1107.98,-125.94"/>
<polygon fill="midnightblue" stroke="midnightblue" points="1365.28,-127.485 1375.76,-125.938 1366.61,-120.611 1365.28,-127.485"/>
</g>
<!-- Node11 -->
<g id="node11" class="node"><title>Node11</title>
<g id="a_node11"><a xlink:href="../../db/dee/classsimulation_objects_1_1_predator_cell.html#accb390ed661d175bf8400145c8d47dad" target="_top" xlink:title="simulationObjects.Predator\lCell.chooseMove">
<polygon fill="white" stroke="black" points="412,-77 412,-107 558,-107 558,-77 412,-77"/>
<text text-anchor="start" x="420" y="-95" font-family="Helvetica,sans-Serif" font-size="10.00">simulationObjects.Predator</text>
<text text-anchor="middle" x="485" y="-84" font-family="Helvetica,sans-Serif" font-size="10.00">Cell.chooseMove</text>
</a>
</g>
</g>
<!-- Node10&#45;&gt;Node11 -->
<g id="edge11" class="edge"><title>Node10&#45;&gt;Node11</title>
<path fill="none" stroke="midnightblue" d="M373.778,-92C386.563,-92 399.496,-92 411.785,-92"/>
<polygon fill="midnightblue" stroke="midnightblue" points="373.573,-88.5001 363.573,-92 373.573,-95.5001 373.573,-88.5001"/>
</g>
<!-- Node12 -->
<g id="node12" class="node"><title>Node12</title>
<g id="a_node12"><a xlink:href="../../db/dee/classsimulation_objects_1_1_predator_cell.html#a954732c3db3474e874b5023303baa2ed" target="_top" xlink:title="simulationObjects.Predator\lCell.update">
<polygon fill="white" stroke="black" points="594,-77 594,-107 740,-107 740,-77 594,-77"/>
<text text-anchor="start" x="602" y="-95" font-family="Helvetica,sans-Serif" font-size="10.00">simulationObjects.Predator</text>
<text text-anchor="middle" x="667" y="-84" font-family="Helvetica,sans-Serif" font-size="10.00">Cell.update</text>
</a>
</g>
</g>
<!-- Node11&#45;&gt;Node12 -->
<g id="edge12" class="edge"><title>Node11&#45;&gt;Node12</title>
<path fill="none" stroke="midnightblue" d="M568.439,-92C576.906,-92 585.464,-92 593.808,-92"/>
<polygon fill="midnightblue" stroke="midnightblue" points="568.176,-88.5001 558.176,-92 568.176,-95.5001 568.176,-88.5001"/>
</g>
</g>
</svg>
