<?xml version="1.0" encoding="UTF-8" standalone="no"?>
<!DOCTYPE svg PUBLIC "-//W3C//DTD SVG 1.1//EN"
 "http://www.w3.org/Graphics/SVG/1.1/DTD/svg11.dtd">
<!-- Generated by graphviz version 2.36.0 (20140111.2315)
 -->
<!-- Title: simulationObjects.Cell.getInitialColors Pages: 1 -->
<svg width="1092pt" height="77pt"
 viewBox="0.00 0.00 1092.00 77.00" xmlns="http://www.w3.org/2000/svg" xmlns:xlink="http://www.w3.org/1999/xlink">
<g id="graph0" class="graph" transform="scale(1 1) rotate(0) translate(4 73)">
<title>simulationObjects.Cell.getInitialColors</title>
<polygon fill="white" stroke="none" points="-4,4 -4,-73 1088,-73 1088,4 -4,4"/>
<!-- Node1 -->
<g id="node1" class="node"><title>Node1</title>
<polygon fill="#bfbfbf" stroke="black" points="0.5,-22 0.5,-52 141.5,-52 141.5,-22 0.5,-22"/>
<text text-anchor="start" x="8.5" y="-40" font-family="Helvetica,sans-Serif" font-size="10.00">simulationObjects.Cell.get</text>
<text text-anchor="middle" x="71" y="-29" font-family="Helvetica,sans-Serif" font-size="10.00">InitialColors</text>
</g>
<!-- Node2 -->
<g id="node2" class="node"><title>Node2</title>
<g id="a_node2"><a xlink:href="../../d3/d6a/classcontroller_1_1_parser.html#ab2d2918d4e1dc3f52a137910d14c633d" target="_top" xlink:title="controller.Parser.setCell\lStates">
<polygon fill="white" stroke="black" points="178,-22 178,-52 306,-52 306,-22 178,-22"/>
<text text-anchor="start" x="186" y="-40" font-family="Helvetica,sans-Serif" font-size="10.00">controller.Parser.setCell</text>
<text text-anchor="middle" x="242" y="-29" font-family="Helvetica,sans-Serif" font-size="10.00">States</text>
</a>
</g>
</g>
<!-- Node1&#45;&gt;Node2 -->
<g id="edge1" class="edge"><title>Node1&#45;&gt;Node2</title>
<path fill="none" stroke="midnightblue" d="M151.916,-37C160.651,-37 169.452,-37 177.943,-37"/>
<polygon fill="midnightblue" stroke="midnightblue" points="151.715,-33.5001 141.714,-37 151.714,-40.5001 151.715,-33.5001"/>
</g>
<!-- Node3 -->
<g id="node3" class="node"><title>Node3</title>
<g id="a_node3"><a xlink:href="../../d3/d6a/classcontroller_1_1_parser.html#a02bf0729411c23f212468f2d50d4e5ed" target="_top" xlink:title="controller.Parser.parserXml">
<polygon fill="white" stroke="black" points="342.5,-27.5 342.5,-46.5 487.5,-46.5 487.5,-27.5 342.5,-27.5"/>
<text text-anchor="middle" x="415" y="-34.5" font-family="Helvetica,sans-Serif" font-size="10.00">controller.Parser.parserXml</text>
</a>
</g>
</g>
<!-- Node2&#45;&gt;Node3 -->
<g id="edge2" class="edge"><title>Node2&#45;&gt;Node3</title>
<path fill="none" stroke="midnightblue" d="M316.265,-37C324.934,-37 333.775,-37 342.421,-37"/>
<polygon fill="midnightblue" stroke="midnightblue" points="316.188,-33.5001 306.188,-37 316.188,-40.5001 316.188,-33.5001"/>
</g>
<!-- Node4 -->
<g id="node4" class="node"><title>Node4</title>
<g id="a_node4"><a xlink:href="../../db/d32/classcontroller_1_1_main_controller.html#a7cfedb8e16c6b9d6394054d03193da82" target="_top" xlink:title="controller.MainController.initialize\lSimulationWithData">
<polygon fill="white" stroke="black" points="524.5,-22 524.5,-52 697.5,-52 697.5,-22 524.5,-22"/>
<text text-anchor="start" x="532.5" y="-40" font-family="Helvetica,sans-Serif" font-size="10.00">controller.MainController.initialize</text>
<text text-anchor="middle" x="611" y="-29" font-family="Helvetica,sans-Serif" font-size="10.00">SimulationWithData</text>
</a>
</g>
</g>
<!-- Node3&#45;&gt;Node4 -->
<g id="edge3" class="edge"><title>Node3&#45;&gt;Node4</title>
<path fill="none" stroke="midnightblue" d="M497.91,-37C506.699,-37 515.658,-37 524.489,-37"/>
<polygon fill="midnightblue" stroke="midnightblue" points="497.687,-33.5001 487.687,-37 497.687,-40.5001 497.687,-33.5001"/>
</g>
<!-- Node5 -->
<g id="node5" class="node"><title>Node5</title>
<g id="a_node5"><a xlink:href="../../db/ddb/classcontroller_1_1_user_interface.html#a9cf1e21253003993661082c9d42926b2" target="_top" xlink:title="controller.UserInterface.make\lBottomPanel">
<polygon fill="white" stroke="black" points="734,-0 734,-30 892,-30 892,-0 734,-0"/>
<text text-anchor="start" x="742" y="-18" font-family="Helvetica,sans-Serif" font-size="10.00">controller.UserInterface.make</text>
<text text-anchor="middle" x="813" y="-7" font-family="Helvetica,sans-Serif" font-size="10.00">BottomPanel</text>
</a>
</g>
</g>
<!-- Node4&#45;&gt;Node5 -->
<g id="edge4" class="edge"><title>Node4&#45;&gt;Node5</title>
<path fill="none" stroke="midnightblue" d="M707.848,-26.4568C716.532,-25.5015 725.257,-24.5417 733.762,-23.6061"/>
<polygon fill="midnightblue" stroke="midnightblue" points="707.246,-23.0018 697.688,-27.5743 708.011,-29.9598 707.246,-23.0018"/>
</g>
<!-- Node6 -->
<g id="node6" class="node"><title>Node6</title>
<g id="a_node6"><a xlink:href="../../db/ddb/classcontroller_1_1_user_interface.html#aad62b84bbc23f683c844ace519feb9d2" target="_top" xlink:title="controller.UserInterface.reset">
<polygon fill="white" stroke="black" points="928,-49.5 928,-68.5 1084,-68.5 1084,-49.5 928,-49.5"/>
<text text-anchor="middle" x="1006" y="-56.5" font-family="Helvetica,sans-Serif" font-size="10.00">controller.UserInterface.reset</text>
</a>
</g>
</g>
<!-- Node5&#45;&gt;Node6 -->
<g id="edge5" class="edge"><title>Node5&#45;&gt;Node6</title>
<path fill="none" stroke="midnightblue" d="M889.179,-32.3187C914.556,-38.1648 941.941,-44.4732 963.707,-49.4876"/>
<polygon fill="midnightblue" stroke="midnightblue" points="889.728,-28.8535 879.197,-30.0192 888.156,-35.6749 889.728,-28.8535"/>
</g>
<!-- Node7 -->
<g id="node7" class="node"><title>Node7</title>
<g id="a_node7"><a xlink:href="../../db/ddb/classcontroller_1_1_user_interface.html#a6dd740b89d748c372a5ef9959e1bd7c4" target="_top" xlink:title="controller.UserInterface.\lUserInterface">
<polygon fill="white" stroke="black" points="940.5,-0 940.5,-30 1071.5,-30 1071.5,-0 940.5,-0"/>
<text text-anchor="start" x="948.5" y="-18" font-family="Helvetica,sans-Serif" font-size="10.00">controller.UserInterface.</text>
<text text-anchor="middle" x="1006" y="-7" font-family="Helvetica,sans-Serif" font-size="10.00">UserInterface</text>
</a>
</g>
</g>
<!-- Node5&#45;&gt;Node7 -->
<g id="edge7" class="edge"><title>Node5&#45;&gt;Node7</title>
<path fill="none" stroke="midnightblue" d="M902.415,-15C915.171,-15 928.097,-15 940.275,-15"/>
<polygon fill="midnightblue" stroke="midnightblue" points="902.238,-11.5001 892.238,-15 902.238,-18.5001 902.238,-11.5001"/>
</g>
<!-- Node6&#45;&gt;Node4 -->
<g id="edge6" class="edge"><title>Node6&#45;&gt;Node4</title>
<path fill="none" stroke="midnightblue" d="M917.444,-54.0986C851.942,-50.4318 762.825,-45.4431 697.76,-41.8008"/>
<polygon fill="midnightblue" stroke="midnightblue" points="917.566,-57.6109 927.747,-54.6754 917.958,-50.6218 917.566,-57.6109"/>
</g>
</g>
</svg>
