<?xml version="1.0" encoding="UTF-8" standalone="no"?>
<!DOCTYPE svg PUBLIC "-//W3C//DTD SVG 1.1//EN"
 "http://www.w3.org/Graphics/SVG/1.1/DTD/svg11.dtd">
<!-- Generated by graphviz version 2.36.0 (20140111.2315)
 -->
<!-- Title: simulationObjects.Cell.getNextState Pages: 1 -->
<svg width="1580pt" height="77pt"
 viewBox="0.00 0.00 1580.00 77.00" xmlns="http://www.w3.org/2000/svg" xmlns:xlink="http://www.w3.org/1999/xlink">
<g id="graph0" class="graph" transform="scale(1 1) rotate(0) translate(4 73)">
<title>simulationObjects.Cell.getNextState</title>
<polygon fill="white" stroke="none" points="-4,4 -4,-73 1576,-73 1576,4 -4,4"/>
<!-- Node1 -->
<g id="node1" class="node"><title>Node1</title>
<polygon fill="#bfbfbf" stroke="black" points="0.5,-22 0.5,-52 141.5,-52 141.5,-22 0.5,-22"/>
<text text-anchor="start" x="8.5" y="-40" font-family="Helvetica,sans-Serif" font-size="10.00">simulationObjects.Cell.get</text>
<text text-anchor="middle" x="71" y="-29" font-family="Helvetica,sans-Serif" font-size="10.00">NextState</text>
</g>
<!-- Node2 -->
<g id="node2" class="node"><title>Node2</title>
<g id="a_node2"><a xlink:href="../../d5/da5/classsimulation_objects_1_1_patch.html#a982ffbab2f32d5955c2c59b5a89fc4a1" target="_top" xlink:title="simulationObjects.Patch.toggle\lCellState">
<polygon fill="white" stroke="black" points="178,-22 178,-52 342,-52 342,-22 178,-22"/>
<text text-anchor="start" x="186" y="-40" font-family="Helvetica,sans-Serif" font-size="10.00">simulationObjects.Patch.toggle</text>
<text text-anchor="middle" x="260" y="-29" font-family="Helvetica,sans-Serif" font-size="10.00">CellState</text>
</a>
</g>
</g>
<!-- Node1&#45;&gt;Node2 -->
<g id="edge1" class="edge"><title>Node1&#45;&gt;Node2</title>
<path fill="none" stroke="midnightblue" d="M151.731,-37C160.414,-37 169.258,-37 177.956,-37"/>
<polygon fill="midnightblue" stroke="midnightblue" points="151.632,-33.5001 141.632,-37 151.632,-40.5001 151.632,-33.5001"/>
</g>
<!-- Node3 -->
<g id="node3" class="node"><title>Node3</title>
<g id="a_node3"><a xlink:href="../../db/d32/classcontroller_1_1_main_controller.html#a20c66a59cfde2b9f8ac2b8bf67e3996d" target="_top" xlink:title="controller.MainController.toggle\lCellStateForMouseEvent">
<polygon fill="white" stroke="black" points="378.5,-22 378.5,-52 543.5,-52 543.5,-22 378.5,-22"/>
<text text-anchor="start" x="386.5" y="-40" font-family="Helvetica,sans-Serif" font-size="10.00">controller.MainController.toggle</text>
<text text-anchor="middle" x="461" y="-29" font-family="Helvetica,sans-Serif" font-size="10.00">CellStateForMouseEvent</text>
</a>
</g>
</g>
<!-- Node2&#45;&gt;Node3 -->
<g id="edge2" class="edge"><title>Node2&#45;&gt;Node3</title>
<path fill="none" stroke="midnightblue" d="M352.364,-37C361.044,-37 369.807,-37 378.387,-37"/>
<polygon fill="midnightblue" stroke="midnightblue" points="352.228,-33.5001 342.228,-37 352.228,-40.5001 352.228,-33.5001"/>
</g>
<!-- Node4 -->
<g id="node4" class="node"><title>Node4</title>
<g id="a_node4"><a xlink:href="../../db/d32/classcontroller_1_1_main_controller.html#ad28f21e1510291d95a69a9f488a20d89" target="_top" xlink:title="controller.MainController.createGrid">
<polygon fill="white" stroke="black" points="580.5,-27.5 580.5,-46.5 765.5,-46.5 765.5,-27.5 580.5,-27.5"/>
<text text-anchor="middle" x="673" y="-34.5" font-family="Helvetica,sans-Serif" font-size="10.00">controller.MainController.createGrid</text>
</a>
</g>
</g>
<!-- Node3&#45;&gt;Node4 -->
<g id="edge3" class="edge"><title>Node3&#45;&gt;Node4</title>
<path fill="none" stroke="midnightblue" d="M553.984,-37C562.726,-37 571.591,-37 580.33,-37"/>
<polygon fill="midnightblue" stroke="midnightblue" points="553.793,-33.5001 543.793,-37 553.793,-40.5001 553.793,-33.5001"/>
</g>
<!-- Node5 -->
<g id="node5" class="node"><title>Node5</title>
<g id="a_node5"><a xlink:href="../../db/d32/classcontroller_1_1_main_controller.html#aecc10abc6b55d8b0b4bd152be5c5d3f0" target="_top" xlink:title="controller.MainController.initialize\lSimulationObjects">
<polygon fill="white" stroke="black" points="802.5,-22 802.5,-52 975.5,-52 975.5,-22 802.5,-22"/>
<text text-anchor="start" x="810.5" y="-40" font-family="Helvetica,sans-Serif" font-size="10.00">controller.MainController.initialize</text>
<text text-anchor="middle" x="889" y="-29" font-family="Helvetica,sans-Serif" font-size="10.00">SimulationObjects</text>
</a>
</g>
</g>
<!-- Node4&#45;&gt;Node5 -->
<g id="edge4" class="edge"><title>Node4&#45;&gt;Node5</title>
<path fill="none" stroke="midnightblue" d="M775.691,-37C784.582,-37 793.522,-37 802.265,-37"/>
<polygon fill="midnightblue" stroke="midnightblue" points="775.687,-33.5001 765.687,-37 775.687,-40.5001 775.687,-33.5001"/>
</g>
<!-- Node6 -->
<g id="node6" class="node"><title>Node6</title>
<g id="a_node6"><a xlink:href="../../db/d32/classcontroller_1_1_main_controller.html#a7cfedb8e16c6b9d6394054d03193da82" target="_top" xlink:title="controller.MainController.initialize\lSimulationWithData">
<polygon fill="white" stroke="black" points="1012.5,-22 1012.5,-52 1185.5,-52 1185.5,-22 1012.5,-22"/>
<text text-anchor="start" x="1020.5" y="-40" font-family="Helvetica,sans-Serif" font-size="10.00">controller.MainController.initialize</text>
<text text-anchor="middle" x="1099" y="-29" font-family="Helvetica,sans-Serif" font-size="10.00">SimulationWithData</text>
</a>
</g>
</g>
<!-- Node5&#45;&gt;Node6 -->
<g id="edge5" class="edge"><title>Node5&#45;&gt;Node6</title>
<path fill="none" stroke="midnightblue" d="M985.585,-37C994.561,-37 1003.62,-37 1012.49,-37"/>
<polygon fill="midnightblue" stroke="midnightblue" points="985.502,-33.5001 975.502,-37 985.502,-40.5001 985.502,-33.5001"/>
</g>
<!-- Node7 -->
<g id="node7" class="node"><title>Node7</title>
<g id="a_node7"><a xlink:href="../../db/ddb/classcontroller_1_1_user_interface.html#a9cf1e21253003993661082c9d42926b2" target="_top" xlink:title="controller.UserInterface.make\lBottomPanel">
<polygon fill="white" stroke="black" points="1222,-0 1222,-30 1380,-30 1380,-0 1222,-0"/>
<text text-anchor="start" x="1230" y="-18" font-family="Helvetica,sans-Serif" font-size="10.00">controller.UserInterface.make</text>
<text text-anchor="middle" x="1301" y="-7" font-family="Helvetica,sans-Serif" font-size="10.00">BottomPanel</text>
</a>
</g>
</g>
<!-- Node6&#45;&gt;Node7 -->
<g id="edge6" class="edge"><title>Node6&#45;&gt;Node7</title>
<path fill="none" stroke="midnightblue" d="M1195.85,-26.4568C1204.53,-25.5015 1213.26,-24.5417 1221.76,-23.6061"/>
<polygon fill="midnightblue" stroke="midnightblue" points="1195.25,-23.0018 1185.69,-27.5743 1196.01,-29.9598 1195.25,-23.0018"/>
</g>
<!-- Node8 -->
<g id="node8" class="node"><title>Node8</title>
<g id="a_node8"><a xlink:href="../../db/ddb/classcontroller_1_1_user_interface.html#aad62b84bbc23f683c844ace519feb9d2" target="_top" xlink:title="controller.UserInterface.reset">
<polygon fill="white" stroke="black" points="1416,-49.5 1416,-68.5 1572,-68.5 1572,-49.5 1416,-49.5"/>
<text text-anchor="middle" x="1494" y="-56.5" font-family="Helvetica,sans-Serif" font-size="10.00">controller.UserInterface.reset</text>
</a>
</g>
</g>
<!-- Node7&#45;&gt;Node8 -->
<g id="edge7" class="edge"><title>Node7&#45;&gt;Node8</title>
<path fill="none" stroke="midnightblue" d="M1377.18,-32.3187C1402.56,-38.1648 1429.94,-44.4732 1451.71,-49.4876"/>
<polygon fill="midnightblue" stroke="midnightblue" points="1377.73,-28.8535 1367.2,-30.0192 1376.16,-35.6749 1377.73,-28.8535"/>
</g>
<!-- Node9 -->
<g id="node9" class="node"><title>Node9</title>
<g id="a_node9"><a xlink:href="../../db/ddb/classcontroller_1_1_user_interface.html#a6dd740b89d748c372a5ef9959e1bd7c4" target="_top" xlink:title="controller.UserInterface.\lUserInterface">
<polygon fill="white" stroke="black" points="1428.5,-0 1428.5,-30 1559.5,-30 1559.5,-0 1428.5,-0"/>
<text text-anchor="start" x="1436.5" y="-18" font-family="Helvetica,sans-Serif" font-size="10.00">controller.UserInterface.</text>
<text text-anchor="middle" x="1494" y="-7" font-family="Helvetica,sans-Serif" font-size="10.00">UserInterface</text>
</a>
</g>
</g>
<!-- Node7&#45;&gt;Node9 -->
<g id="edge9" class="edge"><title>Node7&#45;&gt;Node9</title>
<path fill="none" stroke="midnightblue" d="M1390.41,-15C1403.17,-15 1416.1,-15 1428.27,-15"/>
<polygon fill="midnightblue" stroke="midnightblue" points="1390.24,-11.5001 1380.24,-15 1390.24,-18.5001 1390.24,-11.5001"/>
</g>
<!-- Node8&#45;&gt;Node6 -->
<g id="edge8" class="edge"><title>Node8&#45;&gt;Node6</title>
<path fill="none" stroke="midnightblue" d="M1405.44,-54.0986C1339.94,-50.4318 1250.83,-45.4431 1185.76,-41.8008"/>
<polygon fill="midnightblue" stroke="midnightblue" points="1405.57,-57.6109 1415.75,-54.6754 1405.96,-50.6218 1405.57,-57.6109"/>
</g>
</g>
</svg>
