<?xml version="1.0" encoding="UTF-8" standalone="no"?>
<!DOCTYPE svg PUBLIC "-//W3C//DTD SVG 1.1//EN"
 "http://www.w3.org/Graphics/SVG/1.1/DTD/svg11.dtd">
<!-- Generated by graphviz version 2.36.0 (20140111.2315)
 -->
<!-- Title: simulationObjects.Cell.update Pages: 1 -->
<svg width="402pt" height="66pt"
 viewBox="0.00 0.00 402.00 66.00" xmlns="http://www.w3.org/2000/svg" xmlns:xlink="http://www.w3.org/1999/xlink">
<g id="graph0" class="graph" transform="scale(1 1) rotate(0) translate(4 62)">
<title>simulationObjects.Cell.update</title>
<polygon fill="white" stroke="none" points="-4,4 -4,-62 398,-62 398,4 -4,4"/>
<!-- Node1 -->
<g id="node1" class="node"><title>Node1</title>
<polygon fill="#bfbfbf" stroke="black" points="0.5,-19.5 0.5,-38.5 159.5,-38.5 159.5,-19.5 0.5,-19.5"/>
<text text-anchor="middle" x="80" y="-26.5" font-family="Helvetica,sans-Serif" font-size="10.00">simulationObjects.Cell.update</text>
</g>
<!-- Node2 -->
<g id="node2" class="node"><title>Node2</title>
<g id="a_node2"><a xlink:href="../../d6/dae/classsimulation_objects_1_1_sugar_patch.html#a8197c32cacf2b75722a72656a1f68b88" target="_top" xlink:title="simulationObjects.SugarPatch.update">
<polygon fill="white" stroke="black" points="196.5,-38.5 196.5,-57.5 393.5,-57.5 393.5,-38.5 196.5,-38.5"/>
<text text-anchor="middle" x="295" y="-45.5" font-family="Helvetica,sans-Serif" font-size="10.00">simulationObjects.SugarPatch.update</text>
</a>
</g>
</g>
<!-- Node1&#45;&gt;Node2 -->
<g id="edge1" class="edge"><title>Node1&#45;&gt;Node2</title>
<path fill="none" stroke="midnightblue" d="M169.912,-36.9311C178.681,-37.7133 187.613,-38.5101 196.462,-39.2994"/>
<polygon fill="midnightblue" stroke="midnightblue" points="169.98,-33.4233 159.708,-36.0209 169.358,-40.3957 169.98,-33.4233"/>
</g>
<!-- Node3 -->
<g id="node3" class="node"><title>Node3</title>
<g id="a_node3"><a xlink:href="../../d5/da5/classsimulation_objects_1_1_patch.html#ab880fd2c170d6d1c035a1468b8e19465" target="_top" xlink:title="simulationObjects.Patch.update">
<polygon fill="white" stroke="black" points="211,-0.5 211,-19.5 379,-19.5 379,-0.5 211,-0.5"/>
<text text-anchor="middle" x="295" y="-7.5" font-family="Helvetica,sans-Serif" font-size="10.00">simulationObjects.Patch.update</text>
</a>
</g>
</g>
<!-- Node1&#45;&gt;Node3 -->
<g id="edge2" class="edge"><title>Node1&#45;&gt;Node3</title>
<path fill="none" stroke="midnightblue" d="M169.997,-21.0613C183.571,-19.8505 197.534,-18.6049 210.973,-17.4061"/>
<polygon fill="midnightblue" stroke="midnightblue" points="169.358,-17.6043 159.708,-21.9791 169.98,-24.5767 169.358,-17.6043"/>
</g>
</g>
</svg>
