<?xml version="1.0" encoding="UTF-8" standalone="no"?>
<!DOCTYPE svg PUBLIC "-//W3C//DTD SVG 1.1//EN"
 "http://www.w3.org/Graphics/SVG/1.1/DTD/svg11.dtd">
<!-- Generated by graphviz version 2.36.0 (20140111.2315)
 -->
<!-- Title: simulationObjects.Cell.setState Pages: 1 -->
<svg width="1812pt" height="210pt"
 viewBox="0.00 0.00 1812.00 210.01" xmlns="http://www.w3.org/2000/svg" xmlns:xlink="http://www.w3.org/1999/xlink">
<g id="graph0" class="graph" transform="scale(1 1) rotate(0) translate(4 206.013)">
<title>simulationObjects.Cell.setState</title>
<polygon fill="white" stroke="none" points="-4,4 -4,-206.013 1808,-206.013 1808,4 -4,4"/>
<!-- Node1 -->
<g id="node1" class="node"><title>Node1</title>
<polygon fill="#bfbfbf" stroke="black" points="0,-82 0,-112 140,-112 140,-82 0,-82"/>
<text text-anchor="start" x="8" y="-100" font-family="Helvetica,sans-Serif" font-size="10.00">simulationObjects.Cell.set</text>
<text text-anchor="middle" x="70" y="-89" font-family="Helvetica,sans-Serif" font-size="10.00">State</text>
</g>
<!-- Node2 -->
<g id="node2" class="node"><title>Node2</title>
<g id="a_node2"><a xlink:href="../../db/d32/classcontroller_1_1_main_controller.html#ae8fc91ddcb15203739966acbe170af51" target="_top" xlink:title="controller.MainController.createCell">
<polygon fill="white" stroke="black" points="592.5,-175.5 592.5,-194.5 775.5,-194.5 775.5,-175.5 592.5,-175.5"/>
<text text-anchor="middle" x="684" y="-182.5" font-family="Helvetica,sans-Serif" font-size="10.00">controller.MainController.createCell</text>
</a>
</g>
</g>
<!-- Node1&#45;&gt;Node2 -->
<g id="edge1" class="edge"><title>Node1&#45;&gt;Node2</title>
<path fill="none" stroke="midnightblue" d="M96.068,-118.815C116.181,-134.859 145.93,-155.465 176,-165 321.686,-211.196 502.776,-203.961 604.365,-194.501"/>
<polygon fill="midnightblue" stroke="midnightblue" points="98.0204,-115.89 88.0655,-112.264 93.5862,-121.307 98.0204,-115.89"/>
</g>
<!-- Node8 -->
<g id="node8" class="node"><title>Node8</title>
<g id="a_node8"><a xlink:href="../../d5/da5/classsimulation_objects_1_1_patch.html#a801de23da5dcdf2e6914b939deefe67e" target="_top" xlink:title="simulationObjects.Patch.create\lNewCell">
<polygon fill="white" stroke="black" points="176.5,-126 176.5,-156 341.5,-156 341.5,-126 176.5,-126"/>
<text text-anchor="start" x="184.5" y="-144" font-family="Helvetica,sans-Serif" font-size="10.00">simulationObjects.Patch.create</text>
<text text-anchor="middle" x="259" y="-133" font-family="Helvetica,sans-Serif" font-size="10.00">NewCell</text>
</a>
</g>
</g>
<!-- Node1&#45;&gt;Node8 -->
<g id="edge8" class="edge"><title>Node1&#45;&gt;Node8</title>
<path fill="none" stroke="midnightblue" d="M144.852,-114.377C161.148,-118.211 178.278,-122.242 194.139,-125.974"/>
<polygon fill="midnightblue" stroke="midnightblue" points="145.368,-110.903 134.832,-112.019 143.764,-117.717 145.368,-110.903"/>
</g>
<!-- Node9 -->
<g id="node9" class="node"><title>Node9</title>
<g id="a_node9"><a xlink:href="../../d5/da5/classsimulation_objects_1_1_patch.html#a982ffbab2f32d5955c2c59b5a89fc4a1" target="_top" xlink:title="simulationObjects.Patch.toggle\lCellState">
<polygon fill="white" stroke="black" points="385,-126 385,-156 549,-156 549,-126 385,-126"/>
<text text-anchor="start" x="393" y="-144" font-family="Helvetica,sans-Serif" font-size="10.00">simulationObjects.Patch.toggle</text>
<text text-anchor="middle" x="467" y="-133" font-family="Helvetica,sans-Serif" font-size="10.00">CellState</text>
</a>
</g>
</g>
<!-- Node1&#45;&gt;Node9 -->
<g id="edge16" class="edge"><title>Node1&#45;&gt;Node9</title>
<path fill="none" stroke="midnightblue" d="M150.235,-100.39C204.405,-103.309 277.749,-108.441 342,-117 359.606,-119.345 378.484,-122.609 396.068,-125.975"/>
<polygon fill="midnightblue" stroke="midnightblue" points="150.177,-96.882 140.008,-99.8527 149.81,-103.872 150.177,-96.882"/>
</g>
<!-- Node12 -->
<g id="node12" class="node"><title>Node12</title>
<g id="a_node12"><a xlink:href="../../d2/d6e/classsimulation_objects_1_1_cell.html#ac18ac1231db87fe4e8f46dbd255056ae" target="_top" xlink:title="simulationObjects.Cell.initialize">
<polygon fill="white" stroke="black" points="177,-49.5 177,-68.5 341,-68.5 341,-49.5 177,-49.5"/>
<text text-anchor="middle" x="259" y="-56.5" font-family="Helvetica,sans-Serif" font-size="10.00">simulationObjects.Cell.initialize</text>
</a>
</g>
</g>
<!-- Node1&#45;&gt;Node12 -->
<g id="edge13" class="edge"><title>Node1&#45;&gt;Node12</title>
<path fill="none" stroke="midnightblue" d="M150.178,-80.9103C170.902,-76.6991 192.587,-72.2926 211.03,-68.5447"/>
<polygon fill="midnightblue" stroke="midnightblue" points="149.203,-77.5368 140.101,-82.9582 150.597,-84.3966 149.203,-77.5368"/>
</g>
<!-- Node13 -->
<g id="node13" class="node"><title>Node13</title>
<g id="a_node13"><a xlink:href="../../db/d5f/classsimulation_objects_1_1_seg_cell.html#afd4f85d8f558e742758c119c8c4d30a4" target="_top" xlink:title="simulationObjects.SegCell.is\lSatisfied">
<polygon fill="white" stroke="black" points="183,-0 183,-30 335,-30 335,-0 183,-0"/>
<text text-anchor="start" x="191" y="-18" font-family="Helvetica,sans-Serif" font-size="10.00">simulationObjects.SegCell.is</text>
<text text-anchor="middle" x="259" y="-7" font-family="Helvetica,sans-Serif" font-size="10.00">Satisfied</text>
</a>
</g>
</g>
<!-- Node1&#45;&gt;Node13 -->
<g id="edge14" class="edge"><title>Node1&#45;&gt;Node13</title>
<path fill="none" stroke="midnightblue" d="M104.158,-76.7596C124.409,-64.9704 151.114,-50.4231 176,-40 184.648,-36.3778 194.006,-33.0243 203.201,-30.0267"/>
<polygon fill="midnightblue" stroke="midnightblue" points="102.176,-73.865 95.3377,-81.9574 105.73,-79.8957 102.176,-73.865"/>
</g>
<!-- Node3 -->
<g id="node3" class="node"><title>Node3</title>
<g id="a_node3"><a xlink:href="../../db/d32/classcontroller_1_1_main_controller.html#aecc10abc6b55d8b0b4bd152be5c5d3f0" target="_top" xlink:title="controller.MainController.initialize\lSimulationObjects">
<polygon fill="white" stroke="black" points="1034.5,-148 1034.5,-178 1207.5,-178 1207.5,-148 1034.5,-148"/>
<text text-anchor="start" x="1042.5" y="-166" font-family="Helvetica,sans-Serif" font-size="10.00">controller.MainController.initialize</text>
<text text-anchor="middle" x="1121" y="-155" font-family="Helvetica,sans-Serif" font-size="10.00">SimulationObjects</text>
</a>
</g>
</g>
<!-- Node2&#45;&gt;Node3 -->
<g id="edge2" class="edge"><title>Node2&#45;&gt;Node3</title>
<path fill="none" stroke="midnightblue" d="M786.099,-179.887C861.355,-176.081 962.968,-170.942 1034.27,-167.336"/>
<polygon fill="midnightblue" stroke="midnightblue" points="785.471,-176.414 775.661,-180.415 785.825,-183.405 785.471,-176.414"/>
</g>
<!-- Node4 -->
<g id="node4" class="node"><title>Node4</title>
<g id="a_node4"><a xlink:href="../../db/d32/classcontroller_1_1_main_controller.html#a7cfedb8e16c6b9d6394054d03193da82" target="_top" xlink:title="controller.MainController.initialize\lSimulationWithData">
<polygon fill="white" stroke="black" points="1244.5,-148 1244.5,-178 1417.5,-178 1417.5,-148 1244.5,-148"/>
<text text-anchor="start" x="1252.5" y="-166" font-family="Helvetica,sans-Serif" font-size="10.00">controller.MainController.initialize</text>
<text text-anchor="middle" x="1331" y="-155" font-family="Helvetica,sans-Serif" font-size="10.00">SimulationWithData</text>
</a>
</g>
</g>
<!-- Node3&#45;&gt;Node4 -->
<g id="edge3" class="edge"><title>Node3&#45;&gt;Node4</title>
<path fill="none" stroke="midnightblue" d="M1217.59,-163C1226.56,-163 1235.62,-163 1244.49,-163"/>
<polygon fill="midnightblue" stroke="midnightblue" points="1217.5,-159.5 1207.5,-163 1217.5,-166.5 1217.5,-159.5"/>
</g>
<!-- Node5 -->
<g id="node5" class="node"><title>Node5</title>
<g id="a_node5"><a xlink:href="../../db/ddb/classcontroller_1_1_user_interface.html#a9cf1e21253003993661082c9d42926b2" target="_top" xlink:title="controller.UserInterface.make\lBottomPanel">
<polygon fill="white" stroke="black" points="1454,-126 1454,-156 1612,-156 1612,-126 1454,-126"/>
<text text-anchor="start" x="1462" y="-144" font-family="Helvetica,sans-Serif" font-size="10.00">controller.UserInterface.make</text>
<text text-anchor="middle" x="1533" y="-133" font-family="Helvetica,sans-Serif" font-size="10.00">BottomPanel</text>
</a>
</g>
</g>
<!-- Node4&#45;&gt;Node5 -->
<g id="edge4" class="edge"><title>Node4&#45;&gt;Node5</title>
<path fill="none" stroke="midnightblue" d="M1427.85,-152.457C1436.53,-151.502 1445.26,-150.542 1453.76,-149.606"/>
<polygon fill="midnightblue" stroke="midnightblue" points="1427.25,-149.002 1417.69,-153.574 1428.01,-155.96 1427.25,-149.002"/>
</g>
<!-- Node6 -->
<g id="node6" class="node"><title>Node6</title>
<g id="a_node6"><a xlink:href="../../db/ddb/classcontroller_1_1_user_interface.html#aad62b84bbc23f683c844ace519feb9d2" target="_top" xlink:title="controller.UserInterface.reset">
<polygon fill="white" stroke="black" points="1648,-175.5 1648,-194.5 1804,-194.5 1804,-175.5 1648,-175.5"/>
<text text-anchor="middle" x="1726" y="-182.5" font-family="Helvetica,sans-Serif" font-size="10.00">controller.UserInterface.reset</text>
</a>
</g>
</g>
<!-- Node5&#45;&gt;Node6 -->
<g id="edge5" class="edge"><title>Node5&#45;&gt;Node6</title>
<path fill="none" stroke="midnightblue" d="M1609.18,-158.319C1634.56,-164.165 1661.94,-170.473 1683.71,-175.488"/>
<polygon fill="midnightblue" stroke="midnightblue" points="1609.73,-154.854 1599.2,-156.019 1608.16,-161.675 1609.73,-154.854"/>
</g>
<!-- Node7 -->
<g id="node7" class="node"><title>Node7</title>
<g id="a_node7"><a xlink:href="../../db/ddb/classcontroller_1_1_user_interface.html#a6dd740b89d748c372a5ef9959e1bd7c4" target="_top" xlink:title="controller.UserInterface.\lUserInterface">
<polygon fill="white" stroke="black" points="1660.5,-126 1660.5,-156 1791.5,-156 1791.5,-126 1660.5,-126"/>
<text text-anchor="start" x="1668.5" y="-144" font-family="Helvetica,sans-Serif" font-size="10.00">controller.UserInterface.</text>
<text text-anchor="middle" x="1726" y="-133" font-family="Helvetica,sans-Serif" font-size="10.00">UserInterface</text>
</a>
</g>
</g>
<!-- Node5&#45;&gt;Node7 -->
<g id="edge7" class="edge"><title>Node5&#45;&gt;Node7</title>
<path fill="none" stroke="midnightblue" d="M1622.41,-141C1635.17,-141 1648.1,-141 1660.27,-141"/>
<polygon fill="midnightblue" stroke="midnightblue" points="1622.24,-137.5 1612.24,-141 1622.24,-144.5 1622.24,-137.5"/>
</g>
<!-- Node6&#45;&gt;Node4 -->
<g id="edge6" class="edge"><title>Node6&#45;&gt;Node4</title>
<path fill="none" stroke="midnightblue" d="M1637.44,-180.099C1571.94,-176.432 1482.83,-171.443 1417.76,-167.801"/>
<polygon fill="midnightblue" stroke="midnightblue" points="1637.57,-183.611 1647.75,-180.675 1637.96,-176.622 1637.57,-183.611"/>
</g>
<!-- Node8&#45;&gt;Node9 -->
<g id="edge9" class="edge"><title>Node8&#45;&gt;Node9</title>
<path fill="none" stroke="midnightblue" d="M351.742,-141C362.732,-141 373.896,-141 384.723,-141"/>
<polygon fill="midnightblue" stroke="midnightblue" points="351.713,-137.5 341.713,-141 351.712,-144.5 351.713,-137.5"/>
</g>
<!-- Node10 -->
<g id="node10" class="node"><title>Node10</title>
<g id="a_node10"><a xlink:href="../../db/d32/classcontroller_1_1_main_controller.html#a20c66a59cfde2b9f8ac2b8bf67e3996d" target="_top" xlink:title="controller.MainController.toggle\lCellStateForMouseEvent">
<polygon fill="white" stroke="black" points="601.5,-126 601.5,-156 766.5,-156 766.5,-126 601.5,-126"/>
<text text-anchor="start" x="609.5" y="-144" font-family="Helvetica,sans-Serif" font-size="10.00">controller.MainController.toggle</text>
<text text-anchor="middle" x="684" y="-133" font-family="Helvetica,sans-Serif" font-size="10.00">CellStateForMouseEvent</text>
</a>
</g>
</g>
<!-- Node9&#45;&gt;Node10 -->
<g id="edge10" class="edge"><title>Node9&#45;&gt;Node10</title>
<path fill="none" stroke="midnightblue" d="M559.339,-141C573.259,-141 587.549,-141 601.246,-141"/>
<polygon fill="midnightblue" stroke="midnightblue" points="559.282,-137.5 549.282,-141 559.282,-144.5 559.282,-137.5"/>
</g>
<!-- Node11 -->
<g id="node11" class="node"><title>Node11</title>
<g id="a_node11"><a xlink:href="../../db/d32/classcontroller_1_1_main_controller.html#ad28f21e1510291d95a69a9f488a20d89" target="_top" xlink:title="controller.MainController.createGrid">
<polygon fill="white" stroke="black" points="812.5,-134.5 812.5,-153.5 997.5,-153.5 997.5,-134.5 812.5,-134.5"/>
<text text-anchor="middle" x="905" y="-141.5" font-family="Helvetica,sans-Serif" font-size="10.00">controller.MainController.createGrid</text>
</a>
</g>
</g>
<!-- Node10&#45;&gt;Node11 -->
<g id="edge11" class="edge"><title>Node10&#45;&gt;Node11</title>
<path fill="none" stroke="midnightblue" d="M776.815,-142.258C788.597,-142.419 800.66,-142.584 812.438,-142.746"/>
<polygon fill="midnightblue" stroke="midnightblue" points="776.595,-138.754 766.548,-142.117 776.499,-145.754 776.595,-138.754"/>
</g>
<!-- Node11&#45;&gt;Node3 -->
<g id="edge12" class="edge"><title>Node11&#45;&gt;Node3</title>
<path fill="none" stroke="midnightblue" d="M1007.69,-153.029C1016.58,-153.818 1025.52,-154.612 1034.27,-155.388"/>
<polygon fill="midnightblue" stroke="midnightblue" points="1007.96,-149.539 997.687,-152.14 1007.34,-156.511 1007.96,-149.539"/>
</g>
<!-- Node14 -->
<g id="node14" class="node"><title>Node14</title>
<g id="a_node14"><a xlink:href="../../db/d5f/classsimulation_objects_1_1_seg_cell.html#a9d7bc36bf15d97456e59afed1a19e460" target="_top" xlink:title="simulationObjects.SegCell.update">
<polygon fill="white" stroke="black" points="378,-5.5 378,-24.5 556,-24.5 556,-5.5 378,-5.5"/>
<text text-anchor="middle" x="467" y="-12.5" font-family="Helvetica,sans-Serif" font-size="10.00">simulationObjects.SegCell.update</text>
</a>
</g>
</g>
<!-- Node13&#45;&gt;Node14 -->
<g id="edge15" class="edge"><title>Node13&#45;&gt;Node14</title>
<path fill="none" stroke="midnightblue" d="M345.377,-15C356.043,-15 366.97,-15 377.68,-15"/>
<polygon fill="midnightblue" stroke="midnightblue" points="345.245,-11.5001 335.245,-15 345.245,-18.5001 345.245,-11.5001"/>
</g>
</g>
</svg>
