<?xml version="1.0" encoding="UTF-8" standalone="no"?>
<!DOCTYPE svg PUBLIC "-//W3C//DTD SVG 1.1//EN"
 "http://www.w3.org/Graphics/SVG/1.1/DTD/svg11.dtd">
<!-- Generated by graphviz version 2.36.0 (20140111.2315)
 -->
<!-- Title: simulationObjects.PatchBodyHexagon.PatchBodyHexagon Pages: 1 -->
<svg width="598pt" height="234pt"
 viewBox="0.00 0.00 598.00 234.00" xmlns="http://www.w3.org/2000/svg" xmlns:xlink="http://www.w3.org/1999/xlink">
<g id="graph0" class="graph" transform="scale(1 1) rotate(0) translate(4 230)">
<title>simulationObjects.PatchBodyHexagon.PatchBodyHexagon</title>
<polygon fill="white" stroke="none" points="-4,4 -4,-230 594,-230 594,4 -4,4"/>
<!-- Node1 -->
<g id="node1" class="node"><title>Node1</title>
<polygon fill="#bfbfbf" stroke="black" points="0.5,-73 0.5,-103 155.5,-103 155.5,-73 0.5,-73"/>
<text text-anchor="start" x="8.5" y="-91" font-family="Helvetica,sans-Serif" font-size="10.00">simulationObjects.PatchBody</text>
<text text-anchor="middle" x="78" y="-80" font-family="Helvetica,sans-Serif" font-size="10.00">Hexagon.PatchBodyHexagon</text>
</g>
<!-- Node2 -->
<g id="node2" class="node"><title>Node2</title>
<g id="a_node2"><a xlink:href="../../d8/dfe/classsimulation_objects_1_1_patch_body_hexagon.html#a9013dbf816589413e492da6fab10fa7e" target="_top" xlink:title="simulationObjects.PatchBody\lHexagon.buildBody">
<polygon fill="white" stroke="black" points="201.5,-147 201.5,-177 356.5,-177 356.5,-147 201.5,-147"/>
<text text-anchor="start" x="209.5" y="-165" font-family="Helvetica,sans-Serif" font-size="10.00">simulationObjects.PatchBody</text>
<text text-anchor="middle" x="279" y="-154" font-family="Helvetica,sans-Serif" font-size="10.00">Hexagon.buildBody</text>
</a>
</g>
</g>
<!-- Node1&#45;&gt;Node2 -->
<g id="edge1" class="edge"><title>Node1&#45;&gt;Node2</title>
<path fill="none" stroke="midnightblue" d="M110.714,-103.033C133.128,-113.34 164.039,-126.919 192,-137 198.486,-139.338 205.306,-141.617 212.148,-143.786"/>
<polygon fill="midnightblue" stroke="midnightblue" points="211.567,-147.27 222.154,-146.88 213.635,-140.582 211.567,-147.27"/>
</g>
<!-- Node6 -->
<g id="node6" class="node"><title>Node6</title>
<g id="a_node6"><a xlink:href="../../d0/d1a/classsimulation_objects_1_1_patch_body.html#a466dadbe30fb2f8360163881e0db9295" target="_top" xlink:title="simulationObjects.PatchBody.get\lPatchWidth">
<polygon fill="white" stroke="black" points="192.5,-98 192.5,-128 365.5,-128 365.5,-98 192.5,-98"/>
<text text-anchor="start" x="200.5" y="-116" font-family="Helvetica,sans-Serif" font-size="10.00">simulationObjects.PatchBody.get</text>
<text text-anchor="middle" x="279" y="-105" font-family="Helvetica,sans-Serif" font-size="10.00">PatchWidth</text>
</a>
</g>
</g>
<!-- Node1&#45;&gt;Node6 -->
<g id="edge5" class="edge"><title>Node1&#45;&gt;Node6</title>
<path fill="none" stroke="midnightblue" d="M155.654,-97.6299C164.405,-98.7292 173.405,-99.8599 182.363,-100.985"/>
<polygon fill="midnightblue" stroke="midnightblue" points="182.085,-104.478 192.443,-102.252 182.958,-97.5324 182.085,-104.478"/>
</g>
<!-- Node7 -->
<g id="node7" class="node"><title>Node7</title>
<g id="a_node7"><a xlink:href="../../d0/d1a/classsimulation_objects_1_1_patch_body.html#a5cc298524a3d85e5d6e9607d1b04f708" target="_top" xlink:title="simulationObjects.PatchBody.set\lPatchHeight">
<polygon fill="white" stroke="black" points="193,-49 193,-79 365,-79 365,-49 193,-49"/>
<text text-anchor="start" x="201" y="-67" font-family="Helvetica,sans-Serif" font-size="10.00">simulationObjects.PatchBody.set</text>
<text text-anchor="middle" x="279" y="-56" font-family="Helvetica,sans-Serif" font-size="10.00">PatchHeight</text>
</a>
</g>
</g>
<!-- Node1&#45;&gt;Node7 -->
<g id="edge6" class="edge"><title>Node1&#45;&gt;Node7</title>
<path fill="none" stroke="midnightblue" d="M155.654,-78.7553C164.484,-77.6904 173.568,-76.5948 182.607,-75.5047"/>
<polygon fill="midnightblue" stroke="midnightblue" points="183.268,-78.9504 192.777,-74.2782 182.43,-72.0008 183.268,-78.9504"/>
</g>
<!-- Node8 -->
<g id="node8" class="node"><title>Node8</title>
<g id="a_node8"><a xlink:href="../../d0/d1a/classsimulation_objects_1_1_patch_body.html#a3fbd0cb76950803bc4c07f3580569be4" target="_top" xlink:title="simulationObjects.PatchBody.set\lPatchWidth">
<polygon fill="white" stroke="black" points="193,-0 193,-30 365,-30 365,-0 193,-0"/>
<text text-anchor="start" x="201" y="-18" font-family="Helvetica,sans-Serif" font-size="10.00">simulationObjects.PatchBody.set</text>
<text text-anchor="middle" x="279" y="-7" font-family="Helvetica,sans-Serif" font-size="10.00">PatchWidth</text>
</a>
</g>
</g>
<!-- Node1&#45;&gt;Node8 -->
<g id="edge7" class="edge"><title>Node1&#45;&gt;Node8</title>
<path fill="none" stroke="midnightblue" d="M110.68,-72.8731C133.079,-62.5229 163.985,-48.9303 192,-39 197.849,-36.9268 203.971,-34.9152 210.139,-32.9965"/>
<polygon fill="midnightblue" stroke="midnightblue" points="211.277,-36.3088 219.835,-30.0624 209.25,-29.6088 211.277,-36.3088"/>
</g>
<!-- Node3 -->
<g id="node3" class="node"><title>Node3</title>
<g id="a_node3"><a xlink:href="../../d0/d1a/classsimulation_objects_1_1_patch_body.html#a268e88a7cb1f5feb98f49e230475c2ba" target="_top" xlink:title="simulationObjects.PatchBody.get\lPatchHeight">
<polygon fill="white" stroke="black" points="409.5,-196 409.5,-226 582.5,-226 582.5,-196 409.5,-196"/>
<text text-anchor="start" x="417.5" y="-214" font-family="Helvetica,sans-Serif" font-size="10.00">simulationObjects.PatchBody.get</text>
<text text-anchor="middle" x="496" y="-203" font-family="Helvetica,sans-Serif" font-size="10.00">PatchHeight</text>
</a>
</g>
</g>
<!-- Node2&#45;&gt;Node3 -->
<g id="edge2" class="edge"><title>Node2&#45;&gt;Node3</title>
<path fill="none" stroke="midnightblue" d="M345.968,-177.035C369.185,-182.326 395.456,-188.313 419.404,-193.771"/>
<polygon fill="midnightblue" stroke="midnightblue" points="418.629,-197.184 429.157,-195.994 420.184,-190.359 418.629,-197.184"/>
</g>
<!-- Node4 -->
<g id="node4" class="node"><title>Node4</title>
<g id="a_node4"><a xlink:href="../../d0/d1a/classsimulation_objects_1_1_patch_body.html#a9760016e89cb49e2037203dd2a7eed58" target="_top" xlink:title="simulationObjects.PatchBody.create\lPolyFromPoints">
<polygon fill="white" stroke="black" points="402,-147 402,-177 590,-177 590,-147 402,-147"/>
<text text-anchor="start" x="410" y="-165" font-family="Helvetica,sans-Serif" font-size="10.00">simulationObjects.PatchBody.create</text>
<text text-anchor="middle" x="496" y="-154" font-family="Helvetica,sans-Serif" font-size="10.00">PolyFromPoints</text>
</a>
</g>
</g>
<!-- Node2&#45;&gt;Node4 -->
<g id="edge3" class="edge"><title>Node2&#45;&gt;Node4</title>
<path fill="none" stroke="midnightblue" d="M356.709,-162C367.995,-162 379.776,-162 391.493,-162"/>
<polygon fill="midnightblue" stroke="midnightblue" points="391.76,-165.5 401.76,-162 391.76,-158.5 391.76,-165.5"/>
</g>
<!-- Node5 -->
<g id="node5" class="node"><title>Node5</title>
<g id="a_node5"><a xlink:href="../../d0/d1a/classsimulation_objects_1_1_patch_body.html#a699dd283d067ce6da4bc19a2ae81a365" target="_top" xlink:title="simulationObjects.PatchBody.set\lCenter">
<polygon fill="white" stroke="black" points="410,-98 410,-128 582,-128 582,-98 410,-98"/>
<text text-anchor="start" x="418" y="-116" font-family="Helvetica,sans-Serif" font-size="10.00">simulationObjects.PatchBody.set</text>
<text text-anchor="middle" x="496" y="-105" font-family="Helvetica,sans-Serif" font-size="10.00">Center</text>
</a>
</g>
</g>
<!-- Node2&#45;&gt;Node5 -->
<g id="edge4" class="edge"><title>Node2&#45;&gt;Node5</title>
<path fill="none" stroke="midnightblue" d="M345.968,-146.965C369.185,-141.674 395.456,-135.687 419.404,-130.229"/>
<polygon fill="midnightblue" stroke="midnightblue" points="420.184,-133.641 429.157,-128.006 418.629,-126.816 420.184,-133.641"/>
</g>
</g>
</svg>
