<?xml version="1.0" encoding="UTF-8" standalone="no"?>
<!DOCTYPE svg PUBLIC "-//W3C//DTD SVG 1.1//EN"
 "http://www.w3.org/Graphics/SVG/1.1/DTD/svg11.dtd">
<!-- Generated by graphviz version 2.36.0 (20140111.2315)
 -->
<!-- Title: simulationObjects.PatchBody Pages: 1 -->
<svg width="360pt" height="164pt"
 viewBox="0.00 0.00 360.00 164.00" xmlns="http://www.w3.org/2000/svg" xmlns:xlink="http://www.w3.org/1999/xlink">
<g id="graph0" class="graph" transform="scale(1 1) rotate(0) translate(4 160)">
<title>simulationObjects.PatchBody</title>
<polygon fill="white" stroke="none" points="-4,4 -4,-160 356,-160 356,4 -4,4"/>
<!-- Node1 -->
<g id="node1" class="node"><title>Node1</title>
<polygon fill="#bfbfbf" stroke="black" points="125.5,-0.5 125.5,-19.5 280.5,-19.5 280.5,-0.5 125.5,-0.5"/>
<text text-anchor="middle" x="203" y="-7.5" font-family="Helvetica,sans-Serif" font-size="10.00">simulationObjects.PatchBody</text>
</g>
<!-- Node2 -->
<g id="node2" class="node"><title>Node2</title>
<polygon fill="white" stroke="#bfbfbf" points="80,-68.5 80,-87.5 134,-87.5 134,-68.5 80,-68.5"/>
<text text-anchor="middle" x="107" y="-75.5" font-family="Helvetica,sans-Serif" font-size="10.00">Polygon</text>
</g>
<!-- Node2&#45;&gt;Node1 -->
<g id="edge1" class="edge"><title>Node2&#45;&gt;Node1</title>
<path fill="none" stroke="midnightblue" d="M127.897,-62.6336C146.979,-49.5145 174.562,-30.551 190.447,-19.6305"/>
<polygon fill="midnightblue" stroke="midnightblue" points="125.808,-59.8222 119.55,-68.3717 129.774,-65.5905 125.808,-59.8222"/>
</g>
<!-- Node3 -->
<g id="node3" class="node"><title>Node3</title>
<g id="a_node3"><a xlink:href="../../de/d7a/classcontroller_1_1_grid_info.html" target="_top" xlink:title="controller.GridInfo">
<polygon fill="white" stroke="black" points="152.5,-68.5 152.5,-87.5 253.5,-87.5 253.5,-68.5 152.5,-68.5"/>
<text text-anchor="middle" x="203" y="-75.5" font-family="Helvetica,sans-Serif" font-size="10.00">controller.GridInfo</text>
</a>
</g>
</g>
<!-- Node3&#45;&gt;Node1 -->
<g id="edge2" class="edge"><title>Node3&#45;&gt;Node1</title>
<path fill="none" stroke="#9a32cd" stroke-dasharray="5,2" d="M203,-58.0413C203,-45.4724 203,-29.5631 203,-19.8411"/>
<polygon fill="#9a32cd" stroke="#9a32cd" points="199.5,-58.3716 203,-68.3717 206.5,-58.3717 199.5,-58.3716"/>
<text text-anchor="middle" x="227.5" y="-41.5" font-family="Helvetica,sans-Serif" font-size="10.00"> infoSheet</text>
</g>
<!-- Node4 -->
<g id="node4" class="node"><title>Node4</title>
<polygon fill="white" stroke="#bfbfbf" points="-0.5,-136.5 -0.5,-155.5 142.5,-155.5 142.5,-136.5 -0.5,-136.5"/>
<text text-anchor="middle" x="71" y="-143.5" font-family="Helvetica,sans-Serif" font-size="10.00">HashMap&lt; String, Color &gt;</text>
</g>
<!-- Node4&#45;&gt;Node3 -->
<g id="edge3" class="edge"><title>Node4&#45;&gt;Node3</title>
<path fill="none" stroke="#9a32cd" stroke-dasharray="5,2" d="M94.5591,-131.119C107.995,-123.394 125.248,-113.795 141,-106 154.469,-99.3351 169.969,-92.5851 182.102,-87.5013"/>
<polygon fill="#9a32cd" stroke="#9a32cd" points="92.4195,-128.314 85.5263,-136.36 95.9324,-134.369 92.4195,-128.314"/>
<text text-anchor="middle" x="170" y="-109.5" font-family="Helvetica,sans-Serif" font-size="10.00"> stateColors</text>
</g>
<!-- Node5 -->
<g id="node5" class="node"><title>Node5</title>
<polygon fill="white" stroke="#bfbfbf" points="161,-136.5 161,-155.5 245,-155.5 245,-136.5 161,-136.5"/>
<text text-anchor="middle" x="203" y="-143.5" font-family="Helvetica,sans-Serif" font-size="10.00">List&lt; String &gt;</text>
</g>
<!-- Node5&#45;&gt;Node3 -->
<g id="edge4" class="edge"><title>Node5&#45;&gt;Node3</title>
<path fill="none" stroke="#9a32cd" stroke-dasharray="5,2" d="M203,-126.041C203,-113.472 203,-97.5631 203,-87.8411"/>
<polygon fill="#9a32cd" stroke="#9a32cd" points="199.5,-126.372 203,-136.372 206.5,-126.372 199.5,-126.372"/>
<text text-anchor="middle" x="238.5" y="-109.5" font-family="Helvetica,sans-Serif" font-size="10.00"> myStateTypes</text>
</g>
<!-- Node6 -->
<g id="node6" class="node"><title>Node6</title>
<polygon fill="white" stroke="#bfbfbf" points="262.5,-136.5 262.5,-155.5 351.5,-155.5 351.5,-136.5 262.5,-136.5"/>
<text text-anchor="middle" x="307" y="-143.5" font-family="Helvetica,sans-Serif" font-size="10.00">List&lt; Integer &gt;</text>
</g>
<!-- Node6&#45;&gt;Node3 -->
<g id="edge5" class="edge"><title>Node6&#45;&gt;Node3</title>
<path fill="none" stroke="#9a32cd" stroke-dasharray="5,2" d="M297.248,-127.586C292.309,-120.08 285.718,-111.728 278,-106 266.776,-97.6699 252.735,-91.71 239.846,-87.5468"/>
<polygon fill="#9a32cd" stroke="#9a32cd" points="294.403,-129.646 302.581,-136.382 300.389,-126.016 294.403,-129.646"/>
<text text-anchor="middle" x="316" y="-109.5" font-family="Helvetica,sans-Serif" font-size="10.00"> paramList</text>
</g>
<!-- Node7 -->
<g id="node7" class="node"><title>Node7</title>
<polygon fill="white" stroke="#bfbfbf" points="271.5,-68.5 271.5,-87.5 312.5,-87.5 312.5,-68.5 271.5,-68.5"/>
<text text-anchor="middle" x="292" y="-75.5" font-family="Helvetica,sans-Serif" font-size="10.00">Point</text>
</g>
<!-- Node7&#45;&gt;Node1 -->
<g id="edge6" class="edge"><title>Node7&#45;&gt;Node1</title>
<path fill="none" stroke="#9a32cd" stroke-dasharray="5,2" d="M278.955,-60.3625C272.569,-52.9183 264.447,-44.3984 256,-38 246.204,-30.58 234.063,-24.2241 223.874,-19.5464"/>
<polygon fill="#9a32cd" stroke="#9a32cd" points="276.516,-62.9084 285.567,-68.4157 281.926,-58.4662 276.516,-62.9084"/>
<text text-anchor="middle" x="295.5" y="-41.5" font-family="Helvetica,sans-Serif" font-size="10.00"> myCenter</text>
</g>
</g>
</svg>
