<?xml version="1.0" encoding="UTF-8" standalone="no"?>
<!DOCTYPE svg PUBLIC "-//W3C//DTD SVG 1.1//EN"
 "http://www.w3.org/Graphics/SVG/1.1/DTD/svg11.dtd">
<!-- Generated by graphviz version 2.36.0 (20140111.2315)
 -->
<!-- Title: simulationObjects.ForestCell Pages: 1 -->
<!--zoomable 398 -->
<svg id="main" version="1.1" xmlns="http://www.w3.org/2000/svg" xmlns:xlink="http://www.w3.org/1999/xlink" xml:space="preserve" onload="init(evt)">
<style type="text/css"><![CDATA[
.edge:hover path { stroke: red; }
.edge:hover polygon { stroke: red; fill: red; }
]]></style>
<script type="text/javascript"><![CDATA[
var edges = document.getElementsByTagName('g');
if (edges && edges.length) {
  for (var i=0;i<edges.length;i++) {
    if (edges[i].id.substr(0,4)=='edge') {
      edges[i].setAttribute('class','edge');
    }
  }
}
]]></script>
        <defs>
                <circle id="rim" cx="0" cy="0" r="7"/>
                <circle id="rim2" cx="0" cy="0" r="3.5"/>
                <g id="zoomPlus">
                        <use xlink:href="#rim" fill="#404040">
                                <set attributeName="fill" to="#808080" begin="zoomplus.mouseover" end="zoomplus.mouseout"/>
                        </use>
                        <path d="M-4,0h8M0,-4v8" fill="none" stroke="white" stroke-width="1.5" pointer-events="none"/>
                </g>
                <g id="zoomMin">
                        <use xlink:href="#rim" fill="#404040">
                                <set attributeName="fill" to="#808080" begin="zoomminus.mouseover" end="zoomminus.mouseout"/>
                        </use>
                        <path d="M-4,0h8" fill="none" stroke="white" stroke-width="1.5" pointer-events="none"/>
                </g>
                <g id="dirArrow">
                        <path fill="none" stroke="white" stroke-width="1.5" d="M0,-3.0v7 M-2.5,-0.5L0,-3.0L2.5,-0.5"/>
                </g>
               <g id="resetDef">
                       <use xlink:href="#rim2" fill="#404040">
                               <set attributeName="fill" to="#808080" begin="reset.mouseover" end="reset.mouseout"/>
                       </use>
               </g>
        </defs>

<script type="text/javascript">
var viewWidth = 1278;
var viewHeight = 398;
var sectionId = 'dynsection-1';
</script>
<script xlink:href="../../svgpan.js"/>
<svg id="graph" class="graph">
<g id="viewport">
<title>simulationObjects.ForestCell</title>
<polygon fill="white" stroke="none" points="-4,4 -4,-393.891 1274,-393.891 1274,4 -4,4"/>
<!-- Node1 -->
<g id="node1" class="node"><title>Node1</title>
<polygon fill="#bfbfbf" stroke="black" points="705,-114.391 705,-133.391 857,-133.391 857,-114.391 705,-114.391"/>
<text text-anchor="middle" x="781" y="-121.391" font-family="Helvetica,sans-Serif" font-size="10.00">simulationObjects.ForestCell</text>
</g>
<!-- Node2 -->
<g id="node2" class="node"><title>Node2</title>
<g id="a_node2"><a xlink:href="../../d2/d6e/classsimulation_objects_1_1_cell.html" target="_top" xlink:title="simulationObjects.Cell">
<polygon fill="white" stroke="black" points="459,-132.391 459,-151.391 581,-151.391 581,-132.391 459,-132.391"/>
<text text-anchor="middle" x="520" y="-139.391" font-family="Helvetica,sans-Serif" font-size="10.00">simulationObjects.Cell</text>
</a>
</g>
</g>
<!-- Node2&#45;&gt;Node1 -->
<g id="edge1" class="edge"><title>Node2&#45;&gt;Node1</title>
<path fill="none" stroke="midnightblue" d="M588.141,-127.887C591.659,-125.859 594.981,-123.54 598,-120.891 613.572,-107.225 598.752,-89.3692 616,-77.8912 641.16,-61.1477 657.354,-63.6306 684,-77.8912 696.716,-84.6964 690.186,-96.6189 702,-104.891 707.48,-108.728 713.647,-111.795 720.052,-114.244"/>
<polygon fill="midnightblue" stroke="midnightblue" points="586.482,-124.803 579.053,-132.357 589.571,-131.084 586.482,-124.803"/>
</g>
<!-- Node4 -->
<g id="node4" class="node"><title>Node4</title>
<g id="a_node4"><a xlink:href="../../d5/da5/classsimulation_objects_1_1_patch.html" target="_top" xlink:title="simulationObjects.Patch">
<polygon fill="white" stroke="black" points="715.5,-155.391 715.5,-174.391 846.5,-174.391 846.5,-155.391 715.5,-155.391"/>
<text text-anchor="middle" x="781" y="-162.391" font-family="Helvetica,sans-Serif" font-size="10.00">simulationObjects.Patch</text>
</a>
</g>
</g>
<!-- Node2&#45;&gt;Node4 -->
<g id="edge9" class="edge"><title>Node2&#45;&gt;Node4</title>
<path fill="none" stroke="#9a32cd" stroke-dasharray="5,2" d="M591.206,-148.126C629.864,-151.559 677.513,-155.79 715.27,-159.143"/>
<polygon fill="#9a32cd" stroke="#9a32cd" points="591.341,-144.624 581.071,-147.226 590.722,-151.597 591.341,-144.624"/>
<text text-anchor="middle" x="650" y="-159.891" font-family="Helvetica,sans-Serif" font-size="10.00"> myCell</text>
</g>
<!-- Node3 -->
<g id="node3" class="node"><title>Node3</title>
<polygon fill="white" stroke="#bfbfbf" points="271.5,-87.3912 271.5,-106.391 334.5,-106.391 334.5,-87.3912 271.5,-87.3912"/>
<text text-anchor="middle" x="303" y="-94.3912" font-family="Helvetica,sans-Serif" font-size="10.00">Rectangle</text>
</g>
<!-- Node3&#45;&gt;Node2 -->
<g id="edge2" class="edge"><title>Node3&#45;&gt;Node2</title>
<path fill="none" stroke="midnightblue" d="M344.654,-105.4C381.287,-113.067 435.091,-124.329 473.223,-132.31"/>
<polygon fill="midnightblue" stroke="midnightblue" points="345.309,-101.962 334.804,-103.339 343.875,-108.813 345.309,-101.962"/>
</g>
<!-- Node4&#45;&gt;Node2 -->
<g id="edge3" class="edge"><title>Node4&#45;&gt;Node2</title>
<path fill="none" stroke="#9a32cd" stroke-dasharray="5,2" d="M728.373,-152.49C719.429,-149.734 710.333,-146.53 702,-142.891 693.408,-139.139 693.025,-134.431 684,-131.891 642.789,-120.296 593.484,-125.859 559.971,-132.372"/>
<polygon fill="#9a32cd" stroke="#9a32cd" points="727.393,-155.85 737.974,-155.305 729.362,-149.133 727.393,-155.85"/>
<text text-anchor="middle" x="650" y="-134.891" font-family="Helvetica,sans-Serif" font-size="10.00"> myPatch</text>
</g>
<!-- Node10 -->
<g id="node10" class="node"><title>Node10</title>
<g id="a_node10"><a xlink:href="../../d7/d97/classcontroller_1_1_grid.html" target="_top" xlink:title="controller.Grid">
<polygon fill="white" stroke="black" points="950.5,-94.3912 950.5,-113.391 1033.5,-113.391 1033.5,-94.3912 950.5,-94.3912"/>
<text text-anchor="middle" x="992" y="-101.391" font-family="Helvetica,sans-Serif" font-size="10.00">controller.Grid</text>
</a>
</g>
</g>
<!-- Node4&#45;&gt;Node10 -->
<g id="edge13" class="edge"><title>Node4&#45;&gt;Node10</title>
<path fill="none" stroke="#9a32cd" stroke-dasharray="5,2" d="M842.365,-151.791C848.55,-149.311 854.553,-146.371 860,-142.891 870.359,-136.273 867.272,-127.893 878,-121.891 899.931,-109.622 927.78,-105.083 950.343,-103.631"/>
<polygon fill="#9a32cd" stroke="#9a32cd" points="840.773,-148.644 832.55,-155.324 843.144,-155.231 840.773,-148.644"/>
<text text-anchor="middle" x="905" y="-124.891" font-family="Helvetica,sans-Serif" font-size="10.00"> gridArray</text>
</g>
<!-- Node5 -->
<g id="node5" class="node"><title>Node5</title>
<polygon fill="white" stroke="#bfbfbf" points="497,-249.391 497,-268.391 543,-268.391 543,-249.391 497,-249.391"/>
<text text-anchor="middle" x="520" y="-256.391" font-family="Helvetica,sans-Serif" font-size="10.00">Group</text>
</g>
<!-- Node5&#45;&gt;Node4 -->
<g id="edge4" class="edge"><title>Node5&#45;&gt;Node4</title>
<path fill="none" stroke="midnightblue" d="M553.206,-255.255C586.785,-250.717 640.487,-241.336 684,-223.891 716.139,-211.006 749.728,-187.734 767.398,-174.598"/>
<polygon fill="midnightblue" stroke="midnightblue" points="552.52,-251.814 543.049,-256.562 553.414,-258.757 552.52,-251.814"/>
</g>
<!-- Node6 -->
<g id="node6" class="node"><title>Node6</title>
<g id="a_node6"><a xlink:href="../../de/d7a/classcontroller_1_1_grid_info.html" target="_top" xlink:title="controller.GridInfo">
<polygon fill="white" stroke="black" points="252.5,-270.391 252.5,-289.391 353.5,-289.391 353.5,-270.391 252.5,-270.391"/>
<text text-anchor="middle" x="303" y="-277.391" font-family="Helvetica,sans-Serif" font-size="10.00">controller.GridInfo</text>
</a>
</g>
</g>
<!-- Node6&#45;&gt;Node2 -->
<g id="edge26" class="edge"><title>Node6&#45;&gt;Node2</title>
<path fill="none" stroke="#9a32cd" stroke-dasharray="5,2" d="M346.624,-265.83C349.218,-264.332 351.704,-262.689 354,-260.891 365.067,-252.228 362.375,-245.133 372,-234.891 392.154,-213.444 404.555,-215.983 424,-193.891 434.274,-182.219 429.662,-173.355 442,-163.891 448.95,-158.56 457.142,-154.521 465.545,-151.46"/>
<polygon fill="#9a32cd" stroke="#9a32cd" points="344.888,-262.785 337.507,-270.386 348.017,-269.047 344.888,-262.785"/>
<text text-anchor="middle" x="398" y="-237.891" font-family="Helvetica,sans-Serif" font-size="10.00"> infoSheet</text>
</g>
<!-- Node6&#45;&gt;Node4 -->
<g id="edge5" class="edge"><title>Node6&#45;&gt;Node4</title>
<path fill="none" stroke="#9a32cd" stroke-dasharray="5,2" d="M364.07,-289.744C443.12,-299.554 583.76,-305.854 684,-247.891 720.239,-226.936 755.566,-191.366 771.374,-174.418"/>
<polygon fill="#9a32cd" stroke="#9a32cd" points="364.172,-286.228 353.804,-288.407 363.268,-293.169 364.172,-286.228"/>
<text text-anchor="middle" x="520" y="-299.891" font-family="Helvetica,sans-Serif" font-size="10.00"> infoSheet</text>
</g>
<!-- Node6&#45;&gt;Node10 -->
<g id="edge12" class="edge"><title>Node6&#45;&gt;Node10</title>
<path fill="none" stroke="#9a32cd" stroke-dasharray="5,2" d="M323.179,-296.14C348.467,-316.391 395.25,-349.915 442,-362.891 545.66,-391.663 583.211,-395.504 684,-357.891 827.554,-304.319 952.522,-153.3 983.597,-113.568"/>
<polygon fill="#9a32cd" stroke="#9a32cd" points="325.123,-293.208 315.166,-289.586 320.691,-298.626 325.123,-293.208"/>
<text text-anchor="middle" x="650" y="-381.891" font-family="Helvetica,sans-Serif" font-size="10.00"> infoSheet</text>
</g>
<!-- Node18 -->
<g id="node18" class="node"><title>Node18</title>
<g id="a_node18"><a xlink:href="../../d0/d1a/classsimulation_objects_1_1_patch_body.html" target="_top" xlink:title="simulationObjects.PatchBody">
<polygon fill="white" stroke="black" points="442.5,-173.391 442.5,-192.391 597.5,-192.391 597.5,-173.391 442.5,-173.391"/>
<text text-anchor="middle" x="520" y="-180.391" font-family="Helvetica,sans-Serif" font-size="10.00">simulationObjects.PatchBody</text>
</a>
</g>
</g>
<!-- Node6&#45;&gt;Node18 -->
<g id="edge23" class="edge"><title>Node6&#45;&gt;Node18</title>
<path fill="none" stroke="#9a32cd" stroke-dasharray="5,2" d="M363.569,-276.351C384.775,-272.374 407.47,-264.64 424,-249.891 441.001,-234.723 424.976,-217.034 442,-201.891 446.321,-198.048 451.297,-194.954 456.596,-192.467"/>
<polygon fill="#9a32cd" stroke="#9a32cd" points="362.942,-272.907 353.636,-277.971 364.069,-279.816 362.942,-272.907"/>
<text text-anchor="middle" x="398" y="-277.891" font-family="Helvetica,sans-Serif" font-size="10.00"> infoSheet</text>
</g>
<!-- Node7 -->
<g id="node7" class="node"><title>Node7</title>
<polygon fill="white" stroke="#bfbfbf" points="0.5,-289.391 0.5,-308.391 143.5,-308.391 143.5,-289.391 0.5,-289.391"/>
<text text-anchor="middle" x="72" y="-296.391" font-family="Helvetica,sans-Serif" font-size="10.00">HashMap&lt; String, Color &gt;</text>
</g>
<!-- Node7&#45;&gt;Node6 -->
<g id="edge6" class="edge"><title>Node7&#45;&gt;Node6</title>
<path fill="none" stroke="#9a32cd" stroke-dasharray="5,2" d="M153.64,-292.2C186.538,-289.471 223.532,-286.402 252.35,-284.011"/>
<polygon fill="#9a32cd" stroke="#9a32cd" points="153.252,-288.721 143.576,-293.036 153.831,-295.697 153.252,-288.721"/>
<text text-anchor="middle" x="198" y="-294.891" font-family="Helvetica,sans-Serif" font-size="10.00"> stateColors</text>
</g>
<!-- Node8 -->
<g id="node8" class="node"><title>Node8</title>
<polygon fill="white" stroke="#bfbfbf" points="30,-251.391 30,-270.391 114,-270.391 114,-251.391 30,-251.391"/>
<text text-anchor="middle" x="72" y="-258.391" font-family="Helvetica,sans-Serif" font-size="10.00">List&lt; String &gt;</text>
</g>
<!-- Node8&#45;&gt;Node6 -->
<g id="edge7" class="edge"><title>Node8&#45;&gt;Node6</title>
<path fill="none" stroke="#9a32cd" stroke-dasharray="5,2" d="M124.408,-263.761C156.045,-265.687 197.408,-268.491 234,-271.891 239.918,-272.441 246.118,-273.081 252.265,-273.756"/>
<polygon fill="#9a32cd" stroke="#9a32cd" points="124.263,-260.246 114.072,-263.142 123.845,-267.234 124.263,-260.246"/>
<text text-anchor="middle" x="198" y="-274.891" font-family="Helvetica,sans-Serif" font-size="10.00"> myStateTypes</text>
</g>
<!-- Node9 -->
<g id="node9" class="node"><title>Node9</title>
<polygon fill="white" stroke="#bfbfbf" points="27.5,-173.391 27.5,-192.391 116.5,-192.391 116.5,-173.391 27.5,-173.391"/>
<text text-anchor="middle" x="72" y="-180.391" font-family="Helvetica,sans-Serif" font-size="10.00">List&lt; Integer &gt;</text>
</g>
<!-- Node9&#45;&gt;Node2 -->
<g id="edge27" class="edge"><title>Node9&#45;&gt;Node2</title>
<path fill="none" stroke="#9a32cd" stroke-dasharray="5,2" d="M126.661,-171.661C162.081,-164.728 209.605,-156.336 252,-151.891 322.815,-144.467 404.703,-142.351 458.924,-141.846"/>
<polygon fill="#9a32cd" stroke="#9a32cd" points="125.671,-168.289 116.542,-173.666 127.031,-175.156 125.671,-168.289"/>
<text text-anchor="middle" x="303" y="-154.891" font-family="Helvetica,sans-Serif" font-size="10.00"> myParamList</text>
</g>
<!-- Node9&#45;&gt;Node6 -->
<g id="edge8" class="edge"><title>Node9&#45;&gt;Node6</title>
<path fill="none" stroke="#9a32cd" stroke-dasharray="5,2" d="M105.906,-196.329C138.622,-209.844 190.123,-231.541 234,-251.891 242.114,-255.654 243.809,-257.298 252,-260.891 259.483,-264.174 267.73,-267.445 275.331,-270.324"/>
<polygon fill="#9a32cd" stroke="#9a32cd" points="106.965,-192.979 96.3851,-192.407 104.299,-199.452 106.965,-192.979"/>
<text text-anchor="middle" x="198" y="-254.891" font-family="Helvetica,sans-Serif" font-size="10.00"> paramList</text>
</g>
<!-- Node10&#45;&gt;Node4 -->
<g id="edge10" class="edge"><title>Node10&#45;&gt;Node4</title>
<path fill="none" stroke="#9a32cd" stroke-dasharray="5,2" d="M968.423,-118.805C957.764,-125.238 944.633,-132.319 932,-136.891 904.848,-146.718 873.624,-153.253 846.718,-157.518"/>
<polygon fill="#9a32cd" stroke="#9a32cd" points="970.451,-121.665 977.079,-113.399 966.743,-115.728 970.451,-121.665"/>
<text text-anchor="middle" x="905" y="-154.891" font-family="Helvetica,sans-Serif" font-size="10.00"> grid</text>
</g>
<!-- Node13 -->
<g id="node13" class="node"><title>Node13</title>
<g id="a_node13"><a xlink:href="../../dd/d38/classcontroller_1_1_grid_edge_rules.html" target="_top" xlink:title="controller.GridEdgeRules">
<polygon fill="white" stroke="black" points="1138,-94.3912 1138,-113.391 1270,-113.391 1270,-94.3912 1138,-94.3912"/>
<text text-anchor="middle" x="1204" y="-101.391" font-family="Helvetica,sans-Serif" font-size="10.00">controller.GridEdgeRules</text>
</a>
</g>
</g>
<!-- Node10&#45;&gt;Node13 -->
<g id="edge16" class="edge"><title>Node10&#45;&gt;Node13</title>
<path fill="none" stroke="#9a32cd" stroke-dasharray="5,2" d="M1043.82,-103.891C1072.13,-103.891 1107.68,-103.891 1138,-103.891"/>
<polygon fill="#9a32cd" stroke="#9a32cd" points="1043.74,-100.391 1033.74,-103.891 1043.74,-107.391 1043.74,-100.391"/>
<text text-anchor="middle" x="1086" y="-106.891" font-family="Helvetica,sans-Serif" font-size="10.00"> grid</text>
</g>
<!-- Node11 -->
<g id="node11" class="node"><title>Node11</title>
<polygon fill="white" stroke="#bfbfbf" points="761,-76.3912 761,-95.3912 801,-95.3912 801,-76.3912 761,-76.3912"/>
<text text-anchor="middle" x="781" y="-83.3912" font-family="Helvetica,sans-Serif" font-size="10.00">Pane</text>
</g>
<!-- Node11&#45;&gt;Node10 -->
<g id="edge11" class="edge"><title>Node11&#45;&gt;Node10</title>
<path fill="none" stroke="midnightblue" d="M811.697,-88.4488C848.024,-91.5775 909.698,-96.8891 950.393,-100.394"/>
<polygon fill="midnightblue" stroke="midnightblue" points="811.551,-84.9234 801.288,-87.5523 810.95,-91.8976 811.551,-84.9234"/>
</g>
<!-- Node12 -->
<g id="node12" class="node"><title>Node12</title>
<polygon fill="white" stroke="#bfbfbf" points="702,-38.3912 702,-57.3912 860,-57.3912 860,-38.3912 702,-38.3912"/>
<text text-anchor="middle" x="781" y="-45.3912" font-family="Helvetica,sans-Serif" font-size="10.00">HashMap&lt; Integer, Integer &gt;</text>
</g>
<!-- Node12&#45;&gt;Node10 -->
<g id="edge14" class="edge"><title>Node12&#45;&gt;Node10</title>
<path fill="none" stroke="#9a32cd" stroke-dasharray="5,2" d="M848.056,-59.3725C874.434,-64.6321 904.917,-71.5652 932,-79.8912 944.895,-83.8556 958.899,-89.4921 970.027,-94.3066"/>
<polygon fill="#9a32cd" stroke="#9a32cd" points="848.648,-55.9221 838.162,-57.4392 847.305,-62.7922 848.648,-55.9221"/>
<text text-anchor="middle" x="905" y="-82.8912" font-family="Helvetica,sans-Serif" font-size="10.00"> cellCounts</text>
</g>
<!-- Node13&#45;&gt;Node10 -->
<g id="edge15" class="edge"><title>Node13&#45;&gt;Node10</title>
<path fill="none" stroke="#9a32cd" stroke-dasharray="5,2" d="M1151.97,-92.4714C1141.45,-90.5647 1130.41,-88.885 1120,-87.8912 1089.91,-85.0178 1081.96,-83.9012 1052,-87.8912 1042.11,-89.2083 1031.53,-91.7153 1022.1,-94.3609"/>
<polygon fill="#9a32cd" stroke="#9a32cd" points="1151.37,-95.9214 1161.85,-94.3542 1152.68,-89.045 1151.37,-95.9214"/>
<text text-anchor="middle" x="1086" y="-90.8912" font-family="Helvetica,sans-Serif" font-size="10.00"> myEdgeRules</text>
</g>
<!-- Node14 -->
<g id="node14" class="node"><title>Node14</title>
<polygon fill="white" stroke="#bfbfbf" points="453.5,-5.89118 453.5,-35.8912 586.5,-35.8912 586.5,-5.89118 453.5,-5.89118"/>
<text text-anchor="start" x="461.5" y="-23.8912" font-family="Helvetica,sans-Serif" font-size="10.00">List&lt; simulationObjects.</text>
<text text-anchor="middle" x="520" y="-12.8912" font-family="Helvetica,sans-Serif" font-size="10.00">Patch &gt;</text>
</g>
<!-- Node14&#45;&gt;Node4 -->
<g id="edge25" class="edge"><title>Node14&#45;&gt;Node4</title>
<path fill="none" stroke="#9a32cd" stroke-dasharray="5,2" d="M596.435,-30.4872C627.383,-38.0662 661.218,-51.6276 684,-75.8912 705.106,-98.3694 680.333,-120.953 702,-142.891 707.24,-148.197 713.654,-152.249 720.53,-155.338"/>
<polygon fill="#9a32cd" stroke="#9a32cd" points="597.033,-27.0339 586.506,-28.2307 595.481,-33.8599 597.033,-27.0339"/>
<text text-anchor="middle" x="650" y="-78.8912" font-family="Helvetica,sans-Serif" font-size="10.00"> myNeighbors</text>
</g>
<!-- Node14&#45;&gt;Node10 -->
<g id="edge17" class="edge"><title>Node14&#45;&gt;Node10</title>
<path fill="none" stroke="#9a32cd" stroke-dasharray="5,2" d="M596.552,-8.13568C666.365,0.843812 772.239,7.27831 860,-17.8912 911.257,-32.5916 960.817,-75.1936 981.232,-94.3558"/>
<polygon fill="#9a32cd" stroke="#9a32cd" points="595.968,-4.68246 586.52,-9.47554 596.895,-11.6209 595.968,-4.68246"/>
<text text-anchor="middle" x="781" y="-20.8912" font-family="Helvetica,sans-Serif" font-size="10.00"> emptyPatches</text>
</g>
<!-- Node15 -->
<g id="node15" class="node"><title>Node15</title>
<polygon fill="white" stroke="#bfbfbf" points="486,-211.391 486,-230.391 554,-230.391 554,-211.391 486,-211.391"/>
<text text-anchor="middle" x="520" y="-218.391" font-family="Helvetica,sans-Serif" font-size="10.00">ImageView</text>
</g>
<!-- Node15&#45;&gt;Node4 -->
<g id="edge18" class="edge"><title>Node15&#45;&gt;Node4</title>
<path fill="none" stroke="#9a32cd" stroke-dasharray="5,2" d="M564.313,-216.165C597.371,-212.098 643.902,-205.376 684,-195.891 708.202,-190.166 735.092,-181.255 754.242,-174.453"/>
<polygon fill="#9a32cd" stroke="#9a32cd" points="563.591,-212.727 554.079,-217.393 564.425,-219.677 563.591,-212.727"/>
<text text-anchor="middle" x="650" y="-211.891" font-family="Helvetica,sans-Serif" font-size="10.00"> myView</text>
</g>
<!-- Node16 -->
<g id="node16" class="node"><title>Node16</title>
<g id="a_node16"><a xlink:href="../../df/d37/enumsimulation_objects_1_1_patch_1_1_state.html" target="_top" xlink:title="simulationObjects.Patch.\lState">
<polygon fill="white" stroke="black" points="453,-81.8912 453,-111.891 587,-111.891 587,-81.8912 453,-81.8912"/>
<text text-anchor="start" x="461" y="-99.8912" font-family="Helvetica,sans-Serif" font-size="10.00">simulationObjects.Patch.</text>
<text text-anchor="middle" x="520" y="-88.8912" font-family="Helvetica,sans-Serif" font-size="10.00">State</text>
</a>
</g>
</g>
<!-- Node16&#45;&gt;Node4 -->
<g id="edge19" class="edge"><title>Node16&#45;&gt;Node4</title>
<path fill="none" stroke="#9a32cd" stroke-dasharray="5,2" d="M597.231,-88.8912C626.388,-89.391 658.686,-94.5924 684,-110.891 697.72,-119.725 689.176,-132.801 702,-142.891 708.745,-148.198 716.704,-152.226 724.916,-155.281"/>
<polygon fill="#9a32cd" stroke="#9a32cd" points="597.062,-85.3912 587.065,-88.9 597.068,-92.3912 597.062,-85.3912"/>
<text text-anchor="middle" x="650" y="-113.891" font-family="Helvetica,sans-Serif" font-size="10.00"> myState</text>
</g>
<!-- Node17 -->
<g id="node17" class="node"><title>Node17</title>
<polygon fill="white" stroke="#bfbfbf" points="496.5,-334.391 496.5,-353.391 543.5,-353.391 543.5,-334.391 496.5,-334.391"/>
<text text-anchor="middle" x="520" y="-341.391" font-family="Helvetica,sans-Serif" font-size="10.00">Image</text>
</g>
<!-- Node17&#45;&gt;Node4 -->
<g id="edge20" class="edge"><title>Node17&#45;&gt;Node4</title>
<path fill="none" stroke="#9a32cd" stroke-dasharray="5,2" d="M553.815,-346.537C588.907,-347.725 644.79,-344.736 684,-318.891 739.241,-282.48 768.452,-202.177 777.166,-174.494"/>
<polygon fill="#9a32cd" stroke="#9a32cd" points="553.787,-343.032 543.633,-346.054 553.456,-350.024 553.787,-343.032"/>
<text text-anchor="middle" x="650" y="-345.891" font-family="Helvetica,sans-Serif" font-size="10.00"> image</text>
</g>
<!-- Node18&#45;&gt;Node4 -->
<g id="edge21" class="edge"><title>Node18&#45;&gt;Node4</title>
<path fill="none" stroke="#9a32cd" stroke-dasharray="5,2" d="M607.832,-181.105C632.475,-180.216 659.316,-178.884 684,-176.891 694.129,-176.073 704.832,-174.972 715.272,-173.766"/>
<polygon fill="#9a32cd" stroke="#9a32cd" points="607.657,-177.609 597.782,-181.448 607.896,-184.605 607.657,-177.609"/>
<text text-anchor="middle" x="650" y="-183.891" font-family="Helvetica,sans-Serif" font-size="10.00"> myBody</text>
</g>
<!-- Node19 -->
<g id="node19" class="node"><title>Node19</title>
<polygon fill="white" stroke="#bfbfbf" points="276,-232.391 276,-251.391 330,-251.391 330,-232.391 276,-232.391"/>
<text text-anchor="middle" x="303" y="-239.391" font-family="Helvetica,sans-Serif" font-size="10.00">Polygon</text>
</g>
<!-- Node19&#45;&gt;Node18 -->
<g id="edge22" class="edge"><title>Node19&#45;&gt;Node18</title>
<path fill="none" stroke="midnightblue" d="M340.554,-245.194C365.715,-245.741 398.982,-242.912 424,-227.891 436.05,-220.657 430.429,-209.869 442,-201.891 447.668,-197.984 454.059,-194.878 460.675,-192.409"/>
<polygon fill="midnightblue" stroke="midnightblue" points="340.448,-241.687 330.314,-244.778 340.164,-248.681 340.448,-241.687"/>
</g>
<!-- Node20 -->
<g id="node20" class="node"><title>Node20</title>
<polygon fill="white" stroke="#bfbfbf" points="282.5,-172.391 282.5,-191.391 323.5,-191.391 323.5,-172.391 282.5,-172.391"/>
<text text-anchor="middle" x="303" y="-179.391" font-family="Helvetica,sans-Serif" font-size="10.00">Point</text>
</g>
<!-- Node20&#45;&gt;Node18 -->
<g id="edge24" class="edge"><title>Node20&#45;&gt;Node18</title>
<path fill="none" stroke="#9a32cd" stroke-dasharray="5,2" d="M334.151,-182.031C362.131,-182.162 404.971,-182.361 442.366,-182.535"/>
<polygon fill="#9a32cd" stroke="#9a32cd" points="333.858,-178.53 323.841,-181.983 333.825,-185.53 333.858,-178.53"/>
<text text-anchor="middle" x="398" y="-185.891" font-family="Helvetica,sans-Serif" font-size="10.00"> myCenter</text>
</g>
</g>
</svg>
        <g id="navigator" transform="translate(0 0)" fill="#404254">
                <rect fill="#f2f5e9" fill-opacity="0.5" stroke="#606060" stroke-width=".5" x="0" y="0" width="60" height="60"/>
                <use id="zoomplus" xlink:href="#zoomPlus" x="17" y="9" onmousedown="handleZoom(evt,'in')"/>
                <use id="zoomminus" xlink:href="#zoomMin" x="42" y="9" onmousedown="handleZoom(evt,'out')"/>
                <use id="reset" xlink:href="#resetDef" x="30" y="36" onmousedown="handleReset()"/>
                <g id="arrowUp" xlink:href="#dirArrow" transform="translate(30 24)" onmousedown="handlePan(0,-1)">
                  <use xlink:href="#rim" fill="#404040">
                        <set attributeName="fill" to="#808080" begin="arrowUp.mouseover" end="arrowUp.mouseout"/>
                  </use>
                  <path fill="none" stroke="white" stroke-width="1.5" d="M0,-3.0v7 M-2.5,-0.5L0,-3.0L2.5,-0.5"/>
                </g>
                <g id="arrowRight" xlink:href="#dirArrow" transform="rotate(90) translate(36 -43)" onmousedown="handlePan(1,0)">
                  <use xlink:href="#rim" fill="#404040">
                        <set attributeName="fill" to="#808080" begin="arrowRight.mouseover" end="arrowRight.mouseout"/>
                  </use>
                  <path fill="none" stroke="white" stroke-width="1.5" d="M0,-3.0v7 M-2.5,-0.5L0,-3.0L2.5,-0.5"/>
                </g>
                <g id="arrowDown" xlink:href="#dirArrow" transform="rotate(180) translate(-30 -48)" onmousedown="handlePan(0,1)">
                  <use xlink:href="#rim" fill="#404040">
                        <set attributeName="fill" to="#808080" begin="arrowDown.mouseover" end="arrowDown.mouseout"/>
                  </use>
                  <path fill="none" stroke="white" stroke-width="1.5" d="M0,-3.0v7 M-2.5,-0.5L0,-3.0L2.5,-0.5"/>
                </g>
                <g id="arrowLeft" xlink:href="#dirArrow" transform="rotate(270) translate(-36 17)" onmousedown="handlePan(-1,0)">
                  <use xlink:href="#rim" fill="#404040">
                        <set attributeName="fill" to="#808080" begin="arrowLeft.mouseover" end="arrowLeft.mouseout"/>
                  </use>
                  <path fill="none" stroke="white" stroke-width="1.5" d="M0,-3.0v7 M-2.5,-0.5L0,-3.0L2.5,-0.5"/>
                </g>
        </g>
        <svg viewBox="0 0 15 15" width="100%" height="30px" preserveAspectRatio="xMaxYMin meet">
         <g id="arrow_out" transform="scale(0.3 0.3)">
          <a xlink:href="classsimulation_objects_1_1_forest_cell__coll__graph_org.svg" target="_base">
           <rect id="button" ry="5" rx="5" y="6" x="6" height="38" width="38"
                fill="#f2f5e9" fill-opacity="0.5" stroke="#606060" stroke-width="1.0"/>
           <path id="arrow"
             d="M 11.500037,31.436501 C 11.940474,20.09759 22.043105,11.32322 32.158766,21.979434 L 37.068811,17.246167 C 37.068811,17.246167 37.088388,32 37.088388,32 L 22.160133,31.978069 C 22.160133,31.978069 26.997745,27.140456 26.997745,27.140456 C 18.528582,18.264221 13.291696,25.230495 11.500037,31.436501 z"
             style="fill:#404040;"/>
          </a>
         </g>
        </svg>
</svg>
