<?xml version="1.0" encoding="UTF-8" standalone="no"?>
<!DOCTYPE svg PUBLIC "-//W3C//DTD SVG 1.1//EN"
 "http://www.w3.org/Graphics/SVG/1.1/DTD/svg11.dtd">
<!-- Generated by graphviz version 2.36.0 (20140111.2315)
 -->
<!-- Title: controller.Grid.updateBackgroundColor Pages: 1 -->
<svg width="1140pt" height="102pt"
 viewBox="0.00 0.00 1140.00 102.00" xmlns="http://www.w3.org/2000/svg" xmlns:xlink="http://www.w3.org/1999/xlink">
<g id="graph0" class="graph" transform="scale(1 1) rotate(0) translate(4 98)">
<title>controller.Grid.updateBackgroundColor</title>
<polygon fill="white" stroke="none" points="-4,4 -4,-98 1136,-98 1136,4 -4,4"/>
<!-- Node1 -->
<g id="node1" class="node"><title>Node1</title>
<polygon fill="#bfbfbf" stroke="black" points="0.5,-20 0.5,-50 177.5,-50 177.5,-20 0.5,-20"/>
<text text-anchor="start" x="8.5" y="-38" font-family="Helvetica,sans-Serif" font-size="10.00">controller.Grid.updateBackground</text>
<text text-anchor="middle" x="89" y="-27" font-family="Helvetica,sans-Serif" font-size="10.00">Color</text>
</g>
<!-- Node2 -->
<g id="node2" class="node"><title>Node2</title>
<g id="a_node2"><a xlink:href="../../db/db2/classcontroller_1_1_color_picker.html#afb051d96595ff37672f48e50dc036c82" target="_top" xlink:title="controller.ColorPicker.build\lColorPickerMenu">
<polygon fill="white" stroke="black" points="214,-20 214,-50 356,-50 356,-20 214,-20"/>
<text text-anchor="start" x="222" y="-38" font-family="Helvetica,sans-Serif" font-size="10.00">controller.ColorPicker.build</text>
<text text-anchor="middle" x="285" y="-27" font-family="Helvetica,sans-Serif" font-size="10.00">ColorPickerMenu</text>
</a>
</g>
</g>
<!-- Node1&#45;&gt;Node2 -->
<g id="edge1" class="edge"><title>Node1&#45;&gt;Node2</title>
<path fill="none" stroke="midnightblue" d="M187.916,-35C196.685,-35 205.444,-35 213.906,-35"/>
<polygon fill="midnightblue" stroke="midnightblue" points="187.635,-31.5001 177.635,-35 187.635,-38.5001 187.635,-31.5001"/>
</g>
<!-- Node3 -->
<g id="node3" class="node"><title>Node3</title>
<g id="a_node3"><a xlink:href="../../db/db2/classcontroller_1_1_color_picker.html#a965e34ea24c65524bc0e564d055a8e4e" target="_top" xlink:title="controller.ColorPicker.show\lColorPicker">
<polygon fill="white" stroke="black" points="392.5,-20 392.5,-50 535.5,-50 535.5,-20 392.5,-20"/>
<text text-anchor="start" x="400.5" y="-38" font-family="Helvetica,sans-Serif" font-size="10.00">controller.ColorPicker.show</text>
<text text-anchor="middle" x="464" y="-27" font-family="Helvetica,sans-Serif" font-size="10.00">ColorPicker</text>
</a>
</g>
</g>
<!-- Node2&#45;&gt;Node3 -->
<g id="edge2" class="edge"><title>Node2&#45;&gt;Node3</title>
<path fill="none" stroke="midnightblue" d="M366.315,-35C374.982,-35 383.754,-35 392.296,-35"/>
<polygon fill="midnightblue" stroke="midnightblue" points="366.209,-31.5001 356.209,-35 366.209,-38.5001 366.209,-31.5001"/>
</g>
<!-- Node4 -->
<g id="node4" class="node"><title>Node4</title>
<g id="a_node4"><a xlink:href="../../db/ddb/classcontroller_1_1_user_interface.html#a9cf1e21253003993661082c9d42926b2" target="_top" xlink:title="controller.UserInterface.make\lBottomPanel">
<polygon fill="white" stroke="black" points="572,-20 572,-50 730,-50 730,-20 572,-20"/>
<text text-anchor="start" x="580" y="-38" font-family="Helvetica,sans-Serif" font-size="10.00">controller.UserInterface.make</text>
<text text-anchor="middle" x="651" y="-27" font-family="Helvetica,sans-Serif" font-size="10.00">BottomPanel</text>
</a>
</g>
</g>
<!-- Node3&#45;&gt;Node4 -->
<g id="edge3" class="edge"><title>Node3&#45;&gt;Node4</title>
<path fill="none" stroke="midnightblue" d="M545.817,-35C554.478,-35 563.278,-35 571.906,-35"/>
<polygon fill="midnightblue" stroke="midnightblue" points="545.732,-31.5001 535.732,-35 545.732,-38.5001 545.732,-31.5001"/>
</g>
<!-- Node5 -->
<g id="node5" class="node"><title>Node5</title>
<g id="a_node5"><a xlink:href="../../db/ddb/classcontroller_1_1_user_interface.html#a6dd740b89d748c372a5ef9959e1bd7c4" target="_top" xlink:title="controller.UserInterface.\lUserInterface">
<polygon fill="white" stroke="black" points="778.5,-64 778.5,-94 909.5,-94 909.5,-64 778.5,-64"/>
<text text-anchor="start" x="786.5" y="-82" font-family="Helvetica,sans-Serif" font-size="10.00">controller.UserInterface.</text>
<text text-anchor="middle" x="844" y="-71" font-family="Helvetica,sans-Serif" font-size="10.00">UserInterface</text>
</a>
</g>
</g>
<!-- Node4&#45;&gt;Node5 -->
<g id="edge4" class="edge"><title>Node4&#45;&gt;Node5</title>
<path fill="none" stroke="midnightblue" d="M727.07,-52.2936C744.044,-56.204 761.922,-60.3224 778.42,-64.123"/>
<polygon fill="midnightblue" stroke="midnightblue" points="727.728,-48.8535 717.197,-50.0192 726.156,-55.6749 727.728,-48.8535"/>
</g>
<!-- Node6 -->
<g id="node6" class="node"><title>Node6</title>
<g id="a_node6"><a xlink:href="../../db/ddb/classcontroller_1_1_user_interface.html#aad62b84bbc23f683c844ace519feb9d2" target="_top" xlink:title="controller.UserInterface.reset">
<polygon fill="white" stroke="black" points="766,-25.5 766,-44.5 922,-44.5 922,-25.5 766,-25.5"/>
<text text-anchor="middle" x="844" y="-32.5" font-family="Helvetica,sans-Serif" font-size="10.00">controller.UserInterface.reset</text>
</a>
</g>
</g>
<!-- Node4&#45;&gt;Node6 -->
<g id="edge5" class="edge"><title>Node4&#45;&gt;Node6</title>
<path fill="none" stroke="midnightblue" d="M740.495,-35C748.949,-35 757.476,-35 765.81,-35"/>
<polygon fill="midnightblue" stroke="midnightblue" points="740.238,-31.5001 730.238,-35 740.238,-38.5001 740.238,-31.5001"/>
</g>
<!-- Node7 -->
<g id="node7" class="node"><title>Node7</title>
<g id="a_node7"><a xlink:href="../../db/d32/classcontroller_1_1_main_controller.html#a7cfedb8e16c6b9d6394054d03193da82" target="_top" xlink:title="controller.MainController.initialize\lSimulationWithData">
<polygon fill="white" stroke="black" points="958.5,-1 958.5,-31 1131.5,-31 1131.5,-1 958.5,-1"/>
<text text-anchor="start" x="966.5" y="-19" font-family="Helvetica,sans-Serif" font-size="10.00">controller.MainController.initialize</text>
<text text-anchor="middle" x="1045" y="-8" font-family="Helvetica,sans-Serif" font-size="10.00">SimulationWithData</text>
</a>
</g>
</g>
<!-- Node6&#45;&gt;Node7 -->
<g id="edge6" class="edge"><title>Node6&#45;&gt;Node7</title>
<path fill="none" stroke="midnightblue" d="M932.268,-26.6679C940.886,-25.845 949.629,-25.0103 958.232,-24.1889"/>
<polygon fill="midnightblue" stroke="midnightblue" points="931.845,-23.1922 922.223,-27.6269 932.511,-30.1605 931.845,-23.1922"/>
</g>
<!-- Node7&#45;&gt;Node4 -->
<g id="edge7" class="edge"><title>Node7&#45;&gt;Node4</title>
<path fill="none" stroke="midnightblue" d="M948.182,-12.1096C894.52,-10.9063 826.438,-10.998 766,-16 754.402,-16.9599 742.208,-18.4601 730.283,-20.2065"/>
<polygon fill="midnightblue" stroke="midnightblue" points="948.29,-15.6132 958.372,-12.3574 948.46,-8.61523 948.29,-15.6132"/>
</g>
</g>
</svg>
