<?xml version="1.0" encoding="UTF-8" standalone="no"?>
<!DOCTYPE svg PUBLIC "-//W3C//DTD SVG 1.1//EN"
 "http://www.w3.org/Graphics/SVG/1.1/DTD/svg11.dtd">
<!-- Generated by graphviz version 2.36.0 (20140111.2315)
 -->
<!-- Title: controller.Grid.addPatchAtPoint Pages: 1 -->
<svg width="966pt" height="170pt"
 viewBox="0.00 0.00 966.00 170.00" xmlns="http://www.w3.org/2000/svg" xmlns:xlink="http://www.w3.org/1999/xlink">
<g id="graph0" class="graph" transform="scale(1 1) rotate(0) translate(4 166)">
<title>controller.Grid.addPatchAtPoint</title>
<polygon fill="white" stroke="none" points="-4,4 -4,-166 962,-166 962,4 -4,4"/>
<!-- Node1 -->
<g id="node1" class="node"><title>Node1</title>
<polygon fill="#bfbfbf" stroke="black" points="0.5,-50 0.5,-80 131.5,-80 131.5,-50 0.5,-50"/>
<text text-anchor="start" x="8.5" y="-68" font-family="Helvetica,sans-Serif" font-size="10.00">controller.Grid.addPatch</text>
<text text-anchor="middle" x="66" y="-57" font-family="Helvetica,sans-Serif" font-size="10.00">AtPoint</text>
</g>
<!-- Node2 -->
<g id="node2" class="node"><title>Node2</title>
<g id="a_node2"><a xlink:href="../../d7/d97/classcontroller_1_1_grid.html#a52256ef1252a18eab8baeb2edef836d8" target="_top" xlink:title="controller.Grid.addPatch\lToGrid">
<polygon fill="white" stroke="black" points="177.5,-99 177.5,-129 308.5,-129 308.5,-99 177.5,-99"/>
<text text-anchor="start" x="185.5" y="-117" font-family="Helvetica,sans-Serif" font-size="10.00">controller.Grid.addPatch</text>
<text text-anchor="middle" x="243" y="-106" font-family="Helvetica,sans-Serif" font-size="10.00">ToGrid</text>
</a>
</g>
</g>
<!-- Node1&#45;&gt;Node2 -->
<g id="edge1" class="edge"><title>Node1&#45;&gt;Node2</title>
<path fill="none" stroke="midnightblue" d="M120.934,-80.1014C139.15,-85.2019 159.653,-90.9429 178.537,-96.2305"/>
<polygon fill="midnightblue" stroke="midnightblue" points="177.671,-99.6224 188.244,-98.9484 179.558,-92.8817 177.671,-99.6224"/>
</g>
<!-- Node10 -->
<g id="node10" class="node"><title>Node10</title>
<g id="a_node10"><a xlink:href="../../d5/da5/classsimulation_objects_1_1_patch.html#aa905a0fdf2a84eae5e69619a1af300c9" target="_top" xlink:title="simulationObjects.Patch.get\lGridX">
<polygon fill="white" stroke="black" points="168,-50 168,-80 318,-80 318,-50 168,-50"/>
<text text-anchor="start" x="176" y="-68" font-family="Helvetica,sans-Serif" font-size="10.00">simulationObjects.Patch.get</text>
<text text-anchor="middle" x="243" y="-57" font-family="Helvetica,sans-Serif" font-size="10.00">GridX</text>
</a>
</g>
</g>
<!-- Node1&#45;&gt;Node10 -->
<g id="edge9" class="edge"><title>Node1&#45;&gt;Node10</title>
<path fill="none" stroke="midnightblue" d="M131.666,-65C140.134,-65 148.909,-65 157.641,-65"/>
<polygon fill="midnightblue" stroke="midnightblue" points="157.853,-68.5001 167.853,-65 157.853,-61.5001 157.853,-68.5001"/>
</g>
<!-- Node11 -->
<g id="node11" class="node"><title>Node11</title>
<g id="a_node11"><a xlink:href="../../d5/da5/classsimulation_objects_1_1_patch.html#abdbebdfb8cb45838007180c12b5bfe79" target="_top" xlink:title="simulationObjects.Patch.get\lGridY">
<polygon fill="white" stroke="black" points="168,-1 168,-31 318,-31 318,-1 168,-1"/>
<text text-anchor="start" x="176" y="-19" font-family="Helvetica,sans-Serif" font-size="10.00">simulationObjects.Patch.get</text>
<text text-anchor="middle" x="243" y="-8" font-family="Helvetica,sans-Serif" font-size="10.00">GridY</text>
</a>
</g>
</g>
<!-- Node1&#45;&gt;Node11 -->
<g id="edge10" class="edge"><title>Node1&#45;&gt;Node11</title>
<path fill="none" stroke="midnightblue" d="M120.934,-49.8986C139.15,-44.7981 159.653,-39.0571 178.537,-33.7695"/>
<polygon fill="midnightblue" stroke="midnightblue" points="179.558,-37.1183 188.244,-31.0516 177.671,-30.3776 179.558,-37.1183"/>
</g>
<!-- Node3 -->
<g id="node3" class="node"><title>Node3</title>
<g id="a_node3"><a xlink:href="../../d5/da5/classsimulation_objects_1_1_patch.html#a77ec59a5f39498ab6337a9535a6193e0" target="_top" xlink:title="simulationObjects.Patch.createBody">
<polygon fill="white" stroke="black" points="354.5,-104.5 354.5,-123.5 543.5,-123.5 543.5,-104.5 354.5,-104.5"/>
<text text-anchor="middle" x="449" y="-111.5" font-family="Helvetica,sans-Serif" font-size="10.00">simulationObjects.Patch.createBody</text>
</a>
</g>
</g>
<!-- Node2&#45;&gt;Node3 -->
<g id="edge2" class="edge"><title>Node2&#45;&gt;Node3</title>
<path fill="none" stroke="midnightblue" d="M308.547,-114C319.946,-114 332.07,-114 344.228,-114"/>
<polygon fill="midnightblue" stroke="midnightblue" points="344.433,-117.5 354.433,-114 344.433,-110.5 344.433,-117.5"/>
</g>
<!-- Node4 -->
<g id="node4" class="node"><title>Node4</title>
<g id="a_node4"><a xlink:href="../../d7/d97/classcontroller_1_1_grid.html#a61d4b46bec1a6a3c7f277736e6293252" target="_top" xlink:title="controller.Grid.getGridHeight">
<polygon fill="white" stroke="black" points="587.5,-142.5 587.5,-161.5 740.5,-161.5 740.5,-142.5 587.5,-142.5"/>
<text text-anchor="middle" x="664" y="-149.5" font-family="Helvetica,sans-Serif" font-size="10.00">controller.Grid.getGridHeight</text>
</a>
</g>
</g>
<!-- Node3&#45;&gt;Node4 -->
<g id="edge3" class="edge"><title>Node3&#45;&gt;Node4</title>
<path fill="none" stroke="midnightblue" d="M503.474,-123.54C532.592,-128.735 568.811,-135.196 599.374,-140.649"/>
<polygon fill="midnightblue" stroke="midnightblue" points="599.045,-144.145 609.504,-142.456 600.274,-137.254 599.045,-144.145"/>
</g>
<!-- Node5 -->
<g id="node5" class="node"><title>Node5</title>
<g id="a_node5"><a xlink:href="../../d7/d97/classcontroller_1_1_grid.html#a07b690d056f74953ade8dc5e762341d7" target="_top" xlink:title="controller.Grid.getGridWidth">
<polygon fill="white" stroke="black" points="590,-104.5 590,-123.5 738,-123.5 738,-104.5 590,-104.5"/>
<text text-anchor="middle" x="664" y="-111.5" font-family="Helvetica,sans-Serif" font-size="10.00">controller.Grid.getGridWidth</text>
</a>
</g>
</g>
<!-- Node3&#45;&gt;Node5 -->
<g id="edge4" class="edge"><title>Node3&#45;&gt;Node5</title>
<path fill="none" stroke="midnightblue" d="M543.735,-114C555.648,-114 567.777,-114 579.514,-114"/>
<polygon fill="midnightblue" stroke="midnightblue" points="579.713,-117.5 589.713,-114 579.713,-110.5 579.713,-117.5"/>
</g>
<!-- Node6 -->
<g id="node6" class="node"><title>Node6</title>
<g id="a_node6"><a xlink:href="../../d5/da5/classsimulation_objects_1_1_patch.html#a06f00537a57f3678cf147c580b92de0d" target="_top" xlink:title="simulationObjects.Patch.update\lCellConstraints">
<polygon fill="white" stroke="black" points="580,-55 580,-85 748,-85 748,-55 580,-55"/>
<text text-anchor="start" x="588" y="-73" font-family="Helvetica,sans-Serif" font-size="10.00">simulationObjects.Patch.update</text>
<text text-anchor="middle" x="664" y="-62" font-family="Helvetica,sans-Serif" font-size="10.00">CellConstraints</text>
</a>
</g>
</g>
<!-- Node3&#45;&gt;Node6 -->
<g id="edge5" class="edge"><title>Node3&#45;&gt;Node6</title>
<path fill="none" stroke="midnightblue" d="M496.218,-104.453C520.734,-99.3882 551.606,-93.011 580.103,-87.1242"/>
<polygon fill="midnightblue" stroke="midnightblue" points="580.985,-90.5161 590.07,-85.0654 579.569,-83.6608 580.985,-90.5161"/>
</g>
<!-- Node7 -->
<g id="node7" class="node"><title>Node7</title>
<g id="a_node7"><a xlink:href="../../d0/d1a/classsimulation_objects_1_1_patch_body.html#a466dadbe30fb2f8360163881e0db9295" target="_top" xlink:title="simulationObjects.PatchBody.get\lPatchWidth">
<polygon fill="white" stroke="black" points="784.5,-104 784.5,-134 957.5,-134 957.5,-104 784.5,-104"/>
<text text-anchor="start" x="792.5" y="-122" font-family="Helvetica,sans-Serif" font-size="10.00">simulationObjects.PatchBody.get</text>
<text text-anchor="middle" x="871" y="-111" font-family="Helvetica,sans-Serif" font-size="10.00">PatchWidth</text>
</a>
</g>
</g>
<!-- Node6&#45;&gt;Node7 -->
<g id="edge6" class="edge"><title>Node6&#45;&gt;Node7</title>
<path fill="none" stroke="midnightblue" d="M727.9,-85.0346C749.84,-90.2789 774.641,-96.2069 797.311,-101.626"/>
<polygon fill="midnightblue" stroke="midnightblue" points="796.679,-105.073 807.219,-103.994 798.307,-98.2649 796.679,-105.073"/>
</g>
<!-- Node8 -->
<g id="node8" class="node"><title>Node8</title>
<g id="a_node8"><a xlink:href="../../d0/d1a/classsimulation_objects_1_1_patch_body.html#a7be1762ade4eaee79c26ac524eb97f33" target="_top" xlink:title="simulationObjects.PatchBody.get\lCenter">
<polygon fill="white" stroke="black" points="784.5,-55 784.5,-85 957.5,-85 957.5,-55 784.5,-55"/>
<text text-anchor="start" x="792.5" y="-73" font-family="Helvetica,sans-Serif" font-size="10.00">simulationObjects.PatchBody.get</text>
<text text-anchor="middle" x="871" y="-62" font-family="Helvetica,sans-Serif" font-size="10.00">Center</text>
</a>
</g>
</g>
<!-- Node6&#45;&gt;Node8 -->
<g id="edge7" class="edge"><title>Node6&#45;&gt;Node8</title>
<path fill="none" stroke="midnightblue" d="M748.086,-70C756.701,-70 765.507,-70 774.246,-70"/>
<polygon fill="midnightblue" stroke="midnightblue" points="774.46,-73.5001 784.46,-70 774.46,-66.5001 774.46,-73.5001"/>
</g>
<!-- Node9 -->
<g id="node9" class="node"><title>Node9</title>
<g id="a_node9"><a xlink:href="../../d0/d1a/classsimulation_objects_1_1_patch_body.html#a268e88a7cb1f5feb98f49e230475c2ba" target="_top" xlink:title="simulationObjects.PatchBody.get\lPatchHeight">
<polygon fill="white" stroke="black" points="784.5,-6 784.5,-36 957.5,-36 957.5,-6 784.5,-6"/>
<text text-anchor="start" x="792.5" y="-24" font-family="Helvetica,sans-Serif" font-size="10.00">simulationObjects.PatchBody.get</text>
<text text-anchor="middle" x="871" y="-13" font-family="Helvetica,sans-Serif" font-size="10.00">PatchHeight</text>
</a>
</g>
</g>
<!-- Node6&#45;&gt;Node9 -->
<g id="edge8" class="edge"><title>Node6&#45;&gt;Node9</title>
<path fill="none" stroke="midnightblue" d="M727.9,-54.9654C749.84,-49.7211 774.641,-43.7931 797.311,-38.3745"/>
<polygon fill="midnightblue" stroke="midnightblue" points="798.307,-41.7351 807.219,-36.0062 796.679,-34.9269 798.307,-41.7351"/>
</g>
</g>
</svg>
