<?xml version="1.0" encoding="UTF-8" standalone="no"?>
<!DOCTYPE svg PUBLIC "-//W3C//DTD SVG 1.1//EN"
 "http://www.w3.org/Graphics/SVG/1.1/DTD/svg11.dtd">
<!-- Generated by graphviz version 2.36.0 (20140111.2315)
 -->
<!-- Title: controller.Grid.getPatchAtCoordinate Pages: 1 -->
<svg width="1366pt" height="77pt"
 viewBox="0.00 0.00 1366.00 77.00" xmlns="http://www.w3.org/2000/svg" xmlns:xlink="http://www.w3.org/1999/xlink">
<g id="graph0" class="graph" transform="scale(1 1) rotate(0) translate(4 73)">
<title>controller.Grid.getPatchAtCoordinate</title>
<polygon fill="white" stroke="none" points="-4,4 -4,-73 1362,-73 1362,4 -4,4"/>
<!-- Node1 -->
<g id="node1" class="node"><title>Node1</title>
<polygon fill="#bfbfbf" stroke="black" points="0,-17 0,-47 128,-47 128,-17 0,-17"/>
<text text-anchor="start" x="8" y="-35" font-family="Helvetica,sans-Serif" font-size="10.00">controller.Grid.getPatch</text>
<text text-anchor="middle" x="64" y="-24" font-family="Helvetica,sans-Serif" font-size="10.00">AtCoordinate</text>
</g>
<!-- Node2 -->
<g id="node2" class="node"><title>Node2</title>
<g id="a_node2"><a xlink:href="../../db/d32/classcontroller_1_1_main_controller.html#a20c66a59cfde2b9f8ac2b8bf67e3996d" target="_top" xlink:title="controller.MainController.toggle\lCellStateForMouseEvent">
<polygon fill="white" stroke="black" points="164.5,-17 164.5,-47 329.5,-47 329.5,-17 164.5,-17"/>
<text text-anchor="start" x="172.5" y="-35" font-family="Helvetica,sans-Serif" font-size="10.00">controller.MainController.toggle</text>
<text text-anchor="middle" x="247" y="-24" font-family="Helvetica,sans-Serif" font-size="10.00">CellStateForMouseEvent</text>
</a>
</g>
</g>
<!-- Node1&#45;&gt;Node2 -->
<g id="edge1" class="edge"><title>Node1&#45;&gt;Node2</title>
<path fill="none" stroke="midnightblue" d="M138.092,-32C146.749,-32 155.626,-32 164.392,-32"/>
<polygon fill="midnightblue" stroke="midnightblue" points="138.051,-28.5001 128.051,-32 138.051,-35.5001 138.051,-28.5001"/>
</g>
<!-- Node3 -->
<g id="node3" class="node"><title>Node3</title>
<g id="a_node3"><a xlink:href="../../db/d32/classcontroller_1_1_main_controller.html#ad28f21e1510291d95a69a9f488a20d89" target="_top" xlink:title="controller.MainController.createGrid">
<polygon fill="white" stroke="black" points="366.5,-22.5 366.5,-41.5 551.5,-41.5 551.5,-22.5 366.5,-22.5"/>
<text text-anchor="middle" x="459" y="-29.5" font-family="Helvetica,sans-Serif" font-size="10.00">controller.MainController.createGrid</text>
</a>
</g>
</g>
<!-- Node2&#45;&gt;Node3 -->
<g id="edge2" class="edge"><title>Node2&#45;&gt;Node3</title>
<path fill="none" stroke="midnightblue" d="M339.984,-32C348.726,-32 357.591,-32 366.33,-32"/>
<polygon fill="midnightblue" stroke="midnightblue" points="339.793,-28.5001 329.793,-32 339.793,-35.5001 339.793,-28.5001"/>
</g>
<!-- Node4 -->
<g id="node4" class="node"><title>Node4</title>
<g id="a_node4"><a xlink:href="../../db/d32/classcontroller_1_1_main_controller.html#aecc10abc6b55d8b0b4bd152be5c5d3f0" target="_top" xlink:title="controller.MainController.initialize\lSimulationObjects">
<polygon fill="white" stroke="black" points="588.5,-17 588.5,-47 761.5,-47 761.5,-17 588.5,-17"/>
<text text-anchor="start" x="596.5" y="-35" font-family="Helvetica,sans-Serif" font-size="10.00">controller.MainController.initialize</text>
<text text-anchor="middle" x="675" y="-24" font-family="Helvetica,sans-Serif" font-size="10.00">SimulationObjects</text>
</a>
</g>
</g>
<!-- Node3&#45;&gt;Node4 -->
<g id="edge3" class="edge"><title>Node3&#45;&gt;Node4</title>
<path fill="none" stroke="midnightblue" d="M561.691,-32C570.582,-32 579.522,-32 588.265,-32"/>
<polygon fill="midnightblue" stroke="midnightblue" points="561.687,-28.5001 551.687,-32 561.687,-35.5001 561.687,-28.5001"/>
</g>
<!-- Node5 -->
<g id="node5" class="node"><title>Node5</title>
<g id="a_node5"><a xlink:href="../../db/d32/classcontroller_1_1_main_controller.html#a7cfedb8e16c6b9d6394054d03193da82" target="_top" xlink:title="controller.MainController.initialize\lSimulationWithData">
<polygon fill="white" stroke="black" points="798.5,-17 798.5,-47 971.5,-47 971.5,-17 798.5,-17"/>
<text text-anchor="start" x="806.5" y="-35" font-family="Helvetica,sans-Serif" font-size="10.00">controller.MainController.initialize</text>
<text text-anchor="middle" x="885" y="-24" font-family="Helvetica,sans-Serif" font-size="10.00">SimulationWithData</text>
</a>
</g>
</g>
<!-- Node4&#45;&gt;Node5 -->
<g id="edge4" class="edge"><title>Node4&#45;&gt;Node5</title>
<path fill="none" stroke="midnightblue" d="M771.585,-32C780.561,-32 789.62,-32 798.494,-32"/>
<polygon fill="midnightblue" stroke="midnightblue" points="771.502,-28.5001 761.502,-32 771.502,-35.5001 771.502,-28.5001"/>
</g>
<!-- Node6 -->
<g id="node6" class="node"><title>Node6</title>
<g id="a_node6"><a xlink:href="../../db/ddb/classcontroller_1_1_user_interface.html#a9cf1e21253003993661082c9d42926b2" target="_top" xlink:title="controller.UserInterface.make\lBottomPanel">
<polygon fill="white" stroke="black" points="1008,-39 1008,-69 1166,-69 1166,-39 1008,-39"/>
<text text-anchor="start" x="1016" y="-57" font-family="Helvetica,sans-Serif" font-size="10.00">controller.UserInterface.make</text>
<text text-anchor="middle" x="1087" y="-46" font-family="Helvetica,sans-Serif" font-size="10.00">BottomPanel</text>
</a>
</g>
</g>
<!-- Node5&#45;&gt;Node6 -->
<g id="edge5" class="edge"><title>Node5&#45;&gt;Node6</title>
<path fill="none" stroke="midnightblue" d="M981.848,-42.5432C990.532,-43.4985 999.257,-44.4583 1007.76,-45.3939"/>
<polygon fill="midnightblue" stroke="midnightblue" points="982.011,-39.0402 971.688,-41.4257 981.246,-45.9982 982.011,-39.0402"/>
</g>
<!-- Node7 -->
<g id="node7" class="node"><title>Node7</title>
<g id="a_node7"><a xlink:href="../../db/ddb/classcontroller_1_1_user_interface.html#a6dd740b89d748c372a5ef9959e1bd7c4" target="_top" xlink:title="controller.UserInterface.\lUserInterface">
<polygon fill="white" stroke="black" points="1214.5,-39 1214.5,-69 1345.5,-69 1345.5,-39 1214.5,-39"/>
<text text-anchor="start" x="1222.5" y="-57" font-family="Helvetica,sans-Serif" font-size="10.00">controller.UserInterface.</text>
<text text-anchor="middle" x="1280" y="-46" font-family="Helvetica,sans-Serif" font-size="10.00">UserInterface</text>
</a>
</g>
</g>
<!-- Node6&#45;&gt;Node7 -->
<g id="edge6" class="edge"><title>Node6&#45;&gt;Node7</title>
<path fill="none" stroke="midnightblue" d="M1176.41,-54C1189.17,-54 1202.1,-54 1214.27,-54"/>
<polygon fill="midnightblue" stroke="midnightblue" points="1176.24,-50.5001 1166.24,-54 1176.24,-57.5001 1176.24,-50.5001"/>
</g>
<!-- Node8 -->
<g id="node8" class="node"><title>Node8</title>
<g id="a_node8"><a xlink:href="../../db/ddb/classcontroller_1_1_user_interface.html#aad62b84bbc23f683c844ace519feb9d2" target="_top" xlink:title="controller.UserInterface.reset">
<polygon fill="white" stroke="black" points="1202,-0.5 1202,-19.5 1358,-19.5 1358,-0.5 1202,-0.5"/>
<text text-anchor="middle" x="1280" y="-7.5" font-family="Helvetica,sans-Serif" font-size="10.00">controller.UserInterface.reset</text>
</a>
</g>
</g>
<!-- Node6&#45;&gt;Node8 -->
<g id="edge7" class="edge"><title>Node6&#45;&gt;Node8</title>
<path fill="none" stroke="midnightblue" d="M1163.18,-36.6813C1188.56,-30.8352 1215.94,-24.5268 1237.71,-19.5124"/>
<polygon fill="midnightblue" stroke="midnightblue" points="1162.16,-33.3251 1153.2,-38.9808 1163.73,-40.1465 1162.16,-33.3251"/>
</g>
<!-- Node8&#45;&gt;Node5 -->
<g id="edge8" class="edge"><title>Node8&#45;&gt;Node5</title>
<path fill="none" stroke="midnightblue" d="M1191.44,-14.9014C1125.94,-18.5682 1036.83,-23.5569 971.76,-27.1992"/>
<polygon fill="midnightblue" stroke="midnightblue" points="1191.96,-18.3782 1201.75,-14.3246 1191.57,-11.3891 1191.96,-18.3782"/>
</g>
</g>
</svg>
