<?xml version="1.0" encoding="UTF-8" standalone="no"?>
<!DOCTYPE svg PUBLIC "-//W3C//DTD SVG 1.1//EN"
 "http://www.w3.org/Graphics/SVG/1.1/DTD/svg11.dtd">
<!-- Generated by graphviz version 2.36.0 (20140111.2315)
 -->
<!-- Title: controller.Grid.setPatchBody Pages: 1 -->
<svg width="756pt" height="102pt"
 viewBox="0.00 0.00 756.00 102.00" xmlns="http://www.w3.org/2000/svg" xmlns:xlink="http://www.w3.org/1999/xlink">
<g id="graph0" class="graph" transform="scale(1 1) rotate(0) translate(4 98)">
<title>controller.Grid.setPatchBody</title>
<polygon fill="white" stroke="none" points="-4,4 -4,-98 752,-98 752,4 -4,4"/>
<!-- Node1 -->
<g id="node1" class="node"><title>Node1</title>
<polygon fill="#bfbfbf" stroke="black" points="0,-25.5 0,-44.5 152,-44.5 152,-25.5 0,-25.5"/>
<text text-anchor="middle" x="76" y="-32.5" font-family="Helvetica,sans-Serif" font-size="10.00">controller.Grid.setPatchBody</text>
</g>
<!-- Node2 -->
<g id="node2" class="node"><title>Node2</title>
<g id="a_node2"><a xlink:href="../../db/ddb/classcontroller_1_1_user_interface.html#a9cf1e21253003993661082c9d42926b2" target="_top" xlink:title="controller.UserInterface.make\lBottomPanel">
<polygon fill="white" stroke="black" points="188,-20 188,-50 346,-50 346,-20 188,-20"/>
<text text-anchor="start" x="196" y="-38" font-family="Helvetica,sans-Serif" font-size="10.00">controller.UserInterface.make</text>
<text text-anchor="middle" x="267" y="-27" font-family="Helvetica,sans-Serif" font-size="10.00">BottomPanel</text>
</a>
</g>
</g>
<!-- Node1&#45;&gt;Node2 -->
<g id="edge1" class="edge"><title>Node1&#45;&gt;Node2</title>
<path fill="none" stroke="midnightblue" d="M162.503,-35C170.97,-35 179.535,-35 187.922,-35"/>
<polygon fill="midnightblue" stroke="midnightblue" points="162.241,-31.5001 152.241,-35 162.241,-38.5001 162.241,-31.5001"/>
</g>
<!-- Node3 -->
<g id="node3" class="node"><title>Node3</title>
<g id="a_node3"><a xlink:href="../../db/ddb/classcontroller_1_1_user_interface.html#a6dd740b89d748c372a5ef9959e1bd7c4" target="_top" xlink:title="controller.UserInterface.\lUserInterface">
<polygon fill="white" stroke="black" points="394.5,-64 394.5,-94 525.5,-94 525.5,-64 394.5,-64"/>
<text text-anchor="start" x="402.5" y="-82" font-family="Helvetica,sans-Serif" font-size="10.00">controller.UserInterface.</text>
<text text-anchor="middle" x="460" y="-71" font-family="Helvetica,sans-Serif" font-size="10.00">UserInterface</text>
</a>
</g>
</g>
<!-- Node2&#45;&gt;Node3 -->
<g id="edge2" class="edge"><title>Node2&#45;&gt;Node3</title>
<path fill="none" stroke="midnightblue" d="M343.07,-52.2936C360.044,-56.204 377.922,-60.3224 394.42,-64.123"/>
<polygon fill="midnightblue" stroke="midnightblue" points="343.728,-48.8535 333.197,-50.0192 342.156,-55.6749 343.728,-48.8535"/>
</g>
<!-- Node4 -->
<g id="node4" class="node"><title>Node4</title>
<g id="a_node4"><a xlink:href="../../db/ddb/classcontroller_1_1_user_interface.html#aad62b84bbc23f683c844ace519feb9d2" target="_top" xlink:title="controller.UserInterface.reset">
<polygon fill="white" stroke="black" points="382,-25.5 382,-44.5 538,-44.5 538,-25.5 382,-25.5"/>
<text text-anchor="middle" x="460" y="-32.5" font-family="Helvetica,sans-Serif" font-size="10.00">controller.UserInterface.reset</text>
</a>
</g>
</g>
<!-- Node2&#45;&gt;Node4 -->
<g id="edge3" class="edge"><title>Node2&#45;&gt;Node4</title>
<path fill="none" stroke="midnightblue" d="M356.495,-35C364.949,-35 373.476,-35 381.81,-35"/>
<polygon fill="midnightblue" stroke="midnightblue" points="356.238,-31.5001 346.238,-35 356.238,-38.5001 356.238,-31.5001"/>
</g>
<!-- Node5 -->
<g id="node5" class="node"><title>Node5</title>
<g id="a_node5"><a xlink:href="../../db/d32/classcontroller_1_1_main_controller.html#a7cfedb8e16c6b9d6394054d03193da82" target="_top" xlink:title="controller.MainController.initialize\lSimulationWithData">
<polygon fill="white" stroke="black" points="574.5,-1 574.5,-31 747.5,-31 747.5,-1 574.5,-1"/>
<text text-anchor="start" x="582.5" y="-19" font-family="Helvetica,sans-Serif" font-size="10.00">controller.MainController.initialize</text>
<text text-anchor="middle" x="661" y="-8" font-family="Helvetica,sans-Serif" font-size="10.00">SimulationWithData</text>
</a>
</g>
</g>
<!-- Node4&#45;&gt;Node5 -->
<g id="edge4" class="edge"><title>Node4&#45;&gt;Node5</title>
<path fill="none" stroke="midnightblue" d="M548.268,-26.6679C556.886,-25.845 565.629,-25.0103 574.232,-24.1889"/>
<polygon fill="midnightblue" stroke="midnightblue" points="547.845,-23.1922 538.223,-27.6269 548.511,-30.1605 547.845,-23.1922"/>
</g>
<!-- Node5&#45;&gt;Node2 -->
<g id="edge5" class="edge"><title>Node5&#45;&gt;Node2</title>
<path fill="none" stroke="midnightblue" d="M564.182,-12.1096C510.52,-10.9063 442.438,-10.998 382,-16 370.402,-16.9599 358.208,-18.4601 346.283,-20.2065"/>
<polygon fill="midnightblue" stroke="midnightblue" points="564.29,-15.6132 574.372,-12.3574 564.46,-8.61523 564.29,-15.6132"/>
</g>
</g>
</svg>
