<?xml version="1.0" encoding="UTF-8" standalone="no"?>
<!DOCTYPE svg PUBLIC "-//W3C//DTD SVG 1.1//EN"
 "http://www.w3.org/Graphics/SVG/1.1/DTD/svg11.dtd">
<!-- Generated by graphviz version 2.36.0 (20140111.2315)
 -->
<!-- Title: controller.Grid.getPatchAtPoint Pages: 1 -->
<svg width="350pt" height="87pt"
 viewBox="0.00 0.00 350.00 87.00" xmlns="http://www.w3.org/2000/svg" xmlns:xlink="http://www.w3.org/1999/xlink">
<g id="graph0" class="graph" transform="scale(1 1) rotate(0) translate(4 83)">
<title>controller.Grid.getPatchAtPoint</title>
<polygon fill="white" stroke="none" points="-4,4 -4,-83 346,-83 346,4 -4,4"/>
<!-- Node1 -->
<g id="node1" class="node"><title>Node1</title>
<polygon fill="#bfbfbf" stroke="black" points="0,-24 0,-54 128,-54 128,-24 0,-24"/>
<text text-anchor="start" x="8" y="-42" font-family="Helvetica,sans-Serif" font-size="10.00">controller.Grid.getPatch</text>
<text text-anchor="middle" x="64" y="-31" font-family="Helvetica,sans-Serif" font-size="10.00">AtPoint</text>
</g>
<!-- Node2 -->
<g id="node2" class="node"><title>Node2</title>
<g id="a_node2"><a xlink:href="../../d4/d5d/classcontroller_1_1_default_edge_rules.html#ad9e490a75cf28313fb5c0e291fa49058" target="_top" xlink:title="controller.DefaultEdgeRules.apply\lRulesAndGetNeighbors">
<polygon fill="white" stroke="black" points="165,-49 165,-79 341,-79 341,-49 165,-49"/>
<text text-anchor="start" x="173" y="-67" font-family="Helvetica,sans-Serif" font-size="10.00">controller.DefaultEdgeRules.apply</text>
<text text-anchor="middle" x="253" y="-56" font-family="Helvetica,sans-Serif" font-size="10.00">RulesAndGetNeighbors</text>
</a>
</g>
</g>
<!-- Node1&#45;&gt;Node2 -->
<g id="edge1" class="edge"><title>Node1&#45;&gt;Node2</title>
<path fill="none" stroke="midnightblue" d="M138.224,-48.7893C147.006,-49.9634 156.039,-51.171 164.993,-52.368"/>
<polygon fill="midnightblue" stroke="midnightblue" points="138.425,-45.2851 128.049,-47.429 137.497,-52.2233 138.425,-45.2851"/>
</g>
<!-- Node3 -->
<g id="node3" class="node"><title>Node3</title>
<g id="a_node3"><a xlink:href="../../d2/d45/classcontroller_1_1_toroidal_edge_rules.html#ab87a6582c7cb8251d87c040d37d684af" target="_top" xlink:title="controller.ToroidalEdgeRules.apply\lRulesAndGetNeighbors">
<polygon fill="white" stroke="black" points="164.5,-0 164.5,-30 341.5,-30 341.5,-0 164.5,-0"/>
<text text-anchor="start" x="172.5" y="-18" font-family="Helvetica,sans-Serif" font-size="10.00">controller.ToroidalEdgeRules.apply</text>
<text text-anchor="middle" x="253" y="-7" font-family="Helvetica,sans-Serif" font-size="10.00">RulesAndGetNeighbors</text>
</a>
</g>
</g>
<!-- Node1&#45;&gt;Node3 -->
<g id="edge2" class="edge"><title>Node1&#45;&gt;Node3</title>
<path fill="none" stroke="midnightblue" d="M138.04,-29.6259C146.662,-28.5193 155.528,-27.3814 164.325,-26.2524"/>
<polygon fill="midnightblue" stroke="midnightblue" points="137.522,-26.1636 128.049,-30.9082 138.413,-33.1066 137.522,-26.1636"/>
</g>
</g>
</svg>
