<?xml version="1.0" encoding="UTF-8" standalone="no"?>
<!DOCTYPE svg PUBLIC "-//W3C//DTD SVG 1.1//EN"
 "http://www.w3.org/Graphics/SVG/1.1/DTD/svg11.dtd">
<!-- Generated by graphviz version 2.36.0 (20140111.2315)
 -->
<!-- Title: controller.Grid.findEmptyPatch Pages: 1 -->
<svg width="542pt" height="38pt"
 viewBox="0.00 0.00 542.00 38.00" xmlns="http://www.w3.org/2000/svg" xmlns:xlink="http://www.w3.org/1999/xlink">
<g id="graph0" class="graph" transform="scale(1 1) rotate(0) translate(4 34)">
<title>controller.Grid.findEmptyPatch</title>
<polygon fill="white" stroke="none" points="-4,4 -4,-34 538,-34 538,4 -4,4"/>
<!-- Node1 -->
<g id="node1" class="node"><title>Node1</title>
<polygon fill="#bfbfbf" stroke="black" points="0,-0 0,-30 134,-30 134,-0 0,-0"/>
<text text-anchor="start" x="8" y="-18" font-family="Helvetica,sans-Serif" font-size="10.00">controller.Grid.findEmpty</text>
<text text-anchor="middle" x="67" y="-7" font-family="Helvetica,sans-Serif" font-size="10.00">Patch</text>
</g>
<!-- Node2 -->
<g id="node2" class="node"><title>Node2</title>
<g id="a_node2"><a xlink:href="../../d5/da5/classsimulation_objects_1_1_patch.html#a300c3a7c9ec3846d49b77af3fb7a6110" target="_top" xlink:title="simulationObjects.Patch.get\lRandomEmptyPatch">
<polygon fill="white" stroke="black" points="170,-0 170,-30 320,-30 320,-0 170,-0"/>
<text text-anchor="start" x="178" y="-18" font-family="Helvetica,sans-Serif" font-size="10.00">simulationObjects.Patch.get</text>
<text text-anchor="middle" x="245" y="-7" font-family="Helvetica,sans-Serif" font-size="10.00">RandomEmptyPatch</text>
</a>
</g>
</g>
<!-- Node1&#45;&gt;Node2 -->
<g id="edge1" class="edge"><title>Node1&#45;&gt;Node2</title>
<path fill="none" stroke="midnightblue" d="M144.304,-15C152.799,-15 161.443,-15 169.91,-15"/>
<polygon fill="midnightblue" stroke="midnightblue" points="144.037,-11.5001 134.037,-15 144.037,-18.5001 144.037,-11.5001"/>
</g>
<!-- Node3 -->
<g id="node3" class="node"><title>Node3</title>
<g id="a_node3"><a xlink:href="../../db/d5f/classsimulation_objects_1_1_seg_cell.html#a9d7bc36bf15d97456e59afed1a19e460" target="_top" xlink:title="simulationObjects.SegCell.update">
<polygon fill="white" stroke="black" points="356,-5.5 356,-24.5 534,-24.5 534,-5.5 356,-5.5"/>
<text text-anchor="middle" x="445" y="-12.5" font-family="Helvetica,sans-Serif" font-size="10.00">simulationObjects.SegCell.update</text>
</a>
</g>
</g>
<!-- Node2&#45;&gt;Node3 -->
<g id="edge2" class="edge"><title>Node2&#45;&gt;Node3</title>
<path fill="none" stroke="midnightblue" d="M330.213,-15C338.652,-15 347.237,-15 355.716,-15"/>
<polygon fill="midnightblue" stroke="midnightblue" points="330.009,-11.5001 320.009,-15 330.009,-18.5001 330.009,-11.5001"/>
</g>
</g>
</svg>
