<?xml version="1.0" encoding="UTF-8" standalone="no"?>
<!DOCTYPE svg PUBLIC "-//W3C//DTD SVG 1.1//EN"
 "http://www.w3.org/Graphics/SVG/1.1/DTD/svg11.dtd">
<!-- Generated by graphviz version 2.36.0 (20140111.2315)
 -->
<!-- Title: controller.Grid.updateAllPatches Pages: 1 -->
<svg width="1104pt" height="102pt"
 viewBox="0.00 0.00 1104.00 102.00" xmlns="http://www.w3.org/2000/svg" xmlns:xlink="http://www.w3.org/1999/xlink">
<g id="graph0" class="graph" transform="scale(1 1) rotate(0) translate(4 98)">
<title>controller.Grid.updateAllPatches</title>
<polygon fill="white" stroke="none" points="-4,4 -4,-98 1100,-98 1100,4 -4,4"/>
<!-- Node1 -->
<g id="node1" class="node"><title>Node1</title>
<polygon fill="#bfbfbf" stroke="black" points="0.5,-20 0.5,-50 131.5,-50 131.5,-20 0.5,-20"/>
<text text-anchor="start" x="8.5" y="-38" font-family="Helvetica,sans-Serif" font-size="10.00">controller.Grid.updateAll</text>
<text text-anchor="middle" x="66" y="-27" font-family="Helvetica,sans-Serif" font-size="10.00">Patches</text>
</g>
<!-- Node2 -->
<g id="node2" class="node"><title>Node2</title>
<g id="a_node2"><a xlink:href="../../d7/d97/classcontroller_1_1_grid.html#a9d953304e003d02db9447cd636efce3a" target="_top" xlink:title="controller.Grid.updateGrid">
<polygon fill="white" stroke="black" points="168,-25.5 168,-44.5 308,-44.5 308,-25.5 168,-25.5"/>
<text text-anchor="middle" x="238" y="-32.5" font-family="Helvetica,sans-Serif" font-size="10.00">controller.Grid.updateGrid</text>
</a>
</g>
</g>
<!-- Node1&#45;&gt;Node2 -->
<g id="edge1" class="edge"><title>Node1&#45;&gt;Node2</title>
<path fill="none" stroke="midnightblue" d="M141.84,-35C150.506,-35 159.314,-35 167.899,-35"/>
<polygon fill="midnightblue" stroke="midnightblue" points="141.755,-31.5001 131.755,-35 141.755,-38.5001 141.755,-31.5001"/>
</g>
<!-- Node3 -->
<g id="node3" class="node"><title>Node3</title>
<g id="a_node3"><a xlink:href="../../db/d32/classcontroller_1_1_main_controller.html#a73545baf8abf0781ade4a83269de344e" target="_top" xlink:title="controller.MainController.step\lSimulation">
<polygon fill="white" stroke="black" points="344,-20 344,-50 500,-50 500,-20 344,-20"/>
<text text-anchor="start" x="352" y="-38" font-family="Helvetica,sans-Serif" font-size="10.00">controller.MainController.step</text>
<text text-anchor="middle" x="422" y="-27" font-family="Helvetica,sans-Serif" font-size="10.00">Simulation</text>
</a>
</g>
</g>
<!-- Node2&#45;&gt;Node3 -->
<g id="edge2" class="edge"><title>Node2&#45;&gt;Node3</title>
<path fill="none" stroke="midnightblue" d="M318.29,-35C326.744,-35 335.334,-35 343.764,-35"/>
<polygon fill="midnightblue" stroke="midnightblue" points="318.066,-31.5001 308.066,-35 318.066,-38.5001 318.066,-31.5001"/>
</g>
<!-- Node4 -->
<g id="node4" class="node"><title>Node4</title>
<g id="a_node4"><a xlink:href="../../db/ddb/classcontroller_1_1_user_interface.html#a9cf1e21253003993661082c9d42926b2" target="_top" xlink:title="controller.UserInterface.make\lBottomPanel">
<polygon fill="white" stroke="black" points="536,-20 536,-50 694,-50 694,-20 536,-20"/>
<text text-anchor="start" x="544" y="-38" font-family="Helvetica,sans-Serif" font-size="10.00">controller.UserInterface.make</text>
<text text-anchor="middle" x="615" y="-27" font-family="Helvetica,sans-Serif" font-size="10.00">BottomPanel</text>
</a>
</g>
</g>
<!-- Node3&#45;&gt;Node4 -->
<g id="edge3" class="edge"><title>Node3&#45;&gt;Node4</title>
<path fill="none" stroke="midnightblue" d="M510.171,-35C518.768,-35 527.456,-35 535.954,-35"/>
<polygon fill="midnightblue" stroke="midnightblue" points="510.136,-31.5001 500.136,-35 510.136,-38.5001 510.136,-31.5001"/>
</g>
<!-- Node5 -->
<g id="node5" class="node"><title>Node5</title>
<g id="a_node5"><a xlink:href="../../db/ddb/classcontroller_1_1_user_interface.html#a6dd740b89d748c372a5ef9959e1bd7c4" target="_top" xlink:title="controller.UserInterface.\lUserInterface">
<polygon fill="white" stroke="black" points="742.5,-64 742.5,-94 873.5,-94 873.5,-64 742.5,-64"/>
<text text-anchor="start" x="750.5" y="-82" font-family="Helvetica,sans-Serif" font-size="10.00">controller.UserInterface.</text>
<text text-anchor="middle" x="808" y="-71" font-family="Helvetica,sans-Serif" font-size="10.00">UserInterface</text>
</a>
</g>
</g>
<!-- Node4&#45;&gt;Node5 -->
<g id="edge4" class="edge"><title>Node4&#45;&gt;Node5</title>
<path fill="none" stroke="midnightblue" d="M691.07,-52.2936C708.044,-56.204 725.922,-60.3224 742.42,-64.123"/>
<polygon fill="midnightblue" stroke="midnightblue" points="691.728,-48.8535 681.197,-50.0192 690.156,-55.6749 691.728,-48.8535"/>
</g>
<!-- Node6 -->
<g id="node6" class="node"><title>Node6</title>
<g id="a_node6"><a xlink:href="../../db/ddb/classcontroller_1_1_user_interface.html#aad62b84bbc23f683c844ace519feb9d2" target="_top" xlink:title="controller.UserInterface.reset">
<polygon fill="white" stroke="black" points="730,-25.5 730,-44.5 886,-44.5 886,-25.5 730,-25.5"/>
<text text-anchor="middle" x="808" y="-32.5" font-family="Helvetica,sans-Serif" font-size="10.00">controller.UserInterface.reset</text>
</a>
</g>
</g>
<!-- Node4&#45;&gt;Node6 -->
<g id="edge5" class="edge"><title>Node4&#45;&gt;Node6</title>
<path fill="none" stroke="midnightblue" d="M704.495,-35C712.949,-35 721.476,-35 729.81,-35"/>
<polygon fill="midnightblue" stroke="midnightblue" points="704.238,-31.5001 694.238,-35 704.238,-38.5001 704.238,-31.5001"/>
</g>
<!-- Node7 -->
<g id="node7" class="node"><title>Node7</title>
<g id="a_node7"><a xlink:href="../../db/d32/classcontroller_1_1_main_controller.html#a7cfedb8e16c6b9d6394054d03193da82" target="_top" xlink:title="controller.MainController.initialize\lSimulationWithData">
<polygon fill="white" stroke="black" points="922.5,-1 922.5,-31 1095.5,-31 1095.5,-1 922.5,-1"/>
<text text-anchor="start" x="930.5" y="-19" font-family="Helvetica,sans-Serif" font-size="10.00">controller.MainController.initialize</text>
<text text-anchor="middle" x="1009" y="-8" font-family="Helvetica,sans-Serif" font-size="10.00">SimulationWithData</text>
</a>
</g>
</g>
<!-- Node6&#45;&gt;Node7 -->
<g id="edge6" class="edge"><title>Node6&#45;&gt;Node7</title>
<path fill="none" stroke="midnightblue" d="M896.268,-26.6679C904.886,-25.845 913.629,-25.0103 922.232,-24.1889"/>
<polygon fill="midnightblue" stroke="midnightblue" points="895.845,-23.1922 886.223,-27.6269 896.511,-30.1605 895.845,-23.1922"/>
</g>
<!-- Node7&#45;&gt;Node4 -->
<g id="edge7" class="edge"><title>Node7&#45;&gt;Node4</title>
<path fill="none" stroke="midnightblue" d="M912.182,-12.1096C858.52,-10.9063 790.438,-10.998 730,-16 718.402,-16.9599 706.208,-18.4601 694.283,-20.2065"/>
<polygon fill="midnightblue" stroke="midnightblue" points="912.29,-15.6132 922.372,-12.3574 912.46,-8.61523 912.29,-15.6132"/>
</g>
</g>
</svg>
