<?xml version="1.0" encoding="UTF-8" standalone="no"?>
<!DOCTYPE svg PUBLIC "-//W3C//DTD SVG 1.1//EN"
 "http://www.w3.org/Graphics/SVG/1.1/DTD/svg11.dtd">
<!-- Generated by graphviz version 2.36.0 (20140111.2315)
 -->
<!-- Title: controller.Grid.updateAllNeighborhoods Pages: 1 -->
<svg width="944pt" height="151pt"
 viewBox="0.00 0.00 944.00 151.00" xmlns="http://www.w3.org/2000/svg" xmlns:xlink="http://www.w3.org/1999/xlink">
<g id="graph0" class="graph" transform="scale(1 1) rotate(0) translate(4 147)">
<title>controller.Grid.updateAllNeighborhoods</title>
<polygon fill="white" stroke="none" points="-4,4 -4,-147 940,-147 940,4 -4,4"/>
<!-- Node1 -->
<g id="node1" class="node"><title>Node1</title>
<polygon fill="#bfbfbf" stroke="black" points="0.5,-25 0.5,-55 131.5,-55 131.5,-25 0.5,-25"/>
<text text-anchor="start" x="8.5" y="-43" font-family="Helvetica,sans-Serif" font-size="10.00">controller.Grid.updateAll</text>
<text text-anchor="middle" x="66" y="-32" font-family="Helvetica,sans-Serif" font-size="10.00">Neighborhoods</text>
</g>
<!-- Node2 -->
<g id="node2" class="node"><title>Node2</title>
<g id="a_node2"><a xlink:href="../../d7/d97/classcontroller_1_1_grid.html#abb545fa0372b98b5246c9b0e6122de7c" target="_top" xlink:title="controller.Grid.changeRulesTo">
<polygon fill="white" stroke="black" points="168,-51.5 168,-70.5 324,-70.5 324,-51.5 168,-51.5"/>
<text text-anchor="middle" x="246" y="-58.5" font-family="Helvetica,sans-Serif" font-size="10.00">controller.Grid.changeRulesTo</text>
</a>
</g>
</g>
<!-- Node1&#45;&gt;Node2 -->
<g id="edge1" class="edge"><title>Node1&#45;&gt;Node2</title>
<path fill="none" stroke="midnightblue" d="M141.632,-48.8048C150.342,-49.8325 159.241,-50.8823 167.983,-51.9137"/>
<polygon fill="midnightblue" stroke="midnightblue" points="141.855,-45.307 131.514,-47.6112 141.035,-52.2588 141.855,-45.307"/>
</g>
<!-- Node7 -->
<g id="node7" class="node"><title>Node7</title>
<g id="a_node7"><a xlink:href="../../db/d32/classcontroller_1_1_main_controller.html#aecc10abc6b55d8b0b4bd152be5c5d3f0" target="_top" xlink:title="controller.MainController.initialize\lSimulationObjects">
<polygon fill="white" stroke="black" points="360.5,-0 360.5,-30 533.5,-30 533.5,-0 360.5,-0"/>
<text text-anchor="start" x="368.5" y="-18" font-family="Helvetica,sans-Serif" font-size="10.00">controller.MainController.initialize</text>
<text text-anchor="middle" x="447" y="-7" font-family="Helvetica,sans-Serif" font-size="10.00">SimulationObjects</text>
</a>
</g>
</g>
<!-- Node1&#45;&gt;Node7 -->
<g id="edge7" class="edge"><title>Node1&#45;&gt;Node7</title>
<path fill="none" stroke="midnightblue" d="M141.957,-35.0556C204.789,-30.911 294.511,-24.9927 360.204,-20.6593"/>
<polygon fill="midnightblue" stroke="midnightblue" points="141.47,-31.5801 131.722,-35.7308 141.931,-38.5649 141.47,-31.5801"/>
</g>
<!-- Node3 -->
<g id="node3" class="node"><title>Node3</title>
<g id="a_node3"><a xlink:href="../../db/ddb/classcontroller_1_1_user_interface.html#a9cf1e21253003993661082c9d42926b2" target="_top" xlink:title="controller.UserInterface.make\lBottomPanel">
<polygon fill="white" stroke="black" points="368,-62 368,-92 526,-92 526,-62 368,-62"/>
<text text-anchor="start" x="376" y="-80" font-family="Helvetica,sans-Serif" font-size="10.00">controller.UserInterface.make</text>
<text text-anchor="middle" x="447" y="-69" font-family="Helvetica,sans-Serif" font-size="10.00">BottomPanel</text>
</a>
</g>
</g>
<!-- Node2&#45;&gt;Node3 -->
<g id="edge2" class="edge"><title>Node2&#45;&gt;Node3</title>
<path fill="none" stroke="midnightblue" d="M334.377,-68.0253C345.514,-68.9207 356.857,-69.8327 367.836,-70.7154"/>
<polygon fill="midnightblue" stroke="midnightblue" points="334.472,-64.5217 324.223,-67.2089 333.911,-71.4992 334.472,-64.5217"/>
</g>
<!-- Node4 -->
<g id="node4" class="node"><title>Node4</title>
<g id="a_node4"><a xlink:href="../../db/ddb/classcontroller_1_1_user_interface.html#a6dd740b89d748c372a5ef9959e1bd7c4" target="_top" xlink:title="controller.UserInterface.\lUserInterface">
<polygon fill="white" stroke="black" points="582.5,-113 582.5,-143 713.5,-143 713.5,-113 582.5,-113"/>
<text text-anchor="start" x="590.5" y="-131" font-family="Helvetica,sans-Serif" font-size="10.00">controller.UserInterface.</text>
<text text-anchor="middle" x="648" y="-120" font-family="Helvetica,sans-Serif" font-size="10.00">UserInterface</text>
</a>
</g>
</g>
<!-- Node3&#45;&gt;Node4 -->
<g id="edge3" class="edge"><title>Node3&#45;&gt;Node4</title>
<path fill="none" stroke="midnightblue" d="M516.494,-94.5538C539.915,-100.556 565.881,-107.211 588.445,-112.994"/>
<polygon fill="midnightblue" stroke="midnightblue" points="517.186,-91.1181 506.63,-92.0258 515.448,-97.8989 517.186,-91.1181"/>
</g>
<!-- Node5 -->
<g id="node5" class="node"><title>Node5</title>
<g id="a_node5"><a xlink:href="../../db/ddb/classcontroller_1_1_user_interface.html#aad62b84bbc23f683c844ace519feb9d2" target="_top" xlink:title="controller.UserInterface.reset">
<polygon fill="white" stroke="black" points="570,-74.5 570,-93.5 726,-93.5 726,-74.5 570,-74.5"/>
<text text-anchor="middle" x="648" y="-81.5" font-family="Helvetica,sans-Serif" font-size="10.00">controller.UserInterface.reset</text>
</a>
</g>
</g>
<!-- Node3&#45;&gt;Node5 -->
<g id="edge4" class="edge"><title>Node3&#45;&gt;Node5</title>
<path fill="none" stroke="midnightblue" d="M536.272,-80.105C547.447,-80.4981 558.814,-80.898 569.799,-81.2844"/>
<polygon fill="midnightblue" stroke="midnightblue" points="536.196,-76.6003 526.079,-79.7465 535.95,-83.596 536.196,-76.6003"/>
</g>
<!-- Node6 -->
<g id="node6" class="node"><title>Node6</title>
<g id="a_node6"><a xlink:href="../../db/d32/classcontroller_1_1_main_controller.html#a7cfedb8e16c6b9d6394054d03193da82" target="_top" xlink:title="controller.MainController.initialize\lSimulationWithData">
<polygon fill="white" stroke="black" points="762.5,-31 762.5,-61 935.5,-61 935.5,-31 762.5,-31"/>
<text text-anchor="start" x="770.5" y="-49" font-family="Helvetica,sans-Serif" font-size="10.00">controller.MainController.initialize</text>
<text text-anchor="middle" x="849" y="-38" font-family="Helvetica,sans-Serif" font-size="10.00">SimulationWithData</text>
</a>
</g>
</g>
<!-- Node5&#45;&gt;Node6 -->
<g id="edge5" class="edge"><title>Node5&#45;&gt;Node6</title>
<path fill="none" stroke="midnightblue" d="M708.957,-72.551C727.949,-68.9243 749.237,-64.8593 769.337,-61.0211"/>
<polygon fill="midnightblue" stroke="midnightblue" points="708.125,-69.1464 698.959,-74.46 709.438,-76.0222 708.125,-69.1464"/>
</g>
<!-- Node6&#45;&gt;Node3 -->
<g id="edge6" class="edge"><title>Node6&#45;&gt;Node3</title>
<path fill="none" stroke="midnightblue" d="M752.29,-51.8352C698.661,-55.282 630.576,-59.9519 570,-65 555.79,-66.1842 540.661,-67.5705 526.068,-68.972"/>
<polygon fill="midnightblue" stroke="midnightblue" points="752.716,-55.3151 762.473,-51.1842 752.27,-48.3294 752.716,-55.3151"/>
</g>
<!-- Node7&#45;&gt;Node6 -->
<g id="edge8" class="edge"><title>Node7&#45;&gt;Node6</title>
<path fill="none" stroke="midnightblue" d="M543.877,-22.4304C610.376,-27.5841 698.172,-34.3884 762.332,-39.3607"/>
<polygon fill="midnightblue" stroke="midnightblue" points="544.051,-18.9335 533.81,-21.6503 543.51,-25.9126 544.051,-18.9335"/>
</g>
</g>
</svg>
