<?xml version="1.0" encoding="UTF-8" standalone="no"?>
<!DOCTYPE svg PUBLIC "-//W3C//DTD SVG 1.1//EN"
 "http://www.w3.org/Graphics/SVG/1.1/DTD/svg11.dtd">
<!-- Generated by graphviz version 2.36.0 (20140111.2315)
 -->
<!-- Title: controller.Grid.updateGrid Pages: 1 -->
<svg width="936pt" height="102pt"
 viewBox="0.00 0.00 936.00 102.00" xmlns="http://www.w3.org/2000/svg" xmlns:xlink="http://www.w3.org/1999/xlink">
<g id="graph0" class="graph" transform="scale(1 1) rotate(0) translate(4 98)">
<title>controller.Grid.updateGrid</title>
<polygon fill="white" stroke="none" points="-4,4 -4,-98 932,-98 932,4 -4,4"/>
<!-- Node1 -->
<g id="node1" class="node"><title>Node1</title>
<polygon fill="#bfbfbf" stroke="black" points="0,-25.5 0,-44.5 140,-44.5 140,-25.5 0,-25.5"/>
<text text-anchor="middle" x="70" y="-32.5" font-family="Helvetica,sans-Serif" font-size="10.00">controller.Grid.updateGrid</text>
</g>
<!-- Node2 -->
<g id="node2" class="node"><title>Node2</title>
<g id="a_node2"><a xlink:href="../../db/d32/classcontroller_1_1_main_controller.html#a73545baf8abf0781ade4a83269de344e" target="_top" xlink:title="controller.MainController.step\lSimulation">
<polygon fill="white" stroke="black" points="176,-20 176,-50 332,-50 332,-20 176,-20"/>
<text text-anchor="start" x="184" y="-38" font-family="Helvetica,sans-Serif" font-size="10.00">controller.MainController.step</text>
<text text-anchor="middle" x="254" y="-27" font-family="Helvetica,sans-Serif" font-size="10.00">Simulation</text>
</a>
</g>
</g>
<!-- Node1&#45;&gt;Node2 -->
<g id="edge1" class="edge"><title>Node1&#45;&gt;Node2</title>
<path fill="none" stroke="midnightblue" d="M150.29,-35C158.744,-35 167.334,-35 175.764,-35"/>
<polygon fill="midnightblue" stroke="midnightblue" points="150.066,-31.5001 140.066,-35 150.066,-38.5001 150.066,-31.5001"/>
</g>
<!-- Node3 -->
<g id="node3" class="node"><title>Node3</title>
<g id="a_node3"><a xlink:href="../../db/ddb/classcontroller_1_1_user_interface.html#a9cf1e21253003993661082c9d42926b2" target="_top" xlink:title="controller.UserInterface.make\lBottomPanel">
<polygon fill="white" stroke="black" points="368,-20 368,-50 526,-50 526,-20 368,-20"/>
<text text-anchor="start" x="376" y="-38" font-family="Helvetica,sans-Serif" font-size="10.00">controller.UserInterface.make</text>
<text text-anchor="middle" x="447" y="-27" font-family="Helvetica,sans-Serif" font-size="10.00">BottomPanel</text>
</a>
</g>
</g>
<!-- Node2&#45;&gt;Node3 -->
<g id="edge2" class="edge"><title>Node2&#45;&gt;Node3</title>
<path fill="none" stroke="midnightblue" d="M342.171,-35C350.768,-35 359.456,-35 367.954,-35"/>
<polygon fill="midnightblue" stroke="midnightblue" points="342.136,-31.5001 332.136,-35 342.136,-38.5001 342.136,-31.5001"/>
</g>
<!-- Node4 -->
<g id="node4" class="node"><title>Node4</title>
<g id="a_node4"><a xlink:href="../../db/ddb/classcontroller_1_1_user_interface.html#a6dd740b89d748c372a5ef9959e1bd7c4" target="_top" xlink:title="controller.UserInterface.\lUserInterface">
<polygon fill="white" stroke="black" points="574.5,-64 574.5,-94 705.5,-94 705.5,-64 574.5,-64"/>
<text text-anchor="start" x="582.5" y="-82" font-family="Helvetica,sans-Serif" font-size="10.00">controller.UserInterface.</text>
<text text-anchor="middle" x="640" y="-71" font-family="Helvetica,sans-Serif" font-size="10.00">UserInterface</text>
</a>
</g>
</g>
<!-- Node3&#45;&gt;Node4 -->
<g id="edge3" class="edge"><title>Node3&#45;&gt;Node4</title>
<path fill="none" stroke="midnightblue" d="M523.07,-52.2936C540.044,-56.204 557.922,-60.3224 574.42,-64.123"/>
<polygon fill="midnightblue" stroke="midnightblue" points="523.728,-48.8535 513.197,-50.0192 522.156,-55.6749 523.728,-48.8535"/>
</g>
<!-- Node5 -->
<g id="node5" class="node"><title>Node5</title>
<g id="a_node5"><a xlink:href="../../db/ddb/classcontroller_1_1_user_interface.html#aad62b84bbc23f683c844ace519feb9d2" target="_top" xlink:title="controller.UserInterface.reset">
<polygon fill="white" stroke="black" points="562,-25.5 562,-44.5 718,-44.5 718,-25.5 562,-25.5"/>
<text text-anchor="middle" x="640" y="-32.5" font-family="Helvetica,sans-Serif" font-size="10.00">controller.UserInterface.reset</text>
</a>
</g>
</g>
<!-- Node3&#45;&gt;Node5 -->
<g id="edge4" class="edge"><title>Node3&#45;&gt;Node5</title>
<path fill="none" stroke="midnightblue" d="M536.495,-35C544.949,-35 553.476,-35 561.81,-35"/>
<polygon fill="midnightblue" stroke="midnightblue" points="536.238,-31.5001 526.238,-35 536.238,-38.5001 536.238,-31.5001"/>
</g>
<!-- Node6 -->
<g id="node6" class="node"><title>Node6</title>
<g id="a_node6"><a xlink:href="../../db/d32/classcontroller_1_1_main_controller.html#a7cfedb8e16c6b9d6394054d03193da82" target="_top" xlink:title="controller.MainController.initialize\lSimulationWithData">
<polygon fill="white" stroke="black" points="754.5,-1 754.5,-31 927.5,-31 927.5,-1 754.5,-1"/>
<text text-anchor="start" x="762.5" y="-19" font-family="Helvetica,sans-Serif" font-size="10.00">controller.MainController.initialize</text>
<text text-anchor="middle" x="841" y="-8" font-family="Helvetica,sans-Serif" font-size="10.00">SimulationWithData</text>
</a>
</g>
</g>
<!-- Node5&#45;&gt;Node6 -->
<g id="edge5" class="edge"><title>Node5&#45;&gt;Node6</title>
<path fill="none" stroke="midnightblue" d="M728.268,-26.6679C736.886,-25.845 745.629,-25.0103 754.232,-24.1889"/>
<polygon fill="midnightblue" stroke="midnightblue" points="727.845,-23.1922 718.223,-27.6269 728.511,-30.1605 727.845,-23.1922"/>
</g>
<!-- Node6&#45;&gt;Node3 -->
<g id="edge6" class="edge"><title>Node6&#45;&gt;Node3</title>
<path fill="none" stroke="midnightblue" d="M744.182,-12.1096C690.52,-10.9063 622.438,-10.998 562,-16 550.402,-16.9599 538.208,-18.4601 526.283,-20.2065"/>
<polygon fill="midnightblue" stroke="midnightblue" points="744.29,-15.6132 754.372,-12.3574 744.46,-8.61523 744.29,-15.6132"/>
</g>
</g>
</svg>
