<?xml version="1.0" encoding="UTF-8" standalone="no"?>
<!DOCTYPE svg PUBLIC "-//W3C//DTD SVG 1.1//EN"
 "http://www.w3.org/Graphics/SVG/1.1/DTD/svg11.dtd">
<!-- Generated by graphviz version 2.36.0 (20140111.2315)
 -->
<!-- Title: controller.Grid.changeRulesTo Pages: 1 -->
<svg width="760pt" height="102pt"
 viewBox="0.00 0.00 760.00 102.00" xmlns="http://www.w3.org/2000/svg" xmlns:xlink="http://www.w3.org/1999/xlink">
<g id="graph0" class="graph" transform="scale(1 1) rotate(0) translate(4 98)">
<title>controller.Grid.changeRulesTo</title>
<polygon fill="white" stroke="none" points="-4,4 -4,-98 756,-98 756,4 -4,4"/>
<!-- Node1 -->
<g id="node1" class="node"><title>Node1</title>
<polygon fill="#bfbfbf" stroke="black" points="0,-25.5 0,-44.5 156,-44.5 156,-25.5 0,-25.5"/>
<text text-anchor="middle" x="78" y="-32.5" font-family="Helvetica,sans-Serif" font-size="10.00">controller.Grid.changeRulesTo</text>
</g>
<!-- Node2 -->
<g id="node2" class="node"><title>Node2</title>
<g id="a_node2"><a xlink:href="../../db/ddb/classcontroller_1_1_user_interface.html#a9cf1e21253003993661082c9d42926b2" target="_top" xlink:title="controller.UserInterface.make\lBottomPanel">
<polygon fill="white" stroke="black" points="192,-20 192,-50 350,-50 350,-20 192,-20"/>
<text text-anchor="start" x="200" y="-38" font-family="Helvetica,sans-Serif" font-size="10.00">controller.UserInterface.make</text>
<text text-anchor="middle" x="271" y="-27" font-family="Helvetica,sans-Serif" font-size="10.00">BottomPanel</text>
</a>
</g>
</g>
<!-- Node1&#45;&gt;Node2 -->
<g id="edge1" class="edge"><title>Node1&#45;&gt;Node2</title>
<path fill="none" stroke="midnightblue" d="M166.171,-35C174.768,-35 183.456,-35 191.954,-35"/>
<polygon fill="midnightblue" stroke="midnightblue" points="166.136,-31.5001 156.136,-35 166.136,-38.5001 166.136,-31.5001"/>
</g>
<!-- Node3 -->
<g id="node3" class="node"><title>Node3</title>
<g id="a_node3"><a xlink:href="../../db/ddb/classcontroller_1_1_user_interface.html#a6dd740b89d748c372a5ef9959e1bd7c4" target="_top" xlink:title="controller.UserInterface.\lUserInterface">
<polygon fill="white" stroke="black" points="398.5,-64 398.5,-94 529.5,-94 529.5,-64 398.5,-64"/>
<text text-anchor="start" x="406.5" y="-82" font-family="Helvetica,sans-Serif" font-size="10.00">controller.UserInterface.</text>
<text text-anchor="middle" x="464" y="-71" font-family="Helvetica,sans-Serif" font-size="10.00">UserInterface</text>
</a>
</g>
</g>
<!-- Node2&#45;&gt;Node3 -->
<g id="edge2" class="edge"><title>Node2&#45;&gt;Node3</title>
<path fill="none" stroke="midnightblue" d="M347.07,-52.2936C364.044,-56.204 381.922,-60.3224 398.42,-64.123"/>
<polygon fill="midnightblue" stroke="midnightblue" points="347.728,-48.8535 337.197,-50.0192 346.156,-55.6749 347.728,-48.8535"/>
</g>
<!-- Node4 -->
<g id="node4" class="node"><title>Node4</title>
<g id="a_node4"><a xlink:href="../../db/ddb/classcontroller_1_1_user_interface.html#aad62b84bbc23f683c844ace519feb9d2" target="_top" xlink:title="controller.UserInterface.reset">
<polygon fill="white" stroke="black" points="386,-25.5 386,-44.5 542,-44.5 542,-25.5 386,-25.5"/>
<text text-anchor="middle" x="464" y="-32.5" font-family="Helvetica,sans-Serif" font-size="10.00">controller.UserInterface.reset</text>
</a>
</g>
</g>
<!-- Node2&#45;&gt;Node4 -->
<g id="edge3" class="edge"><title>Node2&#45;&gt;Node4</title>
<path fill="none" stroke="midnightblue" d="M360.495,-35C368.949,-35 377.476,-35 385.81,-35"/>
<polygon fill="midnightblue" stroke="midnightblue" points="360.238,-31.5001 350.238,-35 360.238,-38.5001 360.238,-31.5001"/>
</g>
<!-- Node5 -->
<g id="node5" class="node"><title>Node5</title>
<g id="a_node5"><a xlink:href="../../db/d32/classcontroller_1_1_main_controller.html#a7cfedb8e16c6b9d6394054d03193da82" target="_top" xlink:title="controller.MainController.initialize\lSimulationWithData">
<polygon fill="white" stroke="black" points="578.5,-1 578.5,-31 751.5,-31 751.5,-1 578.5,-1"/>
<text text-anchor="start" x="586.5" y="-19" font-family="Helvetica,sans-Serif" font-size="10.00">controller.MainController.initialize</text>
<text text-anchor="middle" x="665" y="-8" font-family="Helvetica,sans-Serif" font-size="10.00">SimulationWithData</text>
</a>
</g>
</g>
<!-- Node4&#45;&gt;Node5 -->
<g id="edge4" class="edge"><title>Node4&#45;&gt;Node5</title>
<path fill="none" stroke="midnightblue" d="M552.268,-26.6679C560.886,-25.845 569.629,-25.0103 578.232,-24.1889"/>
<polygon fill="midnightblue" stroke="midnightblue" points="551.845,-23.1922 542.223,-27.6269 552.511,-30.1605 551.845,-23.1922"/>
</g>
<!-- Node5&#45;&gt;Node2 -->
<g id="edge5" class="edge"><title>Node5&#45;&gt;Node2</title>
<path fill="none" stroke="midnightblue" d="M568.182,-12.1096C514.52,-10.9063 446.438,-10.998 386,-16 374.402,-16.9599 362.208,-18.4601 350.283,-20.2065"/>
<polygon fill="midnightblue" stroke="midnightblue" points="568.29,-15.6132 578.372,-12.3574 568.46,-8.61523 568.29,-15.6132"/>
</g>
</g>
</svg>
