<?xml version="1.0" encoding="UTF-8" standalone="no"?>
<!DOCTYPE svg PUBLIC "-//W3C//DTD SVG 1.1//EN"
 "http://www.w3.org/Graphics/SVG/1.1/DTD/svg11.dtd">
<!-- Generated by graphviz version 2.36.0 (20140111.2315)
 -->
<!-- Title: controller.Grid.getGridHeight Pages: 1 -->
<svg width="1558pt" height="153pt"
 viewBox="0.00 0.00 1558.00 153.00" xmlns="http://www.w3.org/2000/svg" xmlns:xlink="http://www.w3.org/1999/xlink">
<g id="graph0" class="graph" transform="scale(1 1) rotate(0) translate(4 149)">
<title>controller.Grid.getGridHeight</title>
<polygon fill="white" stroke="none" points="-4,4 -4,-149 1554,-149 1554,4 -4,4"/>
<!-- Node1 -->
<g id="node1" class="node"><title>Node1</title>
<polygon fill="#bfbfbf" stroke="black" points="0.5,-68.5 0.5,-87.5 153.5,-87.5 153.5,-68.5 0.5,-68.5"/>
<text text-anchor="middle" x="77" y="-75.5" font-family="Helvetica,sans-Serif" font-size="10.00">controller.Grid.getGridHeight</text>
</g>
<!-- Node2 -->
<g id="node2" class="node"><title>Node2</title>
<g id="a_node2"><a xlink:href="../../d6/dae/classsimulation_objects_1_1_sugar_patch.html#ad0451478701e5c49026140110dfa290f" target="_top" xlink:title="simulationObjects.SugarPatch.createBody">
<polygon fill="white" stroke="black" points="190,-125.5 190,-144.5 408,-144.5 408,-125.5 190,-125.5"/>
<text text-anchor="middle" x="299" y="-132.5" font-family="Helvetica,sans-Serif" font-size="10.00">simulationObjects.SugarPatch.createBody</text>
</a>
</g>
</g>
<!-- Node1&#45;&gt;Node2 -->
<g id="edge1" class="edge"><title>Node1&#45;&gt;Node2</title>
<path fill="none" stroke="midnightblue" d="M112.128,-91.0977C134.107,-99.1528 163.435,-109.199 190,-116 204.201,-119.636 219.63,-122.803 234.264,-125.455"/>
<polygon fill="midnightblue" stroke="midnightblue" points="113.176,-87.7534 102.583,-87.5557 110.741,-94.3161 113.176,-87.7534"/>
</g>
<!-- Node3 -->
<g id="node3" class="node"><title>Node3</title>
<g id="a_node3"><a xlink:href="../../d5/da5/classsimulation_objects_1_1_patch.html#a77ec59a5f39498ab6337a9535a6193e0" target="_top" xlink:title="simulationObjects.Patch.createBody">
<polygon fill="white" stroke="black" points="204.5,-87.5 204.5,-106.5 393.5,-106.5 393.5,-87.5 204.5,-87.5"/>
<text text-anchor="middle" x="299" y="-94.5" font-family="Helvetica,sans-Serif" font-size="10.00">simulationObjects.Patch.createBody</text>
</a>
</g>
</g>
<!-- Node1&#45;&gt;Node3 -->
<g id="edge2" class="edge"><title>Node1&#45;&gt;Node3</title>
<path fill="none" stroke="midnightblue" d="M163.758,-85.4064C177.04,-86.5534 190.818,-87.7433 204.264,-88.9046"/>
<polygon fill="midnightblue" stroke="midnightblue" points="163.976,-81.9122 153.712,-84.5387 163.373,-88.8863 163.976,-81.9122"/>
</g>
<!-- Node8 -->
<g id="node8" class="node"><title>Node8</title>
<g id="a_node8"><a xlink:href="../../db/ddb/classcontroller_1_1_user_interface.html#a9cf1e21253003993661082c9d42926b2" target="_top" xlink:title="controller.UserInterface.make\lBottomPanel">
<polygon fill="white" stroke="black" points="1200,-44 1200,-74 1358,-74 1358,-44 1200,-44"/>
<text text-anchor="start" x="1208" y="-62" font-family="Helvetica,sans-Serif" font-size="10.00">controller.UserInterface.make</text>
<text text-anchor="middle" x="1279" y="-51" font-family="Helvetica,sans-Serif" font-size="10.00">BottomPanel</text>
</a>
</g>
</g>
<!-- Node1&#45;&gt;Node8 -->
<g id="edge11" class="edge"><title>Node1&#45;&gt;Node8</title>
<path fill="none" stroke="midnightblue" d="M163.948,-71.9797C250.903,-66.4143 389.223,-59 509,-59 509,-59 509,-59 868,-59 983.49,-59 1117.28,-59 1199.78,-59"/>
<polygon fill="midnightblue" stroke="midnightblue" points="163.618,-68.4936 153.865,-72.6315 164.07,-75.4791 163.618,-68.4936"/>
</g>
<!-- Node11 -->
<g id="node11" class="node"><title>Node11</title>
<g id="a_node11"><a xlink:href="../../de/d4d/classcontroller_1_1_simulation_chart.html#a0a61324a4c590fb14b4b6e3211015181" target="_top" xlink:title="controller.SimulationChart.\lSimulationChart">
<polygon fill="white" stroke="black" points="227,-0 227,-30 371,-30 371,-0 227,-0"/>
<text text-anchor="start" x="235" y="-18" font-family="Helvetica,sans-Serif" font-size="10.00">controller.SimulationChart.</text>
<text text-anchor="middle" x="299" y="-7" font-family="Helvetica,sans-Serif" font-size="10.00">SimulationChart</text>
</a>
</g>
</g>
<!-- Node1&#45;&gt;Node11 -->
<g id="edge12" class="edge"><title>Node1&#45;&gt;Node11</title>
<path fill="none" stroke="midnightblue" d="M119.445,-65.6213C140.544,-59.3617 166.615,-51.6927 190,-45 207.306,-40.0473 226.206,-34.7569 243.288,-30.0195"/>
<polygon fill="midnightblue" stroke="midnightblue" points="118.413,-62.2765 109.824,-68.4798 120.407,-68.9866 118.413,-62.2765"/>
</g>
<!-- Node4 -->
<g id="node4" class="node"><title>Node4</title>
<g id="a_node4"><a xlink:href="../../d7/d97/classcontroller_1_1_grid.html#a52256ef1252a18eab8baeb2edef836d8" target="_top" xlink:title="controller.Grid.addPatch\lToGrid">
<polygon fill="white" stroke="black" points="444.5,-88 444.5,-118 575.5,-118 575.5,-88 444.5,-88"/>
<text text-anchor="start" x="452.5" y="-106" font-family="Helvetica,sans-Serif" font-size="10.00">controller.Grid.addPatch</text>
<text text-anchor="middle" x="510" y="-95" font-family="Helvetica,sans-Serif" font-size="10.00">ToGrid</text>
</a>
</g>
</g>
<!-- Node3&#45;&gt;Node4 -->
<g id="edge3" class="edge"><title>Node3&#45;&gt;Node4</title>
<path fill="none" stroke="midnightblue" d="M403.814,-99.9803C417.588,-100.376 431.378,-100.772 444.226,-101.14"/>
<polygon fill="midnightblue" stroke="midnightblue" points="403.898,-96.4814 393.801,-99.6929 403.697,-103.478 403.898,-96.4814"/>
</g>
<!-- Node5 -->
<g id="node5" class="node"><title>Node5</title>
<g id="a_node5"><a xlink:href="../../d7/d97/classcontroller_1_1_grid.html#a85b3833ab13642ba27fd7b65ee6a6daa" target="_top" xlink:title="controller.Grid.addPatch\lAtPoint">
<polygon fill="white" stroke="black" points="612.5,-88 612.5,-118 743.5,-118 743.5,-88 612.5,-88"/>
<text text-anchor="start" x="620.5" y="-106" font-family="Helvetica,sans-Serif" font-size="10.00">controller.Grid.addPatch</text>
<text text-anchor="middle" x="678" y="-95" font-family="Helvetica,sans-Serif" font-size="10.00">AtPoint</text>
</a>
</g>
</g>
<!-- Node4&#45;&gt;Node5 -->
<g id="edge4" class="edge"><title>Node4&#45;&gt;Node5</title>
<path fill="none" stroke="midnightblue" d="M585.898,-103C594.693,-103 603.609,-103 612.248,-103"/>
<polygon fill="midnightblue" stroke="midnightblue" points="585.655,-99.5001 575.655,-103 585.655,-106.5 585.655,-99.5001"/>
</g>
<!-- Node6 -->
<g id="node6" class="node"><title>Node6</title>
<g id="a_node6"><a xlink:href="../../db/d32/classcontroller_1_1_main_controller.html#aecc10abc6b55d8b0b4bd152be5c5d3f0" target="_top" xlink:title="controller.MainController.initialize\lSimulationObjects">
<polygon fill="white" stroke="black" points="780.5,-88 780.5,-118 953.5,-118 953.5,-88 780.5,-88"/>
<text text-anchor="start" x="788.5" y="-106" font-family="Helvetica,sans-Serif" font-size="10.00">controller.MainController.initialize</text>
<text text-anchor="middle" x="867" y="-95" font-family="Helvetica,sans-Serif" font-size="10.00">SimulationObjects</text>
</a>
</g>
</g>
<!-- Node5&#45;&gt;Node6 -->
<g id="edge5" class="edge"><title>Node5&#45;&gt;Node6</title>
<path fill="none" stroke="midnightblue" d="M753.736,-103C762.461,-103 771.414,-103 780.273,-103"/>
<polygon fill="midnightblue" stroke="midnightblue" points="753.617,-99.5001 743.617,-103 753.617,-106.5 753.617,-99.5001"/>
</g>
<!-- Node7 -->
<g id="node7" class="node"><title>Node7</title>
<g id="a_node7"><a xlink:href="../../db/d32/classcontroller_1_1_main_controller.html#a7cfedb8e16c6b9d6394054d03193da82" target="_top" xlink:title="controller.MainController.initialize\lSimulationWithData">
<polygon fill="white" stroke="black" points="990.5,-88 990.5,-118 1163.5,-118 1163.5,-88 990.5,-88"/>
<text text-anchor="start" x="998.5" y="-106" font-family="Helvetica,sans-Serif" font-size="10.00">controller.MainController.initialize</text>
<text text-anchor="middle" x="1077" y="-95" font-family="Helvetica,sans-Serif" font-size="10.00">SimulationWithData</text>
</a>
</g>
</g>
<!-- Node6&#45;&gt;Node7 -->
<g id="edge6" class="edge"><title>Node6&#45;&gt;Node7</title>
<path fill="none" stroke="midnightblue" d="M963.585,-103C972.561,-103 981.62,-103 990.494,-103"/>
<polygon fill="midnightblue" stroke="midnightblue" points="963.502,-99.5001 953.502,-103 963.502,-106.5 963.502,-99.5001"/>
</g>
<!-- Node7&#45;&gt;Node8 -->
<g id="edge7" class="edge"><title>Node7&#45;&gt;Node8</title>
<path fill="none" stroke="midnightblue" d="M1156.49,-85.7316C1174.07,-81.8648 1192.58,-77.7934 1209.7,-74.0262"/>
<polygon fill="midnightblue" stroke="midnightblue" points="1155.28,-82.4138 1146.27,-87.9808 1156.79,-89.2503 1155.28,-82.4138"/>
</g>
<!-- Node9 -->
<g id="node9" class="node"><title>Node9</title>
<g id="a_node9"><a xlink:href="../../db/ddb/classcontroller_1_1_user_interface.html#a6dd740b89d748c372a5ef9959e1bd7c4" target="_top" xlink:title="controller.UserInterface.\lUserInterface">
<polygon fill="white" stroke="black" points="1406.5,-44 1406.5,-74 1537.5,-74 1537.5,-44 1406.5,-44"/>
<text text-anchor="start" x="1414.5" y="-62" font-family="Helvetica,sans-Serif" font-size="10.00">controller.UserInterface.</text>
<text text-anchor="middle" x="1472" y="-51" font-family="Helvetica,sans-Serif" font-size="10.00">UserInterface</text>
</a>
</g>
</g>
<!-- Node8&#45;&gt;Node9 -->
<g id="edge8" class="edge"><title>Node8&#45;&gt;Node9</title>
<path fill="none" stroke="midnightblue" d="M1368.41,-59C1381.17,-59 1394.1,-59 1406.27,-59"/>
<polygon fill="midnightblue" stroke="midnightblue" points="1368.24,-55.5001 1358.24,-59 1368.24,-62.5001 1368.24,-55.5001"/>
</g>
<!-- Node10 -->
<g id="node10" class="node"><title>Node10</title>
<g id="a_node10"><a xlink:href="../../db/ddb/classcontroller_1_1_user_interface.html#aad62b84bbc23f683c844ace519feb9d2" target="_top" xlink:title="controller.UserInterface.reset">
<polygon fill="white" stroke="black" points="1394,-93.5 1394,-112.5 1550,-112.5 1550,-93.5 1394,-93.5"/>
<text text-anchor="middle" x="1472" y="-100.5" font-family="Helvetica,sans-Serif" font-size="10.00">controller.UserInterface.reset</text>
</a>
</g>
</g>
<!-- Node8&#45;&gt;Node10 -->
<g id="edge9" class="edge"><title>Node8&#45;&gt;Node10</title>
<path fill="none" stroke="midnightblue" d="M1355.18,-76.3187C1380.56,-82.1648 1407.94,-88.4732 1429.71,-93.4876"/>
<polygon fill="midnightblue" stroke="midnightblue" points="1355.73,-72.8535 1345.2,-74.0192 1354.16,-79.6749 1355.73,-72.8535"/>
</g>
<!-- Node10&#45;&gt;Node7 -->
<g id="edge10" class="edge"><title>Node10&#45;&gt;Node7</title>
<path fill="none" stroke="midnightblue" d="M1383.44,-103C1317.94,-103 1228.83,-103 1163.76,-103"/>
<polygon fill="midnightblue" stroke="midnightblue" points="1383.75,-106.5 1393.75,-103 1383.75,-99.5001 1383.75,-106.5"/>
</g>
</g>
</svg>
