<?xml version="1.0" encoding="UTF-8" standalone="no"?>
<!DOCTYPE svg PUBLIC "-//W3C//DTD SVG 1.1//EN"
 "http://www.w3.org/Graphics/SVG/1.1/DTD/svg11.dtd">
<!-- Generated by graphviz version 2.36.0 (20140111.2315)
 -->
<!-- Title: controller.Grid.countCellInPatch Pages: 1 -->
<svg width="1272pt" height="102pt"
 viewBox="0.00 0.00 1272.00 102.00" xmlns="http://www.w3.org/2000/svg" xmlns:xlink="http://www.w3.org/1999/xlink">
<g id="graph0" class="graph" transform="scale(1 1) rotate(0) translate(4 98)">
<title>controller.Grid.countCellInPatch</title>
<polygon fill="white" stroke="none" points="-4,4 -4,-98 1268,-98 1268,4 -4,4"/>
<!-- Node1 -->
<g id="node1" class="node"><title>Node1</title>
<polygon fill="#bfbfbf" stroke="black" points="0.5,-20 0.5,-50 131.5,-50 131.5,-20 0.5,-20"/>
<text text-anchor="start" x="8.5" y="-38" font-family="Helvetica,sans-Serif" font-size="10.00">controller.Grid.countCell</text>
<text text-anchor="middle" x="66" y="-27" font-family="Helvetica,sans-Serif" font-size="10.00">InPatch</text>
</g>
<!-- Node2 -->
<g id="node2" class="node"><title>Node2</title>
<g id="a_node2"><a xlink:href="../../d7/d97/classcontroller_1_1_grid.html#a2cbf0a87e05ced6bd01a6ca01542b948" target="_top" xlink:title="controller.Grid.updateAll\lPatches">
<polygon fill="white" stroke="black" points="168.5,-20 168.5,-50 299.5,-50 299.5,-20 168.5,-20"/>
<text text-anchor="start" x="176.5" y="-38" font-family="Helvetica,sans-Serif" font-size="10.00">controller.Grid.updateAll</text>
<text text-anchor="middle" x="234" y="-27" font-family="Helvetica,sans-Serif" font-size="10.00">Patches</text>
</a>
</g>
</g>
<!-- Node1&#45;&gt;Node2 -->
<g id="edge1" class="edge"><title>Node1&#45;&gt;Node2</title>
<path fill="none" stroke="midnightblue" d="M141.898,-35C150.693,-35 159.609,-35 168.248,-35"/>
<polygon fill="midnightblue" stroke="midnightblue" points="141.655,-31.5001 131.655,-35 141.655,-38.5001 141.655,-31.5001"/>
</g>
<!-- Node3 -->
<g id="node3" class="node"><title>Node3</title>
<g id="a_node3"><a xlink:href="../../d7/d97/classcontroller_1_1_grid.html#a9d953304e003d02db9447cd636efce3a" target="_top" xlink:title="controller.Grid.updateGrid">
<polygon fill="white" stroke="black" points="336,-25.5 336,-44.5 476,-44.5 476,-25.5 336,-25.5"/>
<text text-anchor="middle" x="406" y="-32.5" font-family="Helvetica,sans-Serif" font-size="10.00">controller.Grid.updateGrid</text>
</a>
</g>
</g>
<!-- Node2&#45;&gt;Node3 -->
<g id="edge2" class="edge"><title>Node2&#45;&gt;Node3</title>
<path fill="none" stroke="midnightblue" d="M309.84,-35C318.506,-35 327.314,-35 335.899,-35"/>
<polygon fill="midnightblue" stroke="midnightblue" points="309.755,-31.5001 299.755,-35 309.755,-38.5001 309.755,-31.5001"/>
</g>
<!-- Node4 -->
<g id="node4" class="node"><title>Node4</title>
<g id="a_node4"><a xlink:href="../../db/d32/classcontroller_1_1_main_controller.html#a73545baf8abf0781ade4a83269de344e" target="_top" xlink:title="controller.MainController.step\lSimulation">
<polygon fill="white" stroke="black" points="512,-20 512,-50 668,-50 668,-20 512,-20"/>
<text text-anchor="start" x="520" y="-38" font-family="Helvetica,sans-Serif" font-size="10.00">controller.MainController.step</text>
<text text-anchor="middle" x="590" y="-27" font-family="Helvetica,sans-Serif" font-size="10.00">Simulation</text>
</a>
</g>
</g>
<!-- Node3&#45;&gt;Node4 -->
<g id="edge3" class="edge"><title>Node3&#45;&gt;Node4</title>
<path fill="none" stroke="midnightblue" d="M486.29,-35C494.744,-35 503.334,-35 511.764,-35"/>
<polygon fill="midnightblue" stroke="midnightblue" points="486.066,-31.5001 476.066,-35 486.066,-38.5001 486.066,-31.5001"/>
</g>
<!-- Node5 -->
<g id="node5" class="node"><title>Node5</title>
<g id="a_node5"><a xlink:href="../../db/ddb/classcontroller_1_1_user_interface.html#a9cf1e21253003993661082c9d42926b2" target="_top" xlink:title="controller.UserInterface.make\lBottomPanel">
<polygon fill="white" stroke="black" points="704,-20 704,-50 862,-50 862,-20 704,-20"/>
<text text-anchor="start" x="712" y="-38" font-family="Helvetica,sans-Serif" font-size="10.00">controller.UserInterface.make</text>
<text text-anchor="middle" x="783" y="-27" font-family="Helvetica,sans-Serif" font-size="10.00">BottomPanel</text>
</a>
</g>
</g>
<!-- Node4&#45;&gt;Node5 -->
<g id="edge4" class="edge"><title>Node4&#45;&gt;Node5</title>
<path fill="none" stroke="midnightblue" d="M678.171,-35C686.768,-35 695.456,-35 703.954,-35"/>
<polygon fill="midnightblue" stroke="midnightblue" points="678.136,-31.5001 668.136,-35 678.136,-38.5001 678.136,-31.5001"/>
</g>
<!-- Node6 -->
<g id="node6" class="node"><title>Node6</title>
<g id="a_node6"><a xlink:href="../../db/ddb/classcontroller_1_1_user_interface.html#a6dd740b89d748c372a5ef9959e1bd7c4" target="_top" xlink:title="controller.UserInterface.\lUserInterface">
<polygon fill="white" stroke="black" points="910.5,-64 910.5,-94 1041.5,-94 1041.5,-64 910.5,-64"/>
<text text-anchor="start" x="918.5" y="-82" font-family="Helvetica,sans-Serif" font-size="10.00">controller.UserInterface.</text>
<text text-anchor="middle" x="976" y="-71" font-family="Helvetica,sans-Serif" font-size="10.00">UserInterface</text>
</a>
</g>
</g>
<!-- Node5&#45;&gt;Node6 -->
<g id="edge5" class="edge"><title>Node5&#45;&gt;Node6</title>
<path fill="none" stroke="midnightblue" d="M859.07,-52.2936C876.044,-56.204 893.922,-60.3224 910.42,-64.123"/>
<polygon fill="midnightblue" stroke="midnightblue" points="859.728,-48.8535 849.197,-50.0192 858.156,-55.6749 859.728,-48.8535"/>
</g>
<!-- Node7 -->
<g id="node7" class="node"><title>Node7</title>
<g id="a_node7"><a xlink:href="../../db/ddb/classcontroller_1_1_user_interface.html#aad62b84bbc23f683c844ace519feb9d2" target="_top" xlink:title="controller.UserInterface.reset">
<polygon fill="white" stroke="black" points="898,-25.5 898,-44.5 1054,-44.5 1054,-25.5 898,-25.5"/>
<text text-anchor="middle" x="976" y="-32.5" font-family="Helvetica,sans-Serif" font-size="10.00">controller.UserInterface.reset</text>
</a>
</g>
</g>
<!-- Node5&#45;&gt;Node7 -->
<g id="edge6" class="edge"><title>Node5&#45;&gt;Node7</title>
<path fill="none" stroke="midnightblue" d="M872.495,-35C880.949,-35 889.476,-35 897.81,-35"/>
<polygon fill="midnightblue" stroke="midnightblue" points="872.238,-31.5001 862.238,-35 872.238,-38.5001 872.238,-31.5001"/>
</g>
<!-- Node8 -->
<g id="node8" class="node"><title>Node8</title>
<g id="a_node8"><a xlink:href="../../db/d32/classcontroller_1_1_main_controller.html#a7cfedb8e16c6b9d6394054d03193da82" target="_top" xlink:title="controller.MainController.initialize\lSimulationWithData">
<polygon fill="white" stroke="black" points="1090.5,-1 1090.5,-31 1263.5,-31 1263.5,-1 1090.5,-1"/>
<text text-anchor="start" x="1098.5" y="-19" font-family="Helvetica,sans-Serif" font-size="10.00">controller.MainController.initialize</text>
<text text-anchor="middle" x="1177" y="-8" font-family="Helvetica,sans-Serif" font-size="10.00">SimulationWithData</text>
</a>
</g>
</g>
<!-- Node7&#45;&gt;Node8 -->
<g id="edge7" class="edge"><title>Node7&#45;&gt;Node8</title>
<path fill="none" stroke="midnightblue" d="M1064.27,-26.6679C1072.89,-25.845 1081.63,-25.0103 1090.23,-24.1889"/>
<polygon fill="midnightblue" stroke="midnightblue" points="1063.85,-23.1922 1054.22,-27.6269 1064.51,-30.1605 1063.85,-23.1922"/>
</g>
<!-- Node8&#45;&gt;Node5 -->
<g id="edge8" class="edge"><title>Node8&#45;&gt;Node5</title>
<path fill="none" stroke="midnightblue" d="M1080.18,-12.1096C1026.52,-10.9063 958.438,-10.998 898,-16 886.402,-16.9599 874.208,-18.4601 862.283,-20.2065"/>
<polygon fill="midnightblue" stroke="midnightblue" points="1080.29,-15.6132 1090.37,-12.3574 1080.46,-8.61523 1080.29,-15.6132"/>
</g>
</g>
</svg>
