<?xml version="1.0" encoding="UTF-8" standalone="no"?>
<!DOCTYPE svg PUBLIC "-//W3C//DTD SVG 1.1//EN"
 "http://www.w3.org/Graphics/SVG/1.1/DTD/svg11.dtd">
<!-- Generated by graphviz version 2.36.0 (20140111.2315)
 -->
<!-- Title: controller.Grid.addPatchToGrid Pages: 1 -->
<svg width="780pt" height="164pt"
 viewBox="0.00 0.00 780.00 164.00" xmlns="http://www.w3.org/2000/svg" xmlns:xlink="http://www.w3.org/1999/xlink">
<g id="graph0" class="graph" transform="scale(1 1) rotate(0) translate(4 160)">
<title>controller.Grid.addPatchToGrid</title>
<polygon fill="white" stroke="none" points="-4,4 -4,-160 776,-160 776,4 -4,4"/>
<!-- Node1 -->
<g id="node1" class="node"><title>Node1</title>
<polygon fill="#bfbfbf" stroke="black" points="0.5,-93 0.5,-123 131.5,-123 131.5,-93 0.5,-93"/>
<text text-anchor="start" x="8.5" y="-111" font-family="Helvetica,sans-Serif" font-size="10.00">controller.Grid.addPatch</text>
<text text-anchor="middle" x="66" y="-100" font-family="Helvetica,sans-Serif" font-size="10.00">ToGrid</text>
</g>
<!-- Node2 -->
<g id="node2" class="node"><title>Node2</title>
<g id="a_node2"><a xlink:href="../../d5/da5/classsimulation_objects_1_1_patch.html#a77ec59a5f39498ab6337a9535a6193e0" target="_top" xlink:title="simulationObjects.Patch.createBody">
<polygon fill="white" stroke="black" points="168.5,-98.5 168.5,-117.5 357.5,-117.5 357.5,-98.5 168.5,-98.5"/>
<text text-anchor="middle" x="263" y="-105.5" font-family="Helvetica,sans-Serif" font-size="10.00">simulationObjects.Patch.createBody</text>
</a>
</g>
</g>
<!-- Node1&#45;&gt;Node2 -->
<g id="edge1" class="edge"><title>Node1&#45;&gt;Node2</title>
<path fill="none" stroke="midnightblue" d="M131.661,-108C140.2,-108 149.118,-108 158.11,-108"/>
<polygon fill="midnightblue" stroke="midnightblue" points="158.276,-111.5 168.276,-108 158.276,-104.5 158.276,-111.5"/>
</g>
<!-- Node3 -->
<g id="node3" class="node"><title>Node3</title>
<g id="a_node3"><a xlink:href="../../d7/d97/classcontroller_1_1_grid.html#a61d4b46bec1a6a3c7f277736e6293252" target="_top" xlink:title="controller.Grid.getGridHeight">
<polygon fill="white" stroke="black" points="401.5,-136.5 401.5,-155.5 554.5,-155.5 554.5,-136.5 401.5,-136.5"/>
<text text-anchor="middle" x="478" y="-143.5" font-family="Helvetica,sans-Serif" font-size="10.00">controller.Grid.getGridHeight</text>
</a>
</g>
</g>
<!-- Node2&#45;&gt;Node3 -->
<g id="edge2" class="edge"><title>Node2&#45;&gt;Node3</title>
<path fill="none" stroke="midnightblue" d="M317.474,-117.54C346.592,-122.735 382.811,-129.196 413.374,-134.649"/>
<polygon fill="midnightblue" stroke="midnightblue" points="413.045,-138.145 423.504,-136.456 414.274,-131.254 413.045,-138.145"/>
</g>
<!-- Node4 -->
<g id="node4" class="node"><title>Node4</title>
<g id="a_node4"><a xlink:href="../../d7/d97/classcontroller_1_1_grid.html#a07b690d056f74953ade8dc5e762341d7" target="_top" xlink:title="controller.Grid.getGridWidth">
<polygon fill="white" stroke="black" points="404,-98.5 404,-117.5 552,-117.5 552,-98.5 404,-98.5"/>
<text text-anchor="middle" x="478" y="-105.5" font-family="Helvetica,sans-Serif" font-size="10.00">controller.Grid.getGridWidth</text>
</a>
</g>
</g>
<!-- Node2&#45;&gt;Node4 -->
<g id="edge3" class="edge"><title>Node2&#45;&gt;Node4</title>
<path fill="none" stroke="midnightblue" d="M357.735,-108C369.648,-108 381.777,-108 393.514,-108"/>
<polygon fill="midnightblue" stroke="midnightblue" points="393.713,-111.5 403.713,-108 393.713,-104.5 393.713,-111.5"/>
</g>
<!-- Node5 -->
<g id="node5" class="node"><title>Node5</title>
<g id="a_node5"><a xlink:href="../../d5/da5/classsimulation_objects_1_1_patch.html#a06f00537a57f3678cf147c580b92de0d" target="_top" xlink:title="simulationObjects.Patch.update\lCellConstraints">
<polygon fill="white" stroke="black" points="394,-49 394,-79 562,-79 562,-49 394,-49"/>
<text text-anchor="start" x="402" y="-67" font-family="Helvetica,sans-Serif" font-size="10.00">simulationObjects.Patch.update</text>
<text text-anchor="middle" x="478" y="-56" font-family="Helvetica,sans-Serif" font-size="10.00">CellConstraints</text>
</a>
</g>
</g>
<!-- Node2&#45;&gt;Node5 -->
<g id="edge4" class="edge"><title>Node2&#45;&gt;Node5</title>
<path fill="none" stroke="midnightblue" d="M310.218,-98.4527C334.734,-93.3882 365.606,-87.011 394.103,-81.1242"/>
<polygon fill="midnightblue" stroke="midnightblue" points="394.985,-84.5161 404.07,-79.0654 393.569,-77.6608 394.985,-84.5161"/>
</g>
<!-- Node6 -->
<g id="node6" class="node"><title>Node6</title>
<g id="a_node6"><a xlink:href="../../d0/d1a/classsimulation_objects_1_1_patch_body.html#a466dadbe30fb2f8360163881e0db9295" target="_top" xlink:title="simulationObjects.PatchBody.get\lPatchWidth">
<polygon fill="white" stroke="black" points="598.5,-98 598.5,-128 771.5,-128 771.5,-98 598.5,-98"/>
<text text-anchor="start" x="606.5" y="-116" font-family="Helvetica,sans-Serif" font-size="10.00">simulationObjects.PatchBody.get</text>
<text text-anchor="middle" x="685" y="-105" font-family="Helvetica,sans-Serif" font-size="10.00">PatchWidth</text>
</a>
</g>
</g>
<!-- Node5&#45;&gt;Node6 -->
<g id="edge5" class="edge"><title>Node5&#45;&gt;Node6</title>
<path fill="none" stroke="midnightblue" d="M541.9,-79.0346C563.84,-84.2789 588.641,-90.2069 611.311,-95.6255"/>
<polygon fill="midnightblue" stroke="midnightblue" points="610.679,-99.0731 621.219,-97.9938 612.307,-92.2649 610.679,-99.0731"/>
</g>
<!-- Node7 -->
<g id="node7" class="node"><title>Node7</title>
<g id="a_node7"><a xlink:href="../../d0/d1a/classsimulation_objects_1_1_patch_body.html#a7be1762ade4eaee79c26ac524eb97f33" target="_top" xlink:title="simulationObjects.PatchBody.get\lCenter">
<polygon fill="white" stroke="black" points="598.5,-49 598.5,-79 771.5,-79 771.5,-49 598.5,-49"/>
<text text-anchor="start" x="606.5" y="-67" font-family="Helvetica,sans-Serif" font-size="10.00">simulationObjects.PatchBody.get</text>
<text text-anchor="middle" x="685" y="-56" font-family="Helvetica,sans-Serif" font-size="10.00">Center</text>
</a>
</g>
</g>
<!-- Node5&#45;&gt;Node7 -->
<g id="edge6" class="edge"><title>Node5&#45;&gt;Node7</title>
<path fill="none" stroke="midnightblue" d="M562.086,-64C570.701,-64 579.507,-64 588.246,-64"/>
<polygon fill="midnightblue" stroke="midnightblue" points="588.46,-67.5001 598.46,-64 588.46,-60.5001 588.46,-67.5001"/>
</g>
<!-- Node8 -->
<g id="node8" class="node"><title>Node8</title>
<g id="a_node8"><a xlink:href="../../d0/d1a/classsimulation_objects_1_1_patch_body.html#a268e88a7cb1f5feb98f49e230475c2ba" target="_top" xlink:title="simulationObjects.PatchBody.get\lPatchHeight">
<polygon fill="white" stroke="black" points="598.5,-0 598.5,-30 771.5,-30 771.5,-0 598.5,-0"/>
<text text-anchor="start" x="606.5" y="-18" font-family="Helvetica,sans-Serif" font-size="10.00">simulationObjects.PatchBody.get</text>
<text text-anchor="middle" x="685" y="-7" font-family="Helvetica,sans-Serif" font-size="10.00">PatchHeight</text>
</a>
</g>
</g>
<!-- Node5&#45;&gt;Node8 -->
<g id="edge7" class="edge"><title>Node5&#45;&gt;Node8</title>
<path fill="none" stroke="midnightblue" d="M541.9,-48.9654C563.84,-43.7211 588.641,-37.7931 611.311,-32.3745"/>
<polygon fill="midnightblue" stroke="midnightblue" points="612.307,-35.7351 621.219,-30.0062 610.679,-28.9269 612.307,-35.7351"/>
</g>
</g>
</svg>
