<?xml version="1.0" encoding="UTF-8" standalone="no"?>
<!DOCTYPE svg PUBLIC "-//W3C//DTD SVG 1.1//EN"
 "http://www.w3.org/Graphics/SVG/1.1/DTD/svg11.dtd">
<!-- Generated by graphviz version 2.36.0 (20140111.2315)
 -->
<!-- Title: controller.Grid.updateAllPatches Pages: 1 -->
<svg width="512pt" height="126pt"
 viewBox="0.00 0.00 512.00 126.00" xmlns="http://www.w3.org/2000/svg" xmlns:xlink="http://www.w3.org/1999/xlink">
<g id="graph0" class="graph" transform="scale(1 1) rotate(0) translate(4 122)">
<title>controller.Grid.updateAllPatches</title>
<polygon fill="white" stroke="none" points="-4,4 -4,-122 508,-122 508,4 -4,4"/>
<!-- Node1 -->
<g id="node1" class="node"><title>Node1</title>
<polygon fill="#bfbfbf" stroke="black" points="0.5,-49 0.5,-79 131.5,-79 131.5,-49 0.5,-49"/>
<text text-anchor="start" x="8.5" y="-67" font-family="Helvetica,sans-Serif" font-size="10.00">controller.Grid.updateAll</text>
<text text-anchor="middle" x="66" y="-56" font-family="Helvetica,sans-Serif" font-size="10.00">Patches</text>
</g>
<!-- Node2 -->
<g id="node2" class="node"><title>Node2</title>
<g id="a_node2"><a xlink:href="../../d7/d97/classcontroller_1_1_grid.html#a5a41921f2cae7b1f0097fce7374aab38" target="_top" xlink:title="controller.Grid.countCell\lInPatch">
<polygon fill="white" stroke="black" points="168.5,-49 168.5,-79 299.5,-79 299.5,-49 168.5,-49"/>
<text text-anchor="start" x="176.5" y="-67" font-family="Helvetica,sans-Serif" font-size="10.00">controller.Grid.countCell</text>
<text text-anchor="middle" x="234" y="-56" font-family="Helvetica,sans-Serif" font-size="10.00">InPatch</text>
</a>
</g>
</g>
<!-- Node1&#45;&gt;Node2 -->
<g id="edge1" class="edge"><title>Node1&#45;&gt;Node2</title>
<path fill="none" stroke="midnightblue" d="M131.655,-64C140.292,-64 149.208,-64 158.003,-64"/>
<polygon fill="midnightblue" stroke="midnightblue" points="158.248,-67.5001 168.248,-64 158.248,-60.5001 158.248,-67.5001"/>
</g>
<!-- Node3 -->
<g id="node3" class="node"><title>Node3</title>
<g id="a_node3"><a xlink:href="../../d5/da5/classsimulation_objects_1_1_patch.html#af1ed13cdf12efa2aa3f2fe887886aa21" target="_top" xlink:title="simulationObjects.Patch.getCell">
<polygon fill="white" stroke="black" points="336.5,-98.5 336.5,-117.5 503.5,-117.5 503.5,-98.5 336.5,-98.5"/>
<text text-anchor="middle" x="420" y="-105.5" font-family="Helvetica,sans-Serif" font-size="10.00">simulationObjects.Patch.getCell</text>
</a>
</g>
</g>
<!-- Node2&#45;&gt;Node3 -->
<g id="edge2" class="edge"><title>Node2&#45;&gt;Node3</title>
<path fill="none" stroke="midnightblue" d="M297.808,-79.0192C321.191,-84.6108 347.38,-90.8735 369.414,-96.1426"/>
<polygon fill="midnightblue" stroke="midnightblue" points="368.681,-99.5658 379.221,-98.4876 370.309,-92.7577 368.681,-99.5658"/>
</g>
<!-- Node4 -->
<g id="node4" class="node"><title>Node4</title>
<g id="a_node4"><a xlink:href="../../d2/d6e/classsimulation_objects_1_1_cell.html#a7d7b09f9e92254d6b2176e8593ce5c21" target="_top" xlink:title="simulationObjects.Cell.get\lState">
<polygon fill="white" stroke="black" points="349.5,-49 349.5,-79 490.5,-79 490.5,-49 349.5,-49"/>
<text text-anchor="start" x="357.5" y="-67" font-family="Helvetica,sans-Serif" font-size="10.00">simulationObjects.Cell.get</text>
<text text-anchor="middle" x="420" y="-56" font-family="Helvetica,sans-Serif" font-size="10.00">State</text>
</a>
</g>
</g>
<!-- Node2&#45;&gt;Node4 -->
<g id="edge3" class="edge"><title>Node2&#45;&gt;Node4</title>
<path fill="none" stroke="midnightblue" d="M299.613,-64C312.403,-64 325.97,-64 339.195,-64"/>
<polygon fill="midnightblue" stroke="midnightblue" points="339.223,-67.5001 349.223,-64 339.223,-60.5001 339.223,-67.5001"/>
</g>
<!-- Node5 -->
<g id="node5" class="node"><title>Node5</title>
<g id="a_node5"><a xlink:href="../../d5/da5/classsimulation_objects_1_1_patch.html#a84e7580a85285441a2caf058f977f237" target="_top" xlink:title="simulationObjects.Patch.is\lEmpty">
<polygon fill="white" stroke="black" points="349,-0 349,-30 491,-30 491,-0 349,-0"/>
<text text-anchor="start" x="357" y="-18" font-family="Helvetica,sans-Serif" font-size="10.00">simulationObjects.Patch.is</text>
<text text-anchor="middle" x="420" y="-7" font-family="Helvetica,sans-Serif" font-size="10.00">Empty</text>
</a>
</g>
</g>
<!-- Node2&#45;&gt;Node5 -->
<g id="edge4" class="edge"><title>Node2&#45;&gt;Node5</title>
<path fill="none" stroke="midnightblue" d="M291.457,-48.9654C310.884,-43.7917 332.811,-37.9525 352.935,-32.5934"/>
<polygon fill="midnightblue" stroke="midnightblue" points="353.888,-35.9617 362.65,-30.0062 352.086,-29.1975 353.888,-35.9617"/>
</g>
</g>
</svg>
