<?xml version="1.0" encoding="UTF-8" standalone="no"?>
<!DOCTYPE svg PUBLIC "-//W3C//DTD SVG 1.1//EN"
 "http://www.w3.org/Graphics/SVG/1.1/DTD/svg11.dtd">
<!-- Generated by graphviz version 2.36.0 (20140111.2315)
 -->
<!-- Title: controller.Grid.getNeighborsAround Pages: 1 -->
<svg width="376pt" height="87pt"
 viewBox="0.00 0.00 376.00 87.00" xmlns="http://www.w3.org/2000/svg" xmlns:xlink="http://www.w3.org/1999/xlink">
<g id="graph0" class="graph" transform="scale(1 1) rotate(0) translate(4 83)">
<title>controller.Grid.getNeighborsAround</title>
<polygon fill="white" stroke="none" points="-4,4 -4,-83 372,-83 372,4 -4,4"/>
<!-- Node1 -->
<g id="node1" class="node"><title>Node1</title>
<polygon fill="#bfbfbf" stroke="black" points="0.5,-24 0.5,-54 151.5,-54 151.5,-24 0.5,-24"/>
<text text-anchor="start" x="8.5" y="-42" font-family="Helvetica,sans-Serif" font-size="10.00">controller.Grid.getNeighbors</text>
<text text-anchor="middle" x="76" y="-31" font-family="Helvetica,sans-Serif" font-size="10.00">Around</text>
</g>
<!-- Node2 -->
<g id="node2" class="node"><title>Node2</title>
<g id="a_node2"><a xlink:href="../../d6/dae/classsimulation_objects_1_1_sugar_patch.html#afac1274ddfe0c5436bf2d27fbc654d03" target="_top" xlink:title="simulationObjects.SugarPatch.get\lNeighbors">
<polygon fill="white" stroke="black" points="188.5,-49 188.5,-79 367.5,-79 367.5,-49 188.5,-49"/>
<text text-anchor="start" x="196.5" y="-67" font-family="Helvetica,sans-Serif" font-size="10.00">simulationObjects.SugarPatch.get</text>
<text text-anchor="middle" x="278" y="-56" font-family="Helvetica,sans-Serif" font-size="10.00">Neighbors</text>
</a>
</g>
</g>
<!-- Node1&#45;&gt;Node2 -->
<g id="edge1" class="edge"><title>Node1&#45;&gt;Node2</title>
<path fill="none" stroke="midnightblue" d="M161.878,-49.6098C170.575,-50.6968 179.428,-51.8035 188.165,-52.8957"/>
<polygon fill="midnightblue" stroke="midnightblue" points="162.114,-46.1121 151.757,-48.3446 161.246,-53.058 162.114,-46.1121"/>
</g>
<!-- Node3 -->
<g id="node3" class="node"><title>Node3</title>
<g id="a_node3"><a xlink:href="../../d5/da5/classsimulation_objects_1_1_patch.html#a5e2fdb2771964ec01e6f2ef50b1dd54e" target="_top" xlink:title="simulationObjects.Patch.get\lNeighbors">
<polygon fill="white" stroke="black" points="203,-0 203,-30 353,-30 353,-0 203,-0"/>
<text text-anchor="start" x="211" y="-18" font-family="Helvetica,sans-Serif" font-size="10.00">simulationObjects.Patch.get</text>
<text text-anchor="middle" x="278" y="-7" font-family="Helvetica,sans-Serif" font-size="10.00">Neighbors</text>
</a>
</g>
</g>
<!-- Node1&#45;&gt;Node3 -->
<g id="edge2" class="edge"><title>Node1&#45;&gt;Node3</title>
<path fill="none" stroke="midnightblue" d="M162.074,-28.7911C175.685,-27.1578 189.673,-25.4793 202.999,-23.8802"/>
<polygon fill="midnightblue" stroke="midnightblue" points="161.269,-25.3626 151.757,-30.0292 162.103,-32.3127 161.269,-25.3626"/>
</g>
</g>
</svg>
