<?xml version="1.0" encoding="UTF-8" standalone="no"?>
<!DOCTYPE svg PUBLIC "-//W3C//DTD SVG 1.1//EN"
 "http://www.w3.org/Graphics/SVG/1.1/DTD/svg11.dtd">
<!-- Generated by graphviz version 2.36.0 (20140111.2315)
 -->
<!-- Title: controller.Grid.getNeighborsAround Pages: 1 -->
<svg width="378pt" height="77pt"
 viewBox="0.00 0.00 378.00 77.00" xmlns="http://www.w3.org/2000/svg" xmlns:xlink="http://www.w3.org/1999/xlink">
<g id="graph0" class="graph" transform="scale(1 1) rotate(0) translate(4 73)">
<title>controller.Grid.getNeighborsAround</title>
<polygon fill="white" stroke="none" points="-4,4 -4,-73 374,-73 374,4 -4,4"/>
<!-- Node1 -->
<g id="node1" class="node"><title>Node1</title>
<polygon fill="#bfbfbf" stroke="black" points="0.5,-17 0.5,-47 151.5,-47 151.5,-17 0.5,-17"/>
<text text-anchor="start" x="8.5" y="-35" font-family="Helvetica,sans-Serif" font-size="10.00">controller.Grid.getNeighbors</text>
<text text-anchor="middle" x="76" y="-24" font-family="Helvetica,sans-Serif" font-size="10.00">Around</text>
</g>
<!-- Node2 -->
<g id="node2" class="node"><title>Node2</title>
<g id="a_node2"><a xlink:href="../../dd/d38/classcontroller_1_1_grid_edge_rules.html#aedf4c70e84eba8d2becdf3dd6c6745e8" target="_top" xlink:title="controller.GridEdgeRules.apply\lRulesAndGetNeighbors">
<polygon fill="white" stroke="black" points="198.5,-39 198.5,-69 359.5,-69 359.5,-39 198.5,-39"/>
<text text-anchor="start" x="206.5" y="-57" font-family="Helvetica,sans-Serif" font-size="10.00">controller.GridEdgeRules.apply</text>
<text text-anchor="middle" x="279" y="-46" font-family="Helvetica,sans-Serif" font-size="10.00">RulesAndGetNeighbors</text>
</a>
</g>
</g>
<!-- Node1&#45;&gt;Node2 -->
<g id="edge1" class="edge"><title>Node1&#45;&gt;Node2</title>
<path fill="none" stroke="midnightblue" d="M151.559,-40.1607C163.43,-41.46 175.819,-42.816 188,-44.1492"/>
<polygon fill="midnightblue" stroke="midnightblue" points="187.846,-47.6532 198.167,-45.2621 188.607,-40.6947 187.846,-47.6532"/>
</g>
<!-- Node3 -->
<g id="node3" class="node"><title>Node3</title>
<g id="a_node3"><a xlink:href="../../de/d7a/classcontroller_1_1_grid_info.html#aef08f2c5d0e8914e1bb285490a144ec5" target="_top" xlink:title="controller.GridInfo.getAdjacentType">
<polygon fill="white" stroke="black" points="188,-0.5 188,-19.5 370,-19.5 370,-0.5 188,-0.5"/>
<text text-anchor="middle" x="279" y="-7.5" font-family="Helvetica,sans-Serif" font-size="10.00">controller.GridInfo.getAdjacentType</text>
</a>
</g>
</g>
<!-- Node1&#45;&gt;Node3 -->
<g id="edge2" class="edge"><title>Node1&#45;&gt;Node3</title>
<path fill="none" stroke="midnightblue" d="M151.559,-23.8393C161.095,-22.7956 170.965,-21.7152 180.794,-20.6395"/>
<polygon fill="midnightblue" stroke="midnightblue" points="181.445,-24.0892 191.005,-19.5219 180.683,-17.1308 181.445,-24.0892"/>
</g>
</g>
</svg>
