<?xml version="1.0" encoding="UTF-8" standalone="no"?>
<!DOCTYPE svg PUBLIC "-//W3C//DTD SVG 1.1//EN"
 "http://www.w3.org/Graphics/SVG/1.1/DTD/svg11.dtd">
<!-- Generated by graphviz version 2.36.0 (20140111.2315)
 -->
<!-- Title: controller.Grid.getCellCounts Pages: 1 -->
<svg width="1386pt" height="102pt"
 viewBox="0.00 0.00 1386.00 102.00" xmlns="http://www.w3.org/2000/svg" xmlns:xlink="http://www.w3.org/1999/xlink">
<g id="graph0" class="graph" transform="scale(1 1) rotate(0) translate(4 98)">
<title>controller.Grid.getCellCounts</title>
<polygon fill="white" stroke="none" points="-4,4 -4,-98 1382,-98 1382,4 -4,4"/>
<!-- Node1 -->
<g id="node1" class="node"><title>Node1</title>
<polygon fill="#bfbfbf" stroke="black" points="0.5,-25.5 0.5,-44.5 153.5,-44.5 153.5,-25.5 0.5,-25.5"/>
<text text-anchor="middle" x="77" y="-32.5" font-family="Helvetica,sans-Serif" font-size="10.00">controller.Grid.getCellCounts</text>
</g>
<!-- Node2 -->
<g id="node2" class="node"><title>Node2</title>
<g id="a_node2"><a xlink:href="../../de/d4d/classcontroller_1_1_simulation_chart.html#aca1714f6b0633c14a2d35c60e50f08b6" target="_top" xlink:title="controller.SimulationChart.plotData">
<polygon fill="white" stroke="black" points="190.5,-25.5 190.5,-44.5 375.5,-44.5 375.5,-25.5 190.5,-25.5"/>
<text text-anchor="middle" x="283" y="-32.5" font-family="Helvetica,sans-Serif" font-size="10.00">controller.SimulationChart.plotData</text>
</a>
</g>
</g>
<!-- Node1&#45;&gt;Node2 -->
<g id="edge1" class="edge"><title>Node1&#45;&gt;Node2</title>
<path fill="none" stroke="midnightblue" d="M163.824,-35C172.549,-35 181.436,-35 190.22,-35"/>
<polygon fill="midnightblue" stroke="midnightblue" points="163.672,-31.5001 153.672,-35 163.672,-38.5001 163.672,-31.5001"/>
</g>
<!-- Node3 -->
<g id="node3" class="node"><title>Node3</title>
<g id="a_node3"><a xlink:href="../../de/d4d/classcontroller_1_1_simulation_chart.html#a64bd87c0d5164cbd5e84dddeba124a6c" target="_top" xlink:title="controller.SimulationChart.update\lDisplay">
<polygon fill="white" stroke="black" points="412,-20 412,-50 590,-50 590,-20 412,-20"/>
<text text-anchor="start" x="420" y="-38" font-family="Helvetica,sans-Serif" font-size="10.00">controller.SimulationChart.update</text>
<text text-anchor="middle" x="501" y="-27" font-family="Helvetica,sans-Serif" font-size="10.00">Display</text>
</a>
</g>
</g>
<!-- Node2&#45;&gt;Node3 -->
<g id="edge2" class="edge"><title>Node2&#45;&gt;Node3</title>
<path fill="none" stroke="midnightblue" d="M385.745,-35C394.416,-35 403.142,-35 411.697,-35"/>
<polygon fill="midnightblue" stroke="midnightblue" points="385.603,-31.5001 375.603,-35 385.603,-38.5001 385.603,-31.5001"/>
</g>
<!-- Node4 -->
<g id="node4" class="node"><title>Node4</title>
<g id="a_node4"><a xlink:href="../../db/d32/classcontroller_1_1_main_controller.html#a73545baf8abf0781ade4a83269de344e" target="_top" xlink:title="controller.MainController.step\lSimulation">
<polygon fill="white" stroke="black" points="626,-20 626,-50 782,-50 782,-20 626,-20"/>
<text text-anchor="start" x="634" y="-38" font-family="Helvetica,sans-Serif" font-size="10.00">controller.MainController.step</text>
<text text-anchor="middle" x="704" y="-27" font-family="Helvetica,sans-Serif" font-size="10.00">Simulation</text>
</a>
</g>
</g>
<!-- Node3&#45;&gt;Node4 -->
<g id="edge3" class="edge"><title>Node3&#45;&gt;Node4</title>
<path fill="none" stroke="midnightblue" d="M600.259,-35C608.882,-35 617.527,-35 625.94,-35"/>
<polygon fill="midnightblue" stroke="midnightblue" points="600.162,-31.5001 590.162,-35 600.161,-38.5001 600.162,-31.5001"/>
</g>
<!-- Node5 -->
<g id="node5" class="node"><title>Node5</title>
<g id="a_node5"><a xlink:href="../../db/ddb/classcontroller_1_1_user_interface.html#a9cf1e21253003993661082c9d42926b2" target="_top" xlink:title="controller.UserInterface.make\lBottomPanel">
<polygon fill="white" stroke="black" points="818,-20 818,-50 976,-50 976,-20 818,-20"/>
<text text-anchor="start" x="826" y="-38" font-family="Helvetica,sans-Serif" font-size="10.00">controller.UserInterface.make</text>
<text text-anchor="middle" x="897" y="-27" font-family="Helvetica,sans-Serif" font-size="10.00">BottomPanel</text>
</a>
</g>
</g>
<!-- Node4&#45;&gt;Node5 -->
<g id="edge4" class="edge"><title>Node4&#45;&gt;Node5</title>
<path fill="none" stroke="midnightblue" d="M792.171,-35C800.768,-35 809.456,-35 817.954,-35"/>
<polygon fill="midnightblue" stroke="midnightblue" points="792.136,-31.5001 782.136,-35 792.136,-38.5001 792.136,-31.5001"/>
</g>
<!-- Node6 -->
<g id="node6" class="node"><title>Node6</title>
<g id="a_node6"><a xlink:href="../../db/ddb/classcontroller_1_1_user_interface.html#a6dd740b89d748c372a5ef9959e1bd7c4" target="_top" xlink:title="controller.UserInterface.\lUserInterface">
<polygon fill="white" stroke="black" points="1024.5,-64 1024.5,-94 1155.5,-94 1155.5,-64 1024.5,-64"/>
<text text-anchor="start" x="1032.5" y="-82" font-family="Helvetica,sans-Serif" font-size="10.00">controller.UserInterface.</text>
<text text-anchor="middle" x="1090" y="-71" font-family="Helvetica,sans-Serif" font-size="10.00">UserInterface</text>
</a>
</g>
</g>
<!-- Node5&#45;&gt;Node6 -->
<g id="edge5" class="edge"><title>Node5&#45;&gt;Node6</title>
<path fill="none" stroke="midnightblue" d="M973.07,-52.2936C990.044,-56.204 1007.92,-60.3224 1024.42,-64.123"/>
<polygon fill="midnightblue" stroke="midnightblue" points="973.728,-48.8535 963.197,-50.0192 972.156,-55.6749 973.728,-48.8535"/>
</g>
<!-- Node7 -->
<g id="node7" class="node"><title>Node7</title>
<g id="a_node7"><a xlink:href="../../db/ddb/classcontroller_1_1_user_interface.html#aad62b84bbc23f683c844ace519feb9d2" target="_top" xlink:title="controller.UserInterface.reset">
<polygon fill="white" stroke="black" points="1012,-25.5 1012,-44.5 1168,-44.5 1168,-25.5 1012,-25.5"/>
<text text-anchor="middle" x="1090" y="-32.5" font-family="Helvetica,sans-Serif" font-size="10.00">controller.UserInterface.reset</text>
</a>
</g>
</g>
<!-- Node5&#45;&gt;Node7 -->
<g id="edge6" class="edge"><title>Node5&#45;&gt;Node7</title>
<path fill="none" stroke="midnightblue" d="M986.495,-35C994.949,-35 1003.48,-35 1011.81,-35"/>
<polygon fill="midnightblue" stroke="midnightblue" points="986.238,-31.5001 976.238,-35 986.238,-38.5001 986.238,-31.5001"/>
</g>
<!-- Node8 -->
<g id="node8" class="node"><title>Node8</title>
<g id="a_node8"><a xlink:href="../../db/d32/classcontroller_1_1_main_controller.html#a7cfedb8e16c6b9d6394054d03193da82" target="_top" xlink:title="controller.MainController.initialize\lSimulationWithData">
<polygon fill="white" stroke="black" points="1204.5,-1 1204.5,-31 1377.5,-31 1377.5,-1 1204.5,-1"/>
<text text-anchor="start" x="1212.5" y="-19" font-family="Helvetica,sans-Serif" font-size="10.00">controller.MainController.initialize</text>
<text text-anchor="middle" x="1291" y="-8" font-family="Helvetica,sans-Serif" font-size="10.00">SimulationWithData</text>
</a>
</g>
</g>
<!-- Node7&#45;&gt;Node8 -->
<g id="edge7" class="edge"><title>Node7&#45;&gt;Node8</title>
<path fill="none" stroke="midnightblue" d="M1178.27,-26.6679C1186.89,-25.845 1195.63,-25.0103 1204.23,-24.1889"/>
<polygon fill="midnightblue" stroke="midnightblue" points="1177.85,-23.1922 1168.22,-27.6269 1178.51,-30.1605 1177.85,-23.1922"/>
</g>
<!-- Node8&#45;&gt;Node5 -->
<g id="edge8" class="edge"><title>Node8&#45;&gt;Node5</title>
<path fill="none" stroke="midnightblue" d="M1194.18,-12.1096C1140.52,-10.9063 1072.44,-10.998 1012,-16 1000.4,-16.9599 988.208,-18.4601 976.283,-20.2065"/>
<polygon fill="midnightblue" stroke="midnightblue" points="1194.29,-15.6132 1204.37,-12.3574 1194.46,-8.61523 1194.29,-15.6132"/>
</g>
</g>
</svg>
