<?xml version="1.0" encoding="UTF-8" standalone="no"?>
<!DOCTYPE svg PUBLIC "-//W3C//DTD SVG 1.1//EN"
 "http://www.w3.org/Graphics/SVG/1.1/DTD/svg11.dtd">
<!-- Generated by graphviz version 2.36.0 (20140111.2315)
 -->
<!-- Title: controller.Grid.updateGrid Pages: 1 -->
<svg width="690pt" height="185pt"
 viewBox="0.00 0.00 690.00 185.00" xmlns="http://www.w3.org/2000/svg" xmlns:xlink="http://www.w3.org/1999/xlink">
<g id="graph0" class="graph" transform="scale(1 1) rotate(0) translate(4 181)">
<title>controller.Grid.updateGrid</title>
<polygon fill="white" stroke="none" points="-4,4 -4,-181 686,-181 686,4 -4,4"/>
<!-- Node1 -->
<g id="node1" class="node"><title>Node1</title>
<polygon fill="#bfbfbf" stroke="black" points="0,-103.5 0,-122.5 140,-122.5 140,-103.5 0,-103.5"/>
<text text-anchor="middle" x="70" y="-110.5" font-family="Helvetica,sans-Serif" font-size="10.00">controller.Grid.updateGrid</text>
</g>
<!-- Node2 -->
<g id="node2" class="node"><title>Node2</title>
<g id="a_node2"><a xlink:href="../../d7/d97/classcontroller_1_1_grid.html#aba9b0cc8014549df640cefa226befb9e" target="_top" xlink:title="controller.Grid.prepareTo\lUpdateAllPatches">
<polygon fill="white" stroke="black" points="176,-147 176,-177 310,-177 310,-147 176,-147"/>
<text text-anchor="start" x="184" y="-165" font-family="Helvetica,sans-Serif" font-size="10.00">controller.Grid.prepareTo</text>
<text text-anchor="middle" x="243" y="-154" font-family="Helvetica,sans-Serif" font-size="10.00">UpdateAllPatches</text>
</a>
</g>
</g>
<!-- Node1&#45;&gt;Node2 -->
<g id="edge1" class="edge"><title>Node1&#45;&gt;Node2</title>
<path fill="none" stroke="midnightblue" d="M104.376,-122.564C125.837,-128.713 154.381,-136.893 179.909,-144.208"/>
<polygon fill="midnightblue" stroke="midnightblue" points="178.947,-147.573 189.524,-146.963 180.875,-140.844 178.947,-147.573"/>
</g>
<!-- Node3 -->
<g id="node3" class="node"><title>Node3</title>
<g id="a_node3"><a xlink:href="../../d7/d97/classcontroller_1_1_grid.html#a1bdb65a9f8f0bc0475a59f32b1f5f4b1" target="_top" xlink:title="controller.Grid.resetCell\lCounts">
<polygon fill="white" stroke="black" points="179,-98 179,-128 307,-128 307,-98 179,-98"/>
<text text-anchor="start" x="187" y="-116" font-family="Helvetica,sans-Serif" font-size="10.00">controller.Grid.resetCell</text>
<text text-anchor="middle" x="243" y="-105" font-family="Helvetica,sans-Serif" font-size="10.00">Counts</text>
</a>
</g>
</g>
<!-- Node1&#45;&gt;Node3 -->
<g id="edge2" class="edge"><title>Node1&#45;&gt;Node3</title>
<path fill="none" stroke="midnightblue" d="M140.059,-113C149.453,-113 159.122,-113 168.589,-113"/>
<polygon fill="midnightblue" stroke="midnightblue" points="168.761,-116.5 178.761,-113 168.761,-109.5 168.761,-116.5"/>
</g>
<!-- Node4 -->
<g id="node4" class="node"><title>Node4</title>
<g id="a_node4"><a xlink:href="../../d7/d97/classcontroller_1_1_grid.html#a2cbf0a87e05ced6bd01a6ca01542b948" target="_top" xlink:title="controller.Grid.updateAll\lPatches">
<polygon fill="white" stroke="black" points="177.5,-49 177.5,-79 308.5,-79 308.5,-49 177.5,-49"/>
<text text-anchor="start" x="185.5" y="-67" font-family="Helvetica,sans-Serif" font-size="10.00">controller.Grid.updateAll</text>
<text text-anchor="middle" x="243" y="-56" font-family="Helvetica,sans-Serif" font-size="10.00">Patches</text>
</a>
</g>
</g>
<!-- Node1&#45;&gt;Node4 -->
<g id="edge3" class="edge"><title>Node1&#45;&gt;Node4</title>
<path fill="none" stroke="midnightblue" d="M104.376,-103.436C125.837,-97.2866 154.381,-89.1072 179.909,-81.7922"/>
<polygon fill="midnightblue" stroke="midnightblue" points="180.875,-85.1563 189.524,-79.037 178.947,-78.4271 180.875,-85.1563"/>
</g>
<!-- Node5 -->
<g id="node5" class="node"><title>Node5</title>
<g id="a_node5"><a xlink:href="../../d7/d97/classcontroller_1_1_grid.html#a5a41921f2cae7b1f0097fce7374aab38" target="_top" xlink:title="controller.Grid.countCell\lInPatch">
<polygon fill="white" stroke="black" points="346.5,-49 346.5,-79 477.5,-79 477.5,-49 346.5,-49"/>
<text text-anchor="start" x="354.5" y="-67" font-family="Helvetica,sans-Serif" font-size="10.00">controller.Grid.countCell</text>
<text text-anchor="middle" x="412" y="-56" font-family="Helvetica,sans-Serif" font-size="10.00">InPatch</text>
</a>
</g>
</g>
<!-- Node4&#45;&gt;Node5 -->
<g id="edge4" class="edge"><title>Node4&#45;&gt;Node5</title>
<path fill="none" stroke="midnightblue" d="M308.567,-64C317.569,-64 326.882,-64 336.056,-64"/>
<polygon fill="midnightblue" stroke="midnightblue" points="336.33,-67.5001 346.33,-64 336.33,-60.5001 336.33,-67.5001"/>
</g>
<!-- Node6 -->
<g id="node6" class="node"><title>Node6</title>
<g id="a_node6"><a xlink:href="../../d5/da5/classsimulation_objects_1_1_patch.html#af1ed13cdf12efa2aa3f2fe887886aa21" target="_top" xlink:title="simulationObjects.Patch.getCell">
<polygon fill="white" stroke="black" points="514.5,-98.5 514.5,-117.5 681.5,-117.5 681.5,-98.5 514.5,-98.5"/>
<text text-anchor="middle" x="598" y="-105.5" font-family="Helvetica,sans-Serif" font-size="10.00">simulationObjects.Patch.getCell</text>
</a>
</g>
</g>
<!-- Node5&#45;&gt;Node6 -->
<g id="edge5" class="edge"><title>Node5&#45;&gt;Node6</title>
<path fill="none" stroke="midnightblue" d="M475.808,-79.0192C499.191,-84.6108 525.38,-90.8735 547.414,-96.1426"/>
<polygon fill="midnightblue" stroke="midnightblue" points="546.681,-99.5658 557.221,-98.4876 548.309,-92.7577 546.681,-99.5658"/>
</g>
<!-- Node7 -->
<g id="node7" class="node"><title>Node7</title>
<g id="a_node7"><a xlink:href="../../d2/d6e/classsimulation_objects_1_1_cell.html#a7d7b09f9e92254d6b2176e8593ce5c21" target="_top" xlink:title="simulationObjects.Cell.get\lState">
<polygon fill="white" stroke="black" points="527.5,-49 527.5,-79 668.5,-79 668.5,-49 527.5,-49"/>
<text text-anchor="start" x="535.5" y="-67" font-family="Helvetica,sans-Serif" font-size="10.00">simulationObjects.Cell.get</text>
<text text-anchor="middle" x="598" y="-56" font-family="Helvetica,sans-Serif" font-size="10.00">State</text>
</a>
</g>
</g>
<!-- Node5&#45;&gt;Node7 -->
<g id="edge6" class="edge"><title>Node5&#45;&gt;Node7</title>
<path fill="none" stroke="midnightblue" d="M477.613,-64C490.403,-64 503.97,-64 517.195,-64"/>
<polygon fill="midnightblue" stroke="midnightblue" points="517.223,-67.5001 527.223,-64 517.223,-60.5001 517.223,-67.5001"/>
</g>
<!-- Node8 -->
<g id="node8" class="node"><title>Node8</title>
<g id="a_node8"><a xlink:href="../../d5/da5/classsimulation_objects_1_1_patch.html#a84e7580a85285441a2caf058f977f237" target="_top" xlink:title="simulationObjects.Patch.is\lEmpty">
<polygon fill="white" stroke="black" points="527,-0 527,-30 669,-30 669,-0 527,-0"/>
<text text-anchor="start" x="535" y="-18" font-family="Helvetica,sans-Serif" font-size="10.00">simulationObjects.Patch.is</text>
<text text-anchor="middle" x="598" y="-7" font-family="Helvetica,sans-Serif" font-size="10.00">Empty</text>
</a>
</g>
</g>
<!-- Node5&#45;&gt;Node8 -->
<g id="edge7" class="edge"><title>Node5&#45;&gt;Node8</title>
<path fill="none" stroke="midnightblue" d="M469.457,-48.9654C488.884,-43.7917 510.811,-37.9525 530.935,-32.5934"/>
<polygon fill="midnightblue" stroke="midnightblue" points="531.888,-35.9617 540.65,-30.0062 530.086,-29.1975 531.888,-35.9617"/>
</g>
</g>
</svg>
