<?xml version="1.0" encoding="UTF-8" standalone="no"?>
<!DOCTYPE svg PUBLIC "-//W3C//DTD SVG 1.1//EN"
 "http://www.w3.org/Graphics/SVG/1.1/DTD/svg11.dtd">
<!-- Generated by graphviz version 2.36.0 (20140111.2315)
 -->
<!-- Title: controller.Grid.countCellInPatch Pages: 1 -->
<svg width="344pt" height="126pt"
 viewBox="0.00 0.00 344.00 126.00" xmlns="http://www.w3.org/2000/svg" xmlns:xlink="http://www.w3.org/1999/xlink">
<g id="graph0" class="graph" transform="scale(1 1) rotate(0) translate(4 122)">
<title>controller.Grid.countCellInPatch</title>
<polygon fill="white" stroke="none" points="-4,4 -4,-122 340,-122 340,4 -4,4"/>
<!-- Node1 -->
<g id="node1" class="node"><title>Node1</title>
<polygon fill="#bfbfbf" stroke="black" points="0.5,-49 0.5,-79 131.5,-79 131.5,-49 0.5,-49"/>
<text text-anchor="start" x="8.5" y="-67" font-family="Helvetica,sans-Serif" font-size="10.00">controller.Grid.countCell</text>
<text text-anchor="middle" x="66" y="-56" font-family="Helvetica,sans-Serif" font-size="10.00">InPatch</text>
</g>
<!-- Node2 -->
<g id="node2" class="node"><title>Node2</title>
<g id="a_node2"><a xlink:href="../../d5/da5/classsimulation_objects_1_1_patch.html#af1ed13cdf12efa2aa3f2fe887886aa21" target="_top" xlink:title="simulationObjects.Patch.getCell">
<polygon fill="white" stroke="black" points="168.5,-98.5 168.5,-117.5 335.5,-117.5 335.5,-98.5 168.5,-98.5"/>
<text text-anchor="middle" x="252" y="-105.5" font-family="Helvetica,sans-Serif" font-size="10.00">simulationObjects.Patch.getCell</text>
</a>
</g>
</g>
<!-- Node1&#45;&gt;Node2 -->
<g id="edge1" class="edge"><title>Node1&#45;&gt;Node2</title>
<path fill="none" stroke="midnightblue" d="M129.808,-79.0192C153.191,-84.6108 179.38,-90.8735 201.414,-96.1426"/>
<polygon fill="midnightblue" stroke="midnightblue" points="200.681,-99.5658 211.221,-98.4876 202.309,-92.7577 200.681,-99.5658"/>
</g>
<!-- Node3 -->
<g id="node3" class="node"><title>Node3</title>
<g id="a_node3"><a xlink:href="../../d2/d6e/classsimulation_objects_1_1_cell.html#a7d7b09f9e92254d6b2176e8593ce5c21" target="_top" xlink:title="simulationObjects.Cell.get\lState">
<polygon fill="white" stroke="black" points="181.5,-49 181.5,-79 322.5,-79 322.5,-49 181.5,-49"/>
<text text-anchor="start" x="189.5" y="-67" font-family="Helvetica,sans-Serif" font-size="10.00">simulationObjects.Cell.get</text>
<text text-anchor="middle" x="252" y="-56" font-family="Helvetica,sans-Serif" font-size="10.00">State</text>
</a>
</g>
</g>
<!-- Node1&#45;&gt;Node3 -->
<g id="edge2" class="edge"><title>Node1&#45;&gt;Node3</title>
<path fill="none" stroke="midnightblue" d="M131.613,-64C144.403,-64 157.97,-64 171.195,-64"/>
<polygon fill="midnightblue" stroke="midnightblue" points="171.223,-67.5001 181.223,-64 171.223,-60.5001 171.223,-67.5001"/>
</g>
<!-- Node4 -->
<g id="node4" class="node"><title>Node4</title>
<g id="a_node4"><a xlink:href="../../d5/da5/classsimulation_objects_1_1_patch.html#a84e7580a85285441a2caf058f977f237" target="_top" xlink:title="simulationObjects.Patch.is\lEmpty">
<polygon fill="white" stroke="black" points="181,-0 181,-30 323,-30 323,-0 181,-0"/>
<text text-anchor="start" x="189" y="-18" font-family="Helvetica,sans-Serif" font-size="10.00">simulationObjects.Patch.is</text>
<text text-anchor="middle" x="252" y="-7" font-family="Helvetica,sans-Serif" font-size="10.00">Empty</text>
</a>
</g>
</g>
<!-- Node1&#45;&gt;Node4 -->
<g id="edge3" class="edge"><title>Node1&#45;&gt;Node4</title>
<path fill="none" stroke="midnightblue" d="M123.457,-48.9654C142.884,-43.7917 164.811,-37.9525 184.935,-32.5934"/>
<polygon fill="midnightblue" stroke="midnightblue" points="185.888,-35.9617 194.65,-30.0062 184.086,-29.1975 185.888,-35.9617"/>
</g>
</g>
</svg>
