<?xml version="1.0" encoding="UTF-8" standalone="no"?>
<!DOCTYPE svg PUBLIC "-//W3C//DTD SVG 1.1//EN"
 "http://www.w3.org/Graphics/SVG/1.1/DTD/svg11.dtd">
<!-- Generated by graphviz version 2.36.0 (20140111.2315)
 -->
<!-- Title: simulationObjects.SegCell.update Pages: 1 -->
<!--zoomable 224 -->
<svg id="main" version="1.1" xmlns="http://www.w3.org/2000/svg" xmlns:xlink="http://www.w3.org/1999/xlink" xml:space="preserve" onload="init(evt)">
<style type="text/css"><![CDATA[
.edge:hover path { stroke: red; }
.edge:hover polygon { stroke: red; fill: red; }
]]></style>
<script type="text/javascript"><![CDATA[
var edges = document.getElementsByTagName('g');
if (edges && edges.length) {
  for (var i=0;i<edges.length;i++) {
    if (edges[i].id.substr(0,4)=='edge') {
      edges[i].setAttribute('class','edge');
    }
  }
}
]]></script>
        <defs>
                <circle id="rim" cx="0" cy="0" r="7"/>
                <circle id="rim2" cx="0" cy="0" r="3.5"/>
                <g id="zoomPlus">
                        <use xlink:href="#rim" fill="#404040">
                                <set attributeName="fill" to="#808080" begin="zoomplus.mouseover" end="zoomplus.mouseout"/>
                        </use>
                        <path d="M-4,0h8M0,-4v8" fill="none" stroke="white" stroke-width="1.5" pointer-events="none"/>
                </g>
                <g id="zoomMin">
                        <use xlink:href="#rim" fill="#404040">
                                <set attributeName="fill" to="#808080" begin="zoomminus.mouseover" end="zoomminus.mouseout"/>
                        </use>
                        <path d="M-4,0h8" fill="none" stroke="white" stroke-width="1.5" pointer-events="none"/>
                </g>
                <g id="dirArrow">
                        <path fill="none" stroke="white" stroke-width="1.5" d="M0,-3.0v7 M-2.5,-0.5L0,-3.0L2.5,-0.5"/>
                </g>
               <g id="resetDef">
                       <use xlink:href="#rim2" fill="#404040">
                               <set attributeName="fill" to="#808080" begin="reset.mouseover" end="reset.mouseout"/>
                       </use>
               </g>
        </defs>

<script type="text/javascript">
var viewWidth = 826;
var viewHeight = 224;
var sectionId = 'dynsection-5';
</script>
<script xlink:href="../../svgpan.js"/>
<svg id="graph" class="graph">
<g id="viewport">
<title>simulationObjects.SegCell.update</title>
<polygon fill="white" stroke="none" points="-4,4 -4,-220 822,-220 822,4 -4,4"/>
<!-- Node1 -->
<g id="node1" class="node"><title>Node1</title>
<polygon fill="#bfbfbf" stroke="black" points="0,-120.5 0,-139.5 178,-139.5 178,-120.5 0,-120.5"/>
<text text-anchor="middle" x="89" y="-127.5" font-family="Helvetica,sans-Serif" font-size="10.00">simulationObjects.SegCell.update</text>
</g>
<!-- Node2 -->
<g id="node2" class="node"><title>Node2</title>
<g id="a_node2"><a xlink:href="../../d5/da5/classsimulation_objects_1_1_patch.html#ac05b7dd86c9f30b498d93d62cbbba9a4" target="_top" xlink:title="simulationObjects.Patch.addCell">
<polygon fill="white" stroke="black" points="214,-142.5 214,-161.5 384,-161.5 384,-142.5 214,-142.5"/>
<text text-anchor="middle" x="299" y="-149.5" font-family="Helvetica,sans-Serif" font-size="10.00">simulationObjects.Patch.addCell</text>
</a>
</g>
</g>
<!-- Node1&#45;&gt;Node2 -->
<g id="edge1" class="edge"><title>Node1&#45;&gt;Node2</title>
<path fill="none" stroke="midnightblue" d="M178.211,-139.33C186.726,-140.231 195.386,-141.147 203.955,-142.053"/>
<polygon fill="midnightblue" stroke="midnightblue" points="203.645,-145.54 213.958,-143.111 204.382,-138.578 203.645,-145.54"/>
</g>
<!-- Node3 -->
<g id="node3" class="node"><title>Node3</title>
<g id="a_node3"><a xlink:href="../../d5/da5/classsimulation_objects_1_1_patch.html#ac18f8e7cdd82ed885a6a92f066da2d38" target="_top" xlink:title="simulationObjects.Patch.removeCell">
<polygon fill="white" stroke="black" points="420,-186.5 420,-205.5 608,-205.5 608,-186.5 420,-186.5"/>
<text text-anchor="middle" x="514" y="-193.5" font-family="Helvetica,sans-Serif" font-size="10.00">simulationObjects.Patch.removeCell</text>
</a>
</g>
</g>
<!-- Node1&#45;&gt;Node3 -->
<g id="edge12" class="edge"><title>Node1&#45;&gt;Node3</title>
<path fill="none" stroke="midnightblue" d="M113.321,-139.552C137.914,-149.186 178.01,-163.653 214,-171 278.277,-184.121 351.674,-190.383 409.662,-193.359"/>
<polygon fill="midnightblue" stroke="midnightblue" points="409.776,-196.868 419.935,-193.86 410.117,-189.877 409.776,-196.868"/>
</g>
<!-- Node8 -->
<g id="node8" class="node"><title>Node8</title>
<g id="a_node8"><a xlink:href="../../d5/da5/classsimulation_objects_1_1_patch.html#a300c3a7c9ec3846d49b77af3fb7a6110" target="_top" xlink:title="simulationObjects.Patch.get\lRandomEmptyPatch">
<polygon fill="white" stroke="black" points="224,-93 224,-123 374,-123 374,-93 224,-93"/>
<text text-anchor="start" x="232" y="-111" font-family="Helvetica,sans-Serif" font-size="10.00">simulationObjects.Patch.get</text>
<text text-anchor="middle" x="299" y="-100" font-family="Helvetica,sans-Serif" font-size="10.00">RandomEmptyPatch</text>
</a>
</g>
</g>
<!-- Node1&#45;&gt;Node8 -->
<g id="edge7" class="edge"><title>Node1&#45;&gt;Node8</title>
<path fill="none" stroke="midnightblue" d="M178.211,-120.67C189.943,-119.429 201.95,-118.159 213.615,-116.925"/>
<polygon fill="midnightblue" stroke="midnightblue" points="214.187,-120.384 223.763,-115.852 213.45,-113.423 214.187,-120.384"/>
</g>
<!-- Node10 -->
<g id="node10" class="node"><title>Node10</title>
<g id="a_node10"><a xlink:href="../../db/d5f/classsimulation_objects_1_1_seg_cell.html#afd4f85d8f558e742758c119c8c4d30a4" target="_top" xlink:title="simulationObjects.SegCell.is\lSatisfied">
<polygon fill="white" stroke="black" points="223,-44 223,-74 375,-74 375,-44 223,-44"/>
<text text-anchor="start" x="231" y="-62" font-family="Helvetica,sans-Serif" font-size="10.00">simulationObjects.SegCell.is</text>
<text text-anchor="middle" x="299" y="-51" font-family="Helvetica,sans-Serif" font-size="10.00">Satisfied</text>
</a>
</g>
</g>
<!-- Node1&#45;&gt;Node10 -->
<g id="edge9" class="edge"><title>Node1&#45;&gt;Node10</title>
<path fill="none" stroke="midnightblue" d="M113.56,-120.393C138.348,-110.445 178.601,-94.7427 214,-83 220.046,-80.9944 226.369,-79.0008 232.716,-77.0694"/>
<polygon fill="midnightblue" stroke="midnightblue" points="234.094,-80.3106 242.672,-74.0927 232.089,-73.604 234.094,-80.3106"/>
</g>
<!-- Node2&#45;&gt;Node3 -->
<g id="edge2" class="edge"><title>Node2&#45;&gt;Node3</title>
<path fill="none" stroke="midnightblue" d="M346.218,-161.547C378.735,-168.265 422.432,-177.291 456.941,-184.42"/>
<polygon fill="midnightblue" stroke="midnightblue" points="456.371,-187.876 466.872,-186.471 457.787,-181.021 456.371,-187.876"/>
</g>
<!-- Node4 -->
<g id="node4" class="node"><title>Node4</title>
<g id="a_node4"><a xlink:href="../../d5/da5/classsimulation_objects_1_1_patch.html#a06f00537a57f3678cf147c580b92de0d" target="_top" xlink:title="simulationObjects.Patch.update\lCellConstraints">
<polygon fill="white" stroke="black" points="430,-137 430,-167 598,-167 598,-137 430,-137"/>
<text text-anchor="start" x="438" y="-155" font-family="Helvetica,sans-Serif" font-size="10.00">simulationObjects.Patch.update</text>
<text text-anchor="middle" x="514" y="-144" font-family="Helvetica,sans-Serif" font-size="10.00">CellConstraints</text>
</a>
</g>
</g>
<!-- Node2&#45;&gt;Node4 -->
<g id="edge3" class="edge"><title>Node2&#45;&gt;Node4</title>
<path fill="none" stroke="midnightblue" d="M384.183,-152C395.785,-152 407.757,-152 419.514,-152"/>
<polygon fill="midnightblue" stroke="midnightblue" points="419.776,-155.5 429.776,-152 419.776,-148.5 419.776,-155.5"/>
</g>
<!-- Node5 -->
<g id="node5" class="node"><title>Node5</title>
<g id="a_node5"><a xlink:href="../../d0/d1a/classsimulation_objects_1_1_patch_body.html#a7be1762ade4eaee79c26ac524eb97f33" target="_top" xlink:title="simulationObjects.PatchBody.get\lCenter">
<polygon fill="white" stroke="black" points="644.5,-186 644.5,-216 817.5,-216 817.5,-186 644.5,-186"/>
<text text-anchor="start" x="652.5" y="-204" font-family="Helvetica,sans-Serif" font-size="10.00">simulationObjects.PatchBody.get</text>
<text text-anchor="middle" x="731" y="-193" font-family="Helvetica,sans-Serif" font-size="10.00">Center</text>
</a>
</g>
</g>
<!-- Node4&#45;&gt;Node5 -->
<g id="edge4" class="edge"><title>Node4&#45;&gt;Node5</title>
<path fill="none" stroke="midnightblue" d="M580.968,-167.035C604.185,-172.326 630.456,-178.313 654.404,-183.771"/>
<polygon fill="midnightblue" stroke="midnightblue" points="653.629,-187.184 664.157,-185.994 655.184,-180.359 653.629,-187.184"/>
</g>
<!-- Node6 -->
<g id="node6" class="node"><title>Node6</title>
<g id="a_node6"><a xlink:href="../../d0/d1a/classsimulation_objects_1_1_patch_body.html#a268e88a7cb1f5feb98f49e230475c2ba" target="_top" xlink:title="simulationObjects.PatchBody.get\lPatchHeight">
<polygon fill="white" stroke="black" points="644.5,-137 644.5,-167 817.5,-167 817.5,-137 644.5,-137"/>
<text text-anchor="start" x="652.5" y="-155" font-family="Helvetica,sans-Serif" font-size="10.00">simulationObjects.PatchBody.get</text>
<text text-anchor="middle" x="731" y="-144" font-family="Helvetica,sans-Serif" font-size="10.00">PatchHeight</text>
</a>
</g>
</g>
<!-- Node4&#45;&gt;Node6 -->
<g id="edge5" class="edge"><title>Node4&#45;&gt;Node6</title>
<path fill="none" stroke="midnightblue" d="M598.125,-152C609.941,-152 622.173,-152 634.206,-152"/>
<polygon fill="midnightblue" stroke="midnightblue" points="634.254,-155.5 644.254,-152 634.254,-148.5 634.254,-155.5"/>
</g>
<!-- Node7 -->
<g id="node7" class="node"><title>Node7</title>
<g id="a_node7"><a xlink:href="../../d0/d1a/classsimulation_objects_1_1_patch_body.html#a466dadbe30fb2f8360163881e0db9295" target="_top" xlink:title="simulationObjects.PatchBody.get\lPatchWidth">
<polygon fill="white" stroke="black" points="644.5,-88 644.5,-118 817.5,-118 817.5,-88 644.5,-88"/>
<text text-anchor="start" x="652.5" y="-106" font-family="Helvetica,sans-Serif" font-size="10.00">simulationObjects.PatchBody.get</text>
<text text-anchor="middle" x="731" y="-95" font-family="Helvetica,sans-Serif" font-size="10.00">PatchWidth</text>
</a>
</g>
</g>
<!-- Node4&#45;&gt;Node7 -->
<g id="edge6" class="edge"><title>Node4&#45;&gt;Node7</title>
<path fill="none" stroke="midnightblue" d="M580.968,-136.965C604.185,-131.674 630.456,-125.687 654.404,-120.229"/>
<polygon fill="midnightblue" stroke="midnightblue" points="655.184,-123.641 664.157,-118.006 653.629,-116.816 655.184,-123.641"/>
</g>
<!-- Node9 -->
<g id="node9" class="node"><title>Node9</title>
<g id="a_node9"><a xlink:href="../../d7/d97/classcontroller_1_1_grid.html#a3836cf794f6d28c6616c6bf81e6eb413" target="_top" xlink:title="controller.Grid.findEmpty\lPatch">
<polygon fill="white" stroke="black" points="447,-88 447,-118 581,-118 581,-88 447,-88"/>
<text text-anchor="start" x="455" y="-106" font-family="Helvetica,sans-Serif" font-size="10.00">controller.Grid.findEmpty</text>
<text text-anchor="middle" x="514" y="-95" font-family="Helvetica,sans-Serif" font-size="10.00">Patch</text>
</a>
</g>
</g>
<!-- Node8&#45;&gt;Node9 -->
<g id="edge8" class="edge"><title>Node8&#45;&gt;Node9</title>
<path fill="none" stroke="midnightblue" d="M374.198,-106.258C394.432,-105.783 416.384,-105.268 436.73,-104.79"/>
<polygon fill="midnightblue" stroke="midnightblue" points="436.975,-108.286 446.89,-104.552 436.81,-101.288 436.975,-108.286"/>
</g>
<!-- Node11 -->
<g id="node11" class="node"><title>Node11</title>
<g id="a_node11"><a xlink:href="../../d5/da5/classsimulation_objects_1_1_patch.html#af1ed13cdf12efa2aa3f2fe887886aa21" target="_top" xlink:title="simulationObjects.Patch.getCell">
<polygon fill="white" stroke="black" points="430.5,-49.5 430.5,-68.5 597.5,-68.5 597.5,-49.5 430.5,-49.5"/>
<text text-anchor="middle" x="514" y="-56.5" font-family="Helvetica,sans-Serif" font-size="10.00">simulationObjects.Patch.getCell</text>
</a>
</g>
</g>
<!-- Node10&#45;&gt;Node11 -->
<g id="edge10" class="edge"><title>Node10&#45;&gt;Node11</title>
<path fill="none" stroke="midnightblue" d="M375.096,-59C389.596,-59 404.949,-59 419.941,-59"/>
<polygon fill="midnightblue" stroke="midnightblue" points="420.247,-62.5001 430.247,-59 420.247,-55.5001 420.247,-62.5001"/>
</g>
<!-- Node12 -->
<g id="node12" class="node"><title>Node12</title>
<g id="a_node12"><a xlink:href="../../d2/d6e/classsimulation_objects_1_1_cell.html#ab7b10d67ea8a16bcb15cc2b8d079b3a1" target="_top" xlink:title="simulationObjects.Cell.set\lState">
<polygon fill="white" stroke="black" points="444,-0 444,-30 584,-30 584,-0 444,-0"/>
<text text-anchor="start" x="452" y="-18" font-family="Helvetica,sans-Serif" font-size="10.00">simulationObjects.Cell.set</text>
<text text-anchor="middle" x="514" y="-7" font-family="Helvetica,sans-Serif" font-size="10.00">State</text>
</a>
</g>
</g>
<!-- Node10&#45;&gt;Node12 -->
<g id="edge11" class="edge"><title>Node10&#45;&gt;Node12</title>
<path fill="none" stroke="midnightblue" d="M372.707,-43.9808C392.399,-39.913 413.81,-35.49 433.838,-31.3528"/>
<polygon fill="midnightblue" stroke="midnightblue" points="434.77,-34.7341 443.855,-29.2834 433.354,-27.8789 434.77,-34.7341"/>
</g>
</g>
</svg>
        <g id="navigator" transform="translate(0 0)" fill="#404254">
                <rect fill="#f2f5e9" fill-opacity="0.5" stroke="#606060" stroke-width=".5" x="0" y="0" width="60" height="60"/>
                <use id="zoomplus" xlink:href="#zoomPlus" x="17" y="9" onmousedown="handleZoom(evt,'in')"/>
                <use id="zoomminus" xlink:href="#zoomMin" x="42" y="9" onmousedown="handleZoom(evt,'out')"/>
                <use id="reset" xlink:href="#resetDef" x="30" y="36" onmousedown="handleReset()"/>
                <g id="arrowUp" xlink:href="#dirArrow" transform="translate(30 24)" onmousedown="handlePan(0,-1)">
                  <use xlink:href="#rim" fill="#404040">
                        <set attributeName="fill" to="#808080" begin="arrowUp.mouseover" end="arrowUp.mouseout"/>
                  </use>
                  <path fill="none" stroke="white" stroke-width="1.5" d="M0,-3.0v7 M-2.5,-0.5L0,-3.0L2.5,-0.5"/>
                </g>
                <g id="arrowRight" xlink:href="#dirArrow" transform="rotate(90) translate(36 -43)" onmousedown="handlePan(1,0)">
                  <use xlink:href="#rim" fill="#404040">
                        <set attributeName="fill" to="#808080" begin="arrowRight.mouseover" end="arrowRight.mouseout"/>
                  </use>
                  <path fill="none" stroke="white" stroke-width="1.5" d="M0,-3.0v7 M-2.5,-0.5L0,-3.0L2.5,-0.5"/>
                </g>
                <g id="arrowDown" xlink:href="#dirArrow" transform="rotate(180) translate(-30 -48)" onmousedown="handlePan(0,1)">
                  <use xlink:href="#rim" fill="#404040">
                        <set attributeName="fill" to="#808080" begin="arrowDown.mouseover" end="arrowDown.mouseout"/>
                  </use>
                  <path fill="none" stroke="white" stroke-width="1.5" d="M0,-3.0v7 M-2.5,-0.5L0,-3.0L2.5,-0.5"/>
                </g>
                <g id="arrowLeft" xlink:href="#dirArrow" transform="rotate(270) translate(-36 17)" onmousedown="handlePan(-1,0)">
                  <use xlink:href="#rim" fill="#404040">
                        <set attributeName="fill" to="#808080" begin="arrowLeft.mouseover" end="arrowLeft.mouseout"/>
                  </use>
                  <path fill="none" stroke="white" stroke-width="1.5" d="M0,-3.0v7 M-2.5,-0.5L0,-3.0L2.5,-0.5"/>
                </g>
        </g>
        <svg viewBox="0 0 15 15" width="100%" height="30px" preserveAspectRatio="xMaxYMin meet">
         <g id="arrow_out" transform="scale(0.3 0.3)">
          <a xlink:href="classsimulation_objects_1_1_seg_cell_a9d7bc36bf15d97456e59afed1a19e460_cgraph_org.svg" target="_base">
           <rect id="button" ry="5" rx="5" y="6" x="6" height="38" width="38"
                fill="#f2f5e9" fill-opacity="0.5" stroke="#606060" stroke-width="1.0"/>
           <path id="arrow"
             d="M 11.500037,31.436501 C 11.940474,20.09759 22.043105,11.32322 32.158766,21.979434 L 37.068811,17.246167 C 37.068811,17.246167 37.088388,32 37.088388,32 L 22.160133,31.978069 C 22.160133,31.978069 26.997745,27.140456 26.997745,27.140456 C 18.528582,18.264221 13.291696,25.230495 11.500037,31.436501 z"
             style="fill:#404040;"/>
          </a>
         </g>
        </svg>
</svg>
