<?xml version="1.0" encoding="UTF-8" standalone="no"?>
<!DOCTYPE svg PUBLIC "-//W3C//DTD SVG 1.1//EN"
 "http://www.w3.org/Graphics/SVG/1.1/DTD/svg11.dtd">
<!-- Generated by graphviz version 2.36.0 (20140111.2315)
 -->
<!-- Title: controller.GridInfo Pages: 1 -->
<svg width="359pt" height="96pt"
 viewBox="0.00 0.00 359.00 96.00" xmlns="http://www.w3.org/2000/svg" xmlns:xlink="http://www.w3.org/1999/xlink">
<g id="graph0" class="graph" transform="scale(1 1) rotate(0) translate(4 92)">
<title>controller.GridInfo</title>
<polygon fill="white" stroke="none" points="-4,4 -4,-92 355,-92 355,4 -4,4"/>
<!-- Node1 -->
<g id="node1" class="node"><title>Node1</title>
<polygon fill="#bfbfbf" stroke="black" points="152.5,-0.5 152.5,-19.5 253.5,-19.5 253.5,-0.5 152.5,-0.5"/>
<text text-anchor="middle" x="203" y="-7.5" font-family="Helvetica,sans-Serif" font-size="10.00">controller.GridInfo</text>
</g>
<!-- Node2 -->
<g id="node2" class="node"><title>Node2</title>
<polygon fill="white" stroke="#bfbfbf" points="-0.5,-68.5 -0.5,-87.5 142.5,-87.5 142.5,-68.5 -0.5,-68.5"/>
<text text-anchor="middle" x="71" y="-75.5" font-family="Helvetica,sans-Serif" font-size="10.00">HashMap&lt; String, Color &gt;</text>
</g>
<!-- Node2&#45;&gt;Node1 -->
<g id="edge1" class="edge"><title>Node2&#45;&gt;Node1</title>
<path fill="none" stroke="#9a32cd" stroke-dasharray="5,2" d="M94.5591,-63.1189C107.995,-55.3944 125.248,-45.7949 141,-38 154.469,-31.3351 169.969,-24.5851 182.102,-19.5013"/>
<polygon fill="#9a32cd" stroke="#9a32cd" points="92.4195,-60.3138 85.5263,-68.3596 95.9324,-66.3686 92.4195,-60.3138"/>
<text text-anchor="middle" x="170" y="-41.5" font-family="Helvetica,sans-Serif" font-size="10.00"> stateColors</text>
</g>
<!-- Node3 -->
<g id="node3" class="node"><title>Node3</title>
<polygon fill="white" stroke="#bfbfbf" points="161,-68.5 161,-87.5 245,-87.5 245,-68.5 161,-68.5"/>
<text text-anchor="middle" x="203" y="-75.5" font-family="Helvetica,sans-Serif" font-size="10.00">List&lt; String &gt;</text>
</g>
<!-- Node3&#45;&gt;Node1 -->
<g id="edge2" class="edge"><title>Node3&#45;&gt;Node1</title>
<path fill="none" stroke="#9a32cd" stroke-dasharray="5,2" d="M203,-58.0413C203,-45.4724 203,-29.5631 203,-19.8411"/>
<polygon fill="#9a32cd" stroke="#9a32cd" points="199.5,-58.3716 203,-68.3717 206.5,-58.3717 199.5,-58.3716"/>
<text text-anchor="middle" x="238.5" y="-41.5" font-family="Helvetica,sans-Serif" font-size="10.00"> myStateTypes</text>
</g>
<!-- Node4 -->
<g id="node4" class="node"><title>Node4</title>
<polygon fill="white" stroke="#bfbfbf" points="262.5,-68.5 262.5,-87.5 351.5,-87.5 351.5,-68.5 262.5,-68.5"/>
<text text-anchor="middle" x="307" y="-75.5" font-family="Helvetica,sans-Serif" font-size="10.00">List&lt; Integer &gt;</text>
</g>
<!-- Node4&#45;&gt;Node1 -->
<g id="edge3" class="edge"><title>Node4&#45;&gt;Node1</title>
<path fill="none" stroke="#9a32cd" stroke-dasharray="5,2" d="M297.248,-59.5864C292.309,-52.0797 285.718,-43.7279 278,-38 266.776,-29.6699 252.735,-23.71 239.846,-19.5468"/>
<polygon fill="#9a32cd" stroke="#9a32cd" points="294.403,-61.6457 302.581,-68.3818 300.389,-58.0163 294.403,-61.6457"/>
<text text-anchor="middle" x="316" y="-41.5" font-family="Helvetica,sans-Serif" font-size="10.00"> paramList</text>
</g>
</g>
</svg>
