<?xml version="1.0" encoding="UTF-8" standalone="no"?>
<!DOCTYPE svg PUBLIC "-//W3C//DTD SVG 1.1//EN"
 "http://www.w3.org/Graphics/SVG/1.1/DTD/svg11.dtd">
<!-- Generated by graphviz version 2.36.0 (20140111.2315)
 -->
<!-- Title: simulationObjects.AntCell.isAtFoodSource Pages: 1 -->
<svg width="988pt" height="120pt"
 viewBox="0.00 0.00 988.00 120.00" xmlns="http://www.w3.org/2000/svg" xmlns:xlink="http://www.w3.org/1999/xlink">
<g id="graph0" class="graph" transform="scale(1 1) rotate(0) translate(4 116)">
<title>simulationObjects.AntCell.isAtFoodSource</title>
<polygon fill="white" stroke="none" points="-4,4 -4,-116 984,-116 984,4 -4,4"/>
<!-- Node1 -->
<g id="node1" class="node"><title>Node1</title>
<polygon fill="#bfbfbf" stroke="black" points="0.5,-38 0.5,-68 149.5,-68 149.5,-38 0.5,-38"/>
<text text-anchor="start" x="8.5" y="-56" font-family="Helvetica,sans-Serif" font-size="10.00">simulationObjects.AntCell.is</text>
<text text-anchor="middle" x="75" y="-45" font-family="Helvetica,sans-Serif" font-size="10.00">AtFoodSource</text>
</g>
<!-- Node2 -->
<g id="node2" class="node"><title>Node2</title>
<g id="a_node2"><a xlink:href="../../d0/d1a/classsimulation_objects_1_1_ant_cell.html#acd24e1bee3aaf27acafd05722f6cbb62" target="_top" xlink:title="simulationObjects.AntCell.drop\lFoodPheromones">
<polygon fill="white" stroke="black" points="186,-82 186,-112 350,-112 350,-82 186,-82"/>
<text text-anchor="start" x="194" y="-100" font-family="Helvetica,sans-Serif" font-size="10.00">simulationObjects.AntCell.drop</text>
<text text-anchor="middle" x="268" y="-89" font-family="Helvetica,sans-Serif" font-size="10.00">FoodPheromones</text>
</a>
</g>
</g>
<!-- Node1&#45;&gt;Node2 -->
<g id="edge1" class="edge"><title>Node1&#45;&gt;Node2</title>
<path fill="none" stroke="midnightblue" d="M150.961,-70.2684C167.746,-74.1352 185.42,-78.2066 201.773,-81.9738"/>
<polygon fill="midnightblue" stroke="midnightblue" points="151.728,-66.8535 141.197,-68.0192 150.156,-73.6749 151.728,-66.8535"/>
</g>
<!-- Node3 -->
<g id="node3" class="node"><title>Node3</title>
<g id="a_node3"><a xlink:href="../../d0/d1a/classsimulation_objects_1_1_ant_cell.html#aac2730a768c2d978ebf5b1be4bcda495" target="_top" xlink:title="simulationObjects.AntCell.return\lToNest">
<polygon fill="white" stroke="black" points="386.5,-49 386.5,-79 557.5,-79 557.5,-49 386.5,-49"/>
<text text-anchor="start" x="394.5" y="-67" font-family="Helvetica,sans-Serif" font-size="10.00">simulationObjects.AntCell.return</text>
<text text-anchor="middle" x="472" y="-56" font-family="Helvetica,sans-Serif" font-size="10.00">ToNest</text>
</a>
</g>
</g>
<!-- Node1&#45;&gt;Node3 -->
<g id="edge7" class="edge"><title>Node1&#45;&gt;Node3</title>
<path fill="none" stroke="midnightblue" d="M159.883,-55.336C226.53,-57.192 319.335,-59.7764 386.216,-61.6389"/>
<polygon fill="midnightblue" stroke="midnightblue" points="159.927,-51.8359 149.833,-55.0561 159.732,-58.8332 159.927,-51.8359"/>
</g>
<!-- Node6 -->
<g id="node6" class="node"><title>Node6</title>
<g id="a_node6"><a xlink:href="../../d0/d1a/classsimulation_objects_1_1_ant_cell.html#af16eb2ad78c444fcc223dd0db8df0811" target="_top" xlink:title="simulationObjects.AntCell.find\lFoodSource">
<polygon fill="white" stroke="black" points="392.5,-0 392.5,-30 551.5,-30 551.5,-0 392.5,-0"/>
<text text-anchor="start" x="400.5" y="-18" font-family="Helvetica,sans-Serif" font-size="10.00">simulationObjects.AntCell.find</text>
<text text-anchor="middle" x="472" y="-7" font-family="Helvetica,sans-Serif" font-size="10.00">FoodSource</text>
</a>
</g>
</g>
<!-- Node1&#45;&gt;Node6 -->
<g id="edge5" class="edge"><title>Node1&#45;&gt;Node6</title>
<path fill="none" stroke="midnightblue" d="M160.191,-44.9006C228.916,-38.2891 325.305,-29.0162 392.455,-22.5563"/>
<polygon fill="midnightblue" stroke="midnightblue" points="159.452,-41.4555 149.833,-45.8971 160.122,-48.4233 159.452,-41.4555"/>
</g>
<!-- Node2&#45;&gt;Node3 -->
<g id="edge2" class="edge"><title>Node2&#45;&gt;Node3</title>
<path fill="none" stroke="midnightblue" d="M360.352,-82.0762C368.975,-80.6674 377.693,-79.2433 386.251,-77.8452"/>
<polygon fill="midnightblue" stroke="midnightblue" points="359.593,-78.6537 350.288,-83.7203 360.721,-85.5621 359.593,-78.6537"/>
</g>
<!-- Node4 -->
<g id="node4" class="node"><title>Node4</title>
<g id="a_node4"><a xlink:href="../../d0/d1a/classsimulation_objects_1_1_ant_cell.html#a70a58b87ff6093514dfb9fa328a4e6be" target="_top" xlink:title="simulationObjects.AntCell.forage">
<polygon fill="white" stroke="black" points="594.5,-29.5 594.5,-48.5 767.5,-48.5 767.5,-29.5 594.5,-29.5"/>
<text text-anchor="middle" x="681" y="-36.5" font-family="Helvetica,sans-Serif" font-size="10.00">simulationObjects.AntCell.forage</text>
</a>
</g>
</g>
<!-- Node3&#45;&gt;Node4 -->
<g id="edge3" class="edge"><title>Node3&#45;&gt;Node4</title>
<path fill="none" stroke="midnightblue" d="M567.987,-52.5282C579.144,-51.1806 590.435,-49.817 601.335,-48.5006"/>
<polygon fill="midnightblue" stroke="midnightblue" points="567.3,-49.0856 557.792,-53.7594 568.14,-56.0351 567.3,-49.0856"/>
</g>
<!-- Node5 -->
<g id="node5" class="node"><title>Node5</title>
<g id="a_node5"><a xlink:href="../../d0/d1a/classsimulation_objects_1_1_ant_cell.html#a062ae7cd0ca9a8fc58078e0e4eee1a83" target="_top" xlink:title="simulationObjects.AntCell.update">
<polygon fill="white" stroke="black" points="804,-29.5 804,-48.5 980,-48.5 980,-29.5 804,-29.5"/>
<text text-anchor="middle" x="892" y="-36.5" font-family="Helvetica,sans-Serif" font-size="10.00">simulationObjects.AntCell.update</text>
</a>
</g>
</g>
<!-- Node4&#45;&gt;Node5 -->
<g id="edge4" class="edge"><title>Node4&#45;&gt;Node5</title>
<path fill="none" stroke="midnightblue" d="M777.76,-39C786.449,-39 795.22,-39 803.829,-39"/>
<polygon fill="midnightblue" stroke="midnightblue" points="777.611,-35.5001 767.611,-39 777.611,-42.5001 777.611,-35.5001"/>
</g>
<!-- Node6&#45;&gt;Node4 -->
<g id="edge6" class="edge"><title>Node6&#45;&gt;Node4</title>
<path fill="none" stroke="midnightblue" d="M561.63,-25.276C573.723,-26.678 586.091,-28.112 598.057,-29.4994"/>
<polygon fill="midnightblue" stroke="midnightblue" points="561.89,-21.7827 551.553,-24.1076 561.083,-28.7361 561.89,-21.7827"/>
</g>
</g>
</svg>
