<?xml version="1.0" encoding="UTF-8" standalone="no"?>
<!DOCTYPE svg PUBLIC "-//W3C//DTD SVG 1.1//EN"
 "http://www.w3.org/Graphics/SVG/1.1/DTD/svg11.dtd">
<!-- Generated by graphviz version 2.36.0 (20140111.2315)
 -->
<!-- Title: simulationObjects.AntCell.dropHomePheromones Pages: 1 -->
<svg width="790pt" height="38pt"
 viewBox="0.00 0.00 790.00 38.00" xmlns="http://www.w3.org/2000/svg" xmlns:xlink="http://www.w3.org/1999/xlink">
<g id="graph0" class="graph" transform="scale(1 1) rotate(0) translate(4 34)">
<title>simulationObjects.AntCell.dropHomePheromones</title>
<polygon fill="white" stroke="none" points="-4,4 -4,-34 786,-34 786,4 -4,4"/>
<!-- Node1 -->
<g id="node1" class="node"><title>Node1</title>
<polygon fill="#bfbfbf" stroke="black" points="0,-0 0,-30 164,-30 164,-0 0,-0"/>
<text text-anchor="start" x="8" y="-18" font-family="Helvetica,sans-Serif" font-size="10.00">simulationObjects.AntCell.drop</text>
<text text-anchor="middle" x="82" y="-7" font-family="Helvetica,sans-Serif" font-size="10.00">HomePheromones</text>
</g>
<!-- Node2 -->
<g id="node2" class="node"><title>Node2</title>
<g id="a_node2"><a xlink:href="../../d0/d1a/classsimulation_objects_1_1_ant_cell.html#af16eb2ad78c444fcc223dd0db8df0811" target="_top" xlink:title="simulationObjects.AntCell.find\lFoodSource">
<polygon fill="white" stroke="black" points="200.5,-0 200.5,-30 359.5,-30 359.5,-0 200.5,-0"/>
<text text-anchor="start" x="208.5" y="-18" font-family="Helvetica,sans-Serif" font-size="10.00">simulationObjects.AntCell.find</text>
<text text-anchor="middle" x="280" y="-7" font-family="Helvetica,sans-Serif" font-size="10.00">FoodSource</text>
</a>
</g>
</g>
<!-- Node1&#45;&gt;Node2 -->
<g id="edge1" class="edge"><title>Node1&#45;&gt;Node2</title>
<path fill="none" stroke="midnightblue" d="M174.331,-15C183.059,-15 191.857,-15 200.447,-15"/>
<polygon fill="midnightblue" stroke="midnightblue" points="174.136,-11.5001 164.136,-15 174.135,-18.5001 174.136,-11.5001"/>
</g>
<!-- Node3 -->
<g id="node3" class="node"><title>Node3</title>
<g id="a_node3"><a xlink:href="../../d0/d1a/classsimulation_objects_1_1_ant_cell.html#a70a58b87ff6093514dfb9fa328a4e6be" target="_top" xlink:title="simulationObjects.AntCell.forage">
<polygon fill="white" stroke="black" points="396.5,-5.5 396.5,-24.5 569.5,-24.5 569.5,-5.5 396.5,-5.5"/>
<text text-anchor="middle" x="483" y="-12.5" font-family="Helvetica,sans-Serif" font-size="10.00">simulationObjects.AntCell.forage</text>
</a>
</g>
</g>
<!-- Node2&#45;&gt;Node3 -->
<g id="edge2" class="edge"><title>Node2&#45;&gt;Node3</title>
<path fill="none" stroke="midnightblue" d="M369.596,-15C378.532,-15 387.596,-15 396.499,-15"/>
<polygon fill="midnightblue" stroke="midnightblue" points="369.575,-11.5001 359.575,-15 369.575,-18.5001 369.575,-11.5001"/>
</g>
<!-- Node4 -->
<g id="node4" class="node"><title>Node4</title>
<g id="a_node4"><a xlink:href="../../d0/d1a/classsimulation_objects_1_1_ant_cell.html#a062ae7cd0ca9a8fc58078e0e4eee1a83" target="_top" xlink:title="simulationObjects.AntCell.update">
<polygon fill="white" stroke="black" points="606,-5.5 606,-24.5 782,-24.5 782,-5.5 606,-5.5"/>
<text text-anchor="middle" x="694" y="-12.5" font-family="Helvetica,sans-Serif" font-size="10.00">simulationObjects.AntCell.update</text>
</a>
</g>
</g>
<!-- Node3&#45;&gt;Node4 -->
<g id="edge3" class="edge"><title>Node3&#45;&gt;Node4</title>
<path fill="none" stroke="midnightblue" d="M579.76,-15C588.449,-15 597.22,-15 605.829,-15"/>
<polygon fill="midnightblue" stroke="midnightblue" points="579.611,-11.5001 569.611,-15 579.611,-18.5001 579.611,-11.5001"/>
</g>
</g>
</svg>
