<?xml version="1.0" encoding="UTF-8" standalone="no"?>
<!DOCTYPE svg PUBLIC "-//W3C//DTD SVG 1.1//EN"
 "http://www.w3.org/Graphics/SVG/1.1/DTD/svg11.dtd">
<!-- Generated by graphviz version 2.36.0 (20140111.2315)
 -->
<!-- Title: simulationObjects.PatchBody.createPolyFromPoints Pages: 1 -->
<svg width="588pt" height="136pt"
 viewBox="0.00 0.00 588.00 136.00" xmlns="http://www.w3.org/2000/svg" xmlns:xlink="http://www.w3.org/1999/xlink">
<g id="graph0" class="graph" transform="scale(1 1) rotate(0) translate(4 132)">
<title>simulationObjects.PatchBody.createPolyFromPoints</title>
<polygon fill="white" stroke="none" points="-4,4 -4,-132 584,-132 584,4 -4,4"/>
<!-- Node1 -->
<g id="node1" class="node"><title>Node1</title>
<polygon fill="#bfbfbf" stroke="black" points="0,-49 0,-79 188,-79 188,-49 0,-49"/>
<text text-anchor="start" x="8" y="-67" font-family="Helvetica,sans-Serif" font-size="10.00">simulationObjects.PatchBody.create</text>
<text text-anchor="middle" x="94" y="-56" font-family="Helvetica,sans-Serif" font-size="10.00">PolyFromPoints</text>
</g>
<!-- Node2 -->
<g id="node2" class="node"><title>Node2</title>
<g id="a_node2"><a xlink:href="../../d9/d93/classsimulation_objects_1_1_patch_body_rectangle.html#a9eadab113da9b80f951bf333791d1ff3" target="_top" xlink:title="simulationObjects.PatchBody\lRectangle.buildBody">
<polygon fill="white" stroke="black" points="224.5,-98 224.5,-128 379.5,-128 379.5,-98 224.5,-98"/>
<text text-anchor="start" x="232.5" y="-116" font-family="Helvetica,sans-Serif" font-size="10.00">simulationObjects.PatchBody</text>
<text text-anchor="middle" x="302" y="-105" font-family="Helvetica,sans-Serif" font-size="10.00">Rectangle.buildBody</text>
</a>
</g>
</g>
<!-- Node1&#45;&gt;Node2 -->
<g id="edge1" class="edge"><title>Node1&#45;&gt;Node2</title>
<path fill="none" stroke="midnightblue" d="M168.167,-81.4038C190.955,-86.8243 215.876,-92.752 237.913,-97.9938"/>
<polygon fill="midnightblue" stroke="midnightblue" points="168.745,-77.9438 158.207,-79.0346 167.125,-84.7538 168.745,-77.9438"/>
</g>
<!-- Node4 -->
<g id="node4" class="node"><title>Node4</title>
<g id="a_node4"><a xlink:href="../../dc/df0/classsimulation_objects_1_1_patch_body_triangle.html#af06af0312cd13639f8685d1552d73dd1" target="_top" xlink:title="simulationObjects.PatchBody\lTriangle.buildBody">
<polygon fill="white" stroke="black" points="224.5,-49 224.5,-79 379.5,-79 379.5,-49 224.5,-49"/>
<text text-anchor="start" x="232.5" y="-67" font-family="Helvetica,sans-Serif" font-size="10.00">simulationObjects.PatchBody</text>
<text text-anchor="middle" x="302" y="-56" font-family="Helvetica,sans-Serif" font-size="10.00">Triangle.buildBody</text>
</a>
</g>
</g>
<!-- Node1&#45;&gt;Node4 -->
<g id="edge3" class="edge"><title>Node1&#45;&gt;Node4</title>
<path fill="none" stroke="midnightblue" d="M198.341,-64C207.114,-64 215.883,-64 224.395,-64"/>
<polygon fill="midnightblue" stroke="midnightblue" points="198.056,-60.5001 188.056,-64 198.056,-67.5001 198.056,-60.5001"/>
</g>
<!-- Node6 -->
<g id="node6" class="node"><title>Node6</title>
<g id="a_node6"><a xlink:href="../../d8/dfe/classsimulation_objects_1_1_patch_body_hexagon.html#a9013dbf816589413e492da6fab10fa7e" target="_top" xlink:title="simulationObjects.PatchBody\lHexagon.buildBody">
<polygon fill="white" stroke="black" points="224.5,-0 224.5,-30 379.5,-30 379.5,-0 224.5,-0"/>
<text text-anchor="start" x="232.5" y="-18" font-family="Helvetica,sans-Serif" font-size="10.00">simulationObjects.PatchBody</text>
<text text-anchor="middle" x="302" y="-7" font-family="Helvetica,sans-Serif" font-size="10.00">Hexagon.buildBody</text>
</a>
</g>
</g>
<!-- Node1&#45;&gt;Node6 -->
<g id="edge5" class="edge"><title>Node1&#45;&gt;Node6</title>
<path fill="none" stroke="midnightblue" d="M168.167,-46.5962C190.955,-41.1757 215.876,-35.248 237.913,-30.0062"/>
<polygon fill="midnightblue" stroke="midnightblue" points="167.125,-43.2462 158.207,-48.9654 168.745,-50.0562 167.125,-43.2462"/>
</g>
<!-- Node3 -->
<g id="node3" class="node"><title>Node3</title>
<g id="a_node3"><a xlink:href="../../d9/d93/classsimulation_objects_1_1_patch_body_rectangle.html#a9df877efcfbeb43bc4482635a2850ad5" target="_top" xlink:title="simulationObjects.PatchBody\lRectangle.PatchBodyRectangle">
<polygon fill="white" stroke="black" points="416.5,-98 416.5,-128 579.5,-128 579.5,-98 416.5,-98"/>
<text text-anchor="start" x="424.5" y="-116" font-family="Helvetica,sans-Serif" font-size="10.00">simulationObjects.PatchBody</text>
<text text-anchor="middle" x="498" y="-105" font-family="Helvetica,sans-Serif" font-size="10.00">Rectangle.PatchBodyRectangle</text>
</a>
</g>
</g>
<!-- Node2&#45;&gt;Node3 -->
<g id="edge2" class="edge"><title>Node2&#45;&gt;Node3</title>
<path fill="none" stroke="midnightblue" d="M389.948,-113C398.759,-113 407.681,-113 416.421,-113"/>
<polygon fill="midnightblue" stroke="midnightblue" points="389.674,-109.5 379.674,-113 389.674,-116.5 389.674,-109.5"/>
</g>
<!-- Node5 -->
<g id="node5" class="node"><title>Node5</title>
<g id="a_node5"><a xlink:href="../../dc/df0/classsimulation_objects_1_1_patch_body_triangle.html#a3a12b11e10051311aa061e65b0df98da" target="_top" xlink:title="simulationObjects.PatchBody\lTriangle.PatchBodyTriangle">
<polygon fill="white" stroke="black" points="420.5,-49 420.5,-79 575.5,-79 575.5,-49 420.5,-49"/>
<text text-anchor="start" x="428.5" y="-67" font-family="Helvetica,sans-Serif" font-size="10.00">simulationObjects.PatchBody</text>
<text text-anchor="middle" x="498" y="-56" font-family="Helvetica,sans-Serif" font-size="10.00">Triangle.PatchBodyTriangle</text>
</a>
</g>
</g>
<!-- Node4&#45;&gt;Node5 -->
<g id="edge4" class="edge"><title>Node4&#45;&gt;Node5</title>
<path fill="none" stroke="midnightblue" d="M389.767,-64C399.926,-64 410.238,-64 420.248,-64"/>
<polygon fill="midnightblue" stroke="midnightblue" points="389.674,-60.5001 379.674,-64 389.674,-67.5001 389.674,-60.5001"/>
</g>
<!-- Node7 -->
<g id="node7" class="node"><title>Node7</title>
<g id="a_node7"><a xlink:href="../../d8/dfe/classsimulation_objects_1_1_patch_body_hexagon.html#aca47a8d7da67fe3ff2cde904deca8899" target="_top" xlink:title="simulationObjects.PatchBody\lHexagon.PatchBodyHexagon">
<polygon fill="white" stroke="black" points="420.5,-0 420.5,-30 575.5,-30 575.5,-0 420.5,-0"/>
<text text-anchor="start" x="428.5" y="-18" font-family="Helvetica,sans-Serif" font-size="10.00">simulationObjects.PatchBody</text>
<text text-anchor="middle" x="498" y="-7" font-family="Helvetica,sans-Serif" font-size="10.00">Hexagon.PatchBodyHexagon</text>
</a>
</g>
</g>
<!-- Node6&#45;&gt;Node7 -->
<g id="edge6" class="edge"><title>Node6&#45;&gt;Node7</title>
<path fill="none" stroke="midnightblue" d="M389.767,-15C399.926,-15 410.238,-15 420.248,-15"/>
<polygon fill="midnightblue" stroke="midnightblue" points="389.674,-11.5001 379.674,-15 389.674,-18.5001 389.674,-11.5001"/>
</g>
</g>
</svg>
