<?xml version="1.0" encoding="UTF-8" standalone="no"?>
<!DOCTYPE svg PUBLIC "-//W3C//DTD SVG 1.1//EN"
 "http://www.w3.org/Graphics/SVG/1.1/DTD/svg11.dtd">
<!-- Generated by graphviz version 2.36.0 (20140111.2315)
 -->
<!-- Title: simulationObjects.AntCell.moveTo Pages: 1 -->
<svg width="818pt" height="87pt"
 viewBox="0.00 0.00 818.00 87.00" xmlns="http://www.w3.org/2000/svg" xmlns:xlink="http://www.w3.org/1999/xlink">
<g id="graph0" class="graph" transform="scale(1 1) rotate(0) translate(4 83)">
<title>simulationObjects.AntCell.moveTo</title>
<polygon fill="white" stroke="none" points="-4,4 -4,-83 814,-83 814,4 -4,4"/>
<!-- Node1 -->
<g id="node1" class="node"><title>Node1</title>
<polygon fill="#bfbfbf" stroke="black" points="0.5,-29.5 0.5,-48.5 179.5,-48.5 179.5,-29.5 0.5,-29.5"/>
<text text-anchor="middle" x="90" y="-36.5" font-family="Helvetica,sans-Serif" font-size="10.00">simulationObjects.AntCell.moveTo</text>
</g>
<!-- Node2 -->
<g id="node2" class="node"><title>Node2</title>
<g id="a_node2"><a xlink:href="../../d0/d1a/classsimulation_objects_1_1_ant_cell.html#af16eb2ad78c444fcc223dd0db8df0811" target="_top" xlink:title="simulationObjects.AntCell.find\lFoodSource">
<polygon fill="white" stroke="black" points="222.5,-49 222.5,-79 381.5,-79 381.5,-49 222.5,-49"/>
<text text-anchor="start" x="230.5" y="-67" font-family="Helvetica,sans-Serif" font-size="10.00">simulationObjects.AntCell.find</text>
<text text-anchor="middle" x="302" y="-56" font-family="Helvetica,sans-Serif" font-size="10.00">FoodSource</text>
</a>
</g>
</g>
<!-- Node1&#45;&gt;Node2 -->
<g id="edge1" class="edge"><title>Node1&#45;&gt;Node2</title>
<path fill="none" stroke="midnightblue" d="M180.929,-49.7058C194.681,-51.343 208.786,-53.0222 222.273,-54.6277"/>
<polygon fill="midnightblue" stroke="midnightblue" points="181.335,-46.2295 170.991,-48.5227 180.507,-53.1804 181.335,-46.2295"/>
</g>
<!-- Node5 -->
<g id="node5" class="node"><title>Node5</title>
<g id="a_node5"><a xlink:href="../../d0/d1a/classsimulation_objects_1_1_ant_cell.html#aac2730a768c2d978ebf5b1be4bcda495" target="_top" xlink:title="simulationObjects.AntCell.return\lToNest">
<polygon fill="white" stroke="black" points="216.5,-0 216.5,-30 387.5,-30 387.5,-0 216.5,-0"/>
<text text-anchor="start" x="224.5" y="-18" font-family="Helvetica,sans-Serif" font-size="10.00">simulationObjects.AntCell.return</text>
<text text-anchor="middle" x="302" y="-7" font-family="Helvetica,sans-Serif" font-size="10.00">ToNest</text>
</a>
</g>
</g>
<!-- Node1&#45;&gt;Node5 -->
<g id="edge4" class="edge"><title>Node1&#45;&gt;Node5</title>
<path fill="none" stroke="midnightblue" d="M184.445,-28.3206C195.093,-27.1036 205.902,-25.8684 216.426,-24.6656"/>
<polygon fill="midnightblue" stroke="midnightblue" points="183.837,-24.8672 174.299,-29.4801 184.632,-31.8219 183.837,-24.8672"/>
</g>
<!-- Node3 -->
<g id="node3" class="node"><title>Node3</title>
<g id="a_node3"><a xlink:href="../../d0/d1a/classsimulation_objects_1_1_ant_cell.html#a70a58b87ff6093514dfb9fa328a4e6be" target="_top" xlink:title="simulationObjects.AntCell.forage">
<polygon fill="white" stroke="black" points="424.5,-29.5 424.5,-48.5 597.5,-48.5 597.5,-29.5 424.5,-29.5"/>
<text text-anchor="middle" x="511" y="-36.5" font-family="Helvetica,sans-Serif" font-size="10.00">simulationObjects.AntCell.forage</text>
</a>
</g>
</g>
<!-- Node2&#45;&gt;Node3 -->
<g id="edge2" class="edge"><title>Node2&#45;&gt;Node3</title>
<path fill="none" stroke="midnightblue" d="M391.543,-53.3064C404.71,-51.7162 418.207,-50.0861 431.157,-48.522"/>
<polygon fill="midnightblue" stroke="midnightblue" points="391.061,-49.8391 381.553,-54.5129 391.901,-56.7886 391.061,-49.8391"/>
</g>
<!-- Node4 -->
<g id="node4" class="node"><title>Node4</title>
<g id="a_node4"><a xlink:href="../../d0/d1a/classsimulation_objects_1_1_ant_cell.html#a062ae7cd0ca9a8fc58078e0e4eee1a83" target="_top" xlink:title="simulationObjects.AntCell.update">
<polygon fill="white" stroke="black" points="634,-29.5 634,-48.5 810,-48.5 810,-29.5 634,-29.5"/>
<text text-anchor="middle" x="722" y="-36.5" font-family="Helvetica,sans-Serif" font-size="10.00">simulationObjects.AntCell.update</text>
</a>
</g>
</g>
<!-- Node3&#45;&gt;Node4 -->
<g id="edge3" class="edge"><title>Node3&#45;&gt;Node4</title>
<path fill="none" stroke="midnightblue" d="M607.76,-39C616.449,-39 625.22,-39 633.829,-39"/>
<polygon fill="midnightblue" stroke="midnightblue" points="607.611,-35.5001 597.611,-39 607.611,-42.5001 607.611,-35.5001"/>
</g>
<!-- Node5&#45;&gt;Node3 -->
<g id="edge5" class="edge"><title>Node5&#45;&gt;Node3</title>
<path fill="none" stroke="midnightblue" d="M397.823,-25.9939C407.904,-27.1628 418.096,-28.3445 428.013,-29.4942"/>
<polygon fill="midnightblue" stroke="midnightblue" points="398.129,-22.506 387.792,-24.831 397.322,-29.4595 398.129,-22.506"/>
</g>
</g>
</svg>
