<?xml version="1.0" encoding="UTF-8" standalone="no"?>
<!DOCTYPE svg PUBLIC "-//W3C//DTD SVG 1.1//EN"
 "http://www.w3.org/Graphics/SVG/1.1/DTD/svg11.dtd">
<!-- Generated by graphviz version 2.36.0 (20140111.2315)
 -->
<!-- Title: simulationObjects.PatchBody.createPolyFromPoints Pages: 1 -->
<!--zoomable 136 -->
<svg id="main" version="1.1" xmlns="http://www.w3.org/2000/svg" xmlns:xlink="http://www.w3.org/1999/xlink" xml:space="preserve" onload="init(evt)">
<style type="text/css"><![CDATA[
.edge:hover path { stroke: red; }
.edge:hover polygon { stroke: red; fill: red; }
]]></style>
<script type="text/javascript"><![CDATA[
var edges = document.getElementsByTagName('g');
if (edges && edges.length) {
  for (var i=0;i<edges.length;i++) {
    if (edges[i].id.substr(0,4)=='edge') {
      edges[i].setAttribute('class','edge');
    }
  }
}
]]></script>
        <defs>
                <circle id="rim" cx="0" cy="0" r="7"/>
                <circle id="rim2" cx="0" cy="0" r="3.5"/>
                <g id="zoomPlus">
                        <use xlink:href="#rim" fill="#404040">
                                <set attributeName="fill" to="#808080" begin="zoomplus.mouseover" end="zoomplus.mouseout"/>
                        </use>
                        <path d="M-4,0h8M0,-4v8" fill="none" stroke="white" stroke-width="1.5" pointer-events="none"/>
                </g>
                <g id="zoomMin">
                        <use xlink:href="#rim" fill="#404040">
                                <set attributeName="fill" to="#808080" begin="zoomminus.mouseover" end="zoomminus.mouseout"/>
                        </use>
                        <path d="M-4,0h8" fill="none" stroke="white" stroke-width="1.5" pointer-events="none"/>
                </g>
                <g id="dirArrow">
                        <path fill="none" stroke="white" stroke-width="1.5" d="M0,-3.0v7 M-2.5,-0.5L0,-3.0L2.5,-0.5"/>
                </g>
               <g id="resetDef">
                       <use xlink:href="#rim2" fill="#404040">
                               <set attributeName="fill" to="#808080" begin="reset.mouseover" end="reset.mouseout"/>
                       </use>
               </g>
        </defs>

<script type="text/javascript">
var viewWidth = 588;
var viewHeight = 136;
var sectionId = 'dynsection-2';
</script>
<script xlink:href="../../svgpan.js"/>
<svg id="graph" class="graph">
<g id="viewport">
<title>simulationObjects.PatchBody.createPolyFromPoints</title>
<polygon fill="white" stroke="none" points="-4,4 -4,-132 584,-132 584,4 -4,4"/>
<!-- Node1 -->
<g id="node1" class="node"><title>Node1</title>
<polygon fill="#bfbfbf" stroke="black" points="0,-49 0,-79 188,-79 188,-49 0,-49"/>
<text text-anchor="start" x="8" y="-67" font-family="Helvetica,sans-Serif" font-size="10.00">simulationObjects.PatchBody.create</text>
<text text-anchor="middle" x="94" y="-56" font-family="Helvetica,sans-Serif" font-size="10.00">PolyFromPoints</text>
</g>
<!-- Node2 -->
<g id="node2" class="node"><title>Node2</title>
<g id="a_node2"><a xlink:href="../../d9/d93/classsimulation_objects_1_1_patch_body_rectangle.html#a9eadab113da9b80f951bf333791d1ff3" target="_top" xlink:title="simulationObjects.PatchBody\lRectangle.buildBody">
<polygon fill="white" stroke="black" points="224.5,-98 224.5,-128 379.5,-128 379.5,-98 224.5,-98"/>
<text text-anchor="start" x="232.5" y="-116" font-family="Helvetica,sans-Serif" font-size="10.00">simulationObjects.PatchBody</text>
<text text-anchor="middle" x="302" y="-105" font-family="Helvetica,sans-Serif" font-size="10.00">Rectangle.buildBody</text>
</a>
</g>
</g>
<!-- Node1&#45;&gt;Node2 -->
<g id="edge1" class="edge"><title>Node1&#45;&gt;Node2</title>
<path fill="none" stroke="midnightblue" d="M168.167,-81.4038C190.955,-86.8243 215.876,-92.752 237.913,-97.9938"/>
<polygon fill="midnightblue" stroke="midnightblue" points="168.745,-77.9438 158.207,-79.0346 167.125,-84.7538 168.745,-77.9438"/>
</g>
<!-- Node4 -->
<g id="node4" class="node"><title>Node4</title>
<g id="a_node4"><a xlink:href="../../dc/df0/classsimulation_objects_1_1_patch_body_triangle.html#af06af0312cd13639f8685d1552d73dd1" target="_top" xlink:title="simulationObjects.PatchBody\lTriangle.buildBody">
<polygon fill="white" stroke="black" points="224.5,-49 224.5,-79 379.5,-79 379.5,-49 224.5,-49"/>
<text text-anchor="start" x="232.5" y="-67" font-family="Helvetica,sans-Serif" font-size="10.00">simulationObjects.PatchBody</text>
<text text-anchor="middle" x="302" y="-56" font-family="Helvetica,sans-Serif" font-size="10.00">Triangle.buildBody</text>
</a>
</g>
</g>
<!-- Node1&#45;&gt;Node4 -->
<g id="edge3" class="edge"><title>Node1&#45;&gt;Node4</title>
<path fill="none" stroke="midnightblue" d="M198.341,-64C207.114,-64 215.883,-64 224.395,-64"/>
<polygon fill="midnightblue" stroke="midnightblue" points="198.056,-60.5001 188.056,-64 198.056,-67.5001 198.056,-60.5001"/>
</g>
<!-- Node6 -->
<g id="node6" class="node"><title>Node6</title>
<g id="a_node6"><a xlink:href="../../d8/dfe/classsimulation_objects_1_1_patch_body_hexagon.html#a9013dbf816589413e492da6fab10fa7e" target="_top" xlink:title="simulationObjects.PatchBody\lHexagon.buildBody">
<polygon fill="white" stroke="black" points="224.5,-0 224.5,-30 379.5,-30 379.5,-0 224.5,-0"/>
<text text-anchor="start" x="232.5" y="-18" font-family="Helvetica,sans-Serif" font-size="10.00">simulationObjects.PatchBody</text>
<text text-anchor="middle" x="302" y="-7" font-family="Helvetica,sans-Serif" font-size="10.00">Hexagon.buildBody</text>
</a>
</g>
</g>
<!-- Node1&#45;&gt;Node6 -->
<g id="edge5" class="edge"><title>Node1&#45;&gt;Node6</title>
<path fill="none" stroke="midnightblue" d="M168.167,-46.5962C190.955,-41.1757 215.876,-35.248 237.913,-30.0062"/>
<polygon fill="midnightblue" stroke="midnightblue" points="167.125,-43.2462 158.207,-48.9654 168.745,-50.0562 167.125,-43.2462"/>
</g>
<!-- Node3 -->
<g id="node3" class="node"><title>Node3</title>
<g id="a_node3"><a xlink:href="../../d9/d93/classsimulation_objects_1_1_patch_body_rectangle.html#a9df877efcfbeb43bc4482635a2850ad5" target="_top" xlink:title="simulationObjects.PatchBody\lRectangle.PatchBodyRectangle">
<polygon fill="white" stroke="black" points="416.5,-98 416.5,-128 579.5,-128 579.5,-98 416.5,-98"/>
<text text-anchor="start" x="424.5" y="-116" font-family="Helvetica,sans-Serif" font-size="10.00">simulationObjects.PatchBody</text>
<text text-anchor="middle" x="498" y="-105" font-family="Helvetica,sans-Serif" font-size="10.00">Rectangle.PatchBodyRectangle</text>
</a>
</g>
</g>
<!-- Node2&#45;&gt;Node3 -->
<g id="edge2" class="edge"><title>Node2&#45;&gt;Node3</title>
<path fill="none" stroke="midnightblue" d="M389.948,-113C398.759,-113 407.681,-113 416.421,-113"/>
<polygon fill="midnightblue" stroke="midnightblue" points="389.674,-109.5 379.674,-113 389.674,-116.5 389.674,-109.5"/>
</g>
<!-- Node5 -->
<g id="node5" class="node"><title>Node5</title>
<g id="a_node5"><a xlink:href="../../dc/df0/classsimulation_objects_1_1_patch_body_triangle.html#a3a12b11e10051311aa061e65b0df98da" target="_top" xlink:title="simulationObjects.PatchBody\lTriangle.PatchBodyTriangle">
<polygon fill="white" stroke="black" points="420.5,-49 420.5,-79 575.5,-79 575.5,-49 420.5,-49"/>
<text text-anchor="start" x="428.5" y="-67" font-family="Helvetica,sans-Serif" font-size="10.00">simulationObjects.PatchBody</text>
<text text-anchor="middle" x="498" y="-56" font-family="Helvetica,sans-Serif" font-size="10.00">Triangle.PatchBodyTriangle</text>
</a>
</g>
</g>
<!-- Node4&#45;&gt;Node5 -->
<g id="edge4" class="edge"><title>Node4&#45;&gt;Node5</title>
<path fill="none" stroke="midnightblue" d="M389.767,-64C399.926,-64 410.238,-64 420.248,-64"/>
<polygon fill="midnightblue" stroke="midnightblue" points="389.674,-60.5001 379.674,-64 389.674,-67.5001 389.674,-60.5001"/>
</g>
<!-- Node7 -->
<g id="node7" class="node"><title>Node7</title>
<g id="a_node7"><a xlink:href="../../d8/dfe/classsimulation_objects_1_1_patch_body_hexagon.html#aca47a8d7da67fe3ff2cde904deca8899" target="_top" xlink:title="simulationObjects.PatchBody\lHexagon.PatchBodyHexagon">
<polygon fill="white" stroke="black" points="420.5,-0 420.5,-30 575.5,-30 575.5,-0 420.5,-0"/>
<text text-anchor="start" x="428.5" y="-18" font-family="Helvetica,sans-Serif" font-size="10.00">simulationObjects.PatchBody</text>
<text text-anchor="middle" x="498" y="-7" font-family="Helvetica,sans-Serif" font-size="10.00">Hexagon.PatchBodyHexagon</text>
</a>
</g>
</g>
<!-- Node6&#45;&gt;Node7 -->
<g id="edge6" class="edge"><title>Node6&#45;&gt;Node7</title>
<path fill="none" stroke="midnightblue" d="M389.767,-15C399.926,-15 410.238,-15 420.248,-15"/>
<polygon fill="midnightblue" stroke="midnightblue" points="389.674,-11.5001 379.674,-15 389.674,-18.5001 389.674,-11.5001"/>
</g>
</g>
</svg>
        <g id="navigator" transform="translate(0 0)" fill="#404254">
                <rect fill="#f2f5e9" fill-opacity="0.5" stroke="#606060" stroke-width=".5" x="0" y="0" width="60" height="60"/>
                <use id="zoomplus" xlink:href="#zoomPlus" x="17" y="9" onmousedown="handleZoom(evt,'in')"/>
                <use id="zoomminus" xlink:href="#zoomMin" x="42" y="9" onmousedown="handleZoom(evt,'out')"/>
                <use id="reset" xlink:href="#resetDef" x="30" y="36" onmousedown="handleReset()"/>
                <g id="arrowUp" xlink:href="#dirArrow" transform="translate(30 24)" onmousedown="handlePan(0,-1)">
                  <use xlink:href="#rim" fill="#404040">
                        <set attributeName="fill" to="#808080" begin="arrowUp.mouseover" end="arrowUp.mouseout"/>
                  </use>
                  <path fill="none" stroke="white" stroke-width="1.5" d="M0,-3.0v7 M-2.5,-0.5L0,-3.0L2.5,-0.5"/>
                </g>
                <g id="arrowRight" xlink:href="#dirArrow" transform="rotate(90) translate(36 -43)" onmousedown="handlePan(1,0)">
                  <use xlink:href="#rim" fill="#404040">
                        <set attributeName="fill" to="#808080" begin="arrowRight.mouseover" end="arrowRight.mouseout"/>
                  </use>
                  <path fill="none" stroke="white" stroke-width="1.5" d="M0,-3.0v7 M-2.5,-0.5L0,-3.0L2.5,-0.5"/>
                </g>
                <g id="arrowDown" xlink:href="#dirArrow" transform="rotate(180) translate(-30 -48)" onmousedown="handlePan(0,1)">
                  <use xlink:href="#rim" fill="#404040">
                        <set attributeName="fill" to="#808080" begin="arrowDown.mouseover" end="arrowDown.mouseout"/>
                  </use>
                  <path fill="none" stroke="white" stroke-width="1.5" d="M0,-3.0v7 M-2.5,-0.5L0,-3.0L2.5,-0.5"/>
                </g>
                <g id="arrowLeft" xlink:href="#dirArrow" transform="rotate(270) translate(-36 17)" onmousedown="handlePan(-1,0)">
                  <use xlink:href="#rim" fill="#404040">
                        <set attributeName="fill" to="#808080" begin="arrowLeft.mouseover" end="arrowLeft.mouseout"/>
                  </use>
                  <path fill="none" stroke="white" stroke-width="1.5" d="M0,-3.0v7 M-2.5,-0.5L0,-3.0L2.5,-0.5"/>
                </g>
        </g>
        <svg viewBox="0 0 15 15" width="100%" height="30px" preserveAspectRatio="xMaxYMin meet">
         <g id="arrow_out" transform="scale(0.3 0.3)">
          <a xlink:href="classsimulation_objects_1_1_patch_body_a9760016e89cb49e2037203dd2a7eed58_icgraph_org.svg" target="_base">
           <rect id="button" ry="5" rx="5" y="6" x="6" height="38" width="38"
                fill="#f2f5e9" fill-opacity="0.5" stroke="#606060" stroke-width="1.0"/>
           <path id="arrow"
             d="M 11.500037,31.436501 C 11.940474,20.09759 22.043105,11.32322 32.158766,21.979434 L 37.068811,17.246167 C 37.068811,17.246167 37.088388,32 37.088388,32 L 22.160133,31.978069 C 22.160133,31.978069 26.997745,27.140456 26.997745,27.140456 C 18.528582,18.264221 13.291696,25.230495 11.500037,31.436501 z"
             style="fill:#404040;"/>
          </a>
         </g>
        </svg>
</svg>
