<?xml version="1.0" encoding="UTF-8" standalone="no"?>
<!DOCTYPE svg PUBLIC "-//W3C//DTD SVG 1.1//EN"
 "http://www.w3.org/Graphics/SVG/1.1/DTD/svg11.dtd">
<!-- Generated by graphviz version 2.36.0 (20140111.2315)
 -->
<!-- Title: simulationObjects.AntCell.update Pages: 1 -->
<svg width="1034pt" height="625pt"
 viewBox="0.00 0.00 1034.00 625.00" xmlns="http://www.w3.org/2000/svg" xmlns:xlink="http://www.w3.org/1999/xlink">
<g id="graph0" class="graph" transform="scale(1 1) rotate(0) translate(4 621)">
<title>simulationObjects.AntCell.update</title>
<polygon fill="white" stroke="none" points="-4,4 -4,-621 1030,-621 1030,4 -4,4"/>
<!-- Node1 -->
<g id="node1" class="node"><title>Node1</title>
<polygon fill="#bfbfbf" stroke="black" points="0,-216.5 0,-235.5 176,-235.5 176,-216.5 0,-216.5"/>
<text text-anchor="middle" x="88" y="-223.5" font-family="Helvetica,sans-Serif" font-size="10.00">simulationObjects.AntCell.update</text>
</g>
<!-- Node2 -->
<g id="node2" class="node"><title>Node2</title>
<g id="a_node2"><a xlink:href="../../d0/d1a/classsimulation_objects_1_1_ant_cell.html#a70a58b87ff6093514dfb9fa328a4e6be" target="_top" xlink:title="simulationObjects.AntCell.forage">
<polygon fill="white" stroke="black" points="212.5,-216.5 212.5,-235.5 385.5,-235.5 385.5,-216.5 212.5,-216.5"/>
<text text-anchor="middle" x="299" y="-223.5" font-family="Helvetica,sans-Serif" font-size="10.00">simulationObjects.AntCell.forage</text>
</a>
</g>
</g>
<!-- Node1&#45;&gt;Node2 -->
<g id="edge1" class="edge"><title>Node1&#45;&gt;Node2</title>
<path fill="none" stroke="midnightblue" d="M176.121,-226C184.735,-226 193.511,-226 202.207,-226"/>
<polygon fill="midnightblue" stroke="midnightblue" points="202.362,-229.5 212.362,-226 202.362,-222.5 202.362,-229.5"/>
</g>
<!-- Node3 -->
<g id="node3" class="node"><title>Node3</title>
<g id="a_node3"><a xlink:href="../../d0/d1a/classsimulation_objects_1_1_ant_cell.html#af16eb2ad78c444fcc223dd0db8df0811" target="_top" xlink:title="simulationObjects.AntCell.find\lFoodSource">
<polygon fill="white" stroke="black" points="428.5,-427 428.5,-457 587.5,-457 587.5,-427 428.5,-427"/>
<text text-anchor="start" x="436.5" y="-445" font-family="Helvetica,sans-Serif" font-size="10.00">simulationObjects.AntCell.find</text>
<text text-anchor="middle" x="508" y="-434" font-family="Helvetica,sans-Serif" font-size="10.00">FoodSource</text>
</a>
</g>
</g>
<!-- Node2&#45;&gt;Node3 -->
<g id="edge2" class="edge"><title>Node2&#45;&gt;Node3</title>
<path fill="none" stroke="midnightblue" d="M309.162,-235.56C340.005,-267.744 440.627,-372.741 485.297,-419.354"/>
<polygon fill="midnightblue" stroke="midnightblue" points="483.018,-422.034 492.464,-426.832 488.072,-417.191 483.018,-422.034"/>
</g>
<!-- Node14 -->
<g id="node14" class="node"><title>Node14</title>
<g id="a_node14"><a xlink:href="../../d0/d1a/classsimulation_objects_1_1_ant_cell.html#acd4456ec0ebaf2a4b0deb72283552f43" target="_top" xlink:title="simulationObjects.AntCell.has\lFoodItem">
<polygon fill="white" stroke="black" points="428.5,-162 428.5,-192 587.5,-192 587.5,-162 428.5,-162"/>
<text text-anchor="start" x="436.5" y="-180" font-family="Helvetica,sans-Serif" font-size="10.00">simulationObjects.AntCell.has</text>
<text text-anchor="middle" x="508" y="-169" font-family="Helvetica,sans-Serif" font-size="10.00">FoodItem</text>
</a>
</g>
</g>
<!-- Node2&#45;&gt;Node14 -->
<g id="edge14" class="edge"><title>Node2&#45;&gt;Node14</title>
<path fill="none" stroke="midnightblue" d="M340.403,-216.436C366.839,-210.178 402.155,-201.818 433.467,-194.406"/>
<polygon fill="midnightblue" stroke="midnightblue" points="434.552,-197.746 443.476,-192.037 432.939,-190.935 434.552,-197.746"/>
</g>
<!-- Node15 -->
<g id="node15" class="node"><title>Node15</title>
<g id="a_node15"><a xlink:href="../../d0/d1a/classsimulation_objects_1_1_ant_cell.html#aac2730a768c2d978ebf5b1be4bcda495" target="_top" xlink:title="simulationObjects.AntCell.return\lToNest">
<polygon fill="white" stroke="black" points="422.5,-211 422.5,-241 593.5,-241 593.5,-211 422.5,-211"/>
<text text-anchor="start" x="430.5" y="-229" font-family="Helvetica,sans-Serif" font-size="10.00">simulationObjects.AntCell.return</text>
<text text-anchor="middle" x="508" y="-218" font-family="Helvetica,sans-Serif" font-size="10.00">ToNest</text>
</a>
</g>
</g>
<!-- Node2&#45;&gt;Node15 -->
<g id="edge15" class="edge"><title>Node2&#45;&gt;Node15</title>
<path fill="none" stroke="midnightblue" d="M385.689,-226C394.403,-226 403.29,-226 412.094,-226"/>
<polygon fill="midnightblue" stroke="midnightblue" points="412.375,-229.5 422.375,-226 412.375,-222.5 412.375,-229.5"/>
</g>
<!-- Node4 -->
<g id="node4" class="node"><title>Node4</title>
<g id="a_node4"><a xlink:href="../../d0/d1a/classsimulation_objects_1_1_ant_cell.html#abc086e2bbb82c6e8b15e35255861a406" target="_top" xlink:title="simulationObjects.AntCell.drop\lHomePheromones">
<polygon fill="white" stroke="black" points="638,-449 638,-479 802,-479 802,-449 638,-449"/>
<text text-anchor="start" x="646" y="-467" font-family="Helvetica,sans-Serif" font-size="10.00">simulationObjects.AntCell.drop</text>
<text text-anchor="middle" x="720" y="-456" font-family="Helvetica,sans-Serif" font-size="10.00">HomePheromones</text>
</a>
</g>
</g>
<!-- Node3&#45;&gt;Node4 -->
<g id="edge3" class="edge"><title>Node3&#45;&gt;Node4</title>
<path fill="none" stroke="midnightblue" d="M587.794,-450.255C600.778,-451.615 614.333,-453.035 627.594,-454.424"/>
<polygon fill="midnightblue" stroke="midnightblue" points="627.353,-457.918 637.663,-455.479 628.082,-450.956 627.353,-457.918"/>
</g>
<!-- Node5 -->
<g id="node5" class="node"><title>Node5</title>
<g id="a_node5"><a xlink:href="../../d0/d1a/classsimulation_objects_1_1_ant_cell.html#abd65a70e95bf042a399723c80f859fec" target="_top" xlink:title="simulationObjects.AntCell.is\lAtNest">
<polygon fill="white" stroke="black" points="861.5,-449 861.5,-479 1010.5,-479 1010.5,-449 861.5,-449"/>
<text text-anchor="start" x="869.5" y="-467" font-family="Helvetica,sans-Serif" font-size="10.00">simulationObjects.AntCell.is</text>
<text text-anchor="middle" x="936" y="-456" font-family="Helvetica,sans-Serif" font-size="10.00">AtNest</text>
</a>
</g>
</g>
<!-- Node3&#45;&gt;Node5 -->
<g id="edge7" class="edge"><title>Node3&#45;&gt;Node5</title>
<path fill="none" stroke="midnightblue" d="M539.441,-457.125C563.387,-468.138 597.949,-482.113 630,-488 707.075,-502.156 796.613,-492.024 858.65,-480.898"/>
<polygon fill="midnightblue" stroke="midnightblue" points="859.549,-484.291 868.748,-479.034 858.279,-477.407 859.549,-484.291"/>
</g>
<!-- Node7 -->
<g id="node7" class="node"><title>Node7</title>
<g id="a_node7"><a xlink:href="../../d0/d1a/classsimulation_objects_1_1_ant_cell.html#a68c60b498db5dfe96ddfd7963d4066bf" target="_top" xlink:title="simulationObjects.AntCell.is\lAtFoodSource">
<polygon fill="white" stroke="black" points="861.5,-235 861.5,-265 1010.5,-265 1010.5,-235 861.5,-235"/>
<text text-anchor="start" x="869.5" y="-253" font-family="Helvetica,sans-Serif" font-size="10.00">simulationObjects.AntCell.is</text>
<text text-anchor="middle" x="936" y="-242" font-family="Helvetica,sans-Serif" font-size="10.00">AtFoodSource</text>
</a>
</g>
</g>
<!-- Node3&#45;&gt;Node7 -->
<g id="edge6" class="edge"><title>Node3&#45;&gt;Node7</title>
<path fill="none" stroke="midnightblue" d="M587.503,-439.052C664.447,-434.768 775.109,-424.452 810,-400 838.004,-380.375 825.126,-359.086 846,-332 863.763,-308.951 888.357,-286.84 907.191,-271.399"/>
<polygon fill="midnightblue" stroke="midnightblue" points="909.541,-274 915.133,-265 905.15,-268.549 909.541,-274"/>
</g>
<!-- Node8 -->
<g id="node8" class="node"><title>Node8</title>
<g id="a_node8"><a xlink:href="../../d0/d1a/classsimulation_objects_1_1_ant_cell.html#a8d02ac47540dcc815025c7668d203d5c" target="_top" xlink:title="simulationObjects.AntCell.moveTo">
<polygon fill="white" stroke="black" points="630.5,-322.5 630.5,-341.5 809.5,-341.5 809.5,-322.5 630.5,-322.5"/>
<text text-anchor="middle" x="720" y="-329.5" font-family="Helvetica,sans-Serif" font-size="10.00">simulationObjects.AntCell.moveTo</text>
</a>
</g>
</g>
<!-- Node3&#45;&gt;Node8 -->
<g id="edge8" class="edge"><title>Node3&#45;&gt;Node8</title>
<path fill="none" stroke="midnightblue" d="M524.362,-426.862C546.028,-406.409 587.664,-370.292 630,-351 635.434,-348.524 641.204,-346.364 647.091,-344.483"/>
<polygon fill="midnightblue" stroke="midnightblue" points="648.453,-347.731 657.072,-341.571 646.492,-341.012 648.453,-347.731"/>
</g>
<!-- Node9 -->
<g id="node9" class="node"><title>Node9</title>
<g id="a_node9"><a xlink:href="../../d0/d1a/classsimulation_objects_1_1_ant_cell.html#ac8d1ca7915d88c6e315f9a9744118f55" target="_top" xlink:title="simulationObjects.AntCell.pick\lUpFoodItem">
<polygon fill="white" stroke="black" points="639.5,-586 639.5,-616 800.5,-616 800.5,-586 639.5,-586"/>
<text text-anchor="start" x="647.5" y="-604" font-family="Helvetica,sans-Serif" font-size="10.00">simulationObjects.AntCell.pick</text>
<text text-anchor="middle" x="720" y="-593" font-family="Helvetica,sans-Serif" font-size="10.00">UpFoodItem</text>
</a>
</g>
</g>
<!-- Node3&#45;&gt;Node9 -->
<g id="edge9" class="edge"><title>Node3&#45;&gt;Node9</title>
<path fill="none" stroke="midnightblue" d="M518.6,-457.427C536.807,-485.386 579.12,-544.448 630,-576 633.431,-578.128 637.048,-580.079 640.779,-581.867"/>
<polygon fill="midnightblue" stroke="midnightblue" points="639.688,-585.209 650.254,-585.986 642.479,-578.789 639.688,-585.209"/>
</g>
<!-- Node10 -->
<g id="node10" class="node"><title>Node10</title>
<g id="a_node10"><a xlink:href="../../d0/d1a/classsimulation_objects_1_1_ant_cell.html#ac39fcb154bc4a678ff28e49306a63e63" target="_top" xlink:title="simulationObjects.AntCell.select\lLocation">
<polygon fill="white" stroke="black" points="635,-537 635,-567 805,-567 805,-537 635,-537"/>
<text text-anchor="start" x="643" y="-555" font-family="Helvetica,sans-Serif" font-size="10.00">simulationObjects.AntCell.select</text>
<text text-anchor="middle" x="720" y="-544" font-family="Helvetica,sans-Serif" font-size="10.00">Location</text>
</a>
</g>
</g>
<!-- Node3&#45;&gt;Node10 -->
<g id="edge10" class="edge"><title>Node3&#45;&gt;Node10</title>
<path fill="none" stroke="midnightblue" d="M528.59,-457.274C551.758,-474.774 591.99,-503.421 630,-522 638.589,-526.198 647.913,-530.047 657.183,-533.487"/>
<polygon fill="midnightblue" stroke="midnightblue" points="656.198,-536.851 666.792,-536.92 658.553,-530.259 656.198,-536.851"/>
</g>
<!-- Node13 -->
<g id="node13" class="node"><title>Node13</title>
<g id="a_node13"><a xlink:href="../../d0/d1a/classsimulation_objects_1_1_ant_cell.html#a6fa2215bbf3d1baad341c7158fac22a9" target="_top" xlink:title="simulationObjects.AntCell.set\lOrientation">
<polygon fill="white" stroke="black" points="641.5,-361 641.5,-391 798.5,-391 798.5,-361 641.5,-361"/>
<text text-anchor="start" x="649.5" y="-379" font-family="Helvetica,sans-Serif" font-size="10.00">simulationObjects.AntCell.set</text>
<text text-anchor="middle" x="720" y="-368" font-family="Helvetica,sans-Serif" font-size="10.00">Orientation</text>
</a>
</g>
</g>
<!-- Node3&#45;&gt;Node13 -->
<g id="edge13" class="edge"><title>Node3&#45;&gt;Node13</title>
<path fill="none" stroke="midnightblue" d="M556.915,-426.941C587.852,-417.218 628.288,-404.51 661.032,-394.219"/>
<polygon fill="midnightblue" stroke="midnightblue" points="662.437,-397.446 670.928,-391.108 660.338,-390.768 662.437,-397.446"/>
</g>
<!-- Node4&#45;&gt;Node5 -->
<g id="edge4" class="edge"><title>Node4&#45;&gt;Node5</title>
<path fill="none" stroke="midnightblue" d="M802.209,-464C818.116,-464 834.832,-464 850.833,-464"/>
<polygon fill="midnightblue" stroke="midnightblue" points="851.229,-467.5 861.229,-464 851.229,-460.5 851.229,-467.5"/>
</g>
<!-- Node6 -->
<g id="node6" class="node"><title>Node6</title>
<g id="a_node6"><a xlink:href="../../d0/d1a/classsimulation_objects_1_1_ant_cell.html#a6304515b4982b91503e34e27389f840d" target="_top" xlink:title="simulationObjects.AntCell.top\lOffPheromones">
<polygon fill="white" stroke="black" points="857,-342 857,-372 1015,-372 1015,-342 857,-342"/>
<text text-anchor="start" x="865" y="-360" font-family="Helvetica,sans-Serif" font-size="10.00">simulationObjects.AntCell.top</text>
<text text-anchor="middle" x="936" y="-349" font-family="Helvetica,sans-Serif" font-size="10.00">OffPheromones</text>
</a>
</g>
</g>
<!-- Node4&#45;&gt;Node6 -->
<g id="edge5" class="edge"><title>Node4&#45;&gt;Node6</title>
<path fill="none" stroke="midnightblue" d="M772.145,-448.973C784.742,-444.672 798.043,-439.609 810,-434 844.116,-417.997 880.517,-394.796 905.186,-378.049"/>
<polygon fill="midnightblue" stroke="midnightblue" points="907.451,-380.74 913.718,-372.197 903.492,-374.967 907.451,-380.74"/>
</g>
<!-- Node11 -->
<g id="node11" class="node"><title>Node11</title>
<g id="a_node11"><a xlink:href="../../d0/d1a/classsimulation_objects_1_1_ant_cell.html#aa1e29c1b347352891db2deaafb92c6ea" target="_top" xlink:title="simulationObjects.AntCell.process\lFullNeighbors">
<polygon fill="white" stroke="black" points="846.5,-517 846.5,-547 1025.5,-547 1025.5,-517 846.5,-517"/>
<text text-anchor="start" x="854.5" y="-535" font-family="Helvetica,sans-Serif" font-size="10.00">simulationObjects.AntCell.process</text>
<text text-anchor="middle" x="936" y="-524" font-family="Helvetica,sans-Serif" font-size="10.00">FullNeighbors</text>
</a>
</g>
</g>
<!-- Node10&#45;&gt;Node11 -->
<g id="edge11" class="edge"><title>Node10&#45;&gt;Node11</title>
<path fill="none" stroke="midnightblue" d="M805.271,-544.124C815.359,-543.181 825.73,-542.212 836.002,-541.252"/>
<polygon fill="midnightblue" stroke="midnightblue" points="836.596,-544.712 846.227,-540.297 835.944,-537.742 836.596,-544.712"/>
</g>
<!-- Node12 -->
<g id="node12" class="node"><title>Node12</title>
<g id="a_node12"><a xlink:href="../../d0/d1a/classsimulation_objects_1_1_ant_cell.html#a80961da26960feed000c403869270a57" target="_top" xlink:title="simulationObjects.AntCell.process\lNeighbors">
<polygon fill="white" stroke="black" points="846.5,-566 846.5,-596 1025.5,-596 1025.5,-566 846.5,-566"/>
<text text-anchor="start" x="854.5" y="-584" font-family="Helvetica,sans-Serif" font-size="10.00">simulationObjects.AntCell.process</text>
<text text-anchor="middle" x="936" y="-573" font-family="Helvetica,sans-Serif" font-size="10.00">Neighbors</text>
</a>
</g>
</g>
<!-- Node10&#45;&gt;Node12 -->
<g id="edge12" class="edge"><title>Node10&#45;&gt;Node12</title>
<path fill="none" stroke="midnightblue" d="M805.271,-563.42C815.359,-564.787 825.73,-566.192 836.002,-567.584"/>
<polygon fill="midnightblue" stroke="midnightblue" points="835.847,-571.095 846.227,-568.97 836.787,-564.159 835.847,-571.095"/>
</g>
<!-- Node15&#45;&gt;Node5 -->
<g id="edge23" class="edge"><title>Node15&#45;&gt;Node5</title>
<path fill="none" stroke="midnightblue" d="M542.631,-241.07C566.62,-251.39 599.84,-264.819 630,-274 708.308,-297.839 744.768,-263.551 810,-313 837.251,-333.658 825.207,-353.851 846,-381 863.793,-404.232 888.384,-426.621 907.21,-442.279"/>
<polygon fill="midnightblue" stroke="midnightblue" points="905.19,-445.148 915.148,-448.768 909.621,-439.729 905.19,-445.148"/>
</g>
<!-- Node15&#45;&gt;Node7 -->
<g id="edge22" class="edge"><title>Node15&#45;&gt;Node7</title>
<path fill="none" stroke="midnightblue" d="M581.162,-210.791C585.843,-208.044 590.196,-204.809 594,-201 634.25,-160.697 584.416,-112.155 630,-78 694.022,-30.03 738.717,-41.6855 810,-78 871.121,-109.137 909.371,-185.697 925.749,-225.331"/>
<polygon fill="midnightblue" stroke="midnightblue" points="922.568,-226.801 929.53,-234.788 929.067,-224.203 922.568,-226.801"/>
</g>
<!-- Node15&#45;&gt;Node8 -->
<g id="edge24" class="edge"><title>Node15&#45;&gt;Node8</title>
<path fill="none" stroke="midnightblue" d="M527.112,-241.141C549.813,-259.414 590.548,-289.93 630,-308 640.137,-312.643 651.349,-316.536 662.299,-319.744"/>
<polygon fill="midnightblue" stroke="midnightblue" points="661.672,-323.202 672.243,-322.499 663.541,-316.456 661.672,-323.202"/>
</g>
<!-- Node15&#45;&gt;Node13 -->
<g id="edge25" class="edge"><title>Node15&#45;&gt;Node13</title>
<path fill="none" stroke="midnightblue" d="M519.451,-241.196C538.385,-267.563 580.972,-321.761 630,-351 633.644,-353.173 637.485,-355.164 641.443,-356.988"/>
<polygon fill="midnightblue" stroke="midnightblue" points="640.278,-360.295 650.852,-360.944 642.991,-353.842 640.278,-360.295"/>
</g>
<!-- Node16 -->
<g id="node16" class="node"><title>Node16</title>
<g id="a_node16"><a xlink:href="../../d0/d1a/classsimulation_objects_1_1_ant_cell.html#a5ddcc09dafb883d58ed247056a83d93c" target="_top" xlink:title="simulationObjects.AntCell.drop\lFoodItem">
<polygon fill="white" stroke="black" points="638,-0 638,-30 802,-30 802,-0 638,-0"/>
<text text-anchor="start" x="646" y="-18" font-family="Helvetica,sans-Serif" font-size="10.00">simulationObjects.AntCell.drop</text>
<text text-anchor="middle" x="720" y="-7" font-family="Helvetica,sans-Serif" font-size="10.00">FoodItem</text>
</a>
</g>
</g>
<!-- Node15&#45;&gt;Node16 -->
<g id="edge16" class="edge"><title>Node15&#45;&gt;Node16</title>
<path fill="none" stroke="midnightblue" d="M581.808,-210.792C586.28,-208.042 590.413,-204.806 594,-201 642.802,-149.217 582.219,-97.7262 630,-45 633.316,-41.3413 637.092,-38.1284 641.174,-35.307"/>
<polygon fill="midnightblue" stroke="midnightblue" points="643.16,-38.1968 649.932,-30.0482 639.557,-32.1955 643.16,-38.1968"/>
</g>
<!-- Node17 -->
<g id="node17" class="node"><title>Node17</title>
<g id="a_node17"><a xlink:href="../../d0/d1a/classsimulation_objects_1_1_ant_cell.html#acd24e1bee3aaf27acafd05722f6cbb62" target="_top" xlink:title="simulationObjects.AntCell.drop\lFoodPheromones">
<polygon fill="white" stroke="black" points="638,-235 638,-265 802,-265 802,-235 638,-235"/>
<text text-anchor="start" x="646" y="-253" font-family="Helvetica,sans-Serif" font-size="10.00">simulationObjects.AntCell.drop</text>
<text text-anchor="middle" x="720" y="-242" font-family="Helvetica,sans-Serif" font-size="10.00">FoodPheromones</text>
</a>
</g>
</g>
<!-- Node15&#45;&gt;Node17 -->
<g id="edge17" class="edge"><title>Node15&#45;&gt;Node17</title>
<path fill="none" stroke="midnightblue" d="M593.507,-235.658C604.79,-236.947 616.402,-238.275 627.793,-239.576"/>
<polygon fill="midnightblue" stroke="midnightblue" points="627.401,-243.054 637.733,-240.712 628.196,-236.099 627.401,-243.054"/>
</g>
<!-- Node18 -->
<g id="node18" class="node"><title>Node18</title>
<g id="a_node18"><a xlink:href="../../d0/d1a/classsimulation_objects_1_1_ant_cell.html#a66acb24ed33e2dcc3bc85b443c66590a" target="_top" xlink:title="simulationObjects.AntCell.find\lMaxPheromoneNeighbor">
<polygon fill="white" stroke="black" points="640.5,-186 640.5,-216 799.5,-216 799.5,-186 640.5,-186"/>
<text text-anchor="start" x="648.5" y="-204" font-family="Helvetica,sans-Serif" font-size="10.00">simulationObjects.AntCell.find</text>
<text text-anchor="middle" x="720" y="-193" font-family="Helvetica,sans-Serif" font-size="10.00">MaxPheromoneNeighbor</text>
</a>
</g>
</g>
<!-- Node15&#45;&gt;Node18 -->
<g id="edge20" class="edge"><title>Node15&#45;&gt;Node18</title>
<path fill="none" stroke="midnightblue" d="M593.507,-215.94C605.617,-214.498 618.105,-213.011 630.292,-211.56"/>
<polygon fill="midnightblue" stroke="midnightblue" points="630.928,-215.01 640.444,-210.352 630.101,-208.059 630.928,-215.01"/>
</g>
<!-- Node19 -->
<g id="node19" class="node"><title>Node19</title>
<g id="a_node19"><a xlink:href="../../d5/da5/classsimulation_objects_1_1_patch.html#ac36baf5630549a97a4916353710ebc25" target="_top" xlink:title="simulationObjects.Patch.get\lState">
<polygon fill="white" stroke="black" points="645,-137 645,-167 795,-167 795,-137 645,-137"/>
<text text-anchor="start" x="653" y="-155" font-family="Helvetica,sans-Serif" font-size="10.00">simulationObjects.Patch.get</text>
<text text-anchor="middle" x="720" y="-144" font-family="Helvetica,sans-Serif" font-size="10.00">State</text>
</a>
</g>
</g>
<!-- Node15&#45;&gt;Node19 -->
<g id="edge21" class="edge"><title>Node15&#45;&gt;Node19</title>
<path fill="none" stroke="midnightblue" d="M569.351,-210.877C577.793,-208.008 586.231,-204.72 594,-201 611.57,-192.588 612.336,-184.212 630,-176 634.308,-173.997 638.814,-172.136 643.414,-170.411"/>
<polygon fill="midnightblue" stroke="midnightblue" points="644.68,-173.676 652.954,-167.058 642.359,-167.071 644.68,-173.676"/>
</g>
<!-- Node20 -->
<g id="node20" class="node"><title>Node20</title>
<g id="a_node20"><a xlink:href="../../d0/d1a/classsimulation_objects_1_1_ant_cell.html#adbddc0189a94aef24e453ac2685a09bf" target="_top" xlink:title="simulationObjects.AntCell.shift\lOrientation">
<polygon fill="white" stroke="black" points="639,-88 639,-118 801,-118 801,-88 639,-88"/>
<text text-anchor="start" x="647" y="-106" font-family="Helvetica,sans-Serif" font-size="10.00">simulationObjects.AntCell.shift</text>
<text text-anchor="middle" x="720" y="-95" font-family="Helvetica,sans-Serif" font-size="10.00">Orientation</text>
</a>
</g>
</g>
<!-- Node15&#45;&gt;Node20 -->
<g id="edge26" class="edge"><title>Node15&#45;&gt;Node20</title>
<path fill="none" stroke="midnightblue" d="M578.81,-210.914C584.262,-208.148 589.42,-204.874 594,-201 621.926,-177.381 601.809,-150.301 630,-127 631.573,-125.7 633.21,-124.47 634.9,-123.306"/>
<polygon fill="midnightblue" stroke="midnightblue" points="636.961,-126.152 643.754,-118.022 633.374,-120.141 636.961,-126.152"/>
</g>
<!-- Node17&#45;&gt;Node6 -->
<g id="edge19" class="edge"><title>Node17&#45;&gt;Node6</title>
<path fill="none" stroke="midnightblue" d="M772.145,-265.027C784.742,-269.328 798.043,-274.391 810,-280 844.116,-296.003 880.517,-319.204 905.186,-335.951"/>
<polygon fill="midnightblue" stroke="midnightblue" points="903.492,-339.033 913.718,-341.803 907.451,-333.26 903.492,-339.033"/>
</g>
<!-- Node17&#45;&gt;Node7 -->
<g id="edge18" class="edge"><title>Node17&#45;&gt;Node7</title>
<path fill="none" stroke="midnightblue" d="M802.209,-250C818.116,-250 834.832,-250 850.833,-250"/>
<polygon fill="midnightblue" stroke="midnightblue" points="851.229,-253.5 861.229,-250 851.229,-246.5 851.229,-253.5"/>
</g>
</g>
</svg>
