<?xml version="1.0" encoding="UTF-8" standalone="no"?>
<!DOCTYPE svg PUBLIC "-//W3C//DTD SVG 1.1//EN"
 "http://www.w3.org/Graphics/SVG/1.1/DTD/svg11.dtd">
<!-- Generated by graphviz version 2.36.0 (20140111.2315)
 -->
<!-- Title: simulationObjects.AntCell.returnToNest Pages: 1 -->
<svg width="590pt" height="410pt"
 viewBox="0.00 0.00 590.00 410.00" xmlns="http://www.w3.org/2000/svg" xmlns:xlink="http://www.w3.org/1999/xlink">
<g id="graph0" class="graph" transform="scale(1 1) rotate(0) translate(4 406)">
<title>simulationObjects.AntCell.returnToNest</title>
<polygon fill="white" stroke="none" points="-4,4 -4,-406 586,-406 586,4 -4,4"/>
<!-- Node1 -->
<g id="node1" class="node"><title>Node1</title>
<polygon fill="#bfbfbf" stroke="black" points="0.5,-186 0.5,-216 171.5,-216 171.5,-186 0.5,-186"/>
<text text-anchor="start" x="8.5" y="-204" font-family="Helvetica,sans-Serif" font-size="10.00">simulationObjects.AntCell.return</text>
<text text-anchor="middle" x="86" y="-193" font-family="Helvetica,sans-Serif" font-size="10.00">ToNest</text>
</g>
<!-- Node2 -->
<g id="node2" class="node"><title>Node2</title>
<g id="a_node2"><a xlink:href="../../d0/d1a/classsimulation_objects_1_1_ant_cell.html#a5ddcc09dafb883d58ed247056a83d93c" target="_top" xlink:title="simulationObjects.AntCell.drop\lFoodItem">
<polygon fill="white" stroke="black" points="216,-372 216,-402 380,-402 380,-372 216,-372"/>
<text text-anchor="start" x="224" y="-390" font-family="Helvetica,sans-Serif" font-size="10.00">simulationObjects.AntCell.drop</text>
<text text-anchor="middle" x="298" y="-379" font-family="Helvetica,sans-Serif" font-size="10.00">FoodItem</text>
</a>
</g>
</g>
<!-- Node1&#45;&gt;Node2 -->
<g id="edge1" class="edge"><title>Node1&#45;&gt;Node2</title>
<path fill="none" stroke="midnightblue" d="M94.802,-216.276C111.408,-247.307 153.25,-318.07 208,-357 213.847,-361.158 220.313,-364.772 227.013,-367.908"/>
<polygon fill="midnightblue" stroke="midnightblue" points="225.689,-371.148 236.258,-371.892 228.46,-364.72 225.689,-371.148"/>
</g>
<!-- Node3 -->
<g id="node3" class="node"><title>Node3</title>
<g id="a_node3"><a xlink:href="../../d0/d1a/classsimulation_objects_1_1_ant_cell.html#acd24e1bee3aaf27acafd05722f6cbb62" target="_top" xlink:title="simulationObjects.AntCell.drop\lFoodPheromones">
<polygon fill="white" stroke="black" points="216,-284 216,-314 380,-314 380,-284 216,-284"/>
<text text-anchor="start" x="224" y="-302" font-family="Helvetica,sans-Serif" font-size="10.00">simulationObjects.AntCell.drop</text>
<text text-anchor="middle" x="298" y="-291" font-family="Helvetica,sans-Serif" font-size="10.00">FoodPheromones</text>
</a>
</g>
</g>
<!-- Node1&#45;&gt;Node3 -->
<g id="edge2" class="edge"><title>Node1&#45;&gt;Node3</title>
<path fill="none" stroke="midnightblue" d="M107.915,-216.021C131.321,-232.246 170.847,-257.925 208,-274 213.473,-276.368 219.232,-278.575 225.079,-280.619"/>
<polygon fill="midnightblue" stroke="midnightblue" points="224.374,-284.072 234.967,-283.902 226.58,-277.429 224.374,-284.072"/>
</g>
<!-- Node4 -->
<g id="node4" class="node"><title>Node4</title>
<g id="a_node4"><a xlink:href="../../d0/d1a/classsimulation_objects_1_1_ant_cell.html#a68c60b498db5dfe96ddfd7963d4066bf" target="_top" xlink:title="simulationObjects.AntCell.is\lAtFoodSource">
<polygon fill="white" stroke="black" points="428.5,-328 428.5,-358 577.5,-358 577.5,-328 428.5,-328"/>
<text text-anchor="start" x="436.5" y="-346" font-family="Helvetica,sans-Serif" font-size="10.00">simulationObjects.AntCell.is</text>
<text text-anchor="middle" x="503" y="-335" font-family="Helvetica,sans-Serif" font-size="10.00">AtFoodSource</text>
</a>
</g>
</g>
<!-- Node1&#45;&gt;Node4 -->
<g id="edge7" class="edge"><title>Node1&#45;&gt;Node4</title>
<path fill="none" stroke="midnightblue" d="M96.4182,-216.02C114.329,-243.06 156.179,-299.314 208,-323 273.978,-353.156 357.065,-356.042 418.066,-352.615"/>
<polygon fill="midnightblue" stroke="midnightblue" points="418.664,-356.084 428.424,-351.961 418.223,-349.098 418.664,-356.084"/>
</g>
<!-- Node6 -->
<g id="node6" class="node"><title>Node6</title>
<g id="a_node6"><a xlink:href="../../d0/d1a/classsimulation_objects_1_1_ant_cell.html#a66acb24ed33e2dcc3bc85b443c66590a" target="_top" xlink:title="simulationObjects.AntCell.find\lMaxPheromoneNeighbor">
<polygon fill="white" stroke="black" points="218.5,-235 218.5,-265 377.5,-265 377.5,-235 218.5,-235"/>
<text text-anchor="start" x="226.5" y="-253" font-family="Helvetica,sans-Serif" font-size="10.00">simulationObjects.AntCell.find</text>
<text text-anchor="middle" x="298" y="-242" font-family="Helvetica,sans-Serif" font-size="10.00">MaxPheromoneNeighbor</text>
</a>
</g>
</g>
<!-- Node1&#45;&gt;Node6 -->
<g id="edge5" class="edge"><title>Node1&#45;&gt;Node6</title>
<path fill="none" stroke="midnightblue" d="M151.434,-216.035C174.01,-221.302 199.543,-227.26 222.85,-232.698"/>
<polygon fill="midnightblue" stroke="midnightblue" points="222.154,-236.13 232.688,-234.994 223.745,-229.313 222.154,-236.13"/>
</g>
<!-- Node7 -->
<g id="node7" class="node"><title>Node7</title>
<g id="a_node7"><a xlink:href="../../d5/da5/classsimulation_objects_1_1_patch.html#ac36baf5630549a97a4916353710ebc25" target="_top" xlink:title="simulationObjects.Patch.get\lState">
<polygon fill="white" stroke="black" points="223,-186 223,-216 373,-216 373,-186 223,-186"/>
<text text-anchor="start" x="231" y="-204" font-family="Helvetica,sans-Serif" font-size="10.00">simulationObjects.Patch.get</text>
<text text-anchor="middle" x="298" y="-193" font-family="Helvetica,sans-Serif" font-size="10.00">State</text>
</a>
</g>
</g>
<!-- Node1&#45;&gt;Node7 -->
<g id="edge6" class="edge"><title>Node1&#45;&gt;Node7</title>
<path fill="none" stroke="midnightblue" d="M171.507,-201C185.04,-201 199.044,-201 212.575,-201"/>
<polygon fill="midnightblue" stroke="midnightblue" points="212.814,-204.5 222.814,-201 212.814,-197.5 212.814,-204.5"/>
</g>
<!-- Node8 -->
<g id="node8" class="node"><title>Node8</title>
<g id="a_node8"><a xlink:href="../../d0/d1a/classsimulation_objects_1_1_ant_cell.html#abd65a70e95bf042a399723c80f859fec" target="_top" xlink:title="simulationObjects.AntCell.is\lAtNest">
<polygon fill="white" stroke="black" points="223.5,-137 223.5,-167 372.5,-167 372.5,-137 223.5,-137"/>
<text text-anchor="start" x="231.5" y="-155" font-family="Helvetica,sans-Serif" font-size="10.00">simulationObjects.AntCell.is</text>
<text text-anchor="middle" x="298" y="-144" font-family="Helvetica,sans-Serif" font-size="10.00">AtNest</text>
</a>
</g>
</g>
<!-- Node1&#45;&gt;Node8 -->
<g id="edge8" class="edge"><title>Node1&#45;&gt;Node8</title>
<path fill="none" stroke="midnightblue" d="M151.434,-185.965C174.01,-180.698 199.543,-174.74 222.85,-169.302"/>
<polygon fill="midnightblue" stroke="midnightblue" points="223.745,-172.687 232.688,-167.006 222.154,-165.87 223.745,-172.687"/>
</g>
<!-- Node9 -->
<g id="node9" class="node"><title>Node9</title>
<g id="a_node9"><a xlink:href="../../d0/d1a/classsimulation_objects_1_1_ant_cell.html#a8d02ac47540dcc815025c7668d203d5c" target="_top" xlink:title="simulationObjects.AntCell.moveTo">
<polygon fill="white" stroke="black" points="208.5,-98.5 208.5,-117.5 387.5,-117.5 387.5,-98.5 208.5,-98.5"/>
<text text-anchor="middle" x="298" y="-105.5" font-family="Helvetica,sans-Serif" font-size="10.00">simulationObjects.AntCell.moveTo</text>
</a>
</g>
</g>
<!-- Node1&#45;&gt;Node9 -->
<g id="edge9" class="edge"><title>Node1&#45;&gt;Node9</title>
<path fill="none" stroke="midnightblue" d="M107.337,-185.905C130.551,-169.368 170.208,-143.18 208,-128 215.522,-124.979 223.595,-122.366 231.696,-120.119"/>
<polygon fill="midnightblue" stroke="midnightblue" points="232.76,-123.459 241.558,-117.557 230.999,-116.684 232.76,-123.459"/>
</g>
<!-- Node10 -->
<g id="node10" class="node"><title>Node10</title>
<g id="a_node10"><a xlink:href="../../d0/d1a/classsimulation_objects_1_1_ant_cell.html#a6fa2215bbf3d1baad341c7158fac22a9" target="_top" xlink:title="simulationObjects.AntCell.set\lOrientation">
<polygon fill="white" stroke="black" points="219.5,-49 219.5,-79 376.5,-79 376.5,-49 219.5,-49"/>
<text text-anchor="start" x="227.5" y="-67" font-family="Helvetica,sans-Serif" font-size="10.00">simulationObjects.AntCell.set</text>
<text text-anchor="middle" x="298" y="-56" font-family="Helvetica,sans-Serif" font-size="10.00">Orientation</text>
</a>
</g>
</g>
<!-- Node1&#45;&gt;Node10 -->
<g id="edge10" class="edge"><title>Node1&#45;&gt;Node10</title>
<path fill="none" stroke="midnightblue" d="M99.0961,-185.903C119.179,-161.838 161.791,-114.866 208,-89 211.967,-86.7792 216.146,-84.7439 220.442,-82.88"/>
<polygon fill="midnightblue" stroke="midnightblue" points="222.003,-86.0253 229.994,-79.0683 219.409,-79.5238 222.003,-86.0253"/>
</g>
<!-- Node11 -->
<g id="node11" class="node"><title>Node11</title>
<g id="a_node11"><a xlink:href="../../d0/d1a/classsimulation_objects_1_1_ant_cell.html#adbddc0189a94aef24e453ac2685a09bf" target="_top" xlink:title="simulationObjects.AntCell.shift\lOrientation">
<polygon fill="white" stroke="black" points="217,-0 217,-30 379,-30 379,-0 217,-0"/>
<text text-anchor="start" x="225" y="-18" font-family="Helvetica,sans-Serif" font-size="10.00">simulationObjects.AntCell.shift</text>
<text text-anchor="middle" x="298" y="-7" font-family="Helvetica,sans-Serif" font-size="10.00">Orientation</text>
</a>
</g>
</g>
<!-- Node1&#45;&gt;Node11 -->
<g id="edge11" class="edge"><title>Node1&#45;&gt;Node11</title>
<path fill="none" stroke="midnightblue" d="M93.9626,-185.833C109.558,-153.597 150.49,-78.0358 208,-39 210.28,-37.4524 212.656,-36.0045 215.104,-34.6497"/>
<polygon fill="midnightblue" stroke="midnightblue" points="216.827,-37.7029 224.247,-30.1406 213.73,-31.4249 216.827,-37.7029"/>
</g>
<!-- Node3&#45;&gt;Node4 -->
<g id="edge3" class="edge"><title>Node3&#45;&gt;Node4</title>
<path fill="none" stroke="midnightblue" d="M368.293,-314.019C385.834,-317.821 404.807,-321.934 422.797,-325.833"/>
<polygon fill="midnightblue" stroke="midnightblue" points="422.16,-329.276 432.675,-327.974 423.643,-322.435 422.16,-329.276"/>
</g>
<!-- Node5 -->
<g id="node5" class="node"><title>Node5</title>
<g id="a_node5"><a xlink:href="../../d0/d1a/classsimulation_objects_1_1_ant_cell.html#a6304515b4982b91503e34e27389f840d" target="_top" xlink:title="simulationObjects.AntCell.top\lOffPheromones">
<polygon fill="white" stroke="black" points="424,-279 424,-309 582,-309 582,-279 424,-279"/>
<text text-anchor="start" x="432" y="-297" font-family="Helvetica,sans-Serif" font-size="10.00">simulationObjects.AntCell.top</text>
<text text-anchor="middle" x="503" y="-286" font-family="Helvetica,sans-Serif" font-size="10.00">OffPheromones</text>
</a>
</g>
</g>
<!-- Node3&#45;&gt;Node5 -->
<g id="edge4" class="edge"><title>Node3&#45;&gt;Node5</title>
<path fill="none" stroke="midnightblue" d="M380.106,-297.002C391.183,-296.729 402.597,-296.448 413.792,-296.173"/>
<polygon fill="midnightblue" stroke="midnightblue" points="414.084,-299.667 423.995,-295.921 413.912,-292.669 414.084,-299.667"/>
</g>
</g>
</svg>
