<?xml version="1.0" encoding="UTF-8" standalone="no"?>
<!DOCTYPE svg PUBLIC "-//W3C//DTD SVG 1.1//EN"
 "http://www.w3.org/Graphics/SVG/1.1/DTD/svg11.dtd">
<!-- Generated by graphviz version 2.36.0 (20140111.2315)
 -->
<!-- Title: simulationObjects.PatchBody.getPatchWidth Pages: 1 -->
<svg width="2358pt" height="356pt"
 viewBox="0.00 0.00 2358.00 355.97" xmlns="http://www.w3.org/2000/svg" xmlns:xlink="http://www.w3.org/1999/xlink">
<g id="graph0" class="graph" transform="scale(1 1) rotate(0) translate(4 351.972)">
<title>simulationObjects.PatchBody.getPatchWidth</title>
<polygon fill="white" stroke="none" points="-4,4 -4,-351.972 2354,-351.972 2354,4 -4,4"/>
<!-- Node1 -->
<g id="node1" class="node"><title>Node1</title>
<polygon fill="#bfbfbf" stroke="black" points="0.5,-163.972 0.5,-193.972 173.5,-193.972 173.5,-163.972 0.5,-163.972"/>
<text text-anchor="start" x="8.5" y="-181.972" font-family="Helvetica,sans-Serif" font-size="10.00">simulationObjects.PatchBody.get</text>
<text text-anchor="middle" x="87" y="-170.972" font-family="Helvetica,sans-Serif" font-size="10.00">PatchWidth</text>
</g>
<!-- Node2 -->
<g id="node2" class="node"><title>Node2</title>
<g id="a_node2"><a xlink:href="../../d9/d93/classsimulation_objects_1_1_patch_body_rectangle.html#a9eadab113da9b80f951bf333791d1ff3" target="_top" xlink:title="simulationObjects.PatchBody\lRectangle.buildBody">
<polygon fill="white" stroke="black" points="216.5,-237.972 216.5,-267.972 371.5,-267.972 371.5,-237.972 216.5,-237.972"/>
<text text-anchor="start" x="224.5" y="-255.972" font-family="Helvetica,sans-Serif" font-size="10.00">simulationObjects.PatchBody</text>
<text text-anchor="middle" x="294" y="-244.972" font-family="Helvetica,sans-Serif" font-size="10.00">Rectangle.buildBody</text>
</a>
</g>
</g>
<!-- Node1&#45;&gt;Node2 -->
<g id="edge1" class="edge"><title>Node1&#45;&gt;Node2</title>
<path fill="none" stroke="midnightblue" d="M132.648,-198.018C155.583,-207.517 184.085,-218.885 210,-227.972 219.799,-231.408 230.345,-234.808 240.525,-237.941"/>
<polygon fill="midnightblue" stroke="midnightblue" points="133.761,-194.69 123.184,-194.074 131.068,-201.152 133.761,-194.69"/>
</g>
<!-- Node4 -->
<g id="node4" class="node"><title>Node4</title>
<g id="a_node4"><a xlink:href="../../dc/df0/classsimulation_objects_1_1_patch_body_triangle.html#af06af0312cd13639f8685d1552d73dd1" target="_top" xlink:title="simulationObjects.PatchBody\lTriangle.buildBody">
<polygon fill="white" stroke="black" points="216.5,-188.972 216.5,-218.972 371.5,-218.972 371.5,-188.972 216.5,-188.972"/>
<text text-anchor="start" x="224.5" y="-206.972" font-family="Helvetica,sans-Serif" font-size="10.00">simulationObjects.PatchBody</text>
<text text-anchor="middle" x="294" y="-195.972" font-family="Helvetica,sans-Serif" font-size="10.00">Triangle.buildBody</text>
</a>
</g>
</g>
<!-- Node1&#45;&gt;Node4 -->
<g id="edge3" class="edge"><title>Node1&#45;&gt;Node4</title>
<path fill="none" stroke="midnightblue" d="M183.76,-190.65C194.707,-191.985 205.756,-193.332 216.406,-194.631"/>
<polygon fill="midnightblue" stroke="midnightblue" points="184.101,-187.166 173.751,-189.429 183.253,-194.114 184.101,-187.166"/>
</g>
<!-- Node6 -->
<g id="node6" class="node"><title>Node6</title>
<g id="a_node6"><a xlink:href="../../d8/dfe/classsimulation_objects_1_1_patch_body_hexagon.html#aca47a8d7da67fe3ff2cde904deca8899" target="_top" xlink:title="simulationObjects.PatchBody\lHexagon.PatchBodyHexagon">
<polygon fill="white" stroke="black" points="216.5,-139.972 216.5,-169.972 371.5,-169.972 371.5,-139.972 216.5,-139.972"/>
<text text-anchor="start" x="224.5" y="-157.972" font-family="Helvetica,sans-Serif" font-size="10.00">simulationObjects.PatchBody</text>
<text text-anchor="middle" x="294" y="-146.972" font-family="Helvetica,sans-Serif" font-size="10.00">Hexagon.PatchBodyHexagon</text>
</a>
</g>
</g>
<!-- Node1&#45;&gt;Node6 -->
<g id="edge5" class="edge"><title>Node1&#45;&gt;Node6</title>
<path fill="none" stroke="midnightblue" d="M183.76,-167.761C194.707,-166.479 205.756,-165.186 216.406,-163.939"/>
<polygon fill="midnightblue" stroke="midnightblue" points="183.276,-164.294 173.751,-168.933 184.09,-171.246 183.276,-164.294"/>
</g>
<!-- Node7 -->
<g id="node7" class="node"><title>Node7</title>
<g id="a_node7"><a xlink:href="../../d5/da5/classsimulation_objects_1_1_patch.html#a06f00537a57f3678cf147c580b92de0d" target="_top" xlink:title="simulationObjects.Patch.update\lCellConstraints">
<polygon fill="white" stroke="black" points="210,-90.9718 210,-120.972 378,-120.972 378,-90.9718 210,-90.9718"/>
<text text-anchor="start" x="218" y="-108.972" font-family="Helvetica,sans-Serif" font-size="10.00">simulationObjects.Patch.update</text>
<text text-anchor="middle" x="294" y="-97.9718" font-family="Helvetica,sans-Serif" font-size="10.00">CellConstraints</text>
</a>
</g>
</g>
<!-- Node1&#45;&gt;Node7 -->
<g id="edge6" class="edge"><title>Node1&#45;&gt;Node7</title>
<path fill="none" stroke="midnightblue" d="M132.356,-159.908C155.322,-150.357 183.941,-138.947 210,-129.972 218.935,-126.894 228.499,-123.878 237.841,-121.079"/>
<polygon fill="midnightblue" stroke="midnightblue" points="130.755,-156.784 122.884,-163.875 133.459,-163.241 130.755,-156.784"/>
</g>
<!-- Node3 -->
<g id="node3" class="node"><title>Node3</title>
<g id="a_node3"><a xlink:href="../../d9/d93/classsimulation_objects_1_1_patch_body_rectangle.html#a9df877efcfbeb43bc4482635a2850ad5" target="_top" xlink:title="simulationObjects.PatchBody\lRectangle.PatchBodyRectangle">
<polygon fill="white" stroke="black" points="441.5,-237.972 441.5,-267.972 604.5,-267.972 604.5,-237.972 441.5,-237.972"/>
<text text-anchor="start" x="449.5" y="-255.972" font-family="Helvetica,sans-Serif" font-size="10.00">simulationObjects.PatchBody</text>
<text text-anchor="middle" x="523" y="-244.972" font-family="Helvetica,sans-Serif" font-size="10.00">Rectangle.PatchBodyRectangle</text>
</a>
</g>
</g>
<!-- Node2&#45;&gt;Node3 -->
<g id="edge2" class="edge"><title>Node2&#45;&gt;Node3</title>
<path fill="none" stroke="midnightblue" d="M381.638,-252.972C401.178,-252.972 421.846,-252.972 441.138,-252.972"/>
<polygon fill="midnightblue" stroke="midnightblue" points="381.535,-249.472 371.535,-252.972 381.535,-256.472 381.535,-249.472"/>
</g>
<!-- Node5 -->
<g id="node5" class="node"><title>Node5</title>
<g id="a_node5"><a xlink:href="../../dc/df0/classsimulation_objects_1_1_patch_body_triangle.html#a3a12b11e10051311aa061e65b0df98da" target="_top" xlink:title="simulationObjects.PatchBody\lTriangle.PatchBodyTriangle">
<polygon fill="white" stroke="black" points="445.5,-188.972 445.5,-218.972 600.5,-218.972 600.5,-188.972 445.5,-188.972"/>
<text text-anchor="start" x="453.5" y="-206.972" font-family="Helvetica,sans-Serif" font-size="10.00">simulationObjects.PatchBody</text>
<text text-anchor="middle" x="523" y="-195.972" font-family="Helvetica,sans-Serif" font-size="10.00">Triangle.PatchBodyTriangle</text>
</a>
</g>
</g>
<!-- Node4&#45;&gt;Node5 -->
<g id="edge4" class="edge"><title>Node4&#45;&gt;Node5</title>
<path fill="none" stroke="midnightblue" d="M381.712,-203.972C402.681,-203.972 424.945,-203.972 445.411,-203.972"/>
<polygon fill="midnightblue" stroke="midnightblue" points="381.535,-200.472 371.535,-203.972 381.535,-207.472 381.535,-200.472"/>
</g>
<!-- Node8 -->
<g id="node8" class="node"><title>Node8</title>
<g id="a_node8"><a xlink:href="../../d5/da5/classsimulation_objects_1_1_patch.html#ac05b7dd86c9f30b498d93d62cbbba9a4" target="_top" xlink:title="simulationObjects.Patch.addCell">
<polygon fill="white" stroke="black" points="438,-142.472 438,-161.472 608,-161.472 608,-142.472 438,-142.472"/>
<text text-anchor="middle" x="523" y="-149.472" font-family="Helvetica,sans-Serif" font-size="10.00">simulationObjects.Patch.addCell</text>
</a>
</g>
</g>
<!-- Node7&#45;&gt;Node8 -->
<g id="edge7" class="edge"><title>Node7&#45;&gt;Node8</title>
<path fill="none" stroke="midnightblue" d="M379.246,-123.044C411.594,-129.599 447.346,-136.844 474.978,-142.443"/>
<polygon fill="midnightblue" stroke="midnightblue" points="379.824,-119.59 369.328,-121.034 378.434,-126.45 379.824,-119.59"/>
</g>
<!-- Node28 -->
<g id="node28" class="node"><title>Node28</title>
<g id="a_node28"><a xlink:href="../../d6/dae/classsimulation_objects_1_1_sugar_patch.html#ad0451478701e5c49026140110dfa290f" target="_top" xlink:title="simulationObjects.SugarPatch.createBody">
<polygon fill="white" stroke="black" points="414,-96.4718 414,-115.472 632,-115.472 632,-96.4718 414,-96.4718"/>
<text text-anchor="middle" x="523" y="-103.472" font-family="Helvetica,sans-Serif" font-size="10.00">simulationObjects.SugarPatch.createBody</text>
</a>
</g>
</g>
<!-- Node7&#45;&gt;Node28 -->
<g id="edge30" class="edge"><title>Node7&#45;&gt;Node28</title>
<path fill="none" stroke="midnightblue" d="M388.434,-105.972C396.867,-105.972 405.452,-105.972 413.995,-105.972"/>
<polygon fill="midnightblue" stroke="midnightblue" points="388.237,-102.472 378.237,-105.972 388.237,-109.472 388.237,-102.472"/>
</g>
<!-- Node29 -->
<g id="node29" class="node"><title>Node29</title>
<g id="a_node29"><a xlink:href="../../d5/da5/classsimulation_objects_1_1_patch.html#a77ec59a5f39498ab6337a9535a6193e0" target="_top" xlink:title="simulationObjects.Patch.createBody">
<polygon fill="white" stroke="black" points="428.5,-18.4718 428.5,-37.4718 617.5,-37.4718 617.5,-18.4718 428.5,-18.4718"/>
<text text-anchor="middle" x="523" y="-25.4718" font-family="Helvetica,sans-Serif" font-size="10.00">simulationObjects.Patch.createBody</text>
</a>
</g>
</g>
<!-- Node7&#45;&gt;Node29 -->
<g id="edge31" class="edge"><title>Node7&#45;&gt;Node29</title>
<path fill="none" stroke="midnightblue" d="M348.503,-87.5874C394.146,-71.904 457.955,-49.9784 494.108,-37.5557"/>
<polygon fill="midnightblue" stroke="midnightblue" points="347.088,-84.3729 338.768,-90.9326 349.363,-90.993 347.088,-84.3729"/>
</g>
<!-- Node9 -->
<g id="node9" class="node"><title>Node9</title>
<g id="a_node9"><a xlink:href="../../d5/da5/classsimulation_objects_1_1_patch.html#a801de23da5dcdf2e6914b939deefe67e" target="_top" xlink:title="simulationObjects.Patch.create\lNewCell">
<polygon fill="white" stroke="black" points="688.5,-317.972 688.5,-347.972 853.5,-347.972 853.5,-317.972 688.5,-317.972"/>
<text text-anchor="start" x="696.5" y="-335.972" font-family="Helvetica,sans-Serif" font-size="10.00">simulationObjects.Patch.create</text>
<text text-anchor="middle" x="771" y="-324.972" font-family="Helvetica,sans-Serif" font-size="10.00">NewCell</text>
</a>
</g>
</g>
<!-- Node8&#45;&gt;Node9 -->
<g id="edge8" class="edge"><title>Node8&#45;&gt;Node9</title>
<path fill="none" stroke="midnightblue" d="M612.614,-165.542C619.714,-169.093 626.323,-173.504 632,-178.972 673.334,-218.781 627.492,-262.322 668,-302.972 674.124,-309.117 681.437,-314.017 689.297,-317.922"/>
<polygon fill="midnightblue" stroke="midnightblue" points="613.954,-162.307 603.391,-161.487 611.137,-168.716 613.954,-162.307"/>
</g>
<!-- Node13 -->
<g id="node13" class="node"><title>Node13</title>
<g id="a_node13"><a xlink:href="../../db/d32/classcontroller_1_1_main_controller.html#aecc10abc6b55d8b0b4bd152be5c5d3f0" target="_top" xlink:title="controller.MainController.initialize\lSimulationObjects">
<polygon fill="white" stroke="black" points="1580.5,-273.972 1580.5,-303.972 1753.5,-303.972 1753.5,-273.972 1580.5,-273.972"/>
<text text-anchor="start" x="1588.5" y="-291.972" font-family="Helvetica,sans-Serif" font-size="10.00">controller.MainController.initialize</text>
<text text-anchor="middle" x="1667" y="-280.972" font-family="Helvetica,sans-Serif" font-size="10.00">SimulationObjects</text>
</a>
</g>
</g>
<!-- Node8&#45;&gt;Node13 -->
<g id="edge18" class="edge"><title>Node8&#45;&gt;Node13</title>
<path fill="none" stroke="midnightblue" d="M610.236,-165.299C618.13,-168.871 625.564,-173.354 632,-178.972 664.456,-207.302 633.062,-243.766 668,-268.972 728.481,-312.604 928.423,-288.972 1003,-288.972 1003,-288.972 1003,-288.972 1229,-288.972 1350.96,-288.972 1492.06,-288.972 1580.18,-288.972"/>
<polygon fill="midnightblue" stroke="midnightblue" points="611.373,-161.984 600.789,-161.51 608.768,-168.481 611.373,-161.984"/>
</g>
<!-- Node18 -->
<g id="node18" class="node"><title>Node18</title>
<g id="a_node18"><a xlink:href="../../db/dee/classsimulation_objects_1_1_predator_cell.html#a681bdcb9944d91e15325e477aad1b449" target="_top" xlink:title="simulationObjects.Predator\lCell.leaveEgg">
<polygon fill="white" stroke="black" points="698,-229.972 698,-259.972 844,-259.972 844,-229.972 698,-229.972"/>
<text text-anchor="start" x="706" y="-247.972" font-family="Helvetica,sans-Serif" font-size="10.00">simulationObjects.Predator</text>
<text text-anchor="middle" x="771" y="-236.972" font-family="Helvetica,sans-Serif" font-size="10.00">Cell.leaveEgg</text>
</a>
</g>
</g>
<!-- Node8&#45;&gt;Node18 -->
<g id="edge19" class="edge"><title>Node8&#45;&gt;Node18</title>
<path fill="none" stroke="midnightblue" d="M598.82,-164.36C610.411,-168.037 621.88,-172.801 632,-178.972 652.704,-191.597 647.267,-207.394 668,-219.972 677.119,-225.504 687.397,-229.813 697.828,-233.17"/>
<polygon fill="midnightblue" stroke="midnightblue" points="599.661,-160.959 589.081,-161.52 597.701,-167.68 599.661,-160.959"/>
</g>
<!-- Node21 -->
<g id="node21" class="node"><title>Node21</title>
<g id="a_node21"><a xlink:href="../../db/d71/classsimulation_objects_1_1_sugar_cell.html#a2bafc48f035b3134c87ad371e3e2364e" target="_top" xlink:title="simulationObjects.SugarCell.makeMove">
<polygon fill="white" stroke="black" points="668,-142.472 668,-161.472 874,-161.472 874,-142.472 668,-142.472"/>
<text text-anchor="middle" x="771" y="-149.472" font-family="Helvetica,sans-Serif" font-size="10.00">simulationObjects.SugarCell.makeMove</text>
</a>
</g>
</g>
<!-- Node8&#45;&gt;Node21 -->
<g id="edge22" class="edge"><title>Node8&#45;&gt;Node21</title>
<path fill="none" stroke="midnightblue" d="M618.325,-151.972C634.566,-151.972 651.513,-151.972 667.946,-151.972"/>
<polygon fill="midnightblue" stroke="midnightblue" points="618.315,-148.472 608.315,-151.972 618.315,-155.472 618.315,-148.472"/>
</g>
<!-- Node24 -->
<g id="node24" class="node"><title>Node24</title>
<g id="a_node24"><a xlink:href="../../db/dee/classsimulation_objects_1_1_predator_cell.html#a7d74aa75e5e49981396b561c6badf01c" target="_top" xlink:title="simulationObjects.Predator\lCell.makeMove">
<polygon fill="white" stroke="black" points="698,-180.972 698,-210.972 844,-210.972 844,-180.972 698,-180.972"/>
<text text-anchor="start" x="706" y="-198.972" font-family="Helvetica,sans-Serif" font-size="10.00">simulationObjects.Predator</text>
<text text-anchor="middle" x="771" y="-187.972" font-family="Helvetica,sans-Serif" font-size="10.00">Cell.makeMove</text>
</a>
</g>
</g>
<!-- Node8&#45;&gt;Node24 -->
<g id="edge25" class="edge"><title>Node8&#45;&gt;Node24</title>
<path fill="none" stroke="midnightblue" d="M587.557,-163.34C621.217,-169.36 662.695,-176.779 697.592,-183.021"/>
<polygon fill="midnightblue" stroke="midnightblue" points="587.838,-159.835 577.378,-161.519 586.606,-166.725 587.838,-159.835"/>
</g>
<!-- Node25 -->
<g id="node25" class="node"><title>Node25</title>
<g id="a_node25"><a xlink:href="../../da/db6/classsimulation_objects_1_1_life_patch.html#a79181e099fd4d7c9e86b94f20f103395" target="_top" xlink:title="simulationObjects.LifePatch.toggle\lCellState">
<polygon fill="white" stroke="black" points="680.5,-92.9718 680.5,-122.972 861.5,-122.972 861.5,-92.9718 680.5,-92.9718"/>
<text text-anchor="start" x="688.5" y="-110.972" font-family="Helvetica,sans-Serif" font-size="10.00">simulationObjects.LifePatch.toggle</text>
<text text-anchor="middle" x="771" y="-99.9718" font-family="Helvetica,sans-Serif" font-size="10.00">CellState</text>
</a>
</g>
</g>
<!-- Node8&#45;&gt;Node25 -->
<g id="edge27" class="edge"><title>Node8&#45;&gt;Node25</title>
<path fill="none" stroke="midnightblue" d="M587.292,-140.651C617.274,-135.289 653.505,-128.808 685.771,-123.037"/>
<polygon fill="midnightblue" stroke="midnightblue" points="586.606,-137.218 577.378,-142.424 587.838,-144.109 586.606,-137.218"/>
</g>
<!-- Node26 -->
<g id="node26" class="node"><title>Node26</title>
<g id="a_node26"><a xlink:href="../../da/db6/classsimulation_objects_1_1_life_patch.html#a13f9f221b6ac960be22ba52095e60738" target="_top" xlink:title="simulationObjects.LifePatch.update">
<polygon fill="white" stroke="black" points="678.5,-54.4718 678.5,-73.4718 863.5,-73.4718 863.5,-54.4718 678.5,-54.4718"/>
<text text-anchor="middle" x="771" y="-61.4718" font-family="Helvetica,sans-Serif" font-size="10.00">simulationObjects.LifePatch.update</text>
</a>
</g>
</g>
<!-- Node8&#45;&gt;Node26 -->
<g id="edge28" class="edge"><title>Node8&#45;&gt;Node26</title>
<path fill="none" stroke="midnightblue" d="M599.105,-139.618C610.613,-135.937 621.982,-131.164 632,-124.972 652.914,-112.046 646.703,-95.2553 668,-82.9718 674.71,-79.1019 682.043,-75.996 689.601,-73.5066"/>
<polygon fill="midnightblue" stroke="midnightblue" points="598.04,-136.282 589.432,-142.459 600.013,-142.999 598.04,-136.282"/>
</g>
<!-- Node27 -->
<g id="node27" class="node"><title>Node27</title>
<g id="a_node27"><a xlink:href="../../db/d5f/classsimulation_objects_1_1_seg_cell.html#a9d7bc36bf15d97456e59afed1a19e460" target="_top" xlink:title="simulationObjects.SegCell.update">
<polygon fill="white" stroke="black" points="682,-16.4718 682,-35.4718 860,-35.4718 860,-16.4718 682,-16.4718"/>
<text text-anchor="middle" x="771" y="-23.4718" font-family="Helvetica,sans-Serif" font-size="10.00">simulationObjects.SegCell.update</text>
</a>
</g>
</g>
<!-- Node8&#45;&gt;Node27 -->
<g id="edge29" class="edge"><title>Node8&#45;&gt;Node27</title>
<path fill="none" stroke="midnightblue" d="M609.147,-138.734C617.401,-135.156 625.214,-130.647 632,-124.972 661.91,-99.9597 637.344,-69.0631 668,-44.9718 672.815,-41.1876 678.151,-38.0735 683.783,-35.5181"/>
<polygon fill="midnightblue" stroke="midnightblue" points="607.74,-135.526 599.67,-142.391 610.26,-142.056 607.74,-135.526"/>
</g>
<!-- Node10 -->
<g id="node10" class="node"><title>Node10</title>
<g id="a_node10"><a xlink:href="../../d5/da5/classsimulation_objects_1_1_patch.html#a982ffbab2f32d5955c2c59b5a89fc4a1" target="_top" xlink:title="simulationObjects.Patch.toggle\lCellState">
<polygon fill="white" stroke="black" points="922,-317.972 922,-347.972 1086,-347.972 1086,-317.972 922,-317.972"/>
<text text-anchor="start" x="930" y="-335.972" font-family="Helvetica,sans-Serif" font-size="10.00">simulationObjects.Patch.toggle</text>
<text text-anchor="middle" x="1004" y="-324.972" font-family="Helvetica,sans-Serif" font-size="10.00">CellState</text>
</a>
</g>
</g>
<!-- Node9&#45;&gt;Node10 -->
<g id="edge9" class="edge"><title>Node9&#45;&gt;Node10</title>
<path fill="none" stroke="midnightblue" d="M863.963,-332.972C883.06,-332.972 903.052,-332.972 921.732,-332.972"/>
<polygon fill="midnightblue" stroke="midnightblue" points="863.767,-329.472 853.767,-332.972 863.767,-336.472 863.767,-329.472"/>
</g>
<!-- Node11 -->
<g id="node11" class="node"><title>Node11</title>
<g id="a_node11"><a xlink:href="../../db/d32/classcontroller_1_1_main_controller.html#a20c66a59cfde2b9f8ac2b8bf67e3996d" target="_top" xlink:title="controller.MainController.toggle\lCellStateForMouseEvent">
<polygon fill="white" stroke="black" points="1145.5,-317.972 1145.5,-347.972 1310.5,-347.972 1310.5,-317.972 1145.5,-317.972"/>
<text text-anchor="start" x="1153.5" y="-335.972" font-family="Helvetica,sans-Serif" font-size="10.00">controller.MainController.toggle</text>
<text text-anchor="middle" x="1228" y="-324.972" font-family="Helvetica,sans-Serif" font-size="10.00">CellStateForMouseEvent</text>
</a>
</g>
</g>
<!-- Node10&#45;&gt;Node11 -->
<g id="edge10" class="edge"><title>Node10&#45;&gt;Node11</title>
<path fill="none" stroke="midnightblue" d="M1096.16,-332.972C1112.47,-332.972 1129.37,-332.972 1145.39,-332.972"/>
<polygon fill="midnightblue" stroke="midnightblue" points="1096.09,-329.472 1086.09,-332.972 1096.09,-336.472 1096.09,-329.472"/>
</g>
<!-- Node12 -->
<g id="node12" class="node"><title>Node12</title>
<g id="a_node12"><a xlink:href="../../db/d32/classcontroller_1_1_main_controller.html#ad28f21e1510291d95a69a9f488a20d89" target="_top" xlink:title="controller.MainController.createGrid">
<polygon fill="white" stroke="black" points="1358.5,-320.472 1358.5,-339.472 1543.5,-339.472 1543.5,-320.472 1358.5,-320.472"/>
<text text-anchor="middle" x="1451" y="-327.472" font-family="Helvetica,sans-Serif" font-size="10.00">controller.MainController.createGrid</text>
</a>
</g>
</g>
<!-- Node11&#45;&gt;Node12 -->
<g id="edge11" class="edge"><title>Node11&#45;&gt;Node12</title>
<path fill="none" stroke="midnightblue" d="M1320.93,-331.724C1333.27,-331.556 1345.91,-331.385 1358.24,-331.217"/>
<polygon fill="midnightblue" stroke="midnightblue" points="1320.62,-328.228 1310.66,-331.863 1320.71,-335.227 1320.62,-328.228"/>
</g>
<!-- Node12&#45;&gt;Node13 -->
<g id="edge12" class="edge"><title>Node12&#45;&gt;Node13</title>
<path fill="none" stroke="midnightblue" d="M1511.76,-318.523C1535.16,-314.039 1562.34,-308.832 1587.3,-304.049"/>
<polygon fill="midnightblue" stroke="midnightblue" points="1510.8,-315.143 1501.63,-320.463 1512.11,-322.018 1510.8,-315.143"/>
</g>
<!-- Node14 -->
<g id="node14" class="node"><title>Node14</title>
<g id="a_node14"><a xlink:href="../../db/d32/classcontroller_1_1_main_controller.html#a7cfedb8e16c6b9d6394054d03193da82" target="_top" xlink:title="controller.MainController.initialize\lSimulationWithData">
<polygon fill="white" stroke="black" points="1790.5,-273.972 1790.5,-303.972 1963.5,-303.972 1963.5,-273.972 1790.5,-273.972"/>
<text text-anchor="start" x="1798.5" y="-291.972" font-family="Helvetica,sans-Serif" font-size="10.00">controller.MainController.initialize</text>
<text text-anchor="middle" x="1877" y="-280.972" font-family="Helvetica,sans-Serif" font-size="10.00">SimulationWithData</text>
</a>
</g>
</g>
<!-- Node13&#45;&gt;Node14 -->
<g id="edge13" class="edge"><title>Node13&#45;&gt;Node14</title>
<path fill="none" stroke="midnightblue" d="M1763.59,-288.972C1772.56,-288.972 1781.62,-288.972 1790.49,-288.972"/>
<polygon fill="midnightblue" stroke="midnightblue" points="1763.5,-285.472 1753.5,-288.972 1763.5,-292.472 1763.5,-285.472"/>
</g>
<!-- Node15 -->
<g id="node15" class="node"><title>Node15</title>
<g id="a_node15"><a xlink:href="../../db/ddb/classcontroller_1_1_user_interface.html#a9cf1e21253003993661082c9d42926b2" target="_top" xlink:title="controller.UserInterface.make\lBottomPanel">
<polygon fill="white" stroke="black" points="2000,-251.972 2000,-281.972 2158,-281.972 2158,-251.972 2000,-251.972"/>
<text text-anchor="start" x="2008" y="-269.972" font-family="Helvetica,sans-Serif" font-size="10.00">controller.UserInterface.make</text>
<text text-anchor="middle" x="2079" y="-258.972" font-family="Helvetica,sans-Serif" font-size="10.00">BottomPanel</text>
</a>
</g>
</g>
<!-- Node14&#45;&gt;Node15 -->
<g id="edge14" class="edge"><title>Node14&#45;&gt;Node15</title>
<path fill="none" stroke="midnightblue" d="M1973.85,-278.429C1982.53,-277.473 1991.26,-276.514 1999.76,-275.578"/>
<polygon fill="midnightblue" stroke="midnightblue" points="1973.25,-274.974 1963.69,-279.546 1974.01,-281.932 1973.25,-274.974"/>
</g>
<!-- Node16 -->
<g id="node16" class="node"><title>Node16</title>
<g id="a_node16"><a xlink:href="../../db/ddb/classcontroller_1_1_user_interface.html#aad62b84bbc23f683c844ace519feb9d2" target="_top" xlink:title="controller.UserInterface.reset">
<polygon fill="white" stroke="black" points="2194,-301.472 2194,-320.472 2350,-320.472 2350,-301.472 2194,-301.472"/>
<text text-anchor="middle" x="2272" y="-308.472" font-family="Helvetica,sans-Serif" font-size="10.00">controller.UserInterface.reset</text>
</a>
</g>
</g>
<!-- Node15&#45;&gt;Node16 -->
<g id="edge15" class="edge"><title>Node15&#45;&gt;Node16</title>
<path fill="none" stroke="midnightblue" d="M2155.18,-284.291C2180.56,-290.137 2207.94,-296.445 2229.71,-301.459"/>
<polygon fill="midnightblue" stroke="midnightblue" points="2155.73,-280.825 2145.2,-281.991 2154.16,-287.647 2155.73,-280.825"/>
</g>
<!-- Node17 -->
<g id="node17" class="node"><title>Node17</title>
<g id="a_node17"><a xlink:href="../../db/ddb/classcontroller_1_1_user_interface.html#a6dd740b89d748c372a5ef9959e1bd7c4" target="_top" xlink:title="controller.UserInterface.\lUserInterface">
<polygon fill="white" stroke="black" points="2206.5,-251.972 2206.5,-281.972 2337.5,-281.972 2337.5,-251.972 2206.5,-251.972"/>
<text text-anchor="start" x="2214.5" y="-269.972" font-family="Helvetica,sans-Serif" font-size="10.00">controller.UserInterface.</text>
<text text-anchor="middle" x="2272" y="-258.972" font-family="Helvetica,sans-Serif" font-size="10.00">UserInterface</text>
</a>
</g>
</g>
<!-- Node15&#45;&gt;Node17 -->
<g id="edge17" class="edge"><title>Node15&#45;&gt;Node17</title>
<path fill="none" stroke="midnightblue" d="M2168.41,-266.972C2181.17,-266.972 2194.1,-266.972 2206.27,-266.972"/>
<polygon fill="midnightblue" stroke="midnightblue" points="2168.24,-263.472 2158.24,-266.972 2168.24,-270.472 2168.24,-263.472"/>
</g>
<!-- Node16&#45;&gt;Node14 -->
<g id="edge16" class="edge"><title>Node16&#45;&gt;Node14</title>
<path fill="none" stroke="midnightblue" d="M2183.44,-306.07C2117.94,-302.404 2028.83,-297.415 1963.76,-293.773"/>
<polygon fill="midnightblue" stroke="midnightblue" points="2183.57,-309.583 2193.75,-306.647 2183.96,-302.594 2183.57,-309.583"/>
</g>
<!-- Node19 -->
<g id="node19" class="node"><title>Node19</title>
<g id="a_node19"><a xlink:href="../../db/dee/classsimulation_objects_1_1_predator_cell.html#a0f04c13ccdd5e4845f2e5975ec63952f" target="_top" xlink:title="simulationObjects.Predator\lCell.updateStatesandMakeMoves">
<polygon fill="white" stroke="black" points="916,-207.972 916,-237.972 1092,-237.972 1092,-207.972 916,-207.972"/>
<text text-anchor="start" x="924" y="-225.972" font-family="Helvetica,sans-Serif" font-size="10.00">simulationObjects.Predator</text>
<text text-anchor="middle" x="1004" y="-214.972" font-family="Helvetica,sans-Serif" font-size="10.00">Cell.updateStatesandMakeMoves</text>
</a>
</g>
</g>
<!-- Node18&#45;&gt;Node19 -->
<g id="edge20" class="edge"><title>Node18&#45;&gt;Node19</title>
<path fill="none" stroke="midnightblue" d="M854.105,-237.152C874.037,-235.254 895.42,-233.218 915.587,-231.297"/>
<polygon fill="midnightblue" stroke="midnightblue" points="853.763,-233.669 844.14,-238.101 854.426,-240.637 853.763,-233.669"/>
</g>
<!-- Node20 -->
<g id="node20" class="node"><title>Node20</title>
<g id="a_node20"><a xlink:href="../../db/dee/classsimulation_objects_1_1_predator_cell.html#a954732c3db3474e874b5023303baa2ed" target="_top" xlink:title="simulationObjects.Predator\lCell.update">
<polygon fill="white" stroke="black" points="1155,-207.972 1155,-237.972 1301,-237.972 1301,-207.972 1155,-207.972"/>
<text text-anchor="start" x="1163" y="-225.972" font-family="Helvetica,sans-Serif" font-size="10.00">simulationObjects.Predator</text>
<text text-anchor="middle" x="1228" y="-214.972" font-family="Helvetica,sans-Serif" font-size="10.00">Cell.update</text>
</a>
</g>
</g>
<!-- Node19&#45;&gt;Node20 -->
<g id="edge21" class="edge"><title>Node19&#45;&gt;Node20</title>
<path fill="none" stroke="midnightblue" d="M1102.41,-222.972C1120.02,-222.972 1138.1,-222.972 1154.84,-222.972"/>
<polygon fill="midnightblue" stroke="midnightblue" points="1102.1,-219.472 1092.1,-222.972 1102.1,-226.472 1102.1,-219.472"/>
</g>
<!-- Node22 -->
<g id="node22" class="node"><title>Node22</title>
<g id="a_node22"><a xlink:href="../../db/d71/classsimulation_objects_1_1_sugar_cell.html#afca541b3cc884269b4f778da83fb149d" target="_top" xlink:title="simulationObjects.SugarCell.update\lStatesandMakeMoves">
<polygon fill="white" stroke="black" points="910,-136.972 910,-166.972 1098,-166.972 1098,-136.972 910,-136.972"/>
<text text-anchor="start" x="918" y="-154.972" font-family="Helvetica,sans-Serif" font-size="10.00">simulationObjects.SugarCell.update</text>
<text text-anchor="middle" x="1004" y="-143.972" font-family="Helvetica,sans-Serif" font-size="10.00">StatesandMakeMoves</text>
</a>
</g>
</g>
<!-- Node21&#45;&gt;Node22 -->
<g id="edge23" class="edge"><title>Node21&#45;&gt;Node22</title>
<path fill="none" stroke="midnightblue" d="M884.341,-151.972C892.888,-151.972 901.458,-151.972 909.864,-151.972"/>
<polygon fill="midnightblue" stroke="midnightblue" points="884.329,-148.472 874.329,-151.972 884.329,-155.472 884.329,-148.472"/>
</g>
<!-- Node23 -->
<g id="node23" class="node"><title>Node23</title>
<g id="a_node23"><a xlink:href="../../db/d71/classsimulation_objects_1_1_sugar_cell.html#a4f3c5edbe0c43ea62d21a9658fbc11c7" target="_top" xlink:title="simulationObjects.SugarCell.update">
<polygon fill="white" stroke="black" points="1134,-142.472 1134,-161.472 1322,-161.472 1322,-142.472 1134,-142.472"/>
<text text-anchor="middle" x="1228" y="-149.472" font-family="Helvetica,sans-Serif" font-size="10.00">simulationObjects.SugarCell.update</text>
</a>
</g>
</g>
<!-- Node22&#45;&gt;Node23 -->
<g id="edge24" class="edge"><title>Node22&#45;&gt;Node23</title>
<path fill="none" stroke="midnightblue" d="M1108.43,-151.972C1116.86,-151.972 1125.35,-151.972 1133.7,-151.972"/>
<polygon fill="midnightblue" stroke="midnightblue" points="1108.18,-148.472 1098.18,-151.972 1108.18,-155.472 1108.18,-148.472"/>
</g>
<!-- Node24&#45;&gt;Node19 -->
<g id="edge26" class="edge"><title>Node24&#45;&gt;Node19</title>
<path fill="none" stroke="midnightblue" d="M854.105,-205.568C874.037,-207.898 895.42,-210.398 915.587,-212.755"/>
<polygon fill="midnightblue" stroke="midnightblue" points="854.478,-202.088 844.14,-204.404 853.666,-209.041 854.478,-202.088"/>
</g>
<!-- Node30 -->
<g id="node30" class="node"><title>Node30</title>
<g id="a_node30"><a xlink:href="../../d7/d97/classcontroller_1_1_grid.html#a52256ef1252a18eab8baeb2edef836d8" target="_top" xlink:title="controller.Grid.addPatch\lToGrid">
<polygon fill="white" stroke="black" points="938.5,-30.9718 938.5,-60.9718 1069.5,-60.9718 1069.5,-30.9718 938.5,-30.9718"/>
<text text-anchor="start" x="946.5" y="-48.9718" font-family="Helvetica,sans-Serif" font-size="10.00">controller.Grid.addPatch</text>
<text text-anchor="middle" x="1004" y="-37.9718" font-family="Helvetica,sans-Serif" font-size="10.00">ToGrid</text>
</a>
</g>
</g>
<!-- Node29&#45;&gt;Node30 -->
<g id="edge32" class="edge"><title>Node29&#45;&gt;Node30</title>
<path fill="none" stroke="midnightblue" d="M584.387,-16.8331C654.408,-5.65238 773.127,7.94307 874,-6.97181 905.015,-11.5576 938.905,-22.0281 964.163,-30.9664"/>
<polygon fill="midnightblue" stroke="midnightblue" points="583.723,-13.3952 574.418,-18.4616 584.851,-20.3037 583.723,-13.3952"/>
</g>
<!-- Node31 -->
<g id="node31" class="node"><title>Node31</title>
<g id="a_node31"><a xlink:href="../../d7/d97/classcontroller_1_1_grid.html#a85b3833ab13642ba27fd7b65ee6a6daa" target="_top" xlink:title="controller.Grid.addPatch\lAtPoint">
<polygon fill="white" stroke="black" points="1385.5,-161.972 1385.5,-191.972 1516.5,-191.972 1516.5,-161.972 1385.5,-161.972"/>
<text text-anchor="start" x="1393.5" y="-179.972" font-family="Helvetica,sans-Serif" font-size="10.00">controller.Grid.addPatch</text>
<text text-anchor="middle" x="1451" y="-168.972" font-family="Helvetica,sans-Serif" font-size="10.00">AtPoint</text>
</a>
</g>
</g>
<!-- Node30&#45;&gt;Node31 -->
<g id="edge33" class="edge"><title>Node30&#45;&gt;Node31</title>
<path fill="none" stroke="midnightblue" d="M1074.08,-63.5853C1138.55,-80.3383 1237.24,-106.802 1322,-132.972 1351.08,-141.949 1383.49,-153.103 1408.42,-161.935"/>
<polygon fill="midnightblue" stroke="midnightblue" points="1074.6,-60.1028 1064.04,-60.9814 1072.84,-66.8789 1074.6,-60.1028"/>
</g>
<!-- Node31&#45;&gt;Node13 -->
<g id="edge34" class="edge"><title>Node31&#45;&gt;Node13</title>
<path fill="none" stroke="midnightblue" d="M1489.98,-196.847C1532.13,-218.911 1599.24,-254.03 1637.26,-273.928"/>
<polygon fill="midnightblue" stroke="midnightblue" points="1491.34,-193.613 1480.86,-192.077 1488.1,-199.815 1491.34,-193.613"/>
</g>
</g>
</svg>
