<?xml version="1.0" encoding="UTF-8" standalone="no"?>
<!DOCTYPE svg PUBLIC "-//W3C//DTD SVG 1.1//EN"
 "http://www.w3.org/Graphics/SVG/1.1/DTD/svg11.dtd">
<!-- Generated by graphviz version 2.36.0 (20140111.2315)
 -->
<!-- Title: simulationObjects.AntCell.topOffPheromones Pages: 1 -->
<svg width="996pt" height="87pt"
 viewBox="0.00 0.00 996.00 87.00" xmlns="http://www.w3.org/2000/svg" xmlns:xlink="http://www.w3.org/1999/xlink">
<g id="graph0" class="graph" transform="scale(1 1) rotate(0) translate(4 83)">
<title>simulationObjects.AntCell.topOffPheromones</title>
<polygon fill="white" stroke="none" points="-4,4 -4,-83 992,-83 992,4 -4,4"/>
<!-- Node1 -->
<g id="node1" class="node"><title>Node1</title>
<polygon fill="#bfbfbf" stroke="black" points="0,-24 0,-54 158,-54 158,-24 0,-24"/>
<text text-anchor="start" x="8" y="-42" font-family="Helvetica,sans-Serif" font-size="10.00">simulationObjects.AntCell.top</text>
<text text-anchor="middle" x="79" y="-31" font-family="Helvetica,sans-Serif" font-size="10.00">OffPheromones</text>
</g>
<!-- Node2 -->
<g id="node2" class="node"><title>Node2</title>
<g id="a_node2"><a xlink:href="../../d0/d1a/classsimulation_objects_1_1_ant_cell.html#acd24e1bee3aaf27acafd05722f6cbb62" target="_top" xlink:title="simulationObjects.AntCell.drop\lFoodPheromones">
<polygon fill="white" stroke="black" points="194,-49 194,-79 358,-79 358,-49 194,-49"/>
<text text-anchor="start" x="202" y="-67" font-family="Helvetica,sans-Serif" font-size="10.00">simulationObjects.AntCell.drop</text>
<text text-anchor="middle" x="276" y="-56" font-family="Helvetica,sans-Serif" font-size="10.00">FoodPheromones</text>
</a>
</g>
</g>
<!-- Node1&#45;&gt;Node2 -->
<g id="edge1" class="edge"><title>Node1&#45;&gt;Node2</title>
<path fill="none" stroke="midnightblue" d="M168.191,-50.3065C176.761,-51.4052 185.428,-52.5164 193.924,-53.6056"/>
<polygon fill="midnightblue" stroke="midnightblue" points="168.554,-46.8246 158.19,-49.0244 167.664,-53.7677 168.554,-46.8246"/>
</g>
<!-- Node6 -->
<g id="node6" class="node"><title>Node6</title>
<g id="a_node6"><a xlink:href="../../d0/d1a/classsimulation_objects_1_1_ant_cell.html#abc086e2bbb82c6e8b15e35255861a406" target="_top" xlink:title="simulationObjects.AntCell.drop\lHomePheromones">
<polygon fill="white" stroke="black" points="194,-0 194,-30 358,-30 358,-0 194,-0"/>
<text text-anchor="start" x="202" y="-18" font-family="Helvetica,sans-Serif" font-size="10.00">simulationObjects.AntCell.drop</text>
<text text-anchor="middle" x="276" y="-7" font-family="Helvetica,sans-Serif" font-size="10.00">HomePheromones</text>
</a>
</g>
</g>
<!-- Node1&#45;&gt;Node6 -->
<g id="edge5" class="edge"><title>Node1&#45;&gt;Node6</title>
<path fill="none" stroke="midnightblue" d="M168.191,-28.1458C176.761,-27.091 185.428,-26.0242 193.924,-24.9786"/>
<polygon fill="midnightblue" stroke="midnightblue" points="167.688,-24.6811 158.19,-29.3766 168.543,-31.6287 167.688,-24.6811"/>
</g>
<!-- Node3 -->
<g id="node3" class="node"><title>Node3</title>
<g id="a_node3"><a xlink:href="../../d0/d1a/classsimulation_objects_1_1_ant_cell.html#aac2730a768c2d978ebf5b1be4bcda495" target="_top" xlink:title="simulationObjects.AntCell.return\lToNest">
<polygon fill="white" stroke="black" points="394.5,-49 394.5,-79 565.5,-79 565.5,-49 394.5,-49"/>
<text text-anchor="start" x="402.5" y="-67" font-family="Helvetica,sans-Serif" font-size="10.00">simulationObjects.AntCell.return</text>
<text text-anchor="middle" x="480" y="-56" font-family="Helvetica,sans-Serif" font-size="10.00">ToNest</text>
</a>
</g>
</g>
<!-- Node2&#45;&gt;Node3 -->
<g id="edge2" class="edge"><title>Node2&#45;&gt;Node3</title>
<path fill="none" stroke="midnightblue" d="M368.352,-64C376.975,-64 385.693,-64 394.251,-64"/>
<polygon fill="midnightblue" stroke="midnightblue" points="368.288,-60.5001 358.288,-64 368.288,-67.5001 368.288,-60.5001"/>
</g>
<!-- Node4 -->
<g id="node4" class="node"><title>Node4</title>
<g id="a_node4"><a xlink:href="../../d0/d1a/classsimulation_objects_1_1_ant_cell.html#a70a58b87ff6093514dfb9fa328a4e6be" target="_top" xlink:title="simulationObjects.AntCell.forage">
<polygon fill="white" stroke="black" points="602.5,-29.5 602.5,-48.5 775.5,-48.5 775.5,-29.5 602.5,-29.5"/>
<text text-anchor="middle" x="689" y="-36.5" font-family="Helvetica,sans-Serif" font-size="10.00">simulationObjects.AntCell.forage</text>
</a>
</g>
</g>
<!-- Node3&#45;&gt;Node4 -->
<g id="edge3" class="edge"><title>Node3&#45;&gt;Node4</title>
<path fill="none" stroke="midnightblue" d="M575.987,-52.5282C587.144,-51.1806 598.435,-49.817 609.335,-48.5006"/>
<polygon fill="midnightblue" stroke="midnightblue" points="575.3,-49.0856 565.792,-53.7594 576.14,-56.0351 575.3,-49.0856"/>
</g>
<!-- Node5 -->
<g id="node5" class="node"><title>Node5</title>
<g id="a_node5"><a xlink:href="../../d0/d1a/classsimulation_objects_1_1_ant_cell.html#a062ae7cd0ca9a8fc58078e0e4eee1a83" target="_top" xlink:title="simulationObjects.AntCell.update">
<polygon fill="white" stroke="black" points="812,-29.5 812,-48.5 988,-48.5 988,-29.5 812,-29.5"/>
<text text-anchor="middle" x="900" y="-36.5" font-family="Helvetica,sans-Serif" font-size="10.00">simulationObjects.AntCell.update</text>
</a>
</g>
</g>
<!-- Node4&#45;&gt;Node5 -->
<g id="edge4" class="edge"><title>Node4&#45;&gt;Node5</title>
<path fill="none" stroke="midnightblue" d="M785.76,-39C794.449,-39 803.22,-39 811.829,-39"/>
<polygon fill="midnightblue" stroke="midnightblue" points="785.611,-35.5001 775.611,-39 785.611,-42.5001 785.611,-35.5001"/>
</g>
<!-- Node7 -->
<g id="node7" class="node"><title>Node7</title>
<g id="a_node7"><a xlink:href="../../d0/d1a/classsimulation_objects_1_1_ant_cell.html#af16eb2ad78c444fcc223dd0db8df0811" target="_top" xlink:title="simulationObjects.AntCell.find\lFoodSource">
<polygon fill="white" stroke="black" points="400.5,-0 400.5,-30 559.5,-30 559.5,-0 400.5,-0"/>
<text text-anchor="start" x="408.5" y="-18" font-family="Helvetica,sans-Serif" font-size="10.00">simulationObjects.AntCell.find</text>
<text text-anchor="middle" x="480" y="-7" font-family="Helvetica,sans-Serif" font-size="10.00">FoodSource</text>
</a>
</g>
</g>
<!-- Node6&#45;&gt;Node7 -->
<g id="edge6" class="edge"><title>Node6&#45;&gt;Node7</title>
<path fill="none" stroke="midnightblue" d="M368.399,-15C379.006,-15 389.756,-15 400.175,-15"/>
<polygon fill="midnightblue" stroke="midnightblue" points="368.288,-11.5001 358.288,-15 368.288,-18.5001 368.288,-11.5001"/>
</g>
<!-- Node7&#45;&gt;Node4 -->
<g id="edge7" class="edge"><title>Node7&#45;&gt;Node4</title>
<path fill="none" stroke="midnightblue" d="M569.63,-25.276C581.723,-26.678 594.091,-28.112 606.057,-29.4994"/>
<polygon fill="midnightblue" stroke="midnightblue" points="569.89,-21.7827 559.553,-24.1076 569.083,-28.7361 569.89,-21.7827"/>
</g>
</g>
</svg>
