<?xml version="1.0" encoding="UTF-8" standalone="no"?>
<!DOCTYPE svg PUBLIC "-//W3C//DTD SVG 1.1//EN"
 "http://www.w3.org/Graphics/SVG/1.1/DTD/svg11.dtd">
<!-- Generated by graphviz version 2.36.0 (20140111.2315)
 -->
<!-- Title: simulationObjects.AntCell.returnToNest Pages: 1 -->
<svg width="602pt" height="38pt"
 viewBox="0.00 0.00 602.00 38.00" xmlns="http://www.w3.org/2000/svg" xmlns:xlink="http://www.w3.org/1999/xlink">
<g id="graph0" class="graph" transform="scale(1 1) rotate(0) translate(4 34)">
<title>simulationObjects.AntCell.returnToNest</title>
<polygon fill="white" stroke="none" points="-4,4 -4,-34 598,-34 598,4 -4,4"/>
<!-- Node1 -->
<g id="node1" class="node"><title>Node1</title>
<polygon fill="#bfbfbf" stroke="black" points="0.5,-0 0.5,-30 171.5,-30 171.5,-0 0.5,-0"/>
<text text-anchor="start" x="8.5" y="-18" font-family="Helvetica,sans-Serif" font-size="10.00">simulationObjects.AntCell.return</text>
<text text-anchor="middle" x="86" y="-7" font-family="Helvetica,sans-Serif" font-size="10.00">ToNest</text>
</g>
<!-- Node2 -->
<g id="node2" class="node"><title>Node2</title>
<g id="a_node2"><a xlink:href="../../d0/d1a/classsimulation_objects_1_1_ant_cell.html#a70a58b87ff6093514dfb9fa328a4e6be" target="_top" xlink:title="simulationObjects.AntCell.forage">
<polygon fill="white" stroke="black" points="208.5,-5.5 208.5,-24.5 381.5,-24.5 381.5,-5.5 208.5,-5.5"/>
<text text-anchor="middle" x="295" y="-12.5" font-family="Helvetica,sans-Serif" font-size="10.00">simulationObjects.AntCell.forage</text>
</a>
</g>
</g>
<!-- Node1&#45;&gt;Node2 -->
<g id="edge1" class="edge"><title>Node1&#45;&gt;Node2</title>
<path fill="none" stroke="midnightblue" d="M182.034,-15C190.804,-15 199.655,-15 208.334,-15"/>
<polygon fill="midnightblue" stroke="midnightblue" points="181.792,-11.5001 171.792,-15 181.792,-18.5001 181.792,-11.5001"/>
</g>
<!-- Node3 -->
<g id="node3" class="node"><title>Node3</title>
<g id="a_node3"><a xlink:href="../../d0/d1a/classsimulation_objects_1_1_ant_cell.html#a062ae7cd0ca9a8fc58078e0e4eee1a83" target="_top" xlink:title="simulationObjects.AntCell.update">
<polygon fill="white" stroke="black" points="418,-5.5 418,-24.5 594,-24.5 594,-5.5 418,-5.5"/>
<text text-anchor="middle" x="506" y="-12.5" font-family="Helvetica,sans-Serif" font-size="10.00">simulationObjects.AntCell.update</text>
</a>
</g>
</g>
<!-- Node2&#45;&gt;Node3 -->
<g id="edge2" class="edge"><title>Node2&#45;&gt;Node3</title>
<path fill="none" stroke="midnightblue" d="M391.76,-15C400.449,-15 409.22,-15 417.829,-15"/>
<polygon fill="midnightblue" stroke="midnightblue" points="391.611,-11.5001 381.611,-15 391.611,-18.5001 391.611,-11.5001"/>
</g>
</g>
</svg>
