<?xml version="1.0" encoding="UTF-8" standalone="no"?>
<!DOCTYPE svg PUBLIC "-//W3C//DTD SVG 1.1//EN"
 "http://www.w3.org/Graphics/SVG/1.1/DTD/svg11.dtd">
<!-- Generated by graphviz version 2.36.0 (20140111.2315)
 -->
<!-- Title: simulationObjects.AntCell.findFoodSource Pages: 1 -->
<!--zoomable 317 -->
<svg id="main" version="1.1" xmlns="http://www.w3.org/2000/svg" xmlns:xlink="http://www.w3.org/1999/xlink" xml:space="preserve" onload="init(evt)">
<style type="text/css"><![CDATA[
.edge:hover path { stroke: red; }
.edge:hover polygon { stroke: red; fill: red; }
]]></style>
<script type="text/javascript"><![CDATA[
var edges = document.getElementsByTagName('g');
if (edges && edges.length) {
  for (var i=0;i<edges.length;i++) {
    if (edges[i].id.substr(0,4)=='edge') {
      edges[i].setAttribute('class','edge');
    }
  }
}
]]></script>
        <defs>
                <circle id="rim" cx="0" cy="0" r="7"/>
                <circle id="rim2" cx="0" cy="0" r="3.5"/>
                <g id="zoomPlus">
                        <use xlink:href="#rim" fill="#404040">
                                <set attributeName="fill" to="#808080" begin="zoomplus.mouseover" end="zoomplus.mouseout"/>
                        </use>
                        <path d="M-4,0h8M0,-4v8" fill="none" stroke="white" stroke-width="1.5" pointer-events="none"/>
                </g>
                <g id="zoomMin">
                        <use xlink:href="#rim" fill="#404040">
                                <set attributeName="fill" to="#808080" begin="zoomminus.mouseover" end="zoomminus.mouseout"/>
                        </use>
                        <path d="M-4,0h8" fill="none" stroke="white" stroke-width="1.5" pointer-events="none"/>
                </g>
                <g id="dirArrow">
                        <path fill="none" stroke="white" stroke-width="1.5" d="M0,-3.0v7 M-2.5,-0.5L0,-3.0L2.5,-0.5"/>
                </g>
               <g id="resetDef">
                       <use xlink:href="#rim2" fill="#404040">
                               <set attributeName="fill" to="#808080" begin="reset.mouseover" end="reset.mouseout"/>
                       </use>
               </g>
        </defs>

<script type="text/javascript">
var viewWidth = 600;
var viewHeight = 317;
var sectionId = 'dynsection-7';
</script>
<script xlink:href="../../svgpan.js"/>
<svg id="graph" class="graph">
<g id="viewport">
<title>simulationObjects.AntCell.findFoodSource</title>
<polygon fill="white" stroke="none" points="-4,4 -4,-313 596,-313 596,4 -4,4"/>
<!-- Node1 -->
<g id="node1" class="node"><title>Node1</title>
<polygon fill="#bfbfbf" stroke="black" points="0.5,-142 0.5,-172 159.5,-172 159.5,-142 0.5,-142"/>
<text text-anchor="start" x="8.5" y="-160" font-family="Helvetica,sans-Serif" font-size="10.00">simulationObjects.AntCell.find</text>
<text text-anchor="middle" x="80" y="-149" font-family="Helvetica,sans-Serif" font-size="10.00">FoodSource</text>
</g>
<!-- Node2 -->
<g id="node2" class="node"><title>Node2</title>
<g id="a_node2"><a xlink:href="../../d0/d1a/classsimulation_objects_1_1_ant_cell.html#abc086e2bbb82c6e8b15e35255861a406" target="_top" xlink:title="simulationObjects.AntCell.drop\lHomePheromones">
<polygon fill="white" stroke="black" points="204,-235 204,-265 368,-265 368,-235 204,-235"/>
<text text-anchor="start" x="212" y="-253" font-family="Helvetica,sans-Serif" font-size="10.00">simulationObjects.AntCell.drop</text>
<text text-anchor="middle" x="286" y="-242" font-family="Helvetica,sans-Serif" font-size="10.00">HomePheromones</text>
</a>
</g>
</g>
<!-- Node1&#45;&gt;Node2 -->
<g id="edge1" class="edge"><title>Node1&#45;&gt;Node2</title>
<path fill="none" stroke="midnightblue" d="M102.57,-172.079C125.03,-187.211 161.662,-210.323 196,-225 201.714,-227.442 207.736,-229.718 213.841,-231.821"/>
<polygon fill="midnightblue" stroke="midnightblue" points="212.879,-235.189 223.471,-234.983 215.062,-228.538 212.879,-235.189"/>
</g>
<!-- Node3 -->
<g id="node3" class="node"><title>Node3</title>
<g id="a_node3"><a xlink:href="../../d0/d1a/classsimulation_objects_1_1_ant_cell.html#abd65a70e95bf042a399723c80f859fec" target="_top" xlink:title="simulationObjects.AntCell.is\lAtNest">
<polygon fill="white" stroke="black" points="427.5,-279 427.5,-309 576.5,-309 576.5,-279 427.5,-279"/>
<text text-anchor="start" x="435.5" y="-297" font-family="Helvetica,sans-Serif" font-size="10.00">simulationObjects.AntCell.is</text>
<text text-anchor="middle" x="502" y="-286" font-family="Helvetica,sans-Serif" font-size="10.00">AtNest</text>
</a>
</g>
</g>
<!-- Node1&#45;&gt;Node3 -->
<g id="edge5" class="edge"><title>Node1&#45;&gt;Node3</title>
<path fill="none" stroke="midnightblue" d="M90.4524,-172.239C107.703,-198.488 147.064,-251.572 196,-274 265.601,-305.899 353.629,-308.195 417.205,-304.123"/>
<polygon fill="midnightblue" stroke="midnightblue" points="417.463,-307.614 427.192,-303.418 416.971,-300.631 417.463,-307.614"/>
</g>
<!-- Node5 -->
<g id="node5" class="node"><title>Node5</title>
<g id="a_node5"><a xlink:href="../../d0/d1a/classsimulation_objects_1_1_ant_cell.html#a68c60b498db5dfe96ddfd7963d4066bf" target="_top" xlink:title="simulationObjects.AntCell.is\lAtFoodSource">
<polygon fill="white" stroke="black" points="211.5,-186 211.5,-216 360.5,-216 360.5,-186 211.5,-186"/>
<text text-anchor="start" x="219.5" y="-204" font-family="Helvetica,sans-Serif" font-size="10.00">simulationObjects.AntCell.is</text>
<text text-anchor="middle" x="286" y="-193" font-family="Helvetica,sans-Serif" font-size="10.00">AtFoodSource</text>
</a>
</g>
</g>
<!-- Node1&#45;&gt;Node5 -->
<g id="edge4" class="edge"><title>Node1&#45;&gt;Node5</title>
<path fill="none" stroke="midnightblue" d="M150.635,-172.019C168.262,-175.821 187.328,-179.934 205.407,-183.833"/>
<polygon fill="midnightblue" stroke="midnightblue" points="204.82,-187.287 215.333,-185.974 206.296,-180.444 204.82,-187.287"/>
</g>
<!-- Node6 -->
<g id="node6" class="node"><title>Node6</title>
<g id="a_node6"><a xlink:href="../../d0/d1a/classsimulation_objects_1_1_ant_cell.html#a8d02ac47540dcc815025c7668d203d5c" target="_top" xlink:title="simulationObjects.AntCell.moveTo">
<polygon fill="white" stroke="black" points="196.5,-147.5 196.5,-166.5 375.5,-166.5 375.5,-147.5 196.5,-147.5"/>
<text text-anchor="middle" x="286" y="-154.5" font-family="Helvetica,sans-Serif" font-size="10.00">simulationObjects.AntCell.moveTo</text>
</a>
</g>
</g>
<!-- Node1&#45;&gt;Node6 -->
<g id="edge6" class="edge"><title>Node1&#45;&gt;Node6</title>
<path fill="none" stroke="midnightblue" d="M159.58,-157C168.306,-157 177.273,-157 186.208,-157"/>
<polygon fill="midnightblue" stroke="midnightblue" points="186.267,-160.5 196.267,-157 186.267,-153.5 186.267,-160.5"/>
</g>
<!-- Node7 -->
<g id="node7" class="node"><title>Node7</title>
<g id="a_node7"><a xlink:href="../../d0/d1a/classsimulation_objects_1_1_ant_cell.html#ac8d1ca7915d88c6e315f9a9744118f55" target="_top" xlink:title="simulationObjects.AntCell.pick\lUpFoodItem">
<polygon fill="white" stroke="black" points="205.5,-98 205.5,-128 366.5,-128 366.5,-98 205.5,-98"/>
<text text-anchor="start" x="213.5" y="-116" font-family="Helvetica,sans-Serif" font-size="10.00">simulationObjects.AntCell.pick</text>
<text text-anchor="middle" x="286" y="-105" font-family="Helvetica,sans-Serif" font-size="10.00">UpFoodItem</text>
</a>
</g>
</g>
<!-- Node1&#45;&gt;Node7 -->
<g id="edge7" class="edge"><title>Node1&#45;&gt;Node7</title>
<path fill="none" stroke="midnightblue" d="M150.635,-141.981C168.262,-138.179 187.328,-134.066 205.407,-130.167"/>
<polygon fill="midnightblue" stroke="midnightblue" points="206.296,-133.556 215.333,-128.026 204.82,-126.713 206.296,-133.556"/>
</g>
<!-- Node8 -->
<g id="node8" class="node"><title>Node8</title>
<g id="a_node8"><a xlink:href="../../d0/d1a/classsimulation_objects_1_1_ant_cell.html#ac39fcb154bc4a678ff28e49306a63e63" target="_top" xlink:title="simulationObjects.AntCell.select\lLocation">
<polygon fill="white" stroke="black" points="201,-49 201,-79 371,-79 371,-49 201,-49"/>
<text text-anchor="start" x="209" y="-67" font-family="Helvetica,sans-Serif" font-size="10.00">simulationObjects.AntCell.select</text>
<text text-anchor="middle" x="286" y="-56" font-family="Helvetica,sans-Serif" font-size="10.00">Location</text>
</a>
</g>
</g>
<!-- Node1&#45;&gt;Node8 -->
<g id="edge8" class="edge"><title>Node1&#45;&gt;Node8</title>
<path fill="none" stroke="midnightblue" d="M102.088,-141.891C124.455,-126.467 161.287,-102.755 196,-88 200.757,-85.9782 205.73,-84.0845 210.789,-82.3188"/>
<polygon fill="midnightblue" stroke="midnightblue" points="212.192,-85.5413 220.59,-79.0811 209.996,-78.8946 212.192,-85.5413"/>
</g>
<!-- Node11 -->
<g id="node11" class="node"><title>Node11</title>
<g id="a_node11"><a xlink:href="../../d0/d1a/classsimulation_objects_1_1_ant_cell.html#a6fa2215bbf3d1baad341c7158fac22a9" target="_top" xlink:title="simulationObjects.AntCell.set\lOrientation">
<polygon fill="white" stroke="black" points="207.5,-0 207.5,-30 364.5,-30 364.5,-0 207.5,-0"/>
<text text-anchor="start" x="215.5" y="-18" font-family="Helvetica,sans-Serif" font-size="10.00">simulationObjects.AntCell.set</text>
<text text-anchor="middle" x="286" y="-7" font-family="Helvetica,sans-Serif" font-size="10.00">Orientation</text>
</a>
</g>
</g>
<!-- Node1&#45;&gt;Node11 -->
<g id="edge11" class="edge"><title>Node1&#45;&gt;Node11</title>
<path fill="none" stroke="midnightblue" d="M91.5058,-141.806C109.77,-116.561 149.869,-66.081 196,-39 198.989,-37.2455 202.109,-35.616 205.316,-34.1031"/>
<polygon fill="midnightblue" stroke="midnightblue" points="206.742,-37.3 214.552,-30.1406 203.982,-30.867 206.742,-37.3"/>
</g>
<!-- Node2&#45;&gt;Node3 -->
<g id="edge2" class="edge"><title>Node2&#45;&gt;Node3</title>
<path fill="none" stroke="midnightblue" d="M360.048,-265.019C378.711,-268.856 398.911,-273.01 418.031,-276.941"/>
<polygon fill="midnightblue" stroke="midnightblue" points="417.418,-280.388 427.918,-278.974 418.828,-273.531 417.418,-280.388"/>
</g>
<!-- Node4 -->
<g id="node4" class="node"><title>Node4</title>
<g id="a_node4"><a xlink:href="../../d0/d1a/classsimulation_objects_1_1_ant_cell.html#a6304515b4982b91503e34e27389f840d" target="_top" xlink:title="simulationObjects.AntCell.top\lOffPheromones">
<polygon fill="white" stroke="black" points="423,-230 423,-260 581,-260 581,-230 423,-230"/>
<text text-anchor="start" x="431" y="-248" font-family="Helvetica,sans-Serif" font-size="10.00">simulationObjects.AntCell.top</text>
<text text-anchor="middle" x="502" y="-237" font-family="Helvetica,sans-Serif" font-size="10.00">OffPheromones</text>
</a>
</g>
</g>
<!-- Node2&#45;&gt;Node4 -->
<g id="edge3" class="edge"><title>Node2&#45;&gt;Node4</title>
<path fill="none" stroke="midnightblue" d="M368.209,-248.103C382.716,-247.764 397.895,-247.409 412.591,-247.066"/>
<polygon fill="midnightblue" stroke="midnightblue" points="412.759,-250.563 422.675,-246.83 412.596,-243.565 412.759,-250.563"/>
</g>
<!-- Node9 -->
<g id="node9" class="node"><title>Node9</title>
<g id="a_node9"><a xlink:href="../../d0/d1a/classsimulation_objects_1_1_ant_cell.html#a80961da26960feed000c403869270a57" target="_top" xlink:title="simulationObjects.AntCell.process\lNeighbors">
<polygon fill="white" stroke="black" points="412.5,-74 412.5,-104 591.5,-104 591.5,-74 412.5,-74"/>
<text text-anchor="start" x="420.5" y="-92" font-family="Helvetica,sans-Serif" font-size="10.00">simulationObjects.AntCell.process</text>
<text text-anchor="middle" x="502" y="-81" font-family="Helvetica,sans-Serif" font-size="10.00">Neighbors</text>
</a>
</g>
</g>
<!-- Node8&#45;&gt;Node9 -->
<g id="edge9" class="edge"><title>Node8&#45;&gt;Node9</title>
<path fill="none" stroke="midnightblue" d="M371.271,-73.8448C381.359,-75.0233 391.73,-76.2348 402.002,-77.4348"/>
<polygon fill="midnightblue" stroke="midnightblue" points="401.888,-80.9452 412.227,-78.6293 402.7,-73.9925 401.888,-80.9452"/>
</g>
<!-- Node10 -->
<g id="node10" class="node"><title>Node10</title>
<g id="a_node10"><a xlink:href="../../d0/d1a/classsimulation_objects_1_1_ant_cell.html#aa1e29c1b347352891db2deaafb92c6ea" target="_top" xlink:title="simulationObjects.AntCell.process\lFullNeighbors">
<polygon fill="white" stroke="black" points="412.5,-25 412.5,-55 591.5,-55 591.5,-25 412.5,-25"/>
<text text-anchor="start" x="420.5" y="-43" font-family="Helvetica,sans-Serif" font-size="10.00">simulationObjects.AntCell.process</text>
<text text-anchor="middle" x="502" y="-32" font-family="Helvetica,sans-Serif" font-size="10.00">FullNeighbors</text>
</a>
</g>
</g>
<!-- Node8&#45;&gt;Node10 -->
<g id="edge10" class="edge"><title>Node8&#45;&gt;Node10</title>
<path fill="none" stroke="midnightblue" d="M371.271,-54.549C381.359,-53.4176 391.73,-52.2546 402.002,-51.1026"/>
<polygon fill="midnightblue" stroke="midnightblue" points="402.679,-54.5487 412.227,-49.9559 401.899,-47.5923 402.679,-54.5487"/>
</g>
</g>
</svg>
        <g id="navigator" transform="translate(0 0)" fill="#404254">
                <rect fill="#f2f5e9" fill-opacity="0.5" stroke="#606060" stroke-width=".5" x="0" y="0" width="60" height="60"/>
                <use id="zoomplus" xlink:href="#zoomPlus" x="17" y="9" onmousedown="handleZoom(evt,'in')"/>
                <use id="zoomminus" xlink:href="#zoomMin" x="42" y="9" onmousedown="handleZoom(evt,'out')"/>
                <use id="reset" xlink:href="#resetDef" x="30" y="36" onmousedown="handleReset()"/>
                <g id="arrowUp" xlink:href="#dirArrow" transform="translate(30 24)" onmousedown="handlePan(0,-1)">
                  <use xlink:href="#rim" fill="#404040">
                        <set attributeName="fill" to="#808080" begin="arrowUp.mouseover" end="arrowUp.mouseout"/>
                  </use>
                  <path fill="none" stroke="white" stroke-width="1.5" d="M0,-3.0v7 M-2.5,-0.5L0,-3.0L2.5,-0.5"/>
                </g>
                <g id="arrowRight" xlink:href="#dirArrow" transform="rotate(90) translate(36 -43)" onmousedown="handlePan(1,0)">
                  <use xlink:href="#rim" fill="#404040">
                        <set attributeName="fill" to="#808080" begin="arrowRight.mouseover" end="arrowRight.mouseout"/>
                  </use>
                  <path fill="none" stroke="white" stroke-width="1.5" d="M0,-3.0v7 M-2.5,-0.5L0,-3.0L2.5,-0.5"/>
                </g>
                <g id="arrowDown" xlink:href="#dirArrow" transform="rotate(180) translate(-30 -48)" onmousedown="handlePan(0,1)">
                  <use xlink:href="#rim" fill="#404040">
                        <set attributeName="fill" to="#808080" begin="arrowDown.mouseover" end="arrowDown.mouseout"/>
                  </use>
                  <path fill="none" stroke="white" stroke-width="1.5" d="M0,-3.0v7 M-2.5,-0.5L0,-3.0L2.5,-0.5"/>
                </g>
                <g id="arrowLeft" xlink:href="#dirArrow" transform="rotate(270) translate(-36 17)" onmousedown="handlePan(-1,0)">
                  <use xlink:href="#rim" fill="#404040">
                        <set attributeName="fill" to="#808080" begin="arrowLeft.mouseover" end="arrowLeft.mouseout"/>
                  </use>
                  <path fill="none" stroke="white" stroke-width="1.5" d="M0,-3.0v7 M-2.5,-0.5L0,-3.0L2.5,-0.5"/>
                </g>
        </g>
        <svg viewBox="0 0 15 15" width="100%" height="30px" preserveAspectRatio="xMaxYMin meet">
         <g id="arrow_out" transform="scale(0.3 0.3)">
          <a xlink:href="classsimulation_objects_1_1_ant_cell_af16eb2ad78c444fcc223dd0db8df0811_cgraph_org.svg" target="_base">
           <rect id="button" ry="5" rx="5" y="6" x="6" height="38" width="38"
                fill="#f2f5e9" fill-opacity="0.5" stroke="#606060" stroke-width="1.0"/>
           <path id="arrow"
             d="M 11.500037,31.436501 C 11.940474,20.09759 22.043105,11.32322 32.158766,21.979434 L 37.068811,17.246167 C 37.068811,17.246167 37.088388,32 37.088388,32 L 22.160133,31.978069 C 22.160133,31.978069 26.997745,27.140456 26.997745,27.140456 C 18.528582,18.264221 13.291696,25.230495 11.500037,31.436501 z"
             style="fill:#404040;"/>
          </a>
         </g>
        </svg>
</svg>
