<?xml version="1.0" encoding="UTF-8" standalone="no"?>
<!DOCTYPE svg PUBLIC "-//W3C//DTD SVG 1.1//EN"
 "http://www.w3.org/Graphics/SVG/1.1/DTD/svg11.dtd">
<!-- Generated by graphviz version 2.36.0 (20140111.2315)
 -->
<!-- Title: simulationObjects.PatchBody.getCenter Pages: 1 -->
<!--zoomable 359 -->
<svg id="main" version="1.1" xmlns="http://www.w3.org/2000/svg" xmlns:xlink="http://www.w3.org/1999/xlink" xml:space="preserve" onload="init(evt)">
<style type="text/css"><![CDATA[
.edge:hover path { stroke: red; }
.edge:hover polygon { stroke: red; fill: red; }
]]></style>
<script type="text/javascript"><![CDATA[
var edges = document.getElementsByTagName('g');
if (edges && edges.length) {
  for (var i=0;i<edges.length;i++) {
    if (edges[i].id.substr(0,4)=='edge') {
      edges[i].setAttribute('class','edge');
    }
  }
}
]]></script>
        <defs>
                <circle id="rim" cx="0" cy="0" r="7"/>
                <circle id="rim2" cx="0" cy="0" r="3.5"/>
                <g id="zoomPlus">
                        <use xlink:href="#rim" fill="#404040">
                                <set attributeName="fill" to="#808080" begin="zoomplus.mouseover" end="zoomplus.mouseout"/>
                        </use>
                        <path d="M-4,0h8M0,-4v8" fill="none" stroke="white" stroke-width="1.5" pointer-events="none"/>
                </g>
                <g id="zoomMin">
                        <use xlink:href="#rim" fill="#404040">
                                <set attributeName="fill" to="#808080" begin="zoomminus.mouseover" end="zoomminus.mouseout"/>
                        </use>
                        <path d="M-4,0h8" fill="none" stroke="white" stroke-width="1.5" pointer-events="none"/>
                </g>
                <g id="dirArrow">
                        <path fill="none" stroke="white" stroke-width="1.5" d="M0,-3.0v7 M-2.5,-0.5L0,-3.0L2.5,-0.5"/>
                </g>
               <g id="resetDef">
                       <use xlink:href="#rim2" fill="#404040">
                               <set attributeName="fill" to="#808080" begin="reset.mouseover" end="reset.mouseout"/>
                       </use>
               </g>
        </defs>

<script type="text/javascript">
var viewWidth = 2358;
var viewHeight = 359;
var sectionId = 'dynsection-3';
</script>
<script xlink:href="../../svgpan.js"/>
<svg id="graph" class="graph">
<g id="viewport">
<title>simulationObjects.PatchBody.getCenter</title>
<polygon fill="white" stroke="none" points="-4,4 -4,-354.84 2354,-354.84 2354,4 -4,4"/>
<!-- Node1 -->
<g id="node1" class="node"><title>Node1</title>
<polygon fill="#bfbfbf" stroke="black" points="0.5,-79.8399 0.5,-109.84 173.5,-109.84 173.5,-79.8399 0.5,-79.8399"/>
<text text-anchor="start" x="8.5" y="-97.8399" font-family="Helvetica,sans-Serif" font-size="10.00">simulationObjects.PatchBody.get</text>
<text text-anchor="middle" x="87" y="-86.8399" font-family="Helvetica,sans-Serif" font-size="10.00">Center</text>
</g>
<!-- Node2 -->
<g id="node2" class="node"><title>Node2</title>
<g id="a_node2"><a xlink:href="../../d5/da5/classsimulation_objects_1_1_patch.html#a06f00537a57f3678cf147c580b92de0d" target="_top" xlink:title="simulationObjects.Patch.update\lCellConstraints">
<polygon fill="white" stroke="black" points="210,-79.8399 210,-109.84 378,-109.84 378,-79.8399 210,-79.8399"/>
<text text-anchor="start" x="218" y="-97.8399" font-family="Helvetica,sans-Serif" font-size="10.00">simulationObjects.Patch.update</text>
<text text-anchor="middle" x="294" y="-86.8399" font-family="Helvetica,sans-Serif" font-size="10.00">CellConstraints</text>
</a>
</g>
</g>
<!-- Node1&#45;&gt;Node2 -->
<g id="edge1" class="edge"><title>Node1&#45;&gt;Node2</title>
<path fill="none" stroke="midnightblue" d="M183.9,-94.8399C192.584,-94.8399 201.331,-94.8399 209.891,-94.8399"/>
<polygon fill="midnightblue" stroke="midnightblue" points="183.751,-91.34 173.751,-94.8399 183.751,-98.34 183.751,-91.34"/>
</g>
<!-- Node3 -->
<g id="node3" class="node"><title>Node3</title>
<g id="a_node3"><a xlink:href="../../d5/da5/classsimulation_objects_1_1_patch.html#ac05b7dd86c9f30b498d93d62cbbba9a4" target="_top" xlink:title="simulationObjects.Patch.addCell">
<polygon fill="white" stroke="black" points="438,-145.34 438,-164.34 608,-164.34 608,-145.34 438,-145.34"/>
<text text-anchor="middle" x="523" y="-152.34" font-family="Helvetica,sans-Serif" font-size="10.00">simulationObjects.Patch.addCell</text>
</a>
</g>
</g>
<!-- Node2&#45;&gt;Node3 -->
<g id="edge2" class="edge"><title>Node2&#45;&gt;Node3</title>
<path fill="none" stroke="midnightblue" d="M361.819,-112.501C402.416,-123.232 452.663,-136.513 485.937,-145.308"/>
<polygon fill="midnightblue" stroke="midnightblue" points="362.551,-109.075 351.989,-109.903 360.762,-115.842 362.551,-109.075"/>
</g>
<!-- Node23 -->
<g id="node23" class="node"><title>Node23</title>
<g id="a_node23"><a xlink:href="../../d6/dae/classsimulation_objects_1_1_sugar_patch.html#ad0451478701e5c49026140110dfa290f" target="_top" xlink:title="simulationObjects.SugarPatch.createBody">
<polygon fill="white" stroke="black" points="414,-85.3399 414,-104.34 632,-104.34 632,-85.3399 414,-85.3399"/>
<text text-anchor="middle" x="523" y="-92.3399" font-family="Helvetica,sans-Serif" font-size="10.00">simulationObjects.SugarPatch.createBody</text>
</a>
</g>
</g>
<!-- Node2&#45;&gt;Node23 -->
<g id="edge25" class="edge"><title>Node2&#45;&gt;Node23</title>
<path fill="none" stroke="midnightblue" d="M388.434,-94.8399C396.867,-94.8399 405.452,-94.8399 413.995,-94.8399"/>
<polygon fill="midnightblue" stroke="midnightblue" points="388.237,-91.34 378.237,-94.8399 388.237,-98.34 388.237,-91.34"/>
</g>
<!-- Node24 -->
<g id="node24" class="node"><title>Node24</title>
<g id="a_node24"><a xlink:href="../../d5/da5/classsimulation_objects_1_1_patch.html#a77ec59a5f39498ab6337a9535a6193e0" target="_top" xlink:title="simulationObjects.Patch.createBody">
<polygon fill="white" stroke="black" points="428.5,-3.33989 428.5,-22.3399 617.5,-22.3399 617.5,-3.33989 428.5,-3.33989"/>
<text text-anchor="middle" x="523" y="-10.3399" font-family="Helvetica,sans-Serif" font-size="10.00">simulationObjects.Patch.createBody</text>
</a>
</g>
</g>
<!-- Node2&#45;&gt;Node24 -->
<g id="edge26" class="edge"><title>Node2&#45;&gt;Node24</title>
<path fill="none" stroke="midnightblue" d="M346.207,-76.3422C392.576,-59.5921 459.042,-35.5826 495.523,-22.4043"/>
<polygon fill="midnightblue" stroke="midnightblue" points="344.851,-73.1105 336.635,-79.7998 347.23,-79.6941 344.851,-73.1105"/>
</g>
<!-- Node4 -->
<g id="node4" class="node"><title>Node4</title>
<g id="a_node4"><a xlink:href="../../d5/da5/classsimulation_objects_1_1_patch.html#a801de23da5dcdf2e6914b939deefe67e" target="_top" xlink:title="simulationObjects.Patch.create\lNewCell">
<polygon fill="white" stroke="black" points="688.5,-320.84 688.5,-350.84 853.5,-350.84 853.5,-320.84 688.5,-320.84"/>
<text text-anchor="start" x="696.5" y="-338.84" font-family="Helvetica,sans-Serif" font-size="10.00">simulationObjects.Patch.create</text>
<text text-anchor="middle" x="771" y="-327.84" font-family="Helvetica,sans-Serif" font-size="10.00">NewCell</text>
</a>
</g>
</g>
<!-- Node3&#45;&gt;Node4 -->
<g id="edge3" class="edge"><title>Node3&#45;&gt;Node4</title>
<path fill="none" stroke="midnightblue" d="M536.304,-172.973C558.747,-204.662 609.449,-270.136 668,-305.84 678.007,-311.942 689.326,-316.863 700.689,-320.813"/>
<polygon fill="midnightblue" stroke="midnightblue" points="539.089,-170.847 530.504,-164.638 533.343,-174.845 539.089,-170.847"/>
</g>
<!-- Node8 -->
<g id="node8" class="node"><title>Node8</title>
<g id="a_node8"><a xlink:href="../../db/d32/classcontroller_1_1_main_controller.html#aecc10abc6b55d8b0b4bd152be5c5d3f0" target="_top" xlink:title="controller.MainController.initialize\lSimulationObjects">
<polygon fill="white" stroke="black" points="1580.5,-276.84 1580.5,-306.84 1753.5,-306.84 1753.5,-276.84 1580.5,-276.84"/>
<text text-anchor="start" x="1588.5" y="-294.84" font-family="Helvetica,sans-Serif" font-size="10.00">controller.MainController.initialize</text>
<text text-anchor="middle" x="1667" y="-283.84" font-family="Helvetica,sans-Serif" font-size="10.00">SimulationObjects</text>
</a>
</g>
</g>
<!-- Node3&#45;&gt;Node8 -->
<g id="edge13" class="edge"><title>Node3&#45;&gt;Node8</title>
<path fill="none" stroke="midnightblue" d="M538.626,-172.265C562.495,-199.268 612.739,-250.344 668,-271.84 807.008,-325.912 853.846,-291.84 1003,-291.84 1003,-291.84 1003,-291.84 1229,-291.84 1350.96,-291.84 1492.06,-291.84 1580.18,-291.84"/>
<polygon fill="midnightblue" stroke="midnightblue" points="541.02,-169.684 531.83,-164.412 535.727,-174.264 541.02,-169.684"/>
</g>
<!-- Node13 -->
<g id="node13" class="node"><title>Node13</title>
<g id="a_node13"><a xlink:href="../../db/dee/classsimulation_objects_1_1_predator_cell.html#a681bdcb9944d91e15325e477aad1b449" target="_top" xlink:title="simulationObjects.Predator\lCell.leaveEgg">
<polygon fill="white" stroke="black" points="698,-232.84 698,-262.84 844,-262.84 844,-232.84 698,-232.84"/>
<text text-anchor="start" x="706" y="-250.84" font-family="Helvetica,sans-Serif" font-size="10.00">simulationObjects.Predator</text>
<text text-anchor="middle" x="771" y="-239.84" font-family="Helvetica,sans-Serif" font-size="10.00">Cell.leaveEgg</text>
</a>
</g>
</g>
<!-- Node3&#45;&gt;Node13 -->
<g id="edge14" class="edge"><title>Node3&#45;&gt;Node13</title>
<path fill="none" stroke="midnightblue" d="M550.12,-169.136C578.465,-184.181 625.392,-207.731 668,-222.84 678.396,-226.526 689.576,-229.867 700.587,-232.819"/>
<polygon fill="midnightblue" stroke="midnightblue" points="551.72,-166.023 541.253,-164.385 548.414,-172.193 551.72,-166.023"/>
</g>
<!-- Node16 -->
<g id="node16" class="node"><title>Node16</title>
<g id="a_node16"><a xlink:href="../../db/d71/classsimulation_objects_1_1_sugar_cell.html#a2bafc48f035b3134c87ad371e3e2364e" target="_top" xlink:title="simulationObjects.SugarCell.makeMove">
<polygon fill="white" stroke="black" points="668,-145.34 668,-164.34 874,-164.34 874,-145.34 668,-145.34"/>
<text text-anchor="middle" x="771" y="-152.34" font-family="Helvetica,sans-Serif" font-size="10.00">simulationObjects.SugarCell.makeMove</text>
</a>
</g>
</g>
<!-- Node3&#45;&gt;Node16 -->
<g id="edge17" class="edge"><title>Node3&#45;&gt;Node16</title>
<path fill="none" stroke="midnightblue" d="M618.325,-154.84C634.566,-154.84 651.513,-154.84 667.946,-154.84"/>
<polygon fill="midnightblue" stroke="midnightblue" points="618.315,-151.34 608.315,-154.84 618.315,-158.34 618.315,-151.34"/>
</g>
<!-- Node19 -->
<g id="node19" class="node"><title>Node19</title>
<g id="a_node19"><a xlink:href="../../db/dee/classsimulation_objects_1_1_predator_cell.html#a7d74aa75e5e49981396b561c6badf01c" target="_top" xlink:title="simulationObjects.Predator\lCell.makeMove">
<polygon fill="white" stroke="black" points="698,-183.84 698,-213.84 844,-213.84 844,-183.84 698,-183.84"/>
<text text-anchor="start" x="706" y="-201.84" font-family="Helvetica,sans-Serif" font-size="10.00">simulationObjects.Predator</text>
<text text-anchor="middle" x="771" y="-190.84" font-family="Helvetica,sans-Serif" font-size="10.00">Cell.makeMove</text>
</a>
</g>
</g>
<!-- Node3&#45;&gt;Node19 -->
<g id="edge20" class="edge"><title>Node3&#45;&gt;Node19</title>
<path fill="none" stroke="midnightblue" d="M587.557,-166.208C621.217,-172.228 662.695,-179.647 697.592,-185.889"/>
<polygon fill="midnightblue" stroke="midnightblue" points="587.838,-162.703 577.378,-164.387 586.606,-169.593 587.838,-162.703"/>
</g>
<!-- Node20 -->
<g id="node20" class="node"><title>Node20</title>
<g id="a_node20"><a xlink:href="../../da/db6/classsimulation_objects_1_1_life_patch.html#a79181e099fd4d7c9e86b94f20f103395" target="_top" xlink:title="simulationObjects.LifePatch.toggle\lCellState">
<polygon fill="white" stroke="black" points="680.5,-95.8399 680.5,-125.84 861.5,-125.84 861.5,-95.8399 680.5,-95.8399"/>
<text text-anchor="start" x="688.5" y="-113.84" font-family="Helvetica,sans-Serif" font-size="10.00">simulationObjects.LifePatch.toggle</text>
<text text-anchor="middle" x="771" y="-102.84" font-family="Helvetica,sans-Serif" font-size="10.00">CellState</text>
</a>
</g>
</g>
<!-- Node3&#45;&gt;Node20 -->
<g id="edge22" class="edge"><title>Node3&#45;&gt;Node20</title>
<path fill="none" stroke="midnightblue" d="M587.292,-143.519C617.274,-138.157 653.505,-131.676 685.771,-125.905"/>
<polygon fill="midnightblue" stroke="midnightblue" points="586.606,-140.086 577.378,-145.293 587.838,-146.977 586.606,-140.086"/>
</g>
<!-- Node21 -->
<g id="node21" class="node"><title>Node21</title>
<g id="a_node21"><a xlink:href="../../da/db6/classsimulation_objects_1_1_life_patch.html#a13f9f221b6ac960be22ba52095e60738" target="_top" xlink:title="simulationObjects.LifePatch.update">
<polygon fill="white" stroke="black" points="678.5,-57.3399 678.5,-76.3399 863.5,-76.3399 863.5,-57.3399 678.5,-57.3399"/>
<text text-anchor="middle" x="771" y="-64.3399" font-family="Helvetica,sans-Serif" font-size="10.00">simulationObjects.LifePatch.update</text>
</a>
</g>
</g>
<!-- Node3&#45;&gt;Node21 -->
<g id="edge23" class="edge"><title>Node3&#45;&gt;Node21</title>
<path fill="none" stroke="midnightblue" d="M566.468,-142.001C586.921,-135.006 611.415,-125.407 632,-113.84 649.671,-103.91 649.513,-94.1533 668,-85.8399 676.707,-81.9244 686.181,-78.8158 695.73,-76.3478"/>
<polygon fill="midnightblue" stroke="midnightblue" points="565.169,-138.745 556.786,-145.223 567.38,-145.387 565.169,-138.745"/>
</g>
<!-- Node22 -->
<g id="node22" class="node"><title>Node22</title>
<g id="a_node22"><a xlink:href="../../db/d5f/classsimulation_objects_1_1_seg_cell.html#a9d7bc36bf15d97456e59afed1a19e460" target="_top" xlink:title="simulationObjects.SegCell.update">
<polygon fill="white" stroke="black" points="682,-19.3399 682,-38.3399 860,-38.3399 860,-19.3399 682,-19.3399"/>
<text text-anchor="middle" x="771" y="-26.3399" font-family="Helvetica,sans-Serif" font-size="10.00">simulationObjects.SegCell.update</text>
</a>
</g>
</g>
<!-- Node3&#45;&gt;Node22 -->
<g id="edge24" class="edge"><title>Node3&#45;&gt;Node22</title>
<path fill="none" stroke="midnightblue" d="M579.29,-142.169C597.591,-135.932 617.073,-126.857 632,-113.84 657.183,-91.8797 640.958,-67.4659 668,-47.8399 673.248,-44.031 679.037,-40.9176 685.112,-38.3795"/>
<polygon fill="midnightblue" stroke="midnightblue" points="578.037,-138.895 569.571,-145.264 580.161,-145.565 578.037,-138.895"/>
</g>
<!-- Node5 -->
<g id="node5" class="node"><title>Node5</title>
<g id="a_node5"><a xlink:href="../../d5/da5/classsimulation_objects_1_1_patch.html#a982ffbab2f32d5955c2c59b5a89fc4a1" target="_top" xlink:title="simulationObjects.Patch.toggle\lCellState">
<polygon fill="white" stroke="black" points="922,-320.84 922,-350.84 1086,-350.84 1086,-320.84 922,-320.84"/>
<text text-anchor="start" x="930" y="-338.84" font-family="Helvetica,sans-Serif" font-size="10.00">simulationObjects.Patch.toggle</text>
<text text-anchor="middle" x="1004" y="-327.84" font-family="Helvetica,sans-Serif" font-size="10.00">CellState</text>
</a>
</g>
</g>
<!-- Node4&#45;&gt;Node5 -->
<g id="edge4" class="edge"><title>Node4&#45;&gt;Node5</title>
<path fill="none" stroke="midnightblue" d="M863.963,-335.84C883.06,-335.84 903.052,-335.84 921.732,-335.84"/>
<polygon fill="midnightblue" stroke="midnightblue" points="863.767,-332.34 853.767,-335.84 863.767,-339.34 863.767,-332.34"/>
</g>
<!-- Node6 -->
<g id="node6" class="node"><title>Node6</title>
<g id="a_node6"><a xlink:href="../../db/d32/classcontroller_1_1_main_controller.html#a20c66a59cfde2b9f8ac2b8bf67e3996d" target="_top" xlink:title="controller.MainController.toggle\lCellStateForMouseEvent">
<polygon fill="white" stroke="black" points="1145.5,-320.84 1145.5,-350.84 1310.5,-350.84 1310.5,-320.84 1145.5,-320.84"/>
<text text-anchor="start" x="1153.5" y="-338.84" font-family="Helvetica,sans-Serif" font-size="10.00">controller.MainController.toggle</text>
<text text-anchor="middle" x="1228" y="-327.84" font-family="Helvetica,sans-Serif" font-size="10.00">CellStateForMouseEvent</text>
</a>
</g>
</g>
<!-- Node5&#45;&gt;Node6 -->
<g id="edge5" class="edge"><title>Node5&#45;&gt;Node6</title>
<path fill="none" stroke="midnightblue" d="M1096.16,-335.84C1112.47,-335.84 1129.37,-335.84 1145.39,-335.84"/>
<polygon fill="midnightblue" stroke="midnightblue" points="1096.09,-332.34 1086.09,-335.84 1096.09,-339.34 1096.09,-332.34"/>
</g>
<!-- Node7 -->
<g id="node7" class="node"><title>Node7</title>
<g id="a_node7"><a xlink:href="../../db/d32/classcontroller_1_1_main_controller.html#ad28f21e1510291d95a69a9f488a20d89" target="_top" xlink:title="controller.MainController.createGrid">
<polygon fill="white" stroke="black" points="1358.5,-323.34 1358.5,-342.34 1543.5,-342.34 1543.5,-323.34 1358.5,-323.34"/>
<text text-anchor="middle" x="1451" y="-330.34" font-family="Helvetica,sans-Serif" font-size="10.00">controller.MainController.createGrid</text>
</a>
</g>
</g>
<!-- Node6&#45;&gt;Node7 -->
<g id="edge6" class="edge"><title>Node6&#45;&gt;Node7</title>
<path fill="none" stroke="midnightblue" d="M1320.93,-334.592C1333.27,-334.425 1345.91,-334.253 1358.24,-334.085"/>
<polygon fill="midnightblue" stroke="midnightblue" points="1320.62,-331.096 1310.66,-334.731 1320.71,-338.095 1320.62,-331.096"/>
</g>
<!-- Node7&#45;&gt;Node8 -->
<g id="edge7" class="edge"><title>Node7&#45;&gt;Node8</title>
<path fill="none" stroke="midnightblue" d="M1511.76,-321.391C1535.16,-316.907 1562.34,-311.7 1587.3,-306.918"/>
<polygon fill="midnightblue" stroke="midnightblue" points="1510.8,-318.011 1501.63,-323.331 1512.11,-324.886 1510.8,-318.011"/>
</g>
<!-- Node9 -->
<g id="node9" class="node"><title>Node9</title>
<g id="a_node9"><a xlink:href="../../db/d32/classcontroller_1_1_main_controller.html#a7cfedb8e16c6b9d6394054d03193da82" target="_top" xlink:title="controller.MainController.initialize\lSimulationWithData">
<polygon fill="white" stroke="black" points="1790.5,-276.84 1790.5,-306.84 1963.5,-306.84 1963.5,-276.84 1790.5,-276.84"/>
<text text-anchor="start" x="1798.5" y="-294.84" font-family="Helvetica,sans-Serif" font-size="10.00">controller.MainController.initialize</text>
<text text-anchor="middle" x="1877" y="-283.84" font-family="Helvetica,sans-Serif" font-size="10.00">SimulationWithData</text>
</a>
</g>
</g>
<!-- Node8&#45;&gt;Node9 -->
<g id="edge8" class="edge"><title>Node8&#45;&gt;Node9</title>
<path fill="none" stroke="midnightblue" d="M1763.59,-291.84C1772.56,-291.84 1781.62,-291.84 1790.49,-291.84"/>
<polygon fill="midnightblue" stroke="midnightblue" points="1763.5,-288.34 1753.5,-291.84 1763.5,-295.34 1763.5,-288.34"/>
</g>
<!-- Node10 -->
<g id="node10" class="node"><title>Node10</title>
<g id="a_node10"><a xlink:href="../../db/ddb/classcontroller_1_1_user_interface.html#a9cf1e21253003993661082c9d42926b2" target="_top" xlink:title="controller.UserInterface.make\lBottomPanel">
<polygon fill="white" stroke="black" points="2000,-254.84 2000,-284.84 2158,-284.84 2158,-254.84 2000,-254.84"/>
<text text-anchor="start" x="2008" y="-272.84" font-family="Helvetica,sans-Serif" font-size="10.00">controller.UserInterface.make</text>
<text text-anchor="middle" x="2079" y="-261.84" font-family="Helvetica,sans-Serif" font-size="10.00">BottomPanel</text>
</a>
</g>
</g>
<!-- Node9&#45;&gt;Node10 -->
<g id="edge9" class="edge"><title>Node9&#45;&gt;Node10</title>
<path fill="none" stroke="midnightblue" d="M1973.85,-281.297C1982.53,-280.341 1991.26,-279.382 1999.76,-278.446"/>
<polygon fill="midnightblue" stroke="midnightblue" points="1973.25,-277.842 1963.69,-282.414 1974.01,-284.8 1973.25,-277.842"/>
</g>
<!-- Node11 -->
<g id="node11" class="node"><title>Node11</title>
<g id="a_node11"><a xlink:href="../../db/ddb/classcontroller_1_1_user_interface.html#aad62b84bbc23f683c844ace519feb9d2" target="_top" xlink:title="controller.UserInterface.reset">
<polygon fill="white" stroke="black" points="2194,-304.34 2194,-323.34 2350,-323.34 2350,-304.34 2194,-304.34"/>
<text text-anchor="middle" x="2272" y="-311.34" font-family="Helvetica,sans-Serif" font-size="10.00">controller.UserInterface.reset</text>
</a>
</g>
</g>
<!-- Node10&#45;&gt;Node11 -->
<g id="edge10" class="edge"><title>Node10&#45;&gt;Node11</title>
<path fill="none" stroke="midnightblue" d="M2155.18,-287.159C2180.56,-293.005 2207.94,-299.313 2229.71,-304.327"/>
<polygon fill="midnightblue" stroke="midnightblue" points="2155.73,-283.693 2145.2,-284.859 2154.16,-290.515 2155.73,-283.693"/>
</g>
<!-- Node12 -->
<g id="node12" class="node"><title>Node12</title>
<g id="a_node12"><a xlink:href="../../db/ddb/classcontroller_1_1_user_interface.html#a6dd740b89d748c372a5ef9959e1bd7c4" target="_top" xlink:title="controller.UserInterface.\lUserInterface">
<polygon fill="white" stroke="black" points="2206.5,-254.84 2206.5,-284.84 2337.5,-284.84 2337.5,-254.84 2206.5,-254.84"/>
<text text-anchor="start" x="2214.5" y="-272.84" font-family="Helvetica,sans-Serif" font-size="10.00">controller.UserInterface.</text>
<text text-anchor="middle" x="2272" y="-261.84" font-family="Helvetica,sans-Serif" font-size="10.00">UserInterface</text>
</a>
</g>
</g>
<!-- Node10&#45;&gt;Node12 -->
<g id="edge12" class="edge"><title>Node10&#45;&gt;Node12</title>
<path fill="none" stroke="midnightblue" d="M2168.41,-269.84C2181.17,-269.84 2194.1,-269.84 2206.27,-269.84"/>
<polygon fill="midnightblue" stroke="midnightblue" points="2168.24,-266.34 2158.24,-269.84 2168.24,-273.34 2168.24,-266.34"/>
</g>
<!-- Node11&#45;&gt;Node9 -->
<g id="edge11" class="edge"><title>Node11&#45;&gt;Node9</title>
<path fill="none" stroke="midnightblue" d="M2183.44,-308.939C2117.94,-305.272 2028.83,-300.283 1963.76,-296.641"/>
<polygon fill="midnightblue" stroke="midnightblue" points="2183.57,-312.451 2193.75,-309.515 2183.96,-305.462 2183.57,-312.451"/>
</g>
<!-- Node14 -->
<g id="node14" class="node"><title>Node14</title>
<g id="a_node14"><a xlink:href="../../db/dee/classsimulation_objects_1_1_predator_cell.html#a0f04c13ccdd5e4845f2e5975ec63952f" target="_top" xlink:title="simulationObjects.Predator\lCell.updateStatesandMakeMoves">
<polygon fill="white" stroke="black" points="916,-210.84 916,-240.84 1092,-240.84 1092,-210.84 916,-210.84"/>
<text text-anchor="start" x="924" y="-228.84" font-family="Helvetica,sans-Serif" font-size="10.00">simulationObjects.Predator</text>
<text text-anchor="middle" x="1004" y="-217.84" font-family="Helvetica,sans-Serif" font-size="10.00">Cell.updateStatesandMakeMoves</text>
</a>
</g>
</g>
<!-- Node13&#45;&gt;Node14 -->
<g id="edge15" class="edge"><title>Node13&#45;&gt;Node14</title>
<path fill="none" stroke="midnightblue" d="M854.105,-240.02C874.037,-238.122 895.42,-236.086 915.587,-234.165"/>
<polygon fill="midnightblue" stroke="midnightblue" points="853.763,-236.537 844.14,-240.969 854.426,-243.506 853.763,-236.537"/>
</g>
<!-- Node15 -->
<g id="node15" class="node"><title>Node15</title>
<g id="a_node15"><a xlink:href="../../db/dee/classsimulation_objects_1_1_predator_cell.html#a954732c3db3474e874b5023303baa2ed" target="_top" xlink:title="simulationObjects.Predator\lCell.update">
<polygon fill="white" stroke="black" points="1155,-210.84 1155,-240.84 1301,-240.84 1301,-210.84 1155,-210.84"/>
<text text-anchor="start" x="1163" y="-228.84" font-family="Helvetica,sans-Serif" font-size="10.00">simulationObjects.Predator</text>
<text text-anchor="middle" x="1228" y="-217.84" font-family="Helvetica,sans-Serif" font-size="10.00">Cell.update</text>
</a>
</g>
</g>
<!-- Node14&#45;&gt;Node15 -->
<g id="edge16" class="edge"><title>Node14&#45;&gt;Node15</title>
<path fill="none" stroke="midnightblue" d="M1102.41,-225.84C1120.02,-225.84 1138.1,-225.84 1154.84,-225.84"/>
<polygon fill="midnightblue" stroke="midnightblue" points="1102.1,-222.34 1092.1,-225.84 1102.1,-229.34 1102.1,-222.34"/>
</g>
<!-- Node17 -->
<g id="node17" class="node"><title>Node17</title>
<g id="a_node17"><a xlink:href="../../db/d71/classsimulation_objects_1_1_sugar_cell.html#afca541b3cc884269b4f778da83fb149d" target="_top" xlink:title="simulationObjects.SugarCell.update\lStatesandMakeMoves">
<polygon fill="white" stroke="black" points="910,-139.84 910,-169.84 1098,-169.84 1098,-139.84 910,-139.84"/>
<text text-anchor="start" x="918" y="-157.84" font-family="Helvetica,sans-Serif" font-size="10.00">simulationObjects.SugarCell.update</text>
<text text-anchor="middle" x="1004" y="-146.84" font-family="Helvetica,sans-Serif" font-size="10.00">StatesandMakeMoves</text>
</a>
</g>
</g>
<!-- Node16&#45;&gt;Node17 -->
<g id="edge18" class="edge"><title>Node16&#45;&gt;Node17</title>
<path fill="none" stroke="midnightblue" d="M884.341,-154.84C892.888,-154.84 901.458,-154.84 909.864,-154.84"/>
<polygon fill="midnightblue" stroke="midnightblue" points="884.329,-151.34 874.329,-154.84 884.329,-158.34 884.329,-151.34"/>
</g>
<!-- Node18 -->
<g id="node18" class="node"><title>Node18</title>
<g id="a_node18"><a xlink:href="../../db/d71/classsimulation_objects_1_1_sugar_cell.html#a4f3c5edbe0c43ea62d21a9658fbc11c7" target="_top" xlink:title="simulationObjects.SugarCell.update">
<polygon fill="white" stroke="black" points="1134,-145.34 1134,-164.34 1322,-164.34 1322,-145.34 1134,-145.34"/>
<text text-anchor="middle" x="1228" y="-152.34" font-family="Helvetica,sans-Serif" font-size="10.00">simulationObjects.SugarCell.update</text>
</a>
</g>
</g>
<!-- Node17&#45;&gt;Node18 -->
<g id="edge19" class="edge"><title>Node17&#45;&gt;Node18</title>
<path fill="none" stroke="midnightblue" d="M1108.43,-154.84C1116.86,-154.84 1125.35,-154.84 1133.7,-154.84"/>
<polygon fill="midnightblue" stroke="midnightblue" points="1108.18,-151.34 1098.18,-154.84 1108.18,-158.34 1108.18,-151.34"/>
</g>
<!-- Node19&#45;&gt;Node14 -->
<g id="edge21" class="edge"><title>Node19&#45;&gt;Node14</title>
<path fill="none" stroke="midnightblue" d="M854.105,-208.437C874.037,-210.766 895.42,-213.266 915.587,-215.623"/>
<polygon fill="midnightblue" stroke="midnightblue" points="854.478,-204.956 844.14,-207.272 853.666,-211.909 854.478,-204.956"/>
</g>
<!-- Node25 -->
<g id="node25" class="node"><title>Node25</title>
<g id="a_node25"><a xlink:href="../../d7/d97/classcontroller_1_1_grid.html#a52256ef1252a18eab8baeb2edef836d8" target="_top" xlink:title="controller.Grid.addPatch\lToGrid">
<polygon fill="white" stroke="black" points="938.5,-33.8399 938.5,-63.8399 1069.5,-63.8399 1069.5,-33.8399 938.5,-33.8399"/>
<text text-anchor="start" x="946.5" y="-51.8399" font-family="Helvetica,sans-Serif" font-size="10.00">controller.Grid.addPatch</text>
<text text-anchor="middle" x="1004" y="-40.8399" font-family="Helvetica,sans-Serif" font-size="10.00">ToGrid</text>
</a>
</g>
</g>
<!-- Node24&#45;&gt;Node25 -->
<g id="edge27" class="edge"><title>Node24&#45;&gt;Node25</title>
<path fill="none" stroke="midnightblue" d="M627.902,-3.56147C697.84,0.632971 791.925,2.29553 874,-9.83989 905.015,-14.4257 938.905,-24.8962 964.163,-33.8344"/>
<polygon fill="midnightblue" stroke="midnightblue" points="627.524,-0.0782021 617.762,-4.19735 627.962,-7.06448 627.524,-0.0782021"/>
</g>
<!-- Node26 -->
<g id="node26" class="node"><title>Node26</title>
<g id="a_node26"><a xlink:href="../../d7/d97/classcontroller_1_1_grid.html#a85b3833ab13642ba27fd7b65ee6a6daa" target="_top" xlink:title="controller.Grid.addPatch\lAtPoint">
<polygon fill="white" stroke="black" points="1385.5,-164.84 1385.5,-194.84 1516.5,-194.84 1516.5,-164.84 1385.5,-164.84"/>
<text text-anchor="start" x="1393.5" y="-182.84" font-family="Helvetica,sans-Serif" font-size="10.00">controller.Grid.addPatch</text>
<text text-anchor="middle" x="1451" y="-171.84" font-family="Helvetica,sans-Serif" font-size="10.00">AtPoint</text>
</a>
</g>
</g>
<!-- Node25&#45;&gt;Node26 -->
<g id="edge28" class="edge"><title>Node25&#45;&gt;Node26</title>
<path fill="none" stroke="midnightblue" d="M1074.08,-66.4534C1138.55,-83.2064 1237.24,-109.67 1322,-135.84 1351.08,-144.817 1383.49,-155.972 1408.42,-164.803"/>
<polygon fill="midnightblue" stroke="midnightblue" points="1074.6,-62.9709 1064.04,-63.8495 1072.84,-69.747 1074.6,-62.9709"/>
</g>
<!-- Node26&#45;&gt;Node8 -->
<g id="edge29" class="edge"><title>Node26&#45;&gt;Node8</title>
<path fill="none" stroke="midnightblue" d="M1489.98,-199.715C1532.13,-221.78 1599.24,-256.898 1637.26,-276.796"/>
<polygon fill="midnightblue" stroke="midnightblue" points="1491.34,-196.481 1480.86,-194.945 1488.1,-202.683 1491.34,-196.481"/>
</g>
</g>
</svg>
        <g id="navigator" transform="translate(0 0)" fill="#404254">
                <rect fill="#f2f5e9" fill-opacity="0.5" stroke="#606060" stroke-width=".5" x="0" y="0" width="60" height="60"/>
                <use id="zoomplus" xlink:href="#zoomPlus" x="17" y="9" onmousedown="handleZoom(evt,'in')"/>
                <use id="zoomminus" xlink:href="#zoomMin" x="42" y="9" onmousedown="handleZoom(evt,'out')"/>
                <use id="reset" xlink:href="#resetDef" x="30" y="36" onmousedown="handleReset()"/>
                <g id="arrowUp" xlink:href="#dirArrow" transform="translate(30 24)" onmousedown="handlePan(0,-1)">
                  <use xlink:href="#rim" fill="#404040">
                        <set attributeName="fill" to="#808080" begin="arrowUp.mouseover" end="arrowUp.mouseout"/>
                  </use>
                  <path fill="none" stroke="white" stroke-width="1.5" d="M0,-3.0v7 M-2.5,-0.5L0,-3.0L2.5,-0.5"/>
                </g>
                <g id="arrowRight" xlink:href="#dirArrow" transform="rotate(90) translate(36 -43)" onmousedown="handlePan(1,0)">
                  <use xlink:href="#rim" fill="#404040">
                        <set attributeName="fill" to="#808080" begin="arrowRight.mouseover" end="arrowRight.mouseout"/>
                  </use>
                  <path fill="none" stroke="white" stroke-width="1.5" d="M0,-3.0v7 M-2.5,-0.5L0,-3.0L2.5,-0.5"/>
                </g>
                <g id="arrowDown" xlink:href="#dirArrow" transform="rotate(180) translate(-30 -48)" onmousedown="handlePan(0,1)">
                  <use xlink:href="#rim" fill="#404040">
                        <set attributeName="fill" to="#808080" begin="arrowDown.mouseover" end="arrowDown.mouseout"/>
                  </use>
                  <path fill="none" stroke="white" stroke-width="1.5" d="M0,-3.0v7 M-2.5,-0.5L0,-3.0L2.5,-0.5"/>
                </g>
                <g id="arrowLeft" xlink:href="#dirArrow" transform="rotate(270) translate(-36 17)" onmousedown="handlePan(-1,0)">
                  <use xlink:href="#rim" fill="#404040">
                        <set attributeName="fill" to="#808080" begin="arrowLeft.mouseover" end="arrowLeft.mouseout"/>
                  </use>
                  <path fill="none" stroke="white" stroke-width="1.5" d="M0,-3.0v7 M-2.5,-0.5L0,-3.0L2.5,-0.5"/>
                </g>
        </g>
        <svg viewBox="0 0 15 15" width="100%" height="30px" preserveAspectRatio="xMaxYMin meet">
         <g id="arrow_out" transform="scale(0.3 0.3)">
          <a xlink:href="classsimulation_objects_1_1_patch_body_a7be1762ade4eaee79c26ac524eb97f33_icgraph_org.svg" target="_base">
           <rect id="button" ry="5" rx="5" y="6" x="6" height="38" width="38"
                fill="#f2f5e9" fill-opacity="0.5" stroke="#606060" stroke-width="1.0"/>
           <path id="arrow"
             d="M 11.500037,31.436501 C 11.940474,20.09759 22.043105,11.32322 32.158766,21.979434 L 37.068811,17.246167 C 37.068811,17.246167 37.088388,32 37.088388,32 L 22.160133,31.978069 C 22.160133,31.978069 26.997745,27.140456 26.997745,27.140456 C 18.528582,18.264221 13.291696,25.230495 11.500037,31.436501 z"
             style="fill:#404040;"/>
          </a>
         </g>
        </svg>
</svg>
