<?xml version="1.0" encoding="UTF-8" standalone="no"?>
<!DOCTYPE svg PUBLIC "-//W3C//DTD SVG 1.1//EN"
 "http://www.w3.org/Graphics/SVG/1.1/DTD/svg11.dtd">
<!-- Generated by graphviz version 2.36.0 (20140111.2315)
 -->
<!-- Title: simulationObjects.AntCell.forage Pages: 1 -->
<!--zoomable 625 -->
<svg id="main" version="1.1" xmlns="http://www.w3.org/2000/svg" xmlns:xlink="http://www.w3.org/1999/xlink" xml:space="preserve" onload="init(evt)">
<style type="text/css"><![CDATA[
.edge:hover path { stroke: red; }
.edge:hover polygon { stroke: red; fill: red; }
]]></style>
<script type="text/javascript"><![CDATA[
var edges = document.getElementsByTagName('g');
if (edges && edges.length) {
  for (var i=0;i<edges.length;i++) {
    if (edges[i].id.substr(0,4)=='edge') {
      edges[i].setAttribute('class','edge');
    }
  }
}
]]></script>
        <defs>
                <circle id="rim" cx="0" cy="0" r="7"/>
                <circle id="rim2" cx="0" cy="0" r="3.5"/>
                <g id="zoomPlus">
                        <use xlink:href="#rim" fill="#404040">
                                <set attributeName="fill" to="#808080" begin="zoomplus.mouseover" end="zoomplus.mouseout"/>
                        </use>
                        <path d="M-4,0h8M0,-4v8" fill="none" stroke="white" stroke-width="1.5" pointer-events="none"/>
                </g>
                <g id="zoomMin">
                        <use xlink:href="#rim" fill="#404040">
                                <set attributeName="fill" to="#808080" begin="zoomminus.mouseover" end="zoomminus.mouseout"/>
                        </use>
                        <path d="M-4,0h8" fill="none" stroke="white" stroke-width="1.5" pointer-events="none"/>
                </g>
                <g id="dirArrow">
                        <path fill="none" stroke="white" stroke-width="1.5" d="M0,-3.0v7 M-2.5,-0.5L0,-3.0L2.5,-0.5"/>
                </g>
               <g id="resetDef">
                       <use xlink:href="#rim2" fill="#404040">
                               <set attributeName="fill" to="#808080" begin="reset.mouseover" end="reset.mouseout"/>
                       </use>
               </g>
        </defs>

<script type="text/javascript">
var viewWidth = 822;
var viewHeight = 625;
var sectionId = 'dynsection-10';
</script>
<script xlink:href="../../svgpan.js"/>
<svg id="graph" class="graph">
<g id="viewport">
<title>simulationObjects.AntCell.forage</title>
<polygon fill="white" stroke="none" points="-4,4 -4,-621 818,-621 818,4 -4,4"/>
<!-- Node1 -->
<g id="node1" class="node"><title>Node1</title>
<polygon fill="#bfbfbf" stroke="black" points="0.5,-216.5 0.5,-235.5 173.5,-235.5 173.5,-216.5 0.5,-216.5"/>
<text text-anchor="middle" x="87" y="-223.5" font-family="Helvetica,sans-Serif" font-size="10.00">simulationObjects.AntCell.forage</text>
</g>
<!-- Node2 -->
<g id="node2" class="node"><title>Node2</title>
<g id="a_node2"><a xlink:href="../../d0/d1a/classsimulation_objects_1_1_ant_cell.html#af16eb2ad78c444fcc223dd0db8df0811" target="_top" xlink:title="simulationObjects.AntCell.find\lFoodSource">
<polygon fill="white" stroke="black" points="216.5,-427 216.5,-457 375.5,-457 375.5,-427 216.5,-427"/>
<text text-anchor="start" x="224.5" y="-445" font-family="Helvetica,sans-Serif" font-size="10.00">simulationObjects.AntCell.find</text>
<text text-anchor="middle" x="296" y="-434" font-family="Helvetica,sans-Serif" font-size="10.00">FoodSource</text>
</a>
</g>
</g>
<!-- Node1&#45;&gt;Node2 -->
<g id="edge1" class="edge"><title>Node1&#45;&gt;Node2</title>
<path fill="none" stroke="midnightblue" d="M97.1616,-235.56C128.005,-267.744 228.627,-372.741 273.297,-419.354"/>
<polygon fill="midnightblue" stroke="midnightblue" points="271.018,-422.034 280.464,-426.832 276.072,-417.191 271.018,-422.034"/>
</g>
<!-- Node13 -->
<g id="node13" class="node"><title>Node13</title>
<g id="a_node13"><a xlink:href="../../d0/d1a/classsimulation_objects_1_1_ant_cell.html#acd4456ec0ebaf2a4b0deb72283552f43" target="_top" xlink:title="simulationObjects.AntCell.has\lFoodItem">
<polygon fill="white" stroke="black" points="216.5,-162 216.5,-192 375.5,-192 375.5,-162 216.5,-162"/>
<text text-anchor="start" x="224.5" y="-180" font-family="Helvetica,sans-Serif" font-size="10.00">simulationObjects.AntCell.has</text>
<text text-anchor="middle" x="296" y="-169" font-family="Helvetica,sans-Serif" font-size="10.00">FoodItem</text>
</a>
</g>
</g>
<!-- Node1&#45;&gt;Node13 -->
<g id="edge13" class="edge"><title>Node1&#45;&gt;Node13</title>
<path fill="none" stroke="midnightblue" d="M128.403,-216.436C154.839,-210.178 190.155,-201.818 221.467,-194.406"/>
<polygon fill="midnightblue" stroke="midnightblue" points="222.552,-197.746 231.476,-192.037 220.939,-190.935 222.552,-197.746"/>
</g>
<!-- Node14 -->
<g id="node14" class="node"><title>Node14</title>
<g id="a_node14"><a xlink:href="../../d0/d1a/classsimulation_objects_1_1_ant_cell.html#aac2730a768c2d978ebf5b1be4bcda495" target="_top" xlink:title="simulationObjects.AntCell.return\lToNest">
<polygon fill="white" stroke="black" points="210.5,-211 210.5,-241 381.5,-241 381.5,-211 210.5,-211"/>
<text text-anchor="start" x="218.5" y="-229" font-family="Helvetica,sans-Serif" font-size="10.00">simulationObjects.AntCell.return</text>
<text text-anchor="middle" x="296" y="-218" font-family="Helvetica,sans-Serif" font-size="10.00">ToNest</text>
</a>
</g>
</g>
<!-- Node1&#45;&gt;Node14 -->
<g id="edge14" class="edge"><title>Node1&#45;&gt;Node14</title>
<path fill="none" stroke="midnightblue" d="M173.689,-226C182.403,-226 191.29,-226 200.094,-226"/>
<polygon fill="midnightblue" stroke="midnightblue" points="200.375,-229.5 210.375,-226 200.375,-222.5 200.375,-229.5"/>
</g>
<!-- Node3 -->
<g id="node3" class="node"><title>Node3</title>
<g id="a_node3"><a xlink:href="../../d0/d1a/classsimulation_objects_1_1_ant_cell.html#abc086e2bbb82c6e8b15e35255861a406" target="_top" xlink:title="simulationObjects.AntCell.drop\lHomePheromones">
<polygon fill="white" stroke="black" points="426,-449 426,-479 590,-479 590,-449 426,-449"/>
<text text-anchor="start" x="434" y="-467" font-family="Helvetica,sans-Serif" font-size="10.00">simulationObjects.AntCell.drop</text>
<text text-anchor="middle" x="508" y="-456" font-family="Helvetica,sans-Serif" font-size="10.00">HomePheromones</text>
</a>
</g>
</g>
<!-- Node2&#45;&gt;Node3 -->
<g id="edge2" class="edge"><title>Node2&#45;&gt;Node3</title>
<path fill="none" stroke="midnightblue" d="M375.794,-450.255C388.778,-451.615 402.333,-453.035 415.594,-454.424"/>
<polygon fill="midnightblue" stroke="midnightblue" points="415.353,-457.918 425.663,-455.479 416.082,-450.956 415.353,-457.918"/>
</g>
<!-- Node4 -->
<g id="node4" class="node"><title>Node4</title>
<g id="a_node4"><a xlink:href="../../d0/d1a/classsimulation_objects_1_1_ant_cell.html#abd65a70e95bf042a399723c80f859fec" target="_top" xlink:title="simulationObjects.AntCell.is\lAtNest">
<polygon fill="white" stroke="black" points="649.5,-449 649.5,-479 798.5,-479 798.5,-449 649.5,-449"/>
<text text-anchor="start" x="657.5" y="-467" font-family="Helvetica,sans-Serif" font-size="10.00">simulationObjects.AntCell.is</text>
<text text-anchor="middle" x="724" y="-456" font-family="Helvetica,sans-Serif" font-size="10.00">AtNest</text>
</a>
</g>
</g>
<!-- Node2&#45;&gt;Node4 -->
<g id="edge6" class="edge"><title>Node2&#45;&gt;Node4</title>
<path fill="none" stroke="midnightblue" d="M327.441,-457.125C351.387,-468.138 385.949,-482.113 418,-488 495.075,-502.156 584.613,-492.024 646.65,-480.898"/>
<polygon fill="midnightblue" stroke="midnightblue" points="647.549,-484.291 656.748,-479.034 646.279,-477.407 647.549,-484.291"/>
</g>
<!-- Node6 -->
<g id="node6" class="node"><title>Node6</title>
<g id="a_node6"><a xlink:href="../../d0/d1a/classsimulation_objects_1_1_ant_cell.html#a68c60b498db5dfe96ddfd7963d4066bf" target="_top" xlink:title="simulationObjects.AntCell.is\lAtFoodSource">
<polygon fill="white" stroke="black" points="649.5,-235 649.5,-265 798.5,-265 798.5,-235 649.5,-235"/>
<text text-anchor="start" x="657.5" y="-253" font-family="Helvetica,sans-Serif" font-size="10.00">simulationObjects.AntCell.is</text>
<text text-anchor="middle" x="724" y="-242" font-family="Helvetica,sans-Serif" font-size="10.00">AtFoodSource</text>
</a>
</g>
</g>
<!-- Node2&#45;&gt;Node6 -->
<g id="edge5" class="edge"><title>Node2&#45;&gt;Node6</title>
<path fill="none" stroke="midnightblue" d="M375.503,-439.052C452.447,-434.768 563.109,-424.452 598,-400 626.004,-380.375 613.126,-359.086 634,-332 651.763,-308.951 676.357,-286.84 695.191,-271.399"/>
<polygon fill="midnightblue" stroke="midnightblue" points="697.541,-274 703.133,-265 693.15,-268.549 697.541,-274"/>
</g>
<!-- Node7 -->
<g id="node7" class="node"><title>Node7</title>
<g id="a_node7"><a xlink:href="../../d0/d1a/classsimulation_objects_1_1_ant_cell.html#a8d02ac47540dcc815025c7668d203d5c" target="_top" xlink:title="simulationObjects.AntCell.moveTo">
<polygon fill="white" stroke="black" points="418.5,-322.5 418.5,-341.5 597.5,-341.5 597.5,-322.5 418.5,-322.5"/>
<text text-anchor="middle" x="508" y="-329.5" font-family="Helvetica,sans-Serif" font-size="10.00">simulationObjects.AntCell.moveTo</text>
</a>
</g>
</g>
<!-- Node2&#45;&gt;Node7 -->
<g id="edge7" class="edge"><title>Node2&#45;&gt;Node7</title>
<path fill="none" stroke="midnightblue" d="M312.362,-426.862C334.028,-406.409 375.664,-370.292 418,-351 423.434,-348.524 429.204,-346.364 435.091,-344.483"/>
<polygon fill="midnightblue" stroke="midnightblue" points="436.453,-347.731 445.072,-341.571 434.492,-341.012 436.453,-347.731"/>
</g>
<!-- Node8 -->
<g id="node8" class="node"><title>Node8</title>
<g id="a_node8"><a xlink:href="../../d0/d1a/classsimulation_objects_1_1_ant_cell.html#ac8d1ca7915d88c6e315f9a9744118f55" target="_top" xlink:title="simulationObjects.AntCell.pick\lUpFoodItem">
<polygon fill="white" stroke="black" points="427.5,-586 427.5,-616 588.5,-616 588.5,-586 427.5,-586"/>
<text text-anchor="start" x="435.5" y="-604" font-family="Helvetica,sans-Serif" font-size="10.00">simulationObjects.AntCell.pick</text>
<text text-anchor="middle" x="508" y="-593" font-family="Helvetica,sans-Serif" font-size="10.00">UpFoodItem</text>
</a>
</g>
</g>
<!-- Node2&#45;&gt;Node8 -->
<g id="edge8" class="edge"><title>Node2&#45;&gt;Node8</title>
<path fill="none" stroke="midnightblue" d="M306.6,-457.427C324.807,-485.386 367.12,-544.448 418,-576 421.431,-578.128 425.048,-580.079 428.779,-581.867"/>
<polygon fill="midnightblue" stroke="midnightblue" points="427.688,-585.209 438.254,-585.986 430.479,-578.789 427.688,-585.209"/>
</g>
<!-- Node9 -->
<g id="node9" class="node"><title>Node9</title>
<g id="a_node9"><a xlink:href="../../d0/d1a/classsimulation_objects_1_1_ant_cell.html#ac39fcb154bc4a678ff28e49306a63e63" target="_top" xlink:title="simulationObjects.AntCell.select\lLocation">
<polygon fill="white" stroke="black" points="423,-537 423,-567 593,-567 593,-537 423,-537"/>
<text text-anchor="start" x="431" y="-555" font-family="Helvetica,sans-Serif" font-size="10.00">simulationObjects.AntCell.select</text>
<text text-anchor="middle" x="508" y="-544" font-family="Helvetica,sans-Serif" font-size="10.00">Location</text>
</a>
</g>
</g>
<!-- Node2&#45;&gt;Node9 -->
<g id="edge9" class="edge"><title>Node2&#45;&gt;Node9</title>
<path fill="none" stroke="midnightblue" d="M316.59,-457.274C339.758,-474.774 379.99,-503.421 418,-522 426.589,-526.198 435.913,-530.047 445.183,-533.487"/>
<polygon fill="midnightblue" stroke="midnightblue" points="444.198,-536.851 454.792,-536.92 446.553,-530.259 444.198,-536.851"/>
</g>
<!-- Node12 -->
<g id="node12" class="node"><title>Node12</title>
<g id="a_node12"><a xlink:href="../../d0/d1a/classsimulation_objects_1_1_ant_cell.html#a6fa2215bbf3d1baad341c7158fac22a9" target="_top" xlink:title="simulationObjects.AntCell.set\lOrientation">
<polygon fill="white" stroke="black" points="429.5,-361 429.5,-391 586.5,-391 586.5,-361 429.5,-361"/>
<text text-anchor="start" x="437.5" y="-379" font-family="Helvetica,sans-Serif" font-size="10.00">simulationObjects.AntCell.set</text>
<text text-anchor="middle" x="508" y="-368" font-family="Helvetica,sans-Serif" font-size="10.00">Orientation</text>
</a>
</g>
</g>
<!-- Node2&#45;&gt;Node12 -->
<g id="edge12" class="edge"><title>Node2&#45;&gt;Node12</title>
<path fill="none" stroke="midnightblue" d="M344.915,-426.941C375.852,-417.218 416.288,-404.51 449.032,-394.219"/>
<polygon fill="midnightblue" stroke="midnightblue" points="450.437,-397.446 458.928,-391.108 448.338,-390.768 450.437,-397.446"/>
</g>
<!-- Node3&#45;&gt;Node4 -->
<g id="edge3" class="edge"><title>Node3&#45;&gt;Node4</title>
<path fill="none" stroke="midnightblue" d="M590.209,-464C606.116,-464 622.832,-464 638.833,-464"/>
<polygon fill="midnightblue" stroke="midnightblue" points="639.229,-467.5 649.229,-464 639.229,-460.5 639.229,-467.5"/>
</g>
<!-- Node5 -->
<g id="node5" class="node"><title>Node5</title>
<g id="a_node5"><a xlink:href="../../d0/d1a/classsimulation_objects_1_1_ant_cell.html#a6304515b4982b91503e34e27389f840d" target="_top" xlink:title="simulationObjects.AntCell.top\lOffPheromones">
<polygon fill="white" stroke="black" points="645,-342 645,-372 803,-372 803,-342 645,-342"/>
<text text-anchor="start" x="653" y="-360" font-family="Helvetica,sans-Serif" font-size="10.00">simulationObjects.AntCell.top</text>
<text text-anchor="middle" x="724" y="-349" font-family="Helvetica,sans-Serif" font-size="10.00">OffPheromones</text>
</a>
</g>
</g>
<!-- Node3&#45;&gt;Node5 -->
<g id="edge4" class="edge"><title>Node3&#45;&gt;Node5</title>
<path fill="none" stroke="midnightblue" d="M560.145,-448.973C572.742,-444.672 586.043,-439.609 598,-434 632.116,-417.997 668.517,-394.796 693.186,-378.049"/>
<polygon fill="midnightblue" stroke="midnightblue" points="695.451,-380.74 701.718,-372.197 691.492,-374.967 695.451,-380.74"/>
</g>
<!-- Node10 -->
<g id="node10" class="node"><title>Node10</title>
<g id="a_node10"><a xlink:href="../../d0/d1a/classsimulation_objects_1_1_ant_cell.html#a80961da26960feed000c403869270a57" target="_top" xlink:title="simulationObjects.AntCell.process\lNeighbors">
<polygon fill="white" stroke="black" points="634.5,-517 634.5,-547 813.5,-547 813.5,-517 634.5,-517"/>
<text text-anchor="start" x="642.5" y="-535" font-family="Helvetica,sans-Serif" font-size="10.00">simulationObjects.AntCell.process</text>
<text text-anchor="middle" x="724" y="-524" font-family="Helvetica,sans-Serif" font-size="10.00">Neighbors</text>
</a>
</g>
</g>
<!-- Node9&#45;&gt;Node10 -->
<g id="edge10" class="edge"><title>Node9&#45;&gt;Node10</title>
<path fill="none" stroke="midnightblue" d="M593.271,-544.124C603.359,-543.181 613.73,-542.212 624.002,-541.252"/>
<polygon fill="midnightblue" stroke="midnightblue" points="624.596,-544.712 634.227,-540.297 623.944,-537.742 624.596,-544.712"/>
</g>
<!-- Node11 -->
<g id="node11" class="node"><title>Node11</title>
<g id="a_node11"><a xlink:href="../../d0/d1a/classsimulation_objects_1_1_ant_cell.html#aa1e29c1b347352891db2deaafb92c6ea" target="_top" xlink:title="simulationObjects.AntCell.process\lFullNeighbors">
<polygon fill="white" stroke="black" points="634.5,-566 634.5,-596 813.5,-596 813.5,-566 634.5,-566"/>
<text text-anchor="start" x="642.5" y="-584" font-family="Helvetica,sans-Serif" font-size="10.00">simulationObjects.AntCell.process</text>
<text text-anchor="middle" x="724" y="-573" font-family="Helvetica,sans-Serif" font-size="10.00">FullNeighbors</text>
</a>
</g>
</g>
<!-- Node9&#45;&gt;Node11 -->
<g id="edge11" class="edge"><title>Node9&#45;&gt;Node11</title>
<path fill="none" stroke="midnightblue" d="M593.271,-563.42C603.359,-564.787 613.73,-566.192 624.002,-567.584"/>
<polygon fill="midnightblue" stroke="midnightblue" points="623.847,-571.095 634.227,-568.97 624.787,-564.159 623.847,-571.095"/>
</g>
<!-- Node14&#45;&gt;Node4 -->
<g id="edge24" class="edge"><title>Node14&#45;&gt;Node4</title>
<path fill="none" stroke="midnightblue" d="M330.631,-241.07C354.62,-251.39 387.84,-264.819 418,-274 496.308,-297.839 532.768,-263.551 598,-313 625.251,-333.658 613.207,-353.851 634,-381 651.793,-404.232 676.384,-426.621 695.21,-442.279"/>
<polygon fill="midnightblue" stroke="midnightblue" points="693.19,-445.148 703.148,-448.768 697.621,-439.729 693.19,-445.148"/>
</g>
<!-- Node14&#45;&gt;Node6 -->
<g id="edge15" class="edge"><title>Node14&#45;&gt;Node6</title>
<path fill="none" stroke="midnightblue" d="M369.162,-210.791C373.843,-208.044 378.196,-204.809 382,-201 422.25,-160.697 372.416,-112.155 418,-78 482.022,-30.03 526.717,-41.6855 598,-78 659.121,-109.137 697.371,-185.697 713.749,-225.331"/>
<polygon fill="midnightblue" stroke="midnightblue" points="710.568,-226.801 717.53,-234.788 717.067,-224.203 710.568,-226.801"/>
</g>
<!-- Node14&#45;&gt;Node7 -->
<g id="edge23" class="edge"><title>Node14&#45;&gt;Node7</title>
<path fill="none" stroke="midnightblue" d="M315.112,-241.141C337.813,-259.414 378.548,-289.93 418,-308 428.137,-312.643 439.349,-316.536 450.299,-319.744"/>
<polygon fill="midnightblue" stroke="midnightblue" points="449.672,-323.202 460.243,-322.499 451.541,-316.456 449.672,-323.202"/>
</g>
<!-- Node14&#45;&gt;Node12 -->
<g id="edge22" class="edge"><title>Node14&#45;&gt;Node12</title>
<path fill="none" stroke="midnightblue" d="M307.451,-241.196C326.385,-267.563 368.972,-321.761 418,-351 421.644,-353.173 425.485,-355.164 429.443,-356.988"/>
<polygon fill="midnightblue" stroke="midnightblue" points="428.278,-360.295 438.852,-360.944 430.991,-353.842 428.278,-360.295"/>
</g>
<!-- Node15 -->
<g id="node15" class="node"><title>Node15</title>
<g id="a_node15"><a xlink:href="../../d0/d1a/classsimulation_objects_1_1_ant_cell.html#adbddc0189a94aef24e453ac2685a09bf" target="_top" xlink:title="simulationObjects.AntCell.shift\lOrientation">
<polygon fill="white" stroke="black" points="427,-0 427,-30 589,-30 589,-0 427,-0"/>
<text text-anchor="start" x="435" y="-18" font-family="Helvetica,sans-Serif" font-size="10.00">simulationObjects.AntCell.shift</text>
<text text-anchor="middle" x="508" y="-7" font-family="Helvetica,sans-Serif" font-size="10.00">Orientation</text>
</a>
</g>
</g>
<!-- Node14&#45;&gt;Node15 -->
<g id="edge16" class="edge"><title>Node14&#45;&gt;Node15</title>
<path fill="none" stroke="midnightblue" d="M369.808,-210.792C374.28,-208.042 378.413,-204.806 382,-201 430.802,-149.217 370.219,-97.7262 418,-45 421.316,-41.3413 425.092,-38.1284 429.174,-35.307"/>
<polygon fill="midnightblue" stroke="midnightblue" points="431.16,-38.1968 437.932,-30.0482 427.557,-32.1955 431.16,-38.1968"/>
</g>
<!-- Node16 -->
<g id="node16" class="node"><title>Node16</title>
<g id="a_node16"><a xlink:href="../../d5/da5/classsimulation_objects_1_1_patch.html#ac36baf5630549a97a4916353710ebc25" target="_top" xlink:title="simulationObjects.Patch.get\lState">
<polygon fill="white" stroke="black" points="433,-186 433,-216 583,-216 583,-186 433,-186"/>
<text text-anchor="start" x="441" y="-204" font-family="Helvetica,sans-Serif" font-size="10.00">simulationObjects.Patch.get</text>
<text text-anchor="middle" x="508" y="-193" font-family="Helvetica,sans-Serif" font-size="10.00">State</text>
</a>
</g>
</g>
<!-- Node14&#45;&gt;Node16 -->
<g id="edge17" class="edge"><title>Node14&#45;&gt;Node16</title>
<path fill="none" stroke="midnightblue" d="M381.507,-215.94C395.04,-214.329 409.044,-212.661 422.575,-211.051"/>
<polygon fill="midnightblue" stroke="midnightblue" points="423.297,-214.489 432.814,-209.832 422.47,-207.538 423.297,-214.489"/>
</g>
<!-- Node17 -->
<g id="node17" class="node"><title>Node17</title>
<g id="a_node17"><a xlink:href="../../d0/d1a/classsimulation_objects_1_1_ant_cell.html#a66acb24ed33e2dcc3bc85b443c66590a" target="_top" xlink:title="simulationObjects.AntCell.find\lMaxPheromoneNeighbor">
<polygon fill="white" stroke="black" points="428.5,-137 428.5,-167 587.5,-167 587.5,-137 428.5,-137"/>
<text text-anchor="start" x="436.5" y="-155" font-family="Helvetica,sans-Serif" font-size="10.00">simulationObjects.AntCell.find</text>
<text text-anchor="middle" x="508" y="-144" font-family="Helvetica,sans-Serif" font-size="10.00">MaxPheromoneNeighbor</text>
</a>
</g>
</g>
<!-- Node14&#45;&gt;Node17 -->
<g id="edge18" class="edge"><title>Node14&#45;&gt;Node17</title>
<path fill="none" stroke="midnightblue" d="M357.351,-210.877C365.793,-208.008 374.231,-204.72 382,-201 399.57,-192.588 400.336,-184.212 418,-176 422.308,-173.997 426.814,-172.136 431.414,-170.411"/>
<polygon fill="midnightblue" stroke="midnightblue" points="432.68,-173.676 440.954,-167.058 430.359,-167.071 432.68,-173.676"/>
</g>
<!-- Node18 -->
<g id="node18" class="node"><title>Node18</title>
<g id="a_node18"><a xlink:href="../../d0/d1a/classsimulation_objects_1_1_ant_cell.html#acd24e1bee3aaf27acafd05722f6cbb62" target="_top" xlink:title="simulationObjects.AntCell.drop\lFoodPheromones">
<polygon fill="white" stroke="black" points="426,-235 426,-265 590,-265 590,-235 426,-235"/>
<text text-anchor="start" x="434" y="-253" font-family="Helvetica,sans-Serif" font-size="10.00">simulationObjects.AntCell.drop</text>
<text text-anchor="middle" x="508" y="-242" font-family="Helvetica,sans-Serif" font-size="10.00">FoodPheromones</text>
</a>
</g>
</g>
<!-- Node14&#45;&gt;Node18 -->
<g id="edge19" class="edge"><title>Node14&#45;&gt;Node18</title>
<path fill="none" stroke="midnightblue" d="M381.507,-235.658C392.79,-236.947 404.402,-238.275 415.793,-239.576"/>
<polygon fill="midnightblue" stroke="midnightblue" points="415.401,-243.054 425.733,-240.712 416.196,-236.099 415.401,-243.054"/>
</g>
<!-- Node19 -->
<g id="node19" class="node"><title>Node19</title>
<g id="a_node19"><a xlink:href="../../d0/d1a/classsimulation_objects_1_1_ant_cell.html#a5ddcc09dafb883d58ed247056a83d93c" target="_top" xlink:title="simulationObjects.AntCell.drop\lFoodItem">
<polygon fill="white" stroke="black" points="426,-88 426,-118 590,-118 590,-88 426,-88"/>
<text text-anchor="start" x="434" y="-106" font-family="Helvetica,sans-Serif" font-size="10.00">simulationObjects.AntCell.drop</text>
<text text-anchor="middle" x="508" y="-95" font-family="Helvetica,sans-Serif" font-size="10.00">FoodItem</text>
</a>
</g>
</g>
<!-- Node14&#45;&gt;Node19 -->
<g id="edge25" class="edge"><title>Node14&#45;&gt;Node19</title>
<path fill="none" stroke="midnightblue" d="M366.81,-210.914C372.262,-208.148 377.42,-204.874 382,-201 409.926,-177.381 389.809,-150.301 418,-127 419.573,-125.7 421.21,-124.47 422.9,-123.306"/>
<polygon fill="midnightblue" stroke="midnightblue" points="424.961,-126.152 431.754,-118.022 421.374,-120.141 424.961,-126.152"/>
</g>
<!-- Node18&#45;&gt;Node5 -->
<g id="edge21" class="edge"><title>Node18&#45;&gt;Node5</title>
<path fill="none" stroke="midnightblue" d="M560.145,-265.027C572.742,-269.328 586.043,-274.391 598,-280 632.116,-296.003 668.517,-319.204 693.186,-335.951"/>
<polygon fill="midnightblue" stroke="midnightblue" points="691.492,-339.033 701.718,-341.803 695.451,-333.26 691.492,-339.033"/>
</g>
<!-- Node18&#45;&gt;Node6 -->
<g id="edge20" class="edge"><title>Node18&#45;&gt;Node6</title>
<path fill="none" stroke="midnightblue" d="M590.209,-250C606.116,-250 622.832,-250 638.833,-250"/>
<polygon fill="midnightblue" stroke="midnightblue" points="639.229,-253.5 649.229,-250 639.229,-246.5 639.229,-253.5"/>
</g>
</g>
</svg>
        <g id="navigator" transform="translate(0 0)" fill="#404254">
                <rect fill="#f2f5e9" fill-opacity="0.5" stroke="#606060" stroke-width=".5" x="0" y="0" width="60" height="60"/>
                <use id="zoomplus" xlink:href="#zoomPlus" x="17" y="9" onmousedown="handleZoom(evt,'in')"/>
                <use id="zoomminus" xlink:href="#zoomMin" x="42" y="9" onmousedown="handleZoom(evt,'out')"/>
                <use id="reset" xlink:href="#resetDef" x="30" y="36" onmousedown="handleReset()"/>
                <g id="arrowUp" xlink:href="#dirArrow" transform="translate(30 24)" onmousedown="handlePan(0,-1)">
                  <use xlink:href="#rim" fill="#404040">
                        <set attributeName="fill" to="#808080" begin="arrowUp.mouseover" end="arrowUp.mouseout"/>
                  </use>
                  <path fill="none" stroke="white" stroke-width="1.5" d="M0,-3.0v7 M-2.5,-0.5L0,-3.0L2.5,-0.5"/>
                </g>
                <g id="arrowRight" xlink:href="#dirArrow" transform="rotate(90) translate(36 -43)" onmousedown="handlePan(1,0)">
                  <use xlink:href="#rim" fill="#404040">
                        <set attributeName="fill" to="#808080" begin="arrowRight.mouseover" end="arrowRight.mouseout"/>
                  </use>
                  <path fill="none" stroke="white" stroke-width="1.5" d="M0,-3.0v7 M-2.5,-0.5L0,-3.0L2.5,-0.5"/>
                </g>
                <g id="arrowDown" xlink:href="#dirArrow" transform="rotate(180) translate(-30 -48)" onmousedown="handlePan(0,1)">
                  <use xlink:href="#rim" fill="#404040">
                        <set attributeName="fill" to="#808080" begin="arrowDown.mouseover" end="arrowDown.mouseout"/>
                  </use>
                  <path fill="none" stroke="white" stroke-width="1.5" d="M0,-3.0v7 M-2.5,-0.5L0,-3.0L2.5,-0.5"/>
                </g>
                <g id="arrowLeft" xlink:href="#dirArrow" transform="rotate(270) translate(-36 17)" onmousedown="handlePan(-1,0)">
                  <use xlink:href="#rim" fill="#404040">
                        <set attributeName="fill" to="#808080" begin="arrowLeft.mouseover" end="arrowLeft.mouseout"/>
                  </use>
                  <path fill="none" stroke="white" stroke-width="1.5" d="M0,-3.0v7 M-2.5,-0.5L0,-3.0L2.5,-0.5"/>
                </g>
        </g>
        <svg viewBox="0 0 15 15" width="100%" height="30px" preserveAspectRatio="xMaxYMin meet">
         <g id="arrow_out" transform="scale(0.3 0.3)">
          <a xlink:href="classsimulation_objects_1_1_ant_cell_a70a58b87ff6093514dfb9fa328a4e6be_cgraph_org.svg" target="_base">
           <rect id="button" ry="5" rx="5" y="6" x="6" height="38" width="38"
                fill="#f2f5e9" fill-opacity="0.5" stroke="#606060" stroke-width="1.0"/>
           <path id="arrow"
             d="M 11.500037,31.436501 C 11.940474,20.09759 22.043105,11.32322 32.158766,21.979434 L 37.068811,17.246167 C 37.068811,17.246167 37.088388,32 37.088388,32 L 22.160133,31.978069 C 22.160133,31.978069 26.997745,27.140456 26.997745,27.140456 C 18.528582,18.264221 13.291696,25.230495 11.500037,31.436501 z"
             style="fill:#404040;"/>
          </a>
         </g>
        </svg>
</svg>
