<?xml version="1.0" encoding="UTF-8" standalone="no"?>
<!DOCTYPE svg PUBLIC "-//W3C//DTD SVG 1.1//EN"
 "http://www.w3.org/Graphics/SVG/1.1/DTD/svg11.dtd">
<!-- Generated by graphviz version 2.36.0 (20140111.2315)
 -->
<!-- Title: simulationObjects.AntCell.dropFoodPheromones Pages: 1 -->
<svg width="366pt" height="87pt"
 viewBox="0.00 0.00 366.00 87.00" xmlns="http://www.w3.org/2000/svg" xmlns:xlink="http://www.w3.org/1999/xlink">
<g id="graph0" class="graph" transform="scale(1 1) rotate(0) translate(4 83)">
<title>simulationObjects.AntCell.dropFoodPheromones</title>
<polygon fill="white" stroke="none" points="-4,4 -4,-83 362,-83 362,4 -4,4"/>
<!-- Node1 -->
<g id="node1" class="node"><title>Node1</title>
<polygon fill="#bfbfbf" stroke="black" points="0,-24 0,-54 164,-54 164,-24 0,-24"/>
<text text-anchor="start" x="8" y="-42" font-family="Helvetica,sans-Serif" font-size="10.00">simulationObjects.AntCell.drop</text>
<text text-anchor="middle" x="82" y="-31" font-family="Helvetica,sans-Serif" font-size="10.00">FoodPheromones</text>
</g>
<!-- Node2 -->
<g id="node2" class="node"><title>Node2</title>
<g id="a_node2"><a xlink:href="../../d0/d1a/classsimulation_objects_1_1_ant_cell.html#a68c60b498db5dfe96ddfd7963d4066bf" target="_top" xlink:title="simulationObjects.AntCell.is\lAtFoodSource">
<polygon fill="white" stroke="black" points="204.5,-49 204.5,-79 353.5,-79 353.5,-49 204.5,-49"/>
<text text-anchor="start" x="212.5" y="-67" font-family="Helvetica,sans-Serif" font-size="10.00">simulationObjects.AntCell.is</text>
<text text-anchor="middle" x="279" y="-56" font-family="Helvetica,sans-Serif" font-size="10.00">AtFoodSource</text>
</a>
</g>
</g>
<!-- Node1&#45;&gt;Node2 -->
<g id="edge1" class="edge"><title>Node1&#45;&gt;Node2</title>
<path fill="none" stroke="midnightblue" d="M164.003,-49.3851C174.049,-50.6729 184.335,-51.9917 194.418,-53.2844"/>
<polygon fill="midnightblue" stroke="midnightblue" points="194.054,-56.7662 204.418,-54.5664 194.944,-49.8231 194.054,-56.7662"/>
</g>
<!-- Node3 -->
<g id="node3" class="node"><title>Node3</title>
<g id="a_node3"><a xlink:href="../../d0/d1a/classsimulation_objects_1_1_ant_cell.html#a6304515b4982b91503e34e27389f840d" target="_top" xlink:title="simulationObjects.AntCell.top\lOffPheromones">
<polygon fill="white" stroke="black" points="200,-0 200,-30 358,-30 358,-0 200,-0"/>
<text text-anchor="start" x="208" y="-18" font-family="Helvetica,sans-Serif" font-size="10.00">simulationObjects.AntCell.top</text>
<text text-anchor="middle" x="279" y="-7" font-family="Helvetica,sans-Serif" font-size="10.00">OffPheromones</text>
</a>
</g>
</g>
<!-- Node1&#45;&gt;Node3 -->
<g id="edge2" class="edge"><title>Node1&#45;&gt;Node3</title>
<path fill="none" stroke="midnightblue" d="M164.003,-29.0303C172.502,-27.9843 181.173,-26.9171 189.748,-25.8618"/>
<polygon fill="midnightblue" stroke="midnightblue" points="190.256,-29.3257 199.754,-24.6303 189.401,-22.3782 190.256,-29.3257"/>
</g>
</g>
</svg>
