<?xml version="1.0" encoding="UTF-8" standalone="no"?>
<!DOCTYPE svg PUBLIC "-//W3C//DTD SVG 1.1//EN"
 "http://www.w3.org/Graphics/SVG/1.1/DTD/svg11.dtd">
<!-- Generated by graphviz version 2.36.0 (20140111.2315)
 -->
<!-- Title: simulationObjects.PatchBody.getPatchHeight Pages: 1 -->
<svg width="2358pt" height="357pt"
 viewBox="0.00 0.00 2358.00 357.31" xmlns="http://www.w3.org/2000/svg" xmlns:xlink="http://www.w3.org/1999/xlink">
<g id="graph0" class="graph" transform="scale(1 1) rotate(0) translate(4 353.315)">
<title>simulationObjects.PatchBody.getPatchHeight</title>
<polygon fill="white" stroke="none" points="-4,4 -4,-353.315 2354,-353.315 2354,4 -4,4"/>
<!-- Node1 -->
<g id="node1" class="node"><title>Node1</title>
<polygon fill="#bfbfbf" stroke="black" points="0.5,-206.315 0.5,-236.315 173.5,-236.315 173.5,-206.315 0.5,-206.315"/>
<text text-anchor="start" x="8.5" y="-224.315" font-family="Helvetica,sans-Serif" font-size="10.00">simulationObjects.PatchBody.get</text>
<text text-anchor="middle" x="87" y="-213.315" font-family="Helvetica,sans-Serif" font-size="10.00">PatchHeight</text>
</g>
<!-- Node2 -->
<g id="node2" class="node"><title>Node2</title>
<g id="a_node2"><a xlink:href="../../d9/d93/classsimulation_objects_1_1_patch_body_rectangle.html#a9eadab113da9b80f951bf333791d1ff3" target="_top" xlink:title="simulationObjects.PatchBody\lRectangle.buildBody">
<polygon fill="white" stroke="black" points="216.5,-280.315 216.5,-310.315 371.5,-310.315 371.5,-280.315 216.5,-280.315"/>
<text text-anchor="start" x="224.5" y="-298.315" font-family="Helvetica,sans-Serif" font-size="10.00">simulationObjects.PatchBody</text>
<text text-anchor="middle" x="294" y="-287.315" font-family="Helvetica,sans-Serif" font-size="10.00">Rectangle.buildBody</text>
</a>
</g>
</g>
<!-- Node1&#45;&gt;Node2 -->
<g id="edge1" class="edge"><title>Node1&#45;&gt;Node2</title>
<path fill="none" stroke="midnightblue" d="M132.648,-240.361C155.583,-249.86 184.085,-261.228 210,-270.315 219.799,-273.751 230.345,-277.151 240.525,-280.284"/>
<polygon fill="midnightblue" stroke="midnightblue" points="133.761,-237.033 123.184,-236.417 131.068,-243.495 133.761,-237.033"/>
</g>
<!-- Node4 -->
<g id="node4" class="node"><title>Node4</title>
<g id="a_node4"><a xlink:href="../../dc/df0/classsimulation_objects_1_1_patch_body_triangle.html#af06af0312cd13639f8685d1552d73dd1" target="_top" xlink:title="simulationObjects.PatchBody\lTriangle.buildBody">
<polygon fill="white" stroke="black" points="216.5,-231.315 216.5,-261.315 371.5,-261.315 371.5,-231.315 216.5,-231.315"/>
<text text-anchor="start" x="224.5" y="-249.315" font-family="Helvetica,sans-Serif" font-size="10.00">simulationObjects.PatchBody</text>
<text text-anchor="middle" x="294" y="-238.315" font-family="Helvetica,sans-Serif" font-size="10.00">Triangle.buildBody</text>
</a>
</g>
</g>
<!-- Node1&#45;&gt;Node4 -->
<g id="edge3" class="edge"><title>Node1&#45;&gt;Node4</title>
<path fill="none" stroke="midnightblue" d="M183.76,-232.993C194.707,-234.328 205.756,-235.675 216.406,-236.974"/>
<polygon fill="midnightblue" stroke="midnightblue" points="184.101,-229.509 173.751,-231.772 183.253,-236.457 184.101,-229.509"/>
</g>
<!-- Node6 -->
<g id="node6" class="node"><title>Node6</title>
<g id="a_node6"><a xlink:href="../../d8/dfe/classsimulation_objects_1_1_patch_body_hexagon.html#a9013dbf816589413e492da6fab10fa7e" target="_top" xlink:title="simulationObjects.PatchBody\lHexagon.buildBody">
<polygon fill="white" stroke="black" points="216.5,-182.315 216.5,-212.315 371.5,-212.315 371.5,-182.315 216.5,-182.315"/>
<text text-anchor="start" x="224.5" y="-200.315" font-family="Helvetica,sans-Serif" font-size="10.00">simulationObjects.PatchBody</text>
<text text-anchor="middle" x="294" y="-189.315" font-family="Helvetica,sans-Serif" font-size="10.00">Hexagon.buildBody</text>
</a>
</g>
</g>
<!-- Node1&#45;&gt;Node6 -->
<g id="edge5" class="edge"><title>Node1&#45;&gt;Node6</title>
<path fill="none" stroke="midnightblue" d="M183.76,-210.104C194.707,-208.822 205.756,-207.529 216.406,-206.282"/>
<polygon fill="midnightblue" stroke="midnightblue" points="183.276,-206.637 173.751,-211.276 184.09,-213.589 183.276,-206.637"/>
</g>
<!-- Node8 -->
<g id="node8" class="node"><title>Node8</title>
<g id="a_node8"><a xlink:href="../../d5/da5/classsimulation_objects_1_1_patch.html#a06f00537a57f3678cf147c580b92de0d" target="_top" xlink:title="simulationObjects.Patch.update\lCellConstraints">
<polygon fill="white" stroke="black" points="210,-116.315 210,-146.315 378,-146.315 378,-116.315 210,-116.315"/>
<text text-anchor="start" x="218" y="-134.315" font-family="Helvetica,sans-Serif" font-size="10.00">simulationObjects.Patch.update</text>
<text text-anchor="middle" x="294" y="-123.315" font-family="Helvetica,sans-Serif" font-size="10.00">CellConstraints</text>
</a>
</g>
</g>
<!-- Node1&#45;&gt;Node8 -->
<g id="edge7" class="edge"><title>Node1&#45;&gt;Node8</title>
<path fill="none" stroke="midnightblue" d="M131.575,-202.184C169.475,-185.546 223.649,-161.762 258.576,-146.428"/>
<polygon fill="midnightblue" stroke="midnightblue" points="130.062,-199.026 122.312,-206.251 132.876,-205.436 130.062,-199.026"/>
</g>
<!-- Node3 -->
<g id="node3" class="node"><title>Node3</title>
<g id="a_node3"><a xlink:href="../../d9/d93/classsimulation_objects_1_1_patch_body_rectangle.html#a9df877efcfbeb43bc4482635a2850ad5" target="_top" xlink:title="simulationObjects.PatchBody\lRectangle.PatchBodyRectangle">
<polygon fill="white" stroke="black" points="441.5,-280.315 441.5,-310.315 604.5,-310.315 604.5,-280.315 441.5,-280.315"/>
<text text-anchor="start" x="449.5" y="-298.315" font-family="Helvetica,sans-Serif" font-size="10.00">simulationObjects.PatchBody</text>
<text text-anchor="middle" x="523" y="-287.315" font-family="Helvetica,sans-Serif" font-size="10.00">Rectangle.PatchBodyRectangle</text>
</a>
</g>
</g>
<!-- Node2&#45;&gt;Node3 -->
<g id="edge2" class="edge"><title>Node2&#45;&gt;Node3</title>
<path fill="none" stroke="midnightblue" d="M381.638,-295.315C401.178,-295.315 421.846,-295.315 441.138,-295.315"/>
<polygon fill="midnightblue" stroke="midnightblue" points="381.535,-291.815 371.535,-295.315 381.535,-298.815 381.535,-291.815"/>
</g>
<!-- Node5 -->
<g id="node5" class="node"><title>Node5</title>
<g id="a_node5"><a xlink:href="../../dc/df0/classsimulation_objects_1_1_patch_body_triangle.html#a3a12b11e10051311aa061e65b0df98da" target="_top" xlink:title="simulationObjects.PatchBody\lTriangle.PatchBodyTriangle">
<polygon fill="white" stroke="black" points="445.5,-231.315 445.5,-261.315 600.5,-261.315 600.5,-231.315 445.5,-231.315"/>
<text text-anchor="start" x="453.5" y="-249.315" font-family="Helvetica,sans-Serif" font-size="10.00">simulationObjects.PatchBody</text>
<text text-anchor="middle" x="523" y="-238.315" font-family="Helvetica,sans-Serif" font-size="10.00">Triangle.PatchBodyTriangle</text>
</a>
</g>
</g>
<!-- Node4&#45;&gt;Node5 -->
<g id="edge4" class="edge"><title>Node4&#45;&gt;Node5</title>
<path fill="none" stroke="midnightblue" d="M381.712,-246.315C402.681,-246.315 424.945,-246.315 445.411,-246.315"/>
<polygon fill="midnightblue" stroke="midnightblue" points="381.535,-242.815 371.535,-246.315 381.535,-249.815 381.535,-242.815"/>
</g>
<!-- Node7 -->
<g id="node7" class="node"><title>Node7</title>
<g id="a_node7"><a xlink:href="../../d8/dfe/classsimulation_objects_1_1_patch_body_hexagon.html#aca47a8d7da67fe3ff2cde904deca8899" target="_top" xlink:title="simulationObjects.PatchBody\lHexagon.PatchBodyHexagon">
<polygon fill="white" stroke="black" points="445.5,-182.315 445.5,-212.315 600.5,-212.315 600.5,-182.315 445.5,-182.315"/>
<text text-anchor="start" x="453.5" y="-200.315" font-family="Helvetica,sans-Serif" font-size="10.00">simulationObjects.PatchBody</text>
<text text-anchor="middle" x="523" y="-189.315" font-family="Helvetica,sans-Serif" font-size="10.00">Hexagon.PatchBodyHexagon</text>
</a>
</g>
</g>
<!-- Node6&#45;&gt;Node7 -->
<g id="edge6" class="edge"><title>Node6&#45;&gt;Node7</title>
<path fill="none" stroke="midnightblue" d="M381.712,-197.315C402.681,-197.315 424.945,-197.315 445.411,-197.315"/>
<polygon fill="midnightblue" stroke="midnightblue" points="381.535,-193.815 371.535,-197.315 381.535,-200.815 381.535,-193.815"/>
</g>
<!-- Node9 -->
<g id="node9" class="node"><title>Node9</title>
<g id="a_node9"><a xlink:href="../../d5/da5/classsimulation_objects_1_1_patch.html#ac05b7dd86c9f30b498d93d62cbbba9a4" target="_top" xlink:title="simulationObjects.Patch.addCell">
<polygon fill="white" stroke="black" points="438,-143.815 438,-162.815 608,-162.815 608,-143.815 438,-143.815"/>
<text text-anchor="middle" x="523" y="-150.815" font-family="Helvetica,sans-Serif" font-size="10.00">simulationObjects.Patch.addCell</text>
</a>
</g>
</g>
<!-- Node8&#45;&gt;Node9 -->
<g id="edge8" class="edge"><title>Node8&#45;&gt;Node9</title>
<path fill="none" stroke="midnightblue" d="M388.32,-140.359C404.652,-141.942 421.56,-143.581 437.632,-145.138"/>
<polygon fill="midnightblue" stroke="midnightblue" points="388.528,-136.863 378.237,-139.382 387.853,-143.83 388.528,-136.863"/>
</g>
<!-- Node29 -->
<g id="node29" class="node"><title>Node29</title>
<g id="a_node29"><a xlink:href="../../d6/dae/classsimulation_objects_1_1_sugar_patch.html#ad0451478701e5c49026140110dfa290f" target="_top" xlink:title="simulationObjects.SugarPatch.createBody">
<polygon fill="white" stroke="black" points="414,-105.815 414,-124.815 632,-124.815 632,-105.815 414,-105.815"/>
<text text-anchor="middle" x="523" y="-112.815" font-family="Helvetica,sans-Serif" font-size="10.00">simulationObjects.SugarPatch.createBody</text>
</a>
</g>
</g>
<!-- Node8&#45;&gt;Node29 -->
<g id="edge31" class="edge"><title>Node8&#45;&gt;Node29</title>
<path fill="none" stroke="midnightblue" d="M388.434,-124.729C396.867,-124.135 405.452,-123.53 413.995,-122.928"/>
<polygon fill="midnightblue" stroke="midnightblue" points="387.967,-121.253 378.237,-125.448 388.459,-128.236 387.967,-121.253"/>
</g>
<!-- Node30 -->
<g id="node30" class="node"><title>Node30</title>
<g id="a_node30"><a xlink:href="../../d5/da5/classsimulation_objects_1_1_patch.html#a77ec59a5f39498ab6337a9535a6193e0" target="_top" xlink:title="simulationObjects.Patch.createBody">
<polygon fill="white" stroke="black" points="428.5,-23.8149 428.5,-42.8149 617.5,-42.8149 617.5,-23.8149 428.5,-23.8149"/>
<text text-anchor="middle" x="523" y="-30.8149" font-family="Helvetica,sans-Serif" font-size="10.00">simulationObjects.Patch.createBody</text>
</a>
</g>
</g>
<!-- Node8&#45;&gt;Node30 -->
<g id="edge32" class="edge"><title>Node8&#45;&gt;Node30</title>
<path fill="none" stroke="midnightblue" d="M339.231,-112.22C387.422,-91.4147 462.592,-58.9626 499.714,-42.9362"/>
<polygon fill="midnightblue" stroke="midnightblue" points="337.765,-109.04 329.971,-116.217 340.54,-115.467 337.765,-109.04"/>
</g>
<!-- Node10 -->
<g id="node10" class="node"><title>Node10</title>
<g id="a_node10"><a xlink:href="../../d5/da5/classsimulation_objects_1_1_patch.html#a801de23da5dcdf2e6914b939deefe67e" target="_top" xlink:title="simulationObjects.Patch.create\lNewCell">
<polygon fill="white" stroke="black" points="688.5,-319.315 688.5,-349.315 853.5,-349.315 853.5,-319.315 688.5,-319.315"/>
<text text-anchor="start" x="696.5" y="-337.315" font-family="Helvetica,sans-Serif" font-size="10.00">simulationObjects.Patch.create</text>
<text text-anchor="middle" x="771" y="-326.315" font-family="Helvetica,sans-Serif" font-size="10.00">NewCell</text>
</a>
</g>
</g>
<!-- Node9&#45;&gt;Node10 -->
<g id="edge9" class="edge"><title>Node9&#45;&gt;Node10</title>
<path fill="none" stroke="midnightblue" d="M617.329,-162.229C622.627,-164.963 627.584,-168.288 632,-172.315 676.933,-213.288 625.429,-260.893 668,-304.315 673.944,-310.378 681.046,-315.231 688.696,-319.112"/>
<polygon fill="midnightblue" stroke="midnightblue" points="618.686,-159.002 608.124,-158.164 615.858,-165.405 618.686,-159.002"/>
</g>
<!-- Node14 -->
<g id="node14" class="node"><title>Node14</title>
<g id="a_node14"><a xlink:href="../../db/d32/classcontroller_1_1_main_controller.html#aecc10abc6b55d8b0b4bd152be5c5d3f0" target="_top" xlink:title="controller.MainController.initialize\lSimulationObjects">
<polygon fill="white" stroke="black" points="1580.5,-275.315 1580.5,-305.315 1753.5,-305.315 1753.5,-275.315 1580.5,-275.315"/>
<text text-anchor="start" x="1588.5" y="-293.315" font-family="Helvetica,sans-Serif" font-size="10.00">controller.MainController.initialize</text>
<text text-anchor="middle" x="1667" y="-282.315" font-family="Helvetica,sans-Serif" font-size="10.00">SimulationObjects</text>
</a>
</g>
</g>
<!-- Node9&#45;&gt;Node14 -->
<g id="edge19" class="edge"><title>Node9&#45;&gt;Node14</title>
<path fill="none" stroke="midnightblue" d="M617.654,-163.027C622.781,-165.585 627.619,-168.651 632,-172.315 667.596,-202.081 630.759,-242.634 668,-270.315 727.854,-314.804 928.423,-290.315 1003,-290.315 1003,-290.315 1003,-290.315 1229,-290.315 1350.96,-290.315 1492.06,-290.315 1580.18,-290.315"/>
<polygon fill="midnightblue" stroke="midnightblue" points="618.72,-159.676 608.15,-158.952 615.961,-166.109 618.72,-159.676"/>
</g>
<!-- Node19 -->
<g id="node19" class="node"><title>Node19</title>
<g id="a_node19"><a xlink:href="../../db/dee/classsimulation_objects_1_1_predator_cell.html#a681bdcb9944d91e15325e477aad1b449" target="_top" xlink:title="simulationObjects.Predator\lCell.leaveEgg">
<polygon fill="white" stroke="black" points="698,-231.315 698,-261.315 844,-261.315 844,-231.315 698,-231.315"/>
<text text-anchor="start" x="706" y="-249.315" font-family="Helvetica,sans-Serif" font-size="10.00">simulationObjects.Predator</text>
<text text-anchor="middle" x="771" y="-238.315" font-family="Helvetica,sans-Serif" font-size="10.00">Cell.leaveEgg</text>
</a>
</g>
</g>
<!-- Node9&#45;&gt;Node19 -->
<g id="edge20" class="edge"><title>Node9&#45;&gt;Node19</title>
<path fill="none" stroke="midnightblue" d="M617.777,-165.053C622.736,-167.126 627.516,-169.53 632,-172.315 654.958,-186.57 645.526,-206.308 668,-221.315 677.022,-227.339 687.36,-231.914 697.915,-235.387"/>
<polygon fill="midnightblue" stroke="midnightblue" points="618.644,-161.642 608.051,-161.459 616.218,-168.208 618.644,-161.642"/>
</g>
<!-- Node22 -->
<g id="node22" class="node"><title>Node22</title>
<g id="a_node22"><a xlink:href="../../db/d71/classsimulation_objects_1_1_sugar_cell.html#a2bafc48f035b3134c87ad371e3e2364e" target="_top" xlink:title="simulationObjects.SugarCell.makeMove">
<polygon fill="white" stroke="black" points="668,-143.815 668,-162.815 874,-162.815 874,-143.815 668,-143.815"/>
<text text-anchor="middle" x="771" y="-150.815" font-family="Helvetica,sans-Serif" font-size="10.00">simulationObjects.SugarCell.makeMove</text>
</a>
</g>
</g>
<!-- Node9&#45;&gt;Node22 -->
<g id="edge23" class="edge"><title>Node9&#45;&gt;Node22</title>
<path fill="none" stroke="midnightblue" d="M618.325,-153.315C634.566,-153.315 651.513,-153.315 667.946,-153.315"/>
<polygon fill="midnightblue" stroke="midnightblue" points="618.315,-149.815 608.315,-153.315 618.315,-156.815 618.315,-149.815"/>
</g>
<!-- Node25 -->
<g id="node25" class="node"><title>Node25</title>
<g id="a_node25"><a xlink:href="../../db/dee/classsimulation_objects_1_1_predator_cell.html#a7d74aa75e5e49981396b561c6badf01c" target="_top" xlink:title="simulationObjects.Predator\lCell.makeMove">
<polygon fill="white" stroke="black" points="698,-182.315 698,-212.315 844,-212.315 844,-182.315 698,-182.315"/>
<text text-anchor="start" x="706" y="-200.315" font-family="Helvetica,sans-Serif" font-size="10.00">simulationObjects.Predator</text>
<text text-anchor="middle" x="771" y="-189.315" font-family="Helvetica,sans-Serif" font-size="10.00">Cell.makeMove</text>
</a>
</g>
</g>
<!-- Node9&#45;&gt;Node25 -->
<g id="edge26" class="edge"><title>Node9&#45;&gt;Node25</title>
<path fill="none" stroke="midnightblue" d="M588.636,-164.631C602.92,-167.147 617.975,-169.811 632,-172.315 653.333,-176.124 676.512,-180.306 697.675,-184.141"/>
<polygon fill="midnightblue" stroke="midnightblue" points="588.853,-161.115 578.398,-162.829 587.64,-168.01 588.853,-161.115"/>
</g>
<!-- Node26 -->
<g id="node26" class="node"><title>Node26</title>
<g id="a_node26"><a xlink:href="../../da/db6/classsimulation_objects_1_1_life_patch.html#a79181e099fd4d7c9e86b94f20f103395" target="_top" xlink:title="simulationObjects.LifePatch.toggle\lCellState">
<polygon fill="white" stroke="black" points="680.5,-94.3149 680.5,-124.315 861.5,-124.315 861.5,-94.3149 680.5,-94.3149"/>
<text text-anchor="start" x="688.5" y="-112.315" font-family="Helvetica,sans-Serif" font-size="10.00">simulationObjects.LifePatch.toggle</text>
<text text-anchor="middle" x="771" y="-101.315" font-family="Helvetica,sans-Serif" font-size="10.00">CellState</text>
</a>
</g>
</g>
<!-- Node9&#45;&gt;Node26 -->
<g id="edge28" class="edge"><title>Node9&#45;&gt;Node26</title>
<path fill="none" stroke="midnightblue" d="M588.636,-141.999C602.92,-139.483 617.975,-136.819 632,-134.315 649.977,-131.105 669.265,-127.631 687.553,-124.321"/>
<polygon fill="midnightblue" stroke="midnightblue" points="587.64,-138.62 578.398,-143.8 588.853,-145.514 587.64,-138.62"/>
</g>
<!-- Node27 -->
<g id="node27" class="node"><title>Node27</title>
<g id="a_node27"><a xlink:href="../../da/db6/classsimulation_objects_1_1_life_patch.html#a13f9f221b6ac960be22ba52095e60738" target="_top" xlink:title="simulationObjects.LifePatch.update">
<polygon fill="white" stroke="black" points="678.5,-55.8149 678.5,-74.8149 863.5,-74.8149 863.5,-55.8149 678.5,-55.8149"/>
<text text-anchor="middle" x="771" y="-62.8149" font-family="Helvetica,sans-Serif" font-size="10.00">simulationObjects.LifePatch.update</text>
</a>
</g>
</g>
<!-- Node9&#45;&gt;Node27 -->
<g id="edge29" class="edge"><title>Node9&#45;&gt;Node27</title>
<path fill="none" stroke="midnightblue" d="M617.809,-141.628C622.76,-139.542 627.529,-137.121 632,-134.315 655.194,-119.759 644.88,-98.987 668,-84.3149 674.084,-80.4543 680.756,-77.3363 687.686,-74.823"/>
<polygon fill="midnightblue" stroke="midnightblue" points="616.248,-138.475 608.096,-145.242 618.688,-145.036 616.248,-138.475"/>
</g>
<!-- Node28 -->
<g id="node28" class="node"><title>Node28</title>
<g id="a_node28"><a xlink:href="../../db/d5f/classsimulation_objects_1_1_seg_cell.html#a9d7bc36bf15d97456e59afed1a19e460" target="_top" xlink:title="simulationObjects.SegCell.update">
<polygon fill="white" stroke="black" points="682,-17.8149 682,-36.8149 860,-36.8149 860,-17.8149 682,-17.8149"/>
<text text-anchor="middle" x="771" y="-24.8149" font-family="Helvetica,sans-Serif" font-size="10.00">simulationObjects.SegCell.update</text>
</a>
</g>
</g>
<!-- Node9&#45;&gt;Node28 -->
<g id="edge30" class="edge"><title>Node9&#45;&gt;Node28</title>
<path fill="none" stroke="midnightblue" d="M617.662,-143.337C622.767,-140.841 627.599,-137.861 632,-134.315 664.903,-107.799 635.23,-72.995 668,-46.3149 672.61,-42.5619 677.726,-39.4607 683.141,-36.9057"/>
<polygon fill="midnightblue" stroke="midnightblue" points="616.064,-140.212 608.213,-147.326 618.787,-146.661 616.064,-140.212"/>
</g>
<!-- Node11 -->
<g id="node11" class="node"><title>Node11</title>
<g id="a_node11"><a xlink:href="../../d5/da5/classsimulation_objects_1_1_patch.html#a982ffbab2f32d5955c2c59b5a89fc4a1" target="_top" xlink:title="simulationObjects.Patch.toggle\lCellState">
<polygon fill="white" stroke="black" points="922,-319.315 922,-349.315 1086,-349.315 1086,-319.315 922,-319.315"/>
<text text-anchor="start" x="930" y="-337.315" font-family="Helvetica,sans-Serif" font-size="10.00">simulationObjects.Patch.toggle</text>
<text text-anchor="middle" x="1004" y="-326.315" font-family="Helvetica,sans-Serif" font-size="10.00">CellState</text>
</a>
</g>
</g>
<!-- Node10&#45;&gt;Node11 -->
<g id="edge10" class="edge"><title>Node10&#45;&gt;Node11</title>
<path fill="none" stroke="midnightblue" d="M863.963,-334.315C883.06,-334.315 903.052,-334.315 921.732,-334.315"/>
<polygon fill="midnightblue" stroke="midnightblue" points="863.767,-330.815 853.767,-334.315 863.767,-337.815 863.767,-330.815"/>
</g>
<!-- Node12 -->
<g id="node12" class="node"><title>Node12</title>
<g id="a_node12"><a xlink:href="../../db/d32/classcontroller_1_1_main_controller.html#a20c66a59cfde2b9f8ac2b8bf67e3996d" target="_top" xlink:title="controller.MainController.toggle\lCellStateForMouseEvent">
<polygon fill="white" stroke="black" points="1145.5,-319.315 1145.5,-349.315 1310.5,-349.315 1310.5,-319.315 1145.5,-319.315"/>
<text text-anchor="start" x="1153.5" y="-337.315" font-family="Helvetica,sans-Serif" font-size="10.00">controller.MainController.toggle</text>
<text text-anchor="middle" x="1228" y="-326.315" font-family="Helvetica,sans-Serif" font-size="10.00">CellStateForMouseEvent</text>
</a>
</g>
</g>
<!-- Node11&#45;&gt;Node12 -->
<g id="edge11" class="edge"><title>Node11&#45;&gt;Node12</title>
<path fill="none" stroke="midnightblue" d="M1096.16,-334.315C1112.47,-334.315 1129.37,-334.315 1145.39,-334.315"/>
<polygon fill="midnightblue" stroke="midnightblue" points="1096.09,-330.815 1086.09,-334.315 1096.09,-337.815 1096.09,-330.815"/>
</g>
<!-- Node13 -->
<g id="node13" class="node"><title>Node13</title>
<g id="a_node13"><a xlink:href="../../db/d32/classcontroller_1_1_main_controller.html#ad28f21e1510291d95a69a9f488a20d89" target="_top" xlink:title="controller.MainController.createGrid">
<polygon fill="white" stroke="black" points="1358.5,-321.815 1358.5,-340.815 1543.5,-340.815 1543.5,-321.815 1358.5,-321.815"/>
<text text-anchor="middle" x="1451" y="-328.815" font-family="Helvetica,sans-Serif" font-size="10.00">controller.MainController.createGrid</text>
</a>
</g>
</g>
<!-- Node12&#45;&gt;Node13 -->
<g id="edge12" class="edge"><title>Node12&#45;&gt;Node13</title>
<path fill="none" stroke="midnightblue" d="M1320.93,-333.067C1333.27,-332.9 1345.91,-332.728 1358.24,-332.56"/>
<polygon fill="midnightblue" stroke="midnightblue" points="1320.62,-329.571 1310.66,-333.206 1320.71,-336.57 1320.62,-329.571"/>
</g>
<!-- Node13&#45;&gt;Node14 -->
<g id="edge13" class="edge"><title>Node13&#45;&gt;Node14</title>
<path fill="none" stroke="midnightblue" d="M1511.76,-319.866C1535.16,-315.382 1562.34,-310.175 1587.3,-305.393"/>
<polygon fill="midnightblue" stroke="midnightblue" points="1510.8,-316.486 1501.63,-321.806 1512.11,-323.361 1510.8,-316.486"/>
</g>
<!-- Node15 -->
<g id="node15" class="node"><title>Node15</title>
<g id="a_node15"><a xlink:href="../../db/d32/classcontroller_1_1_main_controller.html#a7cfedb8e16c6b9d6394054d03193da82" target="_top" xlink:title="controller.MainController.initialize\lSimulationWithData">
<polygon fill="white" stroke="black" points="1790.5,-275.315 1790.5,-305.315 1963.5,-305.315 1963.5,-275.315 1790.5,-275.315"/>
<text text-anchor="start" x="1798.5" y="-293.315" font-family="Helvetica,sans-Serif" font-size="10.00">controller.MainController.initialize</text>
<text text-anchor="middle" x="1877" y="-282.315" font-family="Helvetica,sans-Serif" font-size="10.00">SimulationWithData</text>
</a>
</g>
</g>
<!-- Node14&#45;&gt;Node15 -->
<g id="edge14" class="edge"><title>Node14&#45;&gt;Node15</title>
<path fill="none" stroke="midnightblue" d="M1763.59,-290.315C1772.56,-290.315 1781.62,-290.315 1790.49,-290.315"/>
<polygon fill="midnightblue" stroke="midnightblue" points="1763.5,-286.815 1753.5,-290.315 1763.5,-293.815 1763.5,-286.815"/>
</g>
<!-- Node16 -->
<g id="node16" class="node"><title>Node16</title>
<g id="a_node16"><a xlink:href="../../db/ddb/classcontroller_1_1_user_interface.html#a9cf1e21253003993661082c9d42926b2" target="_top" xlink:title="controller.UserInterface.make\lBottomPanel">
<polygon fill="white" stroke="black" points="2000,-253.315 2000,-283.315 2158,-283.315 2158,-253.315 2000,-253.315"/>
<text text-anchor="start" x="2008" y="-271.315" font-family="Helvetica,sans-Serif" font-size="10.00">controller.UserInterface.make</text>
<text text-anchor="middle" x="2079" y="-260.315" font-family="Helvetica,sans-Serif" font-size="10.00">BottomPanel</text>
</a>
</g>
</g>
<!-- Node15&#45;&gt;Node16 -->
<g id="edge15" class="edge"><title>Node15&#45;&gt;Node16</title>
<path fill="none" stroke="midnightblue" d="M1973.85,-279.772C1982.53,-278.816 1991.26,-277.857 1999.76,-276.921"/>
<polygon fill="midnightblue" stroke="midnightblue" points="1973.25,-276.317 1963.69,-280.889 1974.01,-283.275 1973.25,-276.317"/>
</g>
<!-- Node17 -->
<g id="node17" class="node"><title>Node17</title>
<g id="a_node17"><a xlink:href="../../db/ddb/classcontroller_1_1_user_interface.html#aad62b84bbc23f683c844ace519feb9d2" target="_top" xlink:title="controller.UserInterface.reset">
<polygon fill="white" stroke="black" points="2194,-302.815 2194,-321.815 2350,-321.815 2350,-302.815 2194,-302.815"/>
<text text-anchor="middle" x="2272" y="-309.815" font-family="Helvetica,sans-Serif" font-size="10.00">controller.UserInterface.reset</text>
</a>
</g>
</g>
<!-- Node16&#45;&gt;Node17 -->
<g id="edge16" class="edge"><title>Node16&#45;&gt;Node17</title>
<path fill="none" stroke="midnightblue" d="M2155.18,-285.634C2180.56,-291.48 2207.94,-297.788 2229.71,-302.802"/>
<polygon fill="midnightblue" stroke="midnightblue" points="2155.73,-282.168 2145.2,-283.334 2154.16,-288.99 2155.73,-282.168"/>
</g>
<!-- Node18 -->
<g id="node18" class="node"><title>Node18</title>
<g id="a_node18"><a xlink:href="../../db/ddb/classcontroller_1_1_user_interface.html#a6dd740b89d748c372a5ef9959e1bd7c4" target="_top" xlink:title="controller.UserInterface.\lUserInterface">
<polygon fill="white" stroke="black" points="2206.5,-253.315 2206.5,-283.315 2337.5,-283.315 2337.5,-253.315 2206.5,-253.315"/>
<text text-anchor="start" x="2214.5" y="-271.315" font-family="Helvetica,sans-Serif" font-size="10.00">controller.UserInterface.</text>
<text text-anchor="middle" x="2272" y="-260.315" font-family="Helvetica,sans-Serif" font-size="10.00">UserInterface</text>
</a>
</g>
</g>
<!-- Node16&#45;&gt;Node18 -->
<g id="edge18" class="edge"><title>Node16&#45;&gt;Node18</title>
<path fill="none" stroke="midnightblue" d="M2168.41,-268.315C2181.17,-268.315 2194.1,-268.315 2206.27,-268.315"/>
<polygon fill="midnightblue" stroke="midnightblue" points="2168.24,-264.815 2158.24,-268.315 2168.24,-271.815 2168.24,-264.815"/>
</g>
<!-- Node17&#45;&gt;Node15 -->
<g id="edge17" class="edge"><title>Node17&#45;&gt;Node15</title>
<path fill="none" stroke="midnightblue" d="M2183.44,-307.414C2117.94,-303.747 2028.83,-298.758 1963.76,-295.116"/>
<polygon fill="midnightblue" stroke="midnightblue" points="2183.57,-310.926 2193.75,-307.99 2183.96,-303.937 2183.57,-310.926"/>
</g>
<!-- Node20 -->
<g id="node20" class="node"><title>Node20</title>
<g id="a_node20"><a xlink:href="../../db/dee/classsimulation_objects_1_1_predator_cell.html#a0f04c13ccdd5e4845f2e5975ec63952f" target="_top" xlink:title="simulationObjects.Predator\lCell.updateStatesandMakeMoves">
<polygon fill="white" stroke="black" points="916,-209.315 916,-239.315 1092,-239.315 1092,-209.315 916,-209.315"/>
<text text-anchor="start" x="924" y="-227.315" font-family="Helvetica,sans-Serif" font-size="10.00">simulationObjects.Predator</text>
<text text-anchor="middle" x="1004" y="-216.315" font-family="Helvetica,sans-Serif" font-size="10.00">Cell.updateStatesandMakeMoves</text>
</a>
</g>
</g>
<!-- Node19&#45;&gt;Node20 -->
<g id="edge21" class="edge"><title>Node19&#45;&gt;Node20</title>
<path fill="none" stroke="midnightblue" d="M854.105,-238.495C874.037,-236.597 895.42,-234.561 915.587,-232.64"/>
<polygon fill="midnightblue" stroke="midnightblue" points="853.763,-235.012 844.14,-239.444 854.426,-241.981 853.763,-235.012"/>
</g>
<!-- Node21 -->
<g id="node21" class="node"><title>Node21</title>
<g id="a_node21"><a xlink:href="../../db/dee/classsimulation_objects_1_1_predator_cell.html#a954732c3db3474e874b5023303baa2ed" target="_top" xlink:title="simulationObjects.Predator\lCell.update">
<polygon fill="white" stroke="black" points="1155,-209.315 1155,-239.315 1301,-239.315 1301,-209.315 1155,-209.315"/>
<text text-anchor="start" x="1163" y="-227.315" font-family="Helvetica,sans-Serif" font-size="10.00">simulationObjects.Predator</text>
<text text-anchor="middle" x="1228" y="-216.315" font-family="Helvetica,sans-Serif" font-size="10.00">Cell.update</text>
</a>
</g>
</g>
<!-- Node20&#45;&gt;Node21 -->
<g id="edge22" class="edge"><title>Node20&#45;&gt;Node21</title>
<path fill="none" stroke="midnightblue" d="M1102.41,-224.315C1120.02,-224.315 1138.1,-224.315 1154.84,-224.315"/>
<polygon fill="midnightblue" stroke="midnightblue" points="1102.1,-220.815 1092.1,-224.315 1102.1,-227.815 1102.1,-220.815"/>
</g>
<!-- Node23 -->
<g id="node23" class="node"><title>Node23</title>
<g id="a_node23"><a xlink:href="../../db/d71/classsimulation_objects_1_1_sugar_cell.html#afca541b3cc884269b4f778da83fb149d" target="_top" xlink:title="simulationObjects.SugarCell.update\lStatesandMakeMoves">
<polygon fill="white" stroke="black" points="910,-138.315 910,-168.315 1098,-168.315 1098,-138.315 910,-138.315"/>
<text text-anchor="start" x="918" y="-156.315" font-family="Helvetica,sans-Serif" font-size="10.00">simulationObjects.SugarCell.update</text>
<text text-anchor="middle" x="1004" y="-145.315" font-family="Helvetica,sans-Serif" font-size="10.00">StatesandMakeMoves</text>
</a>
</g>
</g>
<!-- Node22&#45;&gt;Node23 -->
<g id="edge24" class="edge"><title>Node22&#45;&gt;Node23</title>
<path fill="none" stroke="midnightblue" d="M884.341,-153.315C892.888,-153.315 901.458,-153.315 909.864,-153.315"/>
<polygon fill="midnightblue" stroke="midnightblue" points="884.329,-149.815 874.329,-153.315 884.329,-156.815 884.329,-149.815"/>
</g>
<!-- Node24 -->
<g id="node24" class="node"><title>Node24</title>
<g id="a_node24"><a xlink:href="../../db/d71/classsimulation_objects_1_1_sugar_cell.html#a4f3c5edbe0c43ea62d21a9658fbc11c7" target="_top" xlink:title="simulationObjects.SugarCell.update">
<polygon fill="white" stroke="black" points="1134,-143.815 1134,-162.815 1322,-162.815 1322,-143.815 1134,-143.815"/>
<text text-anchor="middle" x="1228" y="-150.815" font-family="Helvetica,sans-Serif" font-size="10.00">simulationObjects.SugarCell.update</text>
</a>
</g>
</g>
<!-- Node23&#45;&gt;Node24 -->
<g id="edge25" class="edge"><title>Node23&#45;&gt;Node24</title>
<path fill="none" stroke="midnightblue" d="M1108.43,-153.315C1116.86,-153.315 1125.35,-153.315 1133.7,-153.315"/>
<polygon fill="midnightblue" stroke="midnightblue" points="1108.18,-149.815 1098.18,-153.315 1108.18,-156.815 1108.18,-149.815"/>
</g>
<!-- Node25&#45;&gt;Node20 -->
<g id="edge27" class="edge"><title>Node25&#45;&gt;Node20</title>
<path fill="none" stroke="midnightblue" d="M854.105,-206.912C874.037,-209.241 895.42,-211.741 915.587,-214.098"/>
<polygon fill="midnightblue" stroke="midnightblue" points="854.478,-203.431 844.14,-205.747 853.666,-210.384 854.478,-203.431"/>
</g>
<!-- Node31 -->
<g id="node31" class="node"><title>Node31</title>
<g id="a_node31"><a xlink:href="../../d7/d97/classcontroller_1_1_grid.html#a52256ef1252a18eab8baeb2edef836d8" target="_top" xlink:title="controller.Grid.addPatch\lToGrid">
<polygon fill="white" stroke="black" points="938.5,-32.3149 938.5,-62.3149 1069.5,-62.3149 1069.5,-32.3149 938.5,-32.3149"/>
<text text-anchor="start" x="946.5" y="-50.3149" font-family="Helvetica,sans-Serif" font-size="10.00">controller.Grid.addPatch</text>
<text text-anchor="middle" x="1004" y="-39.3149" font-family="Helvetica,sans-Serif" font-size="10.00">ToGrid</text>
</a>
</g>
</g>
<!-- Node30&#45;&gt;Node31 -->
<g id="edge33" class="edge"><title>Node30&#45;&gt;Node31</title>
<path fill="none" stroke="midnightblue" d="M577.254,-21.819C604.291,-16.5576 637.738,-10.9223 668,-8.31491 759.218,-0.455495 783.429,5.07673 874,-8.31491 905.015,-12.9007 938.905,-23.3712 964.163,-32.3094"/>
<polygon fill="midnightblue" stroke="midnightblue" points="576.353,-18.4295 567.226,-23.8101 577.717,-25.2955 576.353,-18.4295"/>
</g>
<!-- Node32 -->
<g id="node32" class="node"><title>Node32</title>
<g id="a_node32"><a xlink:href="../../d7/d97/classcontroller_1_1_grid.html#a85b3833ab13642ba27fd7b65ee6a6daa" target="_top" xlink:title="controller.Grid.addPatch\lAtPoint">
<polygon fill="white" stroke="black" points="1385.5,-163.315 1385.5,-193.315 1516.5,-193.315 1516.5,-163.315 1385.5,-163.315"/>
<text text-anchor="start" x="1393.5" y="-181.315" font-family="Helvetica,sans-Serif" font-size="10.00">controller.Grid.addPatch</text>
<text text-anchor="middle" x="1451" y="-170.315" font-family="Helvetica,sans-Serif" font-size="10.00">AtPoint</text>
</a>
</g>
</g>
<!-- Node31&#45;&gt;Node32 -->
<g id="edge34" class="edge"><title>Node31&#45;&gt;Node32</title>
<path fill="none" stroke="midnightblue" d="M1074.08,-64.9284C1138.55,-81.6814 1237.24,-108.145 1322,-134.315 1351.08,-143.292 1383.49,-154.447 1408.42,-163.278"/>
<polygon fill="midnightblue" stroke="midnightblue" points="1074.6,-61.4459 1064.04,-62.3245 1072.84,-68.222 1074.6,-61.4459"/>
</g>
<!-- Node32&#45;&gt;Node14 -->
<g id="edge35" class="edge"><title>Node32&#45;&gt;Node14</title>
<path fill="none" stroke="midnightblue" d="M1489.98,-198.19C1532.13,-220.255 1599.24,-255.373 1637.26,-275.271"/>
<polygon fill="midnightblue" stroke="midnightblue" points="1491.34,-194.956 1480.86,-193.42 1488.1,-201.158 1491.34,-194.956"/>
</g>
</g>
</svg>
