<?xml version="1.0" encoding="UTF-8" standalone="no"?>
<!DOCTYPE svg PUBLIC "-//W3C//DTD SVG 1.1//EN"
 "http://www.w3.org/Graphics/SVG/1.1/DTD/svg11.dtd">
<!-- Generated by graphviz version 2.36.0 (20140111.2315)
 -->
<!-- Title: simulationObjects.AntCell.selectLocation Pages: 1 -->
<svg width="394pt" height="87pt"
 viewBox="0.00 0.00 394.00 87.00" xmlns="http://www.w3.org/2000/svg" xmlns:xlink="http://www.w3.org/1999/xlink">
<g id="graph0" class="graph" transform="scale(1 1) rotate(0) translate(4 83)">
<title>simulationObjects.AntCell.selectLocation</title>
<polygon fill="white" stroke="none" points="-4,4 -4,-83 390,-83 390,4 -4,4"/>
<!-- Node1 -->
<g id="node1" class="node"><title>Node1</title>
<polygon fill="#bfbfbf" stroke="black" points="0,-24 0,-54 170,-54 170,-24 0,-24"/>
<text text-anchor="start" x="8" y="-42" font-family="Helvetica,sans-Serif" font-size="10.00">simulationObjects.AntCell.select</text>
<text text-anchor="middle" x="85" y="-31" font-family="Helvetica,sans-Serif" font-size="10.00">Location</text>
</g>
<!-- Node2 -->
<g id="node2" class="node"><title>Node2</title>
<g id="a_node2"><a xlink:href="../../d0/d1a/classsimulation_objects_1_1_ant_cell.html#aa1e29c1b347352891db2deaafb92c6ea" target="_top" xlink:title="simulationObjects.AntCell.process\lFullNeighbors">
<polygon fill="white" stroke="black" points="206.5,-49 206.5,-79 385.5,-79 385.5,-49 206.5,-49"/>
<text text-anchor="start" x="214.5" y="-67" font-family="Helvetica,sans-Serif" font-size="10.00">simulationObjects.AntCell.process</text>
<text text-anchor="middle" x="296" y="-56" font-family="Helvetica,sans-Serif" font-size="10.00">FullNeighbors</text>
</a>
</g>
</g>
<!-- Node1&#45;&gt;Node2 -->
<g id="edge1" class="edge"><title>Node1&#45;&gt;Node2</title>
<path fill="none" stroke="midnightblue" d="M170.105,-49.0604C178.665,-50.0844 187.416,-51.131 196.114,-52.1715"/>
<polygon fill="midnightblue" stroke="midnightblue" points="195.942,-55.6758 206.286,-53.3883 196.773,-48.7253 195.942,-55.6758"/>
</g>
<!-- Node3 -->
<g id="node3" class="node"><title>Node3</title>
<g id="a_node3"><a xlink:href="../../d0/d1a/classsimulation_objects_1_1_ant_cell.html#a80961da26960feed000c403869270a57" target="_top" xlink:title="simulationObjects.AntCell.process\lNeighbors">
<polygon fill="white" stroke="black" points="206.5,-0 206.5,-30 385.5,-30 385.5,-0 206.5,-0"/>
<text text-anchor="start" x="214.5" y="-18" font-family="Helvetica,sans-Serif" font-size="10.00">simulationObjects.AntCell.process</text>
<text text-anchor="middle" x="296" y="-7" font-family="Helvetica,sans-Serif" font-size="10.00">Neighbors</text>
</a>
</g>
</g>
<!-- Node1&#45;&gt;Node3 -->
<g id="edge2" class="edge"><title>Node1&#45;&gt;Node3</title>
<path fill="none" stroke="midnightblue" d="M170.105,-29.342C178.665,-28.359 187.416,-27.3542 196.114,-26.3554"/>
<polygon fill="midnightblue" stroke="midnightblue" points="196.751,-29.8053 206.286,-25.1872 195.952,-22.851 196.751,-29.8053"/>
</g>
</g>
</svg>
