<?xml version="1.0" encoding="UTF-8" standalone="no"?>
<!DOCTYPE svg PUBLIC "-//W3C//DTD SVG 1.1//EN"
 "http://www.w3.org/Graphics/SVG/1.1/DTD/svg11.dtd">
<!-- Generated by graphviz version 2.36.0 (20140111.2315)
 -->
<!-- Title: simulationObjects.PredatorCell Pages: 1 -->
<!--zoomable 549 -->
<svg id="main" version="1.1" xmlns="http://www.w3.org/2000/svg" xmlns:xlink="http://www.w3.org/1999/xlink" xml:space="preserve" onload="init(evt)">
<style type="text/css"><![CDATA[
.edge:hover path { stroke: red; }
.edge:hover polygon { stroke: red; fill: red; }
]]></style>
<script type="text/javascript"><![CDATA[
var edges = document.getElementsByTagName('g');
if (edges && edges.length) {
  for (var i=0;i<edges.length;i++) {
    if (edges[i].id.substr(0,4)=='edge') {
      edges[i].setAttribute('class','edge');
    }
  }
}
]]></script>
        <defs>
                <circle id="rim" cx="0" cy="0" r="7"/>
                <circle id="rim2" cx="0" cy="0" r="3.5"/>
                <g id="zoomPlus">
                        <use xlink:href="#rim" fill="#404040">
                                <set attributeName="fill" to="#808080" begin="zoomplus.mouseover" end="zoomplus.mouseout"/>
                        </use>
                        <path d="M-4,0h8M0,-4v8" fill="none" stroke="white" stroke-width="1.5" pointer-events="none"/>
                </g>
                <g id="zoomMin">
                        <use xlink:href="#rim" fill="#404040">
                                <set attributeName="fill" to="#808080" begin="zoomminus.mouseover" end="zoomminus.mouseout"/>
                        </use>
                        <path d="M-4,0h8" fill="none" stroke="white" stroke-width="1.5" pointer-events="none"/>
                </g>
                <g id="dirArrow">
                        <path fill="none" stroke="white" stroke-width="1.5" d="M0,-3.0v7 M-2.5,-0.5L0,-3.0L2.5,-0.5"/>
                </g>
               <g id="resetDef">
                       <use xlink:href="#rim2" fill="#404040">
                               <set attributeName="fill" to="#808080" begin="reset.mouseover" end="reset.mouseout"/>
                       </use>
               </g>
        </defs>

<script type="text/javascript">
var viewWidth = 1284;
var viewHeight = 549;
var sectionId = 'dynsection-1';
</script>
<script xlink:href="../../svgpan.js"/>
<svg id="graph" class="graph">
<g id="viewport">
<title>simulationObjects.PredatorCell</title>
<polygon fill="white" stroke="none" points="-4,4 -4,-545 1280,-545 1280,4 -4,4"/>
<!-- Node1 -->
<g id="node1" class="node"><title>Node1</title>
<polygon fill="#bfbfbf" stroke="black" points="702,-453.5 702,-472.5 866,-472.5 866,-453.5 702,-453.5"/>
<text text-anchor="middle" x="784" y="-460.5" font-family="Helvetica,sans-Serif" font-size="10.00">simulationObjects.PredatorCell</text>
</g>
<!-- Node2 -->
<g id="node2" class="node"><title>Node2</title>
<g id="a_node2"><a xlink:href="../../d2/d6e/classsimulation_objects_1_1_cell.html" target="_top" xlink:title="simulationObjects.Cell">
<polygon fill="white" stroke="black" points="459,-359.5 459,-378.5 581,-378.5 581,-359.5 459,-359.5"/>
<text text-anchor="middle" x="520" y="-366.5" font-family="Helvetica,sans-Serif" font-size="10.00">simulationObjects.Cell</text>
</a>
</g>
</g>
<!-- Node2&#45;&gt;Node1 -->
<g id="edge1" class="edge"><title>Node2&#45;&gt;Node1</title>
<path fill="none" stroke="midnightblue" d="M546.908,-383.449C565.684,-393.513 591.902,-406.739 616,-416 657.47,-431.936 706.592,-445.111 740.781,-453.416"/>
<polygon fill="midnightblue" stroke="midnightblue" points="548.533,-380.349 538.075,-378.653 545.193,-386.5 548.533,-380.349"/>
</g>
<!-- Node4 -->
<g id="node4" class="node"><title>Node4</title>
<g id="a_node4"><a xlink:href="../../d5/da5/classsimulation_objects_1_1_patch.html" target="_top" xlink:title="simulationObjects.Patch">
<polygon fill="white" stroke="black" points="718.5,-259.5 718.5,-278.5 849.5,-278.5 849.5,-259.5 718.5,-259.5"/>
<text text-anchor="middle" x="784" y="-266.5" font-family="Helvetica,sans-Serif" font-size="10.00">simulationObjects.Patch</text>
</a>
</g>
</g>
<!-- Node2&#45;&gt;Node4 -->
<g id="edge9" class="edge"><title>Node2&#45;&gt;Node4</title>
<path fill="none" stroke="#9a32cd" stroke-dasharray="5,2" d="M591.358,-368.251C620.926,-365.848 655.095,-360.249 684,-348 722.67,-331.613 758.746,-295.703 774.573,-278.523"/>
<polygon fill="#9a32cd" stroke="#9a32cd" points="590.837,-364.779 581.108,-368.973 591.329,-371.761 590.837,-364.779"/>
<text text-anchor="middle" x="650" y="-369" font-family="Helvetica,sans-Serif" font-size="10.00"> myCell</text>
</g>
<!-- Node3 -->
<g id="node3" class="node"><title>Node3</title>
<polygon fill="white" stroke="#bfbfbf" points="271.5,-323.5 271.5,-342.5 334.5,-342.5 334.5,-323.5 271.5,-323.5"/>
<text text-anchor="middle" x="303" y="-330.5" font-family="Helvetica,sans-Serif" font-size="10.00">Rectangle</text>
</g>
<!-- Node3&#45;&gt;Node2 -->
<g id="edge2" class="edge"><title>Node3&#45;&gt;Node2</title>
<path fill="none" stroke="midnightblue" d="M345.047,-339.873C378.191,-345.423 425.203,-353.294 461.999,-359.456"/>
<polygon fill="midnightblue" stroke="midnightblue" points="345.245,-336.357 334.804,-338.158 344.089,-343.261 345.245,-336.357"/>
</g>
<!-- Node4&#45;&gt;Node2 -->
<g id="edge3" class="edge"><title>Node4&#45;&gt;Node2</title>
<path fill="none" stroke="#9a32cd" stroke-dasharray="5,2" d="M754.254,-282.999C734.671,-292.304 708.036,-304.51 684,-314 682.372,-314.643 595.689,-343.848 549.416,-359.432"/>
<polygon fill="#9a32cd" stroke="#9a32cd" points="756.021,-286.034 763.529,-278.558 752.998,-279.72 756.021,-286.034"/>
<text text-anchor="middle" x="650" y="-340" font-family="Helvetica,sans-Serif" font-size="10.00"> myPatch</text>
</g>
<!-- Node10 -->
<g id="node10" class="node"><title>Node10</title>
<g id="a_node10"><a xlink:href="../../d7/d97/classcontroller_1_1_grid.html" target="_top" xlink:title="controller.Grid">
<polygon fill="white" stroke="black" points="956.5,-223.5 956.5,-242.5 1039.5,-242.5 1039.5,-223.5 956.5,-223.5"/>
<text text-anchor="middle" x="998" y="-230.5" font-family="Helvetica,sans-Serif" font-size="10.00">controller.Grid</text>
</a>
</g>
</g>
<!-- Node4&#45;&gt;Node10 -->
<g id="edge13" class="edge"><title>Node4&#45;&gt;Node10</title>
<path fill="none" stroke="#9a32cd" stroke-dasharray="5,2" d="M839.1,-257.474C853.648,-254.538 869.397,-251.507 884,-249 907.922,-244.894 934.824,-241.054 956.377,-238.165"/>
<polygon fill="#9a32cd" stroke="#9a32cd" points="838.348,-254.055 829.25,-259.483 839.748,-260.914 838.348,-254.055"/>
<text text-anchor="middle" x="911" y="-252" font-family="Helvetica,sans-Serif" font-size="10.00"> gridArray</text>
</g>
<!-- Node5 -->
<g id="node5" class="node"><title>Node5</title>
<polygon fill="white" stroke="#bfbfbf" points="497,-135.5 497,-154.5 543,-154.5 543,-135.5 497,-135.5"/>
<text text-anchor="middle" x="520" y="-142.5" font-family="Helvetica,sans-Serif" font-size="10.00">Group</text>
</g>
<!-- Node5&#45;&gt;Node4 -->
<g id="edge4" class="edge"><title>Node5&#45;&gt;Node4</title>
<path fill="none" stroke="midnightblue" d="M553.112,-152.213C566.997,-155.515 583.38,-159.657 598,-164 636.805,-175.528 654.402,-166.384 684,-194 698.849,-207.855 687.511,-221.77 702,-236 713.159,-246.959 728.45,-254.442 742.743,-259.471"/>
<polygon fill="midnightblue" stroke="midnightblue" points="553.587,-148.73 543.053,-149.863 551.994,-155.546 553.587,-148.73"/>
</g>
<!-- Node6 -->
<g id="node6" class="node"><title>Node6</title>
<g id="a_node6"><a xlink:href="../../de/d7a/classcontroller_1_1_grid_info.html" target="_top" xlink:title="controller.GridInfo">
<polygon fill="white" stroke="black" points="252.5,-269.5 252.5,-288.5 353.5,-288.5 353.5,-269.5 252.5,-269.5"/>
<text text-anchor="middle" x="303" y="-276.5" font-family="Helvetica,sans-Serif" font-size="10.00">controller.GridInfo</text>
</a>
</g>
</g>
<!-- Node6&#45;&gt;Node2 -->
<g id="edge26" class="edge"><title>Node6&#45;&gt;Node2</title>
<path fill="none" stroke="#9a32cd" stroke-dasharray="5,2" d="M336.232,-292.59C364.19,-304.367 405.75,-321.85 442,-337 460.032,-344.536 480.459,-353.023 495.74,-359.362"/>
<polygon fill="#9a32cd" stroke="#9a32cd" points="337.515,-289.332 326.941,-288.675 334.797,-295.783 337.515,-289.332"/>
<text text-anchor="middle" x="398" y="-333" font-family="Helvetica,sans-Serif" font-size="10.00"> infoSheet</text>
</g>
<!-- Node6&#45;&gt;Node4 -->
<g id="edge5" class="edge"><title>Node6&#45;&gt;Node4</title>
<path fill="none" stroke="#9a32cd" stroke-dasharray="5,2" d="M364.005,-277.747C454.524,-275.858 625.293,-272.292 718.429,-270.348"/>
<polygon fill="#9a32cd" stroke="#9a32cd" points="363.831,-274.25 353.906,-277.958 363.977,-281.249 363.831,-274.25"/>
<text text-anchor="middle" x="520" y="-280" font-family="Helvetica,sans-Serif" font-size="10.00"> infoSheet</text>
</g>
<!-- Node6&#45;&gt;Node10 -->
<g id="edge12" class="edge"><title>Node6&#45;&gt;Node10</title>
<path fill="none" stroke="#9a32cd" stroke-dasharray="5,2" d="M313.783,-260.35C332.977,-226.049 379.231,-153.914 442,-126 516.871,-92.704 853.652,-156.4 866,-160 913.241,-173.773 962.13,-206.999 984.485,-223.447"/>
<polygon fill="#9a32cd" stroke="#9a32cd" points="310.606,-258.866 308.9,-269.322 316.754,-262.212 310.606,-258.866"/>
<text text-anchor="middle" x="650" y="-133" font-family="Helvetica,sans-Serif" font-size="10.00"> infoSheet</text>
</g>
<!-- Node18 -->
<g id="node18" class="node"><title>Node18</title>
<g id="a_node18"><a xlink:href="../../d0/d1a/classsimulation_objects_1_1_patch_body.html" target="_top" xlink:title="simulationObjects.PatchBody">
<polygon fill="white" stroke="black" points="442.5,-44.5 442.5,-63.5 597.5,-63.5 597.5,-44.5 442.5,-44.5"/>
<text text-anchor="middle" x="520" y="-51.5" font-family="Helvetica,sans-Serif" font-size="10.00">simulationObjects.PatchBody</text>
</a>
</g>
</g>
<!-- Node6&#45;&gt;Node18 -->
<g id="edge23" class="edge"><title>Node6&#45;&gt;Node18</title>
<path fill="none" stroke="#9a32cd" stroke-dasharray="5,2" d="M304.614,-259.318C306.99,-219.326 318.346,-128.428 372,-82 383.002,-72.4801 412.513,-65.9308 442.233,-61.5749"/>
<polygon fill="#9a32cd" stroke="#9a32cd" points="301.115,-259.225 304.147,-269.376 308.107,-259.549 301.115,-259.225"/>
<text text-anchor="middle" x="398" y="-85" font-family="Helvetica,sans-Serif" font-size="10.00"> infoSheet</text>
</g>
<!-- Node7 -->
<g id="node7" class="node"><title>Node7</title>
<polygon fill="white" stroke="#bfbfbf" points="0.5,-302.5 0.5,-321.5 143.5,-321.5 143.5,-302.5 0.5,-302.5"/>
<text text-anchor="middle" x="72" y="-309.5" font-family="Helvetica,sans-Serif" font-size="10.00">HashMap&lt; String, Color &gt;</text>
</g>
<!-- Node7&#45;&gt;Node6 -->
<g id="edge6" class="edge"><title>Node7&#45;&gt;Node6</title>
<path fill="none" stroke="#9a32cd" stroke-dasharray="5,2" d="M153.658,-301.374C179.355,-297.882 207.889,-293.895 234,-290 239.914,-289.118 246.112,-288.16 252.257,-287.191"/>
<polygon fill="#9a32cd" stroke="#9a32cd" points="153.027,-297.927 143.587,-302.737 153.966,-304.864 153.027,-297.927"/>
<text text-anchor="middle" x="198" y="-304" font-family="Helvetica,sans-Serif" font-size="10.00"> stateColors</text>
</g>
<!-- Node8 -->
<g id="node8" class="node"><title>Node8</title>
<polygon fill="white" stroke="#bfbfbf" points="30,-264.5 30,-283.5 114,-283.5 114,-264.5 30,-264.5"/>
<text text-anchor="middle" x="72" y="-271.5" font-family="Helvetica,sans-Serif" font-size="10.00">List&lt; String &gt;</text>
</g>
<!-- Node8&#45;&gt;Node6 -->
<g id="edge7" class="edge"><title>Node8&#45;&gt;Node6</title>
<path fill="none" stroke="#9a32cd" stroke-dasharray="5,2" d="M124.603,-275.127C162.825,-275.961 214.606,-277.092 252.354,-277.916"/>
<polygon fill="#9a32cd" stroke="#9a32cd" points="124.279,-271.619 114.205,-274.9 124.126,-278.617 124.279,-271.619"/>
<text text-anchor="middle" x="198" y="-281" font-family="Helvetica,sans-Serif" font-size="10.00"> myStateTypes</text>
</g>
<!-- Node9 -->
<g id="node9" class="node"><title>Node9</title>
<polygon fill="white" stroke="#bfbfbf" points="27.5,-354.5 27.5,-373.5 116.5,-373.5 116.5,-354.5 27.5,-354.5"/>
<text text-anchor="middle" x="72" y="-361.5" font-family="Helvetica,sans-Serif" font-size="10.00">List&lt; Integer &gt;</text>
</g>
<!-- Node9&#45;&gt;Node2 -->
<g id="edge27" class="edge"><title>Node9&#45;&gt;Node2</title>
<path fill="none" stroke="#9a32cd" stroke-dasharray="5,2" d="M126.625,-364.601C210.241,-365.539 371.152,-367.343 458.69,-368.324"/>
<polygon fill="#9a32cd" stroke="#9a32cd" points="126.615,-361.101 116.576,-364.489 126.537,-368.101 126.615,-361.101"/>
<text text-anchor="middle" x="303" y="-371" font-family="Helvetica,sans-Serif" font-size="10.00"> myParamList</text>
</g>
<!-- Node9&#45;&gt;Node6 -->
<g id="edge8" class="edge"><title>Node9&#45;&gt;Node6</title>
<path fill="none" stroke="#9a32cd" stroke-dasharray="5,2" d="M123.583,-351.824C155.778,-343.369 198.033,-330.954 234,-316 252.739,-308.209 273.03,-296.736 286.523,-288.635"/>
<polygon fill="#9a32cd" stroke="#9a32cd" points="122.31,-348.537 113.504,-354.428 124.062,-355.315 122.31,-348.537"/>
<text text-anchor="middle" x="198" y="-344" font-family="Helvetica,sans-Serif" font-size="10.00"> paramList</text>
</g>
<!-- Node10&#45;&gt;Node4 -->
<g id="edge10" class="edge"><title>Node10&#45;&gt;Node4</title>
<path fill="none" stroke="#9a32cd" stroke-dasharray="5,2" d="M972.819,-247.688C962.47,-253.22 950.019,-258.915 938,-262 909.541,-269.306 877.144,-271.609 849.511,-271.867"/>
<polygon fill="#9a32cd" stroke="#9a32cd" points="974.647,-250.676 981.66,-242.733 971.225,-244.569 974.647,-250.676"/>
<text text-anchor="middle" x="911" y="-274" font-family="Helvetica,sans-Serif" font-size="10.00"> grid</text>
</g>
<!-- Node13 -->
<g id="node13" class="node"><title>Node13</title>
<g id="a_node13"><a xlink:href="../../dd/d38/classcontroller_1_1_grid_edge_rules.html" target="_top" xlink:title="controller.GridEdgeRules">
<polygon fill="white" stroke="black" points="1144,-223.5 1144,-242.5 1276,-242.5 1276,-223.5 1144,-223.5"/>
<text text-anchor="middle" x="1210" y="-230.5" font-family="Helvetica,sans-Serif" font-size="10.00">controller.GridEdgeRules</text>
</a>
</g>
</g>
<!-- Node10&#45;&gt;Node13 -->
<g id="edge16" class="edge"><title>Node10&#45;&gt;Node13</title>
<path fill="none" stroke="#9a32cd" stroke-dasharray="5,2" d="M1049.82,-233C1078.13,-233 1113.68,-233 1144,-233"/>
<polygon fill="#9a32cd" stroke="#9a32cd" points="1049.74,-229.5 1039.74,-233 1049.74,-236.5 1049.74,-229.5"/>
<text text-anchor="middle" x="1092" y="-236" font-family="Helvetica,sans-Serif" font-size="10.00"> grid</text>
</g>
<!-- Node11 -->
<g id="node11" class="node"><title>Node11</title>
<polygon fill="white" stroke="#bfbfbf" points="764,-207.5 764,-226.5 804,-226.5 804,-207.5 764,-207.5"/>
<text text-anchor="middle" x="784" y="-214.5" font-family="Helvetica,sans-Serif" font-size="10.00">Pane</text>
</g>
<!-- Node11&#45;&gt;Node10 -->
<g id="edge11" class="edge"><title>Node11&#45;&gt;Node10</title>
<path fill="none" stroke="midnightblue" d="M814.293,-219.211C851.217,-221.998 914.874,-226.802 956.453,-229.94"/>
<polygon fill="midnightblue" stroke="midnightblue" points="814.423,-215.711 804.187,-218.448 813.896,-222.691 814.423,-215.711"/>
</g>
<!-- Node12 -->
<g id="node12" class="node"><title>Node12</title>
<polygon fill="white" stroke="#bfbfbf" points="705,-169.5 705,-188.5 863,-188.5 863,-169.5 705,-169.5"/>
<text text-anchor="middle" x="784" y="-176.5" font-family="Helvetica,sans-Serif" font-size="10.00">HashMap&lt; Integer, Integer &gt;</text>
</g>
<!-- Node12&#45;&gt;Node10 -->
<g id="edge14" class="edge"><title>Node12&#45;&gt;Node10</title>
<path fill="none" stroke="#9a32cd" stroke-dasharray="5,2" d="M854.018,-190.376C880.525,-195.423 910.908,-202.039 938,-210 950.552,-213.688 964.183,-218.918 975.178,-223.458"/>
<polygon fill="#9a32cd" stroke="#9a32cd" points="854.536,-186.913 844.063,-188.519 853.252,-193.794 854.536,-186.913"/>
<text text-anchor="middle" x="911" y="-213" font-family="Helvetica,sans-Serif" font-size="10.00"> cellCounts</text>
</g>
<!-- Node13&#45;&gt;Node10 -->
<g id="edge15" class="edge"><title>Node13&#45;&gt;Node10</title>
<path fill="none" stroke="#9a32cd" stroke-dasharray="5,2" d="M1157.97,-221.58C1147.45,-219.673 1136.41,-217.994 1126,-217 1095.91,-214.127 1087.96,-213.01 1058,-217 1048.11,-218.317 1037.53,-220.824 1028.1,-223.47"/>
<polygon fill="#9a32cd" stroke="#9a32cd" points="1157.37,-225.03 1167.85,-223.463 1158.68,-218.154 1157.37,-225.03"/>
<text text-anchor="middle" x="1092" y="-220" font-family="Helvetica,sans-Serif" font-size="10.00"> myEdgeRules</text>
</g>
<!-- Node14 -->
<g id="node14" class="node"><title>Node14</title>
<polygon fill="white" stroke="#bfbfbf" points="453.5,-497 453.5,-527 586.5,-527 586.5,-497 453.5,-497"/>
<text text-anchor="start" x="461.5" y="-515" font-family="Helvetica,sans-Serif" font-size="10.00">List&lt; simulationObjects.</text>
<text text-anchor="middle" x="520" y="-504" font-family="Helvetica,sans-Serif" font-size="10.00">Patch &gt;</text>
</g>
<!-- Node14&#45;&gt;Node1 -->
<g id="edge29" class="edge"><title>Node14&#45;&gt;Node1</title>
<path fill="none" stroke="#9a32cd" stroke-dasharray="5,2" d="M596.74,-497.835C640.205,-489.706 693.609,-479.718 732.072,-472.525"/>
<polygon fill="#9a32cd" stroke="#9a32cd" points="595.962,-494.42 586.775,-499.698 597.249,-501.3 595.962,-494.42"/>
<text text-anchor="middle" x="650" y="-497" font-family="Helvetica,sans-Serif" font-size="10.00"> myNeighbors</text>
</g>
<!-- Node14&#45;&gt;Node4 -->
<g id="edge25" class="edge"><title>Node14&#45;&gt;Node4</title>
<path fill="none" stroke="#9a32cd" stroke-dasharray="5,2" d="M592.474,-491.38C594.401,-490.012 596.25,-488.554 598,-487 612.274,-474.324 605.023,-463.619 616,-448 640.396,-413.288 654.822,-411.802 684,-381 718.802,-344.261 758.027,-298.507 774.744,-278.789"/>
<polygon fill="#9a32cd" stroke="#9a32cd" points="590.294,-488.611 583.59,-496.815 593.947,-494.582 590.294,-488.611"/>
<text text-anchor="middle" x="650" y="-451" font-family="Helvetica,sans-Serif" font-size="10.00"> myNeighbors</text>
</g>
<!-- Node14&#45;&gt;Node10 -->
<g id="edge17" class="edge"><title>Node14&#45;&gt;Node10</title>
<path fill="none" stroke="#9a32cd" stroke-dasharray="5,2" d="M597.092,-525.989C672.421,-535.456 787.547,-537.64 866,-482 953.656,-419.833 987.4,-280.623 995.157,-242.699"/>
<polygon fill="#9a32cd" stroke="#9a32cd" points="597.11,-522.46 586.735,-524.61 596.186,-529.399 597.11,-522.46"/>
<text text-anchor="middle" x="784" y="-533" font-family="Helvetica,sans-Serif" font-size="10.00"> emptyPatches</text>
</g>
<!-- Node15 -->
<g id="node15" class="node"><title>Node15</title>
<polygon fill="white" stroke="#bfbfbf" points="486,-308.5 486,-327.5 554,-327.5 554,-308.5 486,-308.5"/>
<text text-anchor="middle" x="520" y="-315.5" font-family="Helvetica,sans-Serif" font-size="10.00">ImageView</text>
</g>
<!-- Node15&#45;&gt;Node4 -->
<g id="edge18" class="edge"><title>Node15&#45;&gt;Node4</title>
<path fill="none" stroke="#9a32cd" stroke-dasharray="5,2" d="M564.157,-309.929C610.252,-301.308 683.258,-287.654 732.12,-278.516"/>
<polygon fill="#9a32cd" stroke="#9a32cd" points="563.369,-306.515 554.182,-311.794 564.656,-313.396 563.369,-306.515"/>
<text text-anchor="middle" x="650" y="-303" font-family="Helvetica,sans-Serif" font-size="10.00"> myView</text>
</g>
<!-- Node16 -->
<g id="node16" class="node"><title>Node16</title>
<g id="a_node16"><a xlink:href="../../df/d37/enumsimulation_objects_1_1_patch_1_1_state.html" target="_top" xlink:title="simulationObjects.Patch.\lState">
<polygon fill="white" stroke="black" points="453,-212 453,-242 587,-242 587,-212 453,-212"/>
<text text-anchor="start" x="461" y="-230" font-family="Helvetica,sans-Serif" font-size="10.00">simulationObjects.Patch.</text>
<text text-anchor="middle" x="520" y="-219" font-family="Helvetica,sans-Serif" font-size="10.00">State</text>
</a>
</g>
</g>
<!-- Node16&#45;&gt;Node4 -->
<g id="edge19" class="edge"><title>Node16&#45;&gt;Node4</title>
<path fill="none" stroke="#9a32cd" stroke-dasharray="5,2" d="M597.444,-232.69C624.862,-235.332 655.93,-239.019 684,-244 706.342,-247.965 731.092,-254.215 750.256,-259.474"/>
<polygon fill="#9a32cd" stroke="#9a32cd" points="597.41,-229.172 587.128,-231.729 596.76,-236.142 597.41,-229.172"/>
<text text-anchor="middle" x="650" y="-247" font-family="Helvetica,sans-Serif" font-size="10.00"> myState</text>
</g>
<!-- Node17 -->
<g id="node17" class="node"><title>Node17</title>
<polygon fill="white" stroke="#bfbfbf" points="496.5,-173.5 496.5,-192.5 543.5,-192.5 543.5,-173.5 496.5,-173.5"/>
<text text-anchor="middle" x="520" y="-180.5" font-family="Helvetica,sans-Serif" font-size="10.00">Image</text>
</g>
<!-- Node17&#45;&gt;Node4 -->
<g id="edge20" class="edge"><title>Node17&#45;&gt;Node4</title>
<path fill="none" stroke="#9a32cd" stroke-dasharray="5,2" d="M553.899,-185.609C588.044,-189.4 642.2,-198.507 684,-220 693.519,-224.894 692.913,-230.344 702,-236 717.728,-245.79 736.861,-253.743 752.582,-259.387"/>
<polygon fill="#9a32cd" stroke="#9a32cd" points="553.861,-182.088 543.558,-184.557 553.152,-189.052 553.861,-182.088"/>
<text text-anchor="middle" x="650" y="-223" font-family="Helvetica,sans-Serif" font-size="10.00"> image</text>
</g>
<!-- Node18&#45;&gt;Node4 -->
<g id="edge21" class="edge"><title>Node18&#45;&gt;Node4</title>
<path fill="none" stroke="#9a32cd" stroke-dasharray="5,2" d="M594.604,-44.2991C626.237,-44.3756 661.12,-50.8567 684,-74 709.466,-99.7585 680.157,-207.105 702,-236 710.424,-247.144 723.255,-254.54 736.237,-259.443"/>
<polygon fill="#9a32cd" stroke="#9a32cd" points="594.401,-40.8021 584.467,-44.4863 594.53,-47.8009 594.401,-40.8021"/>
<text text-anchor="middle" x="650" y="-77" font-family="Helvetica,sans-Serif" font-size="10.00"> myBody</text>
</g>
<!-- Node19 -->
<g id="node19" class="node"><title>Node19</title>
<polygon fill="white" stroke="#bfbfbf" points="276,-38.5 276,-57.5 330,-57.5 330,-38.5 276,-38.5"/>
<text text-anchor="middle" x="303" y="-45.5" font-family="Helvetica,sans-Serif" font-size="10.00">Polygon</text>
</g>
<!-- Node19&#45;&gt;Node18 -->
<g id="edge22" class="edge"><title>Node19&#45;&gt;Node18</title>
<path fill="none" stroke="midnightblue" d="M340.447,-49.0171C368.319,-49.7949 407.733,-50.8949 442.442,-51.8635"/>
<polygon fill="midnightblue" stroke="midnightblue" points="340.457,-45.5161 330.363,-48.7357 340.262,-52.5134 340.457,-45.5161"/>
</g>
<!-- Node20 -->
<g id="node20" class="node"><title>Node20</title>
<polygon fill="white" stroke="#bfbfbf" points="282.5,-0.5 282.5,-19.5 323.5,-19.5 323.5,-0.5 282.5,-0.5"/>
<text text-anchor="middle" x="303" y="-7.5" font-family="Helvetica,sans-Serif" font-size="10.00">Point</text>
</g>
<!-- Node20&#45;&gt;Node18 -->
<g id="edge24" class="edge"><title>Node20&#45;&gt;Node18</title>
<path fill="none" stroke="#9a32cd" stroke-dasharray="5,2" d="M333.672,-16.0723C369.454,-23.3953 430.032,-35.7926 472.149,-44.412"/>
<polygon fill="#9a32cd" stroke="#9a32cd" points="334.34,-12.6367 323.841,-14.0605 332.936,-19.4945 334.34,-12.6367"/>
<text text-anchor="middle" x="398" y="-37" font-family="Helvetica,sans-Serif" font-size="10.00"> myCenter</text>
</g>
<!-- Node21 -->
<g id="node21" class="node"><title>Node21</title>
<g id="a_node21"><a xlink:href="../../da/da0/enumsimulation_objects_1_1_predator_cell_1_1_phase.html" target="_top" xlink:title="simulationObjects.Predator\lCell.Phase">
<polygon fill="white" stroke="black" points="447,-448 447,-478 593,-478 593,-448 447,-448"/>
<text text-anchor="start" x="455" y="-466" font-family="Helvetica,sans-Serif" font-size="10.00">simulationObjects.Predator</text>
<text text-anchor="middle" x="520" y="-455" font-family="Helvetica,sans-Serif" font-size="10.00">Cell.Phase</text>
</a>
</g>
</g>
<!-- Node21&#45;&gt;Node1 -->
<g id="edge28" class="edge"><title>Node21&#45;&gt;Node1</title>
<path fill="none" stroke="#9a32cd" stroke-dasharray="5,2" d="M603.312,-463C634.698,-463 670.431,-463 701.72,-463"/>
<polygon fill="#9a32cd" stroke="#9a32cd" points="603.286,-459.5 593.286,-463 603.286,-466.5 603.286,-459.5"/>
<text text-anchor="middle" x="650" y="-466" font-family="Helvetica,sans-Serif" font-size="10.00"> myPhase</text>
</g>
</g>
</svg>
        <g id="navigator" transform="translate(0 0)" fill="#404254">
                <rect fill="#f2f5e9" fill-opacity="0.5" stroke="#606060" stroke-width=".5" x="0" y="0" width="60" height="60"/>
                <use id="zoomplus" xlink:href="#zoomPlus" x="17" y="9" onmousedown="handleZoom(evt,'in')"/>
                <use id="zoomminus" xlink:href="#zoomMin" x="42" y="9" onmousedown="handleZoom(evt,'out')"/>
                <use id="reset" xlink:href="#resetDef" x="30" y="36" onmousedown="handleReset()"/>
                <g id="arrowUp" xlink:href="#dirArrow" transform="translate(30 24)" onmousedown="handlePan(0,-1)">
                  <use xlink:href="#rim" fill="#404040">
                        <set attributeName="fill" to="#808080" begin="arrowUp.mouseover" end="arrowUp.mouseout"/>
                  </use>
                  <path fill="none" stroke="white" stroke-width="1.5" d="M0,-3.0v7 M-2.5,-0.5L0,-3.0L2.5,-0.5"/>
                </g>
                <g id="arrowRight" xlink:href="#dirArrow" transform="rotate(90) translate(36 -43)" onmousedown="handlePan(1,0)">
                  <use xlink:href="#rim" fill="#404040">
                        <set attributeName="fill" to="#808080" begin="arrowRight.mouseover" end="arrowRight.mouseout"/>
                  </use>
                  <path fill="none" stroke="white" stroke-width="1.5" d="M0,-3.0v7 M-2.5,-0.5L0,-3.0L2.5,-0.5"/>
                </g>
                <g id="arrowDown" xlink:href="#dirArrow" transform="rotate(180) translate(-30 -48)" onmousedown="handlePan(0,1)">
                  <use xlink:href="#rim" fill="#404040">
                        <set attributeName="fill" to="#808080" begin="arrowDown.mouseover" end="arrowDown.mouseout"/>
                  </use>
                  <path fill="none" stroke="white" stroke-width="1.5" d="M0,-3.0v7 M-2.5,-0.5L0,-3.0L2.5,-0.5"/>
                </g>
                <g id="arrowLeft" xlink:href="#dirArrow" transform="rotate(270) translate(-36 17)" onmousedown="handlePan(-1,0)">
                  <use xlink:href="#rim" fill="#404040">
                        <set attributeName="fill" to="#808080" begin="arrowLeft.mouseover" end="arrowLeft.mouseout"/>
                  </use>
                  <path fill="none" stroke="white" stroke-width="1.5" d="M0,-3.0v7 M-2.5,-0.5L0,-3.0L2.5,-0.5"/>
                </g>
        </g>
        <svg viewBox="0 0 15 15" width="100%" height="30px" preserveAspectRatio="xMaxYMin meet">
         <g id="arrow_out" transform="scale(0.3 0.3)">
          <a xlink:href="classsimulation_objects_1_1_predator_cell__coll__graph_org.svg" target="_base">
           <rect id="button" ry="5" rx="5" y="6" x="6" height="38" width="38"
                fill="#f2f5e9" fill-opacity="0.5" stroke="#606060" stroke-width="1.0"/>
           <path id="arrow"
             d="M 11.500037,31.436501 C 11.940474,20.09759 22.043105,11.32322 32.158766,21.979434 L 37.068811,17.246167 C 37.068811,17.246167 37.088388,32 37.088388,32 L 22.160133,31.978069 C 22.160133,31.978069 26.997745,27.140456 26.997745,27.140456 C 18.528582,18.264221 13.291696,25.230495 11.500037,31.436501 z"
             style="fill:#404040;"/>
          </a>
         </g>
        </svg>
</svg>
