<?xml version="1.0" encoding="UTF-8" standalone="no"?>
<!DOCTYPE svg PUBLIC "-//W3C//DTD SVG 1.1//EN"
 "http://www.w3.org/Graphics/SVG/1.1/DTD/svg11.dtd">
<!-- Generated by graphviz version 2.36.0 (20140111.2315)
 -->
<!-- Title: controller.Grid Pages: 1 -->
<!--zoomable 517 -->
<svg id="main" version="1.1" xmlns="http://www.w3.org/2000/svg" xmlns:xlink="http://www.w3.org/1999/xlink" xml:space="preserve" onload="init(evt)">
<style type="text/css"><![CDATA[
.edge:hover path { stroke: red; }
.edge:hover polygon { stroke: red; fill: red; }
]]></style>
<script type="text/javascript"><![CDATA[
var edges = document.getElementsByTagName('g');
if (edges && edges.length) {
  for (var i=0;i<edges.length;i++) {
    if (edges[i].id.substr(0,4)=='edge') {
      edges[i].setAttribute('class','edge');
    }
  }
}
]]></script>
        <defs>
                <circle id="rim" cx="0" cy="0" r="7"/>
                <circle id="rim2" cx="0" cy="0" r="3.5"/>
                <g id="zoomPlus">
                        <use xlink:href="#rim" fill="#404040">
                                <set attributeName="fill" to="#808080" begin="zoomplus.mouseover" end="zoomplus.mouseout"/>
                        </use>
                        <path d="M-4,0h8M0,-4v8" fill="none" stroke="white" stroke-width="1.5" pointer-events="none"/>
                </g>
                <g id="zoomMin">
                        <use xlink:href="#rim" fill="#404040">
                                <set attributeName="fill" to="#808080" begin="zoomminus.mouseover" end="zoomminus.mouseout"/>
                        </use>
                        <path d="M-4,0h8" fill="none" stroke="white" stroke-width="1.5" pointer-events="none"/>
                </g>
                <g id="dirArrow">
                        <path fill="none" stroke="white" stroke-width="1.5" d="M0,-3.0v7 M-2.5,-0.5L0,-3.0L2.5,-0.5"/>
                </g>
               <g id="resetDef">
                       <use xlink:href="#rim2" fill="#404040">
                               <set attributeName="fill" to="#808080" begin="reset.mouseover" end="reset.mouseout"/>
                       </use>
               </g>
        </defs>

<script type="text/javascript">
var viewWidth = 1122;
var viewHeight = 517;
var sectionId = 'dynsection-1';
</script>
<script xlink:href="../../svgpan.js"/>
<svg id="graph" class="graph">
<g id="viewport">
<title>controller.Grid</title>
<polygon fill="white" stroke="none" points="-4,4 -4,-513 1118,-513 1118,4 -4,4"/>
<!-- Node1 -->
<g id="node1" class="node"><title>Node1</title>
<polygon fill="#bfbfbf" stroke="black" points="554.5,-69.5 554.5,-88.5 637.5,-88.5 637.5,-69.5 554.5,-69.5"/>
<text text-anchor="middle" x="596" y="-76.5" font-family="Helvetica,sans-Serif" font-size="10.00">controller.Grid</text>
</g>
<!-- Node7 -->
<g id="node7" class="node"><title>Node7</title>
<g id="a_node7"><a xlink:href="../../d5/da5/classsimulation_objects_1_1_patch.html" target="_top" xlink:title="simulationObjects.Patch">
<polygon fill="white" stroke="black" points="778.5,-214.5 778.5,-233.5 909.5,-233.5 909.5,-214.5 778.5,-214.5"/>
<text text-anchor="middle" x="844" y="-221.5" font-family="Helvetica,sans-Serif" font-size="10.00">simulationObjects.Patch</text>
</a>
</g>
</g>
<!-- Node1&#45;&gt;Node7 -->
<g id="edge14" class="edge"><title>Node1&#45;&gt;Node7</title>
<path fill="none" stroke="#9a32cd" stroke-dasharray="5,2" d="M648.028,-68.0741C682.048,-63.5778 726.5,-63.2973 760,-83 810.928,-112.953 833.891,-187.314 840.712,-214.147"/>
<polygon fill="#9a32cd" stroke="#9a32cd" points="647.207,-64.6575 637.829,-69.5874 648.234,-71.5817 647.207,-64.6575"/>
<text text-anchor="middle" x="726" y="-86" font-family="Helvetica,sans-Serif" font-size="10.00"> grid</text>
</g>
<!-- Node19 -->
<g id="node19" class="node"><title>Node19</title>
<g id="a_node19"><a xlink:href="../../dd/d38/classcontroller_1_1_grid_edge_rules.html" target="_top" xlink:title="controller.GridEdgeRules">
<polygon fill="white" stroke="black" points="778,-38.5 778,-57.5 910,-57.5 910,-38.5 778,-38.5"/>
<text text-anchor="middle" x="844" y="-45.5" font-family="Helvetica,sans-Serif" font-size="10.00">controller.GridEdgeRules</text>
</a>
</g>
</g>
<!-- Node1&#45;&gt;Node19 -->
<g id="edge25" class="edge"><title>Node1&#45;&gt;Node19</title>
<path fill="none" stroke="#9a32cd" stroke-dasharray="5,2" d="M629.814,-65.964C647.852,-59.4839 670.809,-52.3383 692,-49 719.968,-44.594 751.213,-43.7276 777.992,-44.1984"/>
<polygon fill="#9a32cd" stroke="#9a32cd" points="628.507,-62.7157 620.342,-69.4671 630.935,-69.2811 628.507,-62.7157"/>
<text text-anchor="middle" x="726" y="-52" font-family="Helvetica,sans-Serif" font-size="10.00"> grid</text>
</g>
<!-- Node2 -->
<g id="node2" class="node"><title>Node2</title>
<polygon fill="white" stroke="#bfbfbf" points="311,-88.5 311,-107.5 351,-107.5 351,-88.5 311,-88.5"/>
<text text-anchor="middle" x="331" y="-95.5" font-family="Helvetica,sans-Serif" font-size="10.00">Pane</text>
</g>
<!-- Node2&#45;&gt;Node1 -->
<g id="edge1" class="edge"><title>Node2&#45;&gt;Node1</title>
<path fill="none" stroke="midnightblue" d="M361.473,-95.8708C408.528,-92.4714 500.744,-85.8093 554.137,-81.9521"/>
<polygon fill="midnightblue" stroke="midnightblue" points="361.061,-92.3913 351.339,-96.6029 361.565,-99.3731 361.061,-92.3913"/>
</g>
<!-- Node3 -->
<g id="node3" class="node"><title>Node3</title>
<g id="a_node3"><a xlink:href="../../de/d7a/classcontroller_1_1_grid_info.html" target="_top" xlink:title="controller.GridInfo">
<polygon fill="white" stroke="black" points="280.5,-357.5 280.5,-376.5 381.5,-376.5 381.5,-357.5 280.5,-357.5"/>
<text text-anchor="middle" x="331" y="-364.5" font-family="Helvetica,sans-Serif" font-size="10.00">controller.GridInfo</text>
</a>
</g>
</g>
<!-- Node3&#45;&gt;Node1 -->
<g id="edge2" class="edge"><title>Node3&#45;&gt;Node1</title>
<path fill="none" stroke="#9a32cd" stroke-dasharray="5,2" d="M343.757,-348.576C361.198,-321.614 395.382,-270.145 428,-229 457.716,-191.515 475.568,-190.125 500,-149 512.277,-128.335 500.196,-114.149 518,-98 527.893,-89.0267 541.343,-84.1257 554.235,-81.4992"/>
<polygon fill="#9a32cd" stroke="#9a32cd" points="340.589,-347.032 338.124,-357.336 346.477,-350.819 340.589,-347.032"/>
<text text-anchor="middle" x="464" y="-232" font-family="Helvetica,sans-Serif" font-size="10.00"> infoSheet</text>
</g>
<!-- Node3&#45;&gt;Node7 -->
<g id="edge8" class="edge"><title>Node3&#45;&gt;Node7</title>
<path fill="none" stroke="#9a32cd" stroke-dasharray="5,2" d="M352.447,-350.796C385.226,-325.812 452.521,-278.527 518,-257 542.043,-249.096 690.565,-236.17 778.288,-229.069"/>
<polygon fill="#9a32cd" stroke="#9a32cd" points="349.919,-348.326 344.147,-357.211 354.2,-353.864 349.919,-348.326"/>
<text text-anchor="middle" x="596" y="-260" font-family="Helvetica,sans-Serif" font-size="10.00"> infoSheet</text>
</g>
<!-- Node9 -->
<g id="node9" class="node"><title>Node9</title>
<g id="a_node9"><a xlink:href="../../d2/d6e/classsimulation_objects_1_1_cell.html" target="_top" xlink:title="simulationObjects.Cell">
<polygon fill="white" stroke="black" points="992,-248.5 992,-267.5 1114,-267.5 1114,-248.5 992,-248.5"/>
<text text-anchor="middle" x="1053" y="-255.5" font-family="Helvetica,sans-Serif" font-size="10.00">simulationObjects.Cell</text>
</a>
</g>
</g>
<!-- Node3&#45;&gt;Node9 -->
<g id="edge12" class="edge"><title>Node3&#45;&gt;Node9</title>
<path fill="none" stroke="#9a32cd" stroke-dasharray="5,2" d="M391.744,-368.791C460.276,-369.947 575.838,-369.147 674,-355 807.111,-335.816 961.061,-288.063 1023.5,-267.579"/>
<polygon fill="#9a32cd" stroke="#9a32cd" points="391.634,-365.288 381.57,-368.599 391.502,-372.287 391.634,-365.288"/>
<text text-anchor="middle" x="726" y="-355" font-family="Helvetica,sans-Serif" font-size="10.00"> infoSheet</text>
</g>
<!-- Node14 -->
<g id="node14" class="node"><title>Node14</title>
<g id="a_node14"><a xlink:href="../../d0/d1a/classsimulation_objects_1_1_patch_body.html" target="_top" xlink:title="simulationObjects.PatchBody">
<polygon fill="white" stroke="black" points="518.5,-410.5 518.5,-429.5 673.5,-429.5 673.5,-410.5 518.5,-410.5"/>
<text text-anchor="middle" x="596" y="-417.5" font-family="Helvetica,sans-Serif" font-size="10.00">simulationObjects.PatchBody</text>
</a>
</g>
</g>
<!-- Node3&#45;&gt;Node14 -->
<g id="edge20" class="edge"><title>Node3&#45;&gt;Node14</title>
<path fill="none" stroke="#9a32cd" stroke-dasharray="5,2" d="M389.131,-378.513C436.53,-388.065 503.135,-401.487 547.614,-410.451"/>
<polygon fill="#9a32cd" stroke="#9a32cd" points="389.817,-375.081 379.323,-376.537 388.434,-381.943 389.817,-375.081"/>
<text text-anchor="middle" x="464" y="-403" font-family="Helvetica,sans-Serif" font-size="10.00"> infoSheet</text>
</g>
<!-- Node4 -->
<g id="node4" class="node"><title>Node4</title>
<polygon fill="white" stroke="#bfbfbf" points="0.5,-376.5 0.5,-395.5 143.5,-395.5 143.5,-376.5 0.5,-376.5"/>
<text text-anchor="middle" x="72" y="-383.5" font-family="Helvetica,sans-Serif" font-size="10.00">HashMap&lt; String, Color &gt;</text>
</g>
<!-- Node4&#45;&gt;Node3 -->
<g id="edge3" class="edge"><title>Node4&#45;&gt;Node3</title>
<path fill="none" stroke="#9a32cd" stroke-dasharray="5,2" d="M153.664,-380.037C195.174,-376.968 244.454,-373.324 280.35,-370.671"/>
<polygon fill="#9a32cd" stroke="#9a32cd" points="153.281,-376.555 143.566,-380.783 153.797,-383.536 153.281,-376.555"/>
<text text-anchor="middle" x="198" y="-383" font-family="Helvetica,sans-Serif" font-size="10.00"> stateColors</text>
</g>
<!-- Node5 -->
<g id="node5" class="node"><title>Node5</title>
<polygon fill="white" stroke="#bfbfbf" points="30,-338.5 30,-357.5 114,-357.5 114,-338.5 30,-338.5"/>
<text text-anchor="middle" x="72" y="-345.5" font-family="Helvetica,sans-Serif" font-size="10.00">List&lt; String &gt;</text>
</g>
<!-- Node5&#45;&gt;Node3 -->
<g id="edge4" class="edge"><title>Node5&#45;&gt;Node3</title>
<path fill="none" stroke="#9a32cd" stroke-dasharray="5,2" d="M124.219,-351.787C169.597,-355.141 235.432,-360.009 280.335,-363.328"/>
<polygon fill="#9a32cd" stroke="#9a32cd" points="124.237,-348.279 114.007,-351.032 123.721,-355.259 124.237,-348.279"/>
<text text-anchor="middle" x="198" y="-363" font-family="Helvetica,sans-Serif" font-size="10.00"> myStateTypes</text>
</g>
<!-- Node6 -->
<g id="node6" class="node"><title>Node6</title>
<polygon fill="white" stroke="#bfbfbf" points="27.5,-439.5 27.5,-458.5 116.5,-458.5 116.5,-439.5 27.5,-439.5"/>
<text text-anchor="middle" x="72" y="-446.5" font-family="Helvetica,sans-Serif" font-size="10.00">List&lt; Integer &gt;</text>
</g>
<!-- Node6&#45;&gt;Node3 -->
<g id="edge5" class="edge"><title>Node6&#45;&gt;Node3</title>
<path fill="none" stroke="#9a32cd" stroke-dasharray="5,2" d="M112.817,-436.296C164.603,-419.773 253.899,-391.281 300.207,-376.506"/>
<polygon fill="#9a32cd" stroke="#9a32cd" points="111.447,-433.059 102.984,-439.433 113.575,-439.728 111.447,-433.059"/>
<text text-anchor="middle" x="198" y="-424" font-family="Helvetica,sans-Serif" font-size="10.00"> paramList</text>
</g>
<!-- Node6&#45;&gt;Node9 -->
<g id="edge13" class="edge"><title>Node6&#45;&gt;Node9</title>
<path fill="none" stroke="#9a32cd" stroke-dasharray="5,2" d="M112.904,-461.448C163.055,-475.965 252.023,-498 330,-498 330,-498 330,-498 845,-498 968.803,-498 1034.89,-312.606 1049.08,-267.706"/>
<polygon fill="#9a32cd" stroke="#9a32cd" points="113.689,-458.03 103.108,-458.564 111.712,-464.745 113.689,-458.03"/>
<text text-anchor="middle" x="596" y="-501" font-family="Helvetica,sans-Serif" font-size="10.00"> myParamList</text>
</g>
<!-- Node7&#45;&gt;Node1 -->
<g id="edge6" class="edge"><title>Node7&#45;&gt;Node1</title>
<path fill="none" stroke="#9a32cd" stroke-dasharray="5,2" d="M833.125,-205.236C819.743,-181.678 793.611,-141.726 760,-120 739.966,-107.05 679.034,-93.9178 637.617,-86.1183"/>
<polygon fill="#9a32cd" stroke="#9a32cd" points="830.182,-207.148 838.064,-214.227 836.318,-203.778 830.182,-207.148"/>
<text text-anchor="middle" x="726" y="-123" font-family="Helvetica,sans-Serif" font-size="10.00"> gridArray</text>
</g>
<!-- Node7&#45;&gt;Node9 -->
<g id="edge11" class="edge"><title>Node7&#45;&gt;Node9</title>
<path fill="none" stroke="#9a32cd" stroke-dasharray="5,2" d="M912.815,-235.139C939.08,-239.453 968.838,-244.341 994.078,-248.486"/>
<polygon fill="#9a32cd" stroke="#9a32cd" points="913.371,-231.683 902.936,-233.516 912.237,-238.591 913.371,-231.683"/>
<text text-anchor="middle" x="951" y="-249" font-family="Helvetica,sans-Serif" font-size="10.00"> myPatch</text>
</g>
<!-- Node8 -->
<g id="node8" class="node"><title>Node8</title>
<polygon fill="white" stroke="#bfbfbf" points="573,-145.5 573,-164.5 619,-164.5 619,-145.5 573,-145.5"/>
<text text-anchor="middle" x="596" y="-152.5" font-family="Helvetica,sans-Serif" font-size="10.00">Group</text>
</g>
<!-- Node8&#45;&gt;Node7 -->
<g id="edge7" class="edge"><title>Node8&#45;&gt;Node7</title>
<path fill="none" stroke="midnightblue" d="M629.248,-160.183C662.446,-165.922 715.465,-176.216 760,-190 781.867,-196.768 805.989,-206.974 822.565,-214.438"/>
<polygon fill="midnightblue" stroke="midnightblue" points="629.645,-156.701 619.201,-158.481 628.476,-163.602 629.645,-156.701"/>
</g>
<!-- Node9&#45;&gt;Node7 -->
<g id="edge9" class="edge"><title>Node9&#45;&gt;Node7</title>
<path fill="none" stroke="#9a32cd" stroke-dasharray="5,2" d="M1025.95,-243.932C1011.17,-236.743 992.072,-228.739 974,-225 953.384,-220.735 930.515,-219.467 909.827,-219.571"/>
<polygon fill="#9a32cd" stroke="#9a32cd" points="1024.47,-247.109 1034.98,-248.486 1027.63,-240.859 1024.47,-247.109"/>
<text text-anchor="middle" x="951" y="-228" font-family="Helvetica,sans-Serif" font-size="10.00"> myCell</text>
</g>
<!-- Node10 -->
<g id="node10" class="node"><title>Node10</title>
<polygon fill="white" stroke="#bfbfbf" points="812.5,-0.5 812.5,-19.5 875.5,-19.5 875.5,-0.5 812.5,-0.5"/>
<text text-anchor="middle" x="844" y="-7.5" font-family="Helvetica,sans-Serif" font-size="10.00">Rectangle</text>
</g>
<!-- Node10&#45;&gt;Node9 -->
<g id="edge10" class="edge"><title>Node10&#45;&gt;Node9</title>
<path fill="none" stroke="midnightblue" d="M885.321,-16.8393C894.038,-19.6173 902.792,-23.5198 910,-29 991.181,-90.7222 1037.07,-213.385 1048.91,-248.441"/>
<polygon fill="midnightblue" stroke="midnightblue" points="886.149,-13.4371 875.578,-14.1564 884.29,-20.1859 886.149,-13.4371"/>
</g>
<!-- Node11 -->
<g id="node11" class="node"><title>Node11</title>
<polygon fill="white" stroke="#bfbfbf" points="562,-107.5 562,-126.5 630,-126.5 630,-107.5 562,-107.5"/>
<text text-anchor="middle" x="596" y="-114.5" font-family="Helvetica,sans-Serif" font-size="10.00">ImageView</text>
</g>
<!-- Node11&#45;&gt;Node7 -->
<g id="edge15" class="edge"><title>Node11&#45;&gt;Node7</title>
<path fill="none" stroke="#9a32cd" stroke-dasharray="5,2" d="M640.354,-122.715C674.256,-128.388 721.871,-139.056 760,-158 790.007,-172.909 819.299,-199.978 833.726,-214.381"/>
<polygon fill="#9a32cd" stroke="#9a32cd" points="640.725,-119.231 630.299,-121.112 639.623,-126.143 640.725,-119.231"/>
<text text-anchor="middle" x="726" y="-161" font-family="Helvetica,sans-Serif" font-size="10.00"> myView</text>
</g>
<!-- Node12 -->
<g id="node12" class="node"><title>Node12</title>
<g id="a_node12"><a xlink:href="../../df/d37/enumsimulation_objects_1_1_patch_1_1_state.html" target="_top" xlink:title="simulationObjects.Patch.\lState">
<polygon fill="white" stroke="black" points="529,-316 529,-346 663,-346 663,-316 529,-316"/>
<text text-anchor="start" x="537" y="-334" font-family="Helvetica,sans-Serif" font-size="10.00">simulationObjects.Patch.</text>
<text text-anchor="middle" x="596" y="-323" font-family="Helvetica,sans-Serif" font-size="10.00">State</text>
</a>
</g>
</g>
<!-- Node12&#45;&gt;Node7 -->
<g id="edge16" class="edge"><title>Node12&#45;&gt;Node7</title>
<path fill="none" stroke="#9a32cd" stroke-dasharray="5,2" d="M673.043,-320.19C701.328,-314.292 733.07,-305.363 760,-292 790.37,-276.93 819.508,-248.918 833.817,-233.983"/>
<polygon fill="#9a32cd" stroke="#9a32cd" points="672.32,-316.765 663.197,-322.152 673.688,-323.63 672.32,-316.765"/>
<text text-anchor="middle" x="726" y="-319" font-family="Helvetica,sans-Serif" font-size="10.00"> myState</text>
</g>
<!-- Node13 -->
<g id="node13" class="node"><title>Node13</title>
<polygon fill="white" stroke="#bfbfbf" points="572.5,-277.5 572.5,-296.5 619.5,-296.5 619.5,-277.5 572.5,-277.5"/>
<text text-anchor="middle" x="596" y="-284.5" font-family="Helvetica,sans-Serif" font-size="10.00">Image</text>
</g>
<!-- Node13&#45;&gt;Node7 -->
<g id="edge17" class="edge"><title>Node13&#45;&gt;Node7</title>
<path fill="none" stroke="#9a32cd" stroke-dasharray="5,2" d="M629.675,-284.665C663.008,-281.665 715.946,-275.183 760,-262 783.685,-254.912 809.325,-242.352 825.742,-233.621"/>
<polygon fill="#9a32cd" stroke="#9a32cd" points="629.247,-281.188 619.578,-285.521 629.838,-288.163 629.247,-281.188"/>
<text text-anchor="middle" x="726" y="-280" font-family="Helvetica,sans-Serif" font-size="10.00"> image</text>
</g>
<!-- Node14&#45;&gt;Node7 -->
<g id="edge18" class="edge"><title>Node14&#45;&gt;Node7</title>
<path fill="none" stroke="#9a32cd" stroke-dasharray="5,2" d="M683.868,-418.745C710.403,-414.691 738.279,-406.327 760,-390 814.345,-349.149 835.491,-262.869 841.245,-233.798"/>
<polygon fill="#9a32cd" stroke="#9a32cd" points="683.227,-415.299 673.779,-420.095 684.155,-422.237 683.227,-415.299"/>
<text text-anchor="middle" x="726" y="-420" font-family="Helvetica,sans-Serif" font-size="10.00"> myBody</text>
</g>
<!-- Node15 -->
<g id="node15" class="node"><title>Node15</title>
<polygon fill="white" stroke="#bfbfbf" points="304,-450.5 304,-469.5 358,-469.5 358,-450.5 304,-450.5"/>
<text text-anchor="middle" x="331" y="-457.5" font-family="Helvetica,sans-Serif" font-size="10.00">Polygon</text>
</g>
<!-- Node15&#45;&gt;Node14 -->
<g id="edge19" class="edge"><title>Node15&#45;&gt;Node14</title>
<path fill="none" stroke="midnightblue" d="M368.194,-455.481C402.26,-451.124 454.674,-444.155 500,-437 514.233,-434.753 529.624,-432.097 543.79,-429.561"/>
<polygon fill="midnightblue" stroke="midnightblue" points="367.717,-452.013 358.239,-456.746 368.6,-458.957 367.717,-452.013"/>
</g>
<!-- Node16 -->
<g id="node16" class="node"><title>Node16</title>
<polygon fill="white" stroke="#bfbfbf" points="310.5,-412.5 310.5,-431.5 351.5,-431.5 351.5,-412.5 310.5,-412.5"/>
<text text-anchor="middle" x="331" y="-419.5" font-family="Helvetica,sans-Serif" font-size="10.00">Point</text>
</g>
<!-- Node16&#45;&gt;Node14 -->
<g id="edge21" class="edge"><title>Node16&#45;&gt;Node14</title>
<path fill="none" stroke="#9a32cd" stroke-dasharray="5,2" d="M362.1,-421.771C399.942,-421.483 466.266,-420.979 518.484,-420.582"/>
<polygon fill="#9a32cd" stroke="#9a32cd" points="361.741,-418.274 351.768,-421.85 361.794,-425.273 361.741,-418.274"/>
<text text-anchor="middle" x="464" y="-425" font-family="Helvetica,sans-Serif" font-size="10.00"> myCenter</text>
</g>
<!-- Node17 -->
<g id="node17" class="node"><title>Node17</title>
<polygon fill="white" stroke="#bfbfbf" points="264.5,-167 264.5,-197 397.5,-197 397.5,-167 264.5,-167"/>
<text text-anchor="start" x="272.5" y="-185" font-family="Helvetica,sans-Serif" font-size="10.00">List&lt; simulationObjects.</text>
<text text-anchor="middle" x="331" y="-174" font-family="Helvetica,sans-Serif" font-size="10.00">Patch &gt;</text>
</g>
<!-- Node17&#45;&gt;Node1 -->
<g id="edge26" class="edge"><title>Node17&#45;&gt;Node1</title>
<path fill="none" stroke="#9a32cd" stroke-dasharray="5,2" d="M369.897,-162.415C406.908,-143.884 465.214,-116.261 518,-98 529.581,-93.9936 542.416,-90.4765 554.234,-87.5927"/>
<polygon fill="#9a32cd" stroke="#9a32cd" points="368.316,-159.292 360.962,-166.919 371.467,-165.543 368.316,-159.292"/>
<text text-anchor="middle" x="464" y="-137" font-family="Helvetica,sans-Serif" font-size="10.00"> emptyPatches</text>
</g>
<!-- Node17&#45;&gt;Node7 -->
<g id="edge22" class="edge"><title>Node17&#45;&gt;Node7</title>
<path fill="none" stroke="#9a32cd" stroke-dasharray="5,2" d="M407.837,-188.233C508.295,-196.49 683.778,-210.913 778.3,-218.682"/>
<polygon fill="#9a32cd" stroke="#9a32cd" points="408.011,-184.736 397.758,-187.405 407.438,-191.712 408.011,-184.736"/>
<text text-anchor="middle" x="596" y="-213" font-family="Helvetica,sans-Serif" font-size="10.00"> myNeighbors</text>
</g>
<!-- Node18 -->
<g id="node18" class="node"><title>Node18</title>
<polygon fill="white" stroke="#bfbfbf" points="252,-50.5 252,-69.5 410,-69.5 410,-50.5 252,-50.5"/>
<text text-anchor="middle" x="331" y="-57.5" font-family="Helvetica,sans-Serif" font-size="10.00">HashMap&lt; Integer, Integer &gt;</text>
</g>
<!-- Node18&#45;&gt;Node1 -->
<g id="edge23" class="edge"><title>Node18&#45;&gt;Node1</title>
<path fill="none" stroke="#9a32cd" stroke-dasharray="5,2" d="M420.306,-66.2702C446.006,-68.1051 474.125,-70.1226 500,-72 517.814,-73.2925 537.505,-74.7403 554.32,-75.9823"/>
<polygon fill="#9a32cd" stroke="#9a32cd" points="420.435,-62.7706 410.211,-65.5499 419.936,-69.7528 420.435,-62.7706"/>
<text text-anchor="middle" x="464" y="-75" font-family="Helvetica,sans-Serif" font-size="10.00"> cellCounts</text>
</g>
<!-- Node19&#45;&gt;Node1 -->
<g id="edge24" class="edge"><title>Node19&#45;&gt;Node1</title>
<path fill="none" stroke="#9a32cd" stroke-dasharray="5,2" d="M791.741,-35.023C787.002,-33.2281 782.351,-31.2248 778,-29 768.977,-24.3855 769.586,-18.2891 760,-15 731.414,-5.19179 720.904,-6.17207 692,-15 656.814,-25.7465 622.871,-54.3838 606.749,-69.4419"/>
<polygon fill="#9a32cd" stroke="#9a32cd" points="790.931,-38.4466 801.526,-38.4191 793.227,-31.8336 790.931,-38.4466"/>
<text text-anchor="middle" x="726" y="-18" font-family="Helvetica,sans-Serif" font-size="10.00"> myEdgeRules</text>
</g>
</g>
</svg>
        <g id="navigator" transform="translate(0 0)" fill="#404254">
                <rect fill="#f2f5e9" fill-opacity="0.5" stroke="#606060" stroke-width=".5" x="0" y="0" width="60" height="60"/>
                <use id="zoomplus" xlink:href="#zoomPlus" x="17" y="9" onmousedown="handleZoom(evt,'in')"/>
                <use id="zoomminus" xlink:href="#zoomMin" x="42" y="9" onmousedown="handleZoom(evt,'out')"/>
                <use id="reset" xlink:href="#resetDef" x="30" y="36" onmousedown="handleReset()"/>
                <g id="arrowUp" xlink:href="#dirArrow" transform="translate(30 24)" onmousedown="handlePan(0,-1)">
                  <use xlink:href="#rim" fill="#404040">
                        <set attributeName="fill" to="#808080" begin="arrowUp.mouseover" end="arrowUp.mouseout"/>
                  </use>
                  <path fill="none" stroke="white" stroke-width="1.5" d="M0,-3.0v7 M-2.5,-0.5L0,-3.0L2.5,-0.5"/>
                </g>
                <g id="arrowRight" xlink:href="#dirArrow" transform="rotate(90) translate(36 -43)" onmousedown="handlePan(1,0)">
                  <use xlink:href="#rim" fill="#404040">
                        <set attributeName="fill" to="#808080" begin="arrowRight.mouseover" end="arrowRight.mouseout"/>
                  </use>
                  <path fill="none" stroke="white" stroke-width="1.5" d="M0,-3.0v7 M-2.5,-0.5L0,-3.0L2.5,-0.5"/>
                </g>
                <g id="arrowDown" xlink:href="#dirArrow" transform="rotate(180) translate(-30 -48)" onmousedown="handlePan(0,1)">
                  <use xlink:href="#rim" fill="#404040">
                        <set attributeName="fill" to="#808080" begin="arrowDown.mouseover" end="arrowDown.mouseout"/>
                  </use>
                  <path fill="none" stroke="white" stroke-width="1.5" d="M0,-3.0v7 M-2.5,-0.5L0,-3.0L2.5,-0.5"/>
                </g>
                <g id="arrowLeft" xlink:href="#dirArrow" transform="rotate(270) translate(-36 17)" onmousedown="handlePan(-1,0)">
                  <use xlink:href="#rim" fill="#404040">
                        <set attributeName="fill" to="#808080" begin="arrowLeft.mouseover" end="arrowLeft.mouseout"/>
                  </use>
                  <path fill="none" stroke="white" stroke-width="1.5" d="M0,-3.0v7 M-2.5,-0.5L0,-3.0L2.5,-0.5"/>
                </g>
        </g>
        <svg viewBox="0 0 15 15" width="100%" height="30px" preserveAspectRatio="xMaxYMin meet">
         <g id="arrow_out" transform="scale(0.3 0.3)">
          <a xlink:href="classcontroller_1_1_grid__coll__graph_org.svg" target="_base">
           <rect id="button" ry="5" rx="5" y="6" x="6" height="38" width="38"
                fill="#f2f5e9" fill-opacity="0.5" stroke="#606060" stroke-width="1.0"/>
           <path id="arrow"
             d="M 11.500037,31.436501 C 11.940474,20.09759 22.043105,11.32322 32.158766,21.979434 L 37.068811,17.246167 C 37.068811,17.246167 37.088388,32 37.088388,32 L 22.160133,31.978069 C 22.160133,31.978069 26.997745,27.140456 26.997745,27.140456 C 18.528582,18.264221 13.291696,25.230495 11.500037,31.436501 z"
             style="fill:#404040;"/>
          </a>
         </g>
        </svg>
</svg>
