<?xml version="1.0" encoding="UTF-8" standalone="no"?>
<!DOCTYPE svg PUBLIC "-//W3C//DTD SVG 1.1//EN"
 "http://www.w3.org/Graphics/SVG/1.1/DTD/svg11.dtd">
<!-- Generated by graphviz version 2.36.0 (20140111.2315)
 -->
<!-- Title: controller.GridEdgeRules Pages: 1 -->
<svg width="1104pt" height="511pt"
 viewBox="0.00 0.00 1104.00 511.00" xmlns="http://www.w3.org/2000/svg" xmlns:xlink="http://www.w3.org/1999/xlink">
<g id="graph0" class="graph" transform="scale(1 1) rotate(0) translate(4 507)">
<title>controller.GridEdgeRules</title>
<polygon fill="white" stroke="none" points="-4,4 -4,-507 1100,-507 1100,4 -4,4"/>
<!-- Node1 -->
<g id="node1" class="node"><title>Node1</title>
<polygon fill="#bfbfbf" stroke="black" points="265,-198.5 265,-217.5 397,-217.5 397,-198.5 265,-198.5"/>
<text text-anchor="middle" x="331" y="-205.5" font-family="Helvetica,sans-Serif" font-size="10.00">controller.GridEdgeRules</text>
</g>
<!-- Node2 -->
<g id="node2" class="node"><title>Node2</title>
<g id="a_node2"><a xlink:href="../../d7/d97/classcontroller_1_1_grid.html" target="_top" xlink:title="controller.Grid">
<polygon fill="white" stroke="black" points="554.5,-185.5 554.5,-204.5 637.5,-204.5 637.5,-185.5 554.5,-185.5"/>
<text text-anchor="middle" x="596" y="-192.5" font-family="Helvetica,sans-Serif" font-size="10.00">controller.Grid</text>
</a>
</g>
</g>
<!-- Node1&#45;&gt;Node2 -->
<g id="edge25" class="edge"><title>Node1&#45;&gt;Node2</title>
<path fill="none" stroke="#9a32cd" stroke-dasharray="5,2" d="M397.705,-197.132C407.824,-195.831 418.173,-194.713 428,-194 471.087,-190.875 520.591,-191.726 554.446,-192.984"/>
<polygon fill="#9a32cd" stroke="#9a32cd" points="397.131,-193.677 387.69,-198.486 398.069,-200.614 397.131,-193.677"/>
<text text-anchor="middle" x="464" y="-197" font-family="Helvetica,sans-Serif" font-size="10.00"> myEdgeRules</text>
</g>
<!-- Node2&#45;&gt;Node1 -->
<g id="edge1" class="edge"><title>Node2&#45;&gt;Node1</title>
<path fill="none" stroke="#9a32cd" stroke-dasharray="5,2" d="M544.28,-202.547C529.993,-204.362 514.416,-206.05 500,-207 466.094,-209.234 428.255,-209.642 397.086,-209.423"/>
<polygon fill="#9a32cd" stroke="#9a32cd" points="544.964,-205.987 554.421,-201.211 544.05,-199.047 544.964,-205.987"/>
<text text-anchor="middle" x="464" y="-213" font-family="Helvetica,sans-Serif" font-size="10.00"> grid</text>
</g>
<!-- Node8 -->
<g id="node8" class="node"><title>Node8</title>
<g id="a_node8"><a xlink:href="../../d5/da5/classsimulation_objects_1_1_patch.html" target="_top" xlink:title="simulationObjects.Patch">
<polygon fill="white" stroke="black" points="760.5,-231.5 760.5,-250.5 891.5,-250.5 891.5,-231.5 760.5,-231.5"/>
<text text-anchor="middle" x="826" y="-238.5" font-family="Helvetica,sans-Serif" font-size="10.00">simulationObjects.Patch</text>
</a>
</g>
</g>
<!-- Node2&#45;&gt;Node8 -->
<g id="edge15" class="edge"><title>Node2&#45;&gt;Node8</title>
<path fill="none" stroke="#9a32cd" stroke-dasharray="5,2" d="M638.884,-183.317C669.443,-177.25 710.799,-174.334 742,-192 755.531,-199.661 747.691,-212.499 760,-222 765.026,-225.879 770.823,-228.968 776.844,-231.426"/>
<polygon fill="#9a32cd" stroke="#9a32cd" points="637.995,-179.928 628.965,-185.469 639.48,-186.769 637.995,-179.928"/>
<text text-anchor="middle" x="717" y="-195" font-family="Helvetica,sans-Serif" font-size="10.00"> grid</text>
</g>
<!-- Node3 -->
<g id="node3" class="node"><title>Node3</title>
<polygon fill="white" stroke="#bfbfbf" points="311,-245.5 311,-264.5 351,-264.5 351,-245.5 311,-245.5"/>
<text text-anchor="middle" x="331" y="-252.5" font-family="Helvetica,sans-Serif" font-size="10.00">Pane</text>
</g>
<!-- Node3&#45;&gt;Node2 -->
<g id="edge2" class="edge"><title>Node3&#45;&gt;Node2</title>
<path fill="none" stroke="midnightblue" d="M361.178,-251.102C394.905,-246.294 451.939,-237.232 500,-225 508.172,-222.92 509.974,-221.588 518,-219 533.059,-214.144 549.826,-208.899 563.86,-204.554"/>
<polygon fill="midnightblue" stroke="midnightblue" points="360.507,-247.661 351.088,-252.512 361.476,-254.594 360.507,-247.661"/>
</g>
<!-- Node4 -->
<g id="node4" class="node"><title>Node4</title>
<g id="a_node4"><a xlink:href="../../de/d7a/classcontroller_1_1_grid_info.html" target="_top" xlink:title="controller.GridInfo">
<polygon fill="white" stroke="black" points="280.5,-352.5 280.5,-371.5 381.5,-371.5 381.5,-352.5 280.5,-352.5"/>
<text text-anchor="middle" x="331" y="-359.5" font-family="Helvetica,sans-Serif" font-size="10.00">controller.GridInfo</text>
</a>
</g>
</g>
<!-- Node4&#45;&gt;Node2 -->
<g id="edge3" class="edge"><title>Node4&#45;&gt;Node2</title>
<path fill="none" stroke="#9a32cd" stroke-dasharray="5,2" d="M351.718,-345.875C370.769,-330.571 400.675,-307.26 428,-289 458.802,-268.416 473.244,-272.623 500,-247 510.685,-236.768 506.23,-227.963 518,-219 528.583,-210.941 541.915,-205.558 554.499,-201.975"/>
<polygon fill="#9a32cd" stroke="#9a32cd" points="349.353,-343.287 343.778,-352.296 353.754,-348.73 349.353,-343.287"/>
<text text-anchor="middle" x="464" y="-292" font-family="Helvetica,sans-Serif" font-size="10.00"> infoSheet</text>
</g>
<!-- Node4&#45;&gt;Node8 -->
<g id="edge9" class="edge"><title>Node4&#45;&gt;Node8</title>
<path fill="none" stroke="#9a32cd" stroke-dasharray="5,2" d="M391.654,-352.974C427.281,-344.727 471.08,-329.152 500,-300 516.634,-283.233 498.878,-263.863 518,-250 555.235,-223.007 681.681,-228.305 760.207,-234.633"/>
<polygon fill="#9a32cd" stroke="#9a32cd" points="390.868,-349.563 381.842,-355.111 392.358,-356.403 390.868,-349.563"/>
<text text-anchor="middle" x="596" y="-253" font-family="Helvetica,sans-Serif" font-size="10.00"> infoSheet</text>
</g>
<!-- Node10 -->
<g id="node10" class="node"><title>Node10</title>
<g id="a_node10"><a xlink:href="../../d2/d6e/classsimulation_objects_1_1_cell.html" target="_top" xlink:title="simulationObjects.Cell">
<polygon fill="white" stroke="black" points="974,-265.5 974,-284.5 1096,-284.5 1096,-265.5 974,-265.5"/>
<text text-anchor="middle" x="1035" y="-272.5" font-family="Helvetica,sans-Serif" font-size="10.00">simulationObjects.Cell</text>
</a>
</g>
</g>
<!-- Node4&#45;&gt;Node10 -->
<g id="edge13" class="edge"><title>Node4&#45;&gt;Node10</title>
<path fill="none" stroke="#9a32cd" stroke-dasharray="5,2" d="M391.921,-362.424C460.384,-362.243 575.661,-359.906 674,-348 793.339,-333.551 932.117,-300.801 997.004,-284.536"/>
<polygon fill="#9a32cd" stroke="#9a32cd" points="391.752,-358.924 381.756,-362.436 391.761,-365.924 391.752,-358.924"/>
<text text-anchor="middle" x="717" y="-349" font-family="Helvetica,sans-Serif" font-size="10.00"> infoSheet</text>
</g>
<!-- Node15 -->
<g id="node15" class="node"><title>Node15</title>
<g id="a_node15"><a xlink:href="../../d0/d1a/classsimulation_objects_1_1_patch_body.html" target="_top" xlink:title="simulationObjects.PatchBody">
<polygon fill="white" stroke="black" points="518.5,-401.5 518.5,-420.5 673.5,-420.5 673.5,-401.5 518.5,-401.5"/>
<text text-anchor="middle" x="596" y="-408.5" font-family="Helvetica,sans-Serif" font-size="10.00">simulationObjects.PatchBody</text>
</a>
</g>
</g>
<!-- Node4&#45;&gt;Node15 -->
<g id="edge21" class="edge"><title>Node4&#45;&gt;Node15</title>
<path fill="none" stroke="#9a32cd" stroke-dasharray="5,2" d="M391.864,-373.153C437.647,-381.683 500.104,-393.32 543.631,-401.429"/>
<polygon fill="#9a32cd" stroke="#9a32cd" points="392.249,-369.665 381.777,-371.274 390.967,-376.547 392.249,-369.665"/>
<text text-anchor="middle" x="464" y="-396" font-family="Helvetica,sans-Serif" font-size="10.00"> infoSheet</text>
</g>
<!-- Node5 -->
<g id="node5" class="node"><title>Node5</title>
<polygon fill="white" stroke="#bfbfbf" points="0.5,-333.5 0.5,-352.5 143.5,-352.5 143.5,-333.5 0.5,-333.5"/>
<text text-anchor="middle" x="72" y="-340.5" font-family="Helvetica,sans-Serif" font-size="10.00">HashMap&lt; String, Color &gt;</text>
</g>
<!-- Node5&#45;&gt;Node4 -->
<g id="edge4" class="edge"><title>Node5&#45;&gt;Node4</title>
<path fill="none" stroke="#9a32cd" stroke-dasharray="5,2" d="M153.709,-343.709C179.409,-344.416 207.932,-345.702 234,-348 249.1,-349.331 265.448,-351.457 280.3,-353.654"/>
<polygon fill="#9a32cd" stroke="#9a32cd" points="153.721,-340.208 143.636,-343.457 153.546,-347.206 153.721,-340.208"/>
<text text-anchor="middle" x="198" y="-351" font-family="Helvetica,sans-Serif" font-size="10.00"> stateColors</text>
</g>
<!-- Node6 -->
<g id="node6" class="node"><title>Node6</title>
<polygon fill="white" stroke="#bfbfbf" points="30,-371.5 30,-390.5 114,-390.5 114,-371.5 30,-371.5"/>
<text text-anchor="middle" x="72" y="-378.5" font-family="Helvetica,sans-Serif" font-size="10.00">List&lt; String &gt;</text>
</g>
<!-- Node6&#45;&gt;Node4 -->
<g id="edge5" class="edge"><title>Node6&#45;&gt;Node4</title>
<path fill="none" stroke="#9a32cd" stroke-dasharray="5,2" d="M124.219,-377.213C169.597,-373.859 235.432,-368.991 280.335,-365.672"/>
<polygon fill="#9a32cd" stroke="#9a32cd" points="123.721,-373.741 114.007,-377.968 124.237,-380.721 123.721,-373.741"/>
<text text-anchor="middle" x="198" y="-378" font-family="Helvetica,sans-Serif" font-size="10.00"> myStateTypes</text>
</g>
<!-- Node7 -->
<g id="node7" class="node"><title>Node7</title>
<polygon fill="white" stroke="#bfbfbf" points="27.5,-433.5 27.5,-452.5 116.5,-452.5 116.5,-433.5 27.5,-433.5"/>
<text text-anchor="middle" x="72" y="-440.5" font-family="Helvetica,sans-Serif" font-size="10.00">List&lt; Integer &gt;</text>
</g>
<!-- Node7&#45;&gt;Node4 -->
<g id="edge6" class="edge"><title>Node7&#45;&gt;Node4</title>
<path fill="none" stroke="#9a32cd" stroke-dasharray="5,2" d="M113.031,-430.383C164.577,-414.137 253.034,-386.258 299.48,-371.619"/>
<polygon fill="#9a32cd" stroke="#9a32cd" points="111.722,-427.126 103.237,-433.47 113.827,-433.802 111.722,-427.126"/>
<text text-anchor="middle" x="198" y="-418" font-family="Helvetica,sans-Serif" font-size="10.00"> paramList</text>
</g>
<!-- Node7&#45;&gt;Node10 -->
<g id="edge14" class="edge"><title>Node7&#45;&gt;Node10</title>
<path fill="none" stroke="#9a32cd" stroke-dasharray="5,2" d="M112.904,-455.448C163.055,-469.965 252.023,-492 330,-492 330,-492 330,-492 827,-492 943.366,-492 1014.32,-326.6 1030.46,-284.604"/>
<polygon fill="#9a32cd" stroke="#9a32cd" points="113.689,-452.03 103.108,-452.564 111.712,-458.745 113.689,-452.03"/>
<text text-anchor="middle" x="596" y="-495" font-family="Helvetica,sans-Serif" font-size="10.00"> myParamList</text>
</g>
<!-- Node8&#45;&gt;Node2 -->
<g id="edge7" class="edge"><title>Node8&#45;&gt;Node2</title>
<path fill="none" stroke="#9a32cd" stroke-dasharray="5,2" d="M781.773,-228.61C774.491,-226.452 767.02,-224.195 760,-222 751.952,-219.483 750.205,-217.945 742,-216 707.226,-207.756 666.946,-202.235 637.678,-198.932"/>
<polygon fill="#9a32cd" stroke="#9a32cd" points="780.945,-232.014 791.527,-231.475 782.919,-225.298 780.945,-232.014"/>
<text text-anchor="middle" x="717" y="-219" font-family="Helvetica,sans-Serif" font-size="10.00"> gridArray</text>
</g>
<!-- Node8&#45;&gt;Node10 -->
<g id="edge12" class="edge"><title>Node8&#45;&gt;Node10</title>
<path fill="none" stroke="#9a32cd" stroke-dasharray="5,2" d="M901.668,-234.914C919.616,-234.961 938.619,-236.279 956,-240 978.641,-244.847 1002.65,-256.784 1017.96,-265.369"/>
<polygon fill="#9a32cd" stroke="#9a32cd" points="901.497,-231.416 891.533,-235.018 901.569,-238.416 901.497,-231.416"/>
<text text-anchor="middle" x="933" y="-243" font-family="Helvetica,sans-Serif" font-size="10.00"> myPatch</text>
</g>
<!-- Node9 -->
<g id="node9" class="node"><title>Node9</title>
<polygon fill="white" stroke="#bfbfbf" points="573,-38.5 573,-57.5 619,-57.5 619,-38.5 573,-38.5"/>
<text text-anchor="middle" x="596" y="-45.5" font-family="Helvetica,sans-Serif" font-size="10.00">Group</text>
</g>
<!-- Node9&#45;&gt;Node8 -->
<g id="edge8" class="edge"><title>Node9&#45;&gt;Node8</title>
<path fill="none" stroke="midnightblue" d="M629.367,-45.3116C662.712,-44.4848 713.693,-48.9889 742,-80 784.888,-126.985 718.714,-173.601 760,-222 763.281,-225.846 767.294,-228.936 771.7,-231.416"/>
<polygon fill="midnightblue" stroke="midnightblue" points="629.054,-41.8216 619.211,-45.7406 629.35,-48.8154 629.054,-41.8216"/>
</g>
<!-- Node10&#45;&gt;Node8 -->
<g id="edge10" class="edge"><title>Node10&#45;&gt;Node8</title>
<path fill="none" stroke="#9a32cd" stroke-dasharray="5,2" d="M966.2,-263.864C939.936,-259.55 910.178,-254.662 884.936,-250.516"/>
<polygon fill="#9a32cd" stroke="#9a32cd" points="965.643,-267.319 976.078,-265.486 966.777,-260.412 965.643,-267.319"/>
<text text-anchor="middle" x="933" y="-266" font-family="Helvetica,sans-Serif" font-size="10.00"> myCell</text>
</g>
<!-- Node11 -->
<g id="node11" class="node"><title>Node11</title>
<polygon fill="white" stroke="#bfbfbf" points="794.5,-193.5 794.5,-212.5 857.5,-212.5 857.5,-193.5 794.5,-193.5"/>
<text text-anchor="middle" x="826" y="-200.5" font-family="Helvetica,sans-Serif" font-size="10.00">Rectangle</text>
</g>
<!-- Node11&#45;&gt;Node10 -->
<g id="edge11" class="edge"><title>Node11&#45;&gt;Node10</title>
<path fill="none" stroke="midnightblue" d="M867.863,-209.137C893.672,-213.753 927.421,-221.162 956,-232 979.422,-240.883 1004.44,-255.743 1019.65,-265.458"/>
<polygon fill="midnightblue" stroke="midnightblue" points="868.131,-205.632 857.682,-207.387 866.945,-212.531 868.131,-205.632"/>
</g>
<!-- Node12 -->
<g id="node12" class="node"><title>Node12</title>
<polygon fill="white" stroke="#bfbfbf" points="562,-0.5 562,-19.5 630,-19.5 630,-0.5 562,-0.5"/>
<text text-anchor="middle" x="596" y="-7.5" font-family="Helvetica,sans-Serif" font-size="10.00">ImageView</text>
</g>
<!-- Node12&#45;&gt;Node8 -->
<g id="edge16" class="edge"><title>Node12&#45;&gt;Node8</title>
<path fill="none" stroke="#9a32cd" stroke-dasharray="5,2" d="M640.529,-5.73471C673.338,-5.13038 716.84,-10.378 742,-38 769.665,-68.3731 733.786,-190.365 760,-222 763.151,-225.802 767.017,-228.868 771.28,-231.337"/>
<polygon fill="#9a32cd" stroke="#9a32cd" points="640.153,-2.24621 630.29,-6.11561 640.413,-9.24137 640.153,-2.24621"/>
<text text-anchor="middle" x="717" y="-41" font-family="Helvetica,sans-Serif" font-size="10.00"> myView</text>
</g>
<!-- Node13 -->
<g id="node13" class="node"><title>Node13</title>
<g id="a_node13"><a xlink:href="../../df/d37/enumsimulation_objects_1_1_patch_1_1_state.html" target="_top" xlink:title="simulationObjects.Patch.\lState">
<polygon fill="white" stroke="black" points="529,-309 529,-339 663,-339 663,-309 529,-309"/>
<text text-anchor="start" x="537" y="-327" font-family="Helvetica,sans-Serif" font-size="10.00">simulationObjects.Patch.</text>
<text text-anchor="middle" x="596" y="-316" font-family="Helvetica,sans-Serif" font-size="10.00">State</text>
</a>
</g>
</g>
<!-- Node13&#45;&gt;Node8 -->
<g id="edge17" class="edge"><title>Node13&#45;&gt;Node8</title>
<path fill="none" stroke="#9a32cd" stroke-dasharray="5,2" d="M658.86,-306.049C684.774,-298.099 715.075,-288.235 742,-278 763.973,-269.647 788.485,-258.483 805.137,-250.61"/>
<polygon fill="#9a32cd" stroke="#9a32cd" points="657.708,-302.741 649.159,-309 659.744,-309.438 657.708,-302.741"/>
<text text-anchor="middle" x="717" y="-298" font-family="Helvetica,sans-Serif" font-size="10.00"> myState</text>
</g>
<!-- Node14 -->
<g id="node14" class="node"><title>Node14</title>
<polygon fill="white" stroke="#bfbfbf" points="572.5,-270.5 572.5,-289.5 619.5,-289.5 619.5,-270.5 572.5,-270.5"/>
<text text-anchor="middle" x="596" y="-277.5" font-family="Helvetica,sans-Serif" font-size="10.00">Image</text>
</g>
<!-- Node14&#45;&gt;Node8 -->
<g id="edge18" class="edge"><title>Node14&#45;&gt;Node8</title>
<path fill="none" stroke="#9a32cd" stroke-dasharray="5,2" d="M629.761,-274.396C666.148,-268.172 725.516,-258.017 769.248,-250.537"/>
<polygon fill="#9a32cd" stroke="#9a32cd" points="628.962,-270.982 619.695,-276.118 630.142,-277.882 628.962,-270.982"/>
<text text-anchor="middle" x="717" y="-266" font-family="Helvetica,sans-Serif" font-size="10.00"> image</text>
</g>
<!-- Node15&#45;&gt;Node8 -->
<g id="edge19" class="edge"><title>Node15&#45;&gt;Node8</title>
<path fill="none" stroke="#9a32cd" stroke-dasharray="5,2" d="M683.72,-406.497C704.206,-402.252 725.009,-395.035 742,-383 790.234,-348.834 814.732,-277.078 822.343,-250.86"/>
<polygon fill="#9a32cd" stroke="#9a32cd" points="682.903,-403.089 673.706,-408.35 684.176,-409.972 682.903,-403.089"/>
<text text-anchor="middle" x="717" y="-407" font-family="Helvetica,sans-Serif" font-size="10.00"> myBody</text>
</g>
<!-- Node16 -->
<g id="node16" class="node"><title>Node16</title>
<polygon fill="white" stroke="#bfbfbf" points="304,-406.5 304,-425.5 358,-425.5 358,-406.5 304,-406.5"/>
<text text-anchor="middle" x="331" y="-413.5" font-family="Helvetica,sans-Serif" font-size="10.00">Polygon</text>
</g>
<!-- Node16&#45;&gt;Node15 -->
<g id="edge20" class="edge"><title>Node16&#45;&gt;Node15</title>
<path fill="none" stroke="midnightblue" d="M368.408,-415.308C406.988,-414.574 469.039,-413.395 518.46,-412.455"/>
<polygon fill="midnightblue" stroke="midnightblue" points="368.111,-411.813 358.179,-415.502 368.244,-418.811 368.111,-411.813"/>
</g>
<!-- Node17 -->
<g id="node17" class="node"><title>Node17</title>
<polygon fill="white" stroke="#bfbfbf" points="310.5,-444.5 310.5,-463.5 351.5,-463.5 351.5,-444.5 310.5,-444.5"/>
<text text-anchor="middle" x="331" y="-451.5" font-family="Helvetica,sans-Serif" font-size="10.00">Point</text>
</g>
<!-- Node17&#45;&gt;Node15 -->
<g id="edge22" class="edge"><title>Node17&#45;&gt;Node15</title>
<path fill="none" stroke="#9a32cd" stroke-dasharray="5,2" d="M361.755,-449.611C395.361,-444.604 451.666,-436.064 500,-428 513.882,-425.684 528.883,-423.058 542.773,-420.574"/>
<polygon fill="#9a32cd" stroke="#9a32cd" points="361.058,-446.176 351.681,-451.108 362.087,-453.1 361.058,-446.176"/>
<text text-anchor="middle" x="464" y="-443" font-family="Helvetica,sans-Serif" font-size="10.00"> myCenter</text>
</g>
<!-- Node18 -->
<g id="node18" class="node"><title>Node18</title>
<polygon fill="white" stroke="#bfbfbf" points="264.5,-90 264.5,-120 397.5,-120 397.5,-90 264.5,-90"/>
<text text-anchor="start" x="272.5" y="-108" font-family="Helvetica,sans-Serif" font-size="10.00">List&lt; simulationObjects.</text>
<text text-anchor="middle" x="331" y="-97" font-family="Helvetica,sans-Serif" font-size="10.00">Patch &gt;</text>
</g>
<!-- Node18&#45;&gt;Node2 -->
<g id="edge26" class="edge"><title>Node18&#45;&gt;Node2</title>
<path fill="none" stroke="#9a32cd" stroke-dasharray="5,2" d="M399.895,-122.742C430.731,-131.325 467.5,-142.298 500,-154 526.366,-163.493 555.876,-176.642 574.907,-185.465"/>
<polygon fill="#9a32cd" stroke="#9a32cd" points="400.675,-119.327 390.105,-120.041 398.814,-126.075 400.675,-119.327"/>
<text text-anchor="middle" x="464" y="-157" font-family="Helvetica,sans-Serif" font-size="10.00"> emptyPatches</text>
</g>
<!-- Node18&#45;&gt;Node8 -->
<g id="edge23" class="edge"><title>Node18&#45;&gt;Node8</title>
<path fill="none" stroke="#9a32cd" stroke-dasharray="5,2" d="M407.972,-96.662C498.121,-91.0992 648.014,-96.0871 742,-175 759.131,-189.383 743.553,-206.84 760,-222 764.236,-225.905 769.232,-229.01 774.541,-231.48"/>
<polygon fill="#9a32cd" stroke="#9a32cd" points="407.563,-93.1816 397.822,-97.3486 408.036,-100.166 407.563,-93.1816"/>
<text text-anchor="middle" x="596" y="-137" font-family="Helvetica,sans-Serif" font-size="10.00"> myNeighbors</text>
</g>
<!-- Node19 -->
<g id="node19" class="node"><title>Node19</title>
<polygon fill="white" stroke="#bfbfbf" points="252,-151.5 252,-170.5 410,-170.5 410,-151.5 252,-151.5"/>
<text text-anchor="middle" x="331" y="-158.5" font-family="Helvetica,sans-Serif" font-size="10.00">HashMap&lt; Integer, Integer &gt;</text>
</g>
<!-- Node19&#45;&gt;Node2 -->
<g id="edge24" class="edge"><title>Node19&#45;&gt;Node2</title>
<path fill="none" stroke="#9a32cd" stroke-dasharray="5,2" d="M420.485,-167.884C446.188,-170.301 474.264,-173.344 500,-177 517.949,-179.55 537.662,-183.152 554.455,-186.464"/>
<polygon fill="#9a32cd" stroke="#9a32cd" points="420.664,-164.386 410.385,-166.955 420.023,-171.356 420.664,-164.386"/>
<text text-anchor="middle" x="464" y="-180" font-family="Helvetica,sans-Serif" font-size="10.00"> cellCounts</text>
</g>
</g>
</svg>
