<?xml version="1.0" encoding="UTF-8" standalone="no"?>
<!DOCTYPE svg PUBLIC "-//W3C//DTD SVG 1.1//EN"
 "http://www.w3.org/Graphics/SVG/1.1/DTD/svg11.dtd">
<!-- Generated by graphviz version 2.36.0 (20140111.2315)
 -->
<!-- Title: simulationObjects.PredatorCell Pages: 1 -->
<svg width="172pt" height="140pt"
 viewBox="0.00 0.00 172.00 140.00" xmlns="http://www.w3.org/2000/svg" xmlns:xlink="http://www.w3.org/1999/xlink">
<g id="graph0" class="graph" transform="scale(1 1) rotate(0) translate(4 136)">
<title>simulationObjects.PredatorCell</title>
<polygon fill="white" stroke="none" points="-4,4 -4,-136 168,-136 168,4 -4,4"/>
<!-- Node1 -->
<g id="node1" class="node"><title>Node1</title>
<polygon fill="#bfbfbf" stroke="black" points="0,-0.5 0,-19.5 164,-19.5 164,-0.5 0,-0.5"/>
<text text-anchor="middle" x="82" y="-7.5" font-family="Helvetica,sans-Serif" font-size="10.00">simulationObjects.PredatorCell</text>
</g>
<!-- Node2 -->
<g id="node2" class="node"><title>Node2</title>
<g id="a_node2"><a xlink:href="../../d2/d6e/classsimulation_objects_1_1_cell.html" target="_top" xlink:title="simulationObjects.Cell">
<polygon fill="white" stroke="black" points="21,-56.5 21,-75.5 143,-75.5 143,-56.5 21,-56.5"/>
<text text-anchor="middle" x="82" y="-63.5" font-family="Helvetica,sans-Serif" font-size="10.00">simulationObjects.Cell</text>
</a>
</g>
</g>
<!-- Node2&#45;&gt;Node1 -->
<g id="edge1" class="edge"><title>Node2&#45;&gt;Node1</title>
<path fill="none" stroke="midnightblue" d="M82,-45.8045C82,-36.9102 82,-26.7798 82,-19.7511"/>
<polygon fill="midnightblue" stroke="midnightblue" points="78.5001,-46.083 82,-56.083 85.5001,-46.083 78.5001,-46.083"/>
</g>
<!-- Node3 -->
<g id="node3" class="node"><title>Node3</title>
<polygon fill="white" stroke="#bfbfbf" points="50.5,-112.5 50.5,-131.5 113.5,-131.5 113.5,-112.5 50.5,-112.5"/>
<text text-anchor="middle" x="82" y="-119.5" font-family="Helvetica,sans-Serif" font-size="10.00">Rectangle</text>
</g>
<!-- Node3&#45;&gt;Node2 -->
<g id="edge2" class="edge"><title>Node3&#45;&gt;Node2</title>
<path fill="none" stroke="midnightblue" d="M82,-101.805C82,-92.9102 82,-82.7798 82,-75.7511"/>
<polygon fill="midnightblue" stroke="midnightblue" points="78.5001,-102.083 82,-112.083 85.5001,-102.083 78.5001,-102.083"/>
</g>
</g>
</svg>
